<?xml version="1.0" encoding="UTF-8"?>
<!-- Generated by Pixelmator Pro 3.4.1 -->
<svg width="182" height="195" viewBox="0 0 182 195" xmlns="http://www.w3.org/2000/svg">
    <path id="Path-copy-20" fill="#cccccc" fill-rule="evenodd" stroke="none" d="M 90.303467 182.165344 C 40.528809 182.165344 0.160583 184.956146 0.160583 188.359528 C 0.160583 191.762909 40.528809 194.55368 90.303467 194.55368 C 140.119934 194.55368 180.488159 191.762909 180.488159 188.359528 C 180.488159 184.956146 140.119934 182.165344 90.303467 182.165344 Z"/>
    <path id="Path-copy-19" fill="#575757" fill-rule="evenodd" stroke="none" d="M 16.9953 0.998779 C 16.927246 0.998779 16.849426 0.998779 16.771637 1.008514 C 2.680603 1.776794 13.932037 81.706024 14.496063 89.340088 C 15.069824 97.032501 14.496063 114.002533 14.496063 114.002533 C 14.496063 114.002533 10.936829 178.352417 12.638641 183.351013 C 13.786163 186.81311 15.701935 188.34964 17.335663 188.34964 C 19.008301 188.34964 20.379486 186.745026 20.330872 183.973419 C 20.126648 178.498291 17.287048 173.081482 18.113647 163.074524 C 18.580444 157.968933 19.095825 146.308746 19.095825 146.308746 L 31.475342 146.357391 C 31.475342 146.357391 27.964752 184.693054 34.412201 187.484131 C 35.462463 187.921753 36.269623 188.116241 36.891998 188.116241 C 40.13031 188.116241 38.03949 182.602203 36.998962 177.311829 C 35.812561 171.06842 37.358765 146.979767 37.358765 146.979767 C 37.358765 146.979767 48.085083 133.355133 71.152008 131.342072 C 72.581543 131.215668 73.991608 131.157318 75.372528 131.157318 C 88.539734 131.157318 99.577209 136.418488 106.345581 141.562988 C 106.345581 141.562988 125.075317 171.12677 131.833984 179.587463 C 137.318665 186.463013 143.56189 191.461609 148.891052 191.461609 C 150.126038 191.461609 151.302734 191.199036 152.421082 190.625275 C 158.353149 187.58136 154.998108 186.81311 146.848877 183.662231 C 138.74823 180.511353 135.957214 176.796417 128.94574 165.807251 C 124.404297 158.639954 121.204895 151.258759 119.503082 146.979767 C 119.75592 146.979767 119.960144 147.028412 120.222717 147.028412 C 121.136841 147.057587 122.060669 147.067291 122.974792 147.067291 C 125.600464 147.067291 128.226135 146.960327 130.900391 146.765839 C 136.424011 155.751648 152.57666 182.738342 162.223572 186.968689 C 166.045349 188.651123 168.739075 189.322144 170.567322 189.322144 C 174.194641 189.322144 174.359924 186.686676 173.163818 184.284607 C 171.355042 180.666931 167.844421 184.440216 161.912354 179.840332 C 156.592957 175.765564 142.560242 151.618561 139.467834 146.094818 C 139.001038 126.907501 138.485657 103.88858 138.485657 103.88858 C 138.485657 103.88858 103.243408 87.171417 71.618805 85.469574 C 68.876434 85.333405 66.260498 85.26535 63.751526 85.26535 C 45.926208 85.26535 34.052368 88.503754 28.120331 90.633514 C 27.896667 90.643219 27.663269 90.643219 27.420166 90.643219 C 25.144592 90.643219 22.373047 90.137543 21.721497 87.949432 C 21.108856 85.829376 19.659882 57.296448 19.971069 34.180237 C 20.223907 15.430603 22.995422 0.998779 16.9953 0.998779 Z"/>
    <path id="Path-copy-18" fill="#919191" fill-rule="evenodd" stroke="none" d="M 39.780212 87.43399 L 39.780212 87.43399 C 36.532166 88.046661 33.74118 88.824677 31.426727 89.495697 C 31.990753 91.557373 39.935822 94.29007 35.608337 101.155884 C 34.470551 103.013336 31.426727 107.195068 37.98114 114.362335 C 40.655426 117.30899 38.0784 118.339844 37.31015 123.863617 C 36.532166 129.436005 42.055786 137.274292 45.303833 140.065338 C 46.179047 139.394318 48.756073 137.993927 49.845245 137.322906 C 47.423798 133.919189 44.632813 130.359863 45.352448 126.693573 C 45.71225 124.379028 47.725281 122.978638 48.240692 120.712738 C 49.329834 115.607147 42.571198 112.97168 41.695984 109.052521 C 40.713776 105.026398 43.60202 102.857758 45.819244 100.076416 C 47.161255 98.316193 43.854858 96.254517 42.882385 95.223663 C 40.295624 92.539581 39.42041 89.855499 39.780212 87.43399 Z"/>
    <path id="Path-copy-17" fill="#919191" fill-rule="evenodd" stroke="none" d="M 61.300903 85.216705 L 61.300903 85.216705 C 58.568268 85.26535 55.932892 85.372314 53.453094 85.518188 C 53.141907 86.403168 52.111084 86.714355 51.391479 87.5896 C 48.707458 91.100311 53.297516 92.646576 54.328339 94.815216 C 55.621704 97.596558 55.524445 100.689087 54.231079 103.431519 C 53.560089 104.977783 52.013855 107.963348 56.808105 111.687988 C 59.599091 113.798309 59.336517 118.184235 58.305725 121.335114 C 57.479126 123.912231 53.667053 126.547699 54.435303 129.377655 C 54.902069 131.137848 56.18573 132.888336 57.274902 134.133148 C 59.385162 133.403778 61.709351 132.732758 64.189148 132.265961 C 62.895752 130.408478 60.834137 128.764984 62.487335 125.818329 C 66.71756 118.651031 65.686737 117.513214 65.268585 114.420685 C 64.655914 109.363739 59.385162 107.914703 60.270111 105.026398 C 63.673737 93.52182 58.772491 96.098907 58.616913 90.575165 C 58.568268 88.824677 60.629913 86.558746 61.300903 85.216705 Z"/>
    <path id="Path-copy-16" fill="#919191" fill-rule="evenodd" stroke="none" d="M 75.84903 85.673798 C 75.382233 86.860229 69.916962 88.416229 71.725769 95.486237 C 72.649597 99.045563 76.52002 99.609619 74.195831 108.274536 C 72.445374 114.780518 75.742065 117.668823 77.346619 122.365967 C 78.173218 124.738861 77.395233 128.298187 75.84903 130.359863 C 75.644806 130.719696 75.537842 130.982269 75.333618 131.137848 C 77.298004 131.137848 79.097076 131.293457 80.905853 131.497681 C 82.345093 130.204254 83.327301 129.124786 83.794067 127.675781 C 86.886536 118.13562 76.831207 115.655762 81.936676 105.182007 C 82.559052 103.88858 83.230042 100.28064 82.71463 98.471802 C 81.421265 94.192841 79.408264 94.348419 78.737244 91.304535 C 78.426056 89.806885 79.875031 87.53125 80.750244 86.247559 C 79.612457 86.140594 77.035431 85.829376 75.84903 85.673798 Z"/>
    <path id="Path-copy-15" fill="#919191" fill-rule="evenodd" stroke="none" d="M 88.695313 87.638214 C 88.957886 88.416229 89.521912 89.184479 90.192902 89.699921 C 92.050323 91.304535 93.800781 93.161987 94.423157 95.632111 C 95.765137 100.533478 93.800781 103.275909 91.272339 107.243683 C 88.899536 111.016968 94.111969 115.762726 94.423157 119.934723 C 94.734344 125.205658 89.833099 126.907501 90.241547 133.403778 C 91.894745 133.977539 93.596558 134.59021 95.201111 135.212616 C 95.502594 134.901398 95.249756 132.168701 97.933746 128.764984 C 99.47998 126.849152 101.959778 126.644928 102.728027 120.245941 C 102.99057 118.23288 98.80896 111.989471 99.217407 110.754395 C 100.666382 106.008636 103.243408 105.44458 103.08783 103.732971 C 102.475189 98.578735 101.959778 95.534882 104.021393 91.246185 C 99.120148 89.855499 93.95636 88.571808 88.695313 87.638214 Z"/>
    <path id="Path-copy-14" fill="#919191" fill-rule="evenodd" stroke="none" d="M 115.117249 94.708252 C 114.601837 94.912476 114.028076 95.01944 113.308472 95.068085 C 109.953461 95.175049 111.499664 101.204498 111.762238 103.480133 C 112.219299 107.302032 113.045898 111.47403 111.810852 115.188965 C 110.887024 118.028656 107.94043 119.215088 106.754028 121.587982 C 106.754028 121.587982 106.754028 121.587982 106.754028 121.587982 C 106.831818 121.587982 109.233826 126.751923 109.389404 127.675781 C 110.361877 132.732758 107.687592 136.963104 104.070007 140.065338 C 104.847992 140.58078 105.567627 141.096191 106.287231 141.611603 L 106.287231 141.611603 C 106.277527 141.611603 107.502838 143.507965 109.389404 146.464355 C 110.887024 145.530762 112.170685 144.499908 112.997284 143.206512 C 115.214508 139.647186 113.415436 137.322906 111.966461 133.870575 C 109.175476 126.956146 111.606628 121.694946 118.161072 118.651031 C 122.332947 116.686615 120.942322 112.2034 121.564697 108.225922 C 122.031494 105.288971 123.733337 103.733002 125.483765 101.467072 C 126.154724 100.689087 126.718811 99.920807 127.234192 99.094208 C 123.781921 97.752167 119.707306 96.205902 115.117249 94.708252 Z"/>
    <path id="Path-copy-13" fill="#919191" fill-rule="evenodd" stroke="none" d="M 135.908569 102.702148 C 134.148438 105.182007 130.696167 107.914703 130.540588 110.70578 C 130.278015 115.033356 130.589172 120.041718 127.389771 123.445435 C 125.843567 125.098663 119.444733 127.16037 120.174072 129.280396 C 121.302124 132.684113 123.888916 136.243439 123.626343 140.065338 C 123.470764 142.74942 122.59552 145.01535 121.457764 147.028412 C 121.88562 147.038116 122.303772 147.038116 122.721924 147.038116 C 125.45459 147.038116 128.187195 146.901978 131.007385 146.765839 C 136.472656 155.751648 152.67395 182.738342 162.272156 186.968689 C 166.084229 188.651123 168.76825 189.322144 170.577026 189.322144 C 174.194641 189.322144 174.359924 186.686676 173.163818 184.284607 C 171.355042 180.666931 167.844421 184.440216 161.912354 179.840332 C 156.592957 175.765564 142.560242 151.618561 139.467834 146.094818 C 139.001038 126.907501 138.485657 103.88858 138.485657 103.88858 C 138.485657 103.88858 137.561768 103.431519 135.908569 102.702148 Z"/>
    <path id="Path-copy-12" fill="#919191" fill-rule="evenodd" stroke="none" d="M 120.115723 148.681641 C 118.462494 150.743317 116.507843 152.44519 114.232269 153.991455 C 120.174072 163.123169 127.856567 174.734741 131.72699 179.587463 C 137.221436 186.463013 143.425781 191.461609 148.745178 191.461609 C 149.970459 191.461609 151.147156 191.199036 152.265503 190.625275 C 158.197571 187.58136 154.842529 186.861725 146.741882 183.662231 C 138.59259 180.511353 135.801636 176.796417 128.790161 165.807251 C 124.812744 159.515198 121.9245 153.116211 120.115723 148.681641 Z"/>
    <path id="Path-copy-11" fill="#575757" fill-rule="evenodd" stroke="none" d="M 111.344086 57.354797 C 111.344086 57.354797 107.473663 62.975769 102.368195 84.59433 C 97.321106 105.843292 105.207794 131.662994 141.276611 131.662994 C 141.733704 131.662994 142.200439 131.662994 142.667236 131.65329 C 172.123291 131.137848 178.677673 79.897186 178.677673 79.897186 L 178.677673 79.897186 L 166.813599 88.309235 L 118.462524 69.374786 L 111.344086 57.354797 Z"/>
    <path id="Path-copy-10" fill="#1f1f1f" fill-rule="evenodd" stroke="none" d="M 100.617767 86.607391 L 128.012146 106.057251 L 128.274719 105.288971 L 100.617767 86.607391 Z"/>
    <path id="Path-copy-9" fill="#1f1f1f" fill-rule="evenodd" stroke="none" d="M 97.214142 98.530151 L 126.154724 109.052521 L 126.621521 108.177277 L 97.214142 98.530151 Z"/>
    <path id="Path-copy-8" fill="#1f1f1f" fill-rule="evenodd" stroke="none" d="M 96.173584 111.629639 L 124.501526 113.234253 L 124.812744 112.456268 L 96.173584 111.629639 Z"/>
    <path id="Path-copy-7" fill="#1f1f1f" fill-rule="evenodd" stroke="none" d="M 144.417664 110.754395 L 144.164856 111.532379 L 177.695496 113.594086 L 144.417664 110.754395 Z"/>
    <path id="Path-copy-6" fill="#1f1f1f" fill-rule="evenodd" stroke="none" d="M 143.902283 114.109497 L 143.698059 115.033356 L 172.8526 125.050049 L 143.902283 114.109497 Z"/>
    <path id="Path-copy-5" fill="#1f1f1f" fill-rule="evenodd" stroke="none" d="M 142.618591 118.495453 L 142.404663 119.370697 L 165.422974 135.883636 L 142.618591 118.495453 Z"/>
    <path id="Path-copy-4" fill="#919191" fill-rule="evenodd" stroke="none" d="M 135.752991 111.114227 L 134.722168 111.532379 C 134.722168 111.532379 133.06897 120.245941 130.073792 121.179535 C 129.772339 121.267059 129.451416 121.305939 129.111023 121.305939 C 126.183899 121.305939 122.284302 118.23288 122.284302 118.23288 L 122.284302 118.23288 C 122.284302 118.242584 126.076965 122.434052 129.431946 122.434052 C 130.36554 122.434052 131.260193 122.113129 132.038147 121.276764 C 132.242371 121.07254 132.349365 120.819702 132.553589 120.664093 L 132.553589 121.694946 C 132.786987 125.001434 136.618469 125.594635 139.341431 125.594635 C 140.868164 125.594635 142.044861 125.409882 142.044861 125.409882 C 142.044861 125.409882 135.908569 125.361237 134.148438 122.774414 C 132.39801 120.245941 136.628235 112.407623 136.628235 112.407623 L 136.112793 111.425415 C 136.112793 111.425415 135.908569 111.687988 135.704407 111.989471 C 135.752991 111.47403 135.752991 111.114227 135.752991 111.114227 Z"/>
    <path id="Path-copy-3" fill="#1f1f1f" fill-rule="evenodd" stroke="none" d="M 134.547119 107.554901 C 133.039795 107.554901 131.843689 108.148102 131.474121 109.20813 C 130.851746 110.754395 132.504944 112.767456 134.975037 113.6427 C 135.81134 113.953888 136.637939 114.090057 137.386719 114.090057 C 138.932983 114.090057 140.16803 113.496826 140.547241 112.456268 C 141.121033 110.910004 139.516479 108.896942 136.988037 108.021698 C 136.141968 107.71048 135.305664 107.554901 134.547119 107.554901 Z"/>
    <path id="Path-copy-2" fill="#919191" fill-rule="evenodd" stroke="none" d="M 117.431732 91.100311 C 117.431732 91.100311 117.694275 94.241455 120.018494 96.050293 C 121.068726 96.867188 122.498291 97.090851 123.743042 97.090851 C 125.240662 97.090851 126.465942 96.769928 126.465942 96.769928 C 126.465942 96.769928 122.187073 96.205902 120.689514 95.116699 C 118.569519 93.473175 117.431732 91.100311 117.431732 91.100311 Z"/>
    <path id="Path-copy" fill="#919191" fill-rule="evenodd" stroke="none" d="M 145.915283 104.248413 C 145.915283 104.258148 147.101685 107.146454 149.8927 108.118927 C 150.369202 108.293976 150.865112 108.362061 151.37085 108.362061 C 153.802002 108.362061 156.291504 106.728271 156.291504 106.728271 L 156.291504 106.728271 C 156.281799 106.728271 153.918701 107.185333 151.954285 107.185333 C 151.283325 107.185333 150.66095 107.136719 150.203857 106.990845 C 147.617126 106.21286 145.915283 104.258148 145.915283 104.248413 Z"/>
</svg>
