<?xml version="1.0" encoding="UTF-8"?>
<!-- Generated by Pixelmator Pro 3.4.1 -->
<svg width="252" height="289" viewBox="0 0 252 289" xmlns="http://www.w3.org/2000/svg">
    <path id="Path-copy-21" fill="#e4d7b8" fill-rule="evenodd" stroke="none" d="M 157.343353 48.570251 C 157.703751 48.570251 158.089508 48.621033 158.495575 48.727631 C 160.069092 49.189514 160.997971 50.209778 161.18071 52.062439 C 161.18071 53.361877 161.272064 54.661316 161.368515 55.864258 C 161.459869 58.087494 160.810165 60.031555 158.495575 60.589905 C 158.119965 60.681274 157.774811 60.726929 157.460098 60.726929 C 155.587112 60.726929 154.668381 59.199097 153.952682 57.529175 C 153.028885 55.123199 152.932449 52.620789 154.419662 50.306213 C 155.13028 49.164154 156.120071 48.570251 157.343353 48.570251 Z M 220.725525 61.254822 C 220.948883 61.254822 221.177277 61.280212 221.410767 61.330963 C 223.725372 61.792847 224.283722 64.016113 224.283722 66.335754 L 224.283722 66.889038 C 224.004547 69.300049 223.354828 71.614624 220.948883 72.822693 C 220.552948 72.990204 220.141815 73.071411 219.730682 73.071411 C 218.796722 73.071411 217.883057 72.639954 217.238434 71.802429 C 215.664917 69.482788 215.385742 66.980408 216.593781 64.483093 C 217.583588 62.833435 218.938843 61.254822 220.725525 61.254822 Z M 179.712646 72.914063 C 183.235291 73.375977 187.311188 74.858093 190.925201 77.360504 C 192.965698 78.751282 193.148422 82.086121 191.295746 83.659637 C 188.981155 85.791504 186.38739 87.644196 184.067719 89.684692 C 183.331726 90.359772 182.484055 90.669403 181.636398 90.669403 C 179.930908 90.669403 178.230499 89.410583 177.489426 87.370087 L 174.337311 79.401001 C 172.855164 75.599182 174.616486 72.914063 179.712646 72.914063 Z M 149.754959 104.328522 C 150.460495 104.328522 151.196503 104.572144 151.917267 104.973145 C 154.972931 106.734467 158.125046 108.587158 161.272064 110.34848 C 168.408722 114.241669 176.190002 116.556244 184.346893 117.855652 C 188.270538 118.505371 192.34137 119.089111 196.432495 119.089111 C 196.975616 119.089111 197.518738 119.078949 198.061844 119.058655 C 201.305328 118.77948 204.452347 118.596741 207.695816 118.129761 C 208.020676 118.068848 208.330307 118.033325 208.629776 118.033325 C 209.60434 118.033325 210.396179 118.408936 210.756561 119.33783 C 211.21846 120.911316 209.919037 121.190491 208.898804 121.561035 C 202.391556 123.581238 195.884308 125.185211 188.981155 125.185211 C 188.610611 125.185211 188.240082 125.185211 187.869537 125.175049 C 174.89566 124.708069 162.662857 121.93158 152.100006 113.962494 C 150.617859 112.850861 149.323517 111.460083 148.024094 110.257111 C 146.821121 108.957703 145.983597 107.566925 147.28302 105.805603 C 147.968262 104.754883 148.831146 104.328522 149.754959 104.328522 Z M 111.087112 164.482452 C 111.33075 164.482452 111.579468 164.523071 111.792648 164.553528 C 114.386414 165.015411 116.79744 165.944305 119.11203 166.964539 C 132.91835 173.263672 141.354416 184.197052 146.912476 197.912018 C 149.96814 205.41922 152.008636 213.29184 152.008636 221.540131 C 152.008636 222.651733 152.008636 223.763336 152.100006 224.874939 C 152.008636 227.468719 150.338684 229.417847 148.206818 229.417847 C 145.983597 229.321411 144.592819 227.935699 144.13092 225.803833 C 143.019302 220.981781 141.907684 215.982056 140.983887 210.977264 C 138.755585 199.947449 135.329391 189.572388 128.101364 180.770874 C 123.934097 175.674713 119.208481 171.131805 113.183441 168.258881 C 112.533722 167.888336 111.701294 167.426453 110.96022 167.055908 C 110.310501 166.776733 109.757233 166.31485 109.939972 165.385956 C 110.127777 164.644867 110.599823 164.482452 111.087112 164.482452 Z M 139.862122 4.420502 C 138.263229 4.420502 136.765854 4.923035 135.79129 6.755402 C 139.03476 8.608093 142.466034 10.09021 145.430328 12.592621 C 149.876785 16.389343 151.079758 20.465271 148.303268 25.657867 C 145.151154 31.586487 140.796082 35.850189 134.400497 38.073425 C 133.760941 38.215515 133.121384 38.413483 132.52243 38.413483 C 132.344788 38.413483 132.16713 38.393188 131.994553 38.3526 C 131.715378 39.926086 131.253479 41.408264 130.415955 42.799011 C 126.710587 49.189514 124.395996 56.143433 122.355499 63.092285 C 119.57901 72.543518 118.650131 82.086121 120.502823 91.816528 C 120.690628 93.207336 120.411453 93.851959 119.299835 94.593018 C 115.594467 97.095428 112.071823 99.694275 108.366455 102.10022 C 92.798813 112.292542 77.139801 122.205658 64.627823 136.291168 C 56.196831 145.742401 49.247986 156.213898 44.522369 168.076141 C 42.761047 172.243439 41.837242 176.68988 40.258652 181.232758 C 39.614014 180.121155 39.147041 179.562805 38.96431 178.918182 C 35.533028 171.131805 33.771706 162.883545 33.497612 154.452576 C 33.401169 148.153442 32.568733 142.037018 33.218445 135.641449 C 33.868149 129.900665 33.680344 124.063446 34.421417 118.317566 C 35.72084 107.105011 38.035423 96.080261 41.740799 85.420959 C 44.243195 77.918854 47.857201 70.782227 49.806328 63.092285 C 54.064972 46.22522 51.288475 30.845398 41.558067 16.577179 C 37.852692 19.353699 36.832451 23.526031 36.741081 27.881104 C 36.461914 33.160004 36.461914 38.626709 36.741081 43.910645 C 37.202988 55.772919 33.497612 66.335754 27.102036 76.061096 C 24.229103 80.416168 21.543976 84.867676 18.112705 88.664429 C 15.057041 91.907898 11.813572 95.059998 7.087955 95.521912 C 3.012043 107.384186 1.433453 119.799713 0.692379 132.30661 C 0.321842 139.072723 -0.14006 145.838837 0.321842 152.691254 C 0.97155 160.4776 1.342087 168.355316 2.920677 175.948792 C 7.179317 196.61261 16.909729 213.383209 36.182739 223.484161 C 38.035423 224.504425 39.517578 225.524658 40.07592 227.656525 C 40.507362 227.590546 40.913437 227.554993 41.299202 227.554993 C 44.141678 227.554993 45.791328 229.306183 46.933395 231.915161 C 50.359596 240.163422 54.714676 247.670593 60.369179 254.528076 C 69.449883 265.273651 80.286827 273.521912 93.539886 278.435364 C 96.783356 279.638336 99.83902 280.841309 102.899765 282.602631 C 104.661087 283.622864 106.605133 284.643127 106.696503 287.236877 C 114.147842 288.399261 121.543365 288.901764 128.969345 288.901764 C 131.60878 288.901764 134.253296 288.840851 136.902893 288.719025 C 140.055008 288.43985 143.207108 288.810394 146.171402 287.790161 C 146.912476 286.774963 147.744919 285.75473 148.206818 284.734497 C 148.836227 283.013763 149.856476 281.622986 151.501053 281.622986 C 151.800522 281.622986 152.125381 281.668671 152.470535 281.770203 C 154.511032 282.323456 155.62265 284.176147 155.252106 286.495819 C 155.358704 286.485657 155.470367 286.480591 155.582031 286.480591 C 156.074402 286.480591 156.571823 286.551636 157.064194 286.551636 C 157.592072 286.551636 158.109818 286.470428 158.586945 286.125275 C 158.2164 283.805603 159.145279 281.673737 159.145279 279.359161 C 159.145279 277.968384 160.069092 277.135925 161.459869 277.044556 C 161.596924 277.029327 161.723816 277.019196 161.845642 277.019196 C 163.145065 277.019196 163.708481 277.897308 163.962265 279.079987 C 164.24144 280.932678 164.424179 282.881805 164.611984 284.734497 C 165.997681 284.546692 167.479843 284.272583 168.596527 283.16098 C 168.317352 279.638336 168.225983 276.207062 166.926575 272.872223 C 166.55603 272.039764 166.464661 271.207336 166.368225 270.369812 C 166.094131 268.9841 166.926575 268.055237 167.946808 267.405518 C 168.347809 267.126343 168.7285 267.014679 169.088882 267.014679 C 169.809647 267.014679 170.449203 267.466431 171.002472 267.963867 C 173.784042 270.095734 174.804291 273.339203 175.819458 276.394867 C 178.971573 271.481445 177.027512 263.700165 171.560822 259.903412 C 168.596527 257.771545 165.444427 256.010223 161.739044 255.822418 C 160.348267 255.731049 159.977722 255.269165 160.997971 254.157532 C 165.906326 249.431915 169.149796 243.49826 172.951599 238.127991 C 176.098633 231.823792 179.529907 225.895203 183.235291 220.149323 C 183.418015 226.544891 183.884995 232.844055 184.626068 239.143188 C 186.01178 251.284607 188.052277 263.32962 192.869247 274.724915 C 194.965576 279.618011 198.873993 282.450348 204.355911 282.450348 C 204.690918 282.450348 205.030991 282.440186 205.381226 282.419891 C 205.838058 282.384369 206.31012 282.353912 206.772018 282.353912 C 207.624756 282.353912 208.46228 282.46051 209.177963 282.881805 C 208.254166 278.064819 207.233917 273.151398 206.305038 268.334412 C 205.010696 261.385559 204.360992 254.340271 203.619904 247.20871 C 202.9702 240.625336 202.046402 234.143463 201.208878 227.565155 C 199.72673 216.256165 198.802933 205.048676 199.264832 193.836121 C 199.264832 192.815857 199.544006 191.886993 199.72673 190.77536 C 199.8181 189.851563 200.097275 189.110504 201.117508 189.110504 C 202.137756 189.110504 202.229126 189.851563 202.508301 190.77536 C 203.619904 196.242065 204.822891 201.617401 205.84314 206.992706 C 208.15773 218.575806 210.386017 230.158905 211.771729 241.924744 C 213.350311 255.360535 216.126801 268.796295 217.979492 282.232086 C 218.258667 283.805603 217.979492 285.566925 217.979492 287.145508 C 218.355103 287.145508 218.817017 287.328247 219.187561 287.328247 C 219.096191 286.125275 219.740814 285.196381 220.111359 284.176147 C 220.532654 282.592468 221.47168 281.836182 222.87262 281.836182 C 223.029968 281.836182 223.192413 281.841248 223.354828 281.861542 C 225.02478 282.232086 226.045044 283.435059 225.857208 285.384186 L 225.857208 287.328247 C 227.339386 287.145508 229.009338 286.866333 230.400116 286.125275 C 230.029572 285.105011 229.841766 284.084778 229.471222 283.064545 C 228.730164 281.399658 229.100677 280.008881 230.77066 279.079987 C 231.420349 278.704376 232.029449 278.531799 232.603027 278.531799 C 233.57251 278.531799 234.425262 279.039368 235.125732 279.917511 C 235.95816 280.749939 236.420074 281.861542 236.978424 282.881805 C 239.11026 282.323456 240.125458 280.562134 241.424866 279.079987 C 240.683777 278.064819 240.034088 277.044556 239.20163 275.932953 C 238.181396 274.82135 237.810852 273.521912 239.11026 272.410309 C 239.612793 271.90274 240.176208 271.684479 240.765015 271.684479 C 241.465485 271.684479 242.201477 271.999176 242.907013 272.501678 C 243.368927 272.872223 243.739441 273.151398 244.206421 273.521912 C 245.409393 270.187103 244.759705 266.664459 244.668335 263.238251 C 244.576965 259.157257 243.739441 255.269165 243.094818 251.284607 C 241.612671 241.742004 240.034088 232.290771 238.181396 222.743103 C 234.937927 205.881104 231.415283 189.110504 228.730164 172.060699 C 227.989075 167.055908 227.989075 162.513031 230.491486 157.696045 C 237.719482 144.168884 239.754913 129.80423 235.399841 114.886292 C 235.125732 113.774689 235.308472 112.850861 235.95816 111.921997 C 239.11026 108.028809 241.237061 103.582367 243.277557 98.94812 C 247.079376 90.146606 249.485321 80.883179 249.764496 71.152771 C 249.947235 63.645569 248.744232 56.326172 246.429657 49.189545 C 244.38916 48.915466 242.907013 47.895203 241.612671 47.154114 C 237.348969 43.260925 233.273041 39.093689 230.212311 34.088867 C 226.319122 28.063843 227.61853 23.526031 234.01413 20.561737 C 238.272766 18.429871 242.907013 17.500977 247.632629 17.221802 C 246.089569 12.369324 244.03894 11.166321 241.683746 11.166321 C 241.206604 11.166321 240.71933 11.217102 240.221893 11.293213 C 232.252808 12.684021 224.375061 14.724487 217.055695 18.429871 C 215.385742 25.190918 211.497635 30.657593 207.513092 36.032928 C 206.772018 36.870453 206.122299 37.79425 205.381226 38.626709 C 204.83812 39.230713 204.213791 39.52002 203.538696 39.52002 C 203.178314 39.52002 202.802704 39.438843 202.416931 39.276398 C 201.208878 38.723145 201.675858 37.79425 201.767227 36.870453 C 202.691025 29.271912 205.934494 22.323059 208.716064 15.095032 C 204.081818 12.775391 199.264832 11.384583 194.26004 10.09024 C 194.26004 16.851288 193.239792 23.526031 191.574905 30.01297 C 191.133316 31.941772 190.448074 33.454407 188.25531 33.454407 C 188.133484 33.454407 188.001511 33.449341 187.869537 33.439148 C 185.458511 33.160004 184.996613 31.403748 184.808792 29.45462 C 183.976364 22.505798 183.884995 15.465576 184.900162 8.516724 C 183.433243 8.440613 181.976471 8.399994 180.519699 8.399994 C 176.362579 8.399994 172.246063 8.734985 168.129547 9.628357 C 169.70813 16.110229 171.190292 22.597168 173.413513 28.992737 C 173.784042 30.195679 173.413513 30.845398 172.58107 31.403748 C 172.240982 31.6474 171.941513 31.748901 171.667419 31.748901 C 171.114151 31.748901 170.662399 31.337769 170.170044 30.845398 C 164.886078 25.657898 160.718796 19.820679 159.145279 12.404846 C 154.049133 8.699463 148.673798 5.735168 142.369598 4.714905 C 141.547302 4.557556 140.689484 4.420532 139.862122 4.420532 Z"/>
    <path id="Path-copy-20" fill="#d4b98f" fill-rule="evenodd" stroke="none" d="M 20.879051 0.486694 C 18.777645 0.486694 16.676243 0.958771 14.595142 1.93335 C 3.194778 7.217285 4.306389 17.871521 11.072502 24.17572 C 13.387093 26.398926 15.427586 28.530823 17.188904 31.215942 C 22.838333 39.926086 24.229111 48.915436 20.432377 58.645844 C 18.209152 64.112549 16.168659 69.670593 14.128166 75.228638 C 11.813576 81.806946 8.940643 88.202515 7.458496 95.151367 C 12.275478 94.689453 15.518948 91.725159 18.483246 88.293884 C 21.914528 84.400696 24.691017 79.954285 27.47258 75.690552 C 33.868156 65.96521 37.573532 55.402374 37.111626 43.63147 C 36.832458 38.256134 36.832458 32.789429 37.111626 27.510559 C 37.202995 23.246826 38.126801 19.079559 41.928612 16.298004 C 38.593781 10.369385 34.238693 5.643799 28.305023 2.40033 C 25.848312 1.146576 23.361145 0.486694 20.879051 0.486694 Z"/>
    <path id="Path-copy-19" fill="#d4b98f" fill-rule="evenodd" stroke="none" d="M 41.679893 227.067719 C 41.26368 227.067719 40.822075 227.108337 40.355095 227.189545 C 40.258659 228.209778 40.446465 229.138672 40.725632 230.250275 C 43.040222 239.239624 46.745598 247.579254 51.471214 255.54834 C 53.511711 258.324829 55.547127 261.289124 57.866791 263.882874 C 66.856125 274.450806 78.530586 280.470764 91.778564 283.993408 C 96.783356 285.196381 101.691711 286.495819 106.975662 286.774963 C 106.787857 284.176147 104.843811 283.16098 103.082489 282.140717 C 100.118195 280.379395 96.96608 279.079987 93.72261 277.968384 C 80.383278 273.060028 69.632622 264.811768 60.64328 254.061096 C 54.902496 247.20871 50.638779 239.610138 47.207497 231.453247 C 46.080658 228.874725 44.461464 227.067719 41.679893 227.067719 Z"/>
    <path id="Path-copy-18" fill="#d49a9e" fill-rule="evenodd" stroke="none" d="M 247.54126 16.668518 C 242.815643 16.947693 238.181396 17.871521 233.826324 20.003357 C 227.527191 23.155457 226.227753 27.510559 230.029572 33.530518 C 233.176605 38.535309 237.257599 42.707642 241.516235 46.595764 C 242.907013 47.895203 244.38916 49.098145 246.429657 49.189514 C 246.891571 48.357086 247.353455 47.524658 247.54126 46.595764 C 249.576691 40.758545 249.947235 34.459412 250.043671 28.251648 C 250.226379 24.26709 249.947235 20.094727 247.54126 16.668518 Z"/>
    <path id="Path-copy-17" fill="#d49a9e" fill-rule="evenodd" stroke="none" d="M 135.79129 6.288422 C 135.329391 6.567566 134.958847 6.93811 134.679672 7.58783 C 131.344833 17.409607 129.492157 27.510559 131.903183 37.982056 C 132.014847 37.992188 132.126526 37.997253 132.243271 37.997253 C 132.964035 37.997253 133.684814 37.76886 134.400497 37.611511 C 140.704712 35.29184 145.242523 31.028137 148.303268 25.190887 C 150.897018 20.003357 149.876785 15.92746 145.338959 12.125641 C 142.466034 9.531891 139.03476 8.141113 135.79129 6.288422 Z"/>
    <path id="Path-copy-16" fill="#d4b98f" fill-rule="evenodd" stroke="none" d="M 184.808792 8.049744 C 183.697189 14.998596 183.884995 22.043884 184.626068 28.992706 C 184.900162 31.028137 185.458511 32.698059 187.773102 32.977234 C 187.894913 32.987396 188.006592 32.992493 188.118256 32.992493 C 190.265335 32.992493 191.041946 31.317444 191.483551 29.642395 C 193.148422 23.155457 194.168671 16.389343 194.168671 9.719696 C 191.113007 8.516724 187.869537 8.516724 184.808792 8.049744 Z"/>
    <path id="Path-copy-15" fill="#d4b98f" fill-rule="evenodd" stroke="none" d="M 208.624695 14.536682 C 205.84314 21.576904 202.508301 28.530823 201.675858 36.312073 C 201.579422 37.332336 201.117508 38.256134 202.229126 38.723114 C 202.64534 38.916016 203.04126 39.007385 203.41687 39.007385 C 204.11734 39.007385 204.741669 38.677429 205.289871 38.073425 C 205.934494 37.240967 206.675568 36.403442 207.325287 35.479645 C 211.401199 30.104309 215.203003 24.637634 216.964325 17.871521 C 214.0914 17.221802 211.680359 15.277771 208.624695 14.536682 Z"/>
    <path id="Path-copy-14" fill="#d4b98f" fill-rule="evenodd" stroke="none" d="M 167.946808 9.069977 C 165.073883 9.998871 162.109589 10.922668 159.048843 11.851563 C 160.718796 19.262299 164.703339 25.099548 170.078674 30.287048 C 170.520279 30.733704 171.007553 31.175323 171.596359 31.175323 C 171.870453 31.175323 172.164856 31.078888 172.484634 30.845398 C 173.322144 30.195679 173.692688 29.45459 173.322144 28.434357 C 171.093842 22.043884 169.611694 15.556946 167.946808 9.069977 Z"/>
    <path id="Path-copy-13" fill="#d4b98f" fill-rule="evenodd" stroke="none" d="M 201.117508 188.922699 C 200.005905 188.922699 199.8181 189.755127 199.72673 190.68399 C 199.544006 191.704254 199.264832 192.628052 199.264832 193.739655 C 198.802933 205.048676 199.72673 216.256165 201.208878 227.37735 C 202.137756 233.955658 202.9702 240.533966 203.619904 247.112274 C 204.360992 254.157532 205.010696 261.289124 206.305038 268.237976 C 207.142548 273.060028 208.254166 277.968384 209.177963 282.790436 C 209.365784 283.064545 209.548508 283.16098 209.644943 283.343689 C 211.959534 285.8461 214.832458 286.774963 217.979492 287.236877 C 217.979492 285.566925 218.258667 283.805603 217.979492 282.140717 C 216.126801 268.613586 213.350311 255.360535 211.771729 241.742004 C 210.386017 230.062469 208.15773 218.484467 205.84314 206.901367 C 204.731522 201.434662 203.528549 196.150696 202.508301 190.68399 C 202.416931 189.755127 202.137756 188.922699 201.117508 188.922699 Z"/>
    <path id="Path-copy-12" fill="#d4b98f" fill-rule="evenodd" stroke="none" d="M 111.026199 164.457062 C 110.538925 164.457062 110.102402 164.655029 109.848602 165.294586 C 109.569427 166.22348 110.219147 166.685364 110.868851 167.055908 C 111.609924 167.517822 112.350998 167.888336 113.092072 168.258881 C 119.11203 171.131805 123.837646 175.674713 128.01001 180.770874 C 135.329391 189.572388 138.755585 199.947449 140.887436 210.977264 C 141.81633 215.982056 142.927933 220.799042 144.039551 225.803833 C 144.50145 228.027069 145.892227 229.417847 148.024094 229.417847 C 150.247314 229.417847 151.917267 227.37735 152.008636 224.874939 L 152.008636 221.540131 C 152.008636 213.29184 149.876785 205.41922 146.821121 197.912018 C 141.25798 184.197052 132.735626 173.172302 119.020676 166.964539 C 116.706085 165.944305 114.20369 165.015411 111.701294 164.553528 C 111.47287 164.497681 111.244461 164.457062 111.026199 164.457062 Z"/>
    <path id="Path-copy-11" fill="#d4b98f" fill-rule="evenodd" stroke="none" d="M 149.557007 104.475708 C 148.668732 104.475708 147.810913 104.876709 147.095215 105.902039 C 145.892227 107.658264 146.633316 109.049072 147.932724 110.34848 C 149.227066 111.642822 150.526489 113.0336 152.008636 114.053864 C 162.662857 121.93158 174.89566 124.708069 187.869522 125.175049 C 188.519226 125.205505 189.168945 125.220734 189.818649 125.220734 C 196.346191 125.220734 202.645325 123.59137 208.716064 121.652405 C 209.736313 121.4646 211.030655 121.002686 210.568756 119.520538 C 210.21344 118.520599 209.4673 118.124695 208.50795 118.124695 C 208.223709 118.124695 207.919159 118.160217 207.604462 118.226196 C 204.360992 118.68811 201.208878 119.058655 197.965408 119.149994 C 197.422287 119.170319 196.879181 119.18045 196.33606 119.18045 C 192.25 119.18045 188.169006 118.601807 184.159088 117.947021 C 176.098633 116.738983 168.317352 114.424377 161.18071 110.43985 C 158.028595 108.678528 154.881577 106.825836 151.729462 105.16095 C 151.023926 104.744751 150.277771 104.475708 149.557007 104.475708 Z"/>
    <path id="Path-copy-10" fill="#d49a9e" fill-rule="evenodd" stroke="none" d="M 179.712646 72.914063 C 174.616486 72.914063 172.855164 75.599182 174.337311 79.401001 L 177.489426 87.370087 C 178.225418 89.456268 179.900452 90.730286 181.595779 90.730286 C 182.453598 90.730286 183.321579 90.400391 184.067719 89.684692 C 186.38739 87.644196 188.981155 85.791504 191.295746 83.659637 C 192.965698 82.086121 192.965698 78.751282 190.925201 77.360504 C 187.311188 74.858093 183.235291 73.375977 179.712646 72.914063 Z"/>
    <path id="Path-copy-9" fill="#d4b98f" fill-rule="evenodd" stroke="none" d="M 168.951828 266.816711 C 168.637131 266.816711 168.302124 266.908081 167.946808 267.126343 C 166.926575 267.867432 166.094131 268.796295 166.368225 270.187103 C 166.464661 271.019531 166.55603 271.76062 166.926575 272.593048 C 168.129547 275.932953 168.225983 279.450531 168.596527 282.881805 C 172.02272 281.770203 174.616486 279.821045 175.819458 276.303497 C 174.89566 273.060028 173.875412 269.907928 171.002472 267.776062 C 170.352768 267.319244 169.697983 266.816711 168.951828 266.816711 Z"/>
    <path id="Path-copy-8" fill="#2f3c32" fill-rule="evenodd" stroke="none" d="M 157.312897 48.489075 C 156.06424 48.489075 155.049072 49.123535 154.323227 50.209778 C 152.84108 52.529419 152.932449 54.935394 153.861328 57.437805 C 154.495804 59.102661 155.536362 60.635559 157.394119 60.635559 C 157.703751 60.635559 158.038757 60.589905 158.399139 60.498535 C 160.718796 60.031555 161.459869 58.087494 161.368515 55.864258 C 161.272064 54.56485 161.18071 53.361877 160.997971 51.9711 C 160.997971 50.209778 159.977722 49.098145 158.399139 48.636261 C 158.023529 48.534729 157.658066 48.489075 157.312897 48.489075 Z"/>
    <path id="Path-copy-7" fill="#2f3c32" fill-rule="evenodd" stroke="none" d="M 220.695068 61.254822 C 218.827179 61.254822 217.416077 62.833435 216.593781 64.483093 C 215.385742 66.889038 215.664917 69.482788 217.238434 71.802429 C 217.883057 72.639954 218.796722 73.071411 219.730682 73.071411 C 220.141815 73.071411 220.552948 72.990204 220.948883 72.822693 C 223.354828 71.614624 223.913177 69.300049 224.283722 66.889038 L 224.283722 66.335754 C 224.283722 64.112549 223.725372 61.792847 221.410767 61.330963 C 221.167145 61.280212 220.928558 61.254822 220.695068 61.254822 Z"/>
    <path id="Path-copy-6" fill="#d4b98f" fill-rule="evenodd" stroke="none" d="M 161.76442 276.663879 C 161.693359 276.663879 161.62738 276.668945 161.551239 276.674042 C 160.160461 276.765411 159.236649 277.597839 159.236649 278.988617 C 159.236649 281.303223 158.399139 283.531494 158.678314 285.8461 C 160.810165 285.658295 162.850662 285.658295 164.703339 284.546692 C 164.515533 282.694 164.24144 280.749939 164.053635 278.709442 C 163.789688 277.562317 163.185669 276.663879 161.76442 276.663879 Z"/>
    <path id="Path-copy-5" fill="#d4b98f" fill-rule="evenodd" stroke="none" d="M 232.465973 278.531799 C 231.897491 278.531799 231.293457 278.704376 230.674194 279.079987 C 229.009338 280.008881 228.821533 281.303223 229.379852 283.064545 C 229.841766 284.084778 230.029572 285.105011 230.30368 286.125275 C 232.806061 285.658295 235.308472 285.013672 236.978424 282.881805 C 236.420074 281.861542 235.95816 280.749939 235.029297 279.917511 C 234.328827 279.039368 233.445618 278.531799 232.465973 278.531799 Z"/>
    <path id="Path-copy-4" fill="#d4b98f" fill-rule="evenodd" stroke="none" d="M 151.699005 281.282898 C 150.013824 281.282898 149.018967 282.699066 148.303268 284.455322 C 147.836288 285.566925 147.003845 286.399353 146.354141 287.419617 C 149.323517 287.419617 152.379181 287.328247 155.252106 286.308014 C 155.62265 283.993408 154.693756 282.140717 152.561905 281.399658 C 152.257355 281.323517 151.968033 281.282898 151.699005 281.282898 Z"/>
    <path id="Path-copy-3" fill="#d4b98f" fill-rule="evenodd" stroke="none" d="M 222.87262 281.836182 C 221.47168 281.836182 220.532654 282.592468 220.111359 284.176147 C 219.83725 285.196381 219.096191 286.125275 219.187561 287.328247 C 220.014923 287.637878 220.827057 287.744476 221.639191 287.744476 C 223.009674 287.744476 224.369995 287.444977 225.765869 287.328247 C 225.765869 286.587158 225.765869 286.028839 225.857208 285.384186 C 225.857208 283.531494 225.02478 282.232086 223.354828 281.861542 C 223.192413 281.841248 223.029968 281.836182 222.87262 281.836182 Z"/>
    <path id="Path-copy-2" fill="#d4b98f" fill-rule="evenodd" stroke="none" d="M 240.673645 271.684479 C 240.084839 271.684479 239.521423 271.90274 239.013824 272.410309 C 237.719482 273.430573 238.181396 274.724915 239.11026 275.932953 C 239.754913 277.044556 240.592438 278.064819 241.333496 279.079987 C 242.907013 277.597839 243.835907 275.745148 244.109985 273.521912 C 243.739441 273.151398 243.277557 272.872223 242.815643 272.501678 C 242.110107 271.999176 241.374115 271.684479 240.673645 271.684479 Z"/>
    <path id="Path-copy" fill="#e4d7b8" fill-rule="evenodd" stroke="none" d="M 209.177963 282.881805 L 209.177963 282.881805 C 209.365784 283.16098 209.548508 283.25235 209.644943 283.531494 C 209.548508 283.25235 209.365784 283.064545 209.177963 282.881805 Z"/>
</svg>
