<?xml version="1.0" encoding="UTF-8"?>
<!-- Generated by Pixelmator Pro 3.4.1 -->
<svg width="349" height="387" viewBox="0 0 349 387" xmlns="http://www.w3.org/2000/svg">
    <path id="Path-copy-22" fill="#292d2e" fill-rule="evenodd" stroke="none" d="M 113.668213 4.874939 C 130.927734 4.874939 150.640869 48.843933 146.280457 49.292603 C 130.212708 51.073242 117.411743 70.113403 117.341675 70.113403 C 117.005127 70.183502 116.66864 70.211548 116.346191 70.211548 C 101.063599 70.211548 96.422729 5.393677 113.331726 4.874939 C 113.443909 4.874939 113.55603 4.874939 113.668213 4.874939 Z"/>
    <path id="Path-copy-21" fill="#292d2e" fill-rule="evenodd" stroke="none" d="M 263.269531 154.599945 C 260.619629 154.599945 258.01178 156.324493 257.549072 160.124115 C 253.903687 188.768494 249.206726 217.328735 241.69165 245.22998 C 237.976135 259.13855 233.433411 273.650024 226.815613 286.521057 C 220.576416 298.56485 210.677734 308.379364 201.522217 318.278015 C 201.410034 318.446259 201.522217 318.62854 201.676453 318.62854 C 201.718506 318.62854 201.774597 318.614502 201.830688 318.572449 C 212.009705 310.089905 222.651489 302.140137 230.236694 291.049744 C 238.270569 279.370483 243.191833 264.873047 247.874756 251.623444 C 258.067871 222.614532 264.012634 192.413879 269.074097 162.05899 C 269.901367 157.305969 266.564392 154.599945 263.269531 154.599945 Z"/>
    <path id="Path-copy-20" fill="#d1bcdb" fill-rule="evenodd" stroke="none" d="M 173.635681 326.761688 C 77.663696 326.761688 -0.137329 340.151489 -0.137329 356.738007 C -0.137329 373.254456 77.663696 386.644257 173.635681 386.644257 C 269.593567 386.644257 347.40863 373.254456 347.40863 356.738007 C 347.40863 340.151489 269.593567 326.761688 173.635681 326.761688 Z"/>
    <path id="Path-copy-19" fill="#292d2e" fill-rule="evenodd" stroke="none" d="M 152.351868 135.433472 L 152.351868 135.433472 C 152.351868 135.433472 97.082153 177.98642 112.701233 288.666107 C 112.701233 288.666107 105.073975 282.412842 99.213318 282.412842 C 94.965027 282.412842 91.656128 285.693695 92.8479 297.008423 C 95.539856 323.521637 108.803467 341.075592 115.897949 341.972931 L 115.897949 341.972931 C 115.253052 341.930878 113.850952 341.832733 111.972168 341.832733 C 103.742004 341.832733 86.524536 343.557281 86.300232 357.928528 C 86.300232 357.928528 113.836914 358.054718 133.171509 358.054718 C 142.831787 358.054718 150.445068 358.026672 151.538696 357.928528 L 152.351868 135.433472 Z"/>
    <path id="Path-copy-18" fill="#292d2e" fill-rule="evenodd" stroke="none" d="M 199.671509 137.803009 L 195.801758 357.928558 C 196.867371 357.998657 204.466614 358.026703 214.112854 358.026703 C 233.419434 358.026703 260.970154 357.928558 260.970154 357.928558 C 260.731812 343.557281 243.514343 341.832733 235.28418 341.832733 C 233.405396 341.832733 232.003296 341.930878 231.358337 341.972961 L 231.358337 341.972961 C 238.466858 341.075623 251.716492 323.451569 254.422485 297.008453 C 255.60022 285.637634 252.277283 282.356781 248.028992 282.356781 C 242.168335 282.356781 234.555115 288.596008 234.555115 288.596008 C 250.104065 177.972412 199.671509 137.803009 199.671509 137.803009 Z"/>
    <path id="Path-copy-17" fill="#111314" fill-rule="evenodd" stroke="none" d="M 159.740723 130.119598 C 154.384827 130.119598 146.673401 134.353851 135.765259 148.08017 C 135.765259 148.08017 115.309021 256.838989 134.727722 289.563385 C 134.727722 289.563385 143.5047 316.272888 143.280396 358.307068 C 143.280396 358.307068 141.275391 357.71817 138.61145 357.71817 C 133.578003 357.71817 126.217163 359.793243 125.72644 371.766968 C 125.72644 371.766968 128.572632 383.782715 140.434143 383.782715 C 145.271301 383.782715 151.608704 381.777771 159.866882 376.155457 C 159.866882 376.155457 149.603699 271.785095 170.803101 271.785095 C 192.002441 271.785095 181.809326 376.155457 181.809326 376.155457 C 190.081604 381.749725 196.432983 383.740662 201.270142 383.740662 C 213.145691 383.740662 215.963867 371.766968 215.963867 371.766968 C 215.571289 359.863342 208.252441 357.7883 203.233032 357.7883 C 200.569092 357.7883 198.55011 358.377167 198.55011 358.377167 C 198.255676 316.342987 207.102783 289.633484 207.102783 289.633484 C 226.521484 256.909088 210.972473 151.935852 210.972473 151.935852 C 199.124939 136.975769 190.207764 132.601257 183.842346 132.601257 C 174.883118 132.601257 170.957336 141.22403 170.957336 141.22403 C 170.957336 141.22403 168.419556 130.119629 159.740723 130.119629 Z"/>
    <path id="Path-copy-16" fill="none" stroke="#111314" stroke-linejoin="round" d="M 159.740723 130.119598 C 154.384827 130.119598 146.673401 134.353851 135.765259 148.08017 C 135.765259 148.08017 115.309021 256.838989 134.727722 289.563385 C 134.727722 289.563385 143.5047 316.272888 143.280396 358.307068 C 143.280396 358.307068 141.275391 357.71817 138.61145 357.71817 C 133.578003 357.71817 126.217163 359.793243 125.72644 371.766968 C 125.72644 371.766968 128.572632 383.782715 140.434143 383.782715 C 145.271301 383.782715 151.608704 381.777771 159.866882 376.155457 C 159.866882 376.155457 149.603699 271.785095 170.803101 271.785095 C 192.002441 271.785095 181.809326 376.155457 181.809326 376.155457 C 190.081604 381.749725 196.432983 383.740662 201.270142 383.740662 C 213.145691 383.740662 215.963867 371.766968 215.963867 371.766968 C 215.571289 359.863342 208.252441 357.7883 203.233032 357.7883 C 200.569092 357.7883 198.55011 358.377167 198.55011 358.377167 C 198.255676 316.342987 207.102783 289.633484 207.102783 289.633484 C 226.521484 256.909088 210.972473 151.935852 210.972473 151.935852 C 199.124939 136.975769 190.207764 132.601257 183.842346 132.601257 C 174.883118 132.601257 170.957336 141.22403 170.957336 141.22403 C 170.957336 141.22403 168.419556 130.119629 159.740723 130.119629 Z"/>
    <path id="Path-copy-15" fill="#292d2e" fill-rule="evenodd" stroke="none" d="M 171.476135 33.207642 C 126.988342 33.207642 102.662354 65.875946 101.470581 87.215515 C 100.278809 108.639191 105.340332 153.435455 174.154114 153.435455 C 233.22345 153.435455 242.74353 108.639191 241.551758 87.215515 C 240.289917 65.875946 217.155701 33.207642 171.476135 33.207642 Z"/>
    <path id="Path-copy-14" fill="#cedb45" fill-rule="evenodd" stroke="none" d="M 200.246399 85.925964 C 199.895874 85.925964 199.531311 85.939972 199.152771 85.953979 C 190.964661 86.33255 188.581116 101.797424 188.581116 101.797424 C 188.581116 101.797424 194.133362 104.938049 199.867798 104.938049 C 201.676514 104.938049 203.499207 104.629608 205.167664 103.816406 C 212.164001 100.465454 211.799438 90.566833 211.799438 90.566833 C 209.738403 89.501221 207.677368 85.925964 200.246399 85.925964 Z"/>
    <path id="Path-copy-13" fill="#292d2e" fill-rule="evenodd" stroke="none" d="M 200.120178 89.304962 C 197.512329 89.304962 195.507324 91.394043 195.507324 93.917786 C 195.507324 96.525635 197.512329 98.600708 200.120178 98.600708 C 202.713989 98.600708 204.803101 96.441528 204.803101 93.917786 C 204.803101 91.309937 202.713989 89.304962 200.120178 89.304962 Z"/>
    <path id="Path-copy-12" fill="#292d2e" fill-rule="evenodd" stroke="none" d="M 173.761353 135.419464 C 173.593079 135.419464 173.424866 135.419464 173.256592 135.433472 C 160.609863 135.433472 150.416809 140.705261 150.416809 147.323059 C 150.416809 153.870758 160.609863 159.226685 173.256592 159.226685 C 185.90332 159.226685 196.166443 153.870758 196.166443 147.323059 C 196.166443 140.803406 186.183716 135.419464 173.761353 135.419464 Z"/>
    <path id="Path-copy-11" fill="#ffffff" fill-rule="evenodd" stroke="none" d="M 195.871887 91.982941 C 194.750244 91.982941 193.937012 92.796143 193.937012 93.917786 C 193.937012 95.039459 194.750244 95.852661 195.871887 95.852661 C 196.99353 95.852661 197.806763 95.039459 197.806763 93.917786 C 197.806763 92.796143 196.99353 91.982941 195.871887 91.982941 Z"/>
    <path id="Path-copy-10" fill="#cedb45" fill-rule="evenodd" stroke="none" d="M 144.710449 85.925964 C 137.279419 85.925964 135.218384 89.501221 133.157349 90.566833 C 133.157349 90.566833 132.792786 100.465454 139.789185 103.816406 C 141.443604 104.629608 143.252258 104.938049 145.046936 104.938049 C 150.753357 104.938049 156.291565 101.797424 156.291565 101.797424 C 156.291565 101.797424 153.992188 86.33255 145.804077 85.953979 C 145.425476 85.939972 145.060974 85.925964 144.710449 85.925964 Z"/>
    <path id="Path-copy-9" fill="#292d2e" fill-rule="evenodd" stroke="none" d="M 144.836609 89.304962 C 142.242737 89.304962 140.153687 91.309937 140.153687 93.917786 C 140.153687 96.441528 142.242737 98.600708 144.836609 98.600708 C 147.290222 98.600708 149.449402 96.525635 149.449402 93.917786 C 149.449402 91.394043 147.444458 89.304962 144.836609 89.304962 Z"/>
    <path id="Path-copy-8" fill="#ffffff" fill-rule="evenodd" stroke="none" d="M 149.084839 91.982941 C 147.963196 91.982941 147.149963 92.796143 147.149963 93.917786 C 147.149963 95.039459 147.963196 95.852661 149.084839 95.852661 C 150.192505 95.852661 151.019714 95.039459 151.019714 93.917786 C 151.019714 92.796143 150.192505 91.982941 149.084839 91.982941 Z"/>
    <path id="Path-copy-7" fill="#4a5052" fill-rule="evenodd" stroke="none" d="M 137.251465 108.44339 C 133.634094 108.44339 130.437378 109.116394 128.109924 110.798889 C 117.103699 118.734619 111.930054 151.290771 142.439148 151.290771 C 143.700989 151.290771 145.018982 151.23468 146.406982 151.122498 C 162.404663 149.790558 169.246765 143.607391 171.840637 136.989624 C 174.448486 143.607391 181.290588 149.706421 197.358337 151.122498 C 198.746399 151.23468 200.064392 151.290771 201.326233 151.290771 C 231.835327 151.290771 226.661682 118.804718 215.655396 110.798889 C 213.328003 109.130432 210.131226 108.471436 206.513916 108.471436 C 192.409058 108.471436 171.966797 118.650513 171.840637 119.057098 C 171.784546 118.650513 151.342285 108.44339 137.251465 108.44339 Z"/>
    <path id="Path-copy-6" fill="#cc8484" fill-rule="evenodd" stroke="none" d="M 173.046265 108.331238 C 165.881653 108.331238 158.717041 109.943604 158.450684 113.182404 C 157.931885 119.575867 159.86676 115.930481 164.549683 118.173767 C 164.549683 118.173767 166.119995 120.024536 165.741455 122.632385 C 165.376892 125.156128 171.027283 129.474487 173.186462 129.923157 C 175.345642 129.474487 180.996033 125.240234 180.617432 122.632385 C 180.25293 120.178772 181.809204 118.173767 181.809204 118.173767 C 186.281799 115.930481 188.216675 119.575867 187.683899 113.182404 C 187.389465 109.943604 180.210876 108.331238 173.046265 108.331238 Z"/>
    <path id="Path-copy-5" fill="#b7b7b7" fill-rule="evenodd" stroke="none" d="M 169.541077 54.112671 C 166.484558 54.112671 163.442078 54.337036 160.469666 54.855774 C 157.483276 55.458679 154.510864 56.356018 151.762817 57.758087 C 154.6651 57.099121 157.637512 56.650452 160.539795 56.426117 C 163.007446 56.173737 165.46106 56.033539 167.928711 56.033539 C 168.447449 56.033539 168.952209 56.033539 169.471008 56.047546 C 172.443359 56.047546 175.415771 56.271881 178.388184 56.426117 C 181.360596 56.650452 184.346985 56.790649 187.389465 56.790649 C 184.487183 55.977448 181.514771 55.458679 178.542419 54.939911 C 175.570007 54.491272 172.583618 54.196838 169.541077 54.112671 Z"/>
    <path id="Path-copy-4" fill="#b7b7b7" fill-rule="evenodd" stroke="none" d="M 170.508545 45.489868 C 167.381897 45.489868 164.325378 45.644104 161.352966 46.232971 C 158.380554 46.75177 155.408203 47.719177 152.730225 49.135254 C 155.702637 48.532379 158.604919 48.013611 161.437073 47.789307 C 163.890747 47.550934 166.358398 47.410706 168.82605 47.410706 C 169.33075 47.410706 169.849548 47.410706 170.354309 47.424744 C 173.32666 47.424744 176.31311 47.649078 179.285522 47.789307 C 182.257874 48.013611 185.230286 48.167847 188.356934 48.167847 C 185.454651 47.354645 182.482239 46.75177 179.509827 46.303101 C 176.537415 45.854431 173.551025 45.559998 170.508545 45.489868 Z"/>
    <path id="Path-copy-3" fill="#cc8484" fill-rule="evenodd" stroke="none" d="M 112.406738 8.783356 C 105.059875 8.783356 107.541565 55.626648 115.519348 55.626648 C 115.617493 55.626648 115.729675 55.626648 115.82782 55.61261 C 124.01593 54.336731 130.409363 49.13504 136.059753 43.036011 C 141.724121 37.00708 120.440613 10.15741 112.701172 8.811401 C 112.603027 8.797363 112.504883 8.783356 112.406738 8.783356 Z"/>
    <path id="Path-copy-2" fill="#292d2e" fill-rule="evenodd" stroke="none" d="M 230.419006 1.520569 C 213.159485 1.520569 193.446289 45.489594 197.806763 45.938263 C 213.874512 47.718872 226.675415 66.759033 226.745544 66.759033 C 227.082031 66.829163 227.418518 66.857178 227.741028 66.857178 C 243.023621 66.857178 247.66449 2.039337 230.755493 1.520569 C 230.643311 1.520569 230.531128 1.520569 230.419006 1.520569 Z"/>
    <path id="Path-copy" fill="#cc8484" fill-rule="evenodd" stroke="none" d="M 230.460999 8.783356 C 230.362854 8.783356 230.264709 8.797363 230.166565 8.811401 C 222.427124 10.15741 201.157654 37.00708 206.808044 43.036011 C 212.542542 49.13504 219.006104 54.336731 227.110046 55.61261 C 227.222229 55.626648 227.320374 55.626648 227.432556 55.626648 C 235.34021 55.626648 237.821899 8.783356 230.460999 8.783356 Z"/>
</svg>
