<?xml version="1.0" encoding="UTF-8"?>
<!-- Generated by Pixelmator Pro 3.4.1 -->
<svg width="166" height="219" viewBox="0 0 166 219" xmlns="http://www.w3.org/2000/svg">
    <path id="Path-copy-24" fill="#87685d" fill-rule="evenodd" stroke="none" d="M 125.862366 141.357971 C 147.228149 141.357971 164.576904 158.706757 164.576904 180.07251 C 164.576904 201.438263 147.228149 218.835541 125.862366 218.835541 L 80.093842 218.835541 C 76.950104 218.835541 74.378845 216.371002 74.378845 213.227264 C 74.378845 210.083527 76.950104 207.512268 80.093842 207.512268 L 125.862366 207.512268 C 140.940674 207.512268 153.195374 195.209015 153.195374 180.17923 C 153.195374 165.042725 140.892151 152.787994 125.862366 152.787994 L 116.334106 152.787994 C 113.141876 152.787994 110.570618 150.216705 110.570618 147.072968 C 110.570618 143.938934 113.141876 141.357971 116.334106 141.357971 Z"/>
    <path id="Path-copy-23" fill="#e7c597" fill-rule="evenodd" stroke="none" d="M 29.85257 54.974426 C 139.912415 54.974426 124.98938 182.499481 124.98938 182.499481 L 43.281372 182.499481 C 43.281372 175.600739 48.899353 169.934235 55.846619 169.934235 L 63.880615 169.934235 L 62.075867 166.742004 C 60.329346 163.75351 59.446381 160.30899 59.446381 156.854767 C 59.446381 145.890503 68.305115 136.983246 79.317902 136.983246 C 80.453125 136.983246 81.433136 136.012939 81.433136 134.819489 C 81.433136 133.69397 80.453125 132.713959 79.317902 132.713959 C 66.092865 132.713959 55.225616 143.52298 55.225616 156.806244 C 55.225616 159.843231 55.846619 162.831726 56.923645 165.60675 L 55.895142 165.60675 C 50.694366 165.60675 46.066101 167.974274 42.980591 171.738983 L 42.980591 124.427704 C 42.980591 123.29248 42.00058 122.312469 40.865356 122.312469 C 39.68161 122.312469 38.701599 123.29248 38.701599 124.427704 L 38.701599 182.392761 L 1.588074 182.392761 C 1.432831 174.416992 8.021088 167.877228 16.103577 167.877228 L 18.781586 167.877228 L 18.781586 54.974426 Z"/>
    <path id="Path-copy-22" fill="#fcf6ea" fill-rule="evenodd" stroke="none" d="M 75.039642 0.590546 C 75.097839 0.590546 75.156067 0.60025 75.20459 0.609955 C 78.600586 1.589966 76.698822 36.801727 75.156067 42.206238 C 73.894684 46.611328 69.67392 49.473694 64.958313 49.473694 C 63.871613 49.473694 62.765472 49.318451 61.669037 49.007965 C 55.74057 47.358459 52.247559 41.594971 53.683563 36.19043 C 55.20694 30.863556 71.294312 0.590546 75.039642 0.590546 Z"/>
    <path id="Path-copy-21" fill="#87685d" fill-rule="evenodd" stroke="none" d="M 75.039642 0.590546 C 75.097839 0.590546 75.156067 0.60025 75.20459 0.609955 C 78.600586 1.589966 76.698822 36.801727 75.156067 42.206238 C 73.894684 46.611328 69.67392 49.473694 64.958313 49.473694 C 63.871613 49.473694 62.765472 49.318451 61.669037 49.007965 C 55.74057 47.358459 52.247559 41.594971 53.683563 36.19043 C 55.20694 30.863556 71.294312 0.590546 75.039642 0.590546 Z"/>
    <path id="Path-copy-20" fill="#87685d" fill-rule="evenodd" stroke="none" d="M 9.730011 0.590546 C 13.475342 0.590546 29.514221 30.863556 31.037567 36.19043 C 32.522095 41.594971 28.970856 47.358459 23.052094 49.007965 C 21.945953 49.318451 20.849518 49.473694 19.762817 49.473694 C 15.056915 49.473694 10.874969 46.611328 9.613586 42.206238 C 8.070831 36.801727 6.169067 1.589966 9.565063 0.609955 C 9.623291 0.60025 9.671814 0.590546 9.730011 0.590546 Z"/>
    <path id="Path-copy-19" fill="#e7c597" fill-rule="evenodd" stroke="none" d="M 42.71933 12.195038 C 62.125092 12.195038 77.834076 27.952515 77.834076 47.309784 C 77.834076 66.715546 62.125092 82.473053 42.71933 82.473053 C 23.313538 82.473053 7.556061 66.715546 7.556061 47.309784 C 7.556061 27.952515 23.313538 12.195038 42.71933 12.195038 Z"/>
    <path id="Path-copy-18" fill="#87685d" fill-rule="evenodd" stroke="none" d="M 42.71933 12.253235 C 62.076569 12.253235 77.834076 27.952515 77.834076 47.406799 C 77.834076 49.987793 77.572083 52.510529 77.009308 54.926544 C 54.663574 53.073303 36.897583 35.36554 35.044342 13.126526 C 37.470062 12.505524 40.041321 12.253235 42.71933 12.253235 Z"/>
    <path id="Path-copy-17" fill="#000000" fill-rule="evenodd" stroke="none" d="M 58.215027 40.769623 C 59.864502 40.769623 61.252014 42.108612 61.252014 43.806641 C 61.252014 45.456116 59.864502 46.795105 58.215027 46.795105 C 56.565521 46.795105 55.178009 45.456116 55.178009 43.806641 C 55.178009 42.108612 56.565521 40.769623 58.215027 40.769623 Z"/>
    <path id="Path-copy-16" fill="#000000" fill-rule="evenodd" stroke="none" d="M 27.117615 40.769623 C 28.815643 40.769623 30.154633 42.108612 30.154633 43.806641 C 30.154633 45.456116 28.815643 46.795105 27.117615 46.795105 C 25.477844 46.795105 24.138824 45.456116 24.138824 43.806641 C 24.138824 42.108612 25.477844 40.769623 27.117615 40.769623 Z"/>
    <path id="Path-copy-15" fill="none" stroke="none" d="M 35.306671 70.314575 C 38.450409 70.314575 40.973145 67.743286 40.973145 64.657776 L 41.225433 64.657776 C 41.225433 67.791809 43.796692 70.314575 46.891907 70.314575"/>
    <path id="Path-copy-14" fill="none" stroke="#51362c" stroke-width="0.695538" stroke-linecap="round" stroke-linejoin="round" d="M 35.306671 70.314575 C 38.450409 70.314575 40.973145 67.743286 40.973145 64.657776 L 41.225433 64.657776 C 41.225433 67.791809 43.796692 70.314575 46.891907 70.314575"/>
    <path id="Path-copy-13" fill="none" stroke="none" d="M 51.73349 57.914368 L 61.252014 57.914368"/>
    <path id="Path-copy-12" fill="none" stroke="#51362c" stroke-width="0.349081" stroke-linecap="round" stroke-linejoin="round" d="M 51.73349 57.914368 L 61.252014 57.914368"/>
    <path id="Path-copy-11" fill="none" stroke="none" d="M 51.73349 61.620819 L 61.252014 61.620819"/>
    <path id="Path-copy-10" fill="none" stroke="#51362c" stroke-width="0.349081" stroke-linecap="round" stroke-linejoin="round" d="M 51.73349 61.620819 L 61.252014 61.620819"/>
    <path id="Path-copy-9" fill="none" stroke="none" d="M 51.830505 65.172028 L 61.45578 65.172028"/>
    <path id="Path-copy-8" fill="none" stroke="#51362c" stroke-width="0.349081" stroke-linecap="round" stroke-linejoin="round" d="M 51.830505 65.172028 L 61.45578 65.172028"/>
    <path id="Path-copy-7" fill="none" stroke="none" d="M 21.664581 57.914368 L 31.192841 57.914368"/>
    <path id="Path-copy-6" fill="none" stroke="#51362c" stroke-width="0.349081" stroke-linecap="round" stroke-linejoin="round" d="M 21.664581 57.914368 L 31.192841 57.914368"/>
    <path id="Path-copy-5" fill="none" stroke="none" d="M 21.664581 61.620819 L 31.192841 61.620819"/>
    <path id="Path-copy-4" fill="none" stroke="#51362c" stroke-width="0.349081" stroke-linecap="round" stroke-linejoin="round" d="M 21.664581 61.620819 L 31.192841 61.620819"/>
    <path id="Path-copy-3" fill="none" stroke="none" d="M 21.868347 65.172028 L 31.396576 65.172028"/>
    <path id="Path-copy-2" fill="none" stroke="#51362c" stroke-width="0.349081" stroke-linecap="round" stroke-linejoin="round" d="M 21.868347 65.172028 L 31.396576 65.172028"/>
    <path id="Path-copy" fill="#e27e78" fill-rule="evenodd" stroke="none" d="M 46.377655 55.488678 C 47.765167 55.488678 48.638428 57.138184 47.716644 58.273407 L 42.360657 65.17218 C 42.050171 65.608795 41.565002 65.822266 41.060455 65.822266 C 40.555908 65.822266 40.041656 65.608795 39.682648 65.17218 L 34.375183 58.273407 C 33.56012 57.138184 34.32666 55.488678 35.7724 55.488678 Z"/>
</svg>
