<?xml version="1.0" encoding="UTF-8"?>
<!-- Generated by Pixelmator Pro 3.4.1 -->
<svg width="102" height="79" viewBox="0 0 102 79" xmlns="http://www.w3.org/2000/svg">
    <path id="Path-copy-26" fill="#d5c59f" fill-rule="evenodd" stroke="none" d="M 50.230957 9.670898 C 38.452087 9.670898 30.317261 12.515747 30.317261 12.553772 L 13.866791 20.222412 L 9.927826 41.934387 C 8.357941 51.972107 14.218842 62.675842 23.609589 66.919281 C 28.652222 69.193237 34.560699 69.745056 39.203735 72.723083 C 42.533783 74.844788 45.568909 78.27951 49.603027 78.327087 L 51.02066 78.327087 C 55.054779 78.327087 58.032806 74.844788 61.419952 72.723083 C 66.110565 69.792633 71.961945 69.240784 77.014099 66.966858 C 86.404846 62.73291 92.256226 52.029175 90.648285 41.981934 L 86.652222 20.27002 L 70.201782 12.553772 C 62.999329 10.384521 56.158447 9.670898 50.230957 9.670898 Z"/>
    <path id="Path-copy-25" fill="#51412e" fill-rule="evenodd" stroke="none" d="M 50.278534 19.366119 C 50.240479 19.366119 50.202423 19.366119 50.154846 19.366119 C 49.298553 19.366119 48.489838 19.870392 47.985565 20.574463 C 47.585968 21.135803 47.386139 21.887451 47.52887 22.543945 C 46.368103 22.08725 45.359589 21.288025 44.303467 20.774261 C 43.827759 20.574463 43.285431 20.450775 42.762146 20.450775 C 41.877289 20.450775 41.04953 20.774261 40.668976 21.5354 C 40.060028 22.743744 40.973419 24.056763 41.782135 25.122375 C 40.516724 25.0177 39.251312 24.513428 37.995392 24.313629 C 37.681427 24.266052 37.357941 24.237518 37.034454 24.237518 C 36.044952 24.237518 35.05545 24.494385 34.408447 25.217499 C 33.352356 26.378265 33.904205 28.604645 35.416992 29.108887 C 34.941284 29.327759 34.42749 29.40387 33.885162 29.40387 C 32.800537 29.40387 31.630249 29.099396 30.583649 29.099396 C 29.889099 29.099396 29.242126 29.232605 28.699799 29.660767 C 27.948151 30.317261 27.691284 31.382874 27.900574 32.391388 C 28.100403 33.352356 28.699799 34.208649 29.413391 34.91272 C 28.756897 34.712891 28.071838 34.627258 27.396332 34.627258 C 26.520996 34.627258 25.64566 34.77951 24.817902 35.064941 C 23.704712 35.416992 22.496399 36.37793 22.743774 37.586273 C 22.895996 38.452087 23.856964 39.003906 24.66568 39.403534 C 25.274597 39.6604 25.874023 39.964874 26.435364 40.21225 C 24.266083 40.469147 21.792328 40.773621 20.374664 42.486206 C 20.022644 42.942902 19.765747 43.646973 20.117767 44.04657 C 20.327087 44.303467 20.631561 44.455688 20.983582 44.503265 C 22.344147 44.959961 23.752289 45.464233 25.169952 45.920898 C 23.657135 46.777222 22.391724 47.985535 21.383209 49.355621 C 21.135834 49.707642 20.983582 50.107269 21.135834 50.516388 C 21.335632 50.81134 21.735229 50.868408 22.08728 50.963562 C 23.90451 51.115784 25.826447 51.372681 27.643707 51.57251 C 26.530518 52.628601 25.674225 53.998657 25.274597 55.511475 C 25.122375 55.911072 25.065277 56.415344 25.322174 56.824463 C 25.56955 57.176514 26.083344 57.22406 26.587585 57.328735 C 27.948151 57.423889 29.356293 57.576111 30.726379 57.728333 C 29.96521 58.489502 29.308716 59.298218 28.652222 60.15451 C 28.452423 60.458984 28.195526 60.811005 28.300201 61.115479 C 28.347778 61.714874 29.156494 61.924194 29.860565 61.971771 L 34.00885 62.371368 C 34.208649 63.180115 33.399933 63.941254 33.495087 64.75 C 33.647308 65.454041 34.360901 65.910736 34.960297 65.958313 C 35.312347 66.034424 35.673889 66.034424 36.006897 66.034424 C 36.349396 66.034424 36.682404 66.034424 36.986877 66.110535 C 38.547241 66.367432 39.755585 67.528198 40.973419 68.536743 C 40.90683 68.536743 44.826782 71.410095 50.402222 71.410095 C 53.189972 71.410095 56.38681 70.686981 59.697845 68.536743 C 61.058411 67.68042 62.124023 66.367432 63.684387 66.110535 C 64.036407 66.034424 64.397949 66.034424 64.730957 66.034424 C 65.073486 66.034424 65.406494 66.034424 65.710968 65.958313 C 66.415039 65.863159 67.11908 65.406494 67.166656 64.75 C 67.271332 63.941254 66.462585 63.180115 66.662415 62.371368 L 70.801178 61.971771 C 71.457672 61.924194 72.266388 61.714874 72.41864 61.115479 C 72.475708 60.70636 72.218842 60.401886 72.019012 60.15451 C 71.410095 59.298218 70.706024 58.537048 69.944885 57.728333 C 71.30545 57.633179 72.723083 57.480957 74.083649 57.328735 C 74.540344 57.281158 75.044617 57.176514 75.349091 56.824463 C 75.596466 56.415344 75.548889 55.911072 75.396637 55.511475 C 75.044617 53.941589 74.140747 52.628601 73.027557 51.57251 C 74.844818 51.372681 76.757202 51.115784 78.574463 50.963562 C 78.936035 50.868408 79.335632 50.81134 79.535431 50.516388 C 79.744751 50.107269 79.535431 49.707642 79.288055 49.355621 C 78.27951 47.985535 77.014099 46.777222 75.501312 45.920898 C 76.861877 45.464233 78.27951 44.959961 79.687653 44.503265 C 80.039703 44.408142 80.344147 44.303467 80.543976 44.04657 C 80.905518 43.646973 80.601044 42.942902 80.2966 42.486206 C 78.878937 40.773621 76.405182 40.412048 74.235901 40.21225 C 74.797241 39.964874 75.396637 39.6604 76.005585 39.403534 C 76.814301 39.003906 77.775269 38.499634 77.92749 37.586273 C 78.174866 36.37793 77.014099 35.416992 75.853333 35.064941 C 75.025574 34.77951 74.150269 34.627258 73.274933 34.627258 C 72.599396 34.627258 71.914368 34.712891 71.257874 34.91272 C 71.961945 34.208649 72.523285 33.399902 72.77066 32.391388 C 72.97998 31.43042 72.723083 30.317261 71.961945 29.660767 C 71.429138 29.232605 70.782135 29.099396 70.087585 29.099396 C 69.041016 29.099396 67.870728 29.40387 66.786102 29.40387 C 66.243774 29.40387 65.72998 29.327759 65.254272 29.108887 C 66.767059 28.557068 67.271332 26.378265 66.262787 25.217499 C 65.663391 24.503906 64.664368 24.208984 63.684387 24.208984 C 63.341858 24.208984 62.999329 24.247009 62.675842 24.313629 C 61.419952 24.513428 60.15451 25.065277 58.889099 25.122375 C 59.697845 24.113831 60.611206 22.743744 60.002289 21.5354 C 59.621704 20.774261 58.793976 20.450775 57.909119 20.450775 C 57.385834 20.450775 56.843506 20.574463 56.367767 20.774261 C 55.40683 21.230957 54.550537 21.887451 53.589569 22.344147 C 53.437347 21.792297 53.189972 21.288025 52.885498 20.83136 C 52.305115 20.003601 51.344147 19.366119 50.278534 19.366119 Z"/>
    <path id="Path-copy-24" fill="#51412e" fill-rule="evenodd" stroke="none" d="M 50.383209 19.623016 C 50.60202 19.623016 50.830383 19.65155 51.068237 19.71814 C 52.152893 20.032135 52.866455 20.993103 53.228027 21.992126 L 53.228027 21.992126 C 53.199463 22.011139 53.170929 22.02066 53.132874 22.039673 C 53.18045 22.058716 53.218506 22.068237 53.266083 22.096771 L 53.266083 22.096771 C 53.294617 22.172882 53.31366 22.258514 53.342194 22.344147 C 53.380249 22.496368 53.503937 22.562988 53.656158 22.562988 C 53.694214 22.562988 53.741791 22.553467 53.789368 22.543945 C 54.85498 21.992126 55.96817 21.031158 57.176514 20.774261 C 57.395325 20.717163 57.661743 20.679138 57.937653 20.679138 C 58.365814 20.679138 58.812988 20.764771 59.145996 20.983582 C 60.820526 21.963562 59.469482 23.771301 58.746399 24.74176 L 58.746399 24.74176 C 58.689301 24.751282 58.641724 24.760803 58.584656 24.770325 C 58.603668 24.836914 58.622711 24.903534 58.641724 24.970123 L 58.641724 24.970123 C 58.622711 25.1604 58.708344 25.369751 58.946198 25.369751 C 60.611206 25.169922 62.1716 24.418274 63.789032 24.418274 C 64.949799 24.513428 66.21521 24.922546 66.462585 26.13089 C 66.719482 27.187012 66.062988 28.300171 65.149597 28.804443 C 65.140076 28.813965 65.121063 28.813965 65.111542 28.823486 L 65.111542 28.823486 C 65.092529 28.823486 65.073486 28.813965 65.054474 28.804443 L 65.054474 28.804443 C 65.054474 28.833008 65.054474 28.85202 65.054474 28.880554 L 65.054474 28.880554 C 64.949799 29.013763 65.016388 29.261139 65.149597 29.33725 L 65.149597 29.33725 C 65.149597 29.346771 65.149597 29.356262 65.149597 29.356262 C 65.159119 29.356262 65.16864 29.356262 65.16864 29.346771 L 65.16864 29.346771 C 65.178162 29.356262 65.187653 29.356262 65.197174 29.356262 C 65.701447 29.54657 66.21521 29.613159 66.719482 29.613159 C 67.594818 29.613159 68.479645 29.422882 69.345459 29.356262 C 69.507202 29.356262 69.678467 29.346771 69.84021 29.346771 C 70.782135 29.346771 71.705048 29.518036 72.218842 30.421906 C 73.056091 31.84906 72.076111 33.409424 71.134186 34.522644 L 71.134186 34.522644 C 71.077087 34.532135 71.010498 34.541656 70.9534 34.560669 C 70.981964 34.589233 71.000977 34.627258 71.02002 34.665344 L 71.02002 34.665344 C 70.905823 34.874634 71.02951 35.131531 71.257874 35.131531 C 71.286407 35.131531 71.324463 35.131531 71.362518 35.112518 C 72.009521 34.941254 72.90387 34.798523 73.817261 34.798523 C 75.035095 34.798523 76.271973 35.064941 76.909454 35.873657 C 77.413727 36.121033 77.518372 36.530151 77.270996 37.186646 C 77.518372 37.795593 77.413727 38.19519 76.909454 38.452087 C 76.757202 38.699463 76.357605 38.804138 76.110229 38.95636 C 75.520325 39.24176 74.835297 39.536743 74.197845 39.879242 L 74.197845 39.879242 C 74.140747 39.869751 74.09317 39.869751 74.036102 39.860229 L 74.036102 39.860229 L 74.064636 39.945862 L 74.064636 39.945862 C 73.874329 40.088562 74.064636 40.469147 74.340546 40.469147 C 76.005585 40.668945 77.870392 40.821167 79.288055 41.829712 C 79.440277 42.02951 79.640076 42.181763 79.839905 42.333984 C 79.792328 42.990479 79.792328 43.542297 79.744751 44.198792 C 79.592529 44.351013 78.631561 44.503265 78.374664 44.60791 C 77.470795 44.959961 76.46228 45.264404 75.501312 45.568878 C 75.263458 45.616455 75.20636 45.977997 75.406158 46.101685 L 75.406158 46.101685 C 75.406158 46.139771 75.396637 46.177795 75.396637 46.225372 C 75.444214 46.20636 75.491791 46.187317 75.529846 46.177795 L 75.529846 46.177795 C 76.367126 46.739136 80.201447 49.393677 78.983582 50.563965 C 78.574463 50.916016 76.757202 50.81134 76.205383 50.868408 C 75.196838 51.02066 74.083649 51.115784 73.075134 51.268036 C 72.827759 51.268036 72.675537 51.57251 72.827759 51.829376 C 72.856293 51.85791 72.884827 51.886475 72.913391 51.915009 L 72.913391 51.915009 C 72.90387 51.934021 72.894348 51.953064 72.875336 51.972107 C 72.90387 51.972107 72.932404 51.972107 72.960968 51.962585 L 72.960968 51.962585 C 74.026581 53.03772 75.520325 54.769348 74.844818 56.215515 C 74.768707 56.767395 74.502289 57.043274 74.036102 57.043274 C 73.902893 57.043274 73.750641 57.014771 73.579407 56.976685 C 73.227356 57.071838 72.77066 57.071838 72.371063 57.128906 C 71.562347 57.176514 70.801178 57.328735 70.001953 57.376282 C 69.745087 57.376282 69.545288 57.680756 69.745087 57.937653 C 69.773621 57.966187 69.811676 57.994751 69.849731 58.032776 L 69.849731 58.032776 C 69.849731 58.032776 69.849731 58.032776 69.849731 58.032776 C 69.849731 58.032776 69.849731 58.032776 69.849731 58.032776 L 69.849731 58.032776 C 70.858276 59.031799 73.0466 60.934692 70.601379 61.667297 C 69.48819 62.019348 67.927826 61.924194 66.719482 61.971771 C 66.510162 61.971771 66.415039 62.123993 66.415039 62.276245 C 66.310364 63.180115 66.814636 63.741455 66.567261 64.692902 C 66.262787 65.710938 65.710968 65.65387 64.75 65.710938 C 64.397949 65.710938 63.988831 65.710938 63.63681 65.758514 C 61.971771 66.062988 60.858582 67.318878 59.602692 68.232269 C 56.653198 70.059052 53.418304 71.010498 50.173889 71.010498 C 47.681091 71.010498 45.178802 70.449127 42.79068 69.288361 C 41.525269 68.688965 40.668976 67.927795 39.603333 67.071503 C 38.74704 66.462585 37.890747 65.958313 36.882202 65.758514 C 35.673889 65.558716 33.44751 66.062988 33.79953 63.988831 C 33.856628 63.389404 34.208649 62.980286 34.151581 62.276245 C 34.151581 62.123993 34.00885 61.971771 33.856628 61.971771 C 32.638763 61.867126 31.0784 61.971771 29.917664 61.667297 C 27.339233 60.858582 29.860565 58.841522 30.821533 57.937653 C 31.030823 57.728333 30.878601 57.423889 30.574158 57.376282 C 29.765411 57.328735 28.956696 57.176514 28.147949 57.128906 C 27.795929 57.071838 27.339233 57.071838 26.939636 56.976685 C 26.768372 57.014771 26.61615 57.043274 26.482941 57.043274 C 26.016724 57.043274 25.750336 56.767395 25.674225 56.215515 C 25.0177 54.702759 26.635162 52.837891 27.691284 51.829376 C 27.900574 51.620056 27.795929 51.315613 27.443909 51.268036 C 26.530518 51.115784 25.626648 51.068237 24.66568 50.916016 C 24.113831 50.868408 22.039703 50.916016 21.583008 50.563965 C 21.031158 50.059692 21.735229 49.098755 22.039703 48.746704 C 22.2966 48.489807 22.496399 48.242432 22.743774 47.985535 C 23.400269 47.281494 24.266083 46.625 25.122375 46.120728 C 25.369751 46.016052 25.322174 45.616455 25.065277 45.568878 C 24.161407 45.264404 23.305115 45.007507 22.391724 44.703064 C 22.039703 44.550842 21.383209 44.503265 21.078735 44.25589 C 20.631561 44.198792 20.526886 43.846771 20.774261 43.247375 C 20.526886 42.533783 20.631561 42.086609 21.335632 41.782135 C 22.743774 40.773621 24.618103 40.56427 26.283142 40.412048 C 26.530518 40.412048 26.682739 39.964874 26.435364 39.812653 C 25.122375 39.203735 21.335632 37.938293 23.657135 35.873657 C 24.513458 35.112518 25.759827 34.84613 26.977692 34.84613 C 27.643707 34.84613 28.300201 34.922241 28.890076 35.045898 L 28.890076 35.045898 C 28.890076 35.045898 28.899597 35.05542 28.909119 35.064941 C 28.909119 35.05542 28.909119 35.05542 28.91864 35.045898 L 28.91864 35.045898 C 29.013763 35.074463 29.118439 35.093506 29.213593 35.112518 C 29.232605 35.122009 29.251648 35.122009 29.27066 35.122009 C 29.575134 35.122009 29.708344 34.750977 29.565613 34.608246 C 28.604645 33.599731 27.795929 32.391388 28.195526 30.926147 C 28.576111 29.698792 29.489502 29.318237 30.583649 29.318237 C 30.792969 29.318237 31.01181 29.33725 31.230652 29.356262 C 32.153534 29.422882 33.019348 29.613159 33.885162 29.613159 C 34.389435 29.613159 34.893707 29.54657 35.416992 29.356262 C 35.673889 29.308716 35.721466 28.909119 35.464569 28.804443 C 34.513123 28.347748 34.00885 27.443878 34.151581 26.435364 C 34.208649 25.065277 35.616791 24.418274 36.882202 24.418274 C 36.929779 24.408783 36.986877 24.408783 37.034454 24.408783 C 38.461609 24.408783 39.850708 25.008179 41.306427 25.29364 L 41.306427 25.29364 C 41.315948 25.303131 41.315948 25.312653 41.32547 25.322144 C 41.32547 25.312653 41.334961 25.312653 41.334961 25.303131 L 41.334961 25.303131 C 41.46817 25.331665 41.591858 25.350708 41.725067 25.369751 C 41.74408 25.379242 41.763123 25.379242 41.782135 25.379242 C 42.039032 25.379242 42.077087 25.008179 41.981964 24.817902 C 41.277893 23.90451 39.812653 22.039673 41.525269 20.983582 C 41.88681 20.764771 42.286407 20.679138 42.686035 20.679138 C 43.028534 20.679138 43.371063 20.736206 43.69455 20.83136 C 45.007538 21.230957 46.120728 22.144348 47.386139 22.743744 C 47.424225 22.762787 47.481293 22.762787 47.52887 22.762787 C 47.700134 22.762787 47.890411 22.686646 47.890411 22.496368 C 47.842834 20.964539 48.937012 19.623016 50.383209 19.623016 Z M 49.993103 19.014099 C 49.964569 19.014099 49.936035 19.014099 49.907471 19.014099 C 48.166351 19.061646 47.053162 20.431763 46.967529 22.001617 L 46.967529 22.001617 C 45.5784 21.288025 44.0466 20.089233 42.505249 20.089233 C 42.058075 20.089233 41.610901 20.193878 41.173218 20.422241 C 39.327423 21.326111 39.964905 23.238495 40.84021 24.637146 L 40.84021 24.637146 C 39.546265 24.351685 38.033447 23.8284 36.65387 23.8284 C 35.645325 23.8284 34.7034 24.104309 33.951782 24.970123 C 32.905182 26.187988 33.295288 28.014771 34.42749 28.975708 L 34.42749 28.975708 C 34.199158 29.013763 33.961273 29.032776 33.713898 29.032776 C 32.629272 29.032776 31.468506 28.737854 30.38385 28.737854 C 29.603668 28.737854 28.85202 28.890076 28.195526 29.413391 C 26.587585 30.80249 27.263123 32.905151 28.357269 34.389404 L 28.357269 34.389404 C 27.843506 34.313293 27.282135 34.265747 26.720795 34.265747 C 24.951111 34.265747 23.095795 34.750977 22.2966 36.330383 C 21.335632 38.233246 23.390747 39.289368 24.989166 40.00293 L 24.989166 40.00293 C 22.972107 40.269348 20.536407 40.792633 19.565948 42.686005 C 19.213898 43.447144 19.318573 44.151245 20.022644 44.550842 C 20.526886 44.959961 21.288055 45.007507 21.887451 45.264404 C 22.629578 45.492767 23.400269 45.759155 24.161407 46.006531 L 24.161407 46.006531 C 23.248016 46.634521 22.439301 47.348083 21.735229 48.137787 C 21.230957 48.746704 20.327087 49.602997 20.526886 50.45929 C 20.726715 51.068237 21.230957 51.172882 21.839905 51.315613 C 23.400269 51.667633 25.036743 51.753265 26.625641 51.895996 L 26.625641 51.895996 C 25.512451 53.123352 24.10434 55.19751 24.66568 56.672241 C 24.922577 57.376282 25.56955 57.528534 26.178467 57.576111 C 27.320221 57.737854 28.490479 57.842499 29.61319 57.947144 L 29.61319 57.947144 C 28.604645 58.908142 27.015747 60.497009 27.843506 61.619751 C 28.195526 62.123993 28.909119 62.17157 29.460968 62.228638 C 30.222107 62.371368 31.0784 62.371368 31.887146 62.428467 C 32.743439 62.476013 33.399933 62.371368 33.143036 63.389404 C 32.990814 64.045898 32.638763 64.493103 32.990814 65.206665 C 33.352356 65.758514 33.951782 66.110535 34.513123 66.21521 C 36.025909 66.510162 37.234253 66.262787 38.651886 67.223724 C 39.308411 67.68042 39.812653 68.279846 40.516724 68.736542 C 43.380585 70.772614 46.682098 71.695526 49.974091 71.695526 C 53.427826 71.695526 56.881561 70.67749 59.831024 68.831665 L 59.831024 68.831665 C 59.850067 68.822174 59.878601 68.803131 59.897644 68.784119 L 59.897644 68.784119 C 59.897644 68.784119 59.897644 68.784119 59.897644 68.784119 C 60.811035 68.184692 61.619751 67.318878 62.523621 66.871704 C 63.741455 66.21521 64.997375 66.662384 66.21521 66.158112 C 66.719482 65.958313 67.166656 65.65387 67.375977 65.206665 C 67.728027 64.397949 66.814636 63.484558 67.166656 62.780518 C 67.47113 62.17157 70.296906 62.371368 71.058075 62.228638 C 71.562347 62.17157 72.218842 62.019348 72.523285 61.515076 C 73.265411 60.439941 71.743103 58.898621 70.696533 57.956665 L 70.696533 57.956665 C 71.838257 57.85202 72.999023 57.7854 74.083649 57.576111 C 74.797241 57.423889 75.349091 57.328735 75.596466 56.672241 C 76.214905 55.226013 74.749664 53.142395 73.617462 51.886475 L 73.617462 51.886475 C 75.139771 51.71521 76.652557 51.534424 78.127289 51.315613 C 78.83136 51.268036 79.535431 51.220459 79.687653 50.45929 C 79.887451 49.707642 79.135834 48.898926 78.679138 48.337585 C 77.908447 47.443237 76.995087 46.691589 76.034119 46.025574 L 76.034119 46.025574 C 77.394684 45.635498 79.012146 45.350037 80.144348 44.655518 C 80.905518 44.198792 81.000641 43.447144 80.601044 42.686005 C 79.716217 40.792633 77.213898 40.269348 75.177826 40.00293 L 75.177826 40.00293 C 76.785767 39.279846 78.869415 38.19519 77.870392 36.330383 C 77.137787 34.750977 75.263458 34.265747 73.46521 34.265747 C 72.894348 34.265747 72.323486 34.313293 71.809723 34.398926 L 71.809723 34.398926 C 72.884827 32.905151 73.53183 30.80249 71.961945 29.413391 C 71.314972 28.861511 70.563324 28.699768 69.764099 28.699768 C 68.660431 28.699768 67.480652 29.004242 66.376953 29.004242 C 66.167664 29.004242 65.958344 28.994751 65.749023 28.966187 L 65.749023 28.966187 C 66.871704 28.005249 67.252289 26.187988 66.21521 24.970123 C 65.482605 24.104309 64.550201 23.8284 63.532135 23.8284 C 62.162079 23.8284 60.649261 24.351685 59.345795 24.627625 L 59.345795 24.627625 C 60.22113 23.305115 60.839569 21.497375 59.145996 20.479309 C 58.660767 20.193878 58.156494 20.07019 57.661743 20.07019 C 56.187012 20.07019 54.71228 21.11676 53.465881 21.849396 L 53.465881 21.849396 C 52.89502 20.327087 51.71521 19.014099 49.993103 19.014099 Z"/>
    <path id="Path-copy-23" fill="#957a4b" fill-rule="evenodd" stroke="none" d="M 50.002625 64.188629 L 42.942902 70.506226 L 43.999023 71.562317 C 44.807739 72.41861 45.664032 73.227356 46.672577 73.788696 C 47.633514 74.311981 48.746704 74.568878 49.869415 74.568878 C 50.992126 74.568878 52.124329 74.311981 53.132874 73.836273 C 55.159454 72.922882 56.767395 71.058044 57.633209 69.040985 L 50.002625 64.188629 Z"/>
    <path id="Path-copy-22" fill="#ffe6b3" fill-rule="evenodd" stroke="none" d="M 44.655518 57.071838 C 41.629913 57.423889 38.899261 59.450439 37.643372 62.17157 C 37.082031 63.437012 36.72998 64.902222 36.986877 66.21521 C 37.472107 68.717499 40.06955 70.553802 42.686035 70.553802 C 42.752625 70.553802 42.819214 70.553802 42.885834 70.553802 C 45.51181 70.506226 47.937988 68.736542 49.298553 66.462585 C 50.611542 64.188629 51.02066 61.419922 50.763763 58.793945 C 50.716217 58.185028 50.516388 57.528534 49.955048 57.423889 L 44.655518 57.071838 Z"/>
    <path id="Path-copy-21" fill="#ffe6b3" fill-rule="evenodd" stroke="none" d="M 55.911102 57.071838 L 50.611542 57.423889 C 50.059723 57.528534 49.859894 58.185028 49.802826 58.793945 C 49.55545 61.419922 49.955048 64.188629 51.268036 66.462585 C 52.628601 68.736542 55.054779 70.506226 57.680786 70.553802 C 57.747375 70.553802 57.813965 70.553802 57.890076 70.553802 C 60.49704 70.553802 63.046906 68.717499 63.589233 66.21521 C 63.836609 64.902222 63.484589 63.437012 62.932739 62.17157 C 61.667328 59.450439 58.946198 57.423889 55.911102 57.071838 Z"/>
    <path id="Path-copy-20" fill="#211a12" fill-rule="evenodd" stroke="none" d="M 47.614502 54.759827 C 47.414703 54.759827 47.214905 54.769348 47.024597 54.807404 C 46.672577 54.85498 46.272949 54.902527 46.016083 55.159424 C 45.464233 55.606628 45.416656 56.415344 45.312012 57.128906 C 45.312012 57.22406 45.312012 57.423889 45.416656 57.576111 C 45.464233 57.680756 45.568909 57.728333 45.711609 57.833008 C 46.139771 58.042297 46.634521 58.12793 47.138763 58.12793 C 47.357605 58.12793 47.576447 58.118408 47.785767 58.080383 C 47.985565 58.032776 48.09021 58.032776 48.290039 58.032776 C 49.2034 58.080383 49.498352 59.650269 50.364166 59.697815 L 50.307098 56.32019 C 49.878937 55.245056 48.727692 54.759827 47.614502 54.759827 Z"/>
    <path id="Path-copy-19" fill="#211a12" fill-rule="evenodd" stroke="none" d="M 47.614502 54.969147 C 48.78479 54.969147 50.107269 55.397278 50.107269 56.767395 L 50.107269 58.185028 C 50.107269 58.584625 50.259521 59.145996 50.107269 59.545593 C 50.107269 59.564636 50.107269 59.583649 50.097778 59.59314 L 50.097778 59.59314 C 49.698151 59.440918 49.498352 59.041321 49.250977 58.68927 C 48.99408 58.441895 48.794281 58.080383 48.442261 58.032776 C 48.29953 57.985229 48.15683 57.966187 48.004578 57.966187 C 47.585968 57.966187 47.138763 58.108887 46.710632 58.108887 C 46.472778 58.108887 46.234894 58.06134 46.016083 57.937653 C 45.264435 57.528534 45.416656 56.919617 45.568909 56.32019 C 45.816284 55.559021 46.320526 55.311646 47.024597 55.159424 C 47.081696 55.102356 47.119751 55.045258 47.148285 54.988159 L 47.148285 54.988159 C 47.291016 54.978638 47.452759 54.969147 47.614502 54.969147 Z M 47.424225 54.636139 C 47.291016 54.636139 47.167328 54.636139 47.04364 54.64566 L 47.04364 54.64566 C 47.034119 54.64566 47.024597 54.64566 47.024597 54.64566 C 47.005585 54.64566 46.996063 54.64566 46.97702 54.655151 C 46.958008 54.655151 46.948486 54.655151 46.929474 54.664673 L 46.929474 54.664673 C 46.149261 54.864502 45.51181 55.273621 45.312012 56.063293 C 45.207336 56.624634 44.959961 57.423889 45.464233 57.880554 C 45.835297 58.194519 46.301514 58.261139 46.777222 58.261139 C 47.091217 58.261139 47.405182 58.232605 47.700134 58.232605 C 48.118774 58.232605 48.50885 58.289673 48.794281 58.537048 C 49.34613 58.946167 49.498352 59.697815 50.307098 59.850037 C 50.45932 59.850037 50.516388 59.80249 50.516388 59.697815 C 50.516388 58.641724 50.611542 57.423889 50.45932 56.367767 C 50.240479 55.026245 48.661102 54.636139 47.424225 54.636139 Z"/>
    <path id="Path-copy-18" fill="#211a12" fill-rule="evenodd" stroke="none" d="M 52.999664 54.807404 C 51.876953 54.807404 50.697174 55.292633 50.307098 56.32019 L 50.259521 59.697815 C 51.115814 59.697815 51.467834 58.137451 52.333649 58.032776 C 52.533447 58.032776 52.628601 58.032776 52.837921 58.080383 C 53.047241 58.118408 53.266083 58.12793 53.484894 58.12793 C 53.989166 58.12793 54.483917 58.042297 54.902557 57.833008 C 55.054779 57.7854 55.159454 57.680756 55.254578 57.576111 C 55.311676 57.423889 55.311676 57.328735 55.311676 57.176514 C 55.254578 56.52002 55.159454 55.663696 54.598083 55.254578 C 54.29364 55.007202 53.998688 54.902527 53.589569 54.85498 C 53.399261 54.826416 53.199463 54.807404 52.999664 54.807404 Z"/>
    <path id="Path-copy-17" fill="#211a12" fill-rule="evenodd" stroke="none" d="M 53.085297 55.007202 C 54.483917 55.054779 55.007202 55.796906 55.140411 57.100372 L 55.140411 57.100372 C 55.121399 57.119385 55.102356 57.147949 55.102356 57.176514 C 55.102356 57.823486 54.512451 57.966187 53.855957 57.966187 C 53.332672 57.966187 52.76181 57.871033 52.438324 57.871033 C 52.371704 57.871033 52.324158 57.871033 52.276581 57.880554 C 51.819885 57.937653 51.57251 58.289673 51.315613 58.641724 C 51.115814 58.841522 51.02066 59.145996 50.81134 59.298218 C 50.592529 59.336273 50.449799 59.402893 50.430786 59.536072 L 50.430786 59.536072 C 50.335632 59.260162 50.45932 58.727356 50.45932 58.537048 C 50.45932 57.833008 50.259521 56.824463 50.563965 56.167969 C 50.963593 55.311646 52.229004 55.007202 53.085297 55.007202 Z M 52.866455 54.636139 C 52.057739 54.636139 51.220459 54.873993 50.611542 55.406799 C 50.002625 56.015747 50.107269 56.472412 50.059723 57.328735 C 50.059723 58.137451 50.059723 58.889099 50.002625 59.697815 C 50.002625 59.812012 50.059723 59.86908 50.135834 59.86908 C 50.154846 59.86908 50.183411 59.859558 50.211945 59.850037 C 50.611542 59.80249 50.868439 59.545593 51.220459 59.145996 C 51.372711 58.946167 51.524933 58.641724 51.677155 58.441895 C 51.886475 58.27066 52.086273 58.232605 52.295593 58.232605 C 52.523956 58.232605 52.771332 58.289673 53.03772 58.289673 C 53.998688 58.289673 55.40683 58.289673 55.40683 57.176514 C 55.40683 57.176514 55.40683 57.166992 55.40683 57.166992 L 55.40683 57.166992 C 55.359253 56.063293 55.102356 55.054779 53.846466 54.750305 C 53.532471 54.683716 53.208984 54.636139 52.866455 54.636139 Z"/>
    <path id="Path-copy-16" fill="#51412e" fill-rule="evenodd" stroke="none" d="M 7.596771 3.4104 C 7.530182 3.4104 7.463593 3.4104 7.396973 3.4104 C 5.532135 3.562653 3.515076 4.628265 2.906158 6.540649 C 2.401886 8.310364 3.362854 10.022949 4.323822 11.640411 C 6.54068 15.227356 9.11908 18.60498 10.831696 22.496368 C 13.105652 27.643677 13.657471 33.44751 14.114166 39.156158 C 14.618439 38.804138 14.970459 38.347412 15.274933 37.84314 C 16.388123 36.121033 17.444214 34.456024 18.452759 32.791016 C 18.814301 32.134521 19.261475 31.43042 19.413727 30.669281 C 19.822845 27.900574 16.036102 25.274597 17.444214 22.800842 C 18.25296 21.288025 20.374664 21.230957 22.08728 21.078735 C 27.03479 20.726685 31.382874 17.596436 34.360901 13.657471 C 34.456024 13.505249 34.513123 13.410095 34.608276 13.257874 C 27.38681 10.432068 20.222443 7.65387 13.000977 4.828064 C 11.250336 4.095459 9.490143 3.4104 7.596771 3.4104 Z"/>
    <path id="Path-copy-15" fill="#51412e" fill-rule="evenodd" stroke="none" d="M 7.691925 3.600708 C 9.47113 3.600708 11.269348 4.323792 12.905823 4.923218 C 12.934387 4.942261 12.962921 4.942261 12.991455 4.942261 C 12.991455 4.942261 12.991455 4.942261 13.000977 4.942261 L 13.000977 4.942261 C 16.920929 6.455017 20.745728 7.958313 24.618103 9.575775 C 26.378265 10.232269 28.100403 10.93634 29.860565 11.640411 C 30.821533 11.992432 31.830048 12.40155 32.743439 12.753601 C 32.848083 12.753601 33.856628 13.058044 33.904205 13.210266 C 34.360901 13.914368 33.704407 14.161743 33.247711 14.666016 C 31.0784 17.291992 28.147949 19.470764 24.817902 20.374634 C 22.743774 21.031158 19.213898 20.479309 17.596466 22.239502 C 16.235901 23.809387 17.349091 25.721771 18.205383 27.24408 C 19.061676 28.85202 19.613525 30.269653 18.709656 32.086914 C 17.748688 33.704376 16.692596 35.369385 15.684052 36.929779 C 15.360565 37.386475 14.846771 38.556763 14.380585 38.556763 C 14.323486 38.556763 14.266388 38.53772 14.218842 38.499634 C 13.961945 38.39502 14.009521 36.121033 13.961945 35.673889 C 13.762146 33.951752 13.562347 32.286743 13.257874 30.574127 C 12.648956 27.03476 11.640411 23.55249 9.927826 20.422241 C 8.110565 16.939941 5.437012 13.809692 3.667328 10.327393 C 2.35434 7.65387 2.858582 4.828064 5.941284 3.867126 C 6.512146 3.676819 7.10202 3.600708 7.691925 3.600708 Z M 7.596771 3.315277 C 6.198151 3.315277 4.856628 3.714874 3.762451 4.828064 C 1.145996 7.454041 3.81955 11.136139 5.379913 13.505249 C 7.806091 17.244385 10.327423 20.926514 11.687988 25.122375 C 13.153198 29.613159 13.609894 34.408447 13.961945 39.09906 C 13.961945 39.175171 14.076111 39.222748 14.152222 39.222748 C 14.180786 39.222748 14.199799 39.222748 14.218842 39.203735 C 15.626953 38.147644 16.435699 36.330383 17.396637 34.808044 C 18.157806 33.552155 19.413727 32.134521 19.565948 30.621704 C 19.975067 27.900574 15.626953 24.561005 18.005585 22.239502 C 19.261475 21.031158 21.487854 21.288025 23.105316 21.031158 C 24.713257 20.774261 26.226044 20.27002 27.59613 19.565918 C 30.374329 18.205383 33.095459 15.931396 34.665344 13.257874 C 34.712921 13.153198 34.665344 13.105621 34.608276 13.000977 C 27.405823 10.336914 20.250977 7.463562 13.048553 4.637787 L 13.048553 4.637787 C 13.02951 4.637787 13.02002 4.628265 13.000977 4.628265 L 13.000977 4.628265 C 13.000977 4.628265 13.000977 4.628265 13.000977 4.628265 C 11.374023 3.990784 9.433075 3.315277 7.596771 3.315277 Z"/>
    <path id="Path-copy-14" fill="#211a12" fill-rule="evenodd" stroke="none" d="M 6.664368 1.126953 C 6.150574 1.126953 5.63681 1.193542 5.132538 1.345764 C 2.306763 2.15451 0.689301 5.532135 1.041351 8.462585 C 1.345795 11.440613 3.058411 14.019012 4.875641 16.340515 C 6.797577 18.557404 8.814636 20.83136 9.927826 23.55249 C 11.687988 27.843506 11.088593 32.638763 11.745087 37.234253 C 11.897308 38.147644 12.192261 39.156158 13.000977 39.355957 C 13.115143 39.384521 13.219818 39.394012 13.324463 39.394012 C 13.600403 39.394012 13.866791 39.298889 14.161743 39.156158 C 13.714569 33.44751 13.153198 27.748352 10.888763 22.496368 C 9.11908 18.662048 6.54068 15.227356 4.323822 11.640411 C 3.362854 10.127625 2.401886 8.310364 2.906158 6.493103 C 3.410431 4.675842 5.437012 3.562653 7.396973 3.515076 C 7.530182 3.505554 7.65387 3.505554 7.777557 3.505554 C 9.60434 3.505554 11.307404 4.162048 13.000977 4.828064 L 34.608276 13.362518 C 35.416992 11.687988 33.143036 10.831665 33.143036 10.831665 C 25.874023 7.958313 18.557404 5.132507 11.335968 2.306763 C 9.851715 1.73587 8.253265 1.126953 6.664368 1.126953 Z"/>
    <path id="Path-copy-13" fill="#211a12" fill-rule="evenodd" stroke="none" d="M 6.740479 1.222107 C 8.976379 1.222107 11.259827 2.373352 13.257874 3.163025 C 15.684052 4.123993 18.053162 5.075439 20.47934 5.941254 C 22.953094 6.8927 25.474396 7.910767 27.900574 8.862183 C 29.765411 9.575775 32.086945 10.080017 33.647308 11.183716 C 33.951782 11.393036 34.960297 12.449127 34.560699 12.848755 C 34.503601 12.896301 34.417969 12.915344 34.322845 12.915344 C 33.86615 12.915344 33.095459 12.487183 32.848083 12.40155 L 29.06134 10.888763 C 26.530518 9.870728 24.009186 8.862183 21.487854 7.910767 L 13.362518 4.675842 C 11.564301 4.009827 9.661407 3.201111 7.710968 3.201111 C 7.31134 3.201111 6.902222 3.229645 6.493103 3.315277 C 5.027893 3.619751 3.515076 4.476013 2.906158 5.941254 C 2.106964 7.901245 3.153534 9.918274 4.162079 11.526245 L 4.162079 11.526245 C 4.143036 11.573792 4.143036 11.63089 4.1716 11.687988 C 6.797577 15.88385 9.718506 19.765747 11.440613 24.361206 C 12.249329 26.739807 12.848755 29.108887 13.210297 31.535095 C 13.410095 32.848083 13.609894 34.104004 13.714569 35.416992 C 13.762146 35.978333 13.866791 36.577759 13.866791 37.139099 C 13.866791 37.386475 13.961945 37.738495 13.914368 37.995392 C 13.914368 38.19519 13.914368 38.39502 13.961945 38.594788 C 13.457672 38.594788 12.905823 38.651886 12.401581 38.651886 C 11.640411 38.147644 11.745087 35.826111 11.687988 35.064941 C 11.545288 33.704376 11.545288 32.438965 11.48819 31.125977 C 11.393036 29.004242 11.240814 26.834961 10.631897 24.817902 C 9.366455 20.574463 5.941284 17.653534 3.562653 14.019012 C 2.249664 11.992432 1.088898 9.623352 1.24115 7.10202 C 1.345795 4.828064 2.601715 2.354309 4.828094 1.545593 C 5.456024 1.317261 6.093506 1.222107 6.740479 1.222107 Z M 6.835632 0.870056 C 6.654846 0.870056 6.474091 0.870056 6.293304 0.889099 C 1.59317 1.193542 0.12796 6.645325 1.345795 10.432068 C 3.163055 16.083649 8.862213 19.565918 10.375 25.426819 C 11.335968 29.06134 10.983917 32.743408 11.440613 36.425507 C 11.611877 37.681396 12.020996 39.498657 13.286407 39.498657 C 13.543304 39.498657 13.828735 39.422546 14.161743 39.251282 C 14.218842 39.251282 14.218842 39.203735 14.218842 39.156158 C 13.866791 34.161072 13.362518 29.06134 11.640411 24.313629 C 10.080048 19.680115 7.063965 15.703064 4.44751 11.526245 L 4.44751 11.526245 C 4.437988 11.516724 4.428467 11.507202 4.418976 11.488159 L 4.418976 11.488159 C 4.418976 11.488159 4.418976 11.488159 4.418976 11.488159 C 3.410431 9.870728 2.306763 7.701416 3.362854 5.836609 C 4.124023 4.418945 5.836609 3.667297 7.396973 3.619751 C 7.558716 3.600708 7.710968 3.600708 7.872711 3.600708 C 10.803162 3.600708 13.800201 5.332336 16.435699 6.340881 C 22.496399 8.662384 28.557098 11.088562 34.560699 13.457642 C 34.570221 13.467163 34.579712 13.476685 34.589233 13.476685 C 34.646332 13.476685 34.712921 13.400574 34.712921 13.362518 C 35.169617 12.097107 34.408447 11.240784 33.352356 10.679443 C 30.773956 9.423523 27.843506 8.510162 25.122375 7.454041 C 21.839905 6.188629 18.662079 4.923218 15.32251 3.619751 C 12.763123 2.620728 9.670929 0.870056 6.835632 0.870056 Z"/>
    <path id="Path-copy-12" fill="#51412e" fill-rule="evenodd" stroke="none" d="M 92.7034 3.496033 C 90.924225 3.496033 89.230652 4.181091 87.61319 4.828064 C 80.401245 7.65387 73.227356 10.432068 66.00589 13.257874 C 66.062988 13.410095 66.158142 13.505249 66.262787 13.657471 C 69.240814 17.596436 73.579407 20.726685 78.526886 21.078735 C 80.249023 21.230957 82.361206 21.288025 83.169952 22.800842 C 84.587585 25.274597 80.800842 27.900574 81.257538 30.669281 C 81.352692 31.43042 81.809387 32.134521 82.161407 32.791016 C 83.169952 34.456024 84.283142 36.121033 85.339233 37.84314 C 85.643707 38.347412 86.052826 38.804138 86.557098 39.156158 C 86.956696 33.44751 87.565613 27.643677 89.839569 22.496368 C 91.504578 18.60498 94.130585 15.227356 96.299866 11.640411 C 97.260834 10.022949 98.21228 8.262787 97.708008 6.493103 C 97.203735 4.675842 95.186676 3.562653 93.217194 3.515076 C 93.045929 3.505554 92.874664 3.496033 92.7034 3.496033 Z"/>
    <path id="Path-copy-11" fill="#51412e" fill-rule="evenodd" stroke="none" d="M 92.884186 3.581665 C 93.236206 3.581665 93.578735 3.610229 93.921265 3.667297 C 96.242767 4.123993 98.012451 6.036407 97.460632 8.567261 C 97.051514 10.327393 95.890747 11.897278 94.939301 13.362518 C 93.921265 14.875305 92.91272 16.435669 91.904205 18.005554 C 89.991791 21.078735 88.621704 24.313629 87.765411 27.795898 C 87.413391 29.413391 87.108917 31.125977 86.909119 32.848083 C 86.804474 33.599731 86.70932 34.36087 86.652222 35.169617 C 86.604645 36.073486 86.70932 37.491119 86.404846 38.347412 C 86.29068 38.623352 86.328735 38.756531 86.300201 38.756531 C 86.281158 38.756531 86.205048 38.651886 85.948151 38.452087 C 85.643707 38.242767 85.339233 37.586273 85.139435 37.234253 C 84.587585 36.425507 84.083344 35.569214 83.579071 34.712891 C 82.570526 33.095459 80.953094 31.382874 81.457336 29.356262 C 81.961609 27.396301 84.13089 25.521973 83.579071 23.305115 C 82.922577 21.18338 80.344147 21.18338 78.526886 20.983582 C 74.844818 20.574463 71.562347 18.957001 68.93634 16.435669 C 68.327423 15.88385 67.775574 15.274902 67.271332 14.666016 C 66.966858 14.266388 66.262787 13.86676 66.510162 13.410095 C 66.767059 12.9534 67.927826 12.706024 68.432098 12.496704 C 70.449158 11.687988 72.523285 10.93634 74.540344 10.127625 C 78.869415 8.415009 83.255585 6.654846 87.584656 4.942261 L 87.584656 4.942261 C 87.594147 4.942261 87.603668 4.932739 87.61319 4.923218 L 87.61319 4.923218 C 87.61319 4.923218 87.61319 4.923218 87.61319 4.923218 C 87.632202 4.923218 87.641724 4.923218 87.660767 4.913696 L 87.660767 4.913696 C 89.297241 4.276245 91.085968 3.581665 92.884186 3.581665 Z M 93.026886 3.4104 C 91.228668 3.4104 89.316284 4.057404 87.717834 4.713898 L 87.717834 4.713898 C 87.698822 4.656799 87.651245 4.618744 87.594147 4.618744 C 87.584656 4.618744 87.575134 4.618744 87.565613 4.628265 L 65.958344 13.153198 C 65.910767 13.210266 65.853668 13.257874 65.910767 13.410095 C 67.528198 16.036072 70.249329 18.310028 72.97998 19.71814 C 74.340546 20.422241 75.958008 20.926514 77.470795 21.18338 C 79.088257 21.430756 81.305115 21.078735 82.570526 22.344147 C 84.939636 24.618103 80.601044 28.052795 81.000641 30.773926 C 81.152893 32.191589 82.31366 33.44751 83.074799 34.665344 C 84.035767 36.178131 84.892059 38.19519 86.357269 39.355957 C 86.385834 39.375 86.423889 39.384521 86.461945 39.384521 C 86.538055 39.384521 86.604645 39.336914 86.604645 39.203735 C 86.956696 34.608246 87.365814 29.917633 88.831024 25.521973 C 90.191589 21.18338 92.712921 17.444214 95.234253 13.657471 C 96.756561 11.335938 99.430115 7.806091 97.003937 5.075439 C 95.90979 3.848083 94.501648 3.4104 93.026886 3.4104 Z"/>
    <path id="Path-copy-10" fill="#211a12" fill-rule="evenodd" stroke="none" d="M 93.902222 1.126953 C 92.313324 1.126953 90.714905 1.73587 89.230652 2.306763 C 82.009186 5.132507 74.692596 7.958313 67.423553 10.831665 C 67.423553 10.831665 65.149597 11.687988 65.958344 13.362518 L 87.565613 4.828064 C 89.268707 4.162048 90.96228 3.505554 92.789032 3.505554 C 92.91272 3.505554 93.036407 3.505554 93.169617 3.515076 C 95.139099 3.562653 97.156158 4.675842 97.660431 6.493103 C 98.164703 8.310364 97.203735 10.127625 96.242767 11.640411 C 94.025909 15.227356 91.44751 18.662048 89.734894 22.591522 C 87.460968 27.843506 86.909119 33.599731 86.452423 39.251282 C 86.747375 39.403534 87.004272 39.5177 87.280182 39.5177 C 87.394348 39.5177 87.499023 39.498657 87.61319 39.460632 C 88.421906 39.251282 88.726379 38.242767 88.878601 37.386475 C 89.582672 32.791016 88.926178 27.948151 90.695862 23.657135 C 91.856628 20.983582 93.873688 18.709625 95.690948 16.340515 C 97.508209 14.019012 99.230316 11.440613 99.525269 8.462585 C 99.829712 5.532135 98.269348 2.15451 95.443573 1.345764 C 94.929779 1.193542 94.416016 1.126953 93.902222 1.126953 Z"/>
    <path id="Path-copy-9" fill="#211a12" fill-rule="evenodd" stroke="none" d="M 93.845154 1.421906 C 95.586273 1.421906 97.203735 2.068878 98.316925 3.819519 C 99.582336 5.836609 99.629913 8.205688 98.973419 10.432068 C 97.508209 14.970459 93.474091 18.053131 91.200134 22.191895 C 89.030823 26.083313 89.230652 30.574127 88.926178 34.865143 C 88.878601 35.673889 88.773956 36.482605 88.678802 37.338898 C 88.621704 37.491119 88.621704 37.690918 88.526581 37.890747 C 88.269684 38.699463 88.374329 38.699463 87.413391 38.699463 C 87.204071 38.689941 87.042328 38.689941 86.928162 38.689941 C 86.871063 38.689941 86.813965 38.689941 86.775909 38.689941 C 86.414368 38.689941 86.728333 38.661407 86.652222 38.090515 C 86.604645 37.738495 86.70932 37.234253 86.756897 36.929779 C 86.861542 36.225708 86.909119 35.61676 86.956696 34.91272 C 87.261139 32.039368 87.717834 29.108887 88.526581 26.283142 C 90.134521 20.840881 93.455048 16.454712 96.385498 11.726013 L 96.385498 11.726013 C 96.385498 11.716522 96.39502 11.707001 96.39502 11.687988 L 96.39502 11.687988 C 96.39502 11.687988 96.39502 11.687988 96.39502 11.687988 C 98.012451 8.919281 98.821198 5.379883 95.234253 3.819519 C 94.463593 3.47702 93.664368 3.343811 92.874664 3.343811 C 91.904205 3.343811 90.933716 3.54364 89.991791 3.819519 C 87.518036 4.523621 85.196533 5.579712 82.865479 6.540649 C 77.870392 8.462585 72.97998 10.432068 67.975403 12.40155 C 67.623352 12.487183 66.900269 12.991455 66.443573 12.991455 C 66.376953 12.991455 66.319885 12.981934 66.262787 12.9534 C 65.558716 12.706024 66.415039 11.640411 66.919281 11.335938 C 67.528198 10.888763 68.232269 10.679443 68.93634 10.432068 C 71.30545 9.47113 73.731628 8.567261 76.110229 7.65387 C 80.953094 5.789032 85.795929 3.667297 90.695862 2.002258 C 91.742462 1.640747 92.817596 1.421906 93.845154 1.421906 Z M 93.854645 0.898621 C 91.770996 0.898621 89.639771 1.878601 87.765411 2.601685 C 84.482941 3.867126 81.305115 5.132507 78.022644 6.445526 C 74.492767 7.853638 70.801178 9.071503 67.318909 10.631866 C 66.21521 11.136139 65.301849 11.992432 65.758514 13.362518 C 65.758514 13.410095 65.910767 13.457642 65.958344 13.457642 C 72.019012 11.088562 78.022644 8.709961 84.083344 6.340881 C 86.718842 5.332336 89.715881 3.600708 92.608276 3.600708 C 92.760498 3.600708 92.91272 3.600708 93.064972 3.619751 C 94.682404 3.667297 96.299866 4.418945 97.108582 5.836609 C 98.21228 7.701416 97.051514 9.870728 96.042969 11.488159 C 96.033447 11.535767 96.042969 11.583313 96.062012 11.63089 L 96.062012 11.63089 C 93.455048 15.760162 90.47702 19.623016 88.878601 24.266052 C 87.156494 29.004242 86.652222 34.104004 86.300201 39.09906 C 86.300201 39.156158 86.357269 39.203735 86.357269 39.203735 C 86.680786 39.375 86.966217 39.441589 87.232605 39.441589 C 88.231628 39.441589 88.773956 38.356934 88.973755 37.234253 C 89.487518 34.303772 89.335297 31.278198 89.687347 28.300171 C 90.144012 24.618103 91.552155 21.583008 93.778534 18.757202 C 95.49115 16.540344 97.460632 14.41864 98.621399 11.897278 C 100.286407 8.35791 100.134186 2.858582 95.84317 1.241119 C 95.196198 0.993744 94.530182 0.898621 93.854645 0.898621 Z"/>
    <path id="Path-copy-8" fill="#211a12" fill-rule="evenodd" stroke="none" d="M 61.705383 60.896637 C 60.164032 60.896637 58.594147 60.982269 57.024261 61.163025 C 56.624664 61.163025 56.624664 61.714874 57.024261 61.714874 C 58.556091 61.54364 60.0784 61.458008 61.581696 61.458008 C 73.969482 61.458008 85.472443 67.033447 96.452087 72.523285 C 96.499664 72.551819 96.547241 72.570862 96.594818 72.570862 C 96.832672 72.570862 97.003937 72.190277 96.756561 72.019012 C 85.748352 66.491119 74.150269 60.896637 61.705383 60.896637 Z"/>
    <path id="Path-copy-7" fill="#211a12" fill-rule="evenodd" stroke="none" d="M 58.032806 63.28476 C 57.633209 63.28476 57.6427 63.836609 57.985229 63.893677 C 67.823151 64.845123 76.614502 69.288361 85.24408 73.788696 C 85.301178 73.81723 85.358276 73.826752 85.405823 73.826752 C 85.681763 73.826752 85.853027 73.446167 85.59613 73.274933 C 76.861877 68.736542 67.975403 64.188629 58.080383 63.28476 C 58.06134 63.28476 58.051849 63.28476 58.032806 63.28476 Z"/>
    <path id="Path-copy-6" fill="#211a12" fill-rule="evenodd" stroke="none" d="M 57.699799 65.292297 C 57.414368 65.292297 57.347778 65.768036 57.633209 65.910736 C 63.132538 68.127594 68.279846 71.010498 73.027557 74.540344 C 73.084656 74.587921 73.141724 74.606934 73.189301 74.606934 C 73.408142 74.606934 73.53183 74.245392 73.332031 74.036072 C 68.536743 70.449127 63.332336 67.575775 57.785431 65.301819 C 57.747375 65.292297 57.728333 65.292297 57.699799 65.292297 Z"/>
    <path id="Path-copy-5" fill="#211a12" fill-rule="evenodd" stroke="none" d="M 38.861206 60.896637 C 26.416351 60.896637 14.818237 66.491119 3.81955 72.019012 C 3.562653 72.190277 3.733917 72.570862 3.971771 72.570862 C 4.019348 72.570862 4.066925 72.551819 4.124023 72.523285 C 15.103668 67.033447 26.606628 61.458008 38.984894 61.458008 C 40.48819 61.458008 42.010498 61.54364 43.542328 61.714874 C 43.951447 61.714874 43.951447 61.163025 43.542328 61.163025 C 41.972443 60.982269 40.412079 60.896637 38.861206 60.896637 Z"/>
    <path id="Path-copy-4" fill="#211a12" fill-rule="evenodd" stroke="none" d="M 42.533783 63.28476 C 42.524261 63.28476 42.505249 63.28476 42.486206 63.28476 C 32.591217 64.188629 23.704712 68.736542 14.970459 73.274933 C 14.723083 73.446167 14.894348 73.826752 15.132202 73.826752 C 15.179779 73.826752 15.227356 73.81723 15.274933 73.788696 C 23.961609 69.288361 32.695862 64.845123 42.533783 63.893677 C 42.923889 63.836609 42.942902 63.28476 42.533783 63.28476 Z"/>
    <path id="Path-copy-3" fill="#211a12" fill-rule="evenodd" stroke="none" d="M 42.866791 65.292297 C 42.847778 65.292297 42.819214 65.292297 42.79068 65.301819 C 37.234253 67.575775 32.039368 70.449127 27.24408 74.036072 C 27.03479 74.245392 27.158447 74.606934 27.377289 74.606934 C 27.424866 74.606934 27.481964 74.587921 27.539032 74.540344 C 32.286743 71.010498 37.434052 68.127594 42.942902 65.910736 C 43.218842 65.768036 43.152222 65.292297 42.866791 65.292297 Z"/>
    <path id="Path-copy-2" fill="#211a12" fill-rule="evenodd" stroke="none" d="M 31.887146 42.733582 C 30.374329 42.733582 29.156494 43.951416 29.156494 45.464233 L 29.156494 46.577393 C 29.156494 48.09021 30.374329 49.298523 31.887146 49.298523 L 32.191589 49.298523 C 33.704407 49.298523 34.91272 48.042633 34.91272 46.577393 L 34.91272 45.464233 C 34.91272 43.951416 33.704407 42.733582 32.191589 42.733582 Z"/>
    <path id="Path-copy" fill="#211a12" fill-rule="evenodd" stroke="none" d="M 68.384521 42.733582 C 66.814636 42.733582 65.65387 43.951416 65.65387 45.464233 L 65.65387 46.577393 C 65.65387 48.09021 66.814636 49.298523 68.384521 49.298523 L 68.688965 49.298523 C 70.201782 49.298523 71.410095 48.042633 71.410095 46.577393 L 71.410095 45.464233 C 71.410095 43.951416 70.201782 42.733582 68.688965 42.733582 Z"/>
</svg>
