<?xml version="1.0" encoding="UTF-8"?>
<!-- Generated by Pixelmator Pro 3.4.1 -->
<svg width="99" height="70" viewBox="0 0 99 70" xmlns="http://www.w3.org/2000/svg">
    <path id="Path-copy-34" fill="#ffffff" fill-rule="evenodd" stroke="none" d="M 18.062836 2.534058 C 17.041931 2.534058 16.269806 2.868652 15.866608 3.640747 C 6.266693 21.845398 15.866608 32.131622 15.866608 32.131622 C 15.866608 32.131622 32.895905 26.126312 39.853485 14.793457 C 39.853485 14.793457 24.274017 2.534058 18.062836 2.534058 Z"/>
    <path id="Path-copy-33" fill="#ebb1b0" fill-rule="evenodd" stroke="none" d="M 19.727142 7.724365 C 18.963623 7.724365 18.363098 7.947418 18.011353 8.462158 C 8.900452 21.70813 18.011353 30.72467 18.011353 30.72467 C 18.011353 30.72467 31.343109 25.989075 36.807953 17.161255 C 36.807953 17.161255 24.702972 7.724365 19.727142 7.724365 Z"/>
    <path id="Path-copy-32" fill="#ffffff" fill-rule="evenodd" stroke="none" d="M 79.136749 2.534058 C 76.202728 2.534058 71.244049 5.193573 66.80014 8.050354 C 61.704224 11.284637 57.337494 14.793457 57.337494 14.793457 C 58.976074 17.478699 61.206635 19.846497 63.660217 21.939758 C 65.298798 23.441101 67.117554 24.762268 68.893402 25.894684 C 75.267609 30.038361 81.281494 32.131622 81.281494 32.131622 C 81.281494 32.131622 83.237518 30.081238 84.464294 26.212128 C 86.059998 21.390717 86.651947 13.746826 81.367279 3.640747 C 80.955505 2.868652 80.174805 2.534058 79.136749 2.534058 Z"/>
    <path id="Path-copy-31" fill="#ebb1b0" fill-rule="evenodd" stroke="none" d="M 77.463837 7.724365 C 72.496582 7.724365 60.425934 17.161255 60.425934 17.161255 C 65.890778 25.989075 79.179626 30.72467 79.179626 30.72467 C 79.179626 30.72467 88.290527 21.70813 79.179626 8.462158 C 78.827911 7.947418 78.227356 7.724365 77.463837 7.724365 Z"/>
    <path id="Path-copy-30" fill="#ffffff" fill-rule="evenodd" stroke="none" d="M 48.278076 1.410217 C 42.452942 1.590393 36.173096 4.138336 30.390839 8.050354 C 29.249847 8.831055 28.108826 9.646057 27.019287 10.512543 C 22.060638 14.338776 17.685333 18.980011 14.365265 23.664154 C 13.816223 24.53064 13.224274 25.354218 12.726685 26.212128 C 10.135834 30.544525 8.540131 34.773956 8.540131 38.188416 C 8.540131 43.464478 10.178711 48.431732 13.138489 52.798431 C 13.687531 53.664917 14.270905 54.437042 14.957214 55.26062 C 18.234406 59.172638 22.558228 62.449829 27.705627 64.903412 C 28.477722 65.315216 29.292725 65.632629 30.073425 66.001526 C 30.528107 66.181702 30.931335 66.318939 31.343109 66.499115 C 32.432648 66.910919 33.479279 67.228333 34.577393 67.588654 C 38.858337 68.909821 43.499573 69.59613 48.363861 69.639038 L 48.870026 69.639038 C 53.691437 69.59613 58.289764 68.824036 62.613586 67.588654 C 63.754578 67.228333 64.844116 66.910919 65.890778 66.499115 C 66.345459 66.318939 66.714355 66.181702 67.117554 66.001526 C 67.941132 65.632629 68.713257 65.315216 69.536835 64.903412 C 74.632782 62.449829 78.999481 59.172638 82.276672 55.26062 C 82.868622 54.437042 83.503448 53.664917 84.095398 52.798431 C 87.055176 48.47464 88.693756 43.464478 88.693756 38.188416 C 88.693756 34.773956 87.106628 30.544525 84.421417 26.212128 C 83.872345 25.354218 83.323303 24.53064 82.731354 23.664154 C 79.411285 18.980011 75.044556 14.338776 70.077332 10.512543 C 68.944885 9.646057 67.803894 8.873962 66.662872 8.050354 C 60.889191 4.138336 54.557892 1.590393 48.732758 1.410217 Z"/>
    <path id="Path-copy-29" fill="#948b7a" fill-rule="evenodd" stroke="none" d="M 34.405823 21.896881 C 33.599396 21.896881 32.792969 22.0513 32.072327 22.39447 C 30.528107 23.166565 28.795166 24.075958 28.383362 25.577271 C 28.108826 26.804077 28.932434 28.494141 29.524384 29.763824 C 30.40802 31.668365 32.372589 32.835114 34.422974 32.835114 C 35.220825 32.835114 36.035828 32.654938 36.807953 32.26889 C 38.446533 31.453888 41.586456 29.763824 41.860962 28.082336 C 42.041138 27.035706 40.445435 26.212128 39.947845 25.122589 C 38.978424 23.115082 36.653534 21.896881 34.405823 21.896881 Z"/>
    <path id="Path-copy-28" fill="#d9f1fd" fill-rule="evenodd" stroke="none" d="M 34.44873 22.711884 C 33.770966 22.711884 33.084656 22.857727 32.432648 23.166565 C 30.021942 24.213196 29.069672 27.078583 30.202118 29.403503 C 31.034271 31.084991 32.715759 32.071564 34.465881 32.071564 C 35.13504 32.071564 35.804199 31.934326 36.439056 31.634033 C 38.806854 30.493042 39.7677 27.722015 38.669586 25.354218 C 37.854584 23.681305 36.181671 22.711884 34.44873 22.711884 Z"/>
    <path id="Path-copy-27" fill="#948b7a" fill-rule="evenodd" stroke="none" d="M 35.074982 21.939758 L 35.255157 22.300079 C 35.255157 22.300079 35.263733 22.300079 35.263733 22.300079 C 35.426727 22.300079 39.836334 23.552612 43.816986 32.131622 C 43.816986 32.131622 45.181061 32.045837 44.408936 30.810455 C 43.722626 29.583679 41.21756 23.441101 35.074982 21.939758 Z"/>
    <path id="Path-copy-26" fill="#0d0c0b" fill-rule="evenodd" stroke="none" d="M 34.483032 22.617523 C 34.259979 22.849152 31.754913 24.762268 31.754913 27.353119 C 31.754913 29.995453 34.302887 32.088745 34.397247 32.088745 C 34.534515 32.088745 37.082458 29.952576 37.125366 27.353119 C 37.125366 24.762268 34.483032 22.617523 34.483032 22.617523 Z"/>
    <path id="Path-copy-25" fill="#ffffff" fill-rule="evenodd" stroke="none" d="M 32.81012 25.199799 C 32.364014 25.199799 31.977966 25.628754 31.977966 26.16922 C 31.977966 26.675385 32.432648 27.130066 32.938812 27.130066 C 33.436401 27.130066 33.891083 26.675385 33.891083 26.16922 C 33.891083 25.671631 33.436401 25.216949 32.938812 25.216949 C 32.895905 25.208374 32.853027 25.199799 32.81012 25.199799 Z"/>
    <path id="Path-copy-24" fill="#ffffff" fill-rule="evenodd" stroke="none" d="M 36.173096 27.353119 C 35.761292 27.353119 35.443878 27.722015 35.443878 28.082336 C 35.443878 28.494141 35.761292 28.854462 36.173096 28.854462 C 36.576324 28.854462 36.893738 28.494141 36.893738 28.082336 C 36.893738 27.722015 36.576324 27.353119 36.173096 27.353119 Z"/>
    <path id="Path-copy-23" fill="#948b7a" fill-rule="evenodd" stroke="none" d="M 62.793732 21.896881 C 60.554626 21.896881 58.255463 23.115082 57.286011 25.122589 C 56.788452 26.212128 55.192749 27.035706 55.330017 28.082336 C 55.64743 29.763824 58.744446 31.453888 60.425934 32.26889 C 61.198059 32.654938 62.004486 32.835114 62.802307 32.835114 C 64.826965 32.835114 66.765808 31.668365 67.709503 29.763824 C 68.258575 28.494141 69.125061 26.804077 68.850525 25.577271 C 68.438721 24.075958 66.662872 23.166565 65.118652 22.39447 C 64.39801 22.0513 63.600159 21.896881 62.793732 21.896881 Z"/>
    <path id="Path-copy-22" fill="#d9f1fd" fill-rule="evenodd" stroke="none" d="M 62.785156 22.711884 C 61.035034 22.711884 59.336395 23.681305 58.521393 25.354218 C 57.474762 27.722015 58.427032 30.493042 60.751953 31.634033 C 61.38678 31.934326 62.064514 32.071564 62.733704 32.071564 C 64.492371 32.071564 66.208191 31.084991 67.031769 29.403503 C 68.164185 27.078583 67.169037 24.213196 64.801239 23.166565 C 64.149231 22.857727 63.462891 22.711884 62.785156 22.711884 Z"/>
    <path id="Path-copy-21" fill="#948b7a" fill-rule="evenodd" stroke="none" d="M 62.064514 21.939758 L 62.064514 21.939758 C 55.921967 23.441101 53.416901 29.583679 52.739166 30.810455 C 52.009949 32.045837 53.373993 32.131622 53.373993 32.131622 C 57.397552 23.552612 61.721375 22.300079 61.884369 22.300079 C 61.884369 22.300079 61.884369 22.300079 61.884369 22.300079 L 62.064514 21.939758 Z"/>
    <path id="Path-copy-20" fill="#0d0c0b" fill-rule="evenodd" stroke="none" d="M 62.750854 22.617523 C 62.750854 22.617523 60.065613 24.762268 60.065613 27.353119 C 60.108521 29.952576 62.707947 32.088745 62.793732 32.088745 C 62.931 32.088745 65.478973 29.995453 65.478973 27.353119 C 65.478973 24.762268 62.931 22.849152 62.750854 22.617523 Z"/>
    <path id="Path-copy-19" fill="#ffffff" fill-rule="evenodd" stroke="none" d="M 64.355133 25.199799 C 64.312225 25.199799 64.260742 25.208374 64.20929 25.216949 C 63.703125 25.216949 63.248444 25.671631 63.248444 26.16922 C 63.248444 26.675385 63.703125 27.130066 64.20929 27.130066 C 64.758331 27.130066 65.213013 26.675385 65.213013 26.16922 C 65.213013 25.628754 64.869873 25.199799 64.355133 25.199799 Z"/>
    <path id="Path-copy-18" fill="#ffffff" fill-rule="evenodd" stroke="none" d="M 61.017883 27.353119 C 60.657562 27.353119 60.297241 27.722015 60.297241 28.082336 C 60.297241 28.494141 60.657562 28.854462 61.017883 28.854462 C 61.429688 28.854462 61.798584 28.494141 61.798584 28.082336 C 61.798584 27.722015 61.429688 27.353119 61.017883 27.353119 Z"/>
    <path id="Path-copy-17" fill="#cacaca" fill-rule="evenodd" stroke="none" d="M 54.137543 36.72998 C 54.111786 36.72998 54.08606 36.72998 54.060333 36.72998 C 50.783142 36.72998 48.183716 37.364807 48.183716 40.599091 C 48.183716 43.781921 51.237823 47.88269 54.515015 47.88269 C 57.740723 47.88269 59.885468 45.789398 59.885468 42.555115 C 59.885468 39.355164 57.337494 36.72998 54.137543 36.72998 Z"/>
    <path id="Path-copy-16" fill="#cacaca" fill-rule="evenodd" stroke="none" d="M 43.096344 36.72998 C 39.904968 36.72998 37.305511 39.355164 37.305511 42.555115 C 37.305511 45.789398 39.493164 47.88269 42.727448 47.88269 C 45.953156 47.88269 49.050171 43.781921 49.050171 40.599091 C 49.050171 37.364807 46.407837 36.72998 43.182129 36.72998 C 43.147827 36.72998 43.122101 36.72998 43.096344 36.72998 Z"/>
    <path id="Path-copy-15" fill="#ffffff" fill-rule="evenodd" stroke="none" d="M 54.6008 35.365906 C 51.006195 35.365906 48.140808 36.04364 48.140808 39.372314 C 48.140808 42.649475 51.555237 46.878937 55.106964 46.878937 C 58.701569 46.878937 61.112244 44.69986 61.112244 41.422699 C 61.112244 38.094025 58.203979 35.365906 54.6008 35.365906 Z"/>
    <path id="Path-copy-14" fill="#ffffff" fill-rule="evenodd" stroke="none" d="M 42.590179 35.365906 C 39.038483 35.365906 36.121613 38.094025 36.121613 41.422699 C 36.121613 44.69986 38.489441 46.878937 42.084045 46.878937 C 45.678619 46.878937 49.093079 42.649475 49.093079 39.372314 C 49.093079 36.04364 46.184784 35.365906 42.590179 35.365906 Z"/>
    <path id="Path-copy-13" fill="#d27891" fill-rule="evenodd" stroke="none" d="M 45.730103 30.269989 C 45.223938 30.269989 44.769257 30.450134 44.408936 30.72467 C 44.091522 30.999207 43.816986 31.359528 43.636841 31.719849 C 43.405212 32.311798 43.499573 32.9552 44.134399 33.315521 C 45.000885 33.864594 46.682373 33.727325 46.999786 35.09137 C 47.31723 36.910126 47.960663 37.776611 48.415344 38.094025 L 48.912903 38.094025 C 49.367615 37.776611 49.959564 36.961609 50.328461 35.09137 C 50.645874 33.727325 52.327362 33.864594 53.193848 33.315521 C 53.691437 32.9552 53.828674 32.311798 53.605621 31.719849 C 53.416901 31.359528 53.15094 30.999207 52.782043 30.72467 C 52.37027 30.450134 51.915558 30.269989 51.460876 30.269989 Z"/>
    <path id="Path-copy-12" fill="#e7c7d4" fill-rule="evenodd" stroke="none" d="M 53.15094 39.329407 C 52.696259 39.329407 52.327362 39.595367 52.327362 40.007141 C 52.327362 40.376038 52.696259 40.693481 53.15094 40.693481 C 53.511261 40.693481 53.923065 40.376038 53.923065 40.007141 C 53.923065 39.64682 53.511261 39.329407 53.15094 39.329407 Z"/>
    <path id="Path-copy-11" fill="#e7c7d4" fill-rule="evenodd" stroke="none" d="M 55.561646 42.194794 C 55.106964 42.194794 54.78952 42.46933 54.78952 42.872528 C 54.78952 43.284332 55.106964 43.558868 55.561646 43.558868 C 56.016327 43.558868 56.376648 43.284332 56.376648 42.872528 C 56.376648 42.512207 56.016327 42.194794 55.561646 42.194794 Z"/>
    <path id="Path-copy-10" fill="#e7c7d4" fill-rule="evenodd" stroke="none" d="M 57.61203 39.329407 C 57.243134 39.329407 56.831329 39.595367 56.831329 40.007141 C 56.831329 40.376038 57.148773 40.693481 57.61203 40.693481 C 58.066711 40.693481 58.427032 40.376038 58.427032 40.007141 C 58.427032 39.64682 58.066711 39.329407 57.61203 39.329407 Z"/>
    <path id="Path-copy-9" fill="#c7bfc2" fill-rule="evenodd" stroke="none" d="M 84.086823 32.766479 C 73.388824 32.766479 62.407684 34.9198 53.193848 39.826996 C 52.996521 39.98999 53.142365 40.247375 53.339691 40.247375 C 53.365417 40.247375 53.391144 40.247375 53.416901 40.2388 C 62.596436 35.365906 73.466034 33.221161 84.052521 33.221161 C 88.221893 33.221161 92.339813 33.555756 96.294739 34.182007 C 96.31192 34.182007 96.329071 34.182007 96.337646 34.182007 C 96.620758 34.182007 96.697968 33.770233 96.432007 33.727325 C 92.44278 33.101044 88.290527 32.766479 84.086823 32.766479 Z"/>
    <path id="Path-copy-8" fill="#c7bfc2" fill-rule="evenodd" stroke="none" d="M 71.218323 37.802338 C 66.482727 37.802338 61.867218 38.377136 57.697815 39.869904 C 57.423279 40.024323 57.491913 40.350311 57.68924 40.350311 C 57.714966 40.350311 57.749298 40.341736 57.792175 40.324585 C 61.944427 38.831818 66.53418 38.25705 71.252655 38.25705 C 79.754425 38.25705 88.659424 40.127258 96.071686 41.825897 C 96.088867 41.834473 96.097443 41.834473 96.114594 41.834473 C 96.397705 41.834473 96.466339 41.414124 96.208954 41.371216 C 88.736633 39.672577 79.780182 37.802338 71.218323 37.802338 Z"/>
    <path id="Path-copy-7" fill="#c7bfc2" fill-rule="evenodd" stroke="none" d="M 58.684387 42.623749 C 57.620605 42.623749 56.565399 42.658051 55.510162 42.735291 C 55.244232 42.735291 55.244232 43.147064 55.510162 43.147064 C 56.479584 43.087006 57.44046 43.052704 58.409882 43.052704 C 70.171692 43.052704 82.268066 47.753998 92.159668 53.390411 C 92.194 53.424713 92.236877 53.433289 92.27121 53.433289 C 92.451355 53.433289 92.571472 53.141602 92.382721 53.03009 C 82.491119 47.307892 70.411896 42.623749 58.684387 42.623749 Z"/>
    <path id="Path-copy-6" fill="#e7c7d4" fill-rule="evenodd" stroke="none" d="M 44.451843 39.329407 C 44.091522 39.329407 43.679718 39.64682 43.679718 40.007141 C 43.679718 40.376038 44.040039 40.693481 44.451843 40.693481 C 44.958008 40.693481 45.275421 40.376038 45.275421 40.007141 C 45.275421 39.595367 44.906525 39.329407 44.451843 39.329407 Z"/>
    <path id="Path-copy-5" fill="#e7c7d4" fill-rule="evenodd" stroke="none" d="M 42.041138 42.194794 C 41.586456 42.194794 41.21756 42.512207 41.21756 42.872528 C 41.21756 43.284332 41.586456 43.558868 42.041138 43.558868 C 42.495819 43.558868 42.813232 43.284332 42.813232 42.872528 C 42.813232 42.46933 42.495819 42.194794 42.041138 42.194794 Z"/>
    <path id="Path-copy-4" fill="#e7c7d4" fill-rule="evenodd" stroke="none" d="M 39.904968 39.329407 C 39.536072 39.329407 39.124268 39.64682 39.124268 40.007141 C 39.124268 40.376038 39.493164 40.693481 39.904968 40.693481 C 40.402557 40.693481 40.719971 40.376038 40.719971 40.007141 C 40.719971 39.595367 40.35965 39.329407 39.904968 39.329407 Z"/>
    <path id="Path-copy-3" fill="#c7bfc2" fill-rule="evenodd" stroke="none" d="M 13.455902 32.766479 C 9.260773 32.766479 5.108521 33.101044 1.119293 33.727325 C 0.861938 33.770233 0.930542 34.182007 1.170776 34.182007 C 1.187927 34.182007 1.196503 34.182007 1.213654 34.182007 C 5.160004 33.581482 9.277924 33.255493 13.430176 33.255493 C 24.050964 33.255493 34.937714 35.35733 44.134399 40.2388 C 44.168732 40.247375 44.203033 40.247375 44.22879 40.247375 C 44.451843 40.247375 44.606262 39.98999 44.366058 39.826996 C 35.109314 34.9198 24.145325 32.766479 13.455902 32.766479 Z"/>
    <path id="Path-copy-2" fill="#c7bfc2" fill-rule="evenodd" stroke="none" d="M 26.393036 37.853821 C 17.822601 37.853821 8.866119 39.72406 1.393829 41.422699 C 1.136444 41.465576 1.247986 41.87738 1.48819 41.87738 C 1.505341 41.87738 1.513916 41.87738 1.531097 41.87738 C 8.969086 40.178741 17.865509 38.308502 26.36731 38.308502 C 31.068604 38.308502 35.658356 38.883301 39.810608 40.376038 C 39.836334 40.384644 39.853485 40.384644 39.879242 40.384644 C 40.067963 40.384644 40.196655 40.041473 39.947845 39.912781 C 35.761292 38.428619 31.137238 37.853821 26.393036 37.853821 Z"/>
    <path id="Path-copy" fill="#c7bfc2" fill-rule="evenodd" stroke="none" d="M 38.866913 42.623749 C 27.139404 42.623749 15.068756 47.307892 5.168579 53.03009 C 4.979858 53.141602 5.108521 53.433289 5.280121 53.433289 C 5.314423 53.433289 5.35733 53.424713 5.400208 53.390411 C 15.283234 47.753998 27.379608 43.052704 39.150024 43.052704 C 40.11087 43.052704 41.080292 43.087006 42.041138 43.147064 C 42.358551 43.147064 42.358551 42.735291 42.041138 42.735291 C 40.985931 42.658051 39.930695 42.623749 38.866913 42.623749 Z"/>
</svg>
