<?xml version="1.0" encoding="UTF-8"?>
<!-- Generated by Pixelmator Pro 3.4.1 -->
<svg width="65" height="40" viewBox="0 0 65 40" xmlns="http://www.w3.org/2000/svg">
    <path id="Path-copy-32" fill="#6e5c4e" fill-rule="evenodd" stroke="none" d="M 52.751953 1.358307 C 50.856689 1.358307 39.970825 7.524384 39.970825 7.524384 C 43.766541 13.732239 53.01825 16.969299 53.01825 16.969299 C 53.01825 16.969299 58.281067 11.320099 53.01825 1.45752 C 52.981689 1.389648 52.892944 1.358307 52.751953 1.358307 Z"/>
    <path id="Path-copy-31" fill="#ebb1b0" fill-rule="evenodd" stroke="none" d="M 51.629456 4.015808 C 50.172729 4.015808 41.631104 8.855774 41.631104 8.855774 C 44.59668 13.648682 51.82782 16.222656 51.82782 16.222656 C 51.82782 16.222656 55.952454 11.816101 51.82782 4.088928 C 51.796509 4.036713 51.728638 4.015808 51.629456 4.015808 Z"/>
    <path id="Path-copy-30" fill="#6e5c4e" fill-rule="evenodd" stroke="none" d="M 11.223633 1.337402 C 11.093079 1.337402 11.004333 1.368744 10.967773 1.431396 C 7.140747 8.605164 8.858459 13.507721 10.106323 15.695374 C 10.132446 15.726685 10.132446 15.77887 10.18988 15.804993 C 10.247253 15.862427 10.273376 15.945984 10.330811 16.003387 C 10.691101 16.640381 10.967773 16.943176 10.967773 16.943176 C 10.967773 16.943176 20.219543 13.674805 24.041321 7.524384 C 24.041321 7.524384 22.877014 6.861328 21.268921 5.973724 C 21.02356 5.832764 20.772949 5.697021 20.496216 5.55603 C 20.329163 5.446411 20.162109 5.362854 19.968933 5.279327 C 16.669189 3.519836 12.351379 1.337402 11.223633 1.337402 Z"/>
    <path id="Path-copy-29" fill="#ebb1b0" fill-rule="evenodd" stroke="none" d="M 12.351379 4.015808 C 12.252197 4.015808 12.184326 4.036713 12.158203 4.088928 C 8.02832 11.816101 12.158203 16.222656 12.158203 16.222656 C 12.158203 16.222656 19.389343 13.648682 22.381042 8.855774 C 22.381042 8.855774 13.813293 4.015808 12.351379 4.015808 Z"/>
    <path id="Path-copy-28" fill="#6e5c4e" fill-rule="evenodd" stroke="none" d="M 31.517883 2.287659 C 28.526245 2.345093 25.732971 3.03949 23.153748 4.172485 L 22.960571 4.282104 C 22.130432 4.642365 21.300293 5.086151 20.464905 5.587372 C 19.827942 5.973724 19.22229 6.391418 18.585327 6.803894 C 15.593628 8.881866 12.962219 11.539368 11.046082 14.421417 C 10.691101 14.865204 10.409119 15.335083 10.132446 15.836304 C 10.0802 15.972046 10.048889 16.086914 9.970581 16.165253 C 8.858459 18.217133 8.138 20.378662 7.976135 22.3992 C 7.474915 27.776886 15.593628 32.011169 21.02356 35.227356 C 21.436035 35.477966 25.732971 39.216248 31.549194 39.383301 L 31.935608 39.383301 C 37.945007 39.383301 42.409058 35.477966 42.821472 35.227356 C 48.277527 32.011169 56.370178 27.776886 55.816711 22.373108 C 55.618347 20.237671 54.845642 18.050049 53.681335 15.919861 C 53.404602 15.449951 53.127869 14.974854 52.793762 14.478821 C 50.908936 11.570709 48.277527 8.907959 45.259766 6.803894 C 44.622742 6.391418 44.011902 5.973724 43.374939 5.587372 C 42.487366 5.060059 41.547546 4.590149 40.607788 4.172485 C 37.945007 2.982056 35.010803 2.287659 31.878174 2.287659 Z"/>
    <path id="Path-copy-27" fill="#d9f1fd" fill-rule="evenodd" stroke="none" d="M 41.208191 17.580139 C 39.610535 17.580139 38.15387 18.702698 37.835388 20.321228 C 37.501221 22.179932 38.722961 23.981201 40.550354 24.31012 C 40.769653 24.357117 40.983704 24.372742 41.197754 24.372742 C 42.784973 24.372742 44.220764 23.234558 44.539246 21.626465 C 44.873352 19.799103 43.651672 17.997833 41.82428 17.637573 C 41.620667 17.595825 41.411804 17.580139 41.208191 17.580139 Z"/>
    <path id="Path-copy-26" fill="#0d0c0b" fill-rule="evenodd" stroke="none" d="M 41.82428 17.637573 C 41.82428 17.637573 39.610535 18.770569 39.276428 20.597931 C 38.916138 22.456635 40.440674 24.31012 40.550354 24.31012 C 40.659973 24.31012 42.769287 23.177124 43.098206 21.349762 C 43.458496 19.517151 41.907837 17.799438 41.82428 17.637573 Z"/>
    <path id="Path-copy-25" fill="#ffffff" fill-rule="evenodd" stroke="none" d="M 42.409058 19.59549 C 42.064453 19.59549 41.761597 19.830444 41.688538 20.154144 C 41.631104 20.545715 41.850403 20.932068 42.241943 20.989502 C 42.28894 20.999939 42.341187 21.005188 42.393372 21.005188 C 42.72229 21.005188 43.025146 20.770203 43.072083 20.436096 C 43.15564 20.075806 42.905029 19.715576 42.518677 19.600708 C 42.482117 19.59549 42.445557 19.59549 42.409058 19.59549 Z"/>
    <path id="Path-copy-24" fill="#ffffff" fill-rule="evenodd" stroke="none" d="M 39.850708 20.707581 C 39.568787 20.707581 39.328613 20.869446 39.276428 21.151367 C 39.218994 21.485504 39.417358 21.762207 39.720215 21.819641 C 39.756714 21.82489 39.788086 21.830109 39.824585 21.830109 C 40.085693 21.830109 40.310181 21.647369 40.38324 21.375854 C 40.440674 21.099152 40.247498 20.796326 39.913391 20.712799 C 39.892456 20.707581 39.871582 20.707581 39.850708 20.707581 Z"/>
    <path id="Path-copy-23" fill="#0d0c0b" fill-rule="evenodd" stroke="none" d="M 41.892151 17.402649 C 41.239502 17.402649 40.524231 17.496613 39.746277 17.72113 C 35.428467 18.937622 33.903931 24.727783 33.956116 25.667603 L 34.702759 26.529053 L 34.702759 26.529053 C 34.687073 26.476868 34.191101 24.424988 36.258606 21.678711 C 37.114868 20.540497 38.957886 18.974182 41.17688 18.974182 C 42.25238 18.974182 43.411499 19.339661 44.59668 20.295105 L 46.559753 19.323975 C 46.559753 19.323975 44.88385 17.402649 41.892151 17.402649 Z M 34.702759 26.529053 C 34.707947 26.529053 34.707947 26.529053 34.707947 26.529053 C 34.707947 26.529053 34.707947 26.529053 34.707947 26.529053 L 34.702759 26.529053 Z"/>
    <path id="Path-copy-22" fill="#d9f1fd" fill-rule="evenodd" stroke="none" d="M 22.668213 17.580139 C 22.4646 17.580139 22.255737 17.595825 22.046875 17.637573 C 20.219543 17.997833 18.997803 19.799103 19.358032 21.626465 C 19.650391 23.234558 21.086182 24.372742 22.694275 24.372742 C 22.908386 24.372742 23.127625 24.357117 23.346924 24.31012 C 25.174316 23.981201 26.396057 22.179932 26.035767 20.321228 C 25.738159 18.702698 24.291931 17.580139 22.668213 17.580139 Z"/>
    <path id="Path-copy-21" fill="#0d0c0b" fill-rule="evenodd" stroke="none" d="M 22.046875 17.637573 C 21.989441 17.799438 20.438782 19.517151 20.772949 21.349762 C 21.133179 23.177124 23.237305 24.31012 23.346924 24.31012 C 23.430481 24.31012 24.955017 22.456635 24.62085 20.597931 C 24.26062 18.770569 22.046875 17.637573 22.046875 17.637573 Z"/>
    <path id="Path-copy-20" fill="#ffffff" fill-rule="evenodd" stroke="none" d="M 21.462158 19.59549 C 21.425598 19.59549 21.389038 19.59549 21.352478 19.600708 C 20.992249 19.715576 20.741638 20.075806 20.799072 20.436096 C 20.872131 20.770203 21.174988 21.005188 21.48822 21.005188 C 21.535217 21.005188 21.582214 20.999939 21.629211 20.989502 C 22.020752 20.932068 22.266174 20.545715 22.182617 20.154144 C 22.13562 19.830444 21.811951 19.59549 21.462158 19.59549 Z"/>
    <path id="Path-copy-19" fill="#ffffff" fill-rule="evenodd" stroke="none" d="M 24.020447 20.707581 C 23.999573 20.707581 23.978699 20.707581 23.957825 20.712799 C 23.654968 20.796326 23.487915 21.099152 23.513977 21.375854 C 23.560974 21.647369 23.785522 21.830109 24.067444 21.830109 C 24.104004 21.830109 24.140564 21.82489 24.177063 21.819641 C 24.485107 21.762207 24.652222 21.485504 24.62085 21.151367 C 24.547791 20.869446 24.302368 20.707581 24.020447 20.707581 Z"/>
    <path id="Path-copy-18" fill="#0d0c0b" fill-rule="evenodd" stroke="none" d="M 21.979004 17.402649 C 18.987366 17.402649 17.311401 19.323975 17.311401 19.323975 L 19.274475 20.295105 C 20.464905 19.339661 21.629211 18.974182 22.704712 18.974182 C 24.928894 18.974182 26.761536 20.540497 27.64386 21.678711 C 29.690552 24.367554 29.26239 26.388092 29.199768 26.523834 L 29.199768 26.523834 L 29.915039 25.667603 C 29.998596 24.727783 28.473999 18.937622 24.124878 17.72113 C 23.346924 17.496613 22.631653 17.402649 21.979004 17.402649 Z M 29.199768 26.523834 L 29.194519 26.529053 C 29.194519 26.529053 29.194519 26.529053 29.194519 26.529053 C 29.194519 26.529053 29.194519 26.523834 29.199768 26.523834 Z"/>
    <path id="Path-copy-17" fill="#55453c" fill-rule="evenodd" stroke="none" d="M 36.916504 26.221008 C 36.900818 26.221008 36.885132 26.221008 36.864258 26.221008 C 33.930054 26.221008 31.575317 26.805786 31.575317 29.713928 C 31.575317 32.62204 34.347717 36.308105 37.255859 36.308105 C 40.164001 36.308105 42.127075 34.397217 42.127075 31.489075 C 42.127075 28.596619 39.7724 26.221008 36.916504 26.221008 Z"/>
    <path id="Path-copy-16" fill="#55453c" fill-rule="evenodd" stroke="none" d="M 26.954712 26.221008 C 24.098755 26.221008 21.738831 28.596619 21.738831 31.489075 C 21.738831 34.397217 23.707214 36.308105 26.615295 36.308105 C 29.523438 36.308105 32.295837 32.62204 32.295837 29.713928 C 32.295837 26.805786 29.941162 26.221008 27.006897 26.221008 C 26.986023 26.221008 26.970337 26.221008 26.954712 26.221008 Z"/>
    <path id="Path-copy-15" fill="#0d0c0b" fill-rule="evenodd" stroke="none" d="M 30.134338 25.364746 C 29.163208 25.364746 28.36438 26.419434 29.194519 26.831879 C 29.664429 27.082489 30.687744 27.056396 30.828735 27.719482 C 31.131531 28.993408 31.684998 29.270111 31.935608 29.270111 C 32.154846 29.270111 32.713501 28.993408 33.042419 27.719482 C 33.209534 27.025055 34.180664 27.082489 34.650513 26.831879 C 35.480713 26.445526 34.707947 25.364746 33.736877 25.364746 Z"/>
    <path id="Path-copy-14" fill="#6e5c4e" fill-rule="evenodd" stroke="none" d="M 40.659973 4.172485 L 40.659973 4.172485 C 40.659973 4.172485 52.79895 16.165253 53.717834 16.165253 C 53.790955 16.165253 53.796204 16.086914 53.707397 15.919861 C 52.626648 13.648682 51.243103 11.763885 51.243103 11.763885 L 52.464783 11.763885 C 51.592896 10.657043 48.778748 8.97583 48.945801 8.97583 C 48.956238 8.97583 48.971924 8.981079 48.998047 8.991516 C 49.499268 9.158569 51.46759 9.158569 51.46759 9.158569 C 49.306091 7.106689 40.659973 4.172485 40.659973 4.172485 Z"/>
    <path id="Path-copy-13" fill="#6e5c4e" fill-rule="evenodd" stroke="none" d="M 23.096313 4.172485 C 23.096313 4.172485 21.738831 4.642365 19.911499 5.279327 C 19.164856 5.587372 18.386902 5.890198 17.556763 6.250427 C 15.369141 7.190247 13.181519 8.244873 12.210388 9.158569 C 12.210388 9.158569 14.152649 9.158569 14.679993 8.991516 C 14.706055 8.981079 14.721741 8.97583 14.732178 8.97583 C 14.899231 8.97583 12.059021 10.657043 11.213196 11.763885 L 12.434937 11.763885 C 12.434937 11.763885 11.688293 12.761108 10.910339 14.144714 C 10.633667 14.614594 10.356934 15.16803 10.0802 15.726685 L 9.970581 15.945984 C 9.887024 16.086914 9.887024 16.196594 9.970581 16.196594 C 10.022766 16.196594 10.132446 16.13916 10.273376 16.055603 C 10.55011 15.919861 10.936462 15.585693 11.406372 15.16803 C 13.432129 13.481628 17.112976 10.02005 19.775696 7.414734 C 20.30304 6.913513 20.772949 6.417542 21.216736 5.999817 C 22.130432 5.143585 22.736084 4.506592 22.986694 4.282104 L 23.096313 4.172485 Z"/>
    <path id="Path-copy-12" fill="#ffffff" fill-rule="evenodd" stroke="none" d="M 36.034119 29.964539 C 35.757385 29.964539 35.564209 30.131592 35.564209 30.376984 C 35.564209 30.627594 35.757385 30.794678 36.034119 30.794678 C 36.284729 30.794678 36.535339 30.627594 36.535339 30.376984 C 36.535339 30.183807 36.284729 29.964539 36.034119 29.964539 Z"/>
    <path id="Path-copy-11" fill="#ffffff" fill-rule="evenodd" stroke="none" d="M 37.532593 31.734467 C 37.255859 31.734467 37.062683 31.90155 37.062683 32.152161 C 37.062683 32.402771 37.255859 32.564606 37.532593 32.564606 C 37.809265 32.564606 38.028564 32.402771 38.028564 32.152161 C 38.028564 31.90155 37.809265 31.734467 37.532593 31.734467 Z"/>
    <path id="Path-copy-10" fill="#ffffff" fill-rule="evenodd" stroke="none" d="M 38.806519 29.964539 C 38.58197 29.964539 38.336609 30.131592 38.336609 30.376984 C 38.336609 30.627594 38.529785 30.794678 38.806519 30.794678 C 39.083191 30.794678 39.30249 30.627594 39.30249 30.376984 C 39.30249 30.183807 39.057129 29.964539 38.806519 29.964539 Z"/>
    <path id="Path-copy-9" fill="#c7bfc2" fill-rule="evenodd" stroke="none" d="M 54.861267 25.991272 C 48.371521 25.991272 41.709412 27.291321 36.117676 30.267334 C 35.976685 30.361328 36.054993 30.53363 36.185547 30.53363 C 36.206421 30.53363 36.232544 30.528381 36.258606 30.517944 C 41.82428 27.562836 48.418457 26.268005 54.840393 26.268005 C 57.398743 26.268005 59.92572 26.476868 62.353516 26.857971 C 62.358704 26.86322 62.369141 26.86322 62.379578 26.86322 C 62.55188 26.86322 62.593689 26.607361 62.437012 26.581268 C 59.988342 26.200134 57.440491 25.991272 54.861267 25.991272 Z"/>
    <path id="Path-copy-8" fill="#c7bfc2" fill-rule="evenodd" stroke="none" d="M 47.102783 29.050842 C 44.215515 29.050842 41.401367 29.405884 38.858704 30.324768 C 38.660339 30.397888 38.733398 30.606689 38.869141 30.606689 C 38.884827 30.606689 38.900513 30.606689 38.916138 30.601501 C 41.448364 29.682587 44.246826 29.327545 47.118408 29.327545 C 52.292542 29.327545 57.706726 30.470947 62.212524 31.489075 C 62.222961 31.489075 62.233398 31.489075 62.238647 31.489075 C 62.41095 31.489075 62.452698 31.238464 62.296082 31.207153 C 57.753723 30.194244 52.302979 29.050842 47.102783 29.050842 Z"/>
    <path id="Path-copy-7" fill="#c7bfc2" fill-rule="evenodd" stroke="none" d="M 39.380798 31.974609 C 38.759521 31.974609 38.143433 31.995514 37.532593 32.04248 C 37.339355 32.04248 37.365479 32.319214 37.532593 32.319214 C 38.143433 32.272217 38.759521 32.251343 39.37561 32.251343 C 46.507568 32.251343 53.837952 35.107269 59.831726 38.547943 C 59.8526 38.568848 59.878723 38.579285 59.904846 38.579285 C 60.009216 38.579285 60.082336 38.391296 59.967468 38.302551 C 53.926697 34.830566 46.544128 31.974609 39.380798 31.974609 Z"/>
    <path id="Path-copy-6" fill="#ffffff" fill-rule="evenodd" stroke="none" d="M 28.36438 29.964539 C 28.087646 29.964539 27.863159 30.183807 27.863159 30.376984 C 27.863159 30.627594 28.087646 30.794678 28.36438 30.794678 C 28.641113 30.794678 28.83429 30.627594 28.83429 30.376984 C 28.83429 30.131592 28.641113 29.964539 28.36438 29.964539 Z"/>
    <path id="Path-copy-5" fill="#ffffff" fill-rule="evenodd" stroke="none" d="M 26.839844 31.734467 C 26.56311 31.734467 26.338623 31.90155 26.338623 32.152161 C 26.338623 32.402771 26.56311 32.564606 26.839844 32.564606 C 27.116516 32.564606 27.309692 32.402771 27.309692 32.152161 C 27.309692 31.90155 27.116516 31.734467 26.839844 31.734467 Z"/>
    <path id="Path-copy-4" fill="#ffffff" fill-rule="evenodd" stroke="none" d="M 25.59198 29.964539 C 25.34137 29.964539 25.090759 30.183807 25.090759 30.376984 C 25.090759 30.627594 25.315247 30.794678 25.59198 30.794678 C 25.868713 30.794678 26.06189 30.627594 26.06189 30.376984 C 26.06189 30.131592 25.868713 29.964539 25.59198 29.964539 Z"/>
    <path id="Path-copy-3" fill="#c7bfc2" fill-rule="evenodd" stroke="none" d="M 9.547668 25.991272 C 6.968445 25.991272 4.415344 26.200134 1.961426 26.581268 C 1.80481 26.607361 1.872681 26.86322 2.024109 26.86322 C 2.029358 26.86322 2.039795 26.86322 2.044983 26.857971 C 4.478027 26.482056 6.999756 26.283691 9.552856 26.283691 C 15.985229 26.283691 22.563782 27.562836 28.139893 30.517944 C 28.171204 30.528381 28.197327 30.53363 28.223389 30.53363 C 28.369568 30.53363 28.442688 30.361328 28.280823 30.267334 C 22.683838 27.291321 16.042664 25.991272 9.547668 25.991272 Z"/>
    <path id="Path-copy-2" fill="#c7bfc2" fill-rule="evenodd" stroke="none" d="M 17.306152 29.050842 C 12.090332 29.050842 6.644775 30.194244 2.102417 31.207153 C 1.940552 31.238464 1.987549 31.489075 2.159851 31.489075 C 2.1651 31.489075 2.175537 31.489075 2.185974 31.489075 C 6.691711 30.470947 12.105957 29.327545 17.280029 29.327545 C 20.151611 29.327545 22.950134 29.682587 25.482361 30.601501 C 25.497986 30.606689 25.513672 30.606689 25.529358 30.606689 C 25.6651 30.606689 25.738159 30.397888 25.565857 30.324768 C 23.012756 29.405884 20.19342 29.050842 17.306152 29.050842 Z"/>
    <path id="Path-copy" fill="#c7bfc2" fill-rule="evenodd" stroke="none" d="M 25.0177 31.974609 C 17.859619 31.974609 10.497864 34.830566 4.425781 38.302551 C 4.316162 38.391296 4.389221 38.579285 4.493652 38.579285 C 4.519775 38.579285 4.540649 38.568848 4.566772 38.547943 C 10.560547 35.107269 17.911804 32.251343 25.028137 32.251343 C 25.644226 32.251343 26.255066 32.272217 26.865906 32.319214 C 27.03302 32.319214 27.085205 32.04248 26.865906 32.04248 C 26.249817 31.995514 25.633789 31.974609 25.0177 31.974609 Z"/>
</svg>
