<?xml version="1.0" encoding="UTF-8"?>
<!-- Generated by Pixelmator Pro 3.4.1 -->
<svg width="81" height="84" viewBox="0 0 81 84" xmlns="http://www.w3.org/2000/svg">
    <path id="Path-copy-20" fill="#d9c28c" fill-rule="evenodd" stroke="none" d="M 15.056946 0.990265 C 14.570557 0.990265 14.153687 1.372375 13.846802 2.235077 C 11.356934 9.304382 13.447266 29.60907 13.447266 29.60907 L 25.890564 20.455444 C 25.890564 20.455444 18.55426 0.990265 15.056946 0.990265 Z"/>
    <path id="Path-copy-19" fill="#b4949e" fill-rule="evenodd" stroke="none" d="M 16.394531 7.828003 C 16.058655 12.095032 16.151306 17.87323 16.458191 23.00296 L 21.617371 19.193298 C 19.833923 14.798859 17.928955 10.682343 16.394531 7.828003 Z"/>
    <path id="Path-copy-18" fill="#d9c28c" fill-rule="evenodd" stroke="none" d="M 67.841248 1.389771 C 64.343872 1.389771 57.007568 20.883911 57.007568 20.883911 L 69.450928 30.037537 C 69.450928 30.037537 71.541199 9.703857 69.051392 2.634583 C 68.744507 1.771912 68.327576 1.389771 67.841248 1.389771 Z"/>
    <path id="Path-copy-17" fill="#b4949e" fill-rule="evenodd" stroke="none" d="M 66.503662 8.28537 L 66.503662 8.28537 C 64.96344 11.145508 63.064209 15.233093 61.280823 19.656464 L 66.439941 23.466125 C 66.746826 18.365356 66.903198 12.558228 66.503662 8.28537 Z"/>
    <path id="Path-copy-16" fill="#d9c28c" fill-rule="evenodd" stroke="none" d="M 40.082581 11.023926 C 18.23584 11.023926 0.482788 39.191132 0.482788 54.644012 C 0.482788 70.062134 18.23584 82.533295 40.082581 82.533295 C 61.923523 82.533295 79.682373 70.062134 79.682373 54.644012 C 79.682373 39.191132 61.958313 11.023926 40.082581 11.023926 Z"/>
    <path id="Path-copy-15" fill="#faf4f8" fill-rule="evenodd" stroke="none" d="M 39.804626 42.477661 C 31.912476 42.477661 25.491028 51.678955 25.491028 63.031281 C 25.491028 74.38739 31.912476 83.607422 39.804626 83.607422 C 47.731567 83.607422 54.152954 74.38739 54.152954 63.031281 C 54.152954 51.678955 47.731567 42.477661 39.804626 42.477661 Z"/>
    <path id="Path-copy-14" fill="#434244" fill-rule="evenodd" stroke="none" d="M 39.868347 52.08493 C 39.706238 52.08493 39.544067 52.137024 39.434082 52.24707 L 35.317139 56.363586 C 35.102905 56.60675 35.102905 57.006226 35.317139 57.255188 C 35.44458 57.359406 35.606689 57.417297 35.763 57.417297 C 35.925171 57.417297 36.08728 57.359406 36.208862 57.255188 L 39.868347 53.596069 L 43.493042 57.255188 C 43.614624 57.37677 43.770996 57.440491 43.921509 57.440491 C 44.077881 57.440491 44.228394 57.405731 44.413696 57.255188 C 44.656921 57.006226 44.656921 56.60675 44.413696 56.363586 L 40.325745 52.24707 C 40.204163 52.137024 40.036255 52.08493 39.868347 52.08493 Z"/>
    <path id="Path-copy-13" fill="#434244" fill-rule="evenodd" stroke="none" d="M 39.804626 48.501068 C 39.468811 48.501068 39.190857 48.773193 39.190857 49.114807 L 39.190857 52.831818 C 39.190857 53.167603 39.468811 53.445526 39.804626 53.445526 C 40.175232 53.445526 40.418396 53.167603 40.418396 52.831818 L 40.418396 49.114807 C 40.418396 48.773193 40.175232 48.501068 39.804626 48.501068 Z"/>
    <path id="Path-copy-12" fill="#b4949e" fill-rule="evenodd" stroke="none" d="M 36.486816 45.947784 L 39.804626 49.300049 L 43.186157 45.947784 Z"/>
    <path id="Path-copy-11" fill="#b4949e" fill-rule="evenodd" stroke="none" d="M 42.109192 46.382019 L 39.804626 48.68634 L 37.500122 46.382019 Z M 36.486816 45.548279 C 36.336243 45.548279 36.179932 45.64093 36.08728 45.797241 C 36.02356 45.947784 36.05835 46.133057 36.179932 46.254639 L 39.497742 49.606934 C 39.590393 49.699554 39.683044 49.728516 39.804626 49.728516 C 39.926208 49.728516 40.05365 49.699554 40.111511 49.606934 L 43.458313 46.254639 C 43.585693 46.161987 43.614624 45.947784 43.550964 45.797241 C 43.493042 45.64093 43.336731 45.548279 43.151428 45.548279 Z"/>
    <path id="Path-copy-10" fill="#434244" fill-rule="evenodd" stroke="none" d="M 62.537292 41.124908 C 61.616638 41.124908 60.881287 41.831268 60.881287 42.78656 C 60.881287 43.707153 61.616638 44.413513 62.537292 44.413513 C 63.457947 44.413513 64.199158 43.707153 64.199158 42.78656 C 64.199158 41.831268 63.457947 41.124908 62.537292 41.124908 Z"/>
    <path id="Path-copy-9" fill="#434244" fill-rule="evenodd" stroke="none" d="M 19.926575 41.124908 C 19.00592 41.124908 18.270569 41.831268 18.270569 42.78656 C 18.270569 43.707153 19.00592 44.413513 19.926575 44.413513 C 20.847229 44.413513 21.588379 43.707153 21.588379 42.78656 C 21.588379 41.831268 20.847229 41.124908 19.926575 41.124908 Z"/>
    <path id="Path-copy-8" fill="none" stroke="none" d="M 44.56427 51.419128 C 44.56427 51.419128 48.530579 49.792175 55.536865 51.112244"/>
    <path id="Path-copy-7" fill="none" stroke="#434244" stroke-width="0.08399" stroke-linecap="round" d="M 44.56427 51.419128 C 44.56427 51.419128 48.530579 49.792175 55.536865 51.112244"/>
    <path id="Path-copy-6" fill="none" stroke="none" d="M 23.151794 50.863281 C 23.151794 50.863281 27.118103 49.26532 34.0896 50.556458"/>
    <path id="Path-copy-5" fill="none" stroke="#434244" stroke-width="0.08399" stroke-linecap="round" d="M 23.151794 50.863281 C 23.151794 50.863281 27.118103 49.26532 34.0896 50.556458"/>
    <path id="Path-copy-4" fill="none" stroke="none" d="M 25.213135 54.858215 C 25.213135 54.858215 28.652527 52.339691 35.751465 51.876526"/>
    <path id="Path-copy-3" fill="none" stroke="#434244" stroke-width="0.08399" stroke-linecap="round" d="M 25.213135 54.858215 C 25.213135 54.858215 28.652527 52.339691 35.751465 51.876526"/>
    <path id="Path-copy-2" fill="none" stroke="none" d="M 44.164734 49.728516 C 44.164734 49.728516 47.575195 47.181 54.674133 46.717834"/>
    <path id="Path-copy" fill="none" stroke="#434244" stroke-width="0.08399" stroke-linecap="round" d="M 44.164734 49.728516 C 44.164734 49.728516 47.575195 47.181 54.674133 46.717834"/>
</svg>
