<?xml version="1.0" encoding="UTF-8"?>
<!-- Generated by Pixelmator Pro 3.4.1 -->
<svg width="100" height="95" viewBox="0 0 100 95" xmlns="http://www.w3.org/2000/svg">
    <path id="Path-copy-93" fill="#fdfdfd" fill-rule="evenodd" stroke="none" d="M 11.190735 13.334961 C 9.84906 13.334961 8.649963 14.332794 8.499084 15.842163 C 8.138489 20.110229 8.138489 27.631805 11.744141 35.103027 C 11.744141 35.103027 12.012451 32.478455 13.479858 29.54364 C 14.77124 26.960968 16.993286 24.118378 20.640869 22.516785 C 20.640869 22.516785 18.326538 16.949005 12.591064 13.74585 C 12.364624 13.620056 12.146606 13.527832 11.920227 13.435577 C 11.677063 13.3685 11.425476 13.334961 11.190735 13.334961 Z"/>
    <path id="Path-copy-92" fill="none" stroke="#fdfdfd" stroke-width="8" stroke-linejoin="round" d="M 11.190735 13.334961 C 9.84906 13.334961 8.649963 14.332794 8.499084 15.842163 C 8.138489 20.110229 8.138489 27.631805 11.744141 35.103027 C 11.744141 35.103027 12.012451 32.478455 13.479858 29.54364 C 14.77124 26.960968 16.993286 24.118378 20.640869 22.516785 C 20.640869 22.516785 18.326538 16.949005 12.591064 13.74585 C 12.364624 13.620056 12.146606 13.527832 11.920227 13.435577 C 11.677063 13.3685 11.425476 13.334961 11.190735 13.334961 Z"/>
    <path id="Path-copy-91" fill="#fdfdfd" fill-rule="evenodd" stroke="none" d="M 11.920227 13.393646 C 11.878296 13.569763 11.836365 13.796143 11.836365 14.01416 C 11.47583 17.577881 11.433899 23.40564 13.479919 29.54364 C 14.77124 26.960968 16.993286 24.118378 20.640869 22.516785 C 20.640869 22.516785 18.326538 16.949005 12.591064 13.661987 C 12.364685 13.569763 12.146667 13.435577 11.920227 13.393646 Z"/>
    <path id="Path-copy-90" fill="none" stroke="#fdfdfd" stroke-width="8" stroke-linejoin="round" d="M 11.920227 13.393646 C 11.878296 13.569763 11.836365 13.796143 11.836365 14.01416 C 11.47583 17.577881 11.433899 23.40564 13.479919 29.54364 C 14.77124 26.960968 16.993286 24.118378 20.640869 22.516785 C 20.640869 22.516785 18.326538 16.949005 12.591064 13.661987 C 12.364685 13.569763 12.146667 13.435577 11.920227 13.393646 Z"/>
    <path id="Path-copy-89" fill="#fdfdfd" fill-rule="evenodd" stroke="none" d="M 82.750549 5.402496 C 81.84491 5.402496 80.914185 5.536652 79.99176 5.830139 C 66.776672 10.098236 56.815002 19.573547 56.815002 19.573547 C 83.412964 23.850006 87.86554 39.689728 87.907471 39.689728 C 92.846375 29.141113 92.762512 19.397461 91.555054 12.773132 C 90.791992 8.379242 86.976685 5.402496 82.750549 5.402496 Z"/>
    <path id="Path-copy-88" fill="none" stroke="#fdfdfd" stroke-width="8" stroke-linejoin="round" d="M 82.750549 5.402496 C 81.84491 5.402496 80.914185 5.536652 79.99176 5.830139 C 66.776672 10.098236 56.815002 19.573547 56.815002 19.573547 C 83.412964 23.850006 87.86554 39.689728 87.907471 39.689728 C 92.846375 29.141113 92.762512 19.397461 91.555054 12.773132 C 90.791992 8.379242 86.976685 5.402496 82.750549 5.402496 Z"/>
    <path id="Path-copy-87" fill="#fdfdfd" fill-rule="evenodd" stroke="none" d="M 83.153137 5.385712 L 83.153137 5.385712 C 85.241028 6.677063 86.80072 8.764984 87.245117 11.43988 C 88.217834 17.217285 88.486145 25.451599 85.148804 34.524414 C 87.245117 37.551483 87.865662 39.689728 87.865662 39.689728 C 92.804565 29.099182 92.628418 19.397461 91.513184 12.773132 C 90.800476 8.496643 87.194824 5.561829 83.153137 5.385712 Z"/>
    <path id="Path-copy-86" fill="none" stroke="#fdfdfd" stroke-width="8" stroke-linejoin="round" d="M 83.153137 5.385712 L 83.153137 5.385712 C 85.241028 6.677063 86.80072 8.764984 87.245117 11.43988 C 88.217834 17.217285 88.486145 25.451599 85.148804 34.524414 C 87.245117 37.551483 87.865662 39.689728 87.865662 39.689728 C 92.804565 29.099182 92.628418 19.397461 91.513184 12.773132 C 90.800476 8.496643 87.194824 5.561829 83.153137 5.385712 Z"/>
    <path id="Path-copy-85" fill="#fdfdfd" fill-rule="evenodd" stroke="none" d="M 81.27478 6.970551 C 80.905823 6.970551 80.528503 7.029236 80.167908 7.163391 C 76.964783 8.278625 70.2901 10.903229 66.114258 14.643036 C 66.114258 14.643036 71.095093 15.171295 74.960693 17.133453 C 75.346375 17.301147 75.765686 17.38501 76.168152 17.38501 C 76.939575 17.38501 77.685913 17.091522 78.214172 16.504547 C 79.320984 15.397705 80.9729 13.879974 82.750549 12.856964 C 84.310242 11.96814 84.838501 9.964081 83.907715 8.412811 L 83.857422 8.320557 C 83.278809 7.440125 82.289368 6.970551 81.27478 6.970551 Z"/>
    <path id="Path-copy-84" fill="none" stroke="#fdfdfd" stroke-width="8" stroke-linejoin="round" d="M 81.27478 6.970551 C 80.905823 6.970551 80.528503 7.029236 80.167908 7.163391 C 76.964783 8.278625 70.2901 10.903229 66.114258 14.643036 C 66.114258 14.643036 71.095093 15.171295 74.960693 17.133453 C 75.346375 17.301147 75.765686 17.38501 76.168152 17.38501 C 76.939575 17.38501 77.685913 17.091522 78.214172 16.504547 C 79.320984 15.397705 80.9729 13.879974 82.750549 12.856964 C 84.310242 11.96814 84.838501 9.964081 83.907715 8.412811 L 83.857422 8.320557 C 83.278809 7.440125 82.289368 6.970551 81.27478 6.970551 Z"/>
    <path id="Path-copy-83" fill="#fdfdfd" fill-rule="evenodd" stroke="none" d="M 86.926453 13.334961 C 86.683289 13.334961 86.42334 13.3685 86.171814 13.435577 C 85.953796 13.527832 85.727356 13.620056 85.509338 13.74585 C 79.815796 16.949005 77.501465 22.516785 77.501465 22.516785 C 81.149048 24.118378 83.371094 26.960968 84.620544 29.54364 C 86.129883 32.478455 86.398193 35.103027 86.398193 35.103027 C 89.953552 27.631805 90.045776 20.110229 89.64325 15.842163 C 89.492371 14.332794 88.293274 13.334961 86.926453 13.334961 Z"/>
    <path id="Path-copy-82" fill="none" stroke="#fdfdfd" stroke-width="8" stroke-linejoin="round" d="M 86.926453 13.334961 C 86.683289 13.334961 86.42334 13.3685 86.171814 13.435577 C 85.953796 13.527832 85.727356 13.620056 85.509338 13.74585 C 79.815796 16.949005 77.501465 22.516785 77.501465 22.516785 C 81.149048 24.118378 83.371094 26.960968 84.620544 29.54364 C 86.129883 32.478455 86.398193 35.103027 86.398193 35.103027 C 89.953552 27.631805 90.045776 20.110229 89.64325 15.842163 C 89.492371 14.332794 88.293274 13.334961 86.926453 13.334961 Z"/>
    <path id="Path-copy-81" fill="#fdfdfd" fill-rule="evenodd" stroke="none" d="M 86.171814 13.393646 C 85.953796 13.435577 85.727356 13.569763 85.509338 13.661987 C 79.815796 16.949005 77.501465 22.516785 77.501465 22.516785 C 81.149048 24.118378 83.371094 26.960968 84.620544 29.54364 C 86.708435 23.40564 86.616211 17.577881 86.305969 14.01416 C 86.305969 13.796143 86.264038 13.569763 86.171814 13.393646 Z"/>
    <path id="Path-copy-80" fill="none" stroke="#fdfdfd" stroke-width="8" stroke-linejoin="round" d="M 86.171814 13.393646 C 85.953796 13.435577 85.727356 13.569763 85.509338 13.661987 C 79.815796 16.949005 77.501465 22.516785 77.501465 22.516785 C 81.149048 24.118378 83.371094 26.960968 84.620544 29.54364 C 86.708435 23.40564 86.616211 17.577881 86.305969 14.01416 C 86.305969 13.796143 86.264038 13.569763 86.171814 13.393646 Z"/>
    <path id="Path-copy-79" fill="#fdfdfd" fill-rule="evenodd" stroke="none" d="M 15.433655 5.402496 C 11.207458 5.402496 7.392212 8.379242 6.62915 12.773132 C 5.430054 19.397461 5.33783 29.141113 10.276733 39.689728 C 10.276733 39.689728 14.720886 23.850006 41.377563 19.573547 C 41.377563 19.573547 31.407532 10.098236 18.192383 5.830139 C 17.27002 5.536652 16.339233 5.402496 15.433655 5.402496 Z"/>
    <path id="Path-copy-78" fill="none" stroke="#fdfdfd" stroke-width="8" stroke-linejoin="round" d="M 15.433655 5.402496 C 11.207458 5.402496 7.392212 8.379242 6.62915 12.773132 C 5.430054 19.397461 5.33783 29.141113 10.276733 39.689728 C 10.276733 39.689728 14.720886 23.850006 41.377563 19.573547 C 41.377563 19.573547 31.407532 10.098236 18.192383 5.830139 C 17.27002 5.536652 16.339233 5.402496 15.433655 5.402496 Z"/>
    <path id="Path-copy-77" fill="#fdfdfd" fill-rule="evenodd" stroke="none" d="M 14.989197 5.385712 L 14.989197 5.385712 C 10.939148 5.561829 7.341858 8.496643 6.62915 12.773132 C 5.513916 19.397461 5.33783 29.099182 10.276733 39.689728 C 10.276733 39.689728 10.897217 37.551483 12.985168 34.524414 C 9.656189 25.451599 9.874207 17.217285 10.897217 11.43988 C 11.341614 8.764984 12.901306 6.677063 14.989197 5.385712 Z"/>
    <path id="Path-copy-76" fill="none" stroke="#fdfdfd" stroke-width="8" stroke-linejoin="round" d="M 14.989197 5.385712 L 14.989197 5.385712 C 10.939148 5.561829 7.341858 8.496643 6.62915 12.773132 C 5.513916 19.397461 5.33783 29.099182 10.276733 39.689728 C 10.276733 39.689728 10.897217 37.551483 12.985168 34.524414 C 9.656189 25.451599 9.874207 17.217285 10.897217 11.43988 C 11.341614 8.764984 12.901306 6.677063 14.989197 5.385712 Z"/>
    <path id="Path-copy-75" fill="#fdfdfd" fill-rule="evenodd" stroke="none" d="M 16.867554 6.970551 C 15.852905 6.970551 14.863464 7.440125 14.276489 8.320557 L 14.234558 8.412811 C 13.303833 9.964081 13.832092 11.96814 15.391724 12.856964 C 17.169434 13.879974 18.770996 15.397705 19.88623 16.504547 C 20.439636 17.091522 21.194336 17.38501 21.965759 17.38501 C 22.376648 17.38501 22.787537 17.301147 23.173218 17.133453 C 27.00531 15.171295 32.028076 14.643036 32.028076 14.643036 C 27.852234 10.903229 21.177551 8.278625 17.974365 7.163391 C 17.613831 7.029236 17.236511 6.970551 16.867554 6.970551 Z"/>
    <path id="Path-copy-74" fill="none" stroke="#fdfdfd" stroke-width="8" stroke-linejoin="round" d="M 16.867554 6.970551 C 15.852905 6.970551 14.863464 7.440125 14.276489 8.320557 L 14.234558 8.412811 C 13.303833 9.964081 13.832092 11.96814 15.391724 12.856964 C 17.169434 13.879974 18.770996 15.397705 19.88623 16.504547 C 20.439636 17.091522 21.194336 17.38501 21.965759 17.38501 C 22.376648 17.38501 22.787537 17.301147 23.173218 17.133453 C 27.00531 15.171295 32.028076 14.643036 32.028076 14.643036 C 27.852234 10.903229 21.177551 8.278625 17.974365 7.163391 C 17.613831 7.029236 17.236511 6.970551 16.867554 6.970551 Z"/>
    <path id="Path-copy-73" fill="#fdfdfd" fill-rule="evenodd" stroke="none" d="M 11.190735 13.334961 C 9.84906 13.334961 8.649963 14.332794 8.499084 15.842163 C 8.138489 20.110229 8.138489 27.631805 11.744141 35.103027 C 11.744141 35.103027 12.012451 32.478455 13.479858 29.54364 C 14.77124 26.960968 16.993286 24.118378 20.640869 22.516785 C 20.640869 22.516785 18.326538 16.949005 12.591064 13.74585 C 12.364624 13.620056 12.146606 13.527832 11.920227 13.435577 C 11.677063 13.3685 11.425476 13.334961 11.190735 13.334961 Z"/>
    <path id="Path-copy-72" fill="none" stroke="#fdfdfd" stroke-width="8" stroke-linejoin="round" d="M 11.190735 13.334961 C 9.84906 13.334961 8.649963 14.332794 8.499084 15.842163 C 8.138489 20.110229 8.138489 27.631805 11.744141 35.103027 C 11.744141 35.103027 12.012451 32.478455 13.479858 29.54364 C 14.77124 26.960968 16.993286 24.118378 20.640869 22.516785 C 20.640869 22.516785 18.326538 16.949005 12.591064 13.74585 C 12.364624 13.620056 12.146606 13.527832 11.920227 13.435577 C 11.677063 13.3685 11.425476 13.334961 11.190735 13.334961 Z"/>
    <path id="Path-copy-71" fill="#fdfdfd" fill-rule="evenodd" stroke="none" d="M 11.920227 13.393646 C 11.878296 13.569763 11.836365 13.796143 11.836365 14.01416 C 11.47583 17.577881 11.433899 23.40564 13.479919 29.54364 C 14.77124 26.960968 16.993286 24.118378 20.640869 22.516785 C 20.640869 22.516785 18.326538 16.949005 12.591064 13.661987 C 12.364685 13.569763 12.146667 13.435577 11.920227 13.393646 Z"/>
    <path id="Path-copy-70" fill="none" stroke="#fdfdfd" stroke-width="8" stroke-linejoin="round" d="M 11.920227 13.393646 C 11.878296 13.569763 11.836365 13.796143 11.836365 14.01416 C 11.47583 17.577881 11.433899 23.40564 13.479919 29.54364 C 14.77124 26.960968 16.993286 24.118378 20.640869 22.516785 C 20.640869 22.516785 18.326538 16.949005 12.591064 13.661987 C 12.364685 13.569763 12.146667 13.435577 11.920227 13.393646 Z"/>
    <path id="Path-copy-69" fill="#fdfdfd" fill-rule="evenodd" stroke="none" d="M 49.117126 14.643066 C 36.480591 14.643066 27.407776 17.527588 21.311707 20.730743 C 13.52179 24.873047 8.540955 32.746796 8.18042 41.559662 C 7.828247 49.651428 9.740051 55.479156 9.740051 55.479156 C 8.499023 57.927643 7.652161 60.552246 7.115479 62.908478 C 5.740295 68.920715 8.004333 75.192871 12.985168 78.790131 C 19.399841 83.418762 28.514587 86.487762 35.994263 88.315765 C 40.287476 89.405823 44.69812 89.950867 49.117126 89.950867 C 53.544556 89.950867 57.971924 89.405823 62.281982 88.315765 C 69.711304 86.403931 78.834412 83.418762 85.240723 78.790131 C 90.179626 75.192871 92.493958 68.920715 91.068481 62.908478 C 90.531799 60.552246 89.735229 57.927643 88.48584 55.479156 C 88.48584 55.479156 90.355713 49.651428 90.045471 41.559662 C 89.643005 32.746796 84.704102 24.873047 76.922607 20.730743 C 70.784607 17.527588 61.703369 14.643066 49.117126 14.643066 Z"/>
    <path id="Path-copy-68" fill="none" stroke="#fdfdfd" stroke-width="8" stroke-linejoin="round" d="M 49.117126 14.643066 C 36.480591 14.643066 27.407776 17.527588 21.311707 20.730743 C 13.52179 24.873047 8.540955 32.746796 8.18042 41.559662 C 7.828247 49.651428 9.740051 55.479156 9.740051 55.479156 C 8.499023 57.927643 7.652161 60.552246 7.115479 62.908478 C 5.740295 68.920715 8.004333 75.192871 12.985168 78.790131 C 19.399841 83.418762 28.514587 86.487762 35.994263 88.315765 C 40.287476 89.405823 44.69812 89.950867 49.117126 89.950867 C 53.544556 89.950867 57.971924 89.405823 62.281982 88.315765 C 69.711304 86.403931 78.834412 83.418762 85.240723 78.790131 C 90.179626 75.192871 92.493958 68.920715 91.068481 62.908478 C 90.531799 60.552246 89.735229 57.927643 88.48584 55.479156 C 88.48584 55.479156 90.355713 49.651428 90.045471 41.559662 C 89.643005 32.746796 84.704102 24.873047 76.922607 20.730743 C 70.784607 17.527588 61.703369 14.643066 49.117126 14.643066 Z"/>
    <path id="Path-copy-67" fill="#fdfdfd" fill-rule="evenodd" stroke="none" d="M 49.024902 18.684753 C 38.350525 18.684753 30.694824 21.13327 25.487549 23.850067 C 18.947083 27.27124 14.77124 34.038147 14.460999 41.425537 C 14.142334 48.318207 15.701965 53.215179 15.701965 53.215179 C 14.679016 55.261169 14.016541 57.483246 13.479919 59.437012 C 12.322754 64.510071 14.276489 69.851471 18.460754 72.920471 C 23.844055 76.794464 31.583618 79.368713 37.855774 80.970306 C 41.503357 81.884308 45.243164 82.34549 48.982971 82.34549 C 52.714417 82.34549 56.454224 81.884308 60.101807 80.970306 C 66.466187 79.419037 74.121948 76.794464 79.505249 72.920471 C 83.857178 69.851471 85.727112 64.510071 84.569946 59.437012 C 84.125549 57.441345 83.412781 55.261169 82.347839 53.215179 C 82.347839 53.215179 83.949463 48.276276 83.63916 41.425537 C 83.286987 33.945892 79.144714 27.27124 72.562256 23.850067 C 67.396973 21.13327 59.699341 18.684753 49.024902 18.684753 Z"/>
    <path id="Path-copy-66" fill="none" stroke="#fdfdfd" stroke-width="8" stroke-linejoin="round" d="M 49.024902 18.684753 C 38.350525 18.684753 30.694824 21.13327 25.487549 23.850067 C 18.947083 27.27124 14.77124 34.038147 14.460999 41.425537 C 14.142334 48.318207 15.701965 53.215179 15.701965 53.215179 C 14.679016 55.261169 14.016541 57.483246 13.479919 59.437012 C 12.322754 64.510071 14.276489 69.851471 18.460754 72.920471 C 23.844055 76.794464 31.583618 79.368713 37.855774 80.970306 C 41.503357 81.884308 45.243164 82.34549 48.982971 82.34549 C 52.714417 82.34549 56.454224 81.884308 60.101807 80.970306 C 66.466187 79.419037 74.121948 76.794464 79.505249 72.920471 C 83.857178 69.851471 85.727112 64.510071 84.569946 59.437012 C 84.125549 57.441345 83.412781 55.261169 82.347839 53.215179 C 82.347839 53.215179 83.949463 48.276276 83.63916 41.425537 C 83.286987 33.945892 79.144714 27.27124 72.562256 23.850067 C 67.396973 21.13327 59.699341 18.684753 49.024902 18.684753 Z"/>
    <path id="Path-copy-65" fill="#fdfdfd" fill-rule="evenodd" stroke="none" d="M 44.664673 52.318085 C 39.373596 52.318085 35.147461 56.594574 35.147461 61.843719 C 35.147461 67.050964 39.415527 71.360962 44.664673 71.360962 C 46.266296 71.360962 47.783997 70.966858 49.117249 70.25412 C 50.4505 70.966858 51.917908 71.360962 53.561401 71.360962 C 58.810608 71.360962 63.036743 67.050964 63.036743 61.843719 C 63.036743 56.594574 58.768677 52.318085 53.561401 52.318085 C 51.917908 52.318085 50.4505 52.720581 49.117249 53.433319 C 47.783997 52.720581 46.266296 52.318085 44.664673 52.318085 Z"/>
    <path id="Path-copy-64" fill="none" stroke="#fdfdfd" stroke-width="8" stroke-linejoin="round" d="M 44.664673 52.318085 C 39.373596 52.318085 35.147461 56.594574 35.147461 61.843719 C 35.147461 67.050964 39.415527 71.360962 44.664673 71.360962 C 46.266296 71.360962 47.783997 70.966858 49.117249 70.25412 C 50.4505 70.966858 51.917908 71.360962 53.561401 71.360962 C 58.810608 71.360962 63.036743 67.050964 63.036743 61.843719 C 63.036743 56.594574 58.768677 52.318085 53.561401 52.318085 C 51.917908 52.318085 50.4505 52.720581 49.117249 53.433319 C 47.783997 52.720581 46.266296 52.318085 44.664673 52.318085 Z"/>
    <path id="Path-copy-63" fill="#fdfdfd" fill-rule="evenodd" stroke="none" d="M 35.231323 60.552429 C 35.189392 60.996857 35.147461 61.441254 35.147461 61.885681 C 35.147461 67.134827 39.373596 71.411316 44.664673 71.411316 C 46.266296 71.411316 47.783997 71.00882 49.117249 70.296082 C 50.4505 71.00882 51.917908 71.411316 53.561401 71.411316 C 58.768677 71.411316 63.036743 67.18515 63.036743 61.885681 C 63.036743 61.399323 62.994812 60.954926 62.952881 60.552429 C 62.332397 65.181091 58.324219 68.73642 53.561401 68.73642 C 51.917908 68.73642 50.4505 68.342316 49.117249 67.629578 C 47.783997 68.342316 46.266296 68.73642 44.664673 68.73642 C 39.859924 68.73642 35.9021 65.181091 35.231323 60.552429 Z"/>
    <path id="Path-copy-62" fill="none" stroke="#fdfdfd" stroke-width="8" stroke-linejoin="round" d="M 35.231323 60.552429 C 35.189392 60.996857 35.147461 61.441254 35.147461 61.885681 C 35.147461 67.134827 39.373596 71.411316 44.664673 71.411316 C 46.266296 71.411316 47.783997 71.00882 49.117249 70.296082 C 50.4505 71.00882 51.917908 71.411316 53.561401 71.411316 C 58.768677 71.411316 63.036743 67.18515 63.036743 61.885681 C 63.036743 61.399323 62.994812 60.954926 62.952881 60.552429 C 62.332397 65.181091 58.324219 68.73642 53.561401 68.73642 C 51.917908 68.73642 50.4505 68.342316 49.117249 67.629578 C 47.783997 68.342316 46.266296 68.73642 44.664673 68.73642 C 39.859924 68.73642 35.9021 65.181091 35.231323 60.552429 Z"/>
    <path id="Path-copy-61" fill="#fdfdfd" fill-rule="evenodd" stroke="none" d="M 49.058594 50.439789 C 48.379395 50.439789 47.691772 50.523651 47.020996 50.674591 C 46.979065 50.674591 46.937134 50.674591 46.84491 50.716492 C 44.756958 51.211243 44.086121 53.92804 45.729675 55.345154 C 46.358521 55.839874 47.071289 56.326233 48.044006 56.678406 C 48.337463 56.795807 48.672852 56.8461 48.999878 56.8461 C 49.335327 56.8461 49.670715 56.795807 49.964172 56.678406 C 50.93689 56.284302 51.649658 55.839874 52.270142 55.345154 C 53.963928 53.877747 53.251221 51.169312 51.071045 50.674591 L 51.029114 50.674591 C 50.40863 50.523651 49.737793 50.439789 49.058594 50.439789 Z"/>
    <path id="Path-copy-60" fill="none" stroke="#fdfdfd" stroke-width="8" stroke-linejoin="round" d="M 49.058594 50.439789 C 48.379395 50.439789 47.691772 50.523651 47.020996 50.674591 C 46.979065 50.674591 46.937134 50.674591 46.84491 50.716492 C 44.756958 51.211243 44.086121 53.92804 45.729675 55.345154 C 46.358521 55.839874 47.071289 56.326233 48.044006 56.678406 C 48.337463 56.795807 48.672852 56.8461 48.999878 56.8461 C 49.335327 56.8461 49.670715 56.795807 49.964172 56.678406 C 50.93689 56.284302 51.649658 55.839874 52.270142 55.345154 C 53.963928 53.877747 53.251221 51.169312 51.071045 50.674591 L 51.029114 50.674591 C 50.40863 50.523651 49.737793 50.439789 49.058594 50.439789 Z"/>
    <path id="Path-copy-59" fill="#fdfdfd" fill-rule="evenodd" stroke="none" d="M 44.974976 52.452271 L 44.974976 52.452271 C 44.706665 53.433319 44.933044 54.548553 45.821899 55.345154 C 46.442383 55.839905 47.155151 56.326233 48.094299 56.678406 C 48.404541 56.795807 48.739929 56.84613 49.066956 56.84613 C 49.402405 56.84613 49.737793 56.795807 50.048035 56.678406 C 50.987183 56.326233 51.691589 55.839905 52.320435 55.345154 C 53.20929 54.590485 53.427307 53.433319 53.167358 52.452271 L 53.167358 52.452271 C 52.98291 52.896667 52.714539 53.349487 52.320435 53.659729 C 51.691589 54.146088 50.987183 54.590485 50.048035 54.992981 C 49.737793 55.10199 49.402405 55.160675 49.066956 55.160675 C 48.739929 55.160675 48.404541 55.10199 48.094299 54.992981 C 47.155151 54.682739 46.442383 54.146088 45.821899 53.659729 C 45.377502 53.349487 45.159485 52.854736 44.974976 52.452271 Z"/>
    <path id="Path-copy-58" fill="none" stroke="#fdfdfd" stroke-width="8" stroke-linejoin="round" d="M 44.974976 52.452271 L 44.974976 52.452271 C 44.706665 53.433319 44.933044 54.548553 45.821899 55.345154 C 46.442383 55.839905 47.155151 56.326233 48.094299 56.678406 C 48.404541 56.795807 48.739929 56.84613 49.066956 56.84613 C 49.402405 56.84613 49.737793 56.795807 50.048035 56.678406 C 50.987183 56.326233 51.691589 55.839905 52.320435 55.345154 C 53.20929 54.590485 53.427307 53.433319 53.167358 52.452271 L 53.167358 52.452271 C 52.98291 52.896667 52.714539 53.349487 52.320435 53.659729 C 51.691589 54.146088 50.987183 54.590485 50.048035 54.992981 C 49.737793 55.10199 49.402405 55.160675 49.066956 55.160675 C 48.739929 55.160675 48.404541 55.10199 48.094299 54.992981 C 47.155151 54.682739 46.442383 54.146088 45.821899 53.659729 C 45.377502 53.349487 45.159485 52.854736 44.974976 52.452271 Z"/>
    <path id="Path-copy-57" fill="#fdfdfd" fill-rule="evenodd" stroke="none" d="M 49.159241 50.775208 C 48.656128 50.775208 48.161377 50.833893 47.649902 50.942902 L 47.557617 50.942902 C 47.205444 50.984833 46.937134 51.169312 46.710754 51.345398 C 46.132141 51.831726 46.132141 52.720581 46.710754 53.165009 C 47.155151 53.567474 47.691833 53.877747 48.36261 54.146057 C 48.580627 54.238312 48.840576 54.280243 49.092163 54.280243 C 49.352112 54.280243 49.603638 54.238312 49.830017 54.146057 C 50.492493 53.877747 51.029114 53.567474 51.473572 53.165009 C 52.052124 52.720581 52.052124 51.831726 51.473572 51.387329 C 51.247131 51.169312 50.987183 51.035156 50.718872 50.942902 L 50.668579 50.942902 C 50.157043 50.833893 49.662354 50.775208 49.159241 50.775208 Z"/>
    <path id="Path-copy-56" fill="none" stroke="#fdfdfd" stroke-width="8" stroke-linejoin="round" d="M 49.159241 50.775208 C 48.656128 50.775208 48.161377 50.833893 47.649902 50.942902 L 47.557617 50.942902 C 47.205444 50.984833 46.937134 51.169312 46.710754 51.345398 C 46.132141 51.831726 46.132141 52.720581 46.710754 53.165009 C 47.155151 53.567474 47.691833 53.877747 48.36261 54.146057 C 48.580627 54.238312 48.840576 54.280243 49.092163 54.280243 C 49.352112 54.280243 49.603638 54.238312 49.830017 54.146057 C 50.492493 53.877747 51.029114 53.567474 51.473572 53.165009 C 52.052124 52.720581 52.052124 51.831726 51.473572 51.387329 C 51.247131 51.169312 50.987183 51.035156 50.718872 50.942902 L 50.668579 50.942902 C 50.157043 50.833893 49.662354 50.775208 49.159241 50.775208 Z"/>
    <path id="Path-copy-55" fill="#fdfdfd" fill-rule="evenodd" stroke="none" d="M 63.439331 38.616547 C 61.393372 38.616547 59.699524 40.310364 59.699524 42.356384 L 59.699524 48.586609 C 59.699524 50.67453 61.393372 52.318024 63.439331 52.318024 L 66.374146 52.318024 C 68.470459 52.318024 70.114014 50.67453 70.114014 48.586609 L 70.114014 42.356384 C 70.114014 40.310364 68.470459 38.616547 66.374146 38.616547 Z"/>
    <path id="Path-copy-54" fill="none" stroke="#fdfdfd" stroke-width="8" stroke-linejoin="round" d="M 63.439331 38.616547 C 61.393372 38.616547 59.699524 40.310364 59.699524 42.356384 L 59.699524 48.586609 C 59.699524 50.67453 61.393372 52.318024 63.439331 52.318024 L 66.374146 52.318024 C 68.470459 52.318024 70.114014 50.67453 70.114014 48.586609 L 70.114014 42.356384 C 70.114014 40.310364 68.470459 38.616547 66.374146 38.616547 Z"/>
    <path id="Path-copy-53" fill="#fdfdfd" fill-rule="evenodd" stroke="none" d="M 69.527039 36.796967 C 69.501892 36.796967 69.476746 36.796967 69.443176 36.796967 C 67.137268 36.796967 65.17511 38.708801 65.17511 41.106964 C 65.17511 43.421295 67.045044 45.383423 69.443176 45.383423 C 71.8078 45.383423 73.719666 43.471588 73.719666 41.106964 C 73.719666 38.733948 71.891663 36.796967 69.527039 36.796967 Z"/>
    <path id="Path-copy-52" fill="none" stroke="#fdfdfd" stroke-width="8" stroke-linejoin="round" d="M 69.527039 36.796967 C 69.501892 36.796967 69.476746 36.796967 69.443176 36.796967 C 67.137268 36.796967 65.17511 38.708801 65.17511 41.106964 C 65.17511 43.421295 67.045044 45.383423 69.443176 45.383423 C 71.8078 45.383423 73.719666 43.471588 73.719666 41.106964 C 73.719666 38.733948 71.891663 36.796967 69.527039 36.796967 Z"/>
    <path id="Path-copy-51" fill="#fdfdfd" fill-rule="evenodd" stroke="none" d="M 33.235596 38.532715 C 30.342651 38.532715 28.028381 40.888947 28.028381 43.78186 L 28.028381 47.119202 C 28.028381 50.012085 30.342651 52.318024 33.235596 52.318024 C 36.120117 52.318024 38.484741 50.012085 38.484741 47.119202 L 38.484741 43.78186 C 38.484741 40.888947 36.120117 38.532715 33.235596 38.532715 Z"/>
    <path id="Path-copy-50" fill="none" stroke="#fdfdfd" stroke-width="8" stroke-linejoin="round" d="M 33.235596 38.532715 C 30.342651 38.532715 28.028381 40.888947 28.028381 43.78186 L 28.028381 47.119202 C 28.028381 50.012085 30.342651 52.318024 33.235596 52.318024 C 36.120117 52.318024 38.484741 50.012085 38.484741 47.119202 L 38.484741 43.78186 C 38.484741 40.888947 36.120117 38.532715 33.235596 38.532715 Z"/>
    <path id="Path-copy-49" fill="#fdfdfd" fill-rule="evenodd" stroke="none" d="M 28.690796 36.796967 C 26.334534 36.796967 24.422668 38.708801 24.422668 41.106964 C 24.422668 43.471588 26.334534 45.383423 28.690796 45.383423 C 31.05542 45.383423 32.967224 43.471588 32.967224 41.106964 C 32.967224 38.708801 31.05542 36.796967 28.690796 36.796967 Z"/>
    <path id="Path-copy-48" fill="none" stroke="#fdfdfd" stroke-width="8" stroke-linejoin="round" d="M 28.690796 36.796967 C 26.334534 36.796967 24.422668 38.708801 24.422668 41.106964 C 24.422668 43.471588 26.334534 45.383423 28.690796 45.383423 C 31.05542 45.383423 32.967224 43.471588 32.967224 41.106964 C 32.967224 38.708801 31.05542 36.796967 28.690796 36.796967 Z"/>
    <path id="Path-copy-47" fill="#fdfdfd" fill-rule="evenodd" stroke="none" d="M 75.220642 56.535889 C 74.264709 56.535889 73.3927 57.089294 73.048889 58.020081 C 72.604431 59.219147 73.224976 60.552399 74.382141 60.996826 C 78.7005 62.598419 82.079773 63.88974 84.704346 64.91272 C 87.865601 66.069885 90.045776 66.824554 91.471252 67.361237 C 91.513184 65.893799 91.420959 64.334167 91.068726 62.958984 L 90.93457 62.288147 C 89.198853 61.61734 87.018677 60.82074 84.704346 59.931915 C 81.945618 58.908905 78.968872 57.793671 76.075928 56.678436 C 75.790833 56.57782 75.505737 56.535889 75.220642 56.535889 Z"/>
    <path id="Path-copy-46" fill="none" stroke="#fdfdfd" stroke-width="8" stroke-linejoin="round" d="M 75.220642 56.535889 C 74.264709 56.535889 73.3927 57.089294 73.048889 58.020081 C 72.604431 59.219147 73.224976 60.552399 74.382141 60.996826 C 78.7005 62.598419 82.079773 63.88974 84.704346 64.91272 C 87.865601 66.069885 90.045776 66.824554 91.471252 67.361237 C 91.513184 65.893799 91.420959 64.334167 91.068726 62.958984 L 90.93457 62.288147 C 89.198853 61.61734 87.018677 60.82074 84.704346 59.931915 C 81.945618 58.908905 78.968872 57.793671 76.075928 56.678436 C 75.790833 56.57782 75.505737 56.535889 75.220642 56.535889 Z"/>
    <path id="Path-copy-45" fill="#fdfdfd" fill-rule="evenodd" stroke="none" d="M 71.958801 67.302582 C 70.994507 67.302582 70.105652 67.881165 69.761841 68.786743 C 69.317444 70.027771 69.937927 71.361023 71.095093 71.80545 C 73.543579 72.702667 75.673462 73.499268 77.543335 74.253937 C 81.7276 75.855499 84.620483 76.928833 86.61615 77.633179 C 87.823669 76.526337 88.796326 75.193085 89.601318 73.809509 C 87.731384 73.147095 84.972656 72.073761 81.769531 70.916595 C 78.876587 69.809753 75.765686 68.602295 72.780518 67.445129 C 72.512207 67.352875 72.227112 67.302582 71.958801 67.302582 Z"/>
    <path id="Path-copy-44" fill="none" stroke="#fdfdfd" stroke-width="8" stroke-linejoin="round" d="M 71.958801 67.302582 C 70.994507 67.302582 70.105652 67.881165 69.761841 68.786743 C 69.317444 70.027771 69.937927 71.361023 71.095093 71.80545 C 73.543579 72.702667 75.673462 73.499268 77.543335 74.253937 C 81.7276 75.855499 84.620483 76.928833 86.61615 77.633179 C 87.823669 76.526337 88.796326 75.193085 89.601318 73.809509 C 87.731384 73.147095 84.972656 72.073761 81.769531 70.916595 C 78.876587 69.809753 75.765686 68.602295 72.780518 67.445129 C 72.512207 67.352875 72.227112 67.302582 71.958801 67.302582 Z"/>
    <path id="Path-copy-43" fill="#fdfdfd" fill-rule="evenodd" stroke="none" d="M 22.871338 56.401733 C 22.603027 56.401733 22.326294 56.443634 22.066345 56.552643 C 19.173462 57.659515 16.238647 58.77475 13.437927 59.839661 C 11.123657 60.728485 8.943481 61.575409 7.207703 62.153992 L 7.031616 62.824799 C 6.671082 64.334137 6.62915 65.843506 6.671082 67.268982 C 8.138489 66.782654 10.276733 66.027985 13.437927 64.820496 C 16.104431 63.88974 19.441772 62.598419 23.709839 60.954895 C 24.908936 60.510498 25.537842 59.177246 25.093445 57.885895 C 24.674194 56.955139 23.785339 56.401733 22.871338 56.401733 Z"/>
    <path id="Path-copy-42" fill="none" stroke="#fdfdfd" stroke-width="8" stroke-linejoin="round" d="M 22.871338 56.401733 C 22.603027 56.401733 22.326294 56.443634 22.066345 56.552643 C 19.173462 57.659515 16.238647 58.77475 13.437927 59.839661 C 11.123657 60.728485 8.943481 61.575409 7.207703 62.153992 L 7.031616 62.824799 C 6.671082 64.334137 6.62915 65.843506 6.671082 67.268982 C 8.138489 66.782654 10.276733 66.027985 13.437927 64.820496 C 16.104431 63.88974 19.441772 62.598419 23.709839 60.954895 C 24.908936 60.510498 25.537842 59.177246 25.093445 57.885895 C 24.674194 56.955139 23.785339 56.401733 22.871338 56.401733 Z"/>
    <path id="Path-copy-41" fill="#fdfdfd" fill-rule="evenodd" stroke="none" d="M 26.208679 67.302582 C 25.940369 67.302582 25.663635 67.344482 25.403687 67.445129 C 22.376648 68.602295 19.215393 69.851685 16.372803 70.916595 C 13.253479 72.073761 10.45282 73.147095 8.582886 73.809509 C 9.387878 75.235016 10.318665 76.526337 11.568054 77.633179 C 13.563721 76.928833 16.456665 75.813599 20.640869 74.253937 C 22.468872 73.591492 24.556763 72.744598 27.005249 71.80545 C 28.162415 71.361023 28.782959 70.027771 28.380432 68.786743 C 28.003113 67.855988 27.122681 67.302582 26.208679 67.302582 Z"/>
    <path id="Path-copy-40" fill="none" stroke="#fdfdfd" stroke-width="8" stroke-linejoin="round" d="M 26.208679 67.302582 C 25.940369 67.302582 25.663635 67.344482 25.403687 67.445129 C 22.376648 68.602295 19.215393 69.851685 16.372803 70.916595 C 13.253479 72.073761 10.45282 73.147095 8.582886 73.809509 C 9.387878 75.235016 10.318665 76.526337 11.568054 77.633179 C 13.563721 76.928833 16.456665 75.813599 20.640869 74.253937 C 22.468872 73.591492 24.556763 72.744598 27.005249 71.80545 C 28.162415 71.361023 28.782959 70.027771 28.380432 68.786743 C 28.003113 67.855988 27.122681 67.302582 26.208679 67.302582 Z"/>
    <path id="Path-copy-39" fill="#fdfdfd" fill-rule="evenodd" stroke="none" d="M 22.871399 56.443634 C 22.603027 56.443634 22.326355 56.493958 22.066406 56.594574 C 19.173462 57.701416 16.238647 58.816681 13.437988 59.881592 C 13.119324 61.575409 13.119324 63.218903 13.437988 64.820496 C 16.104492 63.88974 19.441833 62.598419 23.7099 60.954895 C 24.908997 60.510498 25.537903 59.177246 25.093445 57.927826 C 24.674194 56.99707 23.785339 56.443634 22.871399 56.443634 Z"/>
    <path id="Path-copy-38" fill="none" stroke="#fdfdfd" stroke-width="8" stroke-linejoin="round" d="M 22.871399 56.443634 C 22.603027 56.443634 22.326355 56.493958 22.066406 56.594574 C 19.173462 57.701416 16.238647 58.816681 13.437988 59.881592 C 13.119324 61.575409 13.119324 63.218903 13.437988 64.820496 C 16.104492 63.88974 19.441833 62.598419 23.7099 60.954895 C 24.908997 60.510498 25.537903 59.177246 25.093445 57.927826 C 24.674194 56.99707 23.785339 56.443634 22.871399 56.443634 Z"/>
    <path id="Path-copy-37" fill="#fdfdfd" fill-rule="evenodd" stroke="none" d="M 26.13324 67.302582 C 25.873291 67.302582 25.613342 67.352875 25.353394 67.445129 C 22.334717 68.602295 19.173523 69.851685 16.32251 70.916595 C 16.993347 71.629364 17.747986 72.300171 18.502686 72.82843 C 19.173523 73.365112 19.844299 73.809509 20.548645 74.253937 C 22.418579 73.591492 24.514893 72.744598 26.955017 71.80545 C 28.204407 71.277161 28.741028 69.943909 28.296631 68.786743 C 27.944458 67.881165 27.055603 67.302582 26.13324 67.302582 Z"/>
    <path id="Path-copy-36" fill="none" stroke="#fdfdfd" stroke-width="8" stroke-linejoin="round" d="M 26.13324 67.302582 C 25.873291 67.302582 25.613342 67.352875 25.353394 67.445129 C 22.334717 68.602295 19.173523 69.851685 16.32251 70.916595 C 16.993347 71.629364 17.747986 72.300171 18.502686 72.82843 C 19.173523 73.365112 19.844299 73.809509 20.548645 74.253937 C 22.418579 73.591492 24.514893 72.744598 26.955017 71.80545 C 28.204407 71.277161 28.741028 69.943909 28.296631 68.786743 C 27.944458 67.881165 27.055603 67.302582 26.13324 67.302582 Z"/>
    <path id="Path-copy-35" fill="#fdfdfd" fill-rule="evenodd" stroke="none" d="M 71.958801 67.327728 C 71.053162 67.327728 70.181091 67.906311 69.803772 68.828674 C 69.359375 70.069702 69.937927 71.411346 71.137024 71.855743 C 73.58551 72.744598 75.673462 73.591492 77.585266 74.30423 C 78.298035 73.85144 78.968811 73.365112 79.631287 72.920685 C 80.436279 72.342102 81.190918 71.671265 81.811462 70.966919 C 78.926941 69.851685 75.807617 68.694519 72.780518 67.495422 C 72.512207 67.378052 72.235474 67.327728 71.958801 67.327728 Z"/>
    <path id="Path-copy-34" fill="none" stroke="#fdfdfd" stroke-width="8" stroke-linejoin="round" d="M 71.958801 67.327728 C 71.053162 67.327728 70.181091 67.906311 69.803772 68.828674 C 69.359375 70.069702 69.937927 71.411346 71.137024 71.855743 C 73.58551 72.744598 75.673462 73.591492 77.585266 74.30423 C 78.298035 73.85144 78.968811 73.365112 79.631287 72.920685 C 80.436279 72.342102 81.190918 71.671265 81.811462 70.966919 C 78.926941 69.851685 75.807617 68.694519 72.780518 67.495422 C 72.512207 67.378052 72.235474 67.327728 71.958801 67.327728 Z"/>
    <path id="Path-copy-33" fill="#fdfdfd" fill-rule="evenodd" stroke="none" d="M 75.245789 56.452026 C 74.281494 56.452026 73.401062 57.022217 73.048889 57.927826 C 72.604431 59.177246 73.224976 60.510498 74.382141 60.954895 C 78.7005 62.556488 82.079773 63.847809 84.704346 64.820496 C 85.014587 63.269226 85.014587 61.575409 84.704346 59.881592 C 81.945618 58.816681 78.968872 57.701416 76.075928 56.594574 C 75.799255 56.493958 75.522522 56.452026 75.245789 56.452026 Z"/>
    <path id="Path-copy-32" fill="none" stroke="#fdfdfd" stroke-width="8" stroke-linejoin="round" d="M 75.245789 56.452026 C 74.281494 56.452026 73.401062 57.022217 73.048889 57.927826 C 72.604431 59.177246 73.224976 60.510498 74.382141 60.954895 C 78.7005 62.556488 82.079773 63.847809 84.704346 64.820496 C 85.014587 63.269226 85.014587 61.575409 84.704346 59.881592 C 81.945618 58.816681 78.968872 57.701416 76.075928 56.594574 C 75.799255 56.493958 75.522522 56.452026 75.245789 56.452026 Z"/>
    <path id="Path-copy-31" fill="#f7e3bc" fill-rule="evenodd" stroke="none" d="M 11.189392 13.334961 C 9.847778 13.334961 8.648682 14.332794 8.497742 15.842163 C 8.137207 20.110229 8.137207 27.631805 11.742859 35.103027 C 11.742859 35.103027 12.011169 32.478455 13.478577 29.54364 C 14.769897 26.960968 16.992004 24.118378 20.639587 22.516785 C 20.639587 22.516785 18.325256 16.949005 12.589722 13.74585 C 12.363342 13.620056 12.145325 13.527832 11.918945 13.435577 C 11.67572 13.3685 11.424194 13.334961 11.189392 13.334961 Z"/>
    <path id="Path-copy-30" fill="#efc2b1" fill-rule="evenodd" stroke="none" d="M 11.918945 13.393646 C 11.877014 13.569763 11.835083 13.796143 11.835083 14.01416 C 11.474487 17.577881 11.432617 23.40564 13.478577 29.54364 C 14.769897 26.960968 16.992004 24.118378 20.639587 22.516785 C 20.639587 22.516785 18.325256 16.949005 12.589783 13.661987 C 12.363342 13.569763 12.145325 13.435577 11.918945 13.393646 Z"/>
    <path id="Path-copy-29" fill="#d3cac2" fill-rule="evenodd" stroke="none" d="M 82.749207 5.402496 C 81.843628 5.402496 80.912842 5.536652 79.990479 5.830139 C 66.77533 10.098236 56.81366 19.573547 56.81366 19.573547 C 83.411621 23.850006 87.864197 39.689728 87.906128 39.689728 C 92.845032 29.141113 92.761169 19.397461 91.553711 12.773132 C 90.790649 8.379242 86.975403 5.402496 82.749207 5.402496 Z"/>
    <path id="Path-copy-28" fill="#c2bbb6" fill-rule="evenodd" stroke="none" d="M 83.151794 5.385712 L 83.151794 5.385712 C 85.239746 6.677063 86.799377 8.764984 87.243835 11.43988 C 88.216492 17.217285 88.484802 25.451599 85.147522 34.524414 C 87.243835 37.551483 87.864319 39.689728 87.864319 39.689728 C 92.803223 29.099182 92.627136 19.397461 91.511902 12.773132 C 90.799133 8.496643 87.193481 5.561829 83.151794 5.385712 Z"/>
    <path id="Path-copy-27" fill="#dfd4cf" fill-rule="evenodd" stroke="none" d="M 81.273438 6.970551 C 80.90448 6.970551 80.527161 7.029236 80.166626 7.163391 C 76.96344 8.278625 70.288818 10.903229 66.112976 14.643036 C 66.112976 14.643036 71.09375 15.171295 74.959351 17.133453 C 75.345093 17.301147 75.764343 17.38501 76.16687 17.38501 C 76.938293 17.38501 77.68457 17.091522 78.21283 16.504547 C 79.319702 15.397705 80.971558 13.879974 82.749268 12.856964 C 84.308899 11.96814 84.837158 9.964081 83.906433 8.412811 L 83.856079 8.320557 C 83.277527 7.440125 82.288086 6.970551 81.273438 6.970551 Z"/>
    <path id="Path-copy-26" fill="#f7e3bc" fill-rule="evenodd" stroke="none" d="M 86.925171 13.334961 C 86.682007 13.334961 86.422058 13.3685 86.170471 13.435577 C 85.952454 13.527832 85.726074 13.620056 85.508057 13.74585 C 79.814453 16.949005 77.500122 22.516785 77.500122 22.516785 C 81.147705 24.118378 83.369812 26.960968 84.619202 29.54364 C 86.12854 32.478455 86.396851 35.103027 86.396851 35.103027 C 89.952209 27.631805 90.044434 20.110229 89.641968 15.842163 C 89.491028 14.332794 88.291931 13.334961 86.925171 13.334961 Z"/>
    <path id="Path-copy-25" fill="#efc2b1" fill-rule="evenodd" stroke="none" d="M 86.170471 13.393646 C 85.952454 13.435577 85.726074 13.569763 85.508057 13.661987 C 79.814453 16.949005 77.500122 22.516785 77.500122 22.516785 C 81.147705 24.118378 83.369812 26.960968 84.619202 29.54364 C 86.707153 23.40564 86.614868 17.577881 86.304626 14.01416 C 86.304626 13.796143 86.262695 13.569763 86.170471 13.393646 Z"/>
    <path id="Path-copy-24" fill="#d3cac2" fill-rule="evenodd" stroke="none" d="M 15.432312 5.402496 C 11.206177 5.402496 7.390869 8.379242 6.627808 12.773132 C 5.428711 19.397461 5.336487 29.141113 10.275391 39.689728 C 10.275391 39.689728 14.719604 23.850006 41.376221 19.573547 C 41.376221 19.573547 31.406189 10.098236 18.19104 5.830139 C 17.268677 5.536652 16.337952 5.402496 15.432312 5.402496 Z"/>
    <path id="Path-copy-23" fill="#c2bbb6" fill-rule="evenodd" stroke="none" d="M 14.987915 5.385712 L 14.987915 5.385712 C 10.937866 5.561829 7.340576 8.496643 6.627808 12.773132 C 5.512573 19.397461 5.336487 29.099182 10.275391 39.689728 C 10.275391 39.689728 10.895935 37.551483 12.983826 34.524414 C 9.654907 25.451599 9.872925 17.217285 10.895935 11.43988 C 11.340332 8.764984 12.899963 6.677063 14.987915 5.385712 Z"/>
    <path id="Path-copy-22" fill="#dfd4cf" fill-rule="evenodd" stroke="none" d="M 16.866211 6.970551 C 15.851624 6.970551 14.862183 7.440125 14.275208 8.320557 L 14.233276 8.412811 C 13.30249 9.964081 13.83075 11.96814 15.390442 12.856964 C 17.168091 13.879974 18.769653 15.397705 19.884888 16.504547 C 20.438354 17.091522 21.192993 17.38501 21.964478 17.38501 C 22.375305 17.38501 22.786194 17.301147 23.171936 17.133453 C 27.003967 15.171295 32.026733 14.643036 32.026733 14.643036 C 27.850891 10.903229 21.17627 8.278625 17.973083 7.163391 C 17.612488 7.029236 17.235168 6.970551 16.866211 6.970551 Z"/>
    <path id="Path-copy-21" fill="#f7e3bc" fill-rule="evenodd" stroke="none" d="M 11.189392 13.334961 C 9.847778 13.334961 8.648682 14.332794 8.497742 15.842163 C 8.137207 20.110229 8.137207 27.631805 11.742859 35.103027 C 11.742859 35.103027 12.011169 32.478455 13.478577 29.54364 C 14.769897 26.960968 16.992004 24.118378 20.639587 22.516785 C 20.639587 22.516785 18.325256 16.949005 12.589722 13.74585 C 12.363342 13.620056 12.145325 13.527832 11.918945 13.435577 C 11.67572 13.3685 11.424194 13.334961 11.189392 13.334961 Z"/>
    <path id="Path-copy-20" fill="#efc2b1" fill-rule="evenodd" stroke="none" d="M 11.918945 13.393646 C 11.877014 13.569763 11.835083 13.796143 11.835083 14.01416 C 11.474487 17.577881 11.432617 23.40564 13.478577 29.54364 C 14.769897 26.960968 16.992004 24.118378 20.639587 22.516785 C 20.639587 22.516785 18.325256 16.949005 12.589783 13.661987 C 12.363342 13.569763 12.145325 13.435577 11.918945 13.393646 Z"/>
    <path id="Path-copy-19" fill="#d3cac2" fill-rule="evenodd" stroke="none" d="M 49.115845 14.643066 C 36.479248 14.643066 27.406433 17.527588 21.310364 20.730743 C 13.520508 24.873047 8.539673 32.746796 8.179077 41.559662 C 7.826904 49.651428 9.73877 55.479156 9.73877 55.479156 C 8.497742 57.927643 7.650818 60.552246 7.114197 62.908478 C 5.739014 68.920715 8.002991 75.192871 12.983826 78.790131 C 19.39856 83.418762 28.513306 86.487762 35.99292 88.315765 C 40.286194 89.405823 44.696777 89.950867 49.115845 89.950867 C 53.543213 89.950867 57.970642 89.405823 62.28064 88.315765 C 69.709961 86.403931 78.833069 83.418762 85.239441 78.790131 C 90.178345 75.192871 92.492676 68.920715 91.067139 62.908478 C 90.530518 60.552246 89.733887 57.927643 88.484497 55.479156 C 88.484497 55.479156 90.354431 49.651428 90.044189 41.559662 C 89.641663 32.746796 84.702759 24.873047 76.921265 20.730743 C 70.783264 17.527588 61.702087 14.643066 49.115845 14.643066 Z"/>
    <path id="Path-copy-18" fill="#ded9ce" fill-rule="evenodd" stroke="none" d="M 49.023621 18.684753 C 38.349182 18.684753 30.693481 21.13327 25.486267 23.850067 C 18.94574 27.27124 14.769897 34.038147 14.459656 41.425537 C 14.141052 48.318207 15.700684 53.215179 15.700684 53.215179 C 14.677673 55.261169 14.015259 57.483246 13.478577 59.437012 C 12.321411 64.510071 14.275208 69.851471 18.459412 72.920471 C 23.842773 76.794464 31.582336 79.368713 37.854492 80.970306 C 41.502075 81.884308 45.241882 82.34549 48.981689 82.34549 C 52.713135 82.34549 56.452942 81.884308 60.100525 80.970306 C 66.464905 79.419037 74.120605 76.794464 79.503967 72.920471 C 83.855896 69.851471 85.725769 64.510071 84.568604 59.437012 C 84.124207 57.441345 83.411438 55.261169 82.346558 53.215179 C 82.346558 53.215179 83.94812 48.276276 83.637878 41.425537 C 83.285706 33.945892 79.143372 27.27124 72.560974 23.850067 C 67.395691 21.13327 59.697998 18.684753 49.023621 18.684753 Z"/>
    <path id="Path-copy-17" fill="#ffffff" fill-rule="evenodd" stroke="none" d="M 44.663391 52.318085 C 39.372314 52.318085 35.146118 56.594574 35.146118 61.843719 C 35.146118 67.050964 39.414246 71.360962 44.663391 71.360962 C 46.264954 71.360962 47.782715 70.966858 49.115967 70.25412 C 50.449219 70.966858 51.916626 71.360962 53.56012 71.360962 C 58.809265 71.360962 63.035461 67.050964 63.035461 61.843719 C 63.035461 56.594574 58.767334 52.318085 53.56012 52.318085 C 51.916626 52.318085 50.449219 52.720581 49.115967 53.433319 C 47.782715 52.720581 46.264954 52.318085 44.663391 52.318085 Z"/>
    <path id="Path-copy-16" fill="#ece7de" fill-rule="evenodd" stroke="none" d="M 35.22998 60.552429 C 35.188049 60.996857 35.146118 61.441254 35.146118 61.885681 C 35.146118 67.134827 39.372314 71.411316 44.663391 71.411316 C 46.264954 71.411316 47.782715 71.00882 49.115967 70.296082 C 50.449219 71.00882 51.916626 71.411316 53.56012 71.411316 C 58.767334 71.411316 63.035461 67.18515 63.035461 61.885681 C 63.035461 61.399323 62.99353 60.954926 62.951599 60.552429 C 62.331055 65.181091 58.322937 68.73642 53.56012 68.73642 C 51.916626 68.73642 50.449219 68.342316 49.115967 67.629578 C 47.782715 68.342316 46.264954 68.73642 44.663391 68.73642 C 39.858643 68.73642 35.900818 65.181091 35.22998 60.552429 Z"/>
    <path id="Path-copy-15" fill="#5e5c52" fill-rule="evenodd" stroke="none" d="M 49.057312 50.439789 C 48.378052 50.439789 47.690491 50.523651 47.019653 50.674591 C 46.977722 50.674591 46.935791 50.674591 46.843567 50.716492 C 44.755676 51.211243 44.084839 53.92804 45.728333 55.345154 C 46.357239 55.839874 47.070007 56.326233 48.042664 56.678406 C 48.336182 56.795807 48.67157 56.8461 48.998596 56.8461 C 49.333984 56.8461 49.669434 56.795807 49.962891 56.678406 C 50.935547 56.284302 51.648315 55.839874 52.268799 55.345154 C 53.962646 53.877747 53.249878 51.169312 51.069763 50.674591 L 51.027832 50.674591 C 50.407288 50.523651 49.736511 50.439789 49.057312 50.439789 Z"/>
    <path id="Path-copy-14" fill="#504e46" fill-rule="evenodd" stroke="none" d="M 44.973694 52.452271 L 44.973694 52.452271 C 44.705322 53.433319 44.931763 54.548553 45.820557 55.345154 C 46.441101 55.839905 47.153809 56.326233 48.092957 56.678406 C 48.403259 56.795807 48.738647 56.84613 49.065674 56.84613 C 49.401062 56.84613 49.736511 56.795807 50.046753 56.678406 C 50.985901 56.326233 51.690247 55.839905 52.319153 55.345154 C 53.208008 54.590485 53.425964 53.433319 53.166077 52.452271 L 53.166077 52.452271 C 52.981567 52.896667 52.713257 53.349487 52.319153 53.659729 C 51.690247 54.146088 50.985901 54.590485 50.046753 54.992981 C 49.736511 55.10199 49.401062 55.160675 49.065674 55.160675 C 48.738647 55.160675 48.403259 55.10199 48.092957 54.992981 C 47.153809 54.682739 46.441101 54.146088 45.820557 53.659729 C 45.37616 53.349487 45.158142 52.854736 44.973694 52.452271 Z"/>
    <path id="Path-copy-13" fill="#64655c" fill-rule="evenodd" stroke="none" d="M 49.157898 50.775208 C 48.654785 50.775208 48.160095 50.833893 47.64856 50.942902 L 47.556335 50.942902 C 47.204163 50.984833 46.935852 51.169312 46.709412 51.345398 C 46.130859 51.831726 46.130859 52.720581 46.709412 53.165009 C 47.15387 53.567474 47.690491 53.877747 48.361328 54.146057 C 48.579346 54.238312 48.839294 54.280243 49.09082 54.280243 C 49.350769 54.280243 49.602356 54.238312 49.828735 54.146057 C 50.49115 53.877747 51.027832 53.567474 51.472229 53.165009 C 52.050842 52.720581 52.050842 51.831726 51.472229 51.387329 C 51.24585 51.169312 50.985901 51.035156 50.71759 50.942902 L 50.667236 50.942902 C 50.155762 50.833893 49.661011 50.775208 49.157898 50.775208 Z"/>
    <path id="Path-copy-12" fill="#504e46" fill-rule="evenodd" stroke="none" d="M 63.438049 38.616547 C 61.392029 38.616547 59.698242 40.310364 59.698242 42.356384 L 59.698242 48.586609 C 59.698242 50.67453 61.392029 52.318024 63.438049 52.318024 L 66.372864 52.318024 C 68.469177 52.318024 70.112671 50.67453 70.112671 48.586609 L 70.112671 42.356384 C 70.112671 40.310364 68.469177 38.616547 66.372864 38.616547 Z"/>
    <path id="Path-copy-11" fill="#ffffff" fill-rule="evenodd" stroke="none" d="M 69.525757 36.796967 C 69.500549 36.796967 69.475403 36.796967 69.441895 36.796967 C 67.135925 36.796967 65.173767 38.708801 65.173767 41.106964 C 65.173767 43.421295 67.043701 45.383423 69.441895 45.383423 C 71.806519 45.383423 73.718323 43.471588 73.718323 41.106964 C 73.718323 38.733948 71.890381 36.796967 69.525757 36.796967 Z"/>
    <path id="Path-copy-10" fill="#504e46" fill-rule="evenodd" stroke="none" d="M 33.234253 38.532715 C 30.34137 38.532715 28.027039 40.888947 28.027039 43.78186 L 28.027039 47.119202 C 28.027039 50.012085 30.34137 52.318024 33.234253 52.318024 C 36.118774 52.318024 38.483459 50.012085 38.483459 47.119202 L 38.483459 43.78186 C 38.483459 40.888947 36.118774 38.532715 33.234253 38.532715 Z"/>
    <path id="Path-copy-9" fill="#ffffff" fill-rule="evenodd" stroke="none" d="M 28.689453 36.796967 C 26.333191 36.796967 24.421387 38.708801 24.421387 41.106964 C 24.421387 43.471588 26.333191 45.383423 28.689453 45.383423 C 31.054077 45.383423 32.965942 43.471588 32.965942 41.106964 C 32.965942 38.708801 31.054077 36.796967 28.689453 36.796967 Z"/>
    <path id="Path-copy-8" fill="#a19fab" fill-rule="evenodd" stroke="none" d="M 75.21936 56.535889 C 74.263428 56.535889 73.391357 57.089294 73.047546 58.020081 C 72.603149 59.219147 73.223633 60.552399 74.380798 60.996826 C 78.699219 62.598419 82.078491 63.88974 84.703064 64.91272 C 87.864258 66.069885 90.044434 66.824554 91.46991 67.361237 C 91.511841 65.893799 91.419617 64.334167 91.067444 62.958984 L 90.933289 62.288147 C 89.19751 61.61734 87.017395 60.82074 84.703064 59.931915 C 81.944275 58.908905 78.967529 57.793671 76.074646 56.678436 C 75.789551 56.57782 75.504456 56.535889 75.21936 56.535889 Z"/>
    <path id="Path-copy-7" fill="#a19fab" fill-rule="evenodd" stroke="none" d="M 71.957458 67.302582 C 70.993164 67.302582 70.104309 67.881165 69.760559 68.786743 C 69.316101 70.027771 69.936646 71.361023 71.093811 71.80545 C 73.542297 72.702667 75.672119 73.499268 77.542053 74.253937 C 81.726257 75.855499 84.619202 76.928833 86.614868 77.633179 C 87.822327 76.526337 88.795044 75.193085 89.600037 73.809509 C 87.730103 73.147095 84.971375 72.073761 81.768188 70.916595 C 78.875305 69.809753 75.764343 68.602295 72.779236 67.445129 C 72.510864 67.352875 72.225769 67.302582 71.957458 67.302582 Z"/>
    <path id="Path-copy-6" fill="#a19fab" fill-rule="evenodd" stroke="none" d="M 22.870056 56.401733 C 22.601685 56.401733 22.325012 56.443634 22.065063 56.552643 C 19.172119 57.659515 16.237305 58.77475 13.436646 59.839661 C 11.122314 60.728485 8.942139 61.575409 7.206421 62.153992 L 7.030334 62.824799 C 6.669739 64.334137 6.627808 65.843506 6.669739 67.268982 C 8.137146 66.782654 10.275391 66.027985 13.436646 64.820496 C 16.103149 63.88974 19.440491 62.598419 23.708557 60.954895 C 24.907654 60.510498 25.53656 59.177246 25.092102 57.885895 C 24.672852 56.955139 23.783997 56.401733 22.870056 56.401733 Z"/>
    <path id="Path-copy-5" fill="#a19fab" fill-rule="evenodd" stroke="none" d="M 26.207336 67.302582 C 25.939026 67.302582 25.662354 67.344482 25.402405 67.445129 C 22.375305 68.602295 19.21405 69.851685 16.37146 70.916595 C 13.252197 72.073761 10.451477 73.147095 8.581604 73.809509 C 9.386597 75.235016 10.317322 76.526337 11.566772 77.633179 C 13.562439 76.928833 16.455322 75.813599 20.639587 74.253937 C 22.467529 73.591492 24.555481 72.744598 27.003967 71.80545 C 28.161133 71.361023 28.781616 70.027771 28.37915 68.786743 C 28.001831 67.855988 27.121338 67.302582 26.207336 67.302582 Z"/>
    <path id="Path-copy-4" fill="#adabb5" fill-rule="evenodd" stroke="none" d="M 22.870056 56.443634 C 22.601746 56.443634 22.325012 56.493958 22.065063 56.594574 C 19.17218 57.701416 16.237366 58.816681 13.436646 59.881592 C 13.118042 61.575409 13.118042 63.218903 13.436646 64.820496 C 16.103149 63.88974 19.440491 62.598419 23.708557 60.954895 C 24.907654 60.510498 25.53656 59.177246 25.092163 57.927826 C 24.672913 56.99707 23.784058 56.443634 22.870056 56.443634 Z"/>
    <path id="Path-copy-3" fill="#adabb5" fill-rule="evenodd" stroke="none" d="M 26.131958 67.302582 C 25.872009 67.302582 25.612061 67.352875 25.352112 67.445129 C 22.333435 68.602295 19.17218 69.851685 16.321228 70.916595 C 16.992004 71.629364 17.746704 72.300171 18.501343 72.82843 C 19.17218 73.365112 19.843018 73.809509 20.547363 74.253937 C 22.417297 73.591492 24.51355 72.744598 26.953674 71.80545 C 28.203064 71.277161 28.739746 69.943909 28.295349 68.786743 C 27.943115 67.881165 27.054321 67.302582 26.131958 67.302582 Z"/>
    <path id="Path-copy-2" fill="#adabb5" fill-rule="evenodd" stroke="none" d="M 71.957458 67.327728 C 71.05188 67.327728 70.17981 67.906311 69.80249 68.828674 C 69.358032 70.069702 69.936646 71.411346 71.135742 71.855743 C 73.584229 72.744598 75.672119 73.591492 77.583984 74.30423 C 78.296692 73.85144 78.967529 73.365112 79.629944 72.920685 C 80.434937 72.342102 81.189636 71.671265 81.81012 70.966919 C 78.925598 69.851685 75.806274 68.694519 72.779236 67.495422 C 72.510864 67.378052 72.234192 67.327728 71.957458 67.327728 Z"/>
    <path id="Path-copy" fill="#adabb5" fill-rule="evenodd" stroke="none" d="M 75.244507 56.452026 C 74.280212 56.452026 73.399719 57.022217 73.047546 57.927826 C 72.603149 59.177246 73.223633 60.510498 74.380798 60.954895 C 78.699219 62.556488 82.078491 63.847809 84.703064 64.820496 C 85.013306 63.269226 85.013306 61.575409 84.703064 59.881592 C 81.944275 58.816681 78.967529 57.701416 76.074646 56.594574 C 75.797913 56.493958 75.521179 56.452026 75.244507 56.452026 Z"/>
</svg>
