<?xml version="1.0" encoding="UTF-8"?>
<!-- Generated by Pixelmator Pro 3.4.1 -->
<svg width="89" height="104" viewBox="0 0 89 104" xmlns="http://www.w3.org/2000/svg">
    <path id="Path-copy-14" fill="#c9c2c2" fill-rule="evenodd" stroke="none" d="M 7.252617 1.877136 C 6.66272 1.877136 6.063316 1.962769 5.482933 2.153015 C 3.266068 2.914185 1.743759 5.083496 1.144348 7.252777 C 0.487854 9.526733 0.535423 11.895813 0.68766 14.217346 C 1.144348 25.177979 1.648613 36.129089 2.048225 47.0802 C 2.248024 52.284607 2.657143 57.831512 5.739822 61.979797 C 6.795929 63.435516 8.108917 64.653381 9.269676 66.013916 C 12.495071 70.048035 13.560692 75.357117 14.826111 80.39975 C 16.082016 85.451935 17.899277 90.703888 22.095139 93.777039 C 22.095139 93.777039 26.233917 99.381042 40.058395 101.750153 L 45.966858 101.750153 C 45.966858 101.750153 52.731613 100.846283 64.596115 93.777039 C 69.039368 91.151062 70.599731 85.451935 71.865158 80.39975 C 73.130569 75.357117 74.186676 70.048035 77.421585 66.013916 C 78.582336 64.653381 79.89534 63.435516 80.951431 61.979797 C 84.034119 57.831512 84.433716 52.284607 84.63353 47.0802 C 85.042648 36.129089 85.546906 25.177979 86.003601 14.217346 C 86.155838 11.895813 86.2034 9.479156 85.546906 7.252777 C 84.937988 4.978821 83.425186 2.914185 81.208328 2.153015 C 80.618439 1.962769 80.028534 1.877136 79.429123 1.877136 C 77.079056 1.877136 74.719482 3.247192 73.025909 4.978821 C 70.856613 7.2052 69.343826 9.926331 67.222107 12.048035 C 65.357269 13.922394 63.178467 15.225891 61.266068 16.995544 C 55.252945 22.75177 54.244415 31.885651 49.905838 38.954895 L 48.640411 38.907288 C 46.832672 38.545746 44.948807 38.422058 43.236221 38.422058 C 39.649277 38.422058 36.785431 38.954895 36.785431 38.954895 C 32.437332 31.885651 31.428802 22.75177 25.425186 16.995544 C 23.607941 15.225891 21.333984 13.865295 19.469147 12.048035 C 17.347427 9.926331 15.834641 7.2052 13.665344 4.978821 C 11.971779 3.247192 9.602684 1.877136 7.252617 1.877136 Z"/>
    <path id="Path-copy-13" fill="#fff3f3" fill-rule="evenodd" stroke="none" d="M 7.442909 2.095947 C 11.343826 2.095947 14.483589 6.310852 16.643372 9.174683 C 20.525253 14.122192 26.176834 16.995544 29.259506 22.599548 C 32.189957 27.899109 33.502945 33.912231 36.576111 39.107117 C 36.680771 39.259338 36.785431 39.259338 36.832993 39.259338 C 38.574142 38.964386 40.286743 38.859741 41.989822 38.859741 C 44.62532 38.859741 47.241791 39.107117 49.905838 39.259338 C 50.05806 39.259338 50.134186 39.135651 50.134186 39.011963 L 50.134186 39.011963 C 52.845795 34.483093 54.20636 29.402374 56.413712 24.616638 C 57.526901 22.142883 58.887466 19.773773 60.76181 17.80426 C 62.978668 15.482758 65.861542 13.922394 68.0784 11.496216 C 69.89566 9.479156 71.208649 7.100525 73.178146 5.188141 C 74.957336 3.456512 77.25032 2.352844 79.419617 2.352844 C 81.474731 2.352844 83.434708 3.351868 84.73819 5.73999 C 86.450775 8.974884 85.794281 13.161255 85.699142 16.595947 C 85.546906 20.078247 85.394684 23.455872 85.242447 26.938141 C 84.937988 33.807556 84.690613 40.619904 84.386154 47.536896 C 84.233917 50.419769 84.034119 53.397766 83.272964 56.223572 C 82.264435 60.105469 80.095139 62.427002 77.573807 65.404999 C 70.504593 73.787231 73.530182 88.020813 63.330704 94.081512 C 58.135818 97.211761 51.171249 101.302979 44.853668 101.398102 C 44.568237 101.407623 44.263779 101.407623 43.968826 101.407623 C 36.823486 101.407623 28.878937 99.628418 23.351044 94.738007 C 21.134186 92.768524 19.060028 90.703888 17.651901 88.020813 C 14.968826 82.721283 14.521645 76.765259 12.352356 71.2659 C 10.230637 65.757019 4.978668 62.427002 3.408783 56.727844 C 1.648613 50.619568 2.105309 43.702576 1.848419 37.337402 C 1.496384 29.668762 1.144348 21.990631 0.887459 14.217346 C 0.735229 10.278381 0.640083 4.883667 4.778862 2.761963 C 5.701767 2.295746 6.586609 2.095947 7.442909 2.095947 Z M 7.18602 1.772461 C 5.520988 1.772461 3.903534 2.428955 2.55249 4.027374 C 0.992119 5.939758 0.535423 8.31839 0.430771 10.735046 C 0.230965 15.08316 0.68766 19.573975 0.887459 23.960144 C 1.239494 32.294769 1.448814 40.724548 1.953079 49.106781 C 2.152878 52.084778 2.400253 55.062805 3.361214 57.888611 C 4.426834 60.961761 6.396317 63.035889 8.460953 65.462097 C 13.76049 71.570374 13.608261 79.895477 16.786087 87.012299 C 21.020004 96.621857 31.961609 101.949951 42.42749 101.949951 C 45.719482 101.949951 48.954391 101.426666 51.922897 100.34201 C 54.349075 99.485718 56.623032 98.477173 58.887466 97.316406 C 61.817902 95.794098 65.252625 94.385986 67.469482 91.807556 C 71.313309 87.421417 72.01738 80.904022 73.530182 75.509338 C 74.643372 71.313477 76.203735 67.935852 79.134186 64.700928 C 81.208328 62.379395 82.920929 60.105469 83.777222 56.97522 C 85.794281 50.058228 85.19487 42.189758 85.499344 35.0159 C 85.699142 30.525085 85.898941 26.129395 86.051178 21.638611 C 86.250977 17.347595 87.012131 12.704529 86.2034 8.518188 C 85.394684 4.493591 82.664032 2.000793 79.391068 2.000793 C 77.935364 2.000793 76.384506 2.495544 74.84317 3.570679 C 71.865158 5.587769 70.304779 8.822662 67.878601 11.448639 C 65.252625 14.274414 61.77034 16.091675 59.401245 19.117279 C 54.815277 24.940125 53.625977 32.485046 50.010498 38.793121 L 50.010498 38.793121 C 49.981949 38.774109 49.943893 38.764587 49.905838 38.755066 C 47.527222 38.612366 45.281815 38.241272 42.836609 38.241272 C 42.693893 38.241272 42.541656 38.250793 42.379913 38.250793 C 40.971771 38.29837 39.506561 38.345947 38.088898 38.555267 C 37.708328 38.602844 37.47998 38.650391 37.318237 38.650391 C 37.023285 38.650391 36.95668 38.50769 36.528534 38.050995 C 34.454391 35.92926 33.550522 31.486023 32.494415 28.707825 C 31.381226 25.882019 30.220459 22.951599 28.498352 20.38269 C 26.985565 18.108765 25.168304 16.33905 23.046585 14.721619 C 19.564301 12.000488 17.395004 8.822662 14.569221 5.635315 C 12.666328 3.485046 9.869087 1.772461 7.18602 1.772461 Z"/>
    <path id="Path-copy-12" fill="#b7a4a4" fill-rule="evenodd" stroke="none" d="M 43.141068 85.195038 L 32.541992 94.585785 C 32.998688 95.641876 33.902557 96.555267 34.96817 97.011963 C 35.320206 97.211761 35.76738 97.259338 36.176498 97.516235 C 36.728333 97.972931 37.032806 98.629425 37.441925 99.285919 C 37.793961 99.885315 38.345795 100.389587 38.954712 100.846283 C 40.144028 101.94043 41.561676 103.12973 43.12204 103.12973 C 43.207672 103.12973 43.302811 103.12973 43.397964 103.120239 C 43.426498 103.120239 43.464554 103.120239 43.502625 103.120239 C 45.177155 103.120239 46.651901 101.978485 47.888779 100.846283 C 48.440613 100.34201 48.94487 99.837738 49.401566 99.285919 C 49.801178 98.629425 50.05806 97.972931 50.666992 97.516235 C 51.066589 97.259338 51.475708 97.107117 51.87532 97.011963 C 52.931427 96.555267 53.844803 95.641876 54.244415 94.585785 L 43.141068 85.195038 Z"/>
    <path id="Path-copy-11" fill="#e2d5d5" fill-rule="evenodd" stroke="none" d="M 43.112534 85.451935 C 45.700455 87.687805 48.38353 89.923706 50.961929 92.159607 C 51.475708 92.521149 53.89238 94.033936 53.939957 94.69043 C 54.092178 95.794098 50.714554 96.954865 49.905838 97.763611 C 48.088577 99.580872 47.432083 101.398102 44.75853 102.35907 C 44.130569 102.577911 43.559708 102.673035 43.036407 102.673035 C 40.201111 102.673035 38.754913 99.78067 36.832993 97.820679 C 36.176498 97.107117 35.472427 96.859741 34.663712 96.29837 C 34.007217 95.94635 32.637131 95.346924 32.894028 94.48111 C 32.941589 94.281311 33.246063 94.233734 33.293625 94.081512 C 33.702744 93.472595 34.75885 92.816101 35.320206 92.311829 C 37.917648 90.056915 40.467514 87.754425 43.112534 85.451935 Z M 43.103012 84.957184 C 43.055435 84.957184 43.01738 84.966675 42.988846 84.995239 C 39.458984 88.173035 35.919617 91.255737 32.389755 94.433533 C 32.285095 94.48111 32.285095 94.585785 32.285095 94.738007 C 33.398285 96.755066 35.672241 97.820679 37.185028 99.485718 C 38.80249 101.24588 40.71489 103.424683 43.293304 103.424683 C 45.567245 103.424683 47.784119 101.550354 49.097107 99.885315 C 50.666992 97.972931 53.140747 96.954865 54.349075 94.738007 C 54.396652 94.69043 54.396652 94.538208 54.244415 94.433533 C 50.609909 91.255737 46.927811 88.173035 43.293304 84.995239 C 43.245728 84.966675 43.198151 84.957184 43.150589 84.957184 C 43.141068 84.957184 43.131561 84.957184 43.131561 84.957184 L 43.131561 84.957184 C 43.12204 84.957184 43.112534 84.957184 43.103012 84.957184 Z"/>
    <path id="Path-copy-10" fill="#bca0a0" fill-rule="evenodd" stroke="none" d="M 9.088905 7.776062 C 8.774925 7.776062 8.470467 7.823639 8.156487 7.909271 C 6.795929 8.261292 5.882538 9.526733 5.435364 10.839722 C 5.026237 12.200287 5.026237 13.665497 5.130898 15.026062 C 5.435364 23.103821 6.034767 31.229156 5.787392 39.41156 C 5.635162 43.445679 5.226044 47.536896 5.882538 51.523438 C 6.491463 55.567078 8.213577 59.506042 11.486542 61.922729 L 12.295273 59.00177 C 13.408455 53.902039 17.195206 49.401733 22.095139 47.536896 C 25.016068 46.328552 28.403214 46.071655 31.228989 44.606445 C 31.780838 44.35907 32.285095 44.054626 32.589554 43.550354 C 33.246063 42.741638 33.198486 41.533264 32.789368 40.572327 C 32.437332 39.658936 31.780838 38.802643 31.228989 37.94635 C 27.946518 32.694366 28.250977 25.425354 23.959961 21.039185 C 21.68602 18.660583 18.403534 17.499817 16.338898 14.978516 C 15.121063 13.513275 14.369415 11.59137 13.151566 10.078552 C 12.190613 8.860718 10.649269 7.776062 9.088905 7.776062 Z"/>
    <path id="Path-copy-9" fill="#e2d5d5" fill-rule="evenodd" stroke="none" d="M 7.499992 8.413513 C 9.165016 8.765564 10.734901 9.174683 12.352356 9.479156 C 14.369415 10.887268 15.121063 14.017517 16.84317 15.787231 C 18.460617 17.452271 20.57283 18.508362 22.342514 19.878418 C 26.890411 23.512939 27.394684 29.059875 29.211929 34.159607 C 29.916 36.129089 31.476364 37.794128 32.132874 39.716034 C 34.054779 45.47226 26.890411 45.624512 23.550842 46.633026 C 19.821182 47.793762 16.643372 50.058228 14.464561 53.293121 C 12.799538 55.79541 12.085953 58.687805 11.258194 61.494568 L 11.258194 61.494568 C 6.596123 57.546082 5.682739 51.437805 5.739822 45.519836 C 5.787392 39.41156 6.139427 33.407959 5.882538 27.299683 C 5.739822 24.017212 5.530502 20.782288 5.435364 17.499817 C 5.378273 15.98703 5.178474 14.474243 5.283127 12.961426 C 5.283127 11.144165 5.987198 9.631378 7.499992 8.413513 Z M 9.060364 7.500153 C 6.748352 7.500153 5.235558 9.659912 4.874008 11.895813 C 4.426834 14.674011 4.874008 17.756714 4.978668 20.534912 C 5.130898 23.560516 5.283127 26.643188 5.435364 29.668762 C 5.682739 36.48114 4.67421 43.502777 5.435364 50.315125 C 5.939629 54.853516 7.557083 59.144501 11.239166 62.027374 C 11.315285 62.093994 11.400909 62.122528 11.477028 62.122528 C 11.657799 62.122528 11.762459 61.941742 11.619743 61.799011 L 11.619743 61.799011 C 12.761475 58.193054 13.57972 54.634644 16.234253 51.780334 C 20.173218 47.337097 25.320526 47.337097 30.372696 45.215393 C 33.702744 43.750153 33.702744 41.476196 31.93306 38.650391 C 29.411743 34.46405 28.755249 29.916138 26.985565 25.529999 C 25.225388 21.134338 22.142715 19.374146 18.603333 16.691101 C 15.530182 14.274414 14.112526 8.461121 9.973747 7.604797 C 9.659767 7.538208 9.355309 7.500153 9.060364 7.500153 Z"/>
    <path id="Path-copy-8" fill="#bca0a0" fill-rule="evenodd" stroke="none" d="M 77.630905 7.776062 C 76.032471 7.776062 74.491135 8.860718 73.482605 10.078552 C 72.321838 11.59137 71.560684 13.513275 70.352356 14.978516 C 68.278214 17.499817 64.995728 18.660583 62.731293 21.039185 C 58.440277 25.425354 58.744751 32.694366 55.462265 37.94635 C 54.900909 38.802643 54.244415 39.658936 53.89238 40.572327 C 53.492783 41.533264 53.435684 42.741638 54.092178 43.550354 C 54.396652 44.054626 54.900909 44.35907 55.462265 44.606445 C 58.288055 46.071655 61.66568 46.328552 64.596115 47.536896 C 69.438965 49.401733 73.225708 53.902039 74.386475 59.00177 L 75.195206 61.922729 C 78.477676 59.506042 80.190277 55.567078 80.846771 51.523438 C 81.455704 47.536896 81.103668 43.445679 80.90387 39.41156 C 80.646973 31.229156 81.255905 23.103821 81.607941 15.026062 C 81.655502 13.665497 81.655502 12.200287 81.255905 10.839722 C 80.846771 9.526733 79.89534 8.261292 78.582336 7.909271 C 78.25885 7.823639 77.94487 7.776062 77.630905 7.776062 Z"/>
    <path id="Path-copy-7" fill="#e2d5d5" fill-rule="evenodd" stroke="none" d="M 77.412064 8.365967 C 79.467178 8.365967 81.027557 10.325928 81.255905 13.161255 C 81.408127 14.674011 81.208328 16.186829 81.151245 17.699646 C 80.999008 20.734741 80.79921 23.807892 80.704056 26.843018 C 80.447174 32.951263 80.646973 39.002441 80.751633 45.063141 C 80.894348 51.152374 80.076111 57.574646 75.242783 61.684875 L 75.242783 61.684875 C 73.140091 55.119904 70.685364 49.5159 63.540024 47.0802 C 60.200455 45.976532 52.484253 45.82428 54.453735 39.963409 C 55.005569 38.203247 56.518372 36.633362 57.174866 34.863647 C 59.096771 29.621216 59.496384 23.86499 64.244095 20.125793 C 66.013779 18.717651 68.125977 17.699646 69.695862 16.034607 C 71.360886 14.426636 72.064957 12.15271 73.634842 10.430603 C 74.94783 8.993896 76.260818 8.365967 77.412064 8.365967 Z M 77.440613 7.538208 C 74.605301 7.538208 72.711929 10.754089 71.408463 12.856781 C 68.839554 17.147766 63.739822 18.613007 61.009186 22.799377 C 58.687653 26.338745 58.230957 30.677307 56.71817 34.663879 C 55.814301 37.04248 51.77066 41.076599 53.740158 43.854797 C 54.957993 45.567383 57.93602 46.071655 59.753281 46.575928 C 63.083328 47.489319 66.308716 48.345642 68.934708 50.77179 C 72.416992 53.844971 73.577744 57.888611 74.890747 62.179626 C 74.919281 62.303284 75.014435 62.360382 75.109573 62.360382 C 75.233261 62.360382 75.356949 62.27475 75.36647 62.113007 L 75.36647 62.113007 C 83.52034 55.548035 80.951431 43.750153 80.999008 34.616272 C 81.103668 28.460449 81.455704 22.39975 81.712585 16.291504 C 81.807739 13.465698 82.159775 8.718018 78.582336 7.709473 C 78.182739 7.595276 77.802155 7.538208 77.440613 7.538208 Z"/>
    <path id="Path-copy-6" fill="#efe4e4" fill-rule="evenodd" stroke="none" d="M 42.74147 45.567383 C 38.088898 46.024109 33.502945 46.927979 29.364166 48.849884 C 25.168304 50.714722 21.381561 53.844971 19.117126 57.888611 C 16.890747 61.922729 16.338898 67.022461 18.308395 71.218323 C 19.516724 73.834778 21.590866 76.013611 23.607941 78.125793 C 24.159775 78.782288 24.711609 79.391235 25.120728 80.152374 C 26.433716 82.921082 24.61647 86.260651 25.320526 89.286224 C 25.824799 91.560181 27.746719 93.272797 29.916 94.033936 C 29.916 94.033936 30.772308 94.186157 31.895004 94.186157 C 32.361221 94.186157 32.875 94.157623 33.398285 94.081512 C 37.689301 93.529663 41.780502 90.903687 43.293304 86.860046 L 43.397964 86.860046 C 44.910751 90.951263 49.04953 93.529663 53.292969 94.081512 C 53.825775 94.157623 54.339554 94.186157 54.815277 94.186157 C 55.937988 94.186157 56.775253 94.033936 56.775253 94.033936 C 58.992126 93.272797 60.856949 91.560181 61.418304 89.286224 C 62.074799 86.260651 60.257538 82.921082 61.570526 80.152374 C 61.970139 79.391235 62.521973 78.782288 63.083328 78.125793 C 65.100388 76.013611 67.117447 73.834778 68.382874 71.218323 C 70.304779 66.974884 69.791 61.922729 67.574142 57.888611 C 65.357269 53.844971 61.570526 50.819366 57.374664 48.849884 C 53.188309 46.880402 48.592834 46.024109 43.997375 45.567383 Z"/>
    <path id="Path-copy-5" fill="#efe4e4" fill-rule="evenodd" stroke="none" d="M 43.103012 45.95752 C 48.269348 45.95752 53.454712 47.156311 58.031158 49.458801 C 63.283127 52.132385 67.773941 56.670746 68.991791 62.531647 C 70.304779 69.24884 66.717834 73.539856 62.579056 78.230469 C 58.94455 82.416809 63.330704 88.173035 59.496384 92.064453 C 58.069214 93.520172 56.318558 94.119568 54.491791 94.119568 C 50.039032 94.119568 45.158127 90.504089 43.550186 86.707825 C 43.531158 86.631714 43.474075 86.593658 43.407471 86.593658 C 43.350388 86.593658 43.283783 86.622192 43.2267 86.669769 L 43.2267 86.669769 C 43.207672 86.660248 43.188644 86.660248 43.160095 86.660248 C 43.103012 86.660248 43.055435 86.688782 43.036407 86.764923 C 41.352356 90.779999 36.718826 94.129089 32.189957 94.129089 C 31.419281 94.129089 30.658127 94.033936 29.916 93.824615 C 22.447174 91.807556 27.442245 84.690765 25.225388 80.095306 C 24.51181 78.582489 23.103668 77.421753 21.990479 76.156311 C 19.916336 73.891876 18.156158 71.361023 17.547241 68.335449 C 16.234253 61.7229 19.868759 55.367279 25.120728 51.580536 C 30.334641 47.784271 36.709305 45.95752 43.103012 45.95752 Z M 43.474075 45.434204 C 37.50853 45.434204 31.542969 46.994568 26.585953 50.058228 C 21.68602 53.036255 17.804123 57.688782 16.938309 63.492615 C 16.586273 66.166138 16.890747 68.839722 18.051498 71.313477 C 19.412064 74.33905 21.942902 76.308533 23.912399 78.93454 C 26.63353 82.626129 23.703079 86.412872 25.225388 90.247192 C 25.97702 92.216675 27.898941 93.929291 29.963577 94.338409 C 30.686676 94.500153 31.419281 94.585785 32.151901 94.585785 C 36.775909 94.585785 41.447495 91.388916 43.283783 87.278687 L 43.283783 87.278687 C 45.329391 91.721924 50.020004 94.443054 54.872375 94.443054 C 55.005569 94.443054 55.129257 94.443054 55.252945 94.433533 C 60.152878 94.233734 62.074799 89.895172 61.570526 85.604156 C 61.266068 82.97818 60.961609 81.160919 62.67421 78.886963 C 63.587585 77.621521 64.853012 76.56543 65.861542 75.357117 C 67.831024 73.035583 69.286743 70.504761 69.648285 67.479156 C 70.399933 61.675354 67.621719 56.118896 63.283127 52.379761 C 57.869415 47.717651 50.676498 45.434204 43.474075 45.434204 Z"/>
    <path id="Path-copy-4" fill="#ffb0ae" fill-rule="evenodd" stroke="none" d="M 43.616791 79.847931 C 42.541656 79.847931 41.476044 79.895477 41.371384 79.895477 C 41.228668 79.866943 41.076431 79.847931 40.92421 79.847931 C 40.048874 79.847931 39.192581 80.342682 38.80249 81.160919 C 38.650253 81.408295 38.602676 81.712738 38.650253 81.969635 C 38.850052 82.673706 39.81102 82.825928 40.362854 83.225555 C 41.580704 84.138916 41.219147 86.260651 42.53215 86.917145 L 43.949799 86.917145 C 45.310364 86.355804 45.005905 84.138916 46.119095 83.225555 C 46.670929 82.825928 47.631882 82.673706 47.841202 81.969635 C 47.888779 81.665161 47.841202 81.408295 47.688965 81.160919 C 47.279846 80.199951 46.119095 79.943054 45.110565 79.895477 C 44.691925 79.866943 44.149597 79.847931 43.616791 79.847931 Z"/>
    <path id="Path-copy-3" fill="#ffb0ae" fill-rule="evenodd" stroke="none" d="M 42.379913 80.304596 C 43.340866 80.304596 44.254257 80.304596 45.110565 80.352173 C 45.129593 80.352173 45.139099 80.352173 45.158127 80.352173 C 45.224731 80.352173 45.291336 80.342682 45.338898 80.323639 L 45.338898 80.323639 C 45.376968 80.314117 45.415024 80.314117 45.453079 80.314117 C 46.042969 80.314117 46.375977 80.685181 46.375977 81.408295 C 46.927811 82.064789 46.927811 82.416809 46.318893 82.569031 C 46.318893 82.626129 45.614822 83.073303 45.567245 83.130402 C 45.262787 83.482422 45.062988 83.939117 44.910751 84.386292 C 44.606293 85.34726 44.558716 86.155975 43.493103 86.355804 C 43.397964 86.374817 43.302811 86.384338 43.217178 86.384338 C 42.436996 86.384338 42.199142 85.7659 41.875656 84.947662 C 41.732941 84.338745 41.523621 83.68222 41.124008 83.177979 C 41.019348 82.97818 40.867126 82.873505 40.71489 82.721283 C 39.963242 82.121857 39.763443 82.721283 40.267715 81.313141 C 40.591202 80.390228 40.467514 80.304596 40.867126 80.304596 C 40.962265 80.304596 41.085953 80.304596 41.257217 80.304596 C 41.352356 80.304596 41.457016 80.304596 41.580704 80.304596 Z M 42.53215 79.258026 C 40.648285 79.258026 38.631226 79.610046 38.298218 81.360718 C 37.993759 82.921082 39.81102 82.97818 40.515091 83.986694 C 41.219147 84.995239 41.019348 86.764923 42.332336 87.269165 C 42.712921 87.402374 43.045929 87.459473 43.33136 87.459473 C 45.234253 87.459473 45.234253 84.823975 46.375977 83.68222 C 47.184708 82.873505 48.640411 82.673706 48.193237 81.160919 C 47.803146 79.904999 46.452087 79.571991 45.234253 79.410248 L 45.234253 79.410248 C 45.196182 79.400726 45.158127 79.391235 45.110565 79.391235 C 44.463577 79.35318 43.521652 79.258026 42.53215 79.258026 Z"/>
    <path id="Path-copy-2" fill="#51412e" fill-rule="evenodd" stroke="none" d="M 26.937988 63.996887 C 25.168304 63.996887 23.807739 65.462097 23.807739 67.127136 L 23.807739 68.183228 C 23.807739 69.952911 25.225388 71.313477 26.937988 71.313477 C 28.650589 71.313477 30.02066 69.952911 30.115814 68.183228 L 30.115814 67.127136 C 30.115814 65.357422 28.650589 63.996887 26.937988 63.996887 Z"/>
    <path id="Path-copy" fill="#51412e" fill-rule="evenodd" stroke="none" d="M 59.696182 63.996887 C 57.93602 63.996887 56.518372 65.462097 56.518372 67.127136 L 56.518372 68.183228 C 56.518372 69.952911 57.983597 71.313477 59.696182 71.313477 C 61.465866 71.313477 62.826431 69.952911 62.826431 68.183228 L 62.826431 67.127136 C 62.826431 65.357422 61.418304 63.996887 59.696182 63.996887 Z"/>
</svg>
