<?xml version="1.0" encoding="UTF-8"?>
<!-- Generated by Pixelmator Pro 3.4.1 -->
<svg width="130" height="98" viewBox="0 0 130 98" xmlns="http://www.w3.org/2000/svg">
    <path id="Path-copy-19" fill="#af6a31" fill-rule="evenodd" stroke="none" d="M 5.928833 12.018799 C 4.717468 12.018799 3.541687 12.244446 2.579712 12.921387 C 1.320801 13.812134 0.691345 15.320435 0.441956 16.828735 C 0.06189 19.477173 0.750732 22.256226 1.641479 24.833405 C 4.159241 32.018616 8.256592 38.574371 13.541626 43.98999 L 16.760071 47.457916 L 23.125854 38.134949 L 26.59375 19.358398 C 21.047485 15.70047 14.741089 13.242065 8.256592 12.232574 C 7.508423 12.1138 6.712708 12.018799 5.928833 12.018799 Z"/>
    <path id="Path-copy-18" fill="#af6a31" fill-rule="evenodd" stroke="none" d="M 6.688904 12.52948 C 8.506042 12.52948 10.429993 12.909515 12.033325 13.301453 C 15.180542 14.120911 18.339661 15.189789 21.237488 16.638702 C 22.42511 17.208771 25.964294 18.467651 26.213684 19.548401 C 26.59375 21.187347 25.263611 24.643372 24.954773 26.353577 C 24.254089 30.260895 24.254089 35.486511 22.116333 38.954407 C 20.608032 41.412842 18.707825 43.49118 17.258911 46.008972 C 17.211426 46.104004 16.91449 46.650299 16.712585 46.935333 L 16.712585 46.935333 C 16.676941 46.887848 16.617554 46.828461 16.510681 46.769073 C 15.560608 46.258392 14.551086 44.619446 13.731628 43.740601 C 13.719727 43.704956 13.684143 43.681213 13.660339 43.669342 L 13.660339 43.669342 C 9.40863 39.203827 5.845703 34.132599 3.339783 28.360687 C 1.950256 25.21344 0.501343 21.62677 0.631958 18.158875 C 0.750732 13.717102 3.541687 12.52948 6.688904 12.52948 Z M 6.023865 11.733765 C 3.957336 11.733765 2.057129 12.351318 0.940735 14.500946 C -1.387024 18.847717 1.130798 24.584015 2.900391 28.681335 C 5.40625 34.441406 8.957336 39.583862 13.268433 44.037506 L 13.268433 44.037506 C 13.292175 44.061249 13.315918 44.096893 13.351563 44.120636 C 13.351563 44.120636 13.351563 44.120636 13.351563 44.120636 L 13.351563 44.120636 C 13.363464 44.132507 13.375305 44.144409 13.387207 44.156281 L 13.387207 44.156281 C 14.444214 45.332031 15.513062 46.460297 16.570068 47.588531 C 16.653198 47.65979 16.736328 47.695435 16.819458 47.695435 C 16.938232 47.695435 17.033264 47.636047 17.068909 47.517273 C 19.408508 44.120636 23.066467 40.522095 23.75531 36.424744 C 24.764771 30.759705 25.893005 25.082794 26.902527 19.28714 C 26.902527 19.168365 26.902527 19.097107 26.783752 18.978363 C 21.486877 15.70047 15.75061 13.242065 9.634277 12.173187 C 8.458496 11.935669 7.211487 11.733765 6.023865 11.733765 Z"/>
    <path id="Path-copy-17" fill="#af6a31" fill-rule="evenodd" stroke="none" d="M 121.284119 12.018799 C 120.500244 12.018799 119.716431 12.1138 118.968201 12.232574 C 112.471802 13.242065 106.177368 15.70047 100.631104 19.358398 L 98.612122 26.032928 L 105.286621 39.892639 L 110.714111 45.628937 L 113.730713 43.98999 C 118.968201 38.574371 123.065552 32.018616 125.583374 24.833405 C 126.462219 22.256226 127.162903 19.477173 126.782837 16.828735 C 126.533447 15.320435 125.892151 13.812134 124.63324 12.921387 C 123.683105 12.244446 122.495483 12.018799 121.284119 12.018799 Z"/>
    <path id="Path-copy-16" fill="#af6a31" fill-rule="evenodd" stroke="none" d="M 120.096436 12.422577 C 122.994324 12.481964 126.402832 15.071014 126.462219 18.158875 C 126.652222 21.62677 125.143921 25.344086 123.695007 28.360687 C 121.177185 34.156372 117.638062 39.263214 113.291321 43.740601 C 113.291321 43.776215 113.291321 43.811859 113.291321 43.859375 L 113.291321 43.859375 C 112.602478 44.286926 111.129822 45.32016 110.737854 45.32016 C 110.726013 45.32016 110.726013 45.32016 110.714111 45.32016 C 110.464722 45.32016 109.19397 43.681213 108.885132 43.360565 C 107.554993 42.042267 106.177368 40.65274 105.227234 39.073181 C 103.837708 36.994812 102.899475 34.47702 101.830566 32.149261 C 101.011108 30.510315 99.051514 27.921265 98.802124 26.032928 C 98.742737 24.96405 100.001648 20.997345 100.69043 19.797821 C 101.569336 18.408295 104.977844 17.149384 106.486145 16.389313 C 109.19397 15.130402 112.163025 14.120911 115.120239 13.372711 C 116.569153 12.921387 118.647522 12.422577 120.096436 12.422577 Z M 120.96344 11.69812 C 118.029968 11.69812 114.728333 12.838257 112.543091 13.491455 C 109.134583 14.500946 102.27002 16.519928 100.310425 19.477173 C 99.562195 20.736053 98.172668 24.71463 98.422058 26.163544 C 98.671448 28.360687 100.93988 31.448547 101.949341 33.408142 C 103.01825 35.545898 103.837708 38.06369 105.227234 40.023285 C 106.61676 42.161041 108.885132 43.930634 110.642883 45.81897 C 110.714111 45.878357 110.904114 45.878357 111.022888 45.878357 C 111.818604 45.332031 112.804382 44.773834 113.778198 44.286926 L 113.778198 44.286926 C 113.813843 44.275024 113.837585 44.263153 113.861389 44.23941 L 113.861389 44.23941 C 113.861389 44.23941 113.861389 44.23941 113.861389 44.23941 C 113.885132 44.227539 113.908875 44.203766 113.920715 44.180023 L 113.920715 44.180023 C 118.564392 39.275085 122.317322 33.693176 124.894531 27.541229 C 126.462219 23.633881 128.920593 17.339417 125.773376 13.562714 C 124.585754 12.173187 122.851807 11.69812 120.96344 11.69812 Z"/>
    <path id="Path-copy-15" fill="#51412e" fill-rule="evenodd" stroke="none" d="M 73.31543 2.078278 C 73.256042 2.078278 73.208496 2.090149 73.161011 2.090149 C 72.210876 2.149536 71.391418 2.778961 70.57196 3.159027 C 69.81189 3.479675 69.123047 3.729095 68.434204 3.847839 C 69.621826 6.816925 71.581482 9.584137 74.099243 11.543732 C 76.248901 13.182678 78.636047 14.3703 81.035034 15.70047 C 83.683472 17.280029 86.320068 19.097107 89.289124 19.667175 C 89.787964 19.750305 90.298645 19.78595 90.809326 19.78595 C 93.232117 19.78595 95.702393 18.942719 97.733215 17.588806 C 98.362671 17.208771 98.932739 16.709961 99.43158 16.270538 C 99.43158 15.94986 99.372192 15.70047 99.241516 15.45108 C 98.742737 14.631592 97.792603 14.192169 96.85437 13.812134 C 95.583618 13.242065 94.26532 12.743256 93.00647 12.173187 C 93.944702 11.353729 93.635864 9.714783 92.685791 8.835938 C 91.747559 7.94519 90.488647 7.826416 89.229736 7.565155 C 87.709595 7.315735 86.201294 7.125732 84.621704 6.876312 C 84.241699 6.816925 83.873535 6.745667 83.612244 6.496277 C 82.864014 5.676819 83.802246 4.037872 82.923401 3.408417 C 82.733398 3.2659 82.555237 3.206512 82.353333 3.206512 C 82.222717 3.206512 82.068298 3.230286 81.913879 3.289642 L 79.894897 3.34903 C 78.57666 3.59845 77.187134 3.788452 75.797546 4.037872 L 75.48877 4.037872 C 75.358154 3.978485 75.358154 3.788452 75.358154 3.59845 C 75.120605 2.588959 74.206116 2.078278 73.31543 2.078278 Z"/>
    <path id="Path-copy-14" fill="#51412e" fill-rule="evenodd" stroke="none" d="M 73.244141 2.707703 C 74.206116 2.707703 75.120605 3.075867 75.48877 4.037872 C 75.607544 4.227875 75.678833 4.299133 75.797546 4.299133 C 75.928223 4.299133 76.046997 4.311035 76.16571 4.311035 C 77.614685 4.311035 79.075439 3.669708 80.524353 3.669708 C 80.940063 3.669708 81.260681 3.622192 81.557617 3.622192 C 82.198914 3.622192 82.650269 3.812225 83.303467 4.987976 C 83.42218 5.237366 83.172791 5.676819 83.303467 5.997467 C 83.992249 6.876312 83.42218 6.567535 84.312927 7.125732 C 85.500549 7.885803 95.84491 7.755157 93.00647 12.173187 C 92.875793 12.291962 93.00647 12.481964 93.065796 12.553223 C 94.01593 12.921387 96.153687 13.491455 96.913757 14.192169 C 97.733215 14.821625 98.612122 16.270538 97.733215 17.45816 C 97.032532 18.467651 94.26532 19.168365 93.065796 19.358398 C 92.495789 19.465271 91.913818 19.512787 91.34375 19.512787 C 89.882935 19.512787 88.42218 19.180237 87.020752 18.598297 C 82.674011 16.959351 78.006592 14.061523 74.348633 11.294342 C 72.780945 9.964172 70.441345 8.016449 69.81189 5.866821 C 69.372437 4.299133 69.81189 4.109131 70.892639 3.408417 C 71.474548 2.992737 72.377197 2.707703 73.244141 2.707703 Z M 73.552917 1.757599 C 71.830872 1.757599 69.883118 3.230286 68.493591 3.669708 C 68.303589 3.669708 68.244202 3.919098 68.244202 4.037872 C 69.503113 7.066345 71.260803 9.584137 73.897339 11.78125 L 73.897339 11.78125 C 73.909241 11.78125 73.909241 11.793152 73.909241 11.793152 C 76.427002 13.681488 79.265503 15.011627 81.973267 16.638702 C 84.051636 17.909485 86.141907 19.227753 88.58844 19.797821 C 89.395996 19.975952 90.179871 20.070984 90.963684 20.070984 C 94.170349 20.070984 97.163147 18.598297 99.752197 16.519928 C 99.811584 16.389313 99.811584 16.329926 99.811584 16.19928 C 99.300903 14.441559 98.113281 14.002136 96.474365 13.372711 C 95.334229 12.86203 94.395996 12.743256 93.825928 11.603119 C 93.695251 11.353729 93.825928 10.094818 93.635864 9.655396 C 93.065796 8.455872 91.806946 8.016449 90.607422 7.695801 C 89.289124 7.256378 87.709595 7.446381 86.391296 6.935699 C 86.225037 6.959442 86.058777 6.971344 85.91626 6.971344 C 84.740479 6.971344 84.016052 6.330017 83.742859 4.987976 L 83.742859 4.037872 C 83.030273 3.2659 82.341431 3.040253 81.617004 3.040253 C 80.548096 3.040253 79.431763 3.539063 78.149109 3.539063 C 77.899719 3.539063 77.638428 3.51532 77.377136 3.479675 C 76.925842 3.408417 76.545776 3.34903 76.225098 3.313416 L 76.225098 3.313416 C 76.700195 3.277771 76.807068 3.087769 75.358154 2.470184 C 75.049377 2.339539 74.728699 2.030762 74.419922 1.900116 C 74.134888 1.793243 73.849854 1.757599 73.552917 1.757599 Z"/>
    <path id="Path-copy-13" fill="#51412e" fill-rule="evenodd" stroke="none" d="M 53.398743 2.007019 C 52.519897 2.007019 51.593506 2.505829 51.474731 3.479675 C 51.474731 3.669708 51.415344 3.788452 51.284729 3.978485 C 51.260986 4.014099 51.21344 4.026001 51.154114 4.026001 C 51.106567 4.026001 51.035339 4.014099 50.975952 3.978485 C 49.657654 3.729095 48.268127 3.479675 46.937988 3.289642 L 45.120911 3.159027 C 44.800232 3.159027 44.420166 3.159027 44.040161 3.34903 C 43.220642 3.978485 44.170776 5.617432 43.351318 6.43689 C 43.101929 6.626923 42.721863 6.745667 42.341797 6.816925 C 40.833496 7.066345 39.313354 7.256378 37.745667 7.505768 C 36.486755 7.695801 35.227844 7.885803 34.277771 8.764679 C 33.327637 9.655396 33.01886 11.294342 34.02832 12.101929 C 32.698181 12.61261 31.379944 13.182678 30.121033 13.740875 C 29.301575 14.120911 28.35144 14.500946 27.781372 15.379822 C 27.282593 16.270538 27.531982 17.529419 28.482056 17.778839 C 26.522461 18.728943 25.01416 20.427277 24.325378 22.505646 C 24.135315 23.004456 24.0047 23.633881 23.75531 24.203949 C 23.375244 25.023438 22.745789 25.652863 22.17572 26.353577 C 19.33728 29.750214 17.959595 33.97821 16.570068 38.134949 C 16.439453 38.574371 16.261292 39.013794 16.439453 39.512604 C 16.510681 39.892639 16.819458 40.272705 16.890747 40.65274 C 17.330139 41.911621 16 43.051758 14.931152 43.681213 C 13.731628 44.310669 12.41333 44.868866 12.033325 46.139618 C 11.783875 46.959106 12.033325 47.897339 11.843262 48.776184 C 11.653259 49.916321 10.584351 50.735779 10.584351 51.864044 C 10.584351 52.125336 10.584351 52.24408 10.715027 52.4935 C 11.106934 52.540985 11.510742 52.564758 11.902649 52.564758 C 14.978638 52.564758 18.018982 51.317719 20.477417 49.476898 C 23.695923 47.137238 26.154297 43.930634 28.731506 40.842773 C 30.121033 39.203827 31.688721 37.505493 33.76709 36.876038 C 34.669678 36.602905 35.596008 36.519745 36.510498 36.519745 C 36.878662 36.519745 37.246826 36.543518 37.61499 36.555389 C 38.565125 36.555389 39.574646 36.686035 40.453491 36.994812 C 42.662476 37.754913 43.79071 40.213318 44.930847 42.161041 C 45.999756 43.835602 47.721802 45.545807 49.562622 45.545807 C 49.883301 45.545807 50.203979 45.48642 50.536499 45.379547 C 52.923645 44.619446 53.374939 41.531586 55.192078 39.833282 C 56.391541 38.705017 58.161133 38.253723 59.099365 36.876038 C 60.239502 35.427124 59.918823 33.348755 60.298889 31.519806 C 60.868958 28.681335 62.887939 26.472351 64.776306 24.263336 C 66.605225 22.066223 68.303589 19.417786 68.054199 16.579315 C 67.804749 14.441559 66.474609 12.61261 65.405762 10.724274 C 64.265625 8.515259 63.576782 6.116241 63.38678 3.669708 L 62.317871 3.669708 C 61.581543 3.871582 60.821472 3.978485 60.0495 3.978485 C 58.754944 3.978485 57.448547 3.693451 56.272827 3.09964 C 55.38208 2.719574 54.562622 2.090149 53.683777 2.030762 C 53.588745 2.007019 53.493713 2.007019 53.398743 2.007019 Z"/>
    <path id="Path-copy-12" fill="#51412e" fill-rule="evenodd" stroke="none" d="M 17.08075 38.087433 L 17.08075 38.087433 C 17.08075 38.099304 17.08075 38.111206 17.068909 38.134949 C 17.08075 38.111206 17.08075 38.099304 17.08075 38.087433 Z M 53.600647 2.68396 C 55.29895 2.68396 57.496094 3.895355 58.659973 4.109131 C 58.88562 4.156616 59.158752 4.168518 59.455688 4.168518 C 60.132629 4.168518 60.963989 4.085358 61.664673 4.085358 C 62.294128 4.085358 62.828552 4.156616 63.077942 4.417908 C 64.016174 5.427399 64.016174 8.384613 64.64563 9.714783 C 65.405762 11.603119 67.104065 13.432068 67.484131 15.379822 C 68.742981 21.62677 62.816711 24.584015 60.619568 29.619598 C 60.180115 30.819092 60.0495 32.018616 59.859497 33.158752 C 58.909363 37.624268 57.341675 37.374847 55.013916 39.583862 C 54.063782 40.522095 53.553101 41.721619 52.804932 42.73111 C 52.37738 43.835602 51.724182 44.417542 50.797791 44.417542 C 50.334595 44.417542 49.812073 44.286926 49.20636 43.98999 C 48.766907 44.120636 48.363159 44.180023 47.983093 44.180023 C 47.032959 44.180023 46.320374 43.764343 45.86908 42.861755 C 45.120911 42.161041 44.740845 41.15155 44.111389 40.213318 C 42.591248 37.814301 41.082947 36.496002 38.244446 36.246613 C 37.900024 36.210968 37.555664 36.199097 37.223083 36.199097 C 29.218445 36.199097 25.904907 44.619446 20.156738 49.156219 C 20.109253 49.227478 20.08551 49.310608 20.08551 49.381866 L 20.08551 49.381866 C 19.004761 50.094452 18.030884 50.628906 16.819458 51.175201 C 16.24939 51.388977 13.838501 52.398468 12.627136 52.398468 C 12.365845 52.398468 12.152039 52.362854 12.033325 52.24408 C 11.593872 51.935303 12.033325 48.277374 12.353943 47.457916 C 13.292175 44.999481 14.931152 44.619446 16.510681 42.921143 C 17.068909 42.291687 17.199524 41.852264 17.389526 41.032776 C 17.437073 40.819 17.318298 37.600525 17.175781 37.600525 C 17.175781 37.600525 17.163879 37.600525 17.163879 37.612396 L 17.163879 37.612396 C 17.330139 36.971069 17.66272 36.246613 17.959595 35.617157 C 18.779053 33.158752 19.717285 30.759705 21.16626 28.55072 C 22.116333 27.042419 23.505859 25.842896 24.325378 24.203949 C 25.584229 21.686157 26.273071 19.417786 28.862122 17.968872 C 29.052124 17.909485 29.052124 17.588806 28.862122 17.529419 L 29.610352 14.441559 C 30.049744 14.192169 30.619812 13.930878 31.059265 13.740875 C 32.199402 13.242065 33.208862 12.86203 34.337158 12.422577 C 34.467773 12.291962 34.467773 12.101929 34.408386 11.983154 C 31.569946 7.755157 41.332336 7.695801 42.53186 7.196991 C 44.420166 6.306244 43.03064 7.256378 43.980774 5.93808 C 44.135132 5.831207 44.337036 4.797943 44.147034 4.797943 C 44.111389 4.797943 44.052002 4.833588 43.980774 4.928589 C 44.550842 3.847839 45.3703 3.669708 46.308533 3.59845 C 46.486694 3.574677 46.664795 3.562805 46.831055 3.562805 C 48.161255 3.562805 49.491394 4.251648 50.821533 4.251648 C 50.96405 4.251648 51.094727 4.251648 51.225342 4.227875 C 51.415344 4.227875 51.474731 4.109131 51.546021 3.978485 C 51.949829 3.004608 52.7099 2.68396 53.600647 2.68396 Z M 53.45813 1.876373 C 52.911804 1.876373 52.484253 2.078278 51.736023 2.470184 C 51.415344 2.660217 51.415344 3.408417 51.106567 3.479675 C 50.821533 3.586578 50.500916 3.634064 50.168335 3.634064 C 49.063843 3.634064 47.769348 3.147125 46.937988 3.09964 C 46.546082 3.063995 45.904724 2.980865 45.299011 2.980865 C 44.752747 2.980865 44.253906 3.052124 43.980774 3.289642 C 43.220642 3.788452 43.660095 4.299133 43.351318 5.047363 C 41.902405 8.325226 37.935669 6.626923 35.287231 8.135223 C 34.02832 8.835938 33.76709 9.394104 33.208862 10.653015 C 33.137634 10.973663 33.458313 11.543732 33.26825 11.733765 C 32.579407 13.182678 30.869263 13.242065 29.610352 13.871521 C 28.672119 14.441559 27.472595 15.011627 27.282593 16.139893 C 27.282593 16.318054 27.745728 17.838226 27.781372 17.850098 L 27.781372 17.850098 C 27.401306 18.918976 25.204224 20.177856 24.444092 21.496155 C 23.185242 23.954559 21.866943 26.092285 20.346741 28.431946 C 18.969116 30.759705 18.018982 33.158752 17.140137 35.676544 C 16.130676 38.574371 16.071289 41.971008 13.862244 44.049377 C 12.91217 44.940125 12.282715 45.058868 11.653259 46.258392 C 11.083191 47.457916 10.774414 49.595642 10.525024 50.866425 C 10.263733 51.935303 10.144958 51.804657 10.263733 52.624115 C 10.263733 52.814148 10.453735 52.944794 10.584351 52.944794 C 14.408569 52.944794 17.484558 51.816528 20.548645 49.761932 L 20.548645 49.761932 C 20.572388 49.750031 20.58429 49.738159 20.608032 49.726288 L 20.608032 49.726288 C 20.608032 49.726288 20.608032 49.726288 20.608032 49.726288 C 20.631775 49.714417 20.643677 49.702545 20.655518 49.678772 L 20.655518 49.678772 C 24.09967 46.911591 26.605591 43.467438 29.550964 40.272705 C 31.474915 38.241821 33.743286 36.816681 36.558044 36.816681 C 36.890564 36.816681 37.211243 36.828552 37.555664 36.876038 C 41.652954 37.434235 42.662476 39.334473 44.610229 42.351074 C 45.750305 43.930634 47.317993 45.878357 49.467651 45.878357 C 51.985413 45.878357 52.804932 43.681213 54.004395 41.911621 C 55.572083 39.583862 58.790588 38.764404 59.918823 36.115967 C 60.80957 33.97821 60.370178 31.63858 61.308411 29.500824 C 62.448547 27.291809 64.265625 25.534119 65.714539 23.574493 C 67.23468 21.555511 68.552979 19.168365 68.244202 16.579315 C 68.113525 15.071014 67.294067 13.740875 66.605225 12.422577 C 65.025696 9.584137 64.016174 7.066345 63.707397 3.729095 C 63.707397 3.59845 63.517395 3.408417 63.38678 3.408417 C 62.258484 3.408417 60.928345 3.729095 59.918823 3.729095 C 57.721741 3.669708 56.712219 2.529572 54.693237 2.090149 C 54.170715 1.947632 53.790649 1.876373 53.45813 1.876373 Z"/>
    <path id="Path-copy-11" fill="#ffffff" fill-rule="evenodd" stroke="none" d="M 63.636169 65.474365 C 59.420044 68.253448 57.721741 73.360291 55.572083 77.825806 C 53.303711 82.683228 50.215881 87.220032 46.189758 90.747314 C 45.809692 91.186737 45.3703 91.436127 44.930847 91.816162 C 48.576904 92.374359 54.004395 92.908813 61.142151 92.908813 C 66.949646 92.908813 73.885498 92.552521 81.913879 91.566772 C 81.605103 91.317383 81.284485 91.067963 80.963806 90.747314 C 76.99707 87.220032 73.909241 82.683228 71.640808 77.825806 C 69.503113 73.360291 67.804749 68.253448 63.636169 65.474365 Z"/>
    <path id="Path-copy-10" fill="#ffffff" fill-rule="evenodd" stroke="none" d="M 64.526917 24.71463 C 62.816711 26.792999 60.928345 28.930756 60.370178 31.519806 C 59.990112 33.348755 60.298889 35.427124 59.170654 36.876038 C 58.22052 38.253723 56.46283 38.705017 55.263306 39.833282 C 53.434326 41.472198 52.864258 44.619446 50.595886 45.379547 C 50.275208 45.48642 49.942688 45.545807 49.622009 45.545807 C 47.757446 45.545807 46.011597 43.835602 44.990234 42.161041 C 43.731323 40.213318 42.721863 37.814301 40.512878 36.994812 C 39.574646 36.686035 38.624512 36.555389 37.674377 36.555389 C 37.365601 36.555389 37.044922 36.555389 36.724304 36.555389 C 35.762329 36.555389 34.77655 36.591003 33.838318 36.876038 C 31.759949 37.505493 30.18042 39.14444 28.790894 40.842773 C 26.213684 43.799988 23.75531 47.137238 20.536804 49.476898 C 18.090271 51.317719 15.08551 52.564758 12.068909 52.564758 C 11.677002 52.564758 11.285095 52.540985 10.905029 52.4935 L 10.905029 52.4935 C 11.083191 53.004181 11.273193 53.502991 11.40387 54.073059 C 11.783875 56.282043 9.444275 58.360413 10.144958 60.438782 C 10.453735 61.25827 11.083191 61.887695 11.40387 62.647797 C 11.843262 63.966064 11.083191 65.474365 11.463257 66.804535 C 11.783875 67.742767 12.603394 68.502838 12.983398 69.452942 C 13.541626 70.901886 12.852783 72.920868 13.99292 74.049103 C 14.622375 74.678558 15.75061 74.927979 16.261292 75.628662 C 16.760071 76.258118 16.700745 77.19635 17.068909 77.956451 C 18.078369 79.7854 21.486877 79.274719 22.247009 81.234314 C 22.496399 81.804382 22.42511 82.493225 22.745789 83.063293 C 23.505859 84.381561 25.643616 83.752106 26.783752 84.892242 C 27.472595 85.581085 27.531982 86.70932 28.232666 87.469421 C 28.707703 87.896973 29.337158 87.991974 30.002258 87.991974 C 30.524841 87.991974 31.071106 87.944489 31.605591 87.944489 C 32.080627 87.944489 32.543823 87.980103 32.959473 88.170135 C 33.517639 88.419525 33.897705 88.799591 34.408386 89.108368 C 35.156616 89.737823 36.106689 90.058472 37.175598 90.307861 C 39.063904 86.970612 40.512878 83.37207 41.902405 79.726013 C 44.230164 73.419678 46.189758 66.923279 49.467651 61.00885 C 50.477112 59.120514 51.664795 57.220276 53.434326 56.032654 C 53.933167 55.711975 54.503235 55.403198 54.503235 54.83313 C 54.503235 54.58374 54.372559 54.393707 54.313232 54.132416 C 53.683777 52.054077 55.572083 50.106323 57.460449 49.096832 C 58.731201 48.40802 60.0495 47.837952 61.498413 47.457916 C 61.498413 47.457916 63.042358 47.291626 64.47937 47.291626 C 65.191956 47.291626 65.8927 47.327271 66.355835 47.457916 C 67.804749 47.837952 69.123047 48.40802 70.381958 49.096832 C 72.270264 50.225098 74.099243 52.125336 73.529175 54.132416 C 73.469788 54.393707 73.4104 54.643127 73.4104 54.83313 C 73.4104 55.403198 73.909241 55.711975 74.419922 56.032654 C 76.118225 57.220276 77.377136 59.120514 78.445984 61.00885 C 81.66449 66.923279 83.612244 73.419678 86.01123 79.726013 C 87.329529 83.37207 88.849731 86.899353 90.738037 90.307861 C 91.67627 90.058472 92.626404 89.678436 93.445862 89.108368 C 93.944702 88.799591 94.324707 88.288879 94.894775 88.170135 C 95.322327 87.980103 95.785522 87.944489 96.260559 87.944489 C 96.783142 87.944489 97.329468 87.991974 97.840149 87.991974 C 98.493347 87.991974 99.110901 87.896973 99.621582 87.469421 C 100.310425 86.780579 100.381653 85.581085 101.129883 84.892242 C 102.210632 83.811493 104.348389 84.381561 105.108459 83.063293 C 105.417236 82.493225 105.357849 81.804382 105.6073 81.234314 C 106.367371 79.274719 109.764038 79.7854 110.773499 77.956451 C 111.212952 77.19635 111.094177 76.376892 111.592957 75.628662 C 112.163025 74.868591 113.172546 74.678558 113.861389 74.049103 C 115.001465 72.920868 114.37207 70.901886 114.87085 69.452942 C 115.310303 68.502838 116.070374 67.742767 116.37915 66.804535 C 116.450439 66.483856 116.450439 66.293854 116.450439 65.985046 C 111.652344 63.027832 106.557373 61.388885 101.319885 61.068237 C 98.172668 60.937592 94.954163 61.127625 92.056335 59.868713 C 87.958984 58.111023 85.761841 53.443604 85.25116 49.037476 C 84.942383 46.507782 85.132385 43.98999 84.871094 41.472198 C 84.621704 38.954407 83.873535 36.424744 82.044556 34.607666 C 79.206116 31.709839 74.538696 31.579193 71.011414 29.690857 C 68.552979 28.431946 66.664612 26.412964 64.526917 24.71463 Z"/>
    <path id="Path-copy-9" fill="#eaeaea" fill-rule="evenodd" stroke="none" d="M 64.051819 47.196625 C 62.602905 47.196625 61.05896 47.398529 61.05896 47.398529 C 59.669434 47.778564 58.351196 48.336761 57.092285 49.037476 C 55.192078 50.106323 53.374939 51.99469 53.933167 54.073059 C 54.004395 54.322449 54.063782 54.512482 54.063782 54.761871 C 54.063782 55.33194 53.493713 55.652618 53.054321 55.961395 C 51.284729 57.160919 50.025818 59.049255 49.016357 60.937592 C 45.809692 66.804535 43.850098 73.360291 41.462952 79.654755 C 40.132813 83.312683 38.624512 86.899353 36.736145 90.248505 C 35.346619 92.766296 33.648315 95.094055 31.688721 97.243683 C 36.486755 96.863647 41.082947 94.785278 44.859619 91.816162 C 45.239624 91.507385 45.750305 91.067963 46.11853 90.747314 C 50.156494 87.220032 53.113708 82.683228 55.512695 77.825806 C 57.591064 73.360291 59.360657 68.253448 63.517395 65.474365 C 67.674133 68.253448 69.443726 73.360291 71.581482 77.825806 C 73.849854 82.683228 76.937683 87.220032 80.904419 90.747314 C 81.225098 90.996704 81.533875 91.317383 81.854553 91.566772 C 85.761841 94.71402 90.358032 96.863647 95.334229 97.243683 C 93.386475 95.094055 91.747559 92.766296 90.298645 90.248505 C 88.410278 86.899353 86.961365 83.312683 85.571838 79.654755 C 83.232178 73.360291 81.284485 66.804535 78.006592 60.937592 C 76.99707 59.049255 75.797546 57.160919 73.980469 55.961395 C 73.529175 55.652618 72.971008 55.33194 72.971008 54.761871 C 72.971008 54.512482 73.030396 54.322449 73.161011 54.073059 C 73.790466 51.99469 71.890259 50.046967 70.001892 49.037476 C 68.742981 48.336761 67.353455 47.778564 65.97583 47.398529 C 65.488892 47.244141 64.788147 47.196625 64.051819 47.196625 Z"/>
    <path id="Path-copy-8" fill="#c67b38" fill-rule="evenodd" stroke="none" d="M 63.766785 3.59845 C 64.016174 5.997467 64.64563 8.455872 65.845154 10.653015 C 66.854675 12.553223 68.113525 14.3703 68.434204 16.519928 C 68.742981 19.358398 66.985291 21.994965 65.215698 24.203949 C 65.085083 24.393982 64.966309 24.453369 64.906921 24.584015 C 66.985291 26.353577 68.992432 28.360687 71.332031 29.619598 C 74.669312 31.63858 79.206116 31.709839 82.103943 34.607666 C 83.932861 36.424744 84.621704 38.954407 84.942383 41.472198 C 85.191772 43.98999 85.132385 46.507782 85.381836 49.037476 C 85.821228 53.443604 88.030212 58.111023 92.127563 59.868713 C 94.954163 61.127625 98.303284 60.937592 101.450562 61.068237 C 106.61676 61.388885 111.652344 63.027832 116.070374 65.854401 C 116.070374 64.785553 115.690308 63.586029 116.070374 62.576538 C 116.37915 61.75705 117.008606 61.127625 117.329285 60.379395 C 118.018066 58.301025 115.749695 56.210785 116.070374 54.013672 C 116.260376 53.253571 116.640442 52.564758 116.640442 51.864044 C 116.640442 50.735779 115.63092 49.916321 115.36969 48.776184 C 115.120239 47.897339 115.440918 46.959106 115.179626 46.139618 C 114.811462 44.868866 113.481323 44.310669 112.281799 43.681213 C 111.094177 43.051758 109.954041 41.911621 110.334106 40.65274 C 110.464722 40.272705 110.714111 39.892639 110.773499 39.512604 C 110.904114 39.013794 110.714111 38.633759 110.642883 38.134949 C 109.324585 33.97821 107.875671 29.750214 105.037231 26.353577 C 104.479004 25.652863 103.837708 25.023438 103.469543 24.203949 C 103.208252 23.633881 103.089478 23.135071 102.899475 22.505646 C 102.210632 20.427277 100.69043 18.728943 98.742737 17.778839 C 99.43158 17.588806 99.752197 16.899994 99.680969 16.19928 L 99.680969 16.19928 C 99.122803 16.638702 98.481445 17.149384 97.982666 17.529419 C 95.987427 18.859589 93.588379 19.679047 91.201233 19.679047 C 90.643066 19.679047 90.084839 19.643433 89.538513 19.548401 C 86.450684 19.097107 83.873535 17.208771 81.284485 15.641083 C 78.885437 14.310944 76.427002 13.11142 74.348633 11.472473 C 71.830872 9.465363 69.942505 6.745667 68.802368 3.729095 C 68.244202 3.835968 67.662231 3.907227 67.080322 3.907227 C 66.367737 3.907227 65.655151 3.812225 64.966309 3.59845 Z"/>
    <path id="Path-copy-7" fill="#c67b38" fill-rule="evenodd" stroke="none" d="M 65.785767 3.966614 C 68.873657 3.966614 69.716858 7.612671 71.581482 9.655396 C 74.229919 12.61261 77.887817 14.310944 81.225098 16.270538 C 84.265442 18.063873 87.234497 19.987854 90.821167 19.987854 C 90.868713 19.987854 90.928101 19.987854 90.987488 19.987854 C 92.495789 19.987854 94.01593 19.548401 95.393616 19.03772 C 96.284302 18.728943 96.913757 18.218262 97.733215 17.838226 C 97.863892 17.707581 98.647705 17.161255 98.695251 17.161255 L 98.695251 17.161255 C 98.718994 17.161255 98.588318 17.280029 98.172668 17.588806 C 98.042053 17.778839 98.113281 17.968872 98.232056 18.099487 C 100.93988 19.548401 101.640564 21.87619 102.899475 24.393982 C 103.837708 26.353577 105.6073 27.861877 106.676147 29.750214 C 108.006287 32.078003 109.764038 35.486511 110.084656 38.253723 C 110.20343 39.334473 109.4552 40.593353 109.835266 41.721619 C 110.393433 43.301178 111.78302 43.360565 112.851868 44.370056 C 114.241394 45.688324 114.930237 48.087341 115.36969 49.975708 C 116.129761 51.305847 116.260376 52.624115 115.690308 53.883026 L 115.690308 54.013672 C 115.820984 55.652618 115.500305 54.203674 115.880371 55.961395 C 116.129761 56.721466 116.640442 57.481567 116.759216 58.229767 C 117.079834 59.999359 115.880371 61.00885 115.690308 62.517151 C 115.464661 63.871063 115.749695 64.67865 115.132141 64.67865 C 114.882751 64.67865 114.490784 64.548004 113.861389 64.286743 C 112.03241 63.526642 110.334106 62.647797 108.44574 62.077728 C 103.718933 60.688202 98.742737 61.448273 94.01593 60.189392 C 81.533875 56.92337 88.647827 42.184784 82.388977 34.465149 L 82.388977 34.465149 C 82.365234 34.429504 82.341431 34.39389 82.293945 34.346375 L 82.293945 34.346375 C 82.293945 34.346375 82.293945 34.346375 82.293945 34.346375 C 82.258301 34.31076 82.234558 34.286987 82.198914 34.275116 L 82.198914 34.275116 C 79.823669 32.315521 77.151489 31.686066 74.15863 30.700348 C 71.581482 29.809601 69.503113 28.55072 67.424744 26.721741 C 66.985291 26.412964 65.085083 25.082794 65.025696 24.453369 C 65.025696 24.263336 65.845154 23.574493 65.845154 23.45575 C 67.175293 20.486664 68.992432 18.728943 68.054199 15.261047 C 67.543518 13.562714 66.474609 12.173187 65.655151 10.593628 C 64.966309 9.085327 64.39624 7.565155 64.016174 5.997467 C 63.517395 3.978485 63.38678 4.358521 64.966309 4.037872 C 65.251343 3.990356 65.524475 3.966614 65.785767 3.966614 Z M 63.517395 3.408417 C 63.38678 3.408417 63.196716 3.59845 63.196716 3.729095 C 63.517395 6.246887 64.146851 8.705292 65.346375 10.973663 C 66.664612 13.562714 68.434204 15.70047 67.733521 18.918976 C 67.23468 21.056702 65.714539 22.945068 64.39624 24.524628 C 64.336853 24.584015 64.265625 24.833405 64.39624 24.904663 C 66.854675 26.911774 69.06366 29.180145 71.961487 30.510315 C 75.298767 31.959229 78.956665 32.268005 81.913879 34.797699 C 87.709595 41.721619 82.044556 52.754761 89.977966 58.930481 C 92.947083 61.25827 96.533752 61.127625 100.001648 61.317627 C 105.737915 61.567047 110.963501 63.146606 115.820984 66.103821 C 115.856567 66.127563 115.915955 66.127563 115.963501 66.127563 C 116.141602 66.127563 116.319763 66.044434 116.319763 65.854401 C 116.129761 63.336609 117.828064 61.388885 117.578674 59.049255 C 117.519287 57.849731 116.699829 56.970886 116.450439 55.902008 C 116.129761 54.453094 117.008606 53.134827 116.759216 51.864044 C 116.557312 50.890167 116.497925 50.640778 116.486023 50.640778 L 116.486023 50.640778 C 116.46228 50.640778 116.486023 50.949554 116.426636 50.949554 C 116.37915 50.949554 116.248535 50.700165 115.939758 49.726288 C 115.939758 49.726288 115.500305 46.448425 115.310303 46.008972 C 114.87085 45.248901 114.680847 44.999481 114.110779 44.560059 C 111.652344 42.422333 112.281799 44.999481 110.963501 39.64325 C 109.835266 35.237122 108.44574 31.139771 105.927917 27.291809 C 104.407776 25.082794 103.469543 22.636261 102.080017 20.486664 C 100.880493 18.728943 99.43158 18.598297 99.870972 16.389313 C 99.918518 16.163635 99.764099 16.03302 99.574097 16.03302 C 99.502808 16.03302 99.43158 16.044891 99.372192 16.080505 C 96.866272 18.147003 94.039673 19.4534 90.892456 19.4534 C 90.381775 19.4534 89.871094 19.417786 89.348511 19.358398 C 86.320068 18.847717 83.802246 17.018738 81.153809 15.569824 C 75.928223 12.481964 71.332031 9.77417 68.873657 3.788452 C 68.802368 3.729095 68.742981 3.59845 68.552979 3.59845 C 68.267944 3.622192 67.994812 3.634064 67.709778 3.634064 C 66.320251 3.634064 64.990051 3.408417 63.517395 3.408417 Z"/>
    <path id="Path-copy-6" fill="#211a12" fill-rule="evenodd" stroke="none" d="M 32.959473 43.871246 C 30.750488 43.871246 28.921509 45.688324 28.921509 47.897339 L 28.921509 48.526764 C 28.921509 50.735779 30.750488 52.564758 32.959473 52.564758 C 35.156616 52.564758 36.985596 50.735779 36.985596 48.526764 L 36.985596 47.897339 C 36.985596 45.688324 35.156616 43.871246 32.959473 43.871246 Z"/>
    <path id="Path-copy-5" fill="none" stroke="#211a12" stroke-width="0.041995" d="M 32.959473 43.871246 C 30.750488 43.871246 28.921509 45.688324 28.921509 47.897339 L 28.921509 48.526764 C 28.921509 50.735779 30.750488 52.564758 32.959473 52.564758 C 35.156616 52.564758 36.985596 50.735779 36.985596 48.526764 L 36.985596 47.897339 C 36.985596 45.688324 35.156616 43.871246 32.959473 43.871246 Z"/>
    <path id="Path-copy-4" fill="#211a12" fill-rule="evenodd" stroke="none" d="M 92.186951 43.871246 C 89.977966 43.871246 88.220276 45.688324 88.220276 47.897339 L 88.220276 48.526764 C 88.220276 50.735779 89.977966 52.564758 92.186951 52.564758 C 94.395996 52.564758 96.213074 50.735779 96.213074 48.526764 L 96.213074 47.897339 C 96.213074 45.688324 94.395996 43.871246 92.186951 43.871246 Z"/>
    <path id="Path-copy-3" fill="none" stroke="#211a12" stroke-width="0.041995" d="M 92.186951 43.871246 C 89.977966 43.871246 88.220276 45.688324 88.220276 47.897339 L 88.220276 48.526764 C 88.220276 50.735779 89.977966 52.564758 92.186951 52.564758 C 94.395996 52.564758 96.213074 50.735779 96.213074 48.526764 L 96.213074 47.897339 C 96.213074 45.688324 94.395996 43.871246 92.186951 43.871246 Z"/>
    <path id="Path-copy-2" fill="#ffb0ae" fill-rule="evenodd" stroke="none" d="M 63.897461 52.564758 C 62.104126 52.564758 60.678955 52.873535 60.678955 52.873535 C 60.108887 53.194183 59.479431 53.574249 59.170654 54.132416 C 58.849976 54.702484 58.980591 55.58136 59.610046 55.902008 C 59.776367 56.020782 59.954468 56.056396 60.156372 56.056396 C 60.500793 56.056396 60.8927 55.937653 61.249023 55.902008 C 61.332153 55.878265 61.415283 55.878265 61.498413 55.878265 C 61.997192 55.878265 62.507874 56.175171 62.507874 56.662109 C 62.448547 56.911499 62.258484 57.160919 62.187256 57.350922 C 61.914063 58.063507 62.591064 58.859222 63.30365 58.859222 C 63.422363 58.859222 63.529297 58.847351 63.636169 58.799835 C 63.731201 58.83548 63.826172 58.847351 63.921204 58.847351 C 64.610046 58.847351 65.334473 58.075378 65.275085 57.350922 C 65.085083 57.160919 64.966309 56.911499 64.966309 56.662109 C 64.859436 56.175171 65.441345 55.878265 65.963928 55.878265 C 66.047058 55.878265 66.14209 55.878265 66.22522 55.902008 C 66.557739 55.902008 66.949646 55.985138 67.329712 55.985138 C 67.507874 55.985138 67.697876 55.961395 67.864136 55.902008 C 68.434204 55.58136 68.552979 54.761871 68.244202 54.132416 C 67.923523 53.502991 67.353455 53.063568 66.723999 52.873535 C 65.785767 52.647888 64.800049 52.564758 63.897461 52.564758 Z"/>
    <path id="Path-copy" fill="none" stroke="#ffb0ae" stroke-width="0.041995" d="M 63.897461 52.564758 C 62.104126 52.564758 60.678955 52.873535 60.678955 52.873535 C 60.108887 53.194183 59.479431 53.574249 59.170654 54.132416 C 58.849976 54.702484 58.980591 55.58136 59.610046 55.902008 C 59.776367 56.020782 59.954468 56.056396 60.156372 56.056396 C 60.500793 56.056396 60.8927 55.937653 61.249023 55.902008 C 61.332153 55.878265 61.415283 55.878265 61.498413 55.878265 C 61.997192 55.878265 62.507874 56.175171 62.507874 56.662109 C 62.448547 56.911499 62.258484 57.160919 62.187256 57.350922 C 61.914063 58.063507 62.591064 58.859222 63.30365 58.859222 C 63.422363 58.859222 63.529297 58.847351 63.636169 58.799835 C 63.731201 58.83548 63.826172 58.847351 63.921204 58.847351 C 64.610046 58.847351 65.334473 58.075378 65.275085 57.350922 C 65.085083 57.160919 64.966309 56.911499 64.966309 56.662109 C 64.859436 56.175171 65.441345 55.878265 65.963928 55.878265 C 66.047058 55.878265 66.14209 55.878265 66.22522 55.902008 C 66.557739 55.902008 66.949646 55.985138 67.329712 55.985138 C 67.507874 55.985138 67.697876 55.961395 67.864136 55.902008 C 68.434204 55.58136 68.552979 54.761871 68.244202 54.132416 C 67.923523 53.502991 67.353455 53.063568 66.723999 52.873535 C 65.785767 52.647888 64.800049 52.564758 63.897461 52.564758 Z"/>
</svg>
