<?xml version="1.0" encoding="UTF-8"?>
<!-- Generated by Pixelmator Pro 3.4.1 -->
<svg width="150" height="115" viewBox="0 0 150 115" xmlns="http://www.w3.org/2000/svg">
    <path id="Path-copy-32" fill="#dd902f" fill-rule="evenodd" stroke="none" d="M 20.241638 1.042816 C 15.462646 1.042816 -1.05835 31.408966 20.370789 47.895447 L 43.479065 23.600189 C 43.479065 23.600189 24.914978 1.606445 20.370789 1.042816 C 20.323853 1.042816 20.288635 1.042816 20.241638 1.042816 Z"/>
    <path id="Path-copy-31" fill="#e6ac4a" fill-rule="evenodd" stroke="none" d="M 18.809509 11.634674 C 14.206665 11.634674 11.024536 40.415588 28.907593 44.27887 L 39.064453 28.391235 C 39.064453 28.391235 23.294922 11.634674 18.809509 11.634674 Z"/>
    <path id="Path-copy-30" fill="#dd902f" fill-rule="evenodd" stroke="none" d="M 127.966064 1.042816 C 127.919067 1.042816 127.88385 1.042816 127.836914 1.042816 C 123.234009 1.606445 104.669922 23.600189 104.669922 23.600189 L 127.836914 47.895447 C 149.207336 31.408966 132.68634 1.042816 127.966064 1.042816 Z"/>
    <path id="Path-copy-29" fill="#e6ac4a" fill-rule="evenodd" stroke="none" d="M 129.457458 11.634674 C 124.913269 11.634674 109.214233 28.391235 109.214233 28.391235 L 119.300598 44.27887 C 137.25415 40.415588 134.072021 11.634674 129.457458 11.634674 Z"/>
    <path id="Path-copy-28" fill="#dd902f" fill-rule="evenodd" stroke="none" d="M 146.585571 84.661469 C 146.585571 84.661469 146.585571 84.661469 146.585571 84.661469 L 146.585571 84.661469 Z M 68.008179 17.329865 C 58.626343 17.329865 39.991821 20.242004 23.67041 40.415649 C 0.808777 68.703369 1.560242 84.661469 1.560242 84.661469 L 6.973328 79.541748 L 6.973328 79.541748 C 6.973328 79.553467 3.673828 96.310059 6.973328 102.968079 L 10.718994 94.877441 C 10.718994 94.877441 13.079163 105.398743 18.809265 107.582886 C 18.809265 107.582886 21.639038 102.146088 22.214417 102.146088 C 22.261353 102.146088 22.284851 102.169556 22.296631 102.228271 C 22.554932 102.968079 25.232117 107.899902 29.834961 110.823792 L 31.455383 104.588531 C 31.455383 104.588531 38.582764 114.276093 66.693115 114.276093 C 69.006287 114.276093 71.460327 114.205658 74.078796 114.064728 C 76.685547 114.205658 79.139587 114.276093 81.452759 114.276093 C 109.56311 114.276093 116.690491 104.588531 116.690491 104.588531 L 118.310913 110.823792 C 122.913757 107.899902 125.532227 103.038513 125.849243 102.228271 C 125.861023 102.181305 125.88446 102.157837 125.919739 102.157837 C 126.483337 102.157837 129.395325 107.582886 129.395325 107.582886 C 135.066711 105.398743 137.497314 94.877441 137.497314 94.877441 L 141.231262 102.968079 C 144.472046 96.180878 141.231262 79.553467 141.231262 79.541748 L 141.231262 79.541748 L 146.585632 84.661469 L 146.585632 84.661469 C 146.538635 84.544037 147.254944 68.668152 124.475464 40.415649 C 108.071899 20.218506 89.331665 17.353333 79.996765 17.353333 C 76.298035 17.353333 74.078796 17.799561 74.078796 17.799561 C 74.078796 17.799561 71.789124 17.329865 68.008179 17.329865 Z"/>
    <path id="Path-copy-27" fill="#9b7b52" fill-rule="evenodd" stroke="none" d="M 61.679199 17.341736 L 49.398438 18.552307 L 59.742004 34.813599 L 61.679199 17.341736 Z"/>
    <path id="Path-copy-26" fill="#9b7b52" fill-rule="evenodd" stroke="none" d="M 84.603149 17.466309 L 86.540405 34.813782 L 96.872192 18.668304 L 84.603149 17.466309 Z"/>
    <path id="Path-copy-25" fill="#9b7b52" fill-rule="evenodd" stroke="none" d="M 66.35437 17.330933 L 74.010132 28.969818 L 80.550415 17.330933 Z"/>
    <path id="Path-copy-24" fill="none" stroke="none" d="M 60.610718 84.77948 L 2.922302 71.263824"/>
    <path id="Path-copy-23" fill="none" stroke="#7f8082" stroke-width="0.181102" stroke-linecap="round" stroke-linejoin="round" d="M 60.610718 84.77948 L 2.922302 71.263824"/>
    <path id="Path-copy-22" fill="none" stroke="none" d="M 60.611023 89.95813 L 11.40033 97.050598"/>
    <path id="Path-copy-21" fill="none" stroke="#7f8082" stroke-width="0.181102" stroke-linecap="round" stroke-linejoin="round" d="M 60.611023 89.95813 L 11.40033 97.050598"/>
    <path id="Path-copy-20" fill="none" stroke="none" d="M 60.610779 87.58606 L 4.977234 85.77771"/>
    <path id="Path-copy-19" fill="none" stroke="#7f8082" stroke-width="0.181102" stroke-linecap="round" stroke-linejoin="round" d="M 60.610779 87.58606 L 4.977234 85.77771"/>
    <path id="Path-copy-18" fill="none" stroke="none" d="M 87.467346 84.77948 L 145.097107 71.263824"/>
    <path id="Path-copy-17" fill="none" stroke="#7f8082" stroke-width="0.181102" stroke-linecap="round" stroke-linejoin="round" d="M 87.467346 84.77948 L 145.097107 71.263824"/>
    <path id="Path-copy-16" fill="none" stroke="none" d="M 87.467346 89.95813 L 136.619385 97.050598"/>
    <path id="Path-copy-15" fill="none" stroke="#7f8082" stroke-width="0.181102" stroke-linecap="round" stroke-linejoin="round" d="M 87.467346 89.95813 L 136.619385 97.050598"/>
    <path id="Path-copy-14" fill="none" stroke="none" d="M 87.467346 87.58606 L 143.100952 85.77771"/>
    <path id="Path-copy-13" fill="none" stroke="#7f8082" stroke-width="0.181102" stroke-linecap="round" stroke-linejoin="round" d="M 87.467346 87.58606 L 143.100952 85.77771"/>
    <path id="Path-copy-12" fill="#6d6e6f" fill-rule="evenodd" stroke="none" d="M 74.632568 86.153503 C 74.256836 86.153503 73.951538 86.458801 73.951538 86.834564 L 73.951538 93.563019 C 73.951538 96.310791 71.767517 98.483154 69.031677 98.483154 C 66.283997 98.483154 64.111755 96.310791 64.111755 93.563019 C 64.111755 93.187256 63.794739 92.881958 63.419006 92.881958 C 63.043213 92.881958 62.737915 93.187256 62.737915 93.563019 C 62.737915 97.050537 65.602966 99.91571 69.090393 99.91571 C 71.579651 99.91571 73.704956 98.553589 74.761719 96.428192 C 75.877258 98.483154 78.002563 99.91571 80.491821 99.91571 C 83.979187 99.91571 86.844238 97.050537 86.844238 93.563019 C 86.597656 93.316406 86.221924 92.940674 85.846191 92.940674 C 85.470459 92.940674 85.165161 93.257721 85.165161 93.633484 C 85.165161 96.369507 82.98114 98.553589 80.245239 98.553589 C 77.49762 98.553589 75.325378 96.369507 75.325378 93.633484 L 75.325378 86.834564 C 75.325378 86.458801 75.008301 86.153503 74.632568 86.153503 Z"/>
    <path id="Path-copy-11" fill="#6d6e6f" fill-rule="evenodd" stroke="none" d="M 69.959473 98.483276 C 69.407593 98.483276 69.03186 98.859009 69.03186 99.363953 C 69.03186 102.416992 71.521179 104.906433 74.574097 104.906433 C 77.568298 104.906433 80.057556 102.416992 80.057556 99.363953 C 80.057556 98.859009 79.681824 98.483276 79.118225 98.483276 C 78.625061 98.483276 78.190613 98.859009 78.190613 99.363953 C 78.190613 101.418884 76.57019 103.039368 74.574097 103.039368 C 72.519226 103.039368 70.898804 101.418884 70.898804 99.363953 C 70.898804 98.859009 70.523071 98.483276 69.959473 98.483276 Z"/>
    <path id="Path-copy-10" fill="#272425" fill-rule="evenodd" stroke="none" d="M 74.456482 73.13092 C 73.223572 73.13092 63.113708 73.295288 63.113708 78.743835 C 63.113708 84.591614 74.573914 89.323853 74.573914 89.323853 C 74.573914 89.323853 85.975342 84.591614 85.975342 78.743835 C 85.975342 73.295288 75.912476 73.13092 74.691284 73.13092 C 74.62085 73.13092 74.573914 73.13092 74.573914 73.13092 C 74.573914 73.13092 74.526917 73.13092 74.456482 73.13092 Z"/>
    <path id="Path-copy-9" fill="#ffffff" fill-rule="evenodd" stroke="none" d="M 69.14917 75.561646 C 67.164734 75.561646 65.473938 76.559753 65.473938 77.804443 C 65.473938 79.049133 67.164734 80.105988 69.14917 80.105988 C 71.203979 80.105988 72.824402 79.049133 72.824402 77.804443 C 72.824402 76.559753 71.203979 75.561646 69.14917 75.561646 Z"/>
    <path id="Path-copy-8" fill="#f5db39" fill-rule="evenodd" stroke="none" d="M 51.582397 61.963654 C 49.962036 61.963654 47.871948 63.008728 46.040161 64.840576 C 43.421692 67.459167 42.49408 70.829254 43.856201 72.191376 C 44.666382 73.001617 47.860168 73.177734 50.513855 73.177734 C 52.580505 73.177734 54.330017 73.072083 54.330017 73.072083 C 54.330017 73.072083 54.823181 64.030334 53.449402 62.668213 C 52.979675 62.186768 52.333923 61.963654 51.582397 61.963654 Z"/>
    <path id="Path-copy-7" fill="#b4a331" fill-rule="evenodd" stroke="none" d="M 50.654968 62.726929 C 50.654968 62.726929 48.529663 64.535278 47.966003 67.15387 C 47.472839 69.831146 48.717529 72.320557 48.717529 72.320557 C 48.717529 72.320557 50.772339 70.512207 51.335999 67.8349 C 51.899597 65.216339 50.654968 62.726929 50.654968 62.726929 Z"/>
    <path id="Path-copy-6" fill="#f5db39" fill-rule="evenodd" stroke="none" d="M 97.201721 61.963654 C 96.450195 61.963654 95.792664 62.186768 95.322998 62.668213 C 93.949158 64.030334 94.512756 73.072083 94.512756 73.072083 C 94.512756 73.072083 96.25061 73.177734 98.3172 73.177734 C 100.970886 73.177734 104.141235 73.001617 104.916199 72.191376 C 106.348694 70.829254 105.409363 67.459167 102.732178 64.840576 C 100.947388 63.008728 98.833801 61.963654 97.201721 61.963654 Z"/>
    <path id="Path-copy-5" fill="#b4a331" fill-rule="evenodd" stroke="none" d="M 98.129395 62.726929 C 98.129395 62.726929 96.872986 65.216339 97.436646 67.8349 C 98.000244 70.512207 100.11377 72.320557 100.11377 72.320557 C 100.11377 72.320557 101.358459 69.831146 100.80658 67.15387 C 100.242981 64.535278 98.129395 62.726929 98.129395 62.726929 Z"/>
    <path id="Path-copy-4" fill="none" stroke="none" d="M 92.023438 54.753601 C 92.023438 51.571381 96.814148 48.95282 102.790833 48.95282 C 108.779236 48.95282 113.640442 51.571381 113.640442 54.753601"/>
    <path id="Path-copy-3" fill="none" stroke="#bf7f2a" stroke-width="0.181102" stroke-linecap="round" d="M 92.023438 54.753601 C 92.023438 51.571381 96.814148 48.95282 102.790833 48.95282 C 108.779236 48.95282 113.640442 51.571381 113.640442 54.753601"/>
    <path id="Path-copy-2" fill="none" stroke="none" d="M 34.450562 54.753601 C 34.450562 51.571381 39.253052 48.95282 45.288452 48.95282 C 51.276855 48.95282 56.067566 51.571381 56.067566 54.753601"/>
    <path id="Path-copy" fill="none" stroke="#bf7f2a" stroke-width="0.181102" stroke-linecap="round" d="M 34.450562 54.753601 C 34.450562 51.571381 39.253052 48.95282 45.288452 48.95282 C 51.276855 48.95282 56.067566 51.571381 56.067566 54.753601"/>
</svg>
