<?xml version="1.0" encoding="UTF-8"?>
<!-- Generated by Pixelmator Pro 3.4.1 -->
<svg width="108" height="115" viewBox="0 0 108 115" xmlns="http://www.w3.org/2000/svg">
    <path id="Path-copy-21" fill="#ffb0ae" fill-rule="evenodd" stroke="none" d="M 93.810181 2.456024 C 93.655792 2.456024 93.513275 2.456024 93.358871 2.467896 C 85.864883 9.403687 80.069214 18.346619 76.66069 28.108978 C 75.53244 31.137451 74.772354 34.854767 76.470673 37.63385 C 78.359009 40.591064 82.337601 41.351166 85.104797 43.429504 C 88.252029 45.816681 89.962234 49.914032 93.489517 51.742981 C 94.84343 52.408051 96.304214 52.657471 97.800644 52.657471 C 99.297073 52.657471 100.829117 52.408051 102.313675 52.063629 C 103.762589 48.465088 104.202011 44.688416 103.82196 40.911713 C 103.251907 36.184937 101.802979 31.576904 101.173538 26.850098 C 100.354065 20.935669 100.864746 14.819336 99.724625 9.023651 C 99.285187 6.565247 98.335083 3.976196 96.137955 2.966705 C 95.38974 2.598541 94.605896 2.456024 93.810181 2.456024 Z"/>
    <path id="Path-copy-20" fill="#ffb0ae" fill-rule="evenodd" stroke="none" d="M 94.867172 3.453644 C 99.593979 3.453644 99.938385 14.581787 100.045273 17.847809 C 100.294678 22.313324 100.544083 26.731323 101.363556 31.137451 C 102.503693 36.683746 104.130753 42.170624 103.061874 47.776276 C 102.420547 50.81662 100.959763 52.016144 97.919403 52.016144 C 97.693756 52.016144 97.456223 52.004272 97.206818 51.992401 C 94.368378 51.873627 92.159363 50.294067 90.271027 48.156311 C 88.002625 45.567261 86.173676 43.180115 83.085815 41.541168 C 81.256851 40.591064 79.3685 39.902222 77.919586 38.322662 C 75.223648 35.377319 75.983734 31.95694 77.016983 28.524658 L 77.016983 28.524658 C 77.112 28.4534 77.183258 28.37027 77.230759 28.239624 C 78.810318 23.833496 80.817429 19.546112 83.275833 15.638794 C 85.484833 12.111511 88.382675 7.064056 91.909958 4.605652 C 93.050095 3.798035 94.023956 3.453644 94.867172 3.453644 Z M 94.118973 1.826569 C 92.30188 1.826569 91.541794 3.287354 90.152252 4.736267 C 88.323288 6.624634 86.684357 8.703003 85.104797 10.8526 C 81.256851 15.947571 78.299637 21.814514 76.090622 27.930847 C 76.090622 27.930847 76.090622 27.930847 76.090622 27.930847 L 76.090622 27.930847 C 76.090622 27.930847 76.090622 27.942719 76.090622 27.95459 L 76.090622 27.95459 C 74.582321 32.420105 74.15477 37.194427 78.359009 40.270416 C 80.698654 41.980591 83.406479 42.669434 85.54422 44.55777 C 87.753235 46.446106 89.071503 49.094543 91.411148 50.923523 C 93.109482 52.372437 94.997818 53.073151 97.206818 53.191895 C 97.56311 53.227539 98.085678 53.251282 98.655746 53.251282 C 100.175919 53.251282 102.123642 53.073151 102.812469 52.431824 C 104.202011 51.172913 104.451416 47.016174 104.510803 45.187225 C 104.772079 42.039978 104.202011 38.892731 103.572571 35.804871 C 102.812469 31.766907 101.862366 27.930847 101.494202 23.833496 C 101.173538 19.854919 101.23291 15.888184 100.734116 11.921478 C 100.294678 8.073547 99.415833 2.788544 94.879059 1.897827 C 94.605896 1.850311 94.356491 1.826569 94.118973 1.826569 Z"/>
    <path id="Path-copy-19" fill="#ffb0ae" fill-rule="evenodd" stroke="none" d="M 11.542511 2.242249 C 10.806175 2.242249 10.057961 2.42038 9.369133 2.717285 C 7.160126 3.726776 6.210014 6.434601 5.770592 8.774261 C 4.571075 14.629303 5.141144 20.674377 4.321671 26.600677 C 3.692223 31.327484 2.243309 35.994904 1.673241 40.72171 C 1.174431 44.498383 1.744499 48.346344 3.19342 51.802368 C 4.737343 52.229919 6.305031 52.538696 7.860832 52.538696 C 9.285995 52.538696 10.687408 52.277405 12.005692 51.612335 C 15.544853 49.854645 17.243172 45.757294 20.390411 43.358246 C 23.228867 41.22052 27.19558 40.531677 29.024536 37.562592 C 30.722855 34.79538 29.974648 31.078094 28.834518 27.990234 C 25.437874 18.215973 19.630325 9.403687 12.13633 2.277863 C 11.934433 2.25412 11.744408 2.242249 11.542511 2.242249 Z"/>
    <path id="Path-copy-18" fill="#ffb0ae" fill-rule="evenodd" stroke="none" d="M 11.043701 3.346741 C 13.383347 3.346741 15.342949 6.327698 16.803749 8.01416 C 19.760963 11.541443 22.468781 15.508148 24.677788 19.605499 C 26.69677 23.453461 29.844009 29.059113 29.653984 33.595886 C 29.214561 39.581573 24.107719 40.092255 20.271652 42.990082 C 17.160034 45.282227 15.402336 48.987671 12.041321 51.077911 L 12.041321 51.077911 C 12.005692 51.089783 11.981934 51.101654 11.946304 51.113525 C 10.746796 51.612335 8.870323 52.134888 7.124496 52.134888 C 5.580566 52.134888 4.143524 51.73111 3.383438 50.543457 C 2.053284 48.465088 2.183922 44.629028 2.302689 42.360657 C 2.492714 37.123169 4.321671 32.087585 5.022377 26.980743 C 5.651825 22.503326 5.521187 17.907196 5.90123 13.429779 C 6.150635 11.10202 6.210014 7.384705 7.848961 5.306335 C 8.977211 3.893066 10.046089 3.346741 11.043701 3.346741 Z M 11.245598 1.565277 C 8.229004 1.565277 6.186264 5.199463 5.521187 7.693481 C 3.573463 14.68869 4.642334 22.253937 3.383438 29.439148 C 2.302689 35.614868 0.224319 41.71933 1.483215 48.085052 C 1.993904 50.614716 1.993904 52.372437 4.392929 52.811859 C 5.390549 53.025635 6.376289 53.132507 7.362022 53.132507 C 9.036598 53.132507 10.675537 52.82373 12.266968 52.182404 C 12.409485 52.123016 12.516373 52.028015 12.587631 51.933014 L 12.587631 51.933014 C 14.737259 50.614716 16.126793 48.809509 17.81324 46.826172 C 20.010368 44.248993 22.468781 42.918823 25.366615 41.22052 C 29.273941 39.082764 31.233551 36.054291 30.47345 31.45813 C 29.653984 25.721832 26.316727 19.795532 23.288246 14.949951 C 21.898712 12.740967 20.390411 10.531952 18.751472 8.453583 C 17.433197 6.755249 14.654121 2.408508 12.516373 1.779053 C 12.07695 1.636536 11.649399 1.565277 11.245598 1.565277 Z"/>
    <path id="Path-copy-17" fill="#c67b38" fill-rule="evenodd" stroke="none" d="M 93.358871 2.33725 C 93.050095 2.33725 92.729431 2.408508 92.420639 2.408508 C 86.743729 3.287354 82.777023 8.26355 79.558533 12.990356 C 75.722458 18.667267 72.064529 24.462952 69.036057 30.698029 C 69.036057 30.698029 68.798523 30.745544 68.465988 30.745544 C 67.979065 30.745544 67.302109 30.638672 66.957687 30.068604 C 66.387619 29.118469 65.698792 28.108978 64.629913 28.108978 C 64.119232 28.108978 63.739197 28.239624 63.371017 28.299011 C 62.824707 28.441528 62.290268 28.512787 61.743958 28.512787 C 61.090759 28.512787 60.437561 28.417786 59.772476 28.239624 L 59.772476 28.239624 C 59.962509 31.078094 60.211914 33.845276 60.841354 36.624359 C 61.791473 40.591064 63.56105 44.629028 66.577652 47.39624 C 69.036057 49.605225 72.064529 51.113525 74.273544 53.512573 C 74.831726 54.141998 75.342407 54.771454 75.722458 55.519684 C 76.66069 56.968597 77.420776 58.678772 78.24025 60.317719 C 79.807938 63.215576 81.767532 66.113403 84.605988 67.811707 C 86.993134 69.201263 89.831589 69.771332 92.480026 70.210754 C 96.007309 70.84021 99.593979 71.469635 103.133133 71.778442 C 102.943115 71.398376 102.812469 71.0896 102.622452 70.768951 C 101.802979 69.130005 101.23291 66.612213 102.812469 65.412689 C 103.133133 65.1633 103.501312 65.044525 103.82196 64.783234 C 104.831467 63.773743 103.881348 62.016052 102.871857 60.947174 C 102.871857 60.947174 99.47522 57.479279 101.042892 54.700195 C 101.553574 53.82135 101.993011 53.001892 102.313675 52.063629 L 102.313675 52.063629 C 100.829117 52.408051 99.297073 52.657471 97.800644 52.657471 C 96.304214 52.657471 94.84343 52.408051 93.489517 51.742981 C 89.962234 49.914032 88.252029 45.816681 85.104797 43.429504 C 82.266342 41.351166 78.299637 40.591064 76.470673 37.63385 C 74.772354 34.854767 75.53244 31.137451 76.66069 28.108978 C 80.069214 18.346619 85.864883 9.522461 93.358871 2.33725 Z"/>
    <path id="Path-copy-16" fill="#c67b38" fill-rule="evenodd" stroke="none" d="M 91.755569 3.382385 L 91.755569 3.382385 C 87.195038 8.037903 83.240204 13.287262 80.128586 19.106689 C 77.610794 23.833496 73.323425 31.327484 75.461182 36.814362 C 76.221268 38.892731 77.919586 40.211029 79.807938 41.22052 C 82.836411 42.990082 85.54422 44.30838 87.812607 47.075562 C 91.25676 51.125397 94.178345 53.180023 98.691376 53.180023 C 99.55835 53.180023 100.484711 53.108765 101.482315 52.954376 L 101.482315 52.954376 C 100.627228 54.73584 99.879013 56.315399 100.674728 58.429382 C 101.221039 59.99707 104.807709 63.274933 102.931244 64.925751 L 102.931244 64.925751 C 102.800598 64.937653 102.681839 64.985138 102.563065 65.103912 C 100.805374 67.015991 101.387314 69.225006 102.278046 71.374634 L 102.278046 71.374634 C 96.719894 70.852081 89.689072 70.365143 84.986038 67.562317 C 79.997955 64.533844 78.86969 58.868805 75.591812 54.450806 C 73.07402 51.054138 69.095444 49.415222 66.26886 46.327362 C 64.190491 44.118347 62.860336 41.279907 61.981491 38.453308 C 61.660828 37.443817 61.411423 36.363068 61.221405 35.294189 C 61.221405 35.175446 60.283173 30.508026 60.591949 29.878571 C 60.983871 29.237244 61.518311 28.999725 62.124008 28.999725 C 63.988602 28.999725 66.601395 31.268097 68.216583 31.45813 C 68.3116 31.470001 68.39473 31.470001 68.489746 31.470001 C 70.793762 31.470001 71.53009 27.550812 72.373322 25.971252 C 74.831726 21.434479 77.610794 17.218353 80.508636 12.930969 C 83.347092 8.833618 86.803116 4.59375 91.755569 3.382385 Z M 93.489517 1.779053 C 85.864883 2.467896 81.446869 9.273041 77.610794 15.128113 C 76.221268 17.218353 74.902985 19.225464 73.632217 21.375092 C 72.884003 22.633972 72.123917 23.892883 71.435089 25.211151 C 70.805634 26.351288 70.235565 28.37027 69.416107 29.189728 C 68.632263 29.795441 69.190445 30.46051 69.142944 30.46051 C 69.107315 30.46051 68.691635 30.056702 67.017075 28.928467 C 66.708282 28.679047 66.458878 28.180237 66.078842 28.049622 C 65.461273 27.859589 64.914948 27.78833 64.392395 27.78833 C 63.394775 27.78833 62.468414 28.013977 61.352036 28.013977 C 60.972 28.013977 60.580078 27.990234 60.152527 27.930847 C 60.116898 27.918976 60.069397 27.918976 60.033768 27.918976 C 59.736847 27.918976 59.404312 28.108978 59.463699 28.489044 C 59.772476 33.845276 60.401932 39.332153 63.240387 44.05896 C 66.387619 49.415222 72.634598 51.362946 75.781845 56.600433 C 78.549042 61.137207 80.187973 66.172791 85.164185 68.880585 C 90.342285 71.659668 97.586868 72.099091 103.382538 72.669159 C 103.406296 72.669159 103.418167 72.669159 103.441925 72.669159 C 103.845718 72.669159 104.059494 72.087219 103.82196 71.778442 C 103.061874 70.080109 101.862366 67.75235 103.441925 65.982758 C 103.536942 65.887756 103.584442 65.768982 103.596313 65.662109 L 103.596313 65.662109 C 104.807709 64.723877 105.175873 63.643127 104.392029 62.016052 C 104.071365 61.255951 103.441925 60.757141 102.943115 60.056458 C 102.563065 59.617035 102.183029 59.058838 101.933624 58.48877 C 100.793488 56.149109 101.933624 54.450806 102.871857 52.253662 C 103.097504 51.849884 102.77684 51.410431 102.384918 51.410431 C 102.337418 51.410431 102.289917 51.410431 102.242416 51.434204 C 100.817245 51.707367 99.463333 51.885498 98.156937 51.885498 C 95.567886 51.885498 93.216354 51.161041 91.031113 48.9758 C 89.582184 47.39624 88.382675 45.567261 86.803116 44.05896 C 82.836411 40.270416 75.841217 39.961609 76.16188 32.966431 C 76.411285 27.420166 79.938568 21.375092 82.717651 16.707672 C 85.793625 11.60083 89.582184 6.945282 93.869568 2.788544 C 94.178345 2.467896 93.988327 1.779053 93.489517 1.779053 Z"/>
    <path id="Path-copy-15" fill="#c67b38" fill-rule="evenodd" stroke="none" d="M 12.195709 2.408508 C 19.701584 9.522461 25.556633 18.405975 28.893898 28.180237 C 30.034027 31.268097 30.794113 34.914154 29.083923 37.693237 C 27.19558 40.72171 23.228867 41.410522 20.521049 43.548279 C 17.361938 45.887939 15.604233 49.985291 12.07695 51.802368 C 10.723038 52.467438 9.250366 52.716858 7.753944 52.716858 C 6.257523 52.716858 4.737343 52.467438 3.2528 52.123016 L 3.2528 52.123016 C 3.632843 53.073151 4.012886 53.951996 4.511696 54.771454 C 6.091255 57.538666 2.682732 61.006561 2.682732 61.006561 C 1.744499 62.075439 0.735008 63.845001 1.744499 64.854492 C 2.053284 65.1633 2.433327 65.234558 2.75399 65.483948 C 4.321671 66.683472 3.882248 69.201263 3.003395 70.899567 C 2.81337 71.220245 2.682732 71.659668 2.492714 71.968445 C 6.091255 71.659668 9.618538 71.030212 13.145821 70.400757 C 15.913017 69.890076 18.692093 69.320007 21.019859 67.942352 C 23.858315 66.172791 25.806038 63.33432 27.385597 60.436493 C 28.26445 58.868805 28.965157 57.229858 29.903389 55.650299 C 30.342819 54.961487 30.794113 54.332031 31.35231 53.702576 C 33.56131 51.244171 36.64917 49.723999 39.048203 47.526855 C 42.136063 44.688416 43.893768 40.781097 44.843872 36.743103 C 45.473328 33.975922 45.663345 31.196838 45.853363 28.489044 L 45.853363 28.489044 C 45.176407 28.560303 44.499466 28.631561 43.858139 28.631561 C 43.299942 28.631561 42.753632 28.572174 42.254822 28.429657 C 41.874786 28.322754 41.494736 28.168365 41.150314 28.168365 C 41.102814 28.168365 41.043427 28.168365 40.995926 28.180237 C 39.867676 28.180237 39.166962 29.189728 38.60878 30.12796 C 38.264359 30.698029 37.599289 30.816803 37.136108 30.816803 C 36.815445 30.816803 36.589798 30.757416 36.589798 30.757416 C 33.56131 24.652954 29.844009 18.726654 25.996063 13.049744 C 22.789444 8.322937 18.822731 3.346741 13.145821 2.467896 C 12.825157 2.408508 12.516373 2.408508 12.195709 2.408508 Z"/>
    <path id="Path-copy-14" fill="#c67b38" fill-rule="evenodd" stroke="none" d="M 13.894035 3.073578 L 13.894035 3.073578 C 22.278755 5.140076 27.456856 15.757568 31.423569 22.44397 C 32.551819 24.272919 33.620697 26.291901 34.630188 28.180237 C 35.069611 28.86908 35.52092 30.698029 36.340393 31.078094 C 36.577911 31.196838 36.827316 31.244354 37.052963 31.244354 C 38.703781 31.244354 40.15271 28.714691 41.732269 28.70282 L 41.732269 28.70282 C 41.803528 28.797821 41.910416 28.857208 42.064804 28.86908 C 44.333191 29.249115 44.903259 28.560303 44.962631 31.078094 C 45.03389 33.916534 44.143173 37.372559 43.074295 40.020996 C 41.756012 43.488892 39.73703 46.256104 36.779816 48.465088 C 35.010239 49.914032 32.93187 51.054138 31.35231 52.752472 C 27.825027 56.469788 26.756149 61.885406 22.979462 65.483948 C 18.347679 69.985107 9.654167 70.650177 3.33593 71.196503 L 3.33593 71.196503 C 3.965385 69.795074 4.606705 68.167999 4.202911 66.683472 C 3.573463 64.41507 1.554474 63.714386 3.122162 60.947174 C 3.882248 59.688293 4.891739 58.738159 5.200523 57.229858 C 5.616196 55.460297 4.832359 54.094513 4.096024 52.645599 L 4.096024 52.645599 C 5.105515 52.799988 6.055626 52.883118 6.94635 52.883118 C 11.198097 52.883118 14.20282 51.054138 17.433197 47.14682 C 19.701584 44.367737 22.219376 42.800079 25.366615 41.161133 C 27.385597 40.020996 29.273941 38.702728 30.164673 36.493713 C 32.243042 31.137451 28.26445 24.023529 25.806038 19.35611 C 22.753815 13.346649 18.632706 7.871643 13.894035 3.073578 Z M 12.13633 1.707794 C 11.673149 1.707794 11.459373 2.42038 11.827545 2.717285 C 15.984276 6.755249 19.630325 11.161407 22.599419 16.137604 C 25.437874 20.86441 29.3452 27.230133 29.463966 32.907043 C 29.653984 39.640961 23.169487 40.092255 19.131516 43.619537 C 17.492577 44.997192 16.29306 46.89743 14.844147 48.465088 C 12.528252 50.923523 10.081718 51.837982 7.326393 51.837982 C 6.043747 51.837982 4.689842 51.64798 3.2528 51.303558 C 3.217171 51.303558 3.19342 51.303558 3.157791 51.303558 C 2.647102 51.303558 2.385826 51.766724 2.623352 52.182404 C 3.573463 54.391418 4.761101 56.030365 3.573463 58.429382 C 3.2528 58.987579 2.872757 59.49826 2.563972 59.99707 C 1.934525 60.757141 1.174431 61.505371 0.853767 62.514862 C 0.66375 63.464966 0.735008 63.714386 0.984413 64.474457 C 1.115051 64.854492 1.174431 64.854492 1.364456 65.103912 C 1.934525 65.982758 2.563972 66.861603 3.062775 67.811707 C 2.932137 69.130005 2.563972 70.400757 1.934525 71.469635 C 1.756378 71.885315 1.910767 72.360382 2.302689 72.360382 C 2.326439 72.360382 2.350197 72.348511 2.373947 72.348511 C 7.979599 71.778442 14.844147 71.33902 20.010368 68.880585 C 25.366615 66.303436 27.136192 61.065948 30.034027 56.279755 C 33.121887 51.244171 38.976944 49.284576 42.254822 44.248993 C 45.283295 39.450928 46.043396 33.785889 46.352173 28.180237 C 46.352173 27.835846 45.99588 27.598297 45.698975 27.598297 C 45.663345 27.598297 45.627716 27.598297 45.592087 27.610168 C 44.523209 27.800201 43.394958 27.800201 42.385468 27.800201 C 42.36171 27.78833 42.337952 27.78833 42.314209 27.78833 L 42.314209 27.78833 C 41.661011 27.645813 41.328461 27.574554 41.031555 27.574554 C 40.675262 27.574554 40.366486 27.681427 39.606384 27.930847 C 39.23822 28.108978 38.976944 28.619659 38.668152 28.809692 C 37.682419 29.474762 37.183609 29.783569 36.862946 29.783569 C 36.376022 29.783569 36.364136 29.023468 35.699066 27.669556 C 33.430679 23.132782 30.604095 18.726654 27.76564 14.43927 C 23.988953 8.774261 19.570946 2.408508 12.195709 1.707794 C 12.183838 1.707794 12.16008 1.707794 12.13633 1.707794 Z"/>
    <path id="Path-copy-13" fill="#51412e" fill-rule="evenodd" stroke="none" d="M 75.722458 55.650299 L 75.722458 55.650299 C 76.66069 58.358124 77.539536 61.065948 78.549042 63.773743 C 80.259232 68.25116 82.967041 72.669159 87.313797 74.806915 C 91.909958 77.134674 97.51561 76.386475 102.622452 77.324707 C 102.871857 77.075287 103.19252 76.825897 103.382538 76.505219 C 104.32077 75.186951 103.82196 73.548004 103.19252 71.968445 C 99.665237 71.659668 96.137955 71.030212 92.539413 70.400757 C 89.700958 69.830719 86.993134 69.391266 84.605988 67.942352 C 81.767532 66.232178 79.807938 63.405579 78.24025 60.436493 C 77.361404 58.868805 76.66069 57.229858 75.722458 55.650299 Z"/>
    <path id="Path-copy-12" fill="#51412e" fill-rule="evenodd" stroke="none" d="M 78.311508 61.766632 C 79.819809 64.320068 81.518127 66.683472 84.225937 68.500549 C 84.320953 68.548065 84.404083 68.559937 84.487228 68.559937 C 84.510971 68.559937 84.5466 68.559937 84.570358 68.559937 L 84.570358 68.559937 C 88.323288 70.495789 92.610672 71.042084 96.826782 71.719055 C 98.216324 71.968445 102.052383 71.909058 102.943115 73.298615 C 103.10939 75.495728 102.64621 76.528992 101.589203 76.528992 C 101.494202 76.528992 101.399185 76.51712 101.304169 76.505219 C 100.864746 76.445862 100.354065 76.445862 99.974014 76.386475 C 99.807755 76.398346 99.641479 76.410217 99.463333 76.410217 C 98.56073 76.410217 97.527481 76.18457 96.636765 76.125183 C 90.900467 75.757019 85.924271 74.616882 82.337601 69.771332 C 80.520508 67.301025 79.33287 64.569458 78.311508 61.766632 Z M 75.603699 54.997101 C 75.223648 54.997101 74.831726 55.305908 74.962372 55.709686 C 77.670181 63.464966 80.069214 73.037323 88.762726 76.065796 C 90.651062 76.695251 92.670044 76.944641 94.689026 77.134674 C 96.007309 77.324707 97.266205 77.324707 98.655746 77.395966 C 99.285187 77.443451 101.054764 77.894775 102.028641 77.894775 C 102.218658 77.894775 102.384918 77.871002 102.503693 77.835388 C 105.021484 76.885284 104.32077 73.666779 103.572571 71.778442 C 103.501312 71.529022 103.251907 71.398376 103.061874 71.33902 C 97.206818 70.768951 90.211639 70.139496 84.855392 67.372284 C 80.449249 64.41507 78.679672 59.688293 76.090622 55.270264 C 75.983734 55.080231 75.793716 54.997101 75.603699 54.997101 Z"/>
    <path id="Path-copy-11" fill="#51412e" fill-rule="evenodd" stroke="none" d="M 29.844009 55.590942 L 29.844009 55.590942 C 28.893898 57.099243 28.145691 58.738159 27.326218 60.377106 C 25.746658 63.274933 23.798935 66.232178 20.96048 67.871094 C 18.561447 69.260651 15.79425 69.830719 13.086441 70.329529 C 9.559158 70.958954 5.960609 71.588409 2.433327 71.909058 C 1.803879 73.488617 1.364456 75.127563 2.302689 76.445862 C 2.492714 76.754639 2.75399 77.0159 3.003395 77.26532 C 8.038979 76.255829 13.715889 77.075287 18.371429 74.67627 C 22.599419 72.5979 25.307236 68.191772 27.005554 63.654999 C 28.074432 61.006561 28.893898 58.239349 29.844009 55.590942 Z"/>
    <path id="Path-copy-10" fill="#51412e" fill-rule="evenodd" stroke="none" d="M 26.839287 62.324829 C 26.684891 62.728638 26.542374 63.132416 26.376106 63.524353 C 26.352356 63.631226 26.352356 63.738129 26.376106 63.821259 L 26.376106 63.821259 C 23.60891 70.3414 19.523438 74.878174 12.13633 75.816406 C 10.782425 76.006409 7.789574 76.647736 5.758713 76.647736 C 5.153023 76.647736 4.630455 76.588379 4.262291 76.445862 C 1.174431 75.186951 2.112663 72.977936 3.941628 72.348511 C 5.022377 71.968445 6.780083 71.968445 7.848961 71.778442 C 12.706398 71.0896 18.252663 70.59079 22.278755 67.621704 C 24.226486 66.196533 25.627892 64.343811 26.839287 62.324829 Z M 29.844009 54.997101 C 29.642113 54.997101 29.428337 55.080231 29.273941 55.270264 C 26.566132 59.99707 24.737167 65.353302 19.38092 67.871094 C 14.404716 70.210754 7.730194 70.768951 2.373947 71.279633 C 2.053284 71.279633 1.863266 71.398376 1.803879 71.719055 C 1.174431 73.298615 0.295578 76.754639 2.623352 77.704742 C 2.884628 77.823517 3.19342 77.871002 3.537834 77.871002 C 4.582954 77.871002 5.87748 77.419708 6.780083 77.324707 C 8.98909 77.134674 11.198097 77.075287 13.395226 76.754639 C 20.817963 75.697632 24.844055 70.483917 27.551865 63.892517 L 27.551865 63.892517 C 27.563744 63.880646 27.563744 63.856873 27.575623 63.845001 L 27.575623 63.845001 C 27.575623 63.845001 27.575623 63.845001 27.575623 63.845001 C 27.587494 63.821259 27.599373 63.785645 27.611252 63.761871 L 27.611252 63.761871 C 28.573235 61.208466 29.428337 58.536285 30.342819 55.911591 L 30.342819 55.911591 C 30.342819 55.911591 30.342819 55.911591 30.342819 55.899719 C 30.342819 55.899719 30.342819 55.899719 30.342819 55.899719 L 30.342819 55.899719 C 30.366577 55.840332 30.39032 55.780945 30.414078 55.709686 C 30.580338 55.305908 30.22406 54.997101 29.844009 54.997101 Z"/>
    <path id="Path-copy-9" fill="#ffffff" fill-rule="evenodd" stroke="none" d="M 52.706039 26.766968 C 50.615799 26.766968 49.190628 27.28952 49.190628 27.28952 C 48.050491 27.669556 46.862854 28.180237 45.722733 28.429657 C 45.5327 31.137451 45.283295 33.975922 44.653854 36.683746 C 43.703735 40.72171 41.946045 44.688416 38.917557 47.455597 C 36.459152 49.664612 33.430679 51.172913 31.233551 53.631317 C 30.663483 54.201385 30.164673 54.890228 29.78463 55.590942 C 28.834518 58.239349 27.955666 61.006561 26.946175 63.654999 C 25.247849 68.191772 22.540039 72.5979 18.181404 74.67627 C 13.585251 77.075287 7.979599 76.255829 2.872757 77.26532 C 3.2528 77.574097 3.632843 77.835388 3.941628 78.334198 C 4.891739 79.842499 4.012886 81.742706 3.31218 83.381653 C 2.623352 85.020599 2.302689 87.217712 3.882248 88.167847 C 4.511696 88.607269 5.200523 88.607269 5.90123 88.797272 C 9.369133 90.305573 7.029488 97.182007 10.55677 98.559662 C 11.257477 98.880341 12.13633 98.809082 12.765778 99.12973 C 15.034164 100.329254 13.64463 104.426605 15.663612 105.994263 C 17.183792 107.193787 19.630325 106.124908 21.150497 107.253174 C 21.969971 107.894501 22.409393 109.153381 23.169487 109.901611 C 24.04834 110.792328 25.366615 111.041748 26.566132 111.160492 C 29.974648 111.671173 33.311905 112.241241 36.64917 112.680664 C 36.64917 112.680664 46.055267 113.381378 55.580124 113.381378 C 60.342545 113.381378 65.128723 113.203247 68.786652 112.680664 C 72.183304 112.241241 75.53244 111.671173 78.86969 111.160492 C 80.069214 111.041748 81.387497 110.792328 82.266342 109.901611 C 83.026428 109.153381 83.347092 107.953888 84.285324 107.253174 C 85.793625 106.124908 88.252029 107.075012 89.700958 105.994263 C 91.791199 104.426605 90.342285 100.329254 92.670044 99.12973 C 93.358871 98.809082 94.118973 98.809082 94.879059 98.559662 C 98.406342 97.241394 95.947922 90.305573 99.47522 88.797272 C 100.10466 88.476624 100.924133 88.476624 101.553574 88.167847 C 103.061874 87.288971 102.753098 85.020599 102.123642 83.381653 C 101.363556 81.742706 100.544083 79.842499 101.494202 78.334198 C 101.802979 77.954163 102.183029 77.645355 102.563065 77.26532 C 97.51561 76.255829 91.850586 77.075287 87.183167 74.67627 C 82.967041 72.5979 80.259232 68.132385 78.489655 63.654999 C 77.420776 61.006561 76.601303 58.239349 75.651199 55.590942 C 75.211777 54.890228 74.772354 54.201385 74.202286 53.631317 C 72.005157 51.172913 68.917297 49.664612 66.518265 47.455597 C 63.430405 44.629028 61.660828 40.72171 60.722595 36.683746 C 60.09314 33.916534 59.903122 31.137451 59.713104 28.299011 C 58.51358 28.108978 57.38533 27.610168 56.245193 27.28952 C 54.962555 26.897614 53.75116 26.766968 52.706039 26.766968 Z"/>
    <path id="Path-copy-8" fill="#ffffff" fill-rule="evenodd" stroke="none" d="M 82.753265 108.583313 C 82.741394 108.607086 82.717651 108.618958 82.705765 108.630829 L 82.705765 108.630829 C 82.717651 108.618958 82.741394 108.595215 82.753265 108.583313 Z M 52.421005 26.481934 C 52.040955 26.481934 51.660919 26.493805 51.268997 26.541321 C 49.309387 26.731323 47.49231 27.610168 45.592087 28.108978 C 45.473328 28.108978 45.41394 28.239624 45.41394 28.429657 C 44.962631 35.175446 43.893768 42.420013 38.668152 47.336853 C 35.449661 50.294067 31.102905 52.063629 29.214569 56.220367 C 26.696777 61.885406 25.877304 68.191772 20.901108 72.5979 C 15.853645 77.0159 8.929718 76.065796 2.753998 77.0159 C 2.56398 77.0159 2.433334 77.395966 2.62336 77.455353 C 5.461815 79.973145 2.243317 83.120361 2.373955 85.958832 C 2.56398 87.847168 3.383446 87.847168 4.642342 88.737885 C 8.038986 91.006287 7.160133 92.823364 8.229012 96.172516 C 8.609055 97.490784 9.179123 98.060852 10.307373 98.809082 C 11.376251 99.509766 13.01519 99.759186 13.644638 101.208099 C 13.905914 101.647522 13.775276 102.46698 13.965302 102.977692 C 14.09594 103.856537 14.214706 104.866028 14.725388 105.55484 C 15.16481 106.124908 15.60424 106.433716 16.233688 106.754364 C 19.000885 107.894501 18.062653 106.314941 22.160004 109.272156 C 23.098236 109.97287 22.789452 110.281647 23.98896 110.911102 C 25.057838 111.481171 26.625519 111.540558 27.896294 111.73056 C 30.794113 112.241241 33.751343 112.680664 36.708557 112.989471 C 42.005417 113.571411 47.45668 113.820801 52.896057 113.820801 C 56.268951 113.820801 59.618088 113.7258 62.931595 113.55954 C 64.938705 113.500153 66.898315 113.238861 68.846039 112.989471 C 72.563339 112.490662 77.990845 112.609406 81.387497 110.911102 C 81.767532 110.721069 82.147583 110.412292 82.587006 110.162872 C 84.297195 109.177155 82.171326 109.177155 82.705765 108.630829 L 82.705765 108.630829 C 81.613144 109.628448 80.674911 110.447906 78.988464 110.851715 C 75.781845 111.73056 72.183304 111.861206 68.917297 112.360016 C 64.653671 112.953827 60.318802 113.155731 55.972046 113.155731 C 51.138351 113.155731 46.280914 112.906342 41.506607 112.680664 C 38.537521 112.490662 35.639679 112.169983 32.611206 111.73056 C 28.893906 111.160492 25.366623 111.23175 22.599426 108.393311 C 21.34053 107.134399 21.209892 107.003754 19.570953 106.433716 C 19.179031 106.279297 18.965256 106.243683 18.834618 106.243683 C 18.680222 106.243683 18.668343 106.314941 18.597084 106.314941 C 18.478325 106.314941 18.193291 106.113037 16.803757 105.05603 C 14.404724 103.286469 15.354836 104.236572 14.844154 102.348236 C 14.594749 101.647522 14.654129 100.828064 14.345345 100.198608 C 13.335854 98.250885 10.746803 98.809082 9.559166 97.051361 C 8.419029 95.471802 8.858459 93.084656 8.288391 91.315063 C 7.789581 89.806763 7.290771 89.61676 6.340668 88.666626 C 6.245651 88.583496 5.818108 88.381622 5.723091 88.381622 C 5.675591 88.381622 5.687462 88.417236 5.770599 88.476624 C 4.202919 87.217712 3.502213 85.519409 3.941635 83.500427 C 4.202919 82.680939 4.642342 81.861481 4.832367 80.982635 C 4.891747 80.483826 5.081772 79.913757 4.891747 79.343689 L 4.891747 79.343689 C 4.891747 79.343689 4.891747 79.343689 4.891747 79.343689 C 4.867996 79.343689 4.084152 77.692871 3.965393 77.692871 C 3.953514 77.692871 3.953514 77.692871 3.953514 77.692871 L 3.953514 77.692871 C 4.547333 76.576477 11.696915 76.885284 12.955811 76.754639 C 15.283577 76.445862 17.68261 75.816406 19.701591 74.557495 C 23.537659 72.099091 25.877304 68.00174 27.516243 63.904388 C 28.893906 60.436493 29.523354 56.4104 32.053009 53.512573 C 34.131378 51.244171 37.088593 49.914032 39.297607 47.776276 C 43.074295 44.248993 44.903259 39.082764 45.722733 34.035309 C 46.102768 31.137451 45.722733 28.86908 48.941223 27.859589 C 50.378265 27.408295 51.934067 27.099487 53.466125 27.099487 C 54.87941 27.099487 56.268951 27.348907 57.575348 27.990234 C 60.663208 29.498535 59.962509 33.025818 60.591949 36.113678 C 61.221405 39.011505 62.171509 41.849945 63.810455 44.367737 C 65.259369 46.576752 67.017075 48.215698 69.095444 49.723999 C 70.615616 50.864136 72.183304 51.802368 73.454071 53.073151 C 75.342407 54.961487 76.16188 57.289246 77.040741 59.807037 C 78.810318 64.913879 80.817429 70.460144 85.294815 73.856812 C 87.373184 75.436371 89.831589 76.196442 92.34938 76.576477 C 93.798309 76.825897 95.377869 76.885284 96.957428 77.075287 C 97.586868 77.134674 98.335083 77.134674 98.964523 77.205933 C 99.772125 77.324707 102.432434 77.087158 101.612961 78.191681 L 101.612961 78.191681 C 101.577332 78.17981 101.529831 78.167938 101.494202 78.167938 C 101.387314 78.167938 101.280426 78.227295 101.23291 78.334198 C 100.60347 79.913757 100.924133 80.982635 101.494202 82.562195 C 102.183029 84.450531 102.313675 84.011108 101.363556 86.27948 C 100.65097 88.001556 100.52034 88.393494 100.472824 88.393494 C 100.437195 88.393494 100.449081 88.120331 100.235306 88.120331 C 100.116531 88.120331 99.926514 88.215332 99.593979 88.476624 C 99.095169 88.856659 98.715118 88.987305 98.335083 89.426727 C 97.456223 90.436218 97.266205 91.944519 97.147446 93.20343 C 96.957428 94.022888 96.957428 94.913605 96.767395 95.661835 C 96.007309 97.811462 94.059586 97.740204 92.670044 98.880341 C 91.529922 99.818573 91.280518 100.447998 91.090485 101.896912 C 90.651062 104.046539 89.522812 105.495483 87.183167 106.374329 C 86.874374 106.504974 86.529968 106.504974 86.173676 106.504974 C 85.829254 106.504974 85.484833 106.504974 85.164185 106.623718 C 84.225937 106.944397 84.225937 107.193787 83.525238 107.894501 C 83.263962 108.132019 83.00267 108.357666 82.753265 108.583313 L 82.753265 108.583313 C 83.121445 108.286407 84.249695 107.835114 87.064392 107.003754 C 87.135651 106.991882 87.206909 106.991882 87.278168 106.991882 C 87.420685 106.991882 87.563202 107.003754 87.693848 107.003754 C 87.824493 107.003754 87.955124 106.991882 88.062012 106.944397 C 89.700958 106.374329 90.461044 106.065521 91.090485 104.355347 C 91.791199 102.158203 91.411148 100.578644 93.798309 99.12973 C 94.748413 98.559662 95.377869 98.809082 96.197327 97.930206 C 97.456223 96.54068 97.266205 94.343536 97.705627 92.573975 C 98.145065 90.186829 100.10466 89.925537 101.684219 88.476624 C 102.183029 88.037201 102.563065 87.787781 102.812469 87.098969 C 103.881348 84.129852 100.544083 81.552704 101.802979 78.5242 C 101.814865 78.488586 101.826736 78.452942 101.826736 78.417328 L 101.826736 78.417328 C 102.088013 78.084778 102.384918 77.716614 102.812469 77.455353 C 102.943115 77.324707 102.871857 77.0159 102.622452 77.0159 C 96.506119 76.065796 89.522812 77.0159 84.534729 72.5979 C 79.629791 68.191772 78.679672 61.956665 76.16188 56.220367 C 74.273544 51.933014 69.98616 50.353455 66.708282 47.336853 C 61.542068 42.360657 60.401932 35.175446 60.021881 28.299011 C 60.021881 28.180237 59.962509 28.108978 59.772476 27.990234 C 57.254684 27.325134 54.962555 26.481934 52.421005 26.481934 Z"/>
    <path id="Path-copy-7" fill="#211a12" fill-rule="evenodd" stroke="none" d="M 32.611206 72.039703 C 30.342819 72.039703 28.454468 73.92807 28.454468 76.196442 L 28.454468 77.324707 C 28.454468 79.593079 30.342819 81.481445 32.611206 81.481445 L 33.181274 81.481445 C 35.449661 81.481445 37.337997 79.593079 37.337997 77.324707 L 37.337997 76.196442 C 37.337997 73.92807 35.449661 72.039703 33.181274 72.039703 Z"/>
    <path id="Path-copy-6" fill="#211a12" fill-rule="evenodd" stroke="none" d="M 72.313934 72.039703 C 70.045547 72.039703 68.157211 73.92807 68.157211 76.196442 L 68.157211 77.324707 C 68.157211 79.593079 70.045547 81.481445 72.313934 81.481445 L 72.884003 81.481445 C 75.211777 81.481445 77.100113 79.593079 77.040741 77.324707 L 77.040741 76.196442 C 77.040741 73.92807 75.15239 72.039703 72.884003 72.039703 Z"/>
    <path id="Path-copy-5" fill="#d8d8d8" fill-rule="evenodd" stroke="none" d="M 52.777298 101.018066 C 51.078979 105.139191 46.744095 107.930115 42.32608 107.930115 C 42.017303 107.930115 41.69664 107.918243 41.375977 107.894501 L 41.375977 107.894501 C 42.955536 111.421783 45.91275 114.319611 49.689438 115.198456 C 50.425766 115.352875 51.173981 115.424133 51.910324 115.424133 C 54.546875 115.424133 57.147797 114.497772 59.202423 112.930084 C 60.972 111.611816 62.361526 109.842224 63.299759 107.894501 L 63.299759 107.894501 C 63.252258 107.894501 63.204758 107.894501 63.157242 107.894501 C 58.739243 107.894501 54.404358 105.067932 52.777298 101.018066 Z"/>
    <path id="Path-copy-4" fill="#eaeaea" fill-rule="evenodd" stroke="none" d="M 44.428207 95.032379 C 42.919907 95.032379 41.399719 95.12738 39.927048 95.54306 C 37.278625 96.172516 34.570801 98.120239 34.250153 100.899323 C 34.06012 102.538239 34.760834 104.236572 35.960342 105.495483 C 37.088593 106.694977 38.668152 107.514465 40.307098 107.763855 C 40.687149 107.894501 40.936539 107.894501 41.316589 107.953888 C 41.661011 107.989502 42.017303 108.013275 42.36171 108.013275 C 46.744095 108.013275 51.031464 105.162933 52.717911 101.077454 L 48.181137 95.091766 C 46.945999 95.091766 45.687103 95.032379 44.428207 95.032379 Z"/>
    <path id="Path-copy-3" fill="#eaeaea" fill-rule="evenodd" stroke="none" d="M 57.38533 94.972992 L 52.848557 100.958679 C 54.523117 105.067932 58.917389 107.823242 63.287888 107.823242 C 63.335388 107.823242 63.382904 107.823242 63.430405 107.823242 C 64.05986 107.823242 64.689301 107.704468 65.259369 107.633209 C 66.898315 107.324432 68.537247 106.623718 69.665512 105.364838 C 70.734375 104.236572 71.435089 102.538239 71.304443 100.768677 C 70.995651 98.060852 68.27597 96.04187 65.63942 95.412415 C 64.05986 95.04425 62.444672 94.996765 60.841354 94.996765 C 60.283173 94.996765 59.713104 95.008636 59.154907 95.008636 C 58.561096 95.008636 57.96727 94.996765 57.38533 94.972992 Z"/>
    <path id="Path-copy-2" fill="#ffb0ae" fill-rule="evenodd" stroke="none" d="M 53.216721 92.78775 C 51.70842 92.78775 50.176361 93.013397 50.12886 93.013397 C 49.059982 93.013397 47.991119 93.45282 47.49231 94.402924 C 47.112259 95.353027 47.682327 96.730713 48.679947 96.861328 C 48.763077 96.87323 48.834335 96.87323 48.917465 96.87323 C 49.154999 96.87323 49.368774 96.837585 49.58255 96.837585 C 49.736938 96.837585 49.879456 96.861328 50.010101 96.920715 C 50.58017 97.241394 50.639542 97.930206 50.829575 98.500275 C 51.078979 99.319763 51.518402 100.008575 52.219101 100.447998 L 53.157333 100.447998 C 53.917435 100.008575 54.356857 99.319763 54.606262 98.500275 C 54.736893 97.870819 54.855667 97.182007 55.366348 96.920715 C 55.520737 96.837585 55.675125 96.813843 55.829529 96.813843 C 56.067047 96.813843 56.316452 96.87323 56.577744 96.87323 C 56.637115 96.87323 56.696503 96.87323 56.755875 96.861328 C 57.824753 96.730713 58.394821 95.353027 57.88414 94.402924 C 57.504089 93.45282 56.304581 93.20343 55.306961 93.013397 C 54.736893 92.847137 53.976807 92.78775 53.216721 92.78775 Z"/>
    <path id="Path-copy" fill="#ffb0ae" fill-rule="evenodd" stroke="none" d="M 53.466125 93.049011 C 54.071823 93.049011 54.665634 93.096527 55.235703 93.20343 C 55.485107 93.334045 55.805771 93.393433 55.995789 93.45282 C 57.124054 93.714111 57.195313 94.723602 56.055176 96.54068 C 56.043304 96.552551 56.007675 96.564423 55.983917 96.564423 C 55.877029 96.564423 55.722641 96.516937 55.568237 96.516937 C 55.473236 96.516937 55.366348 96.54068 55.306961 96.611938 C 54.986298 96.920715 54.855667 97.051361 54.606262 97.490784 C 54.166824 98.310272 53.976807 100.139221 52.777298 100.139221 C 51.459015 100.139221 51.328384 98.440887 50.888947 97.490784 C 50.639542 97.051361 50.508911 96.920715 50.200119 96.671326 C 50.12886 96.62381 50.033859 96.611938 49.926971 96.611938 C 49.808197 96.611938 49.689438 96.62381 49.570679 96.62381 C 49.49942 96.62381 49.440033 96.62381 49.380646 96.611938 C 48.181137 94.533569 48.311783 93.45282 49.689438 93.45282 C 49.879456 93.45282 50.069473 93.393433 50.259506 93.393433 C 51.304626 93.191528 52.409134 93.049011 53.466125 93.049011 Z M 52.242859 92.348328 C 50.402023 92.348328 48.4543 92.668976 47.611069 93.773499 C 46.981628 94.652344 46.981628 95.911224 47.741714 96.611938 C 48.026749 96.87323 48.264267 96.920715 48.501801 96.920715 C 48.632446 96.920715 48.763077 96.896973 48.905594 96.896973 C 49.048111 96.896973 49.202499 96.920715 49.380646 96.991974 C 50.508911 97.360138 50.58017 98.809082 51.138351 99.569153 C 51.482773 100.151093 52.052841 100.661774 52.694153 100.661774 C 52.884186 100.661774 53.086075 100.614288 53.287979 100.519257 C 53.786789 100.329254 54.356857 99.509766 54.606262 99.070343 C 54.736893 98.749695 54.736893 98.250885 54.986298 97.930206 C 55.508865 97.075104 55.734512 96.861328 55.900787 96.861328 C 56.067047 96.861328 56.185822 97.051361 56.482727 97.051361 C 56.565857 97.051361 56.684616 97.03949 56.815262 96.991974 C 57.753494 96.611938 58.51358 95.911224 58.323563 94.723602 C 58.074158 93.20343 56.565857 92.894623 55.306961 92.573975 C 55.25946 92.573975 55.235703 92.585846 55.200073 92.609589 L 55.200073 92.609589 C 54.451859 92.467072 53.371109 92.348328 52.242859 92.348328 Z"/>
</svg>
