<?xml version="1.0" encoding="UTF-8"?>
<!-- Generated by Pixelmator Pro 3.4.1 -->
<svg width="131" height="127" viewBox="0 0 131 127" xmlns="http://www.w3.org/2000/svg">
    <g id="Group-copy">
        <path id="Path" fill="#919092" fill-rule="evenodd" stroke="none" d="M 64.540253 24.520691 C 62.865662 24.608368 61.234924 24.704803 59.64801 24.845062 C 59.323608 24.888916 58.91153 24.932739 58.534546 24.932739 C 57.140533 25.073029 55.834167 25.169464 54.440155 25.406189 C 52.344727 25.677979 50.258057 26.14267 48.206482 26.703766 C 46.391632 27.21228 44.576752 27.729553 42.858337 28.422211 C 37.554016 30.473785 32.582886 33.4021 28.295593 37.259796 C 26.533325 38.890533 24.806152 40.801849 22.579224 41.687347 L 22.579224 44.151001 L 18.90564 45.729156 C 19.133606 49.963837 17.923706 53.733826 16.301727 57.591522 C 14.758636 61.124786 14.022186 64.570404 11.277954 67.454895 C 9.603394 69.225922 7.507965 70.663788 6.113922 72.706604 C 5.368713 73.776245 4.904022 74.942322 4.527039 76.196045 C 4.062347 77.826813 4.018524 79.501373 4.202637 81.219818 C 4.24646 82.017639 4.342896 82.710266 4.527039 83.411682 C 5.044312 85.735046 5.921051 87.970734 7.043274 90.057404 C 12.575562 100.385468 22.438934 108.206024 33.740173 111.230804 C 36.396729 111.923431 39.14093 112.388092 41.744873 113.177185 C 46.06723 114.439697 50.065186 116.482513 54.299866 117.876526 C 57.394775 118.849731 60.787781 119.279327 64.189545 119.279327 C 64.364899 119.279327 64.549011 119.279327 64.724365 119.270569 C 64.943542 119.279327 65.16275 119.279327 65.381927 119.279327 C 68.774933 119.279327 72.080261 118.928619 75.140106 117.876526 C 79.374786 116.43866 83.372742 114.387085 87.703857 113.177185 C 90.3078 112.388092 93.052002 111.923431 95.699768 111.230804 C 107.009827 108.206024 116.960876 100.385468 122.405457 90.057404 C 124.728821 85.638611 126.175476 80.202789 124.86908 75.591095 L 124.86908 75.547272 C 124.544678 74.521484 124.080017 73.548279 123.475098 72.662781 C 123.05426 72.101654 122.589539 71.59314 122.124878 71.128479 C 120.818542 69.822113 119.4245 68.708649 118.2146 67.454895 C 115.470398 64.526581 114.681335 61.124786 113.243469 57.547668 C 111.568848 53.733826 110.358948 50.00766 110.586914 45.685303 L 106.91333 44.151001 L 106.91333 41.687347 C 104.677673 40.801849 102.959229 38.890533 101.188232 37.259796 C 96.865845 33.358276 91.938538 30.473785 86.634247 28.422211 C 83.977692 27.449005 81.23349 26.60733 78.445435 26.054993 C 76.402618 25.634155 74.351044 25.353577 72.352051 25.125641 C 71.88739 25.073029 71.378876 24.985352 70.861572 24.932739 C 69.002899 24.801239 67.091583 24.66095 65.145203 24.520691 Z"/>
        <path id="path1" fill="#a8a8a8" fill-rule="evenodd" stroke="none" d="M 18.344543 68.989197 C 18.248077 69.453888 18.248077 69.918549 18.344543 70.38324 C 18.993317 76.43277 23.043884 82.061493 28.576141 84.709259 L 27.506531 85.086243 C 30.347168 88.111023 34.529266 89.505035 38.483368 90.802643 C 35.458618 89.224487 32.810822 86.804688 30.811859 83.96402 L 30.811859 83.96402 C 31.372986 84.200745 31.785034 84.42868 32.346161 84.665405 C 26.813904 80.246613 21.369293 75.363159 18.344543 68.989197 Z"/>
        <path id="path2" fill="#878688" fill-rule="evenodd" stroke="none" d="M 83.977692 60.248047 L 83.977692 60.248047 C 80.952911 61.64209 78.348999 63.965454 76.586731 66.806122 C 76.534119 65.780304 76.534119 64.710693 76.490295 63.684906 C 73.605804 65.27182 73.141113 69.225922 70.958038 71.59314 C 69.46756 73.180054 67.223083 73.969116 65.09259 73.969116 C 65.031219 73.969116 64.969849 73.969116 64.908478 73.969116 C 59.560333 73.776245 57.929596 70.479675 55.650055 66.288818 C 54.904816 64.894806 53.791351 63.869019 53.002289 62.518829 L 53.002289 62.518829 C 53.142548 64.333679 53.975464 66.104706 55.141541 67.454895 C 52.160614 65.035095 48.907867 62.939667 45.418427 61.221252 L 45.418427 61.221252 C 46.628326 62.85199 47.794403 64.473969 49.048157 66.104706 C 45.46228 64.149567 41.744873 62.518829 37.93103 61.361511 L 37.93103 61.361511 C 38.948059 62.755554 40.35083 63.921631 41.928986 64.614258 C 39.886169 63.974213 37.72937 63.649841 35.546265 63.649841 C 34.739685 63.649841 33.941833 63.693665 33.135223 63.781342 C 34.739685 64.149567 36.352875 64.833435 37.685547 65.832916 L 37.685547 65.832916 C 37.334839 65.578674 36.914001 65.47345 36.440552 65.47345 C 34.204865 65.47345 31.00473 67.910797 30.811859 69.550323 C 31.837646 69.690613 32.530273 70.38324 33.275513 70.944336 C 32.810822 71.829865 31.977936 72.522491 30.995972 72.80304 C 31.837646 73.171295 32.582886 73.504456 33.319336 73.872681 C 33.231659 74.854645 32.626709 75.731384 31.88147 76.292511 C 32.626709 76.660736 33.512238 76.660736 34.3013 76.713348 C 35.134216 76.757172 36.063568 76.993896 36.536987 77.686523 C 37.001678 78.387909 36.764954 79.545227 35.932037 79.738098 C 37.93103 79.922211 40.298248 80.474579 40.815521 82.385864 C 41.262665 82.271912 41.709808 82.210541 42.148163 82.210541 C 44.340027 82.210541 46.453003 83.525635 48.118805 85.033661 C 50.065186 86.804688 51.739777 89.084198 54.159576 90.294128 C 57.464905 92.012543 61.375214 91.600464 65.004913 92.012543 C 66.697052 92.144043 68.38916 92.538574 70.081268 92.538574 C 70.247864 92.538574 70.414459 92.538574 70.581024 92.529816 C 72.115326 92.389526 73.982788 92.012543 75.420654 91.363739 C 75.841492 91.135803 80.216461 88.435425 80.216461 88.435425 C 80.076172 88.058411 79.979736 87.690186 79.839447 87.269348 C 81.145813 86.524109 82.44339 85.77887 83.749756 85.033661 C 85.380493 84.104309 87.002472 83.174957 88.589386 82.105316 C 90.728638 80.66745 92.815277 79.036713 94.726593 77.221832 L 94.726593 77.221832 C 94.077789 77.265686 93.516693 77.458557 93.008179 77.730347 C 95.89267 74.337341 97.006104 69.085663 97.330505 64.66684 L 97.330505 64.66684 C 97.085022 65 96.681732 65.324402 96.304749 65.324402 C 96.260895 65.324402 96.208282 65.324402 96.164459 65.315643 C 95.840057 64.333679 95.655945 63.31665 95.655945 62.290863 C 95.577026 62.211975 95.489349 62.185669 95.401703 62.185669 C 94.998383 62.185669 94.559998 62.834442 94.025208 62.992279 C 93.981354 63.001038 93.928741 63.001038 93.884918 63.001038 C 93.507904 63.001038 93.13092 62.702942 93.008179 62.290863 C 92.867889 61.826202 92.911743 61.361511 93.052002 60.896851 L 93.052002 60.896851 C 91.377441 61.870026 89.422272 62.518829 87.519745 62.85199 C 87.326874 62.10675 87.28302 61.317688 87.326874 60.519836 L 87.326874 60.519836 C 85.932831 61.317688 84.775543 62.334717 83.793579 63.544617 L 83.977692 60.248047 Z"/>
        <path id="path3" fill="#878688" fill-rule="evenodd" stroke="none" d="M 122.221313 70.98819 C 121.423462 72.478668 120.818542 74.109406 120.546753 75.731384 C 119.705078 75.643707 118.916016 75.266693 118.267212 74.661743 C 117.241394 76.196045 116.636475 77.967072 116.592651 79.781952 C 116.355896 79.720581 116.12793 79.685486 115.891235 79.685486 C 114.278015 79.685486 112.691101 81.132141 112.726196 82.75412 C 112.173828 82.385864 111.568848 82.105316 111.007751 81.780914 L 109.657593 83.08728 C 109.613708 82.289429 108.964966 81.596802 108.167114 81.456512 C 106.545105 83.174957 104.958191 84.849518 103.336243 86.524109 L 101.749329 84.945984 C 100.863831 86.103271 99.934448 87.225525 99.101563 88.338989 C 98.926208 88.312683 98.759644 88.303894 98.58429 88.303894 C 96.944763 88.303894 95.392914 89.487518 95.050995 91.083191 C 94.963318 89.785614 94.489868 88.523102 93.753418 87.453461 C 92.490906 90.057404 90.816315 93.082184 87.931824 93.318878 L 85.284058 89.689178 C 80.584686 88.759827 75.929169 87.830475 71.238586 86.901123 C 69.46756 86.524109 68.213806 85.735046 66.819794 84.665405 C 66.013184 84.042938 65.189056 83.841278 64.312286 83.841278 C 63.619659 83.841278 62.891968 83.96402 62.120422 84.104309 C 61.743439 84.156891 61.419037 84.200745 61.094635 84.341003 C 60.717651 84.481293 60.305573 84.805695 59.928558 85.033661 C 58.446869 86.103271 56.903809 86.576721 55.185364 87.181671 C 53.835175 87.59375 52.818176 88.295135 51.415375 88.523102 C 51.695923 88.575714 51.976501 88.575714 52.25705 88.619537 C 51.275085 89.505035 50.205475 90.197693 49.048157 90.855225 C 49.188446 91.135803 49.556671 91.363739 49.881073 91.363739 C 49.793396 92.293091 49.793396 92.994507 49.048157 93.546844 C 48.82019 93.704651 47.338501 94.072906 46.812469 94.072906 C 46.698486 94.072906 46.628326 94.055359 46.628326 94.011536 L 46.628326 95.782532 C 43.182739 95.274048 39.929993 93.739716 37.32608 91.460205 C 37.133179 91.924866 36.949066 92.477203 36.764954 92.994507 C 32.162048 90.294128 27.971191 86.9888 24.297638 83.174957 C 23.271851 83.69223 22.482758 84.665405 22.342499 85.831482 L 18.160431 81.824768 C 17.809723 81.482819 17.432709 81.219818 17.082031 81.219818 C 17.046936 81.219818 17.02066 81.219818 16.994354 81.219818 C 16.669952 81.316254 16.573517 81.640656 16.573517 81.87735 C 13.785461 78.896423 10.532745 76.43277 6.990692 74.477631 L 6.990692 74.477631 C 7.087128 75.722626 7.130951 76.871155 7.27124 78.072296 L 7.27124 78.072296 C 7.183563 77.677765 5.877228 76.914978 4.527039 76.196045 C 4.062347 77.826813 4.018524 79.501373 4.202637 81.219818 C 4.24646 82.017639 4.342896 82.710266 4.527039 83.411682 C 5.044312 85.735046 5.921051 87.970734 7.043274 90.057404 C 12.575562 100.385468 22.438934 108.206024 33.740173 111.230804 C 36.396729 111.923431 39.14093 112.388092 41.744873 113.177185 C 46.06723 114.439697 50.065186 116.482513 54.299866 117.876526 C 57.394775 118.849731 60.787781 119.279327 64.189545 119.279327 C 64.364899 119.279327 64.549011 119.279327 64.724365 119.270569 C 64.943542 119.279327 65.16275 119.279327 65.381927 119.279327 C 68.774933 119.279327 72.080261 118.928619 75.140106 117.876526 C 79.374786 116.43866 83.372742 114.387085 87.703857 113.177185 C 90.3078 112.388092 93.052002 111.923431 95.699768 111.230804 C 107.009827 108.206024 116.960876 100.385468 122.405457 90.057404 C 124.728821 85.638611 126.175476 80.202789 124.965515 75.503418 L 124.965515 75.406982 C 124.684998 74.433807 124.220337 73.451843 123.571533 72.575104 C 123.150696 72.013977 122.686035 71.45285 122.221313 70.98819 Z"/>
        <path id="path4" fill="#d8d3cb" fill-rule="evenodd" stroke="none" d="M 128.358521 74.661743 C 128.358521 74.714355 128.262085 74.714355 128.218262 74.714355 C 122.686035 76.336334 118.451355 79.501373 114.725159 83.876343 C 114.260498 84.42868 113.795776 85.033661 113.331116 85.638611 C 113.471436 84.945984 113.515259 84.244568 113.611694 83.551941 L 113.611694 83.551941 C 107.755005 87.918152 101.46875 91.784576 94.910675 94.949646 C 94.963287 94.344696 95.094788 93.64328 95.1474 92.994507 L 95.1474 92.994507 C 93.341309 94.432373 89.255676 97.018768 86.309814 97.018768 C 85.845123 97.018768 85.39798 96.957397 85.003448 96.80835 C 83.749725 96.343658 82.399536 94.204407 81.373718 93.318878 C 79.88327 92.108978 78.40155 91.083191 76.630524 90.390564 C 74.912109 89.689178 73.053406 89.320923 71.185944 88.987762 C 70.116333 88.80365 69.099304 88.575714 68.020905 88.382813 C 66.714539 88.137329 65.530945 88.005829 64.373627 88.005829 C 62.970856 88.005829 61.59436 88.189941 60.068817 88.575714 C 56.719666 89.461212 53.142517 90.434387 50.766541 92.994507 C 49.372528 94.484955 48.259064 96.571625 46.251312 96.948608 C 45.698975 96.992462 45.181671 96.992462 44.71701 97.229187 C 44.164642 97.500977 43.927948 98.158539 43.463257 98.623199 C 43.007355 99.044037 42.384857 99.219391 41.753601 99.219391 C 41.481812 99.219391 41.210022 99.184326 40.95578 99.131714 C 39.184753 98.763489 38.255402 97.360687 37.089325 96.106934 C 37.045471 96.711884 36.949036 97.360687 36.861359 97.921814 C 32.162018 95.133759 27.225922 92.757782 22.114502 90.899078 L 22.114502 90.899078 C 22.158356 91.688141 22.202179 92.573669 22.298615 93.406555 C 19.089752 91.924866 16.854034 88.987762 14.293945 86.524109 C 12.759644 85.086243 11.041229 84.156891 9.129913 83.271393 C 7.87616 82.710266 6.718872 81.921204 5.316071 81.552979 C 3.737915 81.132141 2.300049 80.66745 0.897278 79.922211 L 0.897278 79.922211 C 1.037537 80.290466 1.22168 80.755127 1.414551 81.219818 C 2.76474 84.56897 4.299042 87.734009 6.157745 90.855225 C 5.596619 91.083191 5.175781 91.547852 4.991669 92.108978 C 7.227386 93.275055 8.437286 96.106934 7.692047 98.526764 C 7.779724 98.518005 7.87616 98.509216 7.963837 98.509216 C 9.533203 98.509216 10.988617 100.017212 10.804504 101.595367 C 14.995331 103.506683 18.020111 108.206024 22.623016 108.43399 C 22.579193 108.898651 22.438904 109.363342 22.395081 109.828003 C 28.207886 112.949219 35.134186 112.808929 41.420441 114.62381 C 43.507111 115.184937 45.698975 116.114258 46.812439 118.069427 C 47.320953 117.92038 47.855743 117.85022 48.381805 117.85022 C 51.020813 117.85022 53.686096 119.59494 54.53656 122.111206 C 54.860962 121.646545 55.088898 121.181854 55.369476 120.717194 C 58.490662 123.461395 62.348358 125.276276 66.398926 125.977661 C 65.855347 125.223663 66.583038 125.118439 67.100311 125.118439 C 67.293213 125.118439 67.451019 125.135986 67.51239 125.135986 C 67.565002 125.135986 67.617584 125.135986 67.670197 125.135986 C 68.091034 125.135986 68.424194 125.206116 68.766144 125.206116 C 69.143127 125.206116 69.511353 125.10968 69.976044 124.715149 C 70.721283 124.110199 71.422668 123.277283 72.395844 123.180847 C 72.536133 123.645508 72.676422 124.022522 72.816681 124.487183 C 74.447449 123.505249 75.929138 122.391754 77.33194 121.181854 C 77.516052 121.602692 77.744019 121.970917 77.93689 122.391754 C 79.655304 120.945129 81.373718 119.46344 83.004486 117.876526 L 83.004486 117.876526 C 82.934326 118.235992 83.293793 118.45517 83.679565 118.45517 C 83.802307 118.45517 83.91629 118.437653 84.030273 118.393799 C 84.442352 118.200928 84.7229 117.736237 85.003448 117.411865 C 85.704865 116.526337 86.958588 115.553162 88.028229 115.184937 C 88.335083 115.070953 88.641937 115.035889 88.957581 115.035889 C 89.737885 115.035889 90.518188 115.281372 91.298492 115.281372 C 91.552734 115.281372 91.815765 115.255066 92.078796 115.184937 C 91.657959 114.948212 91.657959 114.343231 91.938507 114.01886 C 92.210297 113.738281 92.683746 113.554169 93.095825 113.457733 C 94.682739 112.993073 96.3573 112.712494 97.979309 112.572235 C 97.795227 112.300415 97.70752 111.923431 97.514648 111.642883 C 99.145386 111.45874 100.819946 111.230804 102.538391 111.090515 L 102.398132 109.828003 L 102.398132 109.828003 C 102.582214 109.863068 102.766357 109.871857 102.950439 109.871857 C 103.923645 109.871857 104.844238 109.468536 105.475464 108.758392 C 106.027832 108.109589 106.957214 108.346313 107.755005 108.206024 C 108.587952 108.153412 109.377014 107.039948 108.684387 106.671722 C 114.725159 102.577332 120.309998 97.737701 125.193481 92.336945 L 125.193481 92.336945 C 124.842773 92.424622 124.492126 92.477203 124.150146 92.477203 C 123.755615 92.477203 123.378662 92.415833 123.010376 92.293091 C 124.036194 91.135803 124.965515 89.785614 125.710754 88.382813 L 125.710754 88.382813 C 124.912964 88.435425 124.036194 88.575714 123.194519 88.619537 C 124.080017 86.576721 125.894897 85.033661 127.052185 83.174957 C 128.639099 80.66745 129.10376 77.502411 128.358521 74.661743 Z"/>
        <path id="path5" fill="#cac6be" fill-rule="evenodd" stroke="none" d="M 128.402405 74.61792 L 128.402405 74.61792 C 128.402405 74.661743 128.358521 74.661743 128.262085 74.661743 C 124.965515 80.343048 121.616394 86.059448 118.267212 91.731995 C 117.986633 92.205414 117.565796 92.757782 117.057312 92.757782 C 116.776733 92.757782 116.592651 92.43338 116.592651 92.152832 L 113.103149 96.527771 C 112.778809 96.992462 112.357971 97.457123 111.840637 97.457123 C 111.831909 97.457123 111.814392 97.457123 111.796814 97.457123 C 111.262024 97.457123 110.832397 96.746979 111.244507 96.387512 L 111.244507 96.387512 C 109.333191 98.062073 107.474487 99.692841 105.615784 101.270966 C 105.308899 101.060547 105.002075 100.97287 104.703979 100.97287 C 102.854004 100.97287 101.039185 104.374664 98.838501 104.374664 C 98.707031 104.374664 98.5755 104.365875 98.44397 104.339569 C 97.935486 104.19931 97.470825 103.927521 96.96228 103.787231 C 96.83078 103.760925 96.708038 103.752167 96.585297 103.752167 C 94.568787 103.752167 93.578064 106.864594 91.5177 107.741364 C 91.324829 106.741852 90.325317 106.207062 89.29953 106.207062 C 88.843628 106.207062 88.378967 106.312256 87.984436 106.531433 C 86.721924 107.22406 86.029266 108.618103 85.380493 109.880615 C 85.003479 109.275665 84.635254 108.670715 84.214417 108.109589 C 83.328918 109.17923 82.767792 110.529419 82.583679 111.923431 C 82.583679 111.45874 82.215424 111.037903 81.750763 110.99408 C 80.952911 113.554169 80.120026 116.158112 79.330933 118.718201 C 79.138062 118.665588 78.94519 118.648071 78.752289 118.648071 C 77.849243 118.648071 76.954956 119.147797 76.490295 119.875519 C 76.236023 119.428375 75.71875 119.217957 75.192719 119.217957 C 74.473785 119.217957 73.737305 119.603729 73.605804 120.296356 C 73.439209 119.963196 73.044678 119.814148 72.650146 119.814148 C 72.369598 119.814148 72.097809 119.884277 71.88739 120.015778 C 71.28241 120.348938 71.001862 120.997742 70.773895 121.646545 C 69.791962 121.138031 69.099335 119.875519 69.187012 118.718201 L 69.187012 118.718201 C 67.188019 119.831665 64.671753 119.743988 62.909515 121.365967 C 62.769226 121.041595 62.532501 120.761017 62.164276 120.67334 C 62.164276 121.181854 61.638214 121.593933 61.120941 121.593933 C 60.92807 121.593933 60.743927 121.541321 60.586121 121.418579 C 60.112671 120.988983 59.884735 119.989502 59.31485 119.989502 C 59.262238 119.989502 59.200867 119.99826 59.139496 120.015778 C 58.578369 120.208679 58.674835 121.138031 58.166321 121.418579 C 55.185364 119.086426 54.624268 116.061676 52.765564 113.089508 C 52.695435 113.098267 52.634033 113.107025 52.563904 113.107025 C 51.809906 113.107025 51.143585 112.414398 51.231262 111.642883 C 50.5737 111.537659 49.881073 111.485046 49.188446 111.485046 C 48.951721 111.485046 48.723755 111.493835 48.48703 111.502594 C 48.118805 110.809967 47.88208 110.108551 47.697968 109.363342 C 46.768616 109.828003 45.883118 110.485565 45.181702 111.274628 C 44.673187 110.573242 44.208527 109.828003 43.700012 109.135376 C 39.184784 108.854828 34.862427 107.969299 30.575134 106.531433 C 30.952148 106.338562 31.232697 106.110596 31.600922 105.873871 C 28.392029 104.94455 25.323425 103.734619 22.298645 102.340607 C 22.763336 102.340607 23.131561 102.296753 23.605011 102.296753 C 21.272858 100.946564 18.949493 99.508728 16.766388 97.921814 L 19.878845 97.737701 C 18.90564 97.737701 16.626099 95.598419 15.88089 95.081146 C 11.365631 91.688141 7.87619 87.646362 3.97467 83.639618 C 3.36972 83.034668 2.528046 82.105316 1.414581 81.219818 L 1.414581 81.219818 C 2.764771 84.56897 4.299072 87.734009 6.157776 90.855225 C 5.596649 91.083191 5.175812 91.547852 4.991699 92.108978 C 7.227417 93.275055 8.437317 96.106934 7.692078 98.526764 C 7.779755 98.518005 7.87619 98.509216 7.963867 98.509216 C 9.533234 98.509216 10.988647 100.017212 10.804535 101.595367 C 14.995361 103.506683 18.020142 108.206024 22.623047 108.43399 C 22.579224 108.898651 22.438934 109.363342 22.395111 109.828003 C 28.207916 112.949219 35.134216 112.808929 41.420471 114.62381 C 43.507141 115.184937 45.699005 116.114258 46.812469 118.069427 C 47.320984 117.92038 47.855774 117.85022 48.381836 117.85022 C 51.020844 117.85022 53.686127 119.59494 54.536591 122.111206 C 54.860992 121.646545 55.088928 121.181854 55.369507 120.717194 C 58.490692 123.461395 62.348389 125.276276 66.398956 125.977661 C 65.855377 125.223663 66.583069 125.118439 67.100342 125.118439 C 67.293243 125.118439 67.45105 125.135986 67.512421 125.135986 C 67.565033 125.135986 67.617615 125.135986 67.670227 125.135986 C 68.091064 125.135986 68.424225 125.206116 68.766174 125.206116 C 69.143158 125.206116 69.511383 125.10968 69.976074 124.715149 C 70.721313 124.110199 71.422699 123.277283 72.395874 123.180847 C 72.536163 123.645508 72.676453 124.022522 72.816711 124.487183 C 74.447479 123.505249 75.929169 122.391754 77.33197 121.181854 C 77.516083 121.602692 77.744049 121.970917 77.93692 122.391754 C 79.655334 120.945129 81.373749 119.46344 83.004517 117.876526 L 83.004517 117.876526 C 82.934357 118.235992 83.293823 118.45517 83.679596 118.45517 C 83.802338 118.45517 83.916321 118.437653 84.030304 118.393799 C 84.442383 118.200928 84.722931 117.736237 85.003479 117.411865 C 85.704895 116.526337 86.958618 115.553162 88.028259 115.184937 C 88.335114 115.070953 88.641968 115.035889 88.957611 115.035889 C 89.737915 115.035889 90.518219 115.281372 91.298523 115.281372 C 91.552765 115.281372 91.815796 115.255066 92.078827 115.184937 C 91.65799 114.948212 91.65799 114.343231 91.938538 114.01886 C 92.210327 113.738281 92.683777 113.554169 93.095856 113.457733 C 94.68277 112.993073 96.35733 112.712494 97.979309 112.572235 C 97.795227 112.300415 97.70752 111.923431 97.514648 111.642883 C 99.145386 111.45874 100.819946 111.230804 102.538391 111.090515 L 102.398132 109.828003 L 102.398132 109.828003 C 102.582214 109.863068 102.766357 109.871857 102.950439 109.871857 C 103.923645 109.871857 104.844238 109.468536 105.475464 108.758392 C 106.027832 108.109589 106.957214 108.346313 107.755005 108.206024 C 108.587952 108.153412 109.377014 107.039948 108.684387 106.671722 C 114.725159 102.577332 120.309998 97.737701 125.193481 92.336945 L 125.193481 92.336945 C 124.842773 92.424622 124.492126 92.477203 124.150146 92.477203 C 123.755615 92.477203 123.378662 92.415833 123.010376 92.293091 C 124.036194 91.135803 124.965515 89.785614 125.710754 88.382813 L 125.710754 88.382813 C 124.912964 88.435425 124.036194 88.575714 123.194519 88.619537 C 124.080017 86.576721 125.894897 85.033661 127.052185 83.174957 C 128.639099 80.66745 129.10376 77.502411 128.402405 74.61792 Z"/>
        <path id="path6" fill="#c2ad5d" fill-rule="evenodd" stroke="none" d="M 43.603577 65.315643 C 42.814484 65.315643 41.744873 65.315643 40.999634 65.736481 C 39.325043 66.525543 37.694305 67.639008 36.72113 69.269775 C 34.669525 72.575104 36.764954 76.800995 39.281219 79.273438 C 39.929993 79.922211 40.719086 80.527191 41.604584 80.948029 C 42.691742 81.456512 43.936737 81.588043 45.155396 81.588043 C 45.602539 81.588043 46.049683 81.570496 46.488068 81.552979 C 48.811432 81.360077 51.143585 81.360077 53.370514 80.755127 C 53.607239 77.265686 53.554626 73.776245 51.739777 70.663788 C 50.065186 67.682861 46.996582 65.499756 43.603577 65.315643 Z"/>
        <path id="path7" fill="#c2ad5d" fill-rule="evenodd" stroke="none" d="M 85.792572 65.315643 C 82.399567 65.499756 79.330933 67.682861 77.656372 70.663788 C 75.841492 73.776245 75.797668 77.265686 76.025604 80.755127 C 78.261322 81.360077 80.584686 81.360077 82.908081 81.552979 C 83.346436 81.570496 83.793579 81.588043 84.240723 81.588043 C 85.46817 81.588043 86.704376 81.456512 87.791534 80.948029 C 88.633209 80.527191 89.422272 79.922211 90.123688 79.273438 C 92.631165 76.800995 94.726593 72.575104 92.683777 69.269775 C 91.701813 67.639008 90.071075 66.525543 88.396484 65.736481 C 87.660034 65.315643 86.581635 65.315643 85.792572 65.315643 Z"/>
        <path id="path8" fill="#bc964c" fill-rule="evenodd" stroke="none" d="M 43.033691 65.298096 C 42.306 65.298096 41.551971 65.394562 40.955811 65.736481 C 39.281219 66.569397 37.650482 67.682861 36.624664 69.269775 C 35.695313 70.760223 35.651489 72.382202 36.063568 74.01297 C 36.256439 73.40799 36.440552 72.759216 36.808807 72.154266 C 37.790741 70.523499 39.41272 69.453888 41.139923 68.620972 C 41.885162 68.200134 42.902161 68.200134 43.743835 68.200134 C 47.093018 68.384247 50.205475 70.619965 51.880035 73.548279 C 52.818176 75.179016 53.282837 76.941284 53.466949 78.756165 C 53.510803 75.968109 53.142548 73.171295 51.695923 70.663788 C 50.021332 67.682861 46.952728 65.499756 43.559723 65.315643 C 43.384369 65.306885 43.209045 65.298096 43.033691 65.298096 Z"/>
        <path id="path9" fill="#bc964c" fill-rule="evenodd" stroke="none" d="M 85.792572 65.219208 C 82.399567 65.40332 79.330933 67.639008 77.656372 70.619965 C 75.841492 73.732391 75.797668 77.221832 76.025604 80.711304 L 76.069458 80.711304 C 76.12207 78.291473 76.490295 75.82782 77.744049 73.548279 C 79.41861 70.619965 82.496002 68.384247 85.889008 68.200134 C 86.055573 68.191376 86.230927 68.182587 86.406281 68.182587 C 87.142761 68.182587 87.896759 68.279053 88.49292 68.620972 C 90.211365 69.497711 91.798279 70.619965 92.815277 72.154266 C 93.052002 72.575104 93.236115 72.987152 93.376404 73.364166 C 93.613129 71.917542 93.516693 70.479675 92.683777 69.173309 C 91.701813 67.551331 90.071075 66.472961 88.396484 65.640045 C 87.660034 65.219208 86.581635 65.219208 85.792572 65.219208 Z"/>
        <path id="path10" fill="#373433" fill-rule="evenodd" stroke="none" d="M 43.559723 65.359467 C 46.628326 65.54361 49.793396 67.551331 51.467987 70.619965 C 53.282837 73.776245 53.282837 77.362122 53.089966 80.430725 C 51.415375 80.895416 49.740784 80.948029 47.925934 81.079529 C 47.417419 81.132141 46.952728 81.132141 46.391632 81.175964 C 45.839264 81.219818 45.374603 81.219818 44.953766 81.219818 C 43.603577 81.219818 42.577789 81.079529 41.648438 80.66745 C 40.903198 80.343048 40.210571 79.781952 39.368896 79.036713 C 36.808807 76.529205 34.950104 72.478668 36.861389 69.313599 C 37.694305 67.963409 39.088318 66.806122 41.043488 65.824158 C 41.604584 65.596191 42.209534 65.499756 43.095062 65.499756 C 43.279175 65.499756 43.419464 65.499756 43.559723 65.359467 Z M 43.04245 65.035095 C 42.113098 65.035095 41.420471 65.131531 40.815521 65.40332 C 38.80777 66.472961 37.32608 67.682861 36.484406 69.085663 C 34.441589 72.382202 36.396729 76.757172 39.088318 79.361115 C 39.973846 80.202789 40.719086 80.755127 41.508148 81.132141 C 42.4375 81.500366 43.603577 81.780914 44.997589 81.780914 L 46.391632 81.780914 C 46.952728 81.684479 47.417419 81.640656 47.925934 81.640656 C 49.793396 81.500366 51.608246 81.412689 53.370514 80.948029 L 53.554626 80.895416 L 53.554626 80.711304 C 53.747528 77.502411 53.791351 73.872681 51.880035 70.479675 C 50.117798 67.358459 46.812469 65.175354 43.559723 65.035095 Z"/>
        <path id="path11" fill="#373433" fill-rule="evenodd" stroke="none" d="M 86.257233 65.596191 C 87.098907 65.596191 87.747711 65.683868 88.256226 65.964447 C 90.263947 66.990234 91.65799 68.103699 92.447052 69.453888 C 94.402191 72.522491 92.543488 76.660736 89.983398 79.133148 C 89.194336 79.922211 88.449097 80.430725 87.703857 80.755127 C 86.774506 81.175964 85.704895 81.360077 84.398529 81.360077 C 83.933868 81.360077 83.469177 81.360077 82.908081 81.316254 C 82.399567 81.219818 81.934875 81.175964 81.426361 81.175964 C 79.611511 81.079529 77.93692 80.948029 76.262329 80.527191 C 76.069458 77.458557 76.069458 73.916504 77.796631 70.8479 C 79.515076 67.82312 82.583679 65.780304 85.704895 65.596191 Z M 85.704895 64.938629 C 82.44339 65.131531 79.190674 67.270782 77.419647 70.427063 C 75.464508 73.732391 75.51709 77.458557 75.701233 80.66745 L 75.701233 80.851563 L 75.885345 80.895416 C 77.700195 81.412689 79.515076 81.456512 81.373749 81.596802 C 81.891052 81.640656 82.355713 81.640656 82.864227 81.684479 C 83.469177 81.780914 83.837402 81.780914 84.302094 81.780914 C 85.792572 81.780914 86.862183 81.596802 87.747711 81.079529 C 88.589386 80.711304 89.334595 80.150177 90.211365 79.317261 C 92.911743 76.713348 94.866882 72.338379 92.815277 69.033051 C 91.938538 67.639008 90.535736 66.429108 88.449097 65.359467 C 87.931824 65.078918 87.186584 64.938629 86.257233 64.938629 Z"/>
        <path id="path12" fill="#373433" fill-rule="evenodd" stroke="none" d="M 83.469177 67.411072 C 81.470215 67.411072 79.839447 70.058838 79.839447 73.364166 C 79.839447 76.713348 81.470215 79.361115 83.469177 79.361115 C 85.424316 79.361115 87.055084 76.713348 87.055084 73.364166 C 87.055084 70.058838 85.424316 67.411072 83.469177 67.411072 Z"/>
        <path id="path13" fill="#373433" fill-rule="evenodd" stroke="none" d="M 46.023376 67.411072 C 44.024414 67.411072 42.393646 70.058838 42.393646 73.364166 C 42.393646 76.713348 44.024414 79.361115 46.023376 79.361115 C 47.978516 79.361115 49.600494 76.713348 49.600494 73.364166 C 49.600494 70.058838 47.978516 67.411072 46.023376 67.411072 Z"/>
        <path id="path14" fill="#ffffff" fill-rule="evenodd" stroke="none" d="M 43.235352 68.989197 C 41.648438 68.989197 40.438507 69.453888 40.438507 70.058838 C 40.438507 70.663788 41.648438 71.172302 43.235352 71.172302 C 44.769653 71.172302 46.023376 70.663788 46.023376 70.058838 C 46.023376 69.453888 44.769653 68.989197 43.235352 68.989197 Z"/>
        <path id="path15" fill="#ffffff" fill-rule="evenodd" stroke="none" d="M 80.62854 70.058838 C 79.094238 70.058838 77.840485 70.567352 77.840485 71.172302 C 77.840485 71.777252 79.094238 72.294525 80.62854 72.294525 C 82.215424 72.294525 83.425354 71.777252 83.425354 71.172302 C 83.425354 70.567352 82.215424 70.058838 80.62854 70.058838 Z"/>
        <path id="path16" fill="#a4847d" fill-rule="evenodd" stroke="none" d="M 64.277222 89.619019 C 61.980164 89.619019 59.262238 90.460693 56.298828 92.994507 C 56.298828 92.994507 56.395294 93.739716 56.816132 94.712921 C 57.649017 96.86972 59.577881 100.324097 63.374176 100.324097 C 63.584595 100.324097 63.803772 100.315308 64.02298 100.297791 C 69.143158 99.780518 71.185974 94.949646 71.703247 93.459167 C 71.747101 93.178619 71.843536 92.994507 71.843536 92.994507 C 71.843536 92.994507 68.880127 89.619019 64.277222 89.619019 Z"/>
        <path id="path17" fill="#bf9183" fill-rule="evenodd" stroke="none" d="M 64.303528 89.636566 C 61.997681 89.636566 59.279785 90.487 56.298828 93.03833 C 56.298828 93.03833 56.395294 93.783569 56.816132 94.809357 C 57.044067 94.388519 57.236969 93.923859 57.464905 93.459167 C 58.253998 94.204407 59.04306 95.037323 59.7883 95.782532 L 59.7883 93.880005 C 60.586121 94.669067 61.419037 95.554596 62.120422 96.483948 C 62.164276 95.361694 62.164276 94.24823 62.208099 93.178619 C 63.470612 93.459167 64.399963 94.616486 64.443817 95.878998 C 64.540253 95.133759 64.62793 94.432373 64.724365 93.687134 C 65.416992 94.432373 65.794006 95.501984 65.609894 96.483948 C 65.83783 95.361694 66.258667 94.388519 66.819794 93.459167 C 67.284454 94.011536 67.749146 94.669067 68.117371 95.317871 C 68.25766 94.344696 68.441772 93.275055 68.625885 92.293091 C 69.327271 93.178619 70.028687 94.107971 70.67746 95.081146 L 70.67746 92.249268 C 70.958038 92.617493 71.28241 93.03833 71.703247 93.459167 C 71.747101 93.178619 71.843536 92.994507 71.843536 92.994507 C 71.843536 92.994507 68.897675 89.636566 64.303528 89.636566 Z"/>
        <path id="path18" fill="#615a56" fill-rule="evenodd" stroke="none" d="M 56.21994 92.687622 C 56.000763 92.687622 55.764038 93.020813 55.693878 93.178619 C 55.562378 93.503021 56.027039 94.616486 56.114716 95.037323 C 56.535553 96.291046 57.280792 97.457123 58.253998 98.386475 C 59.51651 99.552551 60.998199 100.245178 62.208099 101.411255 C 63.470612 102.577332 64.303528 104.392181 63.602142 105.873871 C 63.27774 106.715576 62.444824 107.276672 61.655762 107.688751 C 60.673798 108.144653 59.595398 108.381378 58.516998 108.381378 C 57.289551 108.381378 56.062134 108.074524 55.001251 107.460785 C 54.299866 107.136414 53.694916 106.575287 52.905853 106.478851 L 52.905853 106.478851 C 52.441162 107.039948 53.089966 107.829041 53.747528 108.206024 C 55.088928 109.091553 56.579407 109.78418 58.166321 109.968292 C 58.403046 110.003357 58.648529 110.012115 58.894012 110.012115 C 60.25296 110.012115 61.647003 109.564972 62.628937 108.618103 C 63.470612 107.881622 64.470123 107.302979 65.548492 107.302979 C 65.907959 107.302979 66.267426 107.364349 66.626892 107.504639 C 67.468567 107.881622 68.213806 108.43399 69.143158 108.898651 C 70.309235 109.591278 71.641876 109.924438 72.974548 109.924438 C 74.079254 109.924438 75.175171 109.687714 76.165894 109.223053 C 76.402618 109.091553 76.630554 108.995087 76.770844 108.758392 C 76.99881 108.293701 76.534119 107.741364 76.025604 107.688751 C 75.973022 107.688751 75.929169 107.688751 75.885345 107.688751 C 75.38559 107.688751 74.964752 107.890411 74.535156 108.065735 C 73.816223 108.328766 73.044678 108.460297 72.273132 108.460297 C 69.949768 108.460297 67.591339 107.320526 66.302521 105.365387 C 65.469604 104.155457 65.145203 102.38443 66.118378 101.314819 C 66.486633 100.90274 67.003906 100.666016 67.512421 100.385468 C 69.791962 99.035278 71.510376 96.896027 72.352051 94.388519 C 72.448486 94.107971 72.536163 93.739716 72.395874 93.406555 C 72.334503 93.178619 72.071503 92.994507 71.843536 92.994507 C 71.755859 92.994507 71.676971 93.020813 71.606812 93.082184 C 70.817749 95.133759 69.835785 97.176575 68.213806 98.570587 C 67.038971 99.578857 65.469604 100.227631 63.926514 100.227631 C 63.330353 100.227631 62.734161 100.131195 62.164276 99.920776 C 60.25296 99.131714 59.095673 97.360687 57.973419 95.598419 C 57.464905 94.809357 56.816132 93.783569 56.49173 92.941895 C 56.412811 92.757782 56.316376 92.687622 56.21994 92.687622 Z"/>
        <path id="path19" fill="#919092" fill-rule="evenodd" stroke="none" d="M 114.321838 1.900635 C 114.286804 1.900635 114.251709 1.909424 114.216675 1.909424 C 113.795776 1.909424 113.427551 2.286438 113.147034 2.558228 C 110.122253 5.63559 106.773071 8.327209 103.380066 10.983734 C 97.979309 15.262268 92.447052 19.444336 88.256226 24.845062 C 87.098907 26.335541 85.976685 27.95752 84.775543 29.491821 C 84.302094 30.052948 83.793579 30.701721 83.232452 31.219025 C 82.583679 32.332489 83.328918 33.779114 84.398529 34.568176 C 85.424316 35.313416 86.774506 35.541382 87.931824 36.058655 C 88.589386 36.330444 89.194336 36.751282 89.799286 37.172119 C 90.956604 37.961182 91.938538 38.986969 92.911743 39.960175 L 93.472839 40.477448 C 95.559509 42.564087 97.567261 44.703369 98.961304 47.359894 C 100.451721 50.147949 101.100525 53.269165 102.775146 55.960785 C 103.800903 57.591522 105.142334 59.038147 105.659607 60.896851 C 105.940186 61.922638 105.940186 62.992279 106.264587 64.009308 C 106.773071 65.780304 108.079407 66.75351 109.613708 67.595184 C 111.191895 68.428101 112.822632 69.269775 114.541016 69.77829 C 115.479187 70.050079 116.452332 70.216644 117.416748 70.216644 C 118.267212 70.216644 119.108887 70.085144 119.88916 69.77829 C 119.564819 68.892761 118.959839 68.200134 118.407471 67.639008 C 116.171814 64.894806 114.216675 61.826202 113.936096 58.336761 C 113.287292 58.152618 112.585876 58.056183 111.980957 57.731781 C 112.217651 57.363556 112.542053 56.986572 112.822632 56.66217 C 113.243469 56.241333 113.848389 55.732819 113.567871 55.171692 C 113.471436 54.943756 113.147034 54.84729 113.103149 54.619354 C 112.919067 54.102081 113.567871 53.733826 113.795776 53.269165 C 114.076355 52.751892 113.848389 52.059265 113.427551 51.638428 C 113.050598 51.21759 112.445618 50.989624 111.89325 50.849335 L 111.89325 50.752899 C 114.31311 44.335114 115.750977 37.496521 117.285278 30.754333 C 117.890198 27.95752 118.495178 25.169464 118.67926 22.328796 C 119.143982 16.007477 117.565796 9.721222 115.750977 3.627838 C 115.610657 3.163147 115.426575 2.610809 115.05835 2.286438 C 114.891724 2.075989 114.611206 1.900635 114.321838 1.900635 Z"/>
        <path id="path20" fill="#b9b9b7" fill-rule="evenodd" stroke="none" d="M 93.578064 28.334534 C 93.569305 28.334534 93.569305 28.334534 93.560516 28.334534 C 93.569305 28.334534 93.569305 28.334534 93.578064 28.334534 Z M 115.145996 2.233826 C 114.777771 2.610809 114.497192 3.163147 114.260498 3.627838 C 112.542053 7.494263 110.586914 11.395813 107.798889 14.657288 C 105.615784 17.217407 102.862793 19.076111 100.451721 21.399475 C 99.04895 22.749634 97.795227 24.327789 96.35733 25.634155 C 95.945282 26.00238 93.823547 28.255615 93.578064 28.334534 L 93.578064 28.334534 C 93.770935 28.299438 93.972595 28.281921 94.174255 28.281921 C 95.331543 28.281921 96.488861 28.8255 97.23407 29.772369 C 97.470825 29.956512 97.567261 30.237061 97.751343 30.517609 C 98.17218 31.44696 98.216064 32.613037 97.795227 33.638824 C 98.654419 33.919403 102.135071 34.94519 104.195435 34.94519 C 104.817932 34.94519 105.308899 34.848755 105.563171 34.620789 L 105.563171 34.620789 C 104.721497 35.409851 104.02887 36.339203 103.423889 37.356232 C 104.958191 37.496521 106.404846 37.917358 107.755005 38.522308 C 106.816895 39.819885 105.887573 41.213898 105.010803 42.564087 C 106.124268 42.844666 107.150085 43.221649 108.26355 43.493439 C 107.237732 45.308319 106.404846 47.219604 105.747314 49.122162 C 106.588989 49.218597 107.421875 49.455322 108.219727 49.683258 C 107.842712 50.244385 107.474487 50.849335 107.097473 51.401703 C 107.58844 51.541962 108.140808 51.629639 108.675598 51.629639 C 109.622498 51.629639 110.490479 51.340332 110.727173 50.472351 C 110.902527 50.709076 111.14801 50.81427 111.428589 50.81427 C 111.595154 50.81427 111.76178 50.779205 111.937134 50.709076 C 114.400757 44.194855 115.847412 37.452667 117.33783 30.701721 C 117.94281 27.913696 118.591614 25.125641 118.731873 22.284973 C 119.196533 15.954895 117.565796 9.677368 115.847412 3.540161 C 115.707092 3.0755 115.470398 2.558228 115.145996 2.233826 Z"/>
        <path id="path21" fill="#a6a5a5" fill-rule="evenodd" stroke="none" d="M 105.098511 34.980255 C 104.449707 35.725494 103.844727 36.470734 103.380066 37.259796 C 103.941162 37.312408 104.449707 37.452667 104.958191 37.592957 C 104.958191 36.751282 105.010803 35.865753 105.098511 34.980255 Z"/>
        <path id="path22" fill="#a6a5a5" fill-rule="evenodd" stroke="none" d="M 105.335205 42.055573 C 105.194946 42.239716 105.098511 42.336151 105.010803 42.520264 C 105.142334 42.564087 105.335205 42.564087 105.422913 42.616699 C 105.379028 42.47644 105.379028 42.239716 105.335205 42.055573 Z"/>
        <path id="path23" fill="#a6a5a5" fill-rule="evenodd" stroke="none" d="M 106.588989 46.754944 C 106.264587 47.500183 105.940186 48.333099 105.70343 49.078308 C 106.545105 49.122162 107.334167 49.315033 108.167114 49.586823 C 107.798889 50.191772 107.474487 50.752899 107.05365 51.357849 C 107.553406 51.498138 108.123291 51.594574 108.675598 51.594574 C 109.254272 51.594574 109.806641 51.480591 110.218689 51.173737 C 108.684387 50.288239 107.474487 48.79776 106.588989 46.754944 Z"/>
        <path id="path24" fill="#a6a5a5" fill-rule="evenodd" stroke="none" d="M 93.525452 28.281921 L 93.525452 28.281921 C 93.525452 28.281921 93.516693 28.281921 93.516693 28.281921 C 93.516693 28.281921 93.525452 28.281921 93.525452 28.281921 Z M 115.102173 2.146118 C 114.681335 2.514374 114.453369 3.022888 114.216675 3.540161 C 112.445618 7.441681 110.543091 11.351959 107.755005 14.613464 C 105.563171 17.164795 102.775146 19.032257 100.355286 21.355621 C 98.961304 22.749634 97.751343 24.327789 96.304749 25.590302 C 95.89267 25.958557 93.753418 28.229309 93.525452 28.281921 L 93.525452 28.281921 C 93.692047 28.264374 93.867371 28.246857 94.033966 28.246857 C 95.226349 28.246857 96.418701 28.790436 97.190247 29.728546 C 97.426941 29.956512 97.567261 30.237061 97.70752 30.517609 C 98.119629 31.543396 98.17218 32.613037 97.751343 33.638824 C 98.654419 33.875549 102.135071 34.910126 104.169128 34.910126 C 104.528625 34.910126 104.853027 34.875031 105.098511 34.796143 C 105.335205 31.543396 106.027832 28.053955 107.097473 24.424225 C 109.377014 17.120941 113.050598 11.124023 116.960876 7.58197 C 116.592651 6.24054 116.171814 4.89035 115.7948 3.496338 C 115.610657 3.022888 115.426575 2.514374 115.102173 2.146118 Z"/>
        <path id="path25" fill="#a6a5a5" fill-rule="evenodd" stroke="none" d="M 105.475464 34.568176 C 105.379028 34.655853 105.23877 34.708466 105.098511 34.796143 L 105.098511 35.032867 C 105.194946 34.848755 105.379028 34.708466 105.475464 34.568176 Z"/>
        <path id="path26" fill="#919092" fill-rule="evenodd" stroke="none" d="M 14.898926 1.795441 C 14.618378 1.795441 14.39917 1.953247 14.206299 2.146118 C 13.829285 2.514374 13.601349 3.022888 13.504913 3.496338 C 11.742645 9.589722 10.111908 15.867188 10.576569 22.188538 C 10.760681 25.073029 11.409485 27.869843 11.970581 30.657898 C 13.504913 37.400055 14.951538 44.194855 17.415192 50.665222 L 17.415192 50.709076 C 16.810242 50.893188 16.301727 51.129913 15.828278 51.498138 C 15.416199 51.918976 15.179474 52.611603 15.460052 53.128876 C 15.696777 53.593567 16.345551 54.014404 16.161438 54.479065 C 16.108826 54.707031 15.828278 54.84729 15.696777 55.084015 C 15.460052 55.592529 16.065002 56.101044 16.48584 56.521881 C 16.810242 56.846283 17.038177 57.223297 17.274902 57.635345 C 16.713776 57.87207 16.021149 58.01236 15.363586 58.196472 C 15.091797 61.685913 13.040222 64.754517 10.90097 67.498749 C 10.339844 68.200134 9.787506 68.892761 9.410492 69.734436 C 10.23465 70.023773 11.102631 70.155273 11.970581 70.155273 C 12.91748 70.155273 13.86438 69.997467 14.758636 69.734436 C 16.529663 69.269775 18.107819 68.384247 19.738556 67.498749 C 21.272858 66.709656 22.579224 65.683868 23.087738 63.965454 C 23.368286 62.992279 23.368286 61.870026 23.692688 60.800415 C 24.209961 59.038147 25.603973 57.495087 26.577179 55.873108 C 27.559143 54.24234 28.207916 52.523926 28.85672 50.752899 C 29.137268 50.104095 29.365234 49.40271 29.645782 48.79776 C 29.829895 48.245422 30.06662 47.728119 30.347168 47.263458 C 30.995972 46.10614 31.741211 44.983917 32.626709 43.95813 C 33.784027 42.520264 35.134216 41.213898 36.396729 39.872498 C 36.949066 39.355225 37.466339 38.84671 37.974854 38.382019 C 39.044495 37.452667 40.114136 36.567169 41.420471 36.006042 C 42.577789 35.497528 43.927979 35.260803 44.953766 34.471741 C 46.023376 33.726501 46.768616 32.288635 46.06723 31.122559 C 45.094025 30.096771 44.208527 29.027161 43.366852 27.913696 C 42.577789 26.844055 41.83255 25.774414 40.999634 24.704803 C 36.861389 19.400482 31.504486 15.306091 26.156342 11.124023 C 22.666901 8.379791 19.177429 5.582977 16.108826 2.417908 C 15.828278 2.146118 15.460052 1.865601 15.091797 1.812988 C 15.021667 1.804199 14.960297 1.795441 14.898926 1.795441 Z"/>
        <path id="path27" fill="#b9b9b7" fill-rule="evenodd" stroke="none" d="M 35.826843 28.334534 L 35.826843 28.334534 C 35.826843 28.334534 35.835602 28.334534 35.835602 28.334534 C 35.835602 28.334534 35.826843 28.334534 35.826843 28.334534 Z M 14.250122 2.233826 C 13.925751 2.558228 13.689026 3.0755 13.548737 3.540161 C 11.830322 9.677368 10.199554 15.954895 10.673004 22.284973 C 10.804535 25.125641 11.462097 27.913696 12.067047 30.701721 C 13.548737 37.452667 14.995361 44.194855 17.459015 50.709076 C 17.634369 50.779205 17.809723 50.81427 17.967529 50.81427 C 18.248077 50.81427 18.493591 50.709076 18.668945 50.472351 C 18.90564 51.340332 19.773621 51.629639 20.729279 51.629639 C 21.255341 51.629639 21.816437 51.541962 22.298645 51.401703 C 21.93042 50.849335 21.509583 50.244385 21.185181 49.683258 C 21.974274 49.455322 22.807159 49.218597 23.605011 49.122162 C 23.000061 47.219604 22.158386 45.308319 21.132599 43.493439 C 22.202209 43.221649 23.271851 42.844666 24.394073 42.564087 C 23.508575 41.213898 22.579224 39.819885 21.649872 38.522308 C 23.000061 37.917358 24.437927 37.496521 25.928375 37.356232 C 25.367279 36.339203 24.674622 35.409851 23.841736 34.620789 L 23.841736 34.620789 C 24.087219 34.848755 24.578186 34.94519 25.200684 34.94519 C 27.261047 34.94519 30.741699 33.919403 31.600922 33.638824 C 31.180084 32.613037 31.232697 31.44696 31.644775 30.517609 C 31.741211 30.237061 31.925323 29.956512 32.162048 29.772369 C 32.907288 28.8255 34.064575 28.281921 35.221893 28.281921 C 35.423523 28.281921 35.625183 28.299438 35.826843 28.334534 L 35.826843 28.334534 C 35.58136 28.255615 33.459625 26.00238 33.047546 25.634155 C 31.600922 24.327789 30.347168 22.749634 28.953156 21.399475 C 26.533325 19.076111 23.789124 17.217407 21.59726 14.657288 C 18.809204 11.395813 16.854065 7.494263 15.135651 3.627838 C 14.898926 3.163147 14.627136 2.610809 14.250122 2.233826 Z"/>
        <path id="path28" fill="#a6a5a5" fill-rule="evenodd" stroke="none" d="M 24.253784 34.980255 L 24.253784 34.980255 C 24.394073 35.865753 24.394073 36.751282 24.394073 37.592957 C 24.902588 37.452667 25.411102 37.312408 25.928375 37.259796 C 25.463715 36.470734 24.902588 35.725494 24.253784 34.980255 Z"/>
        <path id="path29" fill="#a6a5a5" fill-rule="evenodd" stroke="none" d="M 24.069672 42.055573 C 24.01709 42.239716 24.01709 42.47644 23.973236 42.616699 C 24.069672 42.564087 24.253784 42.564087 24.394073 42.520264 C 24.297638 42.336151 24.209961 42.239716 24.069672 42.055573 Z"/>
        <path id="path30" fill="#a6a5a5" fill-rule="evenodd" stroke="none" d="M 22.807159 46.754944 C 21.93042 48.79776 20.72052 50.288239 19.177429 51.173737 C 19.589508 51.480591 20.124329 51.594574 20.702972 51.594574 C 21.246552 51.594574 21.825226 51.498138 22.342499 51.357849 C 21.93042 50.752899 21.59726 50.191772 21.229034 49.586823 C 22.06192 49.315033 22.859772 49.122162 23.692688 49.078308 C 23.464722 48.333099 23.131561 47.500183 22.807159 46.754944 Z"/>
        <path id="path31" fill="#a6a5a5" fill-rule="evenodd" stroke="none" d="M 35.870667 28.281921 L 35.870667 28.281921 C 35.879456 28.281921 35.879456 28.281921 35.879456 28.281921 C 35.879456 28.281921 35.879456 28.281921 35.870667 28.281921 Z M 14.293976 2.146118 C 13.969574 2.514374 13.785461 3.022888 13.601349 3.496338 C 13.136658 4.89035 12.812256 6.24054 12.435272 7.58197 C 16.345551 11.124023 20.019104 17.120941 22.298645 24.424225 C 23.368286 28.053955 24.069672 31.543396 24.297638 34.796143 C 24.543121 34.875031 24.867523 34.910126 25.235748 34.910126 C 27.261047 34.910126 30.741699 33.875549 31.644775 33.638824 C 31.232697 32.613037 31.27652 31.543396 31.697357 30.517609 C 31.785034 30.237061 31.977936 29.956512 32.205872 29.728546 C 32.977417 28.790436 34.1698 28.246857 35.362152 28.246857 C 35.537506 28.246857 35.704102 28.264374 35.870667 28.281921 L 35.870667 28.281921 C 35.642731 28.229309 33.503448 25.958557 33.0914 25.590302 C 31.644775 24.327789 30.434845 22.749634 29.040833 21.355621 C 26.621002 19.032257 23.832947 17.164795 21.649872 14.613464 C 18.853058 11.351959 16.9505 7.441681 15.179474 3.540161 C 14.951538 3.022888 14.714813 2.514374 14.293976 2.146118 Z"/>
        <path id="path32" fill="#a6a5a5" fill-rule="evenodd" stroke="none" d="M 23.832947 34.568176 C 23.973236 34.708466 24.157349 34.848755 24.253784 35.032867 L 24.253784 34.796143 C 24.069672 34.708466 23.973236 34.655853 23.832947 34.568176 Z"/>
        <path id="path33" fill="#373433" fill-rule="evenodd" stroke="none" d="M 55.693878 25.353577 L 55.693878 25.353577 C 53.554626 25.730591 51.467987 26.098816 49.416382 26.703766 C 48.162659 30.193237 47.513855 33.910614 47.697968 37.63678 C 47.741821 39.030823 47.925934 40.381012 48.443207 41.634735 C 48.811432 42.423828 49.372559 43.265503 50.258057 43.546051 C 50.468475 43.61618 50.696442 43.642487 50.915619 43.642487 C 51.888824 43.642487 52.879547 43.02002 53.370514 42.152039 C 54.071899 41.126251 54.212189 39.819885 54.299866 38.609985 C 54.676849 34.191193 54.536591 29.684723 55.693878 25.353577 Z"/>
        <path id="path34" fill="#373433" fill-rule="evenodd" stroke="none" d="M 73.518127 25.029205 L 73.518127 25.029205 C 74.771881 29.351532 74.675415 34.103516 74.999817 38.609985 C 75.140106 39.819885 75.324219 41.126251 75.929169 42.152039 C 76.455231 43.01123 77.437164 43.660034 78.41037 43.660034 C 78.638306 43.660034 78.875031 43.624969 79.094238 43.546051 C 79.979736 43.265503 80.540863 42.47644 80.909088 41.634735 C 81.426361 40.381012 81.610474 38.986969 81.654327 37.63678 C 81.83844 33.682678 81.145813 29.684723 79.611511 25.958557 C 77.559906 25.537689 75.560944 25.2659 73.518127 25.029205 Z"/>
        <path id="path35" fill="#373433" fill-rule="evenodd" stroke="none" d="M 65.83783 24.468079 C 64.163239 24.520691 62.532501 24.66095 60.954376 24.748627 C 60.533508 24.845062 60.910522 31.823975 60.954376 32.428925 C 61.138489 34.848755 61.839874 37.172119 62.865662 39.355225 C 63.27774 40.144287 63.795013 40.985962 64.671753 41.082397 C 64.706818 41.082397 64.741913 41.082397 64.768188 41.082397 C 65.303009 41.082397 65.855377 40.722931 66.162231 40.284576 C 66.767181 39.591919 67.091583 38.750244 67.424744 37.820892 C 67.792969 36.330444 67.933258 34.708466 67.977081 33.358276 C 67.933258 32.428925 67.424744 24.520691 66.398956 24.468079 Z"/>
        <path id="path36" fill="#ffffff" fill-rule="evenodd" stroke="none" d="M 122.686035 82.850555 C 122.668457 82.850555 122.65094 82.850555 122.633423 82.850555 C 115.847412 84.42868 109.008789 86.015594 102.257813 87.59375 C 96.35733 88.987762 89.422272 89.592712 84.117981 92.757782 C 83.85495 92.985718 84.05661 93.380249 84.293335 93.380249 C 84.345917 93.380249 84.398529 93.362732 84.442383 93.318878 C 87.142761 91.688141 90.123688 91.083191 93.236115 90.390564 C 96.585297 89.548889 100.030884 88.80365 103.380066 87.970734 C 109.841675 86.480286 116.355896 84.945984 122.826294 83.455505 C 123.133118 83.324005 123.062988 82.850555 122.686035 82.850555 Z"/>
        <path id="path37" fill="#ffffff" fill-rule="evenodd" stroke="none" d="M 84.775543 97.921814 C 84.442383 97.921814 84.442383 98.526764 84.775543 98.526764 C 99.145386 98.991425 113.006714 104.015198 124.26416 112.949219 C 124.3255 112.993073 124.386902 113.019348 124.448242 113.019348 C 124.684998 113.019348 124.904175 112.712494 124.684998 112.528381 C 113.287292 103.506683 99.329529 98.342651 84.775543 97.921814 Z"/>
        <path id="path38" fill="#ffffff" fill-rule="evenodd" stroke="none" d="M 6.622437 82.850555 C 6.289276 82.850555 6.175293 83.324005 6.526001 83.455505 C 12.996399 84.945984 19.51062 86.480286 25.928375 87.970734 C 29.321381 88.80365 32.714386 89.548889 36.11615 90.390564 C 39.184784 91.083191 42.16571 91.688141 44.909912 93.318878 C 44.962524 93.362732 45.023895 93.380249 45.076508 93.380249 C 45.321991 93.380249 45.488586 92.985718 45.181702 92.757782 C 39.886169 89.592712 32.951111 88.987762 27.04184 87.59375 C 20.299683 86.015594 13.504913 84.42868 6.66629 82.850555 C 6.648743 82.850555 6.639984 82.850555 6.622437 82.850555 Z"/>
        <path id="path39" fill="#ffffff" fill-rule="evenodd" stroke="none" d="M 44.532928 97.921814 C 30.022797 98.342651 16.065002 103.506683 4.667297 112.528381 C 4.413055 112.712494 4.623474 113.019348 4.860199 113.019348 C 4.92157 113.019348 4.982941 112.993073 5.044312 112.949219 C 16.345551 104.015198 30.206909 98.991425 44.532928 98.526764 C 44.953766 98.526764 44.953766 97.921814 44.532928 97.921814 Z"/>
        <path id="path40" fill="#a8a8a8" fill-rule="evenodd" stroke="none" d="M 39.368896 54.014404 L 39.368896 54.014404 C 39.886169 54.803467 40.35083 55.496094 40.903198 56.241333 C 38.886688 55.110321 36.624664 54.5755 34.353912 54.5755 C 34.011963 54.5755 33.670044 54.593048 33.319336 54.619354 C 33.556061 54.891144 33.836639 55.171692 34.161011 55.496094 C 32.205872 55.732819 30.347168 56.890106 29.365234 58.564697 C 30.347168 58.520874 31.372986 58.380585 32.346161 58.336761 L 32.346161 58.336761 C 31.88147 58.801422 31.644775 59.450226 31.741211 60.055176 C 35.081604 59.090759 38.53598 58.503326 41.972809 58.503326 C 42.981079 58.503326 43.989349 58.555939 44.997589 58.661133 C 49.512848 59.125824 53.835175 60.844238 57.236969 63.728729 C 55.834167 61.405365 54.071899 59.266113 52.072937 57.451233 L 52.072937 57.451233 C 52.300873 57.915924 52.537598 58.336761 52.765564 58.801422 C 50.810425 56.758606 48.671173 54.619354 45.883118 54.24234 L 45.883118 54.24234 C 46.023376 54.943756 46.391632 55.636383 46.996582 56.101044 C 44.392639 55.548706 41.83255 54.84729 39.368896 54.014404 Z"/>
        <path id="path41" fill="#a8a8a8" fill-rule="evenodd" stroke="none" d="M 88.589386 54.014404 L 88.589386 54.014404 C 86.116943 54.84729 83.565613 55.548706 80.952911 56.101044 C 81.514038 55.636383 81.934875 54.943756 82.075165 54.24234 L 82.075165 54.24234 C 79.278351 54.619354 77.095245 56.758606 75.192719 58.801422 C 75.420654 58.336761 75.657379 57.915924 75.885345 57.451233 L 75.885345 57.451233 C 73.842529 59.266113 72.115326 61.405365 70.721313 63.728729 C 74.070465 60.844238 78.445435 59.125824 82.908081 58.661133 C 83.925079 58.555939 84.942108 58.503326 85.959137 58.503326 C 89.413513 58.503326 92.859131 59.090759 96.164459 60.055176 C 96.304749 59.450226 96.076782 58.801422 95.612122 58.336761 L 95.612122 58.336761 C 96.585297 58.380585 97.567261 58.520874 98.540466 58.564697 C 97.567261 56.890106 95.699768 55.732819 93.797241 55.496094 C 94.077789 55.171692 94.402191 54.891144 94.630157 54.619354 C 94.279449 54.593048 93.937531 54.5755 93.586823 54.5755 C 91.298523 54.5755 89.071594 55.110321 87.055084 56.241333 C 87.563599 55.496094 88.028259 54.803467 88.589386 54.014404 Z"/>
        <path id="path42" fill="#a9a9a9" fill-rule="evenodd" stroke="none" d="M 109.613708 63.264069 C 108.868469 67.963409 106.869507 72.478668 104.02887 76.292511 C 104.449707 75.503418 104.589966 74.574066 104.633789 73.644714 L 104.633789 73.644714 C 101.46875 77.64267 98.119629 81.412689 94.489868 85.033661 C 97.935486 83.779907 101.240784 82.017639 104.169128 79.738098 L 104.169128 79.738098 C 104.072693 80.150177 104.072693 80.527191 104.02887 80.948029 C 105.940186 78.387909 107.798889 75.643707 108.912354 72.706604 C 110.034546 69.734436 110.499268 66.341431 109.613708 63.264069 Z"/>
        <path id="path43" fill="#878688" fill-rule="evenodd" stroke="none" d="M 24.674622 10.93988 C 24.359009 10.93988 24.043365 10.983734 23.736511 11.071411 C 25.139313 13.210663 27.225952 15.165802 29.093445 16.936829 C 30.022797 17.86618 30.995972 18.699097 32.065613 19.584595 C 32.854675 20.189575 34.064575 21.583588 34.993927 21.864136 C 34.669525 21.820313 34.257477 21.680023 33.924286 21.583588 L 33.924286 21.583588 C 34.722137 21.820313 36.160004 25.125641 36.484406 25.87088 C 37.229645 27.633118 37.413757 29.544434 37.185791 31.403137 C 36.861389 34.147339 35.791779 36.751282 34.485413 39.214935 C 35.090363 38.986969 35.651489 38.609985 36.063568 38.145294 L 36.063568 38.145294 C 34.950104 40.144287 33.836639 42.099426 32.670563 44.010742 C 31.741211 45.641479 30.715424 47.263458 29.742218 48.850372 C 29.181122 49.683258 28.672607 50.428497 28.155304 51.21759 C 28.392029 51.129913 28.672607 50.937012 28.900543 50.849335 C 32.346161 48.894196 35.458618 46.474396 38.211578 43.68634 L 38.211578 43.68634 C 37.466339 43.730164 36.72113 43.730164 35.932037 43.774017 C 36.764954 42.379974 37.32608 40.942108 37.738129 39.45166 C 37.790741 39.074646 37.93103 38.750244 37.974854 38.382019 C 38.158966 37.592957 38.395691 36.795105 38.860382 36.102478 C 39.41272 35.173126 40.438507 34.471741 41.508148 34.243774 C 41.464325 32.937439 42.16571 31.499573 43.322998 30.754333 C 43.366852 29.824982 43.366852 28.886871 43.419464 27.95752 C 42.630371 26.940491 41.885162 25.818268 40.955811 24.801239 C 36.808807 19.496948 31.460632 15.349915 26.112488 11.167847 C 25.639069 11.027588 25.15686 10.93988 24.674622 10.93988 Z"/>
        <path id="path44" fill="#878688" fill-rule="evenodd" stroke="none" d="M 103.467773 10.931122 C 98.031921 15.165802 92.543518 19.356628 88.352692 24.801239 C 87.186615 26.282928 86.073151 27.913696 84.863251 29.447998 C 84.907074 29.912659 84.907074 30.289673 84.907074 30.754333 C 86.116974 31.44696 86.81839 32.841003 86.721954 34.243774 C 87.791565 34.471741 88.817352 35.173126 89.378479 36.102478 C 89.562592 36.470734 89.746704 36.751282 89.84314 37.128265 C 90.123718 37.864746 90.263977 38.662598 90.491943 39.45166 C 90.912781 40.985962 91.473907 42.47644 92.306793 43.774017 C 91.517731 43.730164 90.772491 43.730164 90.027283 43.68634 L 90.027283 43.68634 C 92.911774 46.711121 96.304779 49.262421 100.030884 51.21759 C 97.70752 47.728119 95.471863 44.151001 93.376434 40.477448 C 92.911774 39.732208 92.447083 38.890533 92.078857 38.145294 L 92.078857 38.145294 C 92.447083 38.609985 93.052032 39.030823 93.613159 39.214935 C 92.350647 36.751282 91.237183 34.147339 90.956635 31.403137 C 90.772491 29.544434 90.956635 27.633118 91.65802 25.87088 C 91.938568 25.125641 93.376434 21.820313 94.218109 21.583588 L 94.218109 21.583588 C 93.858643 21.636169 93.499176 21.758911 93.139709 21.855377 L 93.139709 21.855377 C 94.112915 21.592346 95.296509 20.224609 96.076813 19.584595 C 97.1026 18.751709 98.119629 17.86618 99.101563 16.936829 C 100.916443 15.165802 103.055664 13.210663 104.405884 11.071411 C 104.02887 10.983734 103.748291 10.931122 103.467773 10.931122 Z"/>
        <path id="path45" fill="#c8c4bd" fill-rule="evenodd" stroke="none" d="M 116.899475 91.819672 C 116.706604 91.819672 116.592651 92.038849 116.592651 92.293091 C 116.73291 92.108978 116.820557 91.924866 116.960876 91.82843 C 116.943298 91.82843 116.925781 91.819672 116.899475 91.819672 Z"/>
        <path id="path46" fill="#ffffff" fill-rule="evenodd" stroke="none" d="M 52.537598 93.082184 C 51.467987 93.64328 50.582458 94.432373 49.977509 95.414307 C 50.117798 95.414307 50.30191 95.361694 50.538635 95.361694 C 49.135834 96.992462 48.390594 99.131714 48.390594 101.314819 C 48.627319 101.314819 48.864044 101.086853 48.907867 100.850128 L 48.907867 100.850128 C 48.986786 101.078094 48.986786 101.332336 48.925415 101.595367 L 48.925415 101.595367 C 49.170898 100.97287 49.390076 100.359161 49.600494 99.736664 C 50.117798 98.342651 50.582458 96.948608 51.143585 95.501984 C 51.415375 94.616486 51.739777 93.687134 52.537598 93.082184 Z M 48.925415 101.595367 C 48.855286 101.761963 48.793915 101.937286 48.723755 102.11264 C 48.811432 101.946075 48.881592 101.770721 48.925415 101.595367 Z"/>
        <path id="path47" fill="#ffffff" fill-rule="evenodd" stroke="none" d="M 75.560944 92.573669 L 75.560944 92.573669 C 77.656372 95.414307 79.14682 98.623199 80.681122 101.832092 C 80.768799 99.596375 79.795624 97.597412 78.866272 95.554596 L 78.866272 95.554596 C 78.866272 95.782532 78.910095 96.06311 78.910095 96.291046 C 78.445435 95.554596 78.024597 94.669067 77.744049 93.783569 L 77.744049 93.783569 C 77.796631 93.967682 77.744049 94.151794 77.656372 94.24823 C 76.954956 93.687134 76.262329 93.134766 75.560944 92.573669 Z"/>
    </g>
</svg>
