<?xml version="1.0" encoding="UTF-8"?>
<!-- Generated by Pixelmator Pro 3.4.1 -->
<svg width="90" height="91" viewBox="0 0 90 91" xmlns="http://www.w3.org/2000/svg">
    <path id="Path-copy-20" fill="#ce9e32" fill-rule="evenodd" stroke="none" d="M 77.368622 1.432312 C 70.66925 1.432312 56.280396 20.422729 56.280396 20.422729 L 79.875824 30.097412 C 79.875824 30.097412 84.299591 9.885376 79.719482 2.729187 C 79.140442 1.825989 78.335602 1.432312 77.368622 1.432312 Z"/>
    <path id="Path-copy-19" fill="#ecc0cf" fill-rule="evenodd" stroke="none" d="M 75.972809 7.459656 L 75.972809 7.459656 C 73.39032 9.115509 69.093933 13.260986 64.84964 18.211243 L 75.758545 22.727234 C 76.586578 16.856415 76.771851 10.806122 75.972809 7.459656 Z"/>
    <path id="Path-copy-18" fill="#ce9e32" fill-rule="evenodd" stroke="none" d="M 12.183777 1.432312 C 11.216797 1.432312 10.411957 1.825989 9.832916 2.729187 C 5.252808 9.885376 9.676575 30.097412 9.676575 30.097412 L 33.272003 20.422729 C 33.272003 20.422729 18.883148 1.432312 12.183777 1.432312 Z"/>
    <path id="Path-copy-17" fill="#ecc0cf" fill-rule="evenodd" stroke="none" d="M 13.607849 7.488586 L 13.607849 7.488586 C 12.779846 10.806122 12.99408 16.798523 13.793152 22.727234 L 24.702057 18.240173 C 20.463562 13.260986 16.219269 9.115509 13.607849 7.488586 Z"/>
    <path id="Path-copy-16" fill="#ce9e32" fill-rule="evenodd" stroke="none" d="M 44.117432 12.033691 C 19.75769 12.033691 -0.02771 25.396484 -0.02771 41.926239 C -0.02771 58.392334 19.75769 88.585938 44.117432 88.585938 C 68.511932 88.585938 88.297333 58.421265 88.297333 41.926239 C 88.297333 25.396484 68.511932 12.033691 44.117432 12.033691 Z"/>
    <path id="Path-copy-15" fill="#d9d9d9" fill-rule="evenodd" stroke="none" d="M 44.487152 42.263 C 44.377136 42.263 44.261353 42.263 44.145538 42.263 C 30.631012 42.419312 19.814728 53.535675 20.000031 67.025818 C 20.185333 80.42334 31.08844 91.169128 44.452423 91.169128 C 44.562439 91.169128 44.678253 91.169128 44.794037 91.169128 C 58.308594 90.983856 69.095886 79.896484 68.939545 66.37738 C 68.754272 53.003021 57.851135 42.263 44.487152 42.263 Z"/>
    <path id="Path-copy-14" fill="#434244" fill-rule="evenodd" stroke="none" d="M 43.959564 48.162964 C 43.623749 48.162964 43.345795 48.440857 43.345795 48.776672 L 43.345795 56.795502 C 43.345795 58.665588 41.811371 60.234619 39.906372 60.234619 C 38.030334 60.234619 36.437988 58.700317 36.437988 56.795502 C 36.437988 56.424957 36.188995 56.181763 35.81842 56.181763 C 35.482605 56.181763 35.204651 56.424957 35.204651 56.795502 C 35.204651 59.406677 37.323914 61.490997 39.935333 61.490997 C 42.546753 61.490997 44.665985 59.406677 44.579132 56.795502 L 44.579132 48.776672 C 44.579132 48.440857 44.330139 48.162964 43.959564 48.162964 Z"/>
    <path id="Path-copy-13" fill="#434244" fill-rule="evenodd" stroke="none" d="M 44.051849 48.162964 C 43.716034 48.162964 43.43808 48.440857 43.43808 48.776672 L 43.43808 56.795502 C 43.43808 59.406677 45.557343 61.490997 48.168762 61.490997 C 50.72229 61.490997 52.870483 59.406677 52.806793 56.795502 C 52.806793 56.424957 52.534637 56.181763 52.193024 56.181763 C 51.857178 56.181763 51.579254 56.424957 51.579254 56.795502 C 51.579254 58.665588 50.0448 60.234619 48.11087 60.234619 C 46.234802 60.234619 44.665649 58.700317 44.665649 56.795502 L 44.665649 48.776672 C 44.665649 48.440857 44.393494 48.162964 44.051849 48.162964 Z"/>
    <path id="Path-copy-12" fill="#b4949e" fill-rule="evenodd" stroke="none" d="M 39.199799 45.210083 L 44.052032 50.067688 L 48.875366 45.210083 Z"/>
    <path id="Path-copy-11" fill="#b4949e" fill-rule="evenodd" stroke="none" d="M 47.404663 45.82959 L 44.052063 49.176056 L 40.705292 45.82959 Z M 39.199799 44.567383 C 38.921875 44.567383 38.736603 44.723724 38.61499 44.937927 C 38.557098 45.181122 38.586029 45.459045 38.771332 45.644287 L 43.623596 50.467163 C 43.745178 50.588745 43.90152 50.681396 44.052063 50.681396 C 44.208405 50.681396 44.358948 50.588745 44.486359 50.467163 L 49.309662 45.644287 C 49.489166 45.459045 49.581787 45.181122 49.460205 44.937927 C 49.338623 44.723724 49.15332 44.567383 48.875397 44.567383 Z"/>
    <path id="Path-copy-10" fill="#434244" fill-rule="evenodd" stroke="none" d="M 65.098694 41.064484 C 64.17804 41.064484 63.43689 41.799805 63.43689 42.726135 C 63.43689 43.646729 64.17804 44.382019 65.098694 44.382019 C 66.019348 44.382019 66.75473 43.646729 66.75473 42.726135 C 66.75473 41.799805 66.019348 41.064484 65.098694 41.064484 Z"/>
    <path id="Path-copy-9" fill="#434244" fill-rule="evenodd" stroke="none" d="M 26.299652 41.064484 C 25.373199 41.064484 24.666779 41.799805 24.666779 42.726135 C 24.666779 43.646729 25.373199 44.382019 26.299652 44.382019 C 27.220306 44.382019 27.955688 43.646729 27.955688 42.726135 C 27.955688 41.799805 27.220306 41.064484 26.299652 41.064484 Z"/>
    <path id="Path-copy-8" fill="none" stroke="none" d="M 49.488678 53.970245 C 49.488678 53.970245 54.711517 52.829651 63.130615 55.875061"/>
    <path id="Path-copy-7" fill="none" stroke="#434244" stroke-width="0.110236" stroke-linecap="round" d="M 49.488678 53.970245 C 49.488678 53.970245 54.711517 52.829651 63.130615 55.875061"/>
    <path id="Path-copy-6" fill="none" stroke="none" d="M 23.039795 48.898254 C 23.039795 48.898254 28.262634 47.763458 36.681702 50.803101"/>
    <path id="Path-copy-5" fill="none" stroke="#434244" stroke-width="0.110236" stroke-linecap="round" d="M 23.039795 48.898254 C 23.039795 48.898254 28.262634 47.763458 36.681702 50.803101"/>
    <path id="Path-copy-4" fill="none" stroke="none" d="M 24.82312 54.30603 C 24.82312 54.30603 29.617493 51.909058 38.493988 52.771729"/>
    <path id="Path-copy-3" fill="none" stroke="#434244" stroke-width="0.110236" stroke-linecap="round" d="M 24.82312 54.30603 C 24.82312 54.30603 29.617493 51.909058 38.493988 52.771729"/>
    <path id="Path-copy-2" fill="none" stroke="none" d="M 49.338135 51.787384 C 49.338135 51.787384 54.161438 49.361481 63.009003 50.253113"/>
    <path id="Path-copy" fill="none" stroke="#434244" stroke-width="0.110236" stroke-linecap="round" d="M 49.338135 51.787384 C 49.338135 51.787384 54.161438 49.361481 63.009003 50.253113"/>
</svg>
