<?xml version="1.0" encoding="UTF-8"?>
<!-- Generated by Pixelmator Pro 3.4.1 -->
<svg width="98" height="96" viewBox="0 0 98 96" xmlns="http://www.w3.org/2000/svg">
    <path id="Path-copy-75" fill="#fdfdfd" fill-rule="evenodd" stroke="none" d="M 10.006561 14.385284 C 8.664917 14.385284 7.46582 15.374725 7.31488 16.884064 C 6.954315 21.160553 6.954315 28.673706 10.559967 36.103027 C 10.559967 36.103027 10.828308 33.478455 12.295715 30.54364 C 13.587036 28.011292 15.809143 25.160309 19.456726 23.558716 C 19.456726 23.558716 17.142395 17.957397 11.406891 14.754211 C 11.180481 14.661987 10.962463 14.527832 10.736053 14.485901 C 10.492889 14.418823 10.241333 14.385284 10.006561 14.385284 Z"/>
    <path id="Path-copy-74" fill="none" stroke="#fdfdfd" stroke-width="8" stroke-linejoin="round" d="M 10.006561 14.385284 C 8.664917 14.385284 7.46582 15.374725 7.31488 16.884064 C 6.954315 21.160553 6.954315 28.673706 10.559967 36.103027 C 10.559967 36.103027 10.828308 33.478455 12.295715 30.54364 C 13.587036 28.011292 15.809143 25.160309 19.456726 23.558716 C 19.456726 23.558716 17.142395 17.957397 11.406891 14.754211 C 11.180481 14.661987 10.962463 14.527832 10.736053 14.485901 C 10.492889 14.418823 10.241333 14.385284 10.006561 14.385284 Z"/>
    <path id="Path-copy-73" fill="#fdfdfd" fill-rule="evenodd" stroke="none" d="M 10.736084 14.435577 C 10.694153 14.569763 10.652222 14.796143 10.652222 15.01416 C 10.291656 18.577881 10.249725 24.447571 12.295746 30.54364 C 13.587067 28.011292 15.809143 25.160309 19.456726 23.558716 C 19.456726 23.558716 17.142395 17.957397 11.406891 14.703918 C 11.180511 14.569763 10.962494 14.485901 10.736084 14.435577 Z"/>
    <path id="Path-copy-72" fill="none" stroke="#fdfdfd" stroke-width="8" stroke-linejoin="round" d="M 10.736084 14.435577 C 10.694153 14.569763 10.652222 14.796143 10.652222 15.01416 C 10.291656 18.577881 10.249725 24.447571 12.295746 30.54364 C 13.587067 28.011292 15.809143 25.160309 19.456726 23.558716 C 19.456726 23.558716 17.142395 17.957397 11.406891 14.703918 C 11.180511 14.569763 10.962494 14.485901 10.736084 14.435577 Z"/>
    <path id="Path-copy-71" fill="#fdfdfd" fill-rule="evenodd" stroke="none" d="M 81.599915 6.385712 C 80.677521 6.385712 79.738373 6.52829 78.807617 6.830139 C 65.592499 11.098236 55.630829 20.531616 55.630829 20.531616 C 82.22879 24.891937 86.681366 40.689728 86.723297 40.689728 C 91.662201 30.099182 91.578339 20.397461 90.37085 13.773132 C 89.607819 9.387634 85.809296 6.385712 81.599915 6.385712 Z"/>
    <path id="Path-copy-70" fill="none" stroke="#fdfdfd" stroke-width="8" stroke-linejoin="round" d="M 81.599915 6.385712 C 80.677521 6.385712 79.738373 6.52829 78.807617 6.830139 C 65.592499 11.098236 55.630829 20.531616 55.630829 20.531616 C 82.22879 24.891937 86.681366 40.689728 86.723297 40.689728 C 91.662201 30.099182 91.578339 20.397461 90.37085 13.773132 C 89.607819 9.387634 85.809296 6.385712 81.599915 6.385712 Z"/>
    <path id="Path-copy-69" fill="#fdfdfd" fill-rule="evenodd" stroke="none" d="M 81.968964 6.385712 L 81.968964 6.385712 C 84.056885 7.635132 85.616547 9.764984 86.060974 12.43988 C 87.033661 18.217285 87.301971 26.451599 83.964661 35.524414 C 86.060974 38.509583 86.681458 40.689728 86.681458 40.689728 C 91.620361 30.099182 91.444275 20.397461 90.329041 13.773132 C 89.616302 9.496643 86.010651 6.519897 81.968964 6.385712 Z"/>
    <path id="Path-copy-68" fill="none" stroke="#fdfdfd" stroke-width="8" stroke-linejoin="round" d="M 81.968964 6.385712 L 81.968964 6.385712 C 84.056885 7.635132 85.616547 9.764984 86.060974 12.43988 C 87.033661 18.217285 87.301971 26.451599 83.964661 35.524414 C 86.060974 38.509583 86.681458 40.689728 86.681458 40.689728 C 91.620361 30.099182 91.444275 20.397461 90.329041 13.773132 C 89.616302 9.496643 86.010651 6.519897 81.968964 6.385712 Z"/>
    <path id="Path-copy-67" fill="#fdfdfd" fill-rule="evenodd" stroke="none" d="M 80.090607 8.012482 C 79.721649 8.012482 79.34433 8.079559 78.983765 8.213715 C 75.780579 9.320557 69.105927 11.94516 64.930084 15.643036 C 64.930084 15.643036 69.910919 16.221619 73.77652 18.175385 C 74.170624 18.334686 74.581512 18.410156 74.992371 18.410156 C 75.755432 18.410156 76.501709 18.133453 77.029999 17.554871 C 78.136841 16.439636 79.788727 14.930298 81.566406 13.856995 C 83.126068 12.96814 83.654327 10.972473 82.723572 9.412811 L 82.673248 9.37088 C 82.094666 8.490417 81.105225 8.012482 80.090607 8.012482 Z"/>
    <path id="Path-copy-66" fill="none" stroke="#fdfdfd" stroke-width="8" stroke-linejoin="round" d="M 80.090607 8.012482 C 79.721649 8.012482 79.34433 8.079559 78.983765 8.213715 C 75.780579 9.320557 69.105927 11.94516 64.930084 15.643036 C 64.930084 15.643036 69.910919 16.221619 73.77652 18.175385 C 74.170624 18.334686 74.581512 18.410156 74.992371 18.410156 C 75.755432 18.410156 76.501709 18.133453 77.029999 17.554871 C 78.136841 16.439636 79.788727 14.930298 81.566406 13.856995 C 83.126068 12.96814 83.654327 10.972473 82.723572 9.412811 L 82.673248 9.37088 C 82.094666 8.490417 81.105225 8.012482 80.090607 8.012482 Z"/>
    <path id="Path-copy-65" fill="#fdfdfd" fill-rule="evenodd" stroke="none" d="M 85.74231 14.385284 C 85.499115 14.385284 85.239197 14.418823 84.98764 14.485901 C 84.769623 14.527832 84.543213 14.661987 84.325195 14.754211 C 78.631622 17.957397 76.317291 23.558716 76.317291 23.558716 C 79.964874 25.160309 82.186951 28.011292 83.436371 30.54364 C 84.945709 33.478455 85.21402 36.103027 85.21402 36.103027 C 88.769379 28.673706 88.861603 21.160553 88.459106 16.884064 C 88.308167 15.374725 87.1091 14.385284 85.74231 14.385284 Z"/>
    <path id="Path-copy-64" fill="none" stroke="#fdfdfd" stroke-width="8" stroke-linejoin="round" d="M 85.74231 14.385284 C 85.499115 14.385284 85.239197 14.418823 84.98764 14.485901 C 84.769623 14.527832 84.543213 14.661987 84.325195 14.754211 C 78.631622 17.957397 76.317291 23.558716 76.317291 23.558716 C 79.964874 25.160309 82.186951 28.011292 83.436371 30.54364 C 84.945709 33.478455 85.21402 36.103027 85.21402 36.103027 C 88.769379 28.673706 88.861603 21.160553 88.459106 16.884064 C 88.308167 15.374725 87.1091 14.385284 85.74231 14.385284 Z"/>
    <path id="Path-copy-63" fill="#fdfdfd" fill-rule="evenodd" stroke="none" d="M 84.98764 14.435577 C 84.769623 14.485901 84.543213 14.569763 84.325195 14.703918 C 78.631622 17.957397 76.317291 23.558716 76.317291 23.558716 C 79.964874 25.160309 82.186951 28.011292 83.436371 30.54364 C 85.524292 24.447571 85.432037 18.577881 85.121796 15.01416 C 85.121796 14.796143 85.079865 14.569763 84.98764 14.435577 Z"/>
    <path id="Path-copy-62" fill="none" stroke="#fdfdfd" stroke-width="8" stroke-linejoin="round" d="M 84.98764 14.435577 C 84.769623 14.485901 84.543213 14.569763 84.325195 14.703918 C 78.631622 17.957397 76.317291 23.558716 76.317291 23.558716 C 79.964874 25.160309 82.186951 28.011292 83.436371 30.54364 C 85.524292 24.447571 85.432037 18.577881 85.121796 15.01416 C 85.121796 14.796143 85.079865 14.569763 84.98764 14.435577 Z"/>
    <path id="Path-copy-61" fill="#fdfdfd" fill-rule="evenodd" stroke="none" d="M 14.215942 6.385712 C 10.006531 6.385712 6.208038 9.387634 5.444977 13.773132 C 4.24588 20.397461 4.153656 30.099182 9.09256 40.689728 C 9.09256 40.689728 13.536713 24.891937 40.19339 20.531616 C 40.19339 20.531616 30.223358 11.098236 17.008209 6.830139 C 16.077454 6.52829 15.138306 6.385712 14.215942 6.385712 Z"/>
    <path id="Path-copy-60" fill="none" stroke="#fdfdfd" stroke-width="8" stroke-linejoin="round" d="M 14.215942 6.385712 C 10.006531 6.385712 6.208038 9.387634 5.444977 13.773132 C 4.24588 20.397461 4.153656 30.099182 9.09256 40.689728 C 9.09256 40.689728 13.536713 24.891937 40.19339 20.531616 C 40.19339 20.531616 30.223358 11.098236 17.008209 6.830139 C 16.077454 6.52829 15.138306 6.385712 14.215942 6.385712 Z"/>
    <path id="Path-copy-59" fill="#fdfdfd" fill-rule="evenodd" stroke="none" d="M 13.805054 6.385712 L 13.805054 6.385712 C 9.754974 6.519897 6.157715 9.496643 5.444977 13.773132 C 4.329742 20.397461 4.153656 30.099182 9.09256 40.689728 C 9.09256 40.689728 9.713043 38.509583 11.800995 35.524414 C 8.472046 26.451599 8.690063 18.217285 9.713043 12.43988 C 10.157471 9.764984 11.717133 7.635132 13.805054 6.385712 Z"/>
    <path id="Path-copy-58" fill="none" stroke="#fdfdfd" stroke-width="8" stroke-linejoin="round" d="M 13.805054 6.385712 L 13.805054 6.385712 C 9.754974 6.519897 6.157715 9.496643 5.444977 13.773132 C 4.329742 20.397461 4.153656 30.099182 9.09256 40.689728 C 9.09256 40.689728 9.713043 38.509583 11.800995 35.524414 C 8.472046 26.451599 8.690063 18.217285 9.713043 12.43988 C 10.157471 9.764984 11.717133 7.635132 13.805054 6.385712 Z"/>
    <path id="Path-copy-57" fill="#fdfdfd" fill-rule="evenodd" stroke="none" d="M 15.68338 8.012482 C 14.668762 8.012482 13.679321 8.490417 13.092346 9.37088 L 13.050415 9.412811 C 12.119659 10.972473 12.647919 12.96814 14.207581 13.856995 C 15.98526 14.930298 17.586823 16.439636 18.702057 17.554871 C 19.255493 18.133453 20.010162 18.410156 20.781616 18.410156 C 21.192474 18.410156 21.603363 18.334686 21.989075 18.175385 C 25.821136 16.221619 30.843872 15.643036 30.843872 15.643036 C 26.66803 11.94516 19.993378 9.320557 16.790222 8.213715 C 16.429657 8.079559 16.052338 8.012482 15.68338 8.012482 Z"/>
    <path id="Path-copy-56" fill="none" stroke="#fdfdfd" stroke-width="8" stroke-linejoin="round" d="M 15.68338 8.012482 C 14.668762 8.012482 13.679321 8.490417 13.092346 9.37088 L 13.050415 9.412811 C 12.119659 10.972473 12.647919 12.96814 14.207581 13.856995 C 15.98526 14.930298 17.586823 16.439636 18.702057 17.554871 C 19.255493 18.133453 20.010162 18.410156 20.781616 18.410156 C 21.192474 18.410156 21.603363 18.334686 21.989075 18.175385 C 25.821136 16.221619 30.843872 15.643036 30.843872 15.643036 C 26.66803 11.94516 19.993378 9.320557 16.790222 8.213715 C 16.429657 8.079559 16.052338 8.012482 15.68338 8.012482 Z"/>
    <path id="Path-copy-55" fill="#fdfdfd" fill-rule="evenodd" stroke="none" d="M 10.006561 14.385284 C 8.664917 14.385284 7.46582 15.374725 7.31488 16.884064 C 6.954315 21.160553 6.954315 28.673706 10.559967 36.103027 C 10.559967 36.103027 10.828308 33.478455 12.295715 30.54364 C 13.587036 28.011292 15.809143 25.160309 19.456726 23.558716 C 19.456726 23.558716 17.142395 17.957397 11.406891 14.754211 C 11.180481 14.661987 10.962463 14.527832 10.736053 14.485901 C 10.492889 14.418823 10.241333 14.385284 10.006561 14.385284 Z"/>
    <path id="Path-copy-54" fill="none" stroke="#fdfdfd" stroke-width="8" stroke-linejoin="round" d="M 10.006561 14.385284 C 8.664917 14.385284 7.46582 15.374725 7.31488 16.884064 C 6.954315 21.160553 6.954315 28.673706 10.559967 36.103027 C 10.559967 36.103027 10.828308 33.478455 12.295715 30.54364 C 13.587036 28.011292 15.809143 25.160309 19.456726 23.558716 C 19.456726 23.558716 17.142395 17.957397 11.406891 14.754211 C 11.180481 14.661987 10.962463 14.527832 10.736053 14.485901 C 10.492889 14.418823 10.241333 14.385284 10.006561 14.385284 Z"/>
    <path id="Path-copy-53" fill="#fdfdfd" fill-rule="evenodd" stroke="none" d="M 10.736084 14.435577 C 10.694153 14.569763 10.652222 14.796143 10.652222 15.01416 C 10.291656 18.577881 10.249725 24.447571 12.295746 30.54364 C 13.587067 28.011292 15.809143 25.160309 19.456726 23.558716 C 19.456726 23.558716 17.142395 17.957397 11.406891 14.703918 C 11.180511 14.569763 10.962494 14.485901 10.736084 14.435577 Z"/>
    <path id="Path-copy-52" fill="none" stroke="#fdfdfd" stroke-width="8" stroke-linejoin="round" d="M 10.736084 14.435577 C 10.694153 14.569763 10.652222 14.796143 10.652222 15.01416 C 10.291656 18.577881 10.249725 24.447571 12.295746 30.54364 C 13.587067 28.011292 15.809143 25.160309 19.456726 23.558716 C 19.456726 23.558716 17.142395 17.957397 11.406891 14.703918 C 11.180511 14.569763 10.962494 14.485901 10.736084 14.435577 Z"/>
    <path id="Path-copy-51" fill="#fdfdfd" fill-rule="evenodd" stroke="none" d="M 47.840729 15.643066 C 35.204193 15.643066 26.173279 18.53598 20.035278 21.781067 C 12.253784 25.873047 7.31488 33.788727 6.912384 42.559662 C 6.602142 50.701752 8.472046 56.52948 8.472046 56.52948 C 7.180725 58.969574 6.417664 61.594177 5.847473 63.908478 C 4.505829 69.920715 6.736298 76.234772 11.759064 79.840424 C 18.165375 84.418762 27.288513 87.445862 34.717834 89.315765 C 39.036224 90.405823 43.463623 90.950867 47.88266 90.950867 C 52.301666 90.950867 56.720703 90.405823 61.013947 89.315765 C 68.485168 87.487762 77.608307 84.418762 84.014648 79.840424 C 88.995483 76.234772 91.309784 69.870392 89.792084 63.908478 C 89.263794 61.64447 88.509125 59.10376 87.259735 56.705566 C 87.259735 56.663635 87.217804 56.571411 87.217804 56.52948 C 87.217804 56.52948 89.129639 50.701752 88.769073 42.559662 C 88.374969 33.788727 83.436066 25.873047 75.646179 21.781067 C 70.707275 19.156494 63.772675 16.749908 54.557312 15.953308 C 52.469391 15.777222 50.247284 15.643066 47.840729 15.643066 Z"/>
    <path id="Path-copy-50" fill="none" stroke="#fdfdfd" stroke-width="8" stroke-linejoin="round" d="M 47.840729 15.643066 C 35.204193 15.643066 26.173279 18.53598 20.035278 21.781067 C 12.253784 25.873047 7.31488 33.788727 6.912384 42.559662 C 6.602142 50.701752 8.472046 56.52948 8.472046 56.52948 C 7.180725 58.969574 6.417664 61.594177 5.847473 63.908478 C 4.505829 69.920715 6.736298 76.234772 11.759064 79.840424 C 18.165375 84.418762 27.288513 87.445862 34.717834 89.315765 C 39.036224 90.405823 43.463623 90.950867 47.88266 90.950867 C 52.301666 90.950867 56.720703 90.405823 61.013947 89.315765 C 68.485168 87.487762 77.608307 84.418762 84.014648 79.840424 C 88.995483 76.234772 91.309784 69.870392 89.792084 63.908478 C 89.263794 61.64447 88.509125 59.10376 87.259735 56.705566 C 87.259735 56.663635 87.217804 56.571411 87.217804 56.52948 C 87.217804 56.52948 89.129639 50.701752 88.769073 42.559662 C 88.374969 33.788727 83.436066 25.873047 75.646179 21.781067 C 70.707275 19.156494 63.772675 16.749908 54.557312 15.953308 C 52.469391 15.777222 50.247284 15.643066 47.840729 15.643066 Z"/>
    <path id="Path-copy-49" fill="#fdfdfd" fill-rule="evenodd" stroke="none" d="M 47.840759 19.642853 C 37.166351 19.642853 29.51062 22.091339 24.303406 24.850067 C 17.762909 28.27124 13.587067 34.996216 13.276825 42.425537 C 12.95816 49.318207 14.517822 54.215179 14.517822 54.215179 C 13.494843 56.261169 12.832397 58.483246 12.295746 60.445404 C 11.13858 65.46817 13.092346 70.80954 17.276581 73.87854 C 22.659882 77.794464 30.399475 80.326813 36.671631 81.928375 C 40.319214 82.867523 44.059021 83.328705 47.798828 83.328705 C 51.530273 83.328705 55.270081 82.867523 58.917664 81.928375 C 65.282043 80.368713 72.937775 77.794464 78.321106 73.87854 C 82.673035 70.80954 84.542938 65.46817 83.385773 60.445404 C 82.941345 58.441345 82.228607 56.261169 81.163696 54.215179 C 81.163696 54.215179 82.765259 49.225952 82.455017 42.425537 C 82.102844 34.945892 77.960541 28.27124 71.378113 24.850067 C 66.212799 22.091339 58.515167 19.642853 47.840759 19.642853 Z"/>
    <path id="Path-copy-48" fill="none" stroke="#fdfdfd" stroke-width="8" stroke-linejoin="round" d="M 47.840759 19.642853 C 37.166351 19.642853 29.51062 22.091339 24.303406 24.850067 C 17.762909 28.27124 13.587067 34.996216 13.276825 42.425537 C 12.95816 49.318207 14.517822 54.215179 14.517822 54.215179 C 13.494843 56.261169 12.832397 58.483246 12.295746 60.445404 C 11.13858 65.46817 13.092346 70.80954 17.276581 73.87854 C 22.659882 77.794464 30.399475 80.326813 36.671631 81.928375 C 40.319214 82.867523 44.059021 83.328705 47.798828 83.328705 C 51.530273 83.328705 55.270081 82.867523 58.917664 81.928375 C 65.282043 80.368713 72.937775 77.794464 78.321106 73.87854 C 82.673035 70.80954 84.542938 65.46817 83.385773 60.445404 C 82.941345 58.441345 82.228607 56.261169 81.163696 54.215179 C 81.163696 54.215179 82.765259 49.225952 82.455017 42.425537 C 82.102844 34.945892 77.960541 28.27124 71.378113 24.850067 C 66.212799 22.091339 58.515167 19.642853 47.840759 19.642853 Z"/>
    <path id="Path-copy-47" fill="#fdfdfd" fill-rule="evenodd" stroke="none" d="M 65.374451 29.830933 C 61.425018 29.830933 57.819366 31.273193 55.44632 34.191284 C 50.641602 40.060944 52.87207 49.89682 60.435547 56.034821 C 64.301147 59.204437 68.82077 60.789246 72.94632 60.789246 C 76.644196 60.789246 80.03186 59.514679 82.362946 56.973969 C 82.547424 56.747559 82.673187 56.571472 82.857666 56.437286 C 86.639404 51.766724 86.102753 44.78183 82.052673 39.088257 C 80.945831 37.43634 79.562286 35.885101 77.868469 34.551819 C 74.01123 31.407379 69.5 29.830933 65.374451 29.830933 Z"/>
    <path id="Path-copy-46" fill="none" stroke="#fdfdfd" stroke-width="8" stroke-linejoin="round" d="M 65.374451 29.830933 C 61.425018 29.830933 57.819366 31.273193 55.44632 34.191284 C 50.641602 40.060944 52.87207 49.89682 60.435547 56.034821 C 64.301147 59.204437 68.82077 60.789246 72.94632 60.789246 C 76.644196 60.789246 80.03186 59.514679 82.362946 56.973969 C 82.547424 56.747559 82.673187 56.571472 82.857666 56.437286 C 86.639404 51.766724 86.102753 44.78183 82.052673 39.088257 C 80.945831 37.43634 79.562286 35.885101 77.868469 34.551819 C 74.01123 31.407379 69.5 29.830933 65.374451 29.830933 Z"/>
    <path id="Path-copy-45" fill="#fdfdfd" fill-rule="evenodd" stroke="none" d="M 65.374451 29.763855 C 61.425018 29.763855 57.819366 31.206116 55.44632 34.107422 C 50.641602 40.019012 52.87207 49.854889 60.435547 55.992889 C 64.301147 59.162506 68.82077 60.747314 72.94632 60.747314 C 76.644196 60.747314 80.03186 59.472748 82.362946 56.923645 C 82.052673 56.034821 81.650208 55.104034 81.20578 54.21521 C 81.20578 54.21521 82.765442 49.225983 82.45517 42.333344 C 82.45517 41.218109 82.279083 40.111237 82.052673 38.996002 C 80.945831 37.39444 79.562286 35.834778 77.868469 34.501526 C 74.01123 31.340302 69.5 29.763855 65.374451 29.763855 Z"/>
    <path id="Path-copy-44" fill="none" stroke="#fdfdfd" stroke-width="8" stroke-linejoin="round" d="M 65.374451 29.763855 C 61.425018 29.763855 57.819366 31.206116 55.44632 34.107422 C 50.641602 40.019012 52.87207 49.854889 60.435547 55.992889 C 64.301147 59.162506 68.82077 60.747314 72.94632 60.747314 C 76.644196 60.747314 80.03186 59.472748 82.362946 56.923645 C 82.052673 56.034821 81.650208 55.104034 81.20578 54.21521 C 81.20578 54.21521 82.765442 49.225983 82.45517 42.333344 C 82.45517 41.218109 82.279083 40.111237 82.052673 38.996002 C 80.945831 37.39444 79.562286 35.834778 77.868469 34.501526 C 74.01123 31.340302 69.5 29.763855 65.374451 29.763855 Z"/>
    <path id="Path-copy-43" fill="#fdfdfd" fill-rule="evenodd" stroke="none" d="M 43.48053 53.368408 C 38.189453 53.368408 33.963287 57.636475 33.963287 62.885651 C 33.963287 68.134796 38.231384 72.360962 43.48053 72.360962 C 45.082123 72.360962 46.599823 71.966858 47.933105 71.25412 C 49.266357 71.966858 50.733765 72.360962 52.377258 72.360962 C 57.626434 72.360962 61.85257 68.092865 61.85257 62.885651 C 61.85257 57.636475 57.584503 53.368408 52.377258 53.368408 C 50.733765 53.368408 49.266357 53.770905 47.933105 54.483643 C 46.599823 53.770905 45.082123 53.368408 43.48053 53.368408 Z"/>
    <path id="Path-copy-42" fill="none" stroke="#fdfdfd" stroke-width="8" stroke-linejoin="round" d="M 43.48053 53.368408 C 38.189453 53.368408 33.963287 57.636475 33.963287 62.885651 C 33.963287 68.134796 38.231384 72.360962 43.48053 72.360962 C 45.082123 72.360962 46.599823 71.966858 47.933105 71.25412 C 49.266357 71.966858 50.733765 72.360962 52.377258 72.360962 C 57.626434 72.360962 61.85257 68.092865 61.85257 62.885651 C 61.85257 57.636475 57.584503 53.368408 52.377258 53.368408 C 50.733765 53.368408 49.266357 53.770905 47.933105 54.483643 C 46.599823 53.770905 45.082123 53.368408 43.48053 53.368408 Z"/>
    <path id="Path-copy-41" fill="#fdfdfd" fill-rule="evenodd" stroke="none" d="M 34.04715 61.510498 C 34.005219 61.996857 33.963287 62.441254 33.963287 62.885681 C 33.963287 68.092926 38.189453 72.360992 43.48053 72.360992 C 45.082123 72.360992 46.599823 71.966888 47.933105 71.25415 C 49.266357 71.966888 50.733765 72.360992 52.377258 72.360992 C 57.584503 72.360992 61.85257 68.134827 61.85257 62.885681 C 61.85257 62.441254 61.810669 61.996857 61.768738 61.510498 C 61.148224 66.13916 57.140076 69.694489 52.377258 69.694489 C 50.733765 69.694489 49.266357 69.291992 47.933105 68.579254 C 46.599823 69.291992 45.082123 69.694489 43.48053 69.694489 C 38.675781 69.694489 34.717957 66.13916 34.04715 61.510498 Z"/>
    <path id="Path-copy-40" fill="none" stroke="#fdfdfd" stroke-width="8" stroke-linejoin="round" d="M 34.04715 61.510498 C 34.005219 61.996857 33.963287 62.441254 33.963287 62.885681 C 33.963287 68.092926 38.189453 72.360992 43.48053 72.360992 C 45.082123 72.360992 46.599823 71.966888 47.933105 71.25415 C 49.266357 71.966888 50.733765 72.360992 52.377258 72.360992 C 57.584503 72.360992 61.85257 68.134827 61.85257 62.885681 C 61.85257 62.441254 61.810669 61.996857 61.768738 61.510498 C 61.148224 66.13916 57.140076 69.694489 52.377258 69.694489 C 50.733765 69.694489 49.266357 69.291992 47.933105 68.579254 C 46.599823 69.291992 45.082123 69.694489 43.48053 69.694489 C 38.675781 69.694489 34.717957 66.13916 34.04715 61.510498 Z"/>
    <path id="Path-copy-39" fill="#fdfdfd" fill-rule="evenodd" stroke="none" d="M 47.87442 51.473328 C 47.195221 51.473328 46.507629 51.540405 45.836823 51.674591 C 45.794891 51.674591 45.75296 51.674591 45.660736 51.766815 C 43.572815 52.253174 42.901978 54.969971 44.545502 56.345154 C 45.174377 56.881805 45.887115 57.368164 46.859802 57.686798 C 47.15329 57.795807 47.488708 57.8461 47.815735 57.8461 C 48.151154 57.8461 48.486542 57.795807 48.780029 57.686798 C 49.752716 57.326233 50.465454 56.881805 51.085968 56.345154 C 52.779785 54.92804 52.067047 52.169312 49.886902 51.674591 L 49.844971 51.674591 C 49.224457 51.540405 48.55365 51.473328 47.87442 51.473328 Z"/>
    <path id="Path-copy-38" fill="none" stroke="#fdfdfd" stroke-width="8" stroke-linejoin="round" d="M 47.87442 51.473328 C 47.195221 51.473328 46.507629 51.540405 45.836823 51.674591 C 45.794891 51.674591 45.75296 51.674591 45.660736 51.766815 C 43.572815 52.253174 42.901978 54.969971 44.545502 56.345154 C 45.174377 56.881805 45.887115 57.368164 46.859802 57.686798 C 47.15329 57.795807 47.488708 57.8461 47.815735 57.8461 C 48.151154 57.8461 48.486542 57.795807 48.780029 57.686798 C 49.752716 57.326233 50.465454 56.881805 51.085968 56.345154 C 52.779785 54.92804 52.067047 52.169312 49.886902 51.674591 L 49.844971 51.674591 C 49.224457 51.540405 48.55365 51.473328 47.87442 51.473328 Z"/>
    <path id="Path-copy-37" fill="#fdfdfd" fill-rule="evenodd" stroke="none" d="M 43.790833 53.460632 C 43.522491 54.483643 43.748901 55.590485 44.637726 56.345154 C 45.25824 56.881805 45.970978 57.368164 46.910126 57.686798 C 47.220398 57.795807 47.555786 57.84613 47.882813 57.84613 C 48.218231 57.84613 48.55365 57.795807 48.863892 57.686798 C 49.80304 57.368164 50.507385 56.881805 51.136292 56.345154 C 52.025116 55.590485 52.243134 54.483643 51.983185 53.460632 L 51.983185 53.460632 C 51.798737 53.90506 51.530396 54.349487 51.136292 54.70166 C 50.507385 55.187988 49.80304 55.632416 48.863892 56.034912 C 48.55365 56.152313 48.218231 56.202606 47.882813 56.202606 C 47.555786 56.202606 47.220398 56.152313 46.910126 56.034912 C 45.970978 55.682739 45.25824 55.187988 44.637726 54.70166 C 44.193329 54.349487 43.975311 53.90506 43.790833 53.460632 Z"/>
    <path id="Path-copy-36" fill="none" stroke="#fdfdfd" stroke-width="8" stroke-linejoin="round" d="M 43.790833 53.460632 C 43.522491 54.483643 43.748901 55.590485 44.637726 56.345154 C 45.25824 56.881805 45.970978 57.368164 46.910126 57.686798 C 47.220398 57.795807 47.555786 57.84613 47.882813 57.84613 C 48.218231 57.84613 48.55365 57.795807 48.863892 57.686798 C 49.80304 57.368164 50.507385 56.881805 51.136292 56.345154 C 52.025116 55.590485 52.243134 54.483643 51.983185 53.460632 L 51.983185 53.460632 C 51.798737 53.90506 51.530396 54.349487 51.136292 54.70166 C 50.507385 55.187988 49.80304 55.632416 48.863892 56.034912 C 48.55365 56.152313 48.218231 56.202606 47.882813 56.202606 C 47.555786 56.202606 47.220398 56.152313 46.910126 56.034912 C 45.970978 55.682739 45.25824 55.187988 44.637726 54.70166 C 44.193329 54.349487 43.975311 53.90506 43.790833 53.460632 Z"/>
    <path id="Path-copy-35" fill="#fdfdfd" fill-rule="evenodd" stroke="none" d="M 47.975067 51.8255 C 47.471954 51.8255 46.977234 51.875824 46.465729 51.984833 L 46.373474 51.984833 C 46.021301 52.035156 45.75296 52.211243 45.526581 52.345398 C 44.947998 52.88205 44.947998 53.770874 45.526581 54.215302 C 45.970978 54.567474 46.50766 54.92804 47.178467 55.187988 C 47.396484 55.280243 47.656433 55.322144 47.90799 55.322144 C 48.167908 55.322144 48.419495 55.280243 48.645874 55.187988 C 49.308319 54.92804 49.844971 54.567474 50.289398 54.215302 C 50.867981 53.770874 50.867981 52.88205 50.289398 52.42926 C 50.062988 52.169312 49.80304 52.035156 49.534729 51.984833 L 49.484406 51.984833 C 48.9729 51.875824 48.47818 51.8255 47.975067 51.8255 Z"/>
    <path id="Path-copy-34" fill="none" stroke="#fdfdfd" stroke-width="8" stroke-linejoin="round" d="M 47.975067 51.8255 C 47.471954 51.8255 46.977234 51.875824 46.465729 51.984833 L 46.373474 51.984833 C 46.021301 52.035156 45.75296 52.211243 45.526581 52.345398 C 44.947998 52.88205 44.947998 53.770874 45.526581 54.215302 C 45.970978 54.567474 46.50766 54.92804 47.178467 55.187988 C 47.396484 55.280243 47.656433 55.322144 47.90799 55.322144 C 48.167908 55.322144 48.419495 55.280243 48.645874 55.187988 C 49.308319 54.92804 49.844971 54.567474 50.289398 54.215302 C 50.867981 53.770874 50.867981 52.88205 50.289398 52.42926 C 50.062988 52.169312 49.80304 52.035156 49.534729 51.984833 L 49.484406 51.984833 C 48.9729 51.875824 48.47818 51.8255 47.975067 51.8255 Z"/>
    <path id="Path-copy-33" fill="#fdfdfd" fill-rule="evenodd" stroke="none" d="M 62.255188 39.66687 C 60.209167 39.66687 58.51535 41.352295 58.51535 43.398285 L 58.51535 49.62854 C 58.51535 51.67453 60.209167 53.368347 62.255188 53.368347 L 65.190002 53.368347 C 67.286316 53.368347 68.92984 51.67453 68.92984 49.62854 L 68.92984 43.398285 C 68.92984 41.352295 67.286316 39.66687 65.190002 39.66687 Z"/>
    <path id="Path-copy-32" fill="none" stroke="#fdfdfd" stroke-width="8" stroke-linejoin="round" d="M 62.255188 39.66687 C 60.209167 39.66687 58.51535 41.352295 58.51535 43.398285 L 58.51535 49.62854 C 58.51535 51.67453 60.209167 53.368347 62.255188 53.368347 L 65.190002 53.368347 C 67.286316 53.368347 68.92984 51.67453 68.92984 49.62854 L 68.92984 43.398285 C 68.92984 41.352295 67.286316 39.66687 65.190002 39.66687 Z"/>
    <path id="Path-copy-31" fill="#fdfdfd" fill-rule="evenodd" stroke="none" d="M 68.259033 37.796967 C 65.953094 37.796967 63.990936 39.66687 63.990936 42.065033 C 63.990936 44.421295 65.86084 46.341522 68.259033 46.341522 C 70.623657 46.341522 72.535492 44.471588 72.535492 42.065033 C 72.535492 39.750702 70.665588 37.796967 68.259033 37.796967 Z"/>
    <path id="Path-copy-30" fill="none" stroke="#fdfdfd" stroke-width="8" stroke-linejoin="round" d="M 68.259033 37.796967 C 65.953094 37.796967 63.990936 39.66687 63.990936 42.065033 C 63.990936 44.421295 65.86084 46.341522 68.259033 46.341522 C 70.623657 46.341522 72.535492 44.471588 72.535492 42.065033 C 72.535492 39.750702 70.665588 37.796967 68.259033 37.796967 Z"/>
    <path id="Path-copy-29" fill="#fdfdfd" fill-rule="evenodd" stroke="none" d="M 32.051422 39.574646 C 29.158508 39.574646 26.844177 41.888947 26.844177 44.78186 L 26.844177 48.119202 C 26.844177 51.012085 29.158508 53.368347 32.051422 53.368347 C 34.935944 53.368347 37.300568 51.012085 37.300568 48.119202 L 37.300568 44.78186 C 37.300568 41.888947 34.935944 39.574646 32.051422 39.574646 Z"/>
    <path id="Path-copy-28" fill="none" stroke="#fdfdfd" stroke-width="8" stroke-linejoin="round" d="M 32.051422 39.574646 C 29.158508 39.574646 26.844177 41.888947 26.844177 44.78186 L 26.844177 48.119202 C 26.844177 51.012085 29.158508 53.368347 32.051422 53.368347 C 34.935944 53.368347 37.300568 51.012085 37.300568 48.119202 L 37.300568 44.78186 C 37.300568 41.888947 34.935944 39.574646 32.051422 39.574646 Z"/>
    <path id="Path-copy-27" fill="#fdfdfd" fill-rule="evenodd" stroke="none" d="M 27.506622 37.796967 C 25.108429 37.796967 23.238525 39.750702 23.238525 42.065033 C 23.238525 44.471588 25.15036 46.341522 27.506622 46.341522 C 29.913177 46.341522 31.783081 44.421295 31.783081 42.065033 C 31.783081 39.66687 29.820923 37.796967 27.506622 37.796967 Z"/>
    <path id="Path-copy-26" fill="none" stroke="#fdfdfd" stroke-width="8" stroke-linejoin="round" d="M 27.506622 37.796967 C 25.108429 37.796967 23.238525 39.750702 23.238525 42.065033 C 23.238525 44.471588 25.15036 46.341522 27.506622 46.341522 C 29.913177 46.341522 31.783081 44.421295 31.783081 42.065033 C 31.783081 39.66687 29.820923 37.796967 27.506622 37.796967 Z"/>
    <path id="Path-copy-25" fill="#f7e3bc" fill-rule="evenodd" stroke="none" d="M 10.005249 14.385284 C 8.663605 14.385284 7.464508 15.374725 7.313568 16.884064 C 6.953003 21.160553 6.953003 28.673706 10.558655 36.103027 C 10.558655 36.103027 10.826996 33.478455 12.294403 30.54364 C 13.585724 28.011292 15.807831 25.160309 19.455414 23.558716 C 19.455414 23.558716 17.141083 17.957397 11.405579 14.754211 C 11.179169 14.661987 10.961151 14.527832 10.734741 14.485901 C 10.491577 14.418823 10.240021 14.385284 10.005249 14.385284 Z"/>
    <path id="Path-copy-24" fill="#efc2b1" fill-rule="evenodd" stroke="none" d="M 10.734772 14.435577 C 10.692841 14.569763 10.650909 14.796143 10.650909 15.01416 C 10.290344 18.577881 10.248413 24.447571 12.294434 30.54364 C 13.585754 28.011292 15.807831 25.160309 19.455414 23.558716 C 19.455414 23.558716 17.141083 17.957397 11.405579 14.703918 C 11.179199 14.569763 10.961182 14.485901 10.734772 14.435577 Z"/>
    <path id="Path-copy-23" fill="#faf1a1" fill-rule="evenodd" stroke="none" d="M 81.598602 6.385712 C 80.676208 6.385712 79.737061 6.52829 78.806305 6.830139 C 65.591187 11.098236 55.629517 20.531616 55.629517 20.531616 C 82.227478 24.891937 86.680054 40.689728 86.721985 40.689728 C 91.660889 30.099182 91.577026 20.397461 90.369537 13.773132 C 89.606506 9.387634 85.807983 6.385712 81.598602 6.385712 Z"/>
    <path id="Path-copy-22" fill="#f7e594" fill-rule="evenodd" stroke="none" d="M 81.967651 6.385712 L 81.967651 6.385712 C 84.055573 7.635132 85.615234 9.764984 86.059662 12.43988 C 87.032349 18.217285 87.300659 26.451599 83.963348 35.524414 C 86.059662 38.509583 86.680145 40.689728 86.680145 40.689728 C 91.619049 30.099182 91.442963 20.397461 90.327728 13.773132 C 89.61499 9.496643 86.009338 6.519897 81.967651 6.385712 Z"/>
    <path id="Path-copy-21" fill="#fdfbb1" fill-rule="evenodd" stroke="none" d="M 80.089294 8.012482 C 79.720337 8.012482 79.343018 8.079559 78.982452 8.213715 C 75.779266 9.320557 69.104614 11.94516 64.928772 15.643036 C 64.928772 15.643036 69.909607 16.221619 73.775208 18.175385 C 74.169312 18.334686 74.5802 18.410156 74.991058 18.410156 C 75.75412 18.410156 76.500397 18.133453 77.028687 17.554871 C 78.135529 16.439636 79.787415 14.930298 81.565094 13.856995 C 83.124756 12.96814 83.653015 10.972473 82.72226 9.412811 L 82.671936 9.37088 C 82.093353 8.490417 81.103912 8.012482 80.089294 8.012482 Z"/>
    <path id="Path-copy-20" fill="#f7e3bc" fill-rule="evenodd" stroke="none" d="M 85.740997 14.385284 C 85.497803 14.385284 85.237885 14.418823 84.986328 14.485901 C 84.768311 14.527832 84.541901 14.661987 84.323883 14.754211 C 78.63031 17.957397 76.315979 23.558716 76.315979 23.558716 C 79.963562 25.160309 82.185638 28.011292 83.435059 30.54364 C 84.944397 33.478455 85.212708 36.103027 85.212708 36.103027 C 88.768066 28.673706 88.860291 21.160553 88.457794 16.884064 C 88.306854 15.374725 87.107788 14.385284 85.740997 14.385284 Z"/>
    <path id="Path-copy-19" fill="#efc2b1" fill-rule="evenodd" stroke="none" d="M 84.986328 14.435577 C 84.768311 14.485901 84.541901 14.569763 84.323883 14.703918 C 78.63031 17.957397 76.315979 23.558716 76.315979 23.558716 C 79.963562 25.160309 82.185638 28.011292 83.435059 30.54364 C 85.52298 24.447571 85.430725 18.577881 85.120483 15.01416 C 85.120483 14.796143 85.078552 14.569763 84.986328 14.435577 Z"/>
    <path id="Path-copy-18" fill="#faf1a1" fill-rule="evenodd" stroke="none" d="M 14.21463 6.385712 C 10.005219 6.385712 6.206726 9.387634 5.443665 13.773132 C 4.244568 20.397461 4.152344 30.099182 9.091248 40.689728 C 9.091248 40.689728 13.5354 24.891937 40.192078 20.531616 C 40.192078 20.531616 30.222046 11.098236 17.006897 6.830139 C 16.076141 6.52829 15.136993 6.385712 14.21463 6.385712 Z"/>
    <path id="Path-copy-17" fill="#f7e594" fill-rule="evenodd" stroke="none" d="M 13.803741 6.385712 L 13.803741 6.385712 C 9.753662 6.519897 6.156403 9.496643 5.443665 13.773132 C 4.32843 20.397461 4.152344 30.099182 9.091248 40.689728 C 9.091248 40.689728 9.711731 38.509583 11.799683 35.524414 C 8.470734 26.451599 8.688751 18.217285 9.711731 12.43988 C 10.156158 9.764984 11.71582 7.635132 13.803741 6.385712 Z"/>
    <path id="Path-copy-16" fill="#fdfbb1" fill-rule="evenodd" stroke="none" d="M 15.682068 8.012482 C 14.66745 8.012482 13.678009 8.490417 13.091034 9.37088 L 13.049103 9.412811 C 12.118347 10.972473 12.646606 12.96814 14.206268 13.856995 C 15.983948 14.930298 17.58551 16.439636 18.700745 17.554871 C 19.254181 18.133453 20.00885 18.410156 20.780304 18.410156 C 21.191162 18.410156 21.602051 18.334686 21.987762 18.175385 C 25.819824 16.221619 30.84256 15.643036 30.84256 15.643036 C 26.666718 11.94516 19.992065 9.320557 16.78891 8.213715 C 16.428345 8.079559 16.051025 8.012482 15.682068 8.012482 Z"/>
    <path id="Path-copy-15" fill="#f7e3bc" fill-rule="evenodd" stroke="none" d="M 10.005249 14.385284 C 8.663605 14.385284 7.464508 15.374725 7.313568 16.884064 C 6.953003 21.160553 6.953003 28.673706 10.558655 36.103027 C 10.558655 36.103027 10.826996 33.478455 12.294403 30.54364 C 13.585724 28.011292 15.807831 25.160309 19.455414 23.558716 C 19.455414 23.558716 17.141083 17.957397 11.405579 14.754211 C 11.179169 14.661987 10.961151 14.527832 10.734741 14.485901 C 10.491577 14.418823 10.240021 14.385284 10.005249 14.385284 Z"/>
    <path id="Path-copy-14" fill="#efc2b1" fill-rule="evenodd" stroke="none" d="M 10.734772 14.435577 C 10.692841 14.569763 10.650909 14.796143 10.650909 15.01416 C 10.290344 18.577881 10.248413 24.447571 12.294434 30.54364 C 13.585754 28.011292 15.807831 25.160309 19.455414 23.558716 C 19.455414 23.558716 17.141083 17.957397 11.405579 14.703918 C 11.179199 14.569763 10.961182 14.485901 10.734772 14.435577 Z"/>
    <path id="Path-copy-13" fill="#faf1a1" fill-rule="evenodd" stroke="none" d="M 47.839417 15.643066 C 35.202881 15.643066 26.171967 18.53598 20.033966 21.781067 C 12.252472 25.873047 7.313568 33.788727 6.911072 42.559662 C 6.60083 50.701752 8.470734 56.52948 8.470734 56.52948 C 7.179413 58.969574 6.416351 61.594177 5.846161 63.908478 C 4.504517 69.920715 6.734985 76.234772 11.757751 79.840424 C 18.164063 84.418762 27.287201 87.445862 34.716522 89.315765 C 39.034912 90.405823 43.462311 90.950867 47.881348 90.950867 C 52.300354 90.950867 56.719391 90.405823 61.012634 89.315765 C 68.483856 87.487762 77.606995 84.418762 84.013336 79.840424 C 88.994171 76.234772 91.308472 69.870392 89.790771 63.908478 C 89.262482 61.64447 88.507813 59.10376 87.258423 56.705566 C 87.258423 56.663635 87.216492 56.571411 87.216492 56.52948 C 87.216492 56.52948 89.128326 50.701752 88.767761 42.559662 C 88.373657 33.788727 83.434753 25.873047 75.644867 21.781067 C 70.705963 19.156494 63.771362 16.749908 54.556 15.953308 C 52.468079 15.777222 50.245972 15.643066 47.839417 15.643066 Z"/>
    <path id="Path-copy-12" fill="#fdfbb1" fill-rule="evenodd" stroke="none" d="M 47.839447 19.642853 C 37.165039 19.642853 29.509308 22.091339 24.302094 24.850067 C 17.761597 28.27124 13.585754 34.996216 13.275513 42.425537 C 12.956848 49.318207 14.51651 54.215179 14.51651 54.215179 C 13.49353 56.261169 12.831085 58.483246 12.294434 60.445404 C 11.137268 65.46817 13.091034 70.80954 17.275269 73.87854 C 22.658569 77.794464 30.398163 80.326813 36.670319 81.928375 C 40.317902 82.867523 44.057709 83.328705 47.797516 83.328705 C 51.528961 83.328705 55.268768 82.867523 58.916351 81.928375 C 65.280731 80.368713 72.936462 77.794464 78.319794 73.87854 C 82.671722 70.80954 84.541626 65.46817 83.38446 60.445404 C 82.940033 58.441345 82.227295 56.261169 81.162384 54.215179 C 81.162384 54.215179 82.763947 49.225952 82.453705 42.425537 C 82.101532 34.945892 77.959229 28.27124 71.376801 24.850067 C 66.211487 22.091339 58.513855 19.642853 47.839447 19.642853 Z"/>
    <path id="Path-copy-11" fill="#f2cf60" fill-rule="evenodd" stroke="none" d="M 65.373138 29.830933 C 61.423706 29.830933 57.818054 31.273193 55.445007 34.191284 C 50.640289 40.060944 52.870758 49.89682 60.434235 56.034821 C 64.299835 59.204437 68.819458 60.789246 72.945007 60.789246 C 76.642883 60.789246 80.030548 59.514679 82.361633 56.973969 C 82.546112 56.747559 82.671875 56.571472 82.856354 56.437286 C 86.638092 51.766724 86.10144 44.78183 82.051361 39.088257 C 80.944519 37.43634 79.560974 35.885101 77.867157 34.551819 C 74.009918 31.407379 69.498688 29.830933 65.373138 29.830933 Z"/>
    <path id="Path-copy-10" fill="#f5de76" fill-rule="evenodd" stroke="none" d="M 65.373138 29.763855 C 61.423706 29.763855 57.818054 31.206116 55.445007 34.107422 C 50.640289 40.019012 52.870758 49.854889 60.434235 55.992889 C 64.299835 59.162506 68.819458 60.747314 72.945007 60.747314 C 76.642883 60.747314 80.030548 59.472748 82.361633 56.923645 C 82.051361 56.034821 81.648895 55.104034 81.204468 54.21521 C 81.204468 54.21521 82.76413 49.225983 82.453857 42.333344 C 82.453857 41.218109 82.277771 40.111237 82.051361 38.996002 C 80.944519 37.39444 79.560974 35.834778 77.867157 34.501526 C 74.009918 31.340302 69.498688 29.763855 65.373138 29.763855 Z"/>
    <path id="Path-copy-9" fill="#ffffff" fill-rule="evenodd" stroke="none" d="M 43.479218 53.368408 C 38.188141 53.368408 33.961975 57.636475 33.961975 62.885651 C 33.961975 68.134796 38.230072 72.360962 43.479218 72.360962 C 45.080811 72.360962 46.598511 71.966858 47.931793 71.25412 C 49.265045 71.966858 50.732452 72.360962 52.375946 72.360962 C 57.625122 72.360962 61.851257 68.092865 61.851257 62.885651 C 61.851257 57.636475 57.583191 53.368408 52.375946 53.368408 C 50.732452 53.368408 49.265045 53.770905 47.931793 54.483643 C 46.598511 53.770905 45.080811 53.368408 43.479218 53.368408 Z"/>
    <path id="Path-copy-8" fill="#ece7de" fill-rule="evenodd" stroke="none" d="M 34.045837 61.510498 C 34.003906 61.996857 33.961975 62.441254 33.961975 62.885681 C 33.961975 68.092926 38.188141 72.360992 43.479218 72.360992 C 45.080811 72.360992 46.598511 71.966888 47.931793 71.25415 C 49.265045 71.966888 50.732452 72.360992 52.375946 72.360992 C 57.583191 72.360992 61.851257 68.134827 61.851257 62.885681 C 61.851257 62.441254 61.809357 61.996857 61.767426 61.510498 C 61.146912 66.13916 57.138763 69.694489 52.375946 69.694489 C 50.732452 69.694489 49.265045 69.291992 47.931793 68.579254 C 46.598511 69.291992 45.080811 69.694489 43.479218 69.694489 C 38.674469 69.694489 34.716644 66.13916 34.045837 61.510498 Z"/>
    <path id="Path-copy-7" fill="#5e5c52" fill-rule="evenodd" stroke="none" d="M 47.873108 51.473328 C 47.193909 51.473328 46.506317 51.540405 45.83551 51.674591 C 45.793579 51.674591 45.751648 51.674591 45.659424 51.766815 C 43.571503 52.253174 42.900665 54.969971 44.544189 56.345154 C 45.173065 56.881805 45.885803 57.368164 46.85849 57.686798 C 47.151978 57.795807 47.487396 57.8461 47.814423 57.8461 C 48.149841 57.8461 48.485229 57.795807 48.778717 57.686798 C 49.751404 57.326233 50.464142 56.881805 51.084656 56.345154 C 52.778473 54.92804 52.065735 52.169312 49.88559 51.674591 L 49.843658 51.674591 C 49.223145 51.540405 48.552338 51.473328 47.873108 51.473328 Z"/>
    <path id="Path-copy-6" fill="#504e46" fill-rule="evenodd" stroke="none" d="M 43.78952 53.460632 C 43.521179 54.483643 43.747589 55.590485 44.636414 56.345154 C 45.256927 56.881805 45.969666 57.368164 46.908813 57.686798 C 47.219086 57.795807 47.554474 57.84613 47.8815 57.84613 C 48.216919 57.84613 48.552338 57.795807 48.862579 57.686798 C 49.801727 57.368164 50.506073 56.881805 51.134979 56.345154 C 52.023804 55.590485 52.241821 54.483643 51.981873 53.460632 L 51.981873 53.460632 C 51.797424 53.90506 51.529083 54.349487 51.134979 54.70166 C 50.506073 55.187988 49.801727 55.632416 48.862579 56.034912 C 48.552338 56.152313 48.216919 56.202606 47.8815 56.202606 C 47.554474 56.202606 47.219086 56.152313 46.908813 56.034912 C 45.969666 55.682739 45.256927 55.187988 44.636414 54.70166 C 44.192017 54.349487 43.973999 53.90506 43.78952 53.460632 Z"/>
    <path id="Path-copy-5" fill="#64655c" fill-rule="evenodd" stroke="none" d="M 47.973755 51.8255 C 47.470642 51.8255 46.975922 51.875824 46.464417 51.984833 L 46.372162 51.984833 C 46.019989 52.035156 45.751648 52.211243 45.525269 52.345398 C 44.946686 52.88205 44.946686 53.770874 45.525269 54.215302 C 45.969666 54.567474 46.506348 54.92804 47.177155 55.187988 C 47.395172 55.280243 47.655121 55.322144 47.906677 55.322144 C 48.166595 55.322144 48.418182 55.280243 48.644562 55.187988 C 49.307007 54.92804 49.843658 54.567474 50.288086 54.215302 C 50.866669 53.770874 50.866669 52.88205 50.288086 52.42926 C 50.061676 52.169312 49.801727 52.035156 49.533417 51.984833 L 49.483093 51.984833 C 48.971588 51.875824 48.476868 51.8255 47.973755 51.8255 Z"/>
    <path id="Path-copy-4" fill="#504e46" fill-rule="evenodd" stroke="none" d="M 62.253876 39.66687 C 60.207855 39.66687 58.514038 41.352295 58.514038 43.398285 L 58.514038 49.62854 C 58.514038 51.67453 60.207855 53.368347 62.253876 53.368347 L 65.18869 53.368347 C 67.285004 53.368347 68.928528 51.67453 68.928528 49.62854 L 68.928528 43.398285 C 68.928528 41.352295 67.285004 39.66687 65.18869 39.66687 Z"/>
    <path id="Path-copy-3" fill="#ffffff" fill-rule="evenodd" stroke="none" d="M 68.257721 37.796967 C 65.951782 37.796967 63.989624 39.66687 63.989624 42.065033 C 63.989624 44.421295 65.859528 46.341522 68.257721 46.341522 C 70.622345 46.341522 72.53418 44.471588 72.53418 42.065033 C 72.53418 39.750702 70.664276 37.796967 68.257721 37.796967 Z"/>
    <path id="Path-copy-2" fill="#504e46" fill-rule="evenodd" stroke="none" d="M 32.05011 39.574646 C 29.157196 39.574646 26.842865 41.888947 26.842865 44.78186 L 26.842865 48.119202 C 26.842865 51.012085 29.157196 53.368347 32.05011 53.368347 C 34.934631 53.368347 37.299255 51.012085 37.299255 48.119202 L 37.299255 44.78186 C 37.299255 41.888947 34.934631 39.574646 32.05011 39.574646 Z"/>
    <path id="Path-copy" fill="#ffffff" fill-rule="evenodd" stroke="none" d="M 27.50531 37.796967 C 25.107117 37.796967 23.237213 39.750702 23.237213 42.065033 C 23.237213 44.471588 25.149048 46.341522 27.50531 46.341522 C 29.911865 46.341522 31.781769 44.421295 31.781769 42.065033 C 31.781769 39.66687 29.819611 37.796967 27.50531 37.796967 Z"/>
</svg>
