<?xml version="1.0" encoding="UTF-8"?>
<!-- Generated by Pixelmator Pro 3.4.1 -->
<svg width="148" height="122" viewBox="0 0 148 122" xmlns="http://www.w3.org/2000/svg">
    <path id="Path-copy-20" fill="#72607d" fill-rule="evenodd" stroke="none" d="M 36.996765 1.801086 C 36.988586 1.801086 36.980347 1.801086 36.980347 1.801086 C 30.03125 1.801086 24.383606 21.821686 24.383606 35.760803 C 24.383606 49.658997 30.03125 60.946167 36.980347 60.946167 C 43.921265 60.946167 49.56897 49.699951 49.56897 35.760803 C 49.56897 21.878967 43.937683 1.801086 36.996765 1.801086 Z"/>
    <path id="Path-copy-19" fill="#b4949e" fill-rule="evenodd" stroke="none" d="M 36.980347 11.40213 C 34.54126 16.264038 31.848328 26.552643 31.848328 35.801758 C 31.848328 46.098511 35.286072 52.220947 36.980347 53.391388 C 38.666504 52.179993 42.055115 46.098511 42.055115 35.801758 C 42.055115 26.552643 39.411316 16.264038 36.980347 11.40213 Z"/>
    <path id="Path-copy-18" fill="#72607d" fill-rule="evenodd" stroke="none" d="M 110.866699 1.801086 C 110.858521 1.801086 110.858521 1.801086 110.850342 1.801086 C 103.901245 1.801086 98.253601 21.821686 98.253601 35.760803 C 98.253601 49.658997 103.901245 60.946167 110.850342 60.946167 C 117.799438 60.946167 123.438965 49.699951 123.438965 35.760803 C 123.438965 21.878967 117.807617 1.801086 110.866699 1.801086 Z"/>
    <path id="Path-copy-17" fill="#b4949e" fill-rule="evenodd" stroke="none" d="M 110.850342 11.40213 C 108.411194 16.264038 105.767456 26.552643 105.767456 35.801758 C 105.767456 46.098511 109.156067 52.220947 110.850342 53.391388 C 112.544678 52.179993 115.974182 46.098511 115.925049 35.801758 C 115.925049 26.552643 113.281311 16.264038 110.850342 11.40213 Z"/>
    <path id="Path-copy-16" fill="#72607d" fill-rule="evenodd" stroke="none" d="M 73.935852 15.830261 C 37.847961 15.830261 8.578308 46.79425 8.578308 67.85437 C 8.578308 88.914459 37.847961 121.359955 73.935852 121.359955 C 110.023682 121.359955 139.293335 88.914459 139.293335 67.85437 C 139.293335 46.79425 109.974548 15.830261 73.935852 15.830261 Z"/>
    <path id="Path-copy-15" fill="#72607d" fill-rule="evenodd" stroke="none" d="M 29.982178 34.025574 L 29.982178 34.025574 C -1.063721 42.538025 0.368713 88.267853 0.368713 88.267853 C 5.287903 78.232971 13.06366 77.029785 16.509583 77.029785 C 17.598206 77.029785 18.261169 77.144379 18.261169 77.144379 C 18.261169 77.144379 27.289307 56.608093 29.982178 34.025574 Z"/>
    <path id="Path-copy-14" fill="#72607d" fill-rule="evenodd" stroke="none" d="M 37.58606 44.273254 L 37.58606 44.273254 C 6.532043 52.826599 7.964417 98.515503 7.964417 98.515503 C 12.883606 88.480652 20.659424 87.277466 24.113464 87.277466 C 25.202087 87.277466 25.856934 87.400238 25.856934 87.400238 C 25.856934 87.400238 34.893188 66.855774 37.58606 44.273254 Z"/>
    <path id="Path-copy-13" fill="#72607d" fill-rule="evenodd" stroke="none" d="M 117.103699 34.025574 C 119.747498 56.608093 128.824707 77.144379 128.824707 77.144379 C 128.824707 77.144379 129.479492 77.029785 130.568115 77.029785 C 134.005859 77.029785 141.75708 78.232971 146.67627 88.267853 C 146.67627 88.267853 148.149597 42.538025 117.103699 34.025574 Z"/>
    <path id="Path-copy-12" fill="#72607d" fill-rule="evenodd" stroke="none" d="M 109.458923 44.273254 C 112.102661 66.855774 121.179871 87.400238 121.179871 87.400238 C 121.179871 87.400238 121.834656 87.277466 122.923279 87.277466 C 126.361023 87.277466 134.112244 88.480652 139.031433 98.515503 C 139.031433 98.515503 140.504761 52.826599 109.458923 44.273254 Z"/>
    <path id="Path-copy-11" fill="#434244" fill-rule="evenodd" stroke="none" d="M 75.368225 66.160034 C 74.84436 66.160034 74.50061 66.552917 74.50061 67.027649 L 74.50061 78.323029 C 74.50061 80.966797 72.323364 83.184937 69.5896 83.184937 C 66.945801 83.184937 64.727661 81.0159 64.727661 78.323029 C 64.727661 77.840088 64.334778 77.455383 63.860046 77.455383 C 63.336182 77.455383 62.992432 77.840088 62.992432 78.323029 C 62.992432 82.014465 65.939026 85.010193 69.630493 85.010193 C 73.32196 85.010193 76.325867 82.014465 76.23584 78.323029 L 76.23584 67.027649 C 76.23584 66.552917 75.842957 66.160034 75.368225 66.160034 Z"/>
    <path id="Path-copy-10" fill="#434244" fill-rule="evenodd" stroke="none" d="M 75.409119 66.160034 C 74.934387 66.160034 74.541504 66.552917 74.541504 67.027649 L 74.541504 78.323029 C 74.541504 82.014465 77.537231 85.010193 81.228699 85.010193 C 84.920166 85.010193 87.874939 82.014465 87.784912 78.323029 C 87.784912 77.840088 87.400208 77.455383 86.917297 77.455383 C 86.442566 77.455383 86.049683 77.840088 86.049683 78.323029 C 86.049683 80.966797 83.880676 83.184937 81.138672 83.184937 C 78.494873 83.184937 76.276733 81.0159 76.276733 78.323029 L 76.276733 67.027649 C 76.276733 66.552917 75.88385 66.160034 75.409119 66.160034 Z"/>
    <path id="Path-copy-9" fill="#ac6769" fill-rule="evenodd" stroke="none" d="M 68.631897 61.077148 C 68.247192 61.077148 67.944397 61.298157 67.813416 61.600983 C 67.682434 61.944763 67.764282 62.296692 68.026245 62.599548 L 74.84436 69.417694 C 75.016235 69.5896 75.237244 69.679626 75.450073 69.679626 C 75.671082 69.679626 75.88385 69.5896 76.063965 69.417694 L 82.88208 62.599548 C 83.184937 62.296692 83.266785 61.944763 83.09491 61.600983 C 82.963928 61.298157 82.661072 61.077148 82.317322 61.077148 Z"/>
    <path id="Path-copy-8" fill="#434244" fill-rule="evenodd" stroke="none" d="M 105.202698 56.125183 C 103.901245 56.125183 102.853577 57.123779 102.853577 58.474304 C 102.853577 59.775726 103.901245 60.774292 105.202698 60.774292 C 106.504089 60.774292 107.543579 59.775726 107.543579 58.474304 C 107.543579 57.123779 106.504089 56.125183 105.202698 56.125183 Z"/>
    <path id="Path-copy-7" fill="#434244" fill-rule="evenodd" stroke="none" d="M 50.39563 56.125183 C 49.053284 56.125183 48.054749 57.123779 48.054749 58.474304 C 48.054749 59.775726 49.094238 60.774292 50.39563 60.774292 C 51.697083 60.774292 52.695618 59.775726 52.695618 58.474304 C 52.695618 57.123779 51.697083 56.125183 50.39563 56.125183 Z"/>
    <path id="Path-copy-6" fill="#434244" fill-rule="evenodd" stroke="none" d="M 78.674988 73.452942 C 78.658569 73.452942 78.642212 73.452942 78.625854 73.452942 C 78.363953 73.452942 78.232971 73.583862 78.232971 73.804871 C 78.232971 74.0177 78.404846 74.197754 78.625854 74.197754 C 78.838684 74.197754 78.969604 74.0177 78.969604 73.804871 C 78.969604 73.608429 78.830505 73.452942 78.674988 73.452942 Z"/>
    <path id="Path-copy-5" fill="#434244" fill-rule="evenodd" stroke="none" d="M 80.925842 76.276764 C 80.704834 76.276764 80.532959 76.407715 80.532959 76.628723 C 80.532959 76.841522 80.704834 77.021606 80.925842 77.021606 C 81.138672 77.021606 81.318726 76.841522 81.318726 76.628723 C 81.318726 76.407715 81.138672 76.276764 80.925842 76.276764 Z"/>
    <path id="Path-copy-4" fill="#434244" fill-rule="evenodd" stroke="none" d="M 82.079956 72.364319 C 82.055359 72.364319 82.030823 72.364319 82.014465 72.372498 C 81.793457 72.372498 81.621582 72.503448 81.621582 72.716248 C 81.621582 72.937256 81.793457 73.109131 82.014465 73.109131 C 82.227295 73.109131 82.39917 72.937256 82.39917 72.716248 C 82.39917 72.519836 82.26001 72.364319 82.079956 72.364319 Z"/>
    <path id="Path-copy-3" fill="#434244" fill-rule="evenodd" stroke="none" d="M 69.114807 71.586731 C 68.89386 71.586731 68.721985 71.766785 68.721985 71.979614 C 68.721985 72.200623 68.89386 72.323364 69.114807 72.323364 C 69.327637 72.323364 69.50769 72.200623 69.50769 71.979614 C 69.50769 71.807739 69.327637 71.635834 69.114807 71.586731 Z"/>
    <path id="Path-copy-2" fill="#434244" fill-rule="evenodd" stroke="none" d="M 71.93866 74.197754 C 71.717651 74.197754 71.545776 74.369629 71.545776 74.582458 C 71.545776 74.803467 71.717651 74.975342 71.93866 74.975342 C 72.151489 74.975342 72.282471 74.803467 72.282471 74.582458 C 72.282471 74.369629 72.151489 74.197754 71.93866 74.197754 Z"/>
    <path id="Path-copy" fill="#434244" fill-rule="evenodd" stroke="none" d="M 68.983887 76.366791 C 68.762878 76.366791 68.591003 76.538696 68.591003 76.759674 C 68.591003 76.972473 68.762878 77.144379 68.983887 77.144379 C 69.196716 77.144379 69.37677 76.972473 69.37677 76.759674 C 69.37677 76.538696 69.196716 76.366791 68.983887 76.366791 Z"/>
</svg>
