<?xml version="1.0" encoding="UTF-8"?>
<!-- Generated by Pixelmator Pro 3.4.1 -->
<svg width="101" height="71" viewBox="0 0 101 71" xmlns="http://www.w3.org/2000/svg">
    <path id="Path-copy-33" fill="#635562" fill-rule="evenodd" stroke="none" d="M 85.600037 0.795898 C 82.365723 0.795898 63.594849 11.433868 63.594849 11.433868 C 70.106323 22.080414 86.037537 27.639587 86.037537 27.639587 C 86.037537 27.639587 95.139832 17.98822 86.037537 0.967468 C 85.977478 0.847382 85.823059 0.795898 85.600037 0.795898 Z"/>
    <path id="Path-copy-32" fill="#ebb1b0" fill-rule="evenodd" stroke="none" d="M 83.661133 5.394257 C 81.19043 5.394257 66.460266 13.707306 66.460266 13.707306 C 71.607666 21.951721 83.987183 26.318451 83.987183 26.318451 C 83.987183 26.318451 91.133484 18.760345 83.987183 5.514343 C 83.944275 5.428589 83.832764 5.394257 83.661133 5.394257 Z"/>
    <path id="Path-copy-31" fill="#635562" fill-rule="evenodd" stroke="none" d="M 14.257019 0.787354 C 14.016785 0.787354 13.862366 0.847382 13.802307 0.967468 C 4.699982 17.98822 13.802307 27.639587 13.802307 27.639587 C 14.205566 27.459473 29.27887 21.994629 35.919006 11.88855 C 35.970459 11.751282 36.099182 11.614014 36.193542 11.433868 C 36.193542 11.433868 35.146912 10.841919 33.465393 9.838196 C 28.137878 6.929901 16.744934 0.787354 14.257019 0.787354 Z"/>
    <path id="Path-copy-30" fill="#ebb1b0" fill-rule="evenodd" stroke="none" d="M 16.084351 5.394257 C 15.912781 5.394257 15.80127 5.428589 15.758362 5.514343 C 8.654938 18.760345 15.758362 26.318451 15.758362 26.318451 C 15.758362 26.318451 28.180725 21.951721 33.328125 13.707306 C 33.328125 13.707306 18.56366 5.394257 16.084351 5.394257 Z"/>
    <path id="Path-copy-29" fill="#7b6c78" fill-rule="evenodd" stroke="none" d="M 49.71405 7.067139 C 45.021301 7.067139 40.517334 7.659119 36.373718 8.928802 C 35.37854 9.246216 34.331909 9.56366 33.371033 9.932556 C 32.959229 10.112701 32.641846 10.249969 32.230042 10.387238 C 31.415039 10.747559 30.685791 11.064972 29.956604 11.433868 C 29.776428 11.476776 29.682068 11.614014 29.501892 11.656921 C 24.860657 13.887451 20.991516 16.941589 18.031799 20.493286 C 17.439819 21.222534 16.8479 21.951721 16.350281 22.766724 C 15.844116 23.538849 15.30365 24.362427 14.848999 25.177429 C 14.480103 26.043915 14.068298 26.867493 13.707947 27.682495 C 12.566956 30.505005 12.026489 33.370361 12.026489 36.467407 C 12.026489 52.673157 28.909973 70.791992 49.756958 70.8349 L 49.799805 70.8349 C 70.698303 70.8349 87.581787 52.716034 87.581787 36.467407 C 87.581787 33.327484 86.946899 30.367737 85.805908 27.639587 C 85.488464 26.9104 85.128174 26.086792 84.759277 25.357605 C 84.304565 24.58548 83.764099 23.718994 83.257935 22.903992 C 82.717468 22.080414 82.074036 21.222534 81.396301 20.398926 C 78.479431 16.941589 74.610291 13.938965 70.106323 11.708405 C 69.969055 11.656921 69.831787 11.528259 69.651672 11.476776 C 68.922424 11.064972 68.15033 10.747559 67.369629 10.481598 C 67.009338 10.292847 66.597534 10.155609 66.194336 10.018341 C 66.142822 9.932556 66.142822 9.932556 66.099915 9.932556 C 65.096191 9.56366 64.143921 9.203339 63.140198 8.928802 C 58.953613 7.744904 54.492554 7.067139 49.756958 7.067139 Z"/>
    <path id="Path-copy-28" fill="#635562" fill-rule="evenodd" stroke="none" d="M 65.739624 31.843323 C 62.50531 31.843323 59.648499 34.108185 59.047974 37.37677 C 58.721985 38.835205 54.809998 46.213135 55.401917 47.439941 C 55.522034 47.705902 55.625 47.817444 55.736511 47.817444 C 56.319885 47.817444 57.194946 44.986359 61.501587 44.986359 C 62.33374 44.986359 63.303162 45.089294 64.418457 45.34668 C 64.838806 45.423889 65.267761 45.458191 65.679565 45.458191 C 68.922424 45.458191 71.779236 43.193359 72.379761 39.924744 C 72.748657 38.286133 73.203369 35.969818 72.474121 34.605774 C 71.470398 32.872803 69.059692 32.375214 67.009338 31.96344 C 66.580383 31.88623 66.159973 31.843323 65.739624 31.843323 Z"/>
    <path id="Path-copy-27" fill="#d9f1fd" fill-rule="evenodd" stroke="none" d="M 65.799683 32.829895 C 63.020081 32.829895 60.566467 34.768768 60.000244 37.608398 C 59.408325 40.791199 61.458679 43.793884 64.641479 44.437317 C 64.98468 44.497345 65.336426 44.523071 65.670959 44.523071 C 68.459167 44.523071 70.947083 42.584229 71.470398 39.744568 C 72.062317 36.561768 70.011963 33.507629 66.829163 32.91571 C 66.477417 32.855652 66.134277 32.829895 65.799683 32.829895 Z"/>
    <path id="Path-copy-26" fill="#635562" fill-rule="evenodd" stroke="none" d="M 63.09729 32.32373 L 63.09729 32.32373 C 56.225525 36.012695 55.221741 44.248566 54.76709 45.981506 C 54.423889 47.251221 55.273254 47.40564 55.710754 47.40564 C 55.848022 47.40564 55.950989 47.388489 55.950989 47.388489 C 58.001343 35.558044 63.00293 32.778442 63.045837 32.778442 L 63.09729 32.32373 Z"/>
    <path id="Path-copy-25" fill="#0d0c0b" fill-rule="evenodd" stroke="none" d="M 66.829163 32.872803 C 66.829163 32.872803 63.045837 34.785919 62.453857 38.011627 C 61.861938 41.203003 64.504272 44.300049 64.641479 44.385803 C 64.821655 44.385803 68.424866 42.42981 69.059692 39.247009 C 69.600159 36.107086 66.914917 33.233124 66.829163 32.872803 Z"/>
    <path id="Path-copy-24" fill="#ffffff" fill-rule="evenodd" stroke="none" d="M 67.807129 36.270081 C 67.206604 36.270081 66.683289 36.630402 66.597534 37.239502 C 66.460266 37.925842 66.87207 38.560669 67.55835 38.697937 C 67.618408 38.706543 67.678467 38.715088 67.747131 38.715088 C 68.356201 38.715088 68.888123 38.320465 68.965332 37.694214 C 69.1026 37.102234 68.647888 36.467407 68.013062 36.287231 C 67.944397 36.278687 67.875793 36.270081 67.807129 36.270081 Z"/>
    <path id="Path-copy-23" fill="#ffffff" fill-rule="evenodd" stroke="none" d="M 63.36322 38.217529 C 62.92572 38.217529 62.58252 38.543518 62.50531 38.972473 C 62.368042 39.470032 62.728394 39.924744 63.234558 40.062012 C 63.286011 40.070587 63.346069 40.079163 63.397522 40.079163 C 63.835083 40.079163 64.203979 39.770325 64.324097 39.289917 C 64.418457 38.792297 64.092468 38.337646 63.594849 38.243256 C 63.517639 38.226105 63.44043 38.217529 63.36322 38.217529 Z"/>
    <path id="Path-copy-22" fill="#635562" fill-rule="evenodd" stroke="none" d="M 34.220337 31.843323 C 33.799988 31.843323 33.379639 31.88623 32.959229 31.96344 C 30.917419 32.375214 28.455261 32.872803 27.502991 34.605774 C 26.773804 35.969818 27.228455 38.286133 27.545898 39.924744 C 28.146423 43.193359 31.037537 45.458191 34.2547 45.458191 C 34.675049 45.458191 35.086853 45.423889 35.507202 45.34668 C 36.631042 45.089294 37.600464 44.986359 38.441223 44.986359 C 42.765076 44.986359 43.622925 47.817444 44.223511 47.817444 C 44.335022 47.817444 44.446533 47.705902 44.56665 47.439941 C 45.158569 46.213135 41.203674 38.835205 40.929138 37.37677 C 40.320007 34.108185 37.428894 31.843323 34.220337 31.843323 Z"/>
    <path id="Path-copy-21" fill="#d9f1fd" fill-rule="evenodd" stroke="none" d="M 34.220337 32.829895 C 33.877197 32.829895 33.534058 32.855652 33.190857 32.91571 C 29.999512 33.507629 27.906189 36.561768 28.549622 39.744568 C 29.072937 42.584229 31.552307 44.523071 34.34906 44.523071 C 34.683655 44.523071 35.026794 44.497345 35.37854 44.437317 C 38.56134 43.793884 40.611694 40.791199 40.019775 37.608398 C 39.453552 34.768768 36.999939 32.829895 34.220337 32.829895 Z"/>
    <path id="Path-copy-20" fill="#635562" fill-rule="evenodd" stroke="none" d="M 36.828369 32.32373 L 36.879883 32.778442 C 36.965637 32.778442 41.975769 35.558044 44.026184 47.388489 C 44.026184 47.388489 44.120544 47.40564 44.266357 47.40564 C 44.703918 47.40564 45.553223 47.251221 45.210083 45.981506 C 44.755371 44.248566 43.70874 36.012695 36.828369 32.32373 Z"/>
    <path id="Path-copy-19" fill="#0d0c0b" fill-rule="evenodd" stroke="none" d="M 33.190857 32.872803 C 33.010742 33.233124 30.368408 36.107086 30.960327 39.247009 C 31.595215 42.42981 35.189819 44.385803 35.37854 44.385803 C 35.507202 44.300049 38.149536 41.203003 37.557617 38.011627 C 36.922729 34.785919 33.190857 32.872803 33.190857 32.872803 Z"/>
    <path id="Path-copy-18" fill="#ffffff" fill-rule="evenodd" stroke="none" d="M 32.169983 36.270081 C 32.101379 36.270081 32.032715 36.278687 31.964111 36.287231 C 31.320679 36.467407 30.865967 37.102234 30.960327 37.694214 C 31.080444 38.320465 31.620911 38.715088 32.230042 38.715088 C 32.2901 38.715088 32.350159 38.706543 32.418762 38.697937 C 33.096497 38.560669 33.465393 37.925842 33.371033 37.239502 C 33.250916 36.630402 32.761963 36.270081 32.169983 36.270081 Z"/>
    <path id="Path-copy-17" fill="#ffffff" fill-rule="evenodd" stroke="none" d="M 36.588196 38.217529 C 36.519531 38.217529 36.450928 38.226105 36.373718 38.243256 C 35.876099 38.337646 35.601563 38.792297 35.64447 39.289917 C 35.730286 39.770325 36.099182 40.079163 36.553833 40.079163 C 36.613892 40.079163 36.67395 40.070587 36.742615 40.062012 C 37.240173 39.924744 37.557617 39.470032 37.471802 38.972473 C 37.351685 38.543518 36.999939 38.217529 36.588196 38.217529 Z"/>
    <path id="Path-copy-16" fill="#ffffff" fill-rule="evenodd" stroke="none" d="M 57.040527 47.345581 C 52.759583 47.345581 49.302246 48.169159 49.302246 52.441528 C 49.302246 56.722412 53.351563 62.144348 57.589539 62.144348 C 61.861938 62.144348 64.778748 59.321869 64.778748 55.083832 C 64.778748 50.802917 61.321411 47.345581 57.040527 47.345581 Z"/>
    <path id="Path-copy-15" fill="#ffffff" fill-rule="evenodd" stroke="none" d="M 42.653503 47.345581 C 38.381165 47.345581 34.923828 50.802917 34.923828 55.083832 C 34.923828 59.321869 37.789246 62.144348 42.070129 62.144348 C 46.342468 62.144348 50.391785 56.722412 50.391785 52.441528 C 50.391785 48.169159 46.891541 47.345581 42.653503 47.345581 Z"/>
    <path id="Path-copy-14" fill="#d27891" fill-rule="evenodd" stroke="none" d="M 46.393982 45.295197 C 44.56665 45.295197 43.0224 47.259796 44.618103 48.074799 C 45.527466 48.52948 47.440613 48.392212 47.706543 49.713379 C 48.255615 52.124084 49.302246 52.630249 49.756958 52.630249 L 49.799805 52.630249 C 50.263123 52.630249 51.309753 52.124084 51.85022 49.713379 C 52.124756 48.43512 54.037842 48.572388 54.947205 48.074799 C 56.542908 47.259796 54.990112 45.295197 53.171387 45.295197 Z"/>
    <path id="Path-copy-13" fill="#635562" fill-rule="evenodd" stroke="none" d="M 49.799805 6.972778 C 45.115723 6.972778 40.654602 7.607635 36.468079 8.843018 C 35.464294 9.203339 34.417664 9.477844 33.465393 9.889648 C 34.331909 10.524506 35.189819 11.20224 35.919006 11.931458 C 45.072815 20.81073 46.162354 39.427155 49.799805 39.564423 L 49.851318 39.564423 C 53.488831 39.470032 54.586914 20.71637 63.869385 11.845673 C 64.367004 11.296631 64.916016 10.799011 65.550903 10.34436 C 65.731018 10.155609 65.962646 10.069824 66.194336 9.889648 C 65.233459 9.56366 64.186829 9.203339 63.234558 8.843018 C 59.090881 7.659119 54.586914 6.972778 49.851318 6.972778 Z"/>
    <path id="Path-copy-12" fill="#ebb1b0" fill-rule="evenodd" stroke="none" d="M 44.884094 53.719788 C 44.523743 53.719788 44.111938 53.994324 44.111938 54.406097 C 44.111938 54.766418 44.480835 55.083832 44.884094 55.083832 C 45.390198 55.083832 45.707642 54.766418 45.707642 54.406097 C 45.707642 53.994324 45.347351 53.719788 44.884094 53.719788 Z"/>
    <path id="Path-copy-11" fill="#ebb1b0" fill-rule="evenodd" stroke="none" d="M 42.473389 56.542267 C 42.018677 56.542267 41.658386 56.902588 41.658386 57.228577 C 41.658386 57.631805 42.018677 57.906311 42.473389 57.906311 C 42.92804 57.906311 43.245483 57.631805 43.245483 57.228577 C 43.245483 56.816803 42.92804 56.542267 42.473389 56.542267 Z"/>
    <path id="Path-copy-10" fill="#ebb1b0" fill-rule="evenodd" stroke="none" d="M 40.337219 53.719788 C 39.968323 53.719788 39.565063 53.994324 39.565063 54.406097 C 39.565063 54.766418 39.925415 55.083832 40.337219 55.083832 C 40.834778 55.083832 41.152222 54.766418 41.152222 54.406097 C 41.152222 53.994324 40.748962 53.719788 40.337219 53.719788 Z"/>
    <path id="Path-copy-9" fill="#ffffff" fill-rule="evenodd" stroke="none" d="M 13.888123 47.113953 C 9.692963 47.113953 5.540741 47.448547 1.551483 48.074799 C 1.294128 48.117676 1.362762 48.52948 1.611542 48.52948 C 1.620117 48.52948 1.637268 48.52948 1.645874 48.52948 C 5.61795 47.911804 9.744446 47.585785 13.905273 47.585785 C 24.517517 47.585785 35.387085 49.704803 44.56665 54.53479 C 44.618103 54.569092 44.661011 54.586243 44.703918 54.586243 C 44.90979 54.586243 45.021301 54.286011 44.798279 54.174469 C 35.55011 49.267273 24.577576 47.113953 13.888123 47.113953 Z"/>
    <path id="Path-copy-8" fill="#ffffff" fill-rule="evenodd" stroke="none" d="M 26.825256 52.201294 C 18.254822 52.201294 9.29837 54.071533 1.82605 55.770142 C 1.568665 55.813049 1.680206 56.224854 1.928986 56.224854 C 1.937592 56.224854 1.954742 56.224854 1.963318 56.224854 C 9.401306 54.526184 18.297729 52.655975 26.7995 52.655975 C 31.500793 52.655975 36.090576 53.230774 40.242798 54.723511 C 40.277161 54.740662 40.302856 54.749268 40.328613 54.749268 C 40.508789 54.749268 40.6203 54.388947 40.380066 54.268829 C 36.193542 52.776093 31.569458 52.201294 26.825256 52.201294 Z"/>
    <path id="Path-copy-7" fill="#ffffff" fill-rule="evenodd" stroke="none" d="M 39.436401 56.93689 C 27.666016 56.93689 15.535278 61.638184 5.609375 67.377563 C 5.420654 67.489075 5.540771 67.780762 5.712341 67.780762 C 5.755219 67.780762 5.789551 67.772186 5.832458 67.737854 C 15.681152 62.08429 27.726074 57.391602 39.444946 57.391602 C 40.457275 57.391602 41.469604 57.425903 42.473389 57.494537 C 42.790771 57.494537 42.790771 57.039856 42.473389 57.039856 C 41.469604 56.971222 40.457275 56.93689 39.436401 56.93689 Z"/>
    <path id="Path-copy-6" fill="#ebb1b0" fill-rule="evenodd" stroke="none" d="M 55.084473 53.488159 C 54.629822 53.488159 54.312378 53.762695 54.312378 54.174469 C 54.312378 54.53479 54.629822 54.860779 55.084473 54.860779 C 55.496277 54.860779 55.899475 54.53479 55.899475 54.174469 C 55.899475 53.762695 55.539185 53.488159 55.084473 53.488159 Z"/>
    <path id="Path-copy-5" fill="#ebb1b0" fill-rule="evenodd" stroke="none" d="M 57.589539 56.310638 C 57.220642 56.310638 56.817444 56.585144 56.817444 56.996948 C 56.817444 57.408752 57.134888 57.683289 57.589539 57.683289 C 58.04425 57.683289 58.404602 57.408752 58.404602 56.996948 C 58.404602 56.679535 58.001343 56.310638 57.589539 56.310638 Z"/>
    <path id="Path-copy-4" fill="#ebb1b0" fill-rule="evenodd" stroke="none" d="M 59.639954 53.488159 C 59.176697 53.488159 58.859253 53.762695 58.859253 54.174469 C 58.859253 54.53479 59.176697 54.860779 59.639954 54.860779 C 60.094666 54.860779 60.454956 54.53479 60.454956 54.174469 C 60.454956 53.762695 60.094666 53.488159 59.639954 53.488159 Z"/>
    <path id="Path-copy-3" fill="#ffffff" fill-rule="evenodd" stroke="none" d="M 86.114746 46.890869 C 75.416748 46.890869 64.435608 49.04422 55.221741 53.94281 C 54.998718 54.062927 55.144531 54.354614 55.324707 54.354614 C 55.367615 54.354614 55.410522 54.346039 55.444824 54.311707 C 64.624329 49.48175 75.485352 47.337006 86.063293 47.337006 C 90.232666 47.337006 94.359192 47.67157 98.322693 48.306427 C 98.339844 48.306427 98.356995 48.306427 98.36554 48.306427 C 98.648682 48.306427 98.725891 47.894653 98.459961 47.851746 C 94.470703 47.216888 90.318481 46.890869 86.114746 46.890869 Z"/>
    <path id="Path-copy-2" fill="#ffffff" fill-rule="evenodd" stroke="none" d="M 73.246277 51.969666 C 68.51062 51.969666 63.895142 52.544434 59.725769 54.037201 C 59.451233 54.157288 59.519836 54.517639 59.717163 54.517639 C 59.751465 54.517639 59.785767 54.509033 59.820129 54.491882 C 63.972351 52.999146 68.562134 52.424347 73.280579 52.424347 C 81.782349 52.424347 90.687378 54.294556 98.099609 55.993225 C 98.11676 56.00177 98.125366 56.00177 98.142517 56.00177 C 98.425598 56.00177 98.494263 55.581421 98.236877 55.538513 C 90.764587 53.839905 81.808105 51.969666 73.246277 51.969666 Z"/>
    <path id="Path-copy" fill="#ffffff" fill-rule="evenodd" stroke="none" d="M 60.575073 56.705261 C 59.562744 56.705261 58.550415 56.739594 57.538086 56.816803 C 57.272156 56.816803 57.272156 57.271484 57.538086 57.271484 C 58.550415 57.194275 59.554138 57.159973 60.566467 57.159973 C 72.294006 57.159973 84.338867 61.852661 94.187622 67.514801 C 94.221924 67.540558 94.264832 67.557709 94.299133 67.557709 C 94.479248 67.557709 94.599365 67.257446 94.410645 67.145905 C 84.441833 61.406555 72.345459 56.705261 60.575073 56.705261 Z"/>
</svg>
