<?xml version="1.0" encoding="UTF-8"?>
<!-- Generated by Pixelmator Pro 3.4.1 -->
<svg width="107" height="96" viewBox="0 0 107 96" xmlns="http://www.w3.org/2000/svg">
    <path id="Path-copy-19" fill="#807778" fill-rule="evenodd" stroke="none" d="M 98.957397 1.238251 C 89.487366 1.238251 69.131165 28.076996 69.131165 28.076996 L 102.485168 41.754211 C 102.485168 41.754211 108.697632 13.22113 102.272339 3.055328 C 101.453857 1.79483 100.316162 1.238251 98.957397 1.238251 Z"/>
    <path id="Path-copy-18" fill="#b4949e" fill-rule="evenodd" stroke="none" d="M 96.927551 9.791626 C 93.277039 12.132538 87.195496 18.001221 81.253174 24.991241 L 96.665588 31.334656 C 97.795166 23.035034 98.057068 14.522583 96.927551 9.791626 Z"/>
    <path id="Path-copy-17" fill="#807778" fill-rule="evenodd" stroke="none" d="M 6.777527 1.238251 C 5.427002 1.238251 4.289246 1.79483 3.470764 3.055328 C -2.995422 13.22113 3.257935 41.754211 3.257935 41.754211 L 36.562866 28.076996 C 36.562866 28.076996 16.239441 1.238251 6.777527 1.238251 Z"/>
    <path id="Path-copy-16" fill="#b4949e" fill-rule="evenodd" stroke="none" d="M 8.766479 9.791626 C 7.636963 14.563477 7.898865 22.99408 9.028381 31.334656 L 24.449036 24.991241 C 18.539429 18.083069 12.457947 12.181641 8.766479 9.791626 Z"/>
    <path id="Path-copy-15" fill="#807778" fill-rule="evenodd" stroke="none" d="M 52.368164 8.833984 C 24.620911 8.833984 2.079285 24.033569 2.079285 42.793701 C 2.079285 61.602905 24.620911 95.906433 52.368164 95.906433 C 80.123657 95.906433 102.61615 61.602905 102.61615 42.793701 C 102.61615 24.033569 80.123657 8.833984 52.368164 8.833984 Z"/>
    <path id="Path-copy-14" fill="#434244" fill-rule="evenodd" stroke="none" d="M 52.016235 52.378357 C 51.787048 52.378357 51.549683 52.460236 51.369629 52.607544 L 45.599182 58.427124 C 45.247192 58.779083 45.247192 59.343842 45.599182 59.687622 C 45.730103 59.859497 45.942932 59.949524 46.16394 59.949524 C 46.376709 59.949524 46.679565 59.859497 46.900574 59.687622 L 52.024414 54.522858 L 57.189148 59.687622 C 57.361084 59.84314 57.59021 59.916809 57.819397 59.916809 C 58.048584 59.916809 58.277771 59.84314 58.449646 59.687622 C 58.752502 59.343842 58.752502 58.779083 58.449646 58.427124 L 52.630127 52.607544 C 52.482788 52.460236 52.253601 52.378357 52.016235 52.378357 Z"/>
    <path id="Path-copy-13" fill="#434244" fill-rule="evenodd" stroke="none" d="M 51.983459 47.311829 C 51.500549 47.311829 51.107666 47.704712 51.107666 48.179443 L 51.107666 53.434265 C 51.107666 53.908997 51.500549 54.30188 51.983459 54.30188 C 52.458191 54.30188 52.851074 53.868042 52.851074 53.434265 L 52.851074 48.179443 C 52.851074 47.704712 52.458191 47.311829 51.983459 47.311829 Z"/>
    <path id="Path-copy-12" fill="#434244" fill-rule="evenodd" stroke="none" d="M 21.625183 38.709351 C 20.32373 38.709351 19.325195 39.75705 19.325195 41.058472 C 19.325195 42.359894 20.32373 43.407593 21.625183 43.407593 C 22.926575 43.407593 23.966125 42.359894 23.966125 41.058472 C 23.966125 39.75705 22.926575 38.709351 21.625183 38.709351 Z"/>
    <path id="Path-copy-11" fill="#434244" fill-rule="evenodd" stroke="none" d="M 83.201233 38.709351 C 81.89978 38.709351 80.860291 39.75705 80.860291 41.058472 C 80.860291 42.359894 81.89978 43.407593 83.201233 43.407593 C 84.510803 43.407593 85.550354 42.359894 85.550354 41.058472 C 85.550354 39.75705 84.510803 38.709351 83.201233 38.709351 Z"/>
    <path id="Path-copy-10" fill="#b4949e" fill-rule="evenodd" stroke="none" d="M 47.244324 43.661316 L 51.983459 48.441376 L 56.714417 43.661316 Z"/>
    <path id="Path-copy-9" fill="#b4949e" fill-rule="evenodd" stroke="none" d="M 55.232971 44.275208 L 51.983459 47.532837 L 48.72583 44.275208 Z M 47.244324 43.14566 C 47.031555 43.14566 46.810547 43.276611 46.728699 43.489441 C 46.597717 43.710419 46.679565 44.013275 46.810547 44.144226 L 51.549683 48.875183 C 51.631531 49.006165 51.803406 49.047058 51.983459 49.047058 C 52.155396 49.047058 52.327271 49.006165 52.458191 48.875183 L 57.189148 44.144226 C 57.361084 44.013275 57.410156 43.710419 57.279236 43.489441 C 57.238281 43.276611 57.017273 43.14566 56.755371 43.14566 Z"/>
    <path id="Path-copy-8" fill="none" stroke="none" d="M 57.238281 52.394745 C 57.238281 52.394745 62.615845 51.224304 71.259277 54.30188"/>
    <path id="Path-copy-7" fill="none" stroke="#434244" stroke-width="0.08399" stroke-linecap="round" d="M 57.238281 52.394745 C 57.238281 52.394745 62.615845 51.224304 71.259277 54.30188"/>
    <path id="Path-copy-6" fill="none" stroke="none" d="M 30.088501 47.270935 C 30.088501 47.270935 35.474243 46.051331 44.117676 49.137085"/>
    <path id="Path-copy-5" fill="none" stroke="#434244" stroke-width="0.08399" stroke-linecap="round" d="M 30.088501 47.270935 C 30.088501 47.270935 35.474243 46.051331 44.117676 49.137085"/>
    <path id="Path-copy-4" fill="none" stroke="none" d="M 31.913757 52.738525 C 31.913757 52.738525 36.783875 50.225708 45.901978 51.134247"/>
    <path id="Path-copy-3" fill="none" stroke="#434244" stroke-width="0.08399" stroke-linecap="round" d="M 31.913757 52.738525 C 31.913757 52.738525 36.783875 50.225708 45.901978 51.134247"/>
    <path id="Path-copy-2" fill="none" stroke="none" d="M 57.058228 50.176605 C 57.058228 50.176605 61.969238 47.704712 71.087341 48.613281"/>
    <path id="Path-copy" fill="none" stroke="#434244" stroke-width="0.08399" stroke-linecap="round" d="M 57.058228 50.176605 C 57.058228 50.176605 61.969238 47.704712 71.087341 48.613281"/>
</svg>
