<?xml version="1.0" encoding="UTF-8"?>
<!-- Generated by Pixelmator Pro 3.4.1 -->
<svg width="104" height="85" viewBox="0 0 104 85" xmlns="http://www.w3.org/2000/svg">
    <path id="Path-copy-41" fill="#ffffff" fill-rule="evenodd" stroke="none" d="M 10.522369 1.18161 C 10.513794 1.18161 10.513794 1.18161 10.513794 1.190186 C 10.513794 1.644897 14.065491 8.739716 14.159851 8.971344 C 12.933075 7.6073 8.969574 3.643799 8.969574 3.643799 L 8.969574 3.643799 C 10.745422 7.418549 14.520172 17.438843 14.520172 17.438843 L 17.754456 14.616333 L 18.620941 13.887115 L 20.671326 12.068359 C 18.449371 10.532715 10.633911 1.18161 10.522369 1.18161 Z"/>
    <path id="Path-copy-40" fill="#c6c6c6" fill-rule="evenodd" stroke="none" d="M 15.51535 9.554718 C 15.052094 9.554718 14.777557 9.769196 14.751831 10.241028 C 14.520172 12.660309 14.477295 15.113892 14.520172 17.387329 C 14.931976 30.727692 19.624695 40.421967 19.624695 40.421967 C 19.71048 40.421967 19.753387 40.421967 19.847748 40.379089 C 21.717957 39.692749 33.368256 35.094421 38.644348 26.952942 C 38.695801 26.858582 38.781616 26.678406 38.875977 26.541138 C 38.875977 26.541138 38.189667 25.992065 37.05722 25.039795 C 33.642792 22.080078 25.990326 15.568604 20.576965 12.068359 C 18.372162 10.541321 16.510498 9.554718 15.51535 9.554718 Z"/>
    <path id="Path-copy-39" fill="#ebb1b0" fill-rule="evenodd" stroke="none" d="M 18.046143 13.578247 C 17.986115 13.578247 17.943207 13.604004 17.934631 13.655487 C 15.892822 25.082703 21.400543 39.280945 21.400543 39.280945 C 21.400543 39.280945 32.004181 35.549103 36.413788 28.454254 C 36.413788 28.454254 19.573212 13.578247 18.046143 13.578247 Z"/>
    <path id="Path-copy-38" fill="#c6c6c6" fill-rule="evenodd" stroke="none" d="M 49.616882 22.671997 C 49.119293 22.671997 48.664612 22.714905 48.158447 22.714905 L 45.927917 22.895081 C 45.473236 22.946533 44.975647 23.032349 44.520966 23.083801 C 44.34079 23.126709 44.109161 23.126709 43.929016 23.169617 C 43.74884 23.169617 43.65448 23.263977 43.474304 23.263977 C 43.294159 23.306854 43.062531 23.306854 42.830902 23.349731 C 42.564941 23.401245 42.247528 23.487 41.921509 23.538513 L 41.243774 23.718628 C 41.149414 23.761536 40.969238 23.761536 40.874878 23.813019 C 40.73761 23.855896 40.557465 23.855896 40.47168 23.941711 C 40.240021 23.993164 39.965515 24.036072 39.742462 24.078979 C 39.605194 24.17334 39.510834 24.17334 39.373566 24.216248 C 39.28775 24.2677 39.150513 24.2677 39.056122 24.310608 C 38.738708 24.404968 38.50708 24.447876 38.241119 24.533661 C 38.189667 24.628021 38.189667 24.628021 38.146759 24.628021 L 38.052399 24.628021 C 37.966583 24.670898 37.829346 24.670898 37.734955 24.722412 C 37.511902 24.808167 37.280273 24.902557 37.05722 24.945435 C 36.825592 25.039795 36.645447 25.12561 36.413788 25.177063 C 36.096375 25.314331 35.778961 25.451599 35.461517 25.580292 C 34.869568 25.81192 34.372009 26.043579 33.865845 26.266602 L 33.505524 26.446777 C 29.404755 28.454254 25.947418 31.088013 23.356567 34.236511 C 22.807495 34.914246 22.309906 35.549103 21.855225 36.235413 L 20.851501 37.916901 C 20.39679 38.740479 19.985016 39.606964 19.624695 40.421967 C 18.663849 42.832672 18.16626 45.337738 18.16626 47.937195 C 18.16626 53.350525 18.895477 60.539734 24.034302 63.868378 C 25.038055 64.546143 25.990326 65.318237 26.899689 66.004547 C 27.088409 66.098938 27.225677 66.141815 27.225677 66.141815 C 29.130219 67.686035 30.725922 69.238831 32.227234 70.783081 C 36.190735 74.969604 38.738708 78.976013 41.878632 81.575439 C 44.109161 83.437073 46.614227 84.578094 50.028687 84.578094 L 50.526245 84.578094 L 50.526245 22.766388 L 50.526245 22.671997 Z"/>
    <path id="Path-copy-37" fill="#9c9c9c" fill-rule="evenodd" stroke="none" d="M 37.125854 43.973694 C 36.79129 43.973694 36.44812 44.007996 36.096375 44.068054 C 34.320526 44.428345 32.227234 44.883057 31.412231 46.341492 C 30.768829 47.482483 31.180603 49.524292 31.455139 50.888367 C 32.012756 53.702271 34.414886 55.692596 37.151581 55.692596 C 37.529083 55.692596 37.906555 55.658264 38.284027 55.581055 C 38.730133 55.478119 39.150513 55.426636 39.545135 55.426636 C 44.881287 55.426636 45.782074 64.117188 46.459808 64.117188 C 46.511292 64.117188 46.562744 64.065704 46.614227 63.954163 C 47.111816 62.864624 43.199799 49.978973 42.925262 48.752197 C 42.359039 45.912537 39.905457 43.973694 37.125854 43.973694 Z"/>
    <path id="Path-copy-36" fill="#d9f1fd" fill-rule="evenodd" stroke="none" d="M 37.160187 44.848755 C 36.851318 44.848755 36.54248 44.874451 36.233643 44.925964 C 33.505524 45.432129 31.729675 48.074432 32.278717 50.802551 C 32.716248 53.196106 34.800934 54.860413 37.151581 54.860413 C 37.4776 54.860413 37.812164 54.826111 38.146759 54.757477 C 40.83197 54.259888 42.607849 51.669037 42.11026 48.932343 C 41.664154 46.513062 39.53656 44.848755 37.160187 44.848755 Z"/>
    <path id="Path-copy-35" fill="#9c9c9c" fill-rule="evenodd" stroke="none" d="M 39.373566 44.471252 L 39.425018 44.883057 C 39.425018 44.883057 39.425018 44.883057 39.425018 44.883057 C 39.622345 44.883057 44.09201 46.778992 46.116638 63.954163 C 46.116638 63.954163 46.193848 63.971313 46.305389 63.971313 C 46.682861 63.971313 47.42923 63.834045 47.111816 62.727356 C 46.700012 61.268951 45.524689 46.976318 39.373566 44.471252 Z"/>
    <path id="Path-copy-34" fill="#0d0c0b" fill-rule="evenodd" stroke="none" d="M 36.233643 44.925964 C 36.147858 45.20047 33.865845 47.662659 34.372009 50.390747 C 34.869568 53.118896 37.966583 54.757477 38.146759 54.757477 C 38.284027 54.757477 40.514557 52.029358 40.016968 49.301239 C 39.510834 46.564514 36.233643 44.925964 36.233643 44.925964 Z"/>
    <path id="Path-copy-33" fill="#ffffff" fill-rule="evenodd" stroke="none" d="M 35.392883 47.885681 C 35.350006 47.885681 35.315674 47.885681 35.281372 47.885681 C 34.637939 47.937195 34.320526 48.529114 34.414886 49.069611 C 34.543579 49.627258 34.989685 49.944641 35.530151 49.944641 C 35.573059 49.944641 35.607361 49.936096 35.641693 49.936096 C 36.190735 49.841736 36.551056 49.301239 36.465271 48.752197 C 36.379486 48.19455 35.93338 47.885681 35.392883 47.885681 Z"/>
    <path id="Path-copy-32" fill="#ffffff" fill-rule="evenodd" stroke="none" d="M 39.236298 49.464233 C 39.176239 49.464233 39.11618 49.472839 39.056122 49.481384 C 38.558563 49.618652 38.284027 49.978973 38.421295 50.433655 C 38.455597 50.819702 38.790192 51.102844 39.159088 51.102844 C 39.227722 51.102844 39.304932 51.094238 39.373566 51.077087 C 39.828247 51.025635 40.102783 50.570923 40.016968 50.116241 C 39.974091 49.721619 39.622345 49.464233 39.236298 49.464233 Z"/>
    <path id="Path-copy-31" fill="#ffffff" fill-rule="evenodd" stroke="none" d="M 50.526245 66.553589 C 50.44046 66.776672 50.303192 67.051208 50.165955 67.368622 C 49.934296 68.054932 49.848511 68.827026 49.848511 69.693542 C 49.848511 70.825958 50.071564 72.06134 50.526245 73.331024 L 50.526245 66.553589 Z"/>
    <path id="Path-copy-30" fill="#ffffff" fill-rule="evenodd" stroke="none" d="M 41.655579 63.413696 C 37.05722 63.413696 33.230988 66.596497 32.278717 70.877441 C 32.141449 71.555176 32.047089 72.284393 32.047089 73.056488 C 32.047089 78.341156 35.641693 81.755615 40.926361 81.755615 C 41.243774 81.755615 41.604095 81.755615 41.921509 81.704132 C 45.704865 81.069275 49.119293 77.431793 50.526245 73.511169 L 50.526245 73.425385 L 50.526245 73.373932 L 50.526245 66.553589 C 50.071564 65.687134 49.393829 65.095184 48.527344 64.726288 C 47.978302 64.408875 47.386353 64.185791 46.700012 64.005646 C 46.657135 63.954163 46.657135 63.954163 46.614227 63.954163 C 46.434082 63.868378 46.296814 63.868378 46.159546 63.816895 L 46.065186 63.816895 C 44.795471 63.542358 43.242676 63.413696 41.655579 63.413696 Z"/>
    <path id="Path-copy-29" fill="#d27891" fill-rule="evenodd" stroke="none" d="M 47.617981 61.088806 C 47.343445 61.088806 47.111816 61.131683 46.888763 61.183167 C 46.657135 61.268951 46.476959 61.363312 46.296814 61.50058 C 46.159546 61.637848 45.979401 61.775085 45.842133 61.955261 C 45.790649 62.041077 45.747742 62.092529 45.704865 62.229797 C 45.473236 62.684479 45.524689 63.182068 46.116638 63.456604 C 46.116638 63.542358 46.159546 63.542358 46.159546 63.542358 C 46.245331 63.593872 46.476959 63.636749 46.657135 63.679626 C 46.700012 63.679626 46.83728 63.774017 46.888763 63.774017 C 47.523621 63.911285 48.252808 64.091431 48.613129 64.546143 C 48.664612 64.683411 48.70752 64.777771 48.750397 64.957916 C 49.119293 66.502136 49.75415 67.145569 50.165955 67.368622 C 50.3461 67.411499 50.389008 67.462982 50.526245 67.462982 L 50.526245 61.131683 L 50.526245 61.088806 Z"/>
    <path id="Path-copy-28" fill="#e0e0e0" fill-rule="evenodd" stroke="none" d="M 19.796265 40.361938 C 19.753387 40.361938 19.684753 40.387634 19.624695 40.421967 C 17.754456 42.335083 14.159851 55.220764 14.159851 55.220764 C 15.704102 55.443787 17.068146 57.674347 17.068146 57.674347 C 16.827942 57.657166 16.570557 57.640015 16.313202 57.640015 C 14.314301 57.640015 11.834961 58.171936 11.834961 58.171936 C 14.382935 58.360657 17.437042 60.402466 17.437042 60.402466 C 17.256897 60.39389 17.068146 60.39389 16.888 60.39389 C 13.928223 60.39389 10.745422 61.680725 10.745422 61.680725 C 11.431732 61.629272 12.092316 61.603516 12.744324 61.603516 C 20.456848 61.603516 25.775848 65.078003 26.994049 66.004547 C 27.131317 66.098938 27.268585 66.141815 27.268585 66.141815 C 27.268585 66.141815 21.983917 40.653595 19.847748 40.379089 C 19.839172 40.361938 19.822021 40.361938 19.796265 40.361938 Z"/>
    <path id="Path-copy-27" fill="#ffffff" fill-rule="evenodd" stroke="none" d="M 90.444366 1.052917 C 90.444366 1.052917 82.6203 10.472656 80.389771 11.973999 L 82.43158 13.792725 L 83.298035 14.56485 L 86.532318 17.387329 C 86.532318 17.387329 90.307098 7.375671 92.082947 3.549408 L 92.082947 3.549408 C 92.082947 3.557983 88.128021 7.555817 86.806854 8.876984 C 86.944122 8.602448 90.444366 1.507629 90.444366 1.052917 Z"/>
    <path id="Path-copy-26" fill="#c6c6c6" fill-rule="evenodd" stroke="none" d="M 85.52002 9.623352 C 84.541992 9.623352 82.663208 10.609924 80.389771 12.111267 C 75.062195 15.620056 67.366852 22.122955 63.952393 25.082703 C 62.862854 26.043579 62.176544 26.584045 62.176544 26.584045 C 62.313812 26.721313 62.365295 26.901459 62.502533 26.99585 C 67.778625 35.094421 79.386017 39.692749 81.204773 40.379089 C 81.299133 40.379089 81.384918 40.421967 81.436401 40.421967 C 81.436401 40.421967 86.172028 30.727692 86.532318 17.387329 C 86.626709 15.113892 86.532318 12.746094 86.257813 10.292511 C 86.232056 9.829224 85.966125 9.623352 85.52002 9.623352 Z"/>
    <path id="Path-copy-25" fill="#ebb1b0" fill-rule="evenodd" stroke="none" d="M 83.006348 13.578247 C 81.479309 13.578247 64.638702 28.454254 64.638702 28.454254 C 69.005432 35.549103 79.660553 39.280945 79.660553 39.280945 C 79.660553 39.280945 85.168274 25.082703 83.117889 13.655487 C 83.109314 13.604004 83.074982 13.578247 83.006348 13.578247 Z"/>
    <path id="Path-copy-24" fill="#c6c6c6" fill-rule="evenodd" stroke="none" d="M 50.526245 22.766388 L 50.526245 84.578094 L 50.980957 84.578094 C 54.438293 84.578094 56.900452 83.437073 59.131012 81.575439 C 62.176544 78.976013 64.818878 74.969604 68.782379 70.783081 C 70.240814 69.238831 71.879395 67.686035 73.783936 66.141815 C 73.783936 66.141815 73.921204 66.098938 74.109924 66.004547 C 75.019318 65.232422 75.971588 64.546143 76.975311 63.868378 C 82.114136 60.539734 82.843353 53.350525 82.843353 47.937195 C 82.843353 45.337738 82.345764 42.832672 81.299133 40.516357 C 80.98172 39.649841 80.569916 38.783386 80.115234 38.011292 C 79.840698 37.419312 79.480377 36.870239 79.111481 36.27832 C 78.656799 35.600586 78.107758 34.914246 77.610168 34.279419 C 75.019318 31.088013 71.510498 28.497162 67.418304 26.49823 L 67.092316 26.309509 C 66.594727 26.086456 66.002777 25.854828 65.505188 25.631775 C 65.230682 25.451599 64.861786 25.357239 64.544342 25.262878 C 64.321289 25.177063 64.141144 25.082703 63.909515 25.039795 C 63.686462 24.945435 63.454803 24.85968 63.223175 24.808167 C 63.000122 24.722412 62.768494 24.628021 62.545441 24.585144 C 62.365295 24.490784 62.176544 24.447876 61.953491 24.404968 L 59.225372 23.718628 L 58.401794 23.538513 C 58.264526 23.538513 58.178741 23.487 58.041473 23.487 L 57.174988 23.306854 C 56.488678 23.221069 55.75946 23.083801 55.081696 23.032349 C 54.987335 22.989441 54.90155 22.989441 54.80719 22.989441 C 54.438293 22.895081 54.172333 22.852173 53.846344 22.852173 C 53.486023 22.852173 53.211487 22.809265 52.851166 22.809265 L 52.619537 22.809265 C 52.259216 22.766388 51.804535 22.766388 51.349854 22.766388 Z"/>
    <path id="Path-copy-23" fill="#9c9c9c" fill-rule="evenodd" stroke="none" d="M 63.926666 43.973694 C 61.147064 43.973694 58.693481 45.912537 58.127258 48.752197 C 57.852722 49.978973 53.940704 62.864624 54.438293 63.954163 C 54.489746 64.065704 54.541229 64.117188 54.592712 64.117188 C 55.279022 64.117188 56.17981 55.426636 61.507385 55.426636 C 61.902008 55.426636 62.322388 55.478119 62.768494 55.581055 C 63.154541 55.658264 63.532013 55.692596 63.900909 55.692596 C 66.637634 55.692596 69.039734 53.702271 69.597382 50.888367 C 69.871918 49.524292 70.283691 47.482483 69.648865 46.341492 C 68.825256 44.883057 66.731995 44.428345 64.956146 44.068054 C 64.612976 44.007996 64.269806 43.973694 63.926666 43.973694 Z"/>
    <path id="Path-copy-22" fill="#d9f1fd" fill-rule="evenodd" stroke="none" d="M 63.892334 44.848755 C 61.515961 44.848755 59.388367 46.513062 58.950836 48.932343 C 58.444672 51.669037 60.22052 54.259888 62.957245 54.757477 C 63.283234 54.826111 63.617828 54.860413 63.943817 54.860413 C 66.285889 54.860413 68.344849 53.196106 68.782379 50.802551 C 69.279968 48.074432 67.504089 45.432129 64.818878 44.925964 C 64.51004 44.874451 64.201202 44.848755 63.892334 44.848755 Z"/>
    <path id="Path-copy-21" fill="#9c9c9c" fill-rule="evenodd" stroke="none" d="M 61.636078 44.471252 L 61.636078 44.471252 C 55.484924 46.976318 54.309601 61.268951 53.897797 62.727356 C 53.580383 63.834045 54.326752 63.971313 54.704224 63.971313 C 54.815765 63.971313 54.90155 63.954163 54.90155 63.954163 C 56.917603 46.778992 61.473053 44.883057 61.584595 44.883057 C 61.584595 44.883057 61.584595 44.883057 61.584595 44.883057 L 61.636078 44.471252 Z"/>
    <path id="Path-copy-20" fill="#0d0c0b" fill-rule="evenodd" stroke="none" d="M 64.818878 44.925964 C 64.818878 44.925964 61.584595 46.564514 61.044128 49.301239 C 60.537964 52.029358 62.768494 54.757477 62.957245 54.757477 C 63.094482 54.757477 66.182953 53.118896 66.689087 50.390747 C 67.186676 47.662659 64.913239 45.20047 64.818878 44.925964 Z"/>
    <path id="Path-copy-19" fill="#ffffff" fill-rule="evenodd" stroke="none" d="M 65.676788 47.885681 C 65.162048 47.885681 64.68161 48.19455 64.595825 48.752197 C 64.544342 49.301239 64.861786 49.841736 65.453735 49.936096 C 65.488037 49.936096 65.522369 49.944641 65.556671 49.944641 C 66.062836 49.944641 66.508942 49.627258 66.637634 49.069611 C 66.731995 48.529114 66.414581 47.937195 65.779724 47.885681 C 65.745422 47.885681 65.71109 47.885681 65.676788 47.885681 Z"/>
    <path id="Path-copy-18" fill="#ffffff" fill-rule="evenodd" stroke="none" d="M 61.850555 49.464233 C 61.438751 49.464233 61.121338 49.721619 61.044128 50.116241 C 60.949738 50.570923 61.224274 51.025635 61.678955 51.077087 C 61.747589 51.094238 61.824799 51.102844 61.893433 51.102844 C 62.270905 51.102844 62.596924 50.819702 62.631226 50.433655 C 62.725586 49.978973 62.408173 49.618652 62.047852 49.481384 C 61.979218 49.472839 61.919159 49.464233 61.850555 49.464233 Z"/>
    <path id="Path-copy-17" fill="#ffffff" fill-rule="evenodd" stroke="none" d="M 50.526245 66.553589 L 50.526245 73.331024 C 50.980957 72.06134 51.212585 70.825958 51.212585 69.693542 C 51.212585 68.827026 51.075317 68.054932 50.895142 67.368622 C 50.757904 67.051208 50.663513 66.776672 50.526245 66.553589 Z"/>
    <path id="Path-copy-16" fill="#ffffff" fill-rule="evenodd" stroke="none" d="M 59.405518 63.224976 C 57.809845 63.224976 56.265625 63.362244 54.987335 63.636749 L 54.850067 63.636749 C 54.669922 63.73114 54.575562 63.73114 54.395386 63.774017 C 54.352509 63.816895 54.352509 63.816895 54.309601 63.816895 C 53.580383 64.005646 52.988434 64.228699 52.439362 64.546143 C 51.667267 65.000793 50.980957 65.592773 50.526245 66.416351 L 50.526245 73.245239 L 50.526245 73.331024 L 50.526245 73.373932 C 52.027588 77.294525 55.442017 80.932007 59.131012 81.575439 C 59.448425 81.618347 59.817322 81.618347 60.134735 81.618347 C 65.453735 81.618347 69.005432 78.203888 69.005432 72.91922 C 69.005432 72.198608 68.962524 71.46936 68.782379 70.68869 C 67.778625 66.416351 63.952393 63.224976 59.405518 63.224976 Z"/>
    <path id="Path-copy-15" fill="#d27891" fill-rule="evenodd" stroke="none" d="M 50.526245 61.088806 L 50.526245 61.131683 L 50.526245 67.462982 C 50.663513 67.462982 50.706421 67.411499 50.895142 67.368622 C 51.29837 67.145569 51.941803 66.502136 52.302124 64.957916 C 52.345001 64.777771 52.396484 64.683411 52.439362 64.546143 C 52.799683 64.091431 53.5289 63.911285 54.172333 63.774017 C 54.21524 63.774017 54.352509 63.679626 54.395386 63.679626 C 54.575562 63.636749 54.80719 63.593872 54.90155 63.542358 C 54.90155 63.542358 54.944458 63.542358 54.944458 63.456604 C 55.536407 63.182068 55.579285 62.684479 55.356232 62.229797 C 55.304749 62.092529 55.261871 62.041077 55.218964 61.955261 C 55.081696 61.775085 54.90155 61.637848 54.764282 61.50058 C 54.575562 61.363312 54.395386 61.268951 54.172333 61.183167 C 53.940704 61.131683 53.717651 61.088806 53.443115 61.088806 Z"/>
    <path id="Path-copy-14" fill="#e0e0e0" fill-rule="evenodd" stroke="none" d="M 81.204773 40.336182 C 79.111481 40.653595 73.783936 66.141815 73.783936 66.141815 C 73.783936 66.141815 73.921204 66.098938 74.109924 66.004547 C 75.285248 65.078003 80.595673 61.603516 88.308197 61.603516 C 88.960205 61.603516 89.629364 61.629272 90.307098 61.680725 C 90.307098 61.680725 86.98703 60.351013 84.07016 60.351013 C 83.932892 60.351013 83.795624 60.351013 83.666931 60.359558 C 83.666931 60.359558 86.669586 58.309204 89.21756 58.129028 C 89.21756 58.129028 86.703918 57.597137 84.730743 57.597137 C 84.473358 57.597137 84.216003 57.605713 83.984375 57.63147 C 83.984375 57.63147 85.391327 55.400909 86.892639 55.169281 C 86.892639 55.169281 83.298035 42.240723 81.436401 40.379089 C 81.384918 40.336182 81.256256 40.336182 81.204773 40.336182 Z"/>
    <path id="Path-copy-13" fill="#ffffff" fill-rule="evenodd" stroke="none" d="M 49.75415 22.671997 C 49.205078 22.671997 48.750397 22.766388 48.252808 22.766388 L 46.022278 22.895081 C 45.567596 22.946533 45.061432 23.032349 44.60675 23.083801 C 44.426575 23.126709 44.203522 23.126709 44.066284 23.169617 C 43.886108 23.169617 43.74884 23.263977 43.611572 23.263977 C 43.422852 23.306854 43.199799 23.306854 42.96817 23.349731 C 42.702209 23.401245 42.333313 23.487 42.058777 23.538513 L 41.381042 23.718628 C 41.243774 23.761536 41.106506 23.761536 40.969238 23.813019 C 40.874878 23.898804 40.694733 23.898804 40.557465 23.941711 C 40.334412 23.993164 40.059875 24.036072 39.828247 24.130432 C 39.742462 24.17334 39.605194 24.17334 39.510834 24.216248 C 39.373566 24.2677 39.28775 24.2677 39.150513 24.353516 L 38.146759 24.670898 C 38.009491 24.722412 37.915131 24.722412 37.786438 24.808167 C 37.55481 24.85968 37.331757 24.945435 37.100128 25.039795 C 36.919952 25.082703 36.688324 25.177063 36.551056 25.262878 C 37.280273 25.71756 38.009491 26.309509 38.644348 26.952942 C 41.604095 29.912689 43.611572 34.004883 45.061432 38.011292 C 45.138641 38.200012 45.207275 38.285797 45.275909 38.285797 C 45.867859 38.285797 46.116638 31.105164 46.537018 31.105164 C 46.57135 31.105164 46.614227 31.173798 46.657135 31.319641 C 47.841034 35.051514 49.162201 49.713013 50.44046 50.665283 C 50.483368 50.759674 50.483368 50.759674 50.526245 50.759674 L 50.569153 50.759674 C 51.89032 50.665283 53.26297 35.145874 54.438293 31.319641 C 54.489746 31.165222 54.532654 31.096588 54.575562 31.096588 C 55.021667 31.096588 55.270447 38.285797 55.83667 38.285797 C 55.896729 38.285797 55.965332 38.200012 56.033966 38.011292 C 57.535309 34.004883 59.491302 29.912689 62.45108 26.99585 C 63.094482 26.309509 63.866608 25.769043 64.595825 25.262878 C 64.364197 25.12561 64.141144 25.082703 63.866608 24.945435 C 63.634979 24.902557 63.411926 24.808167 63.180298 24.722412 C 62.957245 24.670898 62.725586 24.585144 62.502533 24.490784 C 62.313812 24.447876 62.133636 24.404968 61.910583 24.353516 L 59.173889 23.675751 L 58.307404 23.487 C 58.221619 23.487 58.084351 23.444122 57.98999 23.444122 L 57.123505 23.263977 C 56.44577 23.126709 55.716553 23.032349 55.030243 22.989441 C 54.90155 22.895081 54.850067 22.895081 54.764282 22.895081 C 54.395386 22.852173 54.12085 22.809265 53.760529 22.809265 C 53.443115 22.809265 53.168579 22.766388 52.799683 22.766388 L 52.57663 22.766388 C 52.164856 22.671997 51.710175 22.671997 51.255463 22.671997 Z"/>
    <path id="Path-copy-12" fill="#ebb1b0" fill-rule="evenodd" stroke="none" d="M 57.080627 69.642059 C 56.625916 69.642059 56.265625 69.916565 56.265625 70.328369 C 56.265625 70.68869 56.625916 71.014709 57.080627 71.014709 C 57.492401 71.014709 57.852722 70.68869 57.852722 70.328369 C 57.852722 69.916565 57.535309 69.642059 57.080627 69.642059 Z"/>
    <path id="Path-copy-11" fill="#ebb1b0" fill-rule="evenodd" stroke="none" d="M 59.585693 72.464539 C 59.131012 72.464539 58.762115 72.739075 58.762115 73.150879 C 58.762115 73.562653 59.131012 73.837189 59.585693 73.837189 C 60.040375 73.837189 60.357788 73.562653 60.357788 73.150879 C 60.357788 72.833435 59.997467 72.464539 59.585693 72.464539 Z"/>
    <path id="Path-copy-10" fill="#ebb1b0" fill-rule="evenodd" stroke="none" d="M 61.636078 69.642059 C 61.224274 69.642059 60.812469 69.916565 60.812469 70.328369 C 60.812469 70.68869 61.181366 71.014709 61.636078 71.014709 C 62.090759 71.014709 62.408173 70.68869 62.408173 70.328369 C 62.408173 69.916565 62.090759 69.642059 61.636078 69.642059 Z"/>
    <path id="Path-copy-9" fill="#c7bfc2" fill-rule="evenodd" stroke="none" d="M 88.076538 63.0448 C 77.387115 63.0448 66.423157 65.19812 57.174988 70.096741 C 56.951935 70.216858 57.063446 70.508545 57.260773 70.508545 C 57.30368 70.508545 57.355133 70.499939 57.398041 70.465637 C 66.611877 65.635651 77.45575 63.490906 88.042236 63.490906 C 92.211639 63.490906 96.34671 63.8255 100.327362 64.460327 C 100.335938 64.460327 100.353119 64.460327 100.361694 64.460327 C 100.610474 64.460327 100.722015 64.048523 100.413147 64.005646 C 96.42392 63.370789 92.271698 63.0448 88.076538 63.0448 Z"/>
    <path id="Path-copy-8" fill="#c7bfc2" fill-rule="evenodd" stroke="none" d="M 75.22522 68.123566 C 70.481018 68.123566 65.865509 68.698364 61.678955 70.191101 C 61.438751 70.311218 61.481659 70.671539 61.704712 70.671539 C 61.739014 70.671539 61.773346 70.662964 61.816223 70.645813 C 65.968475 69.153046 70.558228 68.578247 75.259521 68.578247 C 83.761322 68.578247 92.657745 70.448486 100.095734 72.147125 C 100.112885 72.147125 100.12146 72.155701 100.138641 72.155701 C 100.378845 72.155701 100.490356 71.735321 100.190094 71.692444 C 92.717804 69.993774 83.778473 68.123566 75.22522 68.123566 Z"/>
    <path id="Path-copy-7" fill="#c7bfc2" fill-rule="evenodd" stroke="none" d="M 62.571167 72.859192 C 61.558868 72.859192 60.546539 72.893494 59.542786 72.970703 C 59.173889 72.970703 59.225372 73.425385 59.542786 73.425385 C 60.537964 73.348175 61.550262 73.313873 62.562592 73.313873 C 74.255768 73.313873 86.335022 78.006592 96.183716 83.668732 C 96.218018 83.694458 96.260925 83.711609 96.303802 83.711609 C 96.475403 83.711609 96.59549 83.411346 96.406769 83.299835 C 86.437958 77.560486 74.307251 72.859192 62.571167 72.859192 Z"/>
    <path id="Path-copy-6" fill="#ebb1b0" fill-rule="evenodd" stroke="none" d="M 44.426575 69.642059 C 44.066284 69.642059 43.65448 69.916565 43.65448 70.328369 C 43.65448 70.68869 43.971893 71.014709 44.426575 71.014709 C 44.881287 71.014709 45.250183 70.68869 45.250183 70.328369 C 45.250183 69.916565 44.881287 69.642059 44.426575 69.642059 Z"/>
    <path id="Path-copy-5" fill="#ebb1b0" fill-rule="evenodd" stroke="none" d="M 41.972992 72.464539 C 41.561188 72.464539 41.192291 72.833435 41.192291 73.150879 C 41.192291 73.562653 41.561188 73.837189 41.972992 73.837189 C 42.427673 73.837189 42.787994 73.562653 42.787994 73.150879 C 42.787994 72.739075 42.427673 72.464539 41.972992 72.464539 Z"/>
    <path id="Path-copy-4" fill="#ebb1b0" fill-rule="evenodd" stroke="none" d="M 39.87973 69.642059 C 39.510834 69.642059 39.09903 69.916565 39.09903 70.328369 C 39.09903 70.68869 39.425018 71.014709 39.87973 71.014709 C 40.334412 71.014709 40.694733 70.68869 40.694733 70.328369 C 40.694733 69.916565 40.334412 69.642059 39.87973 69.642059 Z"/>
    <path id="Path-copy-3" fill="#c7bfc2" fill-rule="evenodd" stroke="none" d="M 13.430664 63.0448 C 9.235504 63.0448 5.083282 63.370789 1.094055 64.005646 C 0.83667 64.048523 0.905304 64.460327 1.145508 64.460327 C 1.162689 64.460327 1.171265 64.460327 1.188416 64.460327 C 5.151917 63.842651 9.278412 63.516663 13.447815 63.516663 C 24.060028 63.516663 34.929626 65.627075 44.109161 70.465637 C 44.160645 70.499939 44.203522 70.508545 44.246429 70.508545 C 44.443756 70.508545 44.563843 70.216858 44.34079 70.096741 C 35.084045 65.19812 24.120087 63.0448 13.430664 63.0448 Z"/>
    <path id="Path-copy-2" fill="#c7bfc2" fill-rule="evenodd" stroke="none" d="M 26.350616 68.123566 C 17.797363 68.123566 8.840881 69.993774 1.368561 71.692444 C 1.111206 71.735321 1.17984 72.155701 1.462952 72.155701 C 1.471527 72.155701 1.488678 72.147125 1.505829 72.147125 C 8.918091 70.448486 17.814514 68.578247 26.32489 68.578247 C 31.043335 68.578247 35.633118 69.153046 39.785339 70.645813 C 39.811096 70.662964 39.845398 70.671539 39.871124 70.671539 C 40.0513 70.671539 40.154236 70.311218 39.87973 70.191101 C 35.710327 68.698364 31.094818 68.123566 26.350616 68.123566 Z"/>
    <path id="Path-copy" fill="#c7bfc2" fill-rule="evenodd" stroke="none" d="M 38.944611 72.859192 C 27.208527 72.859192 15.07782 77.560486 5.143341 83.299835 C 4.963165 83.411346 5.083282 83.711609 5.254852 83.711609 C 5.29776 83.711609 5.332062 83.694458 5.374969 83.668732 C 15.180756 78.006592 27.26001 73.313873 38.953186 73.313873 C 39.965515 73.313873 40.969238 73.348175 41.972992 73.425385 C 42.290405 73.425385 42.333313 72.970703 41.972992 72.970703 C 40.969238 72.893494 39.95694 72.859192 38.944611 72.859192 Z"/>
</svg>
