<?xml version="1.0" encoding="UTF-8"?>
<!-- Generated by Pixelmator Pro 3.4.1 -->
<svg width="102" height="80" viewBox="0 0 102 80" xmlns="http://www.w3.org/2000/svg">
    <path id="Path-copy-28" fill="#3e3a34" fill-rule="evenodd" stroke="none" d="M 51.200836 74.789001 C 48.85611 74.789001 46.906769 75.423431 46.906769 76.204987 C 46.906769 76.986542 48.85611 77.620972 51.200836 77.620972 C 53.591522 77.620972 55.540894 76.940552 55.540894 76.204987 C 55.540894 75.478607 53.591522 74.890137 51.200836 74.789001 Z"/>
    <path id="Path-copy-27" fill="#29241e" fill-rule="evenodd" stroke="none" d="M 100.797302 0.579468 C 95.087189 0.579468 84.466949 5.130859 84.466949 5.130859 L 93.009125 11.033905 C 94.894104 3.770081 99.528381 3.420654 100.420288 3.420654 C 100.512238 3.420654 100.567413 3.420654 100.567413 3.420654 C 100.567413 3.420654 99.087036 3.089661 97.275604 3.089661 C 96.503235 3.089661 95.666473 3.144836 94.85733 3.319519 L 101.303009 0.588684 C 101.137512 0.579468 100.972015 0.579468 100.797302 0.579468 Z"/>
    <path id="Path-copy-26" fill="#29241e" fill-rule="evenodd" stroke="none" d="M 0.731201 0.625458 C 0.538086 0.625458 0.354187 0.634644 0.170288 0.64386 L 6.560822 3.420654 C 5.696503 3.218384 4.804596 3.153992 4.004608 3.153992 C 2.266754 3.153992 0.905884 3.466614 0.905884 3.466614 C 0.905884 3.466614 0.942688 3.466614 1.025421 3.466614 C 1.834595 3.466614 6.505676 3.788452 8.464203 11.079895 L 8.565338 11.033905 L 10.661804 9.57196 L 13.43869 7.613464 L 17.052338 5.130859 C 17.052338 5.130859 16.997162 5.029724 16.758087 5.029724 C 15.112183 4.321747 5.935577 0.625458 0.731201 0.625458 Z"/>
    <path id="Path-copy-25" fill="#29241e" fill-rule="evenodd" stroke="none" d="M 89.957184 4.082611 C 81.672485 4.082611 63.245667 15.667999 63.245667 15.667999 L 82.812653 41.036316 C 82.812653 41.036316 98.664856 5.710083 91.299652 4.202148 C 90.895081 4.119385 90.444519 4.082611 89.957184 4.082611 Z"/>
    <path id="Path-copy-24" fill="#dc7290" fill-rule="evenodd" stroke="none" d="M 89.166107 7.502991 C 83.492798 7.502991 71.300201 20.007874 71.300201 20.007874 L 81.543457 35.519409 C 81.543457 35.519409 95.06012 8.597168 89.837341 7.567383 C 89.625854 7.521393 89.405182 7.502991 89.166107 7.502991 Z"/>
    <path id="Path-copy-23" fill="#29241e" fill-rule="evenodd" stroke="none" d="M 11.507446 4.009064 C 11.075287 4.009064 10.679901 4.036652 10.321289 4.101013 C 8.417938 4.496399 8.022552 7.181244 8.611023 10.932709 C 9.438568 16.743774 12.31662 24.9823 14.808472 31.37262 C 16.950897 36.889496 18.753113 40.935181 18.753113 40.935181 L 31.10202 25.083435 L 31.883606 24.154755 L 32.315765 23.520325 L 33.492737 22.01239 L 33.538696 21.957214 L 38.421265 15.667999 C 38.421265 15.667999 37.198303 14.886444 35.101868 13.718719 C 30.80777 11.125793 22.900055 6.887024 16.757813 4.983704 C 14.79007 4.376831 12.969452 4.009064 11.507446 4.009064 Z"/>
    <path id="Path-copy-22" fill="#dc7290" fill-rule="evenodd" stroke="none" d="M 12.546539 7.502991 C 12.31665 7.502991 12.086792 7.521393 11.875305 7.567383 C 6.661743 8.597168 20.169189 35.519409 20.169189 35.519409 L 30.421631 20.007874 C 30.421631 20.007874 18.229065 7.502991 12.546539 7.502991 Z"/>
    <path id="Path-copy-21" fill="#544439" fill-rule="evenodd" stroke="none" d="M 50.567902 6.592743 C 42.614227 6.739868 38.025909 10.546478 35.101898 13.663513 C 34.127228 14.785278 33.299683 15.759888 32.610046 16.596619 C 31.782501 17.571289 30.908966 18.444763 30.072235 19.327454 L 29.87915 19.520569 L 28.27002 21.083679 L 28.030945 21.322723 C 27.681519 21.764099 27.249359 22.104279 26.909149 22.499664 C 23.341492 25.864929 20.169189 28.154419 17.493439 29.864655 C 16.509583 30.499084 15.682037 30.98642 14.808502 31.372589 C 9.834015 34.011475 6.900787 34.011475 6.900787 34.011475 C 6.707703 34.88501 6.707703 35.859619 6.900787 38.05719 C 7.976624 51.030975 28.85849 55.674316 35.055939 71.820313 C 37.731689 78.799103 46.283051 79.847321 49.685181 79.847321 C 50.062195 79.847321 50.374817 79.838135 50.613892 79.819733 L 50.862152 79.819733 C 51.064453 79.838135 51.413849 79.856506 51.86441 79.856506 C 55.119446 79.856506 63.919067 78.891052 66.668396 71.820313 C 72.865814 55.619141 93.646545 51.030975 94.814331 38.05719 C 95.007416 35.859619 95.007416 34.88501 94.768341 33.956299 C 94.768341 33.956299 91.835144 33.956299 86.768677 31.326599 C 85.931946 30.885254 85.012421 30.397949 84.08374 29.818665 C 81.398804 28.154419 78.226501 25.763794 74.71402 22.499664 C 74.32782 22.104279 73.932434 21.718109 73.546265 21.322723 C 73.491089 21.276764 73.399139 21.129639 73.297974 21.083679 C 72.718689 20.596344 72.277344 20.053833 71.688873 19.520569 L 71.596924 19.373444 L 71.541748 19.327454 C 70.668213 18.444763 69.840668 17.571289 68.957947 16.596619 C 68.277496 15.759888 67.495941 14.739288 66.466095 13.663513 C 63.542084 10.546478 58.907806 6.693878 50.862152 6.592743 Z"/>
    <path id="Path-copy-20" fill="#29241e" fill-rule="evenodd" stroke="none" d="M 66.031952 35.518921 C 62.032104 35.518921 58.712708 38.838196 58.712708 42.837952 C 58.712708 44.502197 58.565582 47.177856 59.439117 48.400757 C 60.588501 50.074219 63.052765 50.156952 65.323914 50.156952 C 65.562988 50.156952 65.792877 50.156952 66.031952 50.156952 C 70.123718 50.156952 73.351166 46.892822 73.351166 42.939087 C 73.351166 41.081726 73.397156 38.497986 72.32132 37.229126 C 70.96048 35.620056 68.275513 35.518921 66.031952 35.518921 Z"/>
    <path id="Path-copy-19" fill="#9bd994" fill-rule="evenodd" stroke="none" d="M 66.197418 36.594666 C 66.142242 36.594666 66.087067 36.594666 66.031891 36.594666 C 62.565369 36.594666 59.733307 39.37149 59.733307 42.837891 C 59.733307 46.350311 62.565369 49.136322 66.031891 49.136322 C 69.489227 49.136322 72.321289 46.350311 72.321289 42.837891 C 72.321289 39.435852 69.581177 36.594666 66.197418 36.594666 Z"/>
    <path id="Path-copy-18" fill="#29241e" fill-rule="evenodd" stroke="none" d="M 62.032227 36.695801 C 55.494568 42.010376 56.027893 50.892517 55.926727 52.795837 C 55.843994 53.8992 56.386505 54.129059 56.855438 54.129059 C 57.195648 54.129059 57.489899 54.009521 57.489899 54.009521 C 57.296814 41.127686 62.032227 37.183136 62.032227 37.183136 L 62.032227 36.695801 Z"/>
    <path id="Path-copy-17" fill="#29241e" fill-rule="evenodd" stroke="none" d="M 66.031799 36.594666 C 66.031799 36.594666 62.418152 39.37149 62.418152 42.837891 C 62.418152 46.350311 65.829498 49.136322 66.031799 49.136322 C 66.224884 49.136322 69.63623 46.350311 69.63623 42.837891 C 69.63623 39.37149 66.270874 36.842957 66.031799 36.594666 Z"/>
    <path id="Path-copy-16" fill="#ffffff" fill-rule="evenodd" stroke="none" d="M 68.026947 39.91394 C 67.392487 39.91394 66.758026 40.493195 66.758026 41.22876 C 66.758026 41.86322 67.300537 42.49765 68.026947 42.49765 C 68.716583 42.49765 69.341827 41.964355 69.341827 41.22876 C 69.341827 40.493195 68.716583 39.91394 68.026947 39.91394 Z"/>
    <path id="Path-copy-15" fill="#ffffff" fill-rule="evenodd" stroke="none" d="M 63.641083 42.791809 C 63.052612 42.791809 62.611237 43.279144 62.611237 43.812439 C 62.611237 44.446899 63.098572 44.888245 63.641083 44.888245 C 64.275543 44.888245 64.707703 44.400909 64.707703 43.812439 C 64.707703 43.279144 64.275543 42.837799 63.641083 42.791809 Z"/>
    <path id="Path-copy-14" fill="#29241e" fill-rule="evenodd" stroke="none" d="M 36.323975 35.518921 C 34.071198 35.518921 31.395447 35.620056 30.071381 37.229126 C 28.949585 38.497986 29.004761 41.081726 29.004761 42.939087 C 28.949585 46.892822 32.268982 50.156952 36.323975 50.156952 C 36.553864 50.156952 36.783752 50.156952 37.022797 50.156952 C 39.293976 50.156952 41.75824 50.074219 42.907623 48.400757 C 43.781158 47.177856 43.634033 44.502197 43.634033 42.837952 C 43.634033 38.838196 40.369781 35.518921 36.323975 35.518921 Z"/>
    <path id="Path-copy-13" fill="#9bd994" fill-rule="evenodd" stroke="none" d="M 36.103271 36.594666 C 32.765472 36.594666 29.979401 39.435852 29.979401 42.837891 C 29.979401 46.350311 32.811462 49.136322 36.268768 49.136322 C 39.735291 49.136322 42.567352 46.350311 42.567352 42.837891 C 42.567352 39.37149 39.735291 36.594666 36.268768 36.594666 C 36.213623 36.594666 36.158447 36.594666 36.103271 36.594666 Z"/>
    <path id="Path-copy-12" fill="#29241e" fill-rule="evenodd" stroke="none" d="M 40.369354 36.695801 L 40.369354 37.183136 C 40.323395 37.183136 45.049622 41.127686 44.856537 54.009521 C 44.856537 54.009521 45.150757 54.129059 45.490997 54.129059 C 45.969116 54.129059 46.520813 53.8992 46.465668 52.795837 C 46.318542 50.892517 46.907013 42.010376 40.369354 36.695801 Z"/>
    <path id="Path-copy-11" fill="#29241e" fill-rule="evenodd" stroke="none" d="M 36.268677 36.594666 C 36.075592 36.842957 32.664246 39.37149 32.664246 42.837891 C 32.664246 46.350311 36.075592 49.136322 36.268677 49.136322 C 36.461761 49.136322 39.882324 46.350311 39.882324 42.837891 C 39.882324 39.37149 36.268677 36.594666 36.268677 36.594666 Z"/>
    <path id="Path-copy-10" fill="#ffffff" fill-rule="evenodd" stroke="none" d="M 34.319305 39.91394 C 33.638885 39.91394 33.050415 40.493195 33.050415 41.22876 C 33.050415 41.964355 33.638885 42.49765 34.319305 42.49765 C 34.999756 42.49765 35.588226 41.86322 35.588226 41.22876 C 35.588226 40.493195 34.999756 39.91394 34.319305 39.91394 Z"/>
    <path id="Path-copy-9" fill="#ffffff" fill-rule="evenodd" stroke="none" d="M 38.714355 42.791809 C 38.079895 42.837799 37.684509 43.279144 37.684509 43.812439 C 37.684509 44.400909 38.079895 44.888245 38.714355 44.888245 C 39.247681 44.888245 39.735016 44.446899 39.735016 43.812439 C 39.735016 43.279144 39.29364 42.791809 38.714355 42.791809 Z"/>
    <path id="Path-copy-8" fill="#6b5648" fill-rule="evenodd" stroke="none" d="M 59.099213 52.299011 C 54.372986 52.299011 50.566223 53.282867 50.566223 57.963013 C 50.566223 62.698303 55.053406 68.647278 59.733673 68.647278 C 64.515076 68.647278 67.687347 65.521088 67.687347 60.840942 C 67.687347 56.105652 63.834656 52.299011 59.099213 52.299011 Z"/>
    <path id="Path-copy-7" fill="#6b5648" fill-rule="evenodd" stroke="none" d="M 43.348755 52.299011 C 38.512177 52.299011 34.76062 56.105652 34.76062 60.840942 C 34.76062 65.521088 37.932892 68.647278 42.659119 68.647278 C 47.348602 68.647278 51.881744 62.698303 51.881744 57.963013 C 51.881744 53.282867 48.029022 52.299011 43.348755 52.299011 Z"/>
    <path id="Path-copy-6" fill="#544439" fill-rule="evenodd" stroke="none" d="M 82.665527 14.693176 L 82.665527 14.693176 C 71.879761 16.449371 64.027222 25.910767 64.027222 25.910767 C 67.935089 25.469421 82.665527 14.693176 82.665527 14.693176 Z"/>
    <path id="Path-copy-5" fill="#544439" fill-rule="evenodd" stroke="none" d="M 79.934448 18.931885 L 79.934448 18.931885 C 72.76236 20.154785 67.493622 26.44397 67.493622 26.44397 C 70.077423 26.158936 79.934448 18.931885 79.934448 18.931885 Z"/>
    <path id="Path-copy-4" fill="#544439" fill-rule="evenodd" stroke="none" d="M 19.000977 14.693176 C 19.000977 14.693176 33.78656 25.469421 37.685242 25.910767 C 37.685242 25.910767 29.832703 16.449371 19.000977 14.693176 Z"/>
    <path id="Path-copy-3" fill="#544439" fill-rule="evenodd" stroke="none" d="M 21.77774 18.931885 C 21.786957 18.931885 31.634796 26.158936 34.218597 26.44397 C 34.218597 26.44397 28.94986 20.154785 21.77774 18.931885 Z"/>
    <path id="Path-copy-2" fill="#29241e" fill-rule="evenodd" stroke="none" d="M 50.465881 6.491577 C 42.567352 6.693878 37.979065 10.491333 35.055023 13.571564 C 34.071167 14.739288 33.197632 15.713928 32.563202 16.495483 C 31.680481 17.470154 30.852905 18.398804 29.979401 19.272339 C 30.07135 19.327484 30.172485 19.373474 30.319611 19.419434 C 30.852905 19.860779 31.974701 20.642334 33.390747 21.957153 C 34.567688 22.987 35.974548 24.255859 37.390564 25.86496 C 42.273132 31.133545 47.688995 39.519165 47.440735 50.010376 L 50.567017 50.405731 L 50.613007 50.405731 L 50.613007 50.497681 L 50.907227 50.405731 L 51.201477 50.497681 L 51.201477 50.405731 L 54.373749 50.010376 C 54.125488 39.519165 59.541351 31.133545 64.42392 25.86496 C 65.83075 24.301819 67.09967 23.032959 68.276611 22.058319 C 69.931732 20.596344 71.200623 19.667664 71.641998 19.373444 C 70.713287 18.444763 69.885742 17.571289 68.911072 16.495483 C 68.221436 15.713928 67.449066 14.693298 66.41922 13.571564 C 63.495209 10.491333 58.805756 6.638733 50.806091 6.491577 Z"/>
    <path id="Path-copy" fill="#ebb1b0" fill-rule="evenodd" stroke="none" d="M 47.440186 50.055542 C 45.389709 50.055542 43.780579 52.253113 45.490845 53.135803 C 46.465515 53.623108 48.516022 53.567932 48.856232 54.937958 C 49.444702 57.567657 50.612457 58.110168 51.099823 58.156128 L 51.145782 58.156128 C 51.642303 58.156128 52.810089 57.567657 53.39856 54.937958 C 53.683594 53.521973 55.789276 53.669067 56.763947 53.135803 C 58.612122 52.253113 56.911041 50.055542 54.860565 50.055542 Z"/>
</svg>
