<?xml version="1.0" encoding="UTF-8"?>
<!-- Generated by Pixelmator Pro 3.4.1 -->
<svg width="138" height="130" viewBox="0 0 138 130" xmlns="http://www.w3.org/2000/svg">
    <path id="Path-copy-25" fill="#464741" fill-rule="evenodd" stroke="none" d="M 13.443542 1.382294 C 8.641113 1.382294 0.421875 33.532593 2.852417 39.697235 C 5.212524 45.873657 13.74884 51.721313 13.74884 51.721313 L 39.040649 26.745544 C 39.040649 26.745544 18.175476 1.382294 13.443542 1.382294 Z"/>
    <path id="Path-copy-24" fill="#292623" fill-rule="evenodd" stroke="none" d="M 15.357727 17.093628 C 15.252014 17.093628 15.146362 17.105347 15.064148 17.152344 C 12.316589 18.514435 7.960388 40.131897 18.17572 47.306396 L 34.367676 36.280457 C 34.367676 36.280457 18.86853 17.093628 15.357727 17.093628 Z"/>
    <path id="Path-copy-23" fill="#464741" fill-rule="evenodd" stroke="none" d="M 122.774963 1.382294 C 118.042969 1.382294 97.177795 26.745544 97.177795 26.745544 L 122.469666 51.721313 C 122.469666 51.721313 130.935486 45.873657 133.366028 39.697235 C 135.79657 33.532562 127.518616 1.382294 122.774963 1.382294 Z"/>
    <path id="Path-copy-22" fill="#292623" fill-rule="evenodd" stroke="none" d="M 120.861206 17.093628 C 117.350403 17.093628 101.851196 36.280457 101.851196 36.280457 L 118.043152 47.306396 C 128.199829 40.131897 123.831848 18.514435 121.154724 17.152344 C 121.072571 17.105347 120.966858 17.093628 120.861206 17.093628 Z"/>
    <path id="Path-copy-21" fill="#d5c79e" fill-rule="evenodd" stroke="none" d="M 64.614014 19.13678 C 55.537598 19.13678 30.621521 21.356079 14.065613 44.183014 C -6.435608 72.528809 -2.008911 104.373749 17.7995 106.675232 C 37.60791 109.105896 49.267517 128.915039 68.019165 129.913147 C 86.770813 128.915039 98.477356 109.04718 118.227112 106.675232 C 138.164673 104.373749 142.650024 72.528809 122.148865 44.183014 C 105.639893 21.356079 80.65332 19.13678 71.553467 19.13678 C 69.346008 19.13678 68.077881 19.265961 68.077881 19.265961 C 68.077881 19.265961 66.809753 19.13678 64.614014 19.13678 Z"/>
    <path id="Path-copy-20" fill="#5d5a5a" fill-rule="evenodd" stroke="none" d="M 68.078369 28.483765 C 68.078369 28.483765 57.170227 29.916321 49.631958 41.50589 C 49.631958 41.50589 27.768738 41.822937 20.91156 52.097412 C 14.06604 62.383606 6.586548 80.443176 13.009338 91.410461 C 19.479065 102.31897 34.813843 103.058746 39.299194 105.735962 C 43.784546 108.483643 49.385376 119.263031 68.019653 120.507721 C 86.700806 119.321747 92.313416 108.483643 96.728333 105.735962 C 101.284119 103.058746 116.548462 102.31897 123.029968 91.410461 C 129.628845 80.513641 122.149292 62.383606 115.303833 52.097412 C 108.446655 41.822937 86.583435 41.50589 86.583435 41.50589 C 78.974731 29.916321 68.078369 28.483765 68.078369 28.483765 Z"/>
    <path id="Path-copy-19" fill="#64a6dc" fill-rule="evenodd" stroke="none" d="M 44.442993 61.644287 C 42.235535 61.644287 39.335327 63.076843 36.799133 65.554443 C 33.123901 69.171051 31.820618 73.785767 33.746216 75.711487 C 34.838257 76.803528 39.253174 77.038361 42.893127 77.038361 C 45.7229 77.038361 48.083008 76.897461 48.083008 76.897461 C 48.083008 76.897461 48.893188 64.49762 46.897034 62.571899 C 46.298218 61.937836 45.441101 61.644287 44.442993 61.644287 Z"/>
    <path id="Path-copy-18" fill="#4c7ea4" fill-rule="evenodd" stroke="none" d="M 43.092957 62.689331 C 43.092957 62.689331 40.227966 65.178711 39.417786 68.854034 C 38.67804 72.529358 40.357117 75.958069 40.357117 75.958069 C 40.357117 75.958069 43.280823 73.410034 44.032288 69.793396 C 44.713318 66.118103 43.092957 62.689331 43.092957 62.689331 Z"/>
    <path id="Path-copy-17" fill="#64a6dc" fill-rule="evenodd" stroke="none" d="M 91.84668 61.644287 C 90.836914 61.644287 89.991455 61.937836 89.38092 62.571899 C 87.396545 64.49762 88.206726 76.897461 88.206726 76.897461 C 88.206726 76.897461 90.566833 77.038361 93.384888 77.038361 C 97.024841 77.038361 101.439758 76.803528 102.531738 75.711487 C 104.457397 73.785767 103.154053 69.171051 99.478882 65.554443 C 96.954346 63.076843 94.042419 61.644287 91.84668 61.644287 Z"/>
    <path id="Path-copy-16" fill="#4c7ea4" fill-rule="evenodd" stroke="none" d="M 93.185425 62.689331 C 93.185425 62.689331 91.447632 66.118103 92.246033 69.793396 C 92.997559 73.410034 95.932983 75.958069 95.932983 75.958069 C 95.932983 75.958069 97.612061 72.529358 96.860596 68.854034 C 96.050415 65.178711 93.185425 62.689331 93.185425 62.689331 Z"/>
    <path id="Path-copy-15" fill="#424243" fill-rule="evenodd" stroke="none" d="M 68.197571 95.086609 C 67.763123 95.086609 67.457825 95.403687 67.457825 95.779419 L 67.457825 102.507721 C 67.457825 105.243652 65.273865 107.427734 62.596741 107.427734 C 59.860901 107.427734 57.676941 105.243652 57.676941 102.507721 C 57.676941 102.131958 57.359863 101.814941 56.984131 101.814941 C 56.549683 101.814941 56.244446 102.131958 56.244446 102.507721 C 56.244446 105.995178 59.168152 108.860291 62.655457 108.860291 C 65.144714 108.860291 67.269958 107.48645 68.326721 105.372833 C 69.453918 107.427734 71.508728 108.860291 73.998047 108.860291 C 77.485352 108.860291 80.409058 105.995178 80.409058 102.507721 C 80.10376 102.190674 79.786743 101.873657 79.422729 101.873657 C 78.976563 101.873657 78.671265 102.190674 78.671265 102.566437 C 78.671265 105.302368 76.487305 107.48645 73.81012 107.48645 C 71.07428 107.48645 68.89032 105.302368 68.89032 102.566437 L 68.89032 95.779419 C 68.89032 95.403687 68.573303 95.086609 68.197571 95.086609 Z"/>
    <path id="Path-copy-14" fill="#272425" fill-rule="evenodd" stroke="none" d="M 67.892273 82.064301 C 66.671143 82.064301 56.549744 82.228699 56.549744 87.677094 C 56.549744 93.524719 68.021484 98.268616 68.021484 98.268616 C 68.021484 98.268616 79.481445 93.524719 79.481445 87.677094 C 79.481445 82.228699 69.360046 82.064301 68.138855 82.064301 C 68.056702 82.064301 68.021484 82.064301 68.021484 82.064301 C 68.021484 82.064301 67.974487 82.064301 67.892273 82.064301 Z"/>
    <path id="Path-copy-13" fill="#ffffff" fill-rule="evenodd" stroke="none" d="M 62.655518 84.494995 C 60.600708 84.494995 58.980347 85.493073 58.980347 86.737732 C 58.980347 87.982422 60.600708 89.039246 62.655518 89.039246 C 64.651672 89.039246 66.33075 87.982422 66.33075 86.737732 C 66.33075 85.493073 64.651672 84.494995 62.655518 84.494995 Z"/>
    <path id="Path-copy-12" fill="none" stroke="none" d="M 56.67688 94.405487 C 56.67688 94.405487 26.770508 88.604828 2.042297 100.758057"/>
    <path id="Path-copy-11" fill="none" stroke="#ced0d1" stroke-width="0.08399" stroke-linecap="round" stroke-linejoin="round" d="M 56.67688 94.405487 C 56.67688 94.405487 26.770508 88.604828 2.042297 100.758057"/>
    <path id="Path-copy-10" fill="none" stroke="none" d="M 56.677185 97.458557 C 56.677185 97.458557 31.502747 95.086609 9.956543 112.101135"/>
    <path id="Path-copy-9" fill="none" stroke="#ced0d1" stroke-width="0.08399" stroke-linecap="round" stroke-linejoin="round" d="M 56.677185 97.458557 C 56.677185 97.458557 31.502747 95.086609 9.956543 112.101135"/>
    <path id="Path-copy-8" fill="none" stroke="none" d="M 56.677734 100.006683 C 56.677734 100.006683 43.280334 99.63092 24.716553 115.08374"/>
    <path id="Path-copy-7" fill="none" stroke="#ced0d1" stroke-width="0.08399" stroke-linecap="round" stroke-linejoin="round" d="M 56.677734 100.006683 C 56.677734 100.006683 43.280334 99.63092 24.716553 115.08374"/>
    <path id="Path-copy-6" fill="none" stroke="none" d="M 78.049744 94.405487 C 78.049744 94.405487 107.956116 88.604828 132.684326 100.758057"/>
    <path id="Path-copy-5" fill="none" stroke="#ced0d1" stroke-width="0.08399" stroke-linecap="round" stroke-linejoin="round" d="M 78.049744 94.405487 C 78.049744 94.405487 107.956116 88.604828 132.684326 100.758057"/>
    <path id="Path-copy-4" fill="none" stroke="none" d="M 78.049744 97.458557 C 78.049744 97.458557 103.212402 95.086609 124.770325 112.101135"/>
    <path id="Path-copy-3" fill="none" stroke="#ced0d1" stroke-width="0.08399" stroke-linecap="round" stroke-linejoin="round" d="M 78.049744 97.458557 C 78.049744 97.458557 103.212402 95.086609 124.770325 112.101135"/>
    <path id="Path-copy-2" fill="none" stroke="none" d="M 78.049744 100.006683 C 78.049744 100.006683 91.447144 99.63092 110.010925 115.08374"/>
    <path id="Path-copy" fill="none" stroke="#ced0d1" stroke-width="0.08399" stroke-linecap="round" stroke-linejoin="round" d="M 78.049744 100.006683 C 78.049744 100.006683 91.447144 99.63092 110.010925 115.08374"/>
</svg>
