<?xml version="1.0" encoding="UTF-8"?>
<!-- Generated by Pixelmator Pro 3.4.1 -->
<svg width="125" height="103" viewBox="0 0 125 103" xmlns="http://www.w3.org/2000/svg">
    <path id="Path-copy-17" fill="#bcacac" fill-rule="evenodd" stroke="none" d="M 119.797485 8.584503 C 111.129532 8.584503 92.754105 13.921143 92.754105 13.921143 L 92.975113 35.726105 C 92.975113 35.726105 117.726669 20.870239 123.587158 12.054962 C 125.289642 9.493042 123.366165 8.584503 119.797485 8.584503 Z"/>
    <path id="Path-copy-16" fill="#b4949e" fill-rule="evenodd" stroke="none" d="M 115.033783 13.921143 L 115.033783 13.921143 C 109.607101 14.706909 102.567978 16.442139 97.796097 17.653534 L 97.877945 26.689819 C 103.8694 22.73645 110.564758 17.964569 115.033783 13.921143 Z"/>
    <path id="Path-copy-15" fill="#bcacac" fill-rule="evenodd" stroke="none" d="M 5.116898 6.80835 C 1.548218 6.80835 -0.367081 7.716888 1.34359 10.27063 C 7.204079 19.085907 31.955635 33.941772 31.955635 33.941772 L 32.176636 12.14502 C 32.176636 12.14502 13.776665 6.80835 5.116898 6.80835 Z"/>
    <path id="Path-copy-14" fill="#b4949e" fill-rule="evenodd" stroke="none" d="M 9.856033 12.185913 C 14.325066 16.22113 21.012238 21.001221 27.052803 24.95459 L 27.093727 15.918304 C 22.403694 14.616882 15.323639 12.963501 9.856033 12.185913 Z"/>
    <path id="Path-copy-13" fill="#bcacac" fill-rule="evenodd" stroke="none" d="M 61.143494 1.021545 C 28.747108 1.021545 2.514061 40.849915 2.514061 62.687622 C 2.514061 84.492554 28.747108 102.123138 61.143494 102.123138 C 93.539871 102.123138 119.76474 84.492554 119.76474 62.687622 C 119.76474 40.890869 93.490768 1.021545 61.143494 1.021545 Z"/>
    <path id="Path-copy-12" fill="#434244" fill-rule="evenodd" stroke="none" d="M 60.226761 50.008972 C 59.711105 50.008972 59.359146 50.401855 59.359146 50.876587 L 59.359146 62.171967 C 59.359146 64.864838 57.190109 67.074799 54.456314 67.074799 C 51.804352 67.074799 49.586212 64.905762 49.586212 62.171967 C 49.586212 61.689026 49.201523 61.304352 48.718597 61.304352 C 48.243866 61.304352 47.850983 61.689026 47.850983 62.171967 C 47.850983 65.863403 50.84671 68.859131 54.538162 68.859131 C 58.229614 68.859131 61.184418 65.863403 61.094376 62.171967 L 61.094376 50.876587 C 61.094376 50.401855 60.709686 50.008972 60.226761 50.008972 Z"/>
    <path id="Path-copy-11" fill="#434244" fill-rule="evenodd" stroke="none" d="M 60.275879 50.008972 C 59.792953 50.008972 59.40007 50.401855 59.40007 50.876587 L 59.40007 62.171967 C 59.40007 65.863403 62.403992 68.859131 66.095444 68.859131 C 69.778702 68.859131 72.782608 65.863403 72.651657 62.171967 C 72.651657 61.689026 72.258774 61.304352 71.784042 61.304352 C 71.301117 61.304352 70.908234 61.689026 70.908234 62.171967 C 70.908234 64.864838 68.739212 67.074799 66.005402 67.074799 C 63.353455 67.074799 61.143494 64.905762 61.143494 62.171967 L 61.143494 50.876587 C 61.143494 50.401855 60.75061 50.008972 60.275879 50.008972 Z"/>
    <path id="Path-copy-10" fill="#af7874" fill-rule="evenodd" stroke="none" d="M 53.498657 45.842804 L 60.316803 52.701874 L 67.175858 45.842804 Z"/>
    <path id="Path-copy-9" fill="#af7874" fill-rule="evenodd" stroke="none" d="M 65.04776 46.710419 L 60.316803 51.441376 L 55.62677 46.710419 Z M 53.498657 44.926086 C 53.105774 44.926086 52.843857 45.147095 52.671967 45.449921 C 52.58194 45.80188 52.631042 46.186584 52.892975 46.448486 L 59.752029 53.266632 C 59.882996 53.438538 60.09581 53.569489 60.316803 53.569489 C 60.529617 53.569489 60.75061 53.48764 60.922501 53.266632 L 67.781555 46.448486 C 68.043472 46.186584 68.133514 45.80188 68.002548 45.449921 C 67.830673 45.147095 67.568741 44.926086 67.175858 44.926086 Z"/>
    <path id="Path-copy-8" fill="#434244" fill-rule="evenodd" stroke="none" d="M 90.061234 39.9823 C 88.800735 39.9823 87.720306 41.02182 87.720306 42.323242 C 87.720306 43.58374 88.800735 44.672363 90.061234 44.672363 C 91.362656 44.672363 92.410339 43.58374 92.410339 42.323242 C 92.410339 41.02182 91.362656 39.9823 90.061234 39.9823 Z"/>
    <path id="Path-copy-7" fill="#434244" fill-rule="evenodd" stroke="none" d="M 35.254211 39.9823 C 33.952789 39.9823 32.913292 41.02182 32.913292 42.323242 C 32.913292 43.58374 33.952789 44.672363 35.254211 44.672363 C 36.514709 44.672363 37.603317 43.58374 37.603317 42.323242 C 37.603317 41.02182 36.514709 39.9823 35.254211 39.9823 Z"/>
    <path id="Path-copy-6" fill="#434244" fill-rule="evenodd" stroke="none" d="M 64.221069 55.746704 C 63.967331 55.746704 63.746338 55.959534 63.746338 56.221436 C 63.746338 56.483337 63.967331 56.696167 64.221069 56.696167 C 64.532089 56.696167 64.744904 56.483337 64.744904 56.221436 C 64.744904 55.959534 64.532089 55.746704 64.221069 55.746704 Z"/>
    <path id="Path-copy-5" fill="#434244" fill-rule="evenodd" stroke="none" d="M 67.2659 59.348145 C 67.003983 59.348145 66.782974 59.560913 66.782974 59.871948 C 66.782974 60.125702 67.003983 60.34668 67.2659 60.34668 C 67.568741 60.34668 67.781555 60.125702 67.781555 59.871948 C 67.781555 59.560913 67.568741 59.348145 67.2659 59.348145 Z"/>
    <path id="Path-copy-4" fill="#434244" fill-rule="evenodd" stroke="none" d="M 68.698288 54.306152 C 68.436356 54.306152 68.215363 54.52713 68.215363 54.789063 C 68.215363 55.091919 68.436356 55.304718 68.698288 55.304718 C 68.960205 55.304718 69.173019 55.091919 69.173019 54.789063 C 69.173019 54.52713 68.960205 54.306152 68.698288 54.306152 Z"/>
    <path id="Path-copy-3" fill="#434244" fill-rule="evenodd" stroke="none" d="M 51.804352 53.307556 C 51.542435 53.307556 51.32962 53.569489 51.32962 53.831421 C 51.32962 54.093323 51.542435 54.306152 51.804352 54.306152 C 52.066284 54.306152 52.279099 54.093323 52.279099 53.831421 C 52.279099 53.569489 52.148132 53.356689 51.804352 53.307556 Z"/>
    <path id="Path-copy-2" fill="#434244" fill-rule="evenodd" stroke="none" d="M 55.495819 56.655243 C 55.233887 56.655243 55.021072 56.868042 55.021072 57.129974 C 55.021072 57.391907 55.233887 57.612915 55.495819 57.612915 C 55.757736 57.612915 55.970551 57.391907 55.970551 57.129974 C 55.970551 56.917175 55.757736 56.696167 55.495819 56.655243 Z"/>
    <path id="Path-copy" fill="#434244" fill-rule="evenodd" stroke="none" d="M 51.714325 59.52002 C 51.411484 59.52002 51.198669 59.740997 51.198669 60.00293 C 51.198669 60.305786 51.411484 60.518585 51.714325 60.518585 C 51.976242 60.518585 52.197235 60.305786 52.197235 60.00293 C 52.197235 59.740997 51.976242 59.52002 51.714325 59.52002 Z"/>
</svg>
