<?xml version="1.0" encoding="UTF-8"?>
<!-- Generated by Pixelmator Pro 3.4.1 -->
<svg width="65" height="47" viewBox="0 0 65 47" xmlns="http://www.w3.org/2000/svg">
    <path id="Path-copy-32" fill="#d69b56" fill-rule="evenodd" stroke="none" d="M 11.944 1.03299 C 11.625519 1.03299 11.416687 1.168732 11.354034 1.461121 C 8.858368 12.54541 13.625183 20.021973 14.455353 21.186279 C 14.507568 21.295929 14.538879 21.353363 14.538879 21.353363 C 14.538879 21.353363 23.513885 18.168518 27.226074 12.185181 C 27.226074 12.185181 26.531677 11.57431 25.424805 10.60321 C 21.864044 7.501892 14.168182 1.03299 11.944 1.03299 Z"/>
    <path id="Path-copy-31" fill="#f8e7c2" fill-rule="evenodd" stroke="none" d="M 13.484222 3.685303 C 13.442444 3.685303 13.411133 3.700928 13.400696 3.732269 C 10.633514 11.21405 15.703186 20.632874 15.703186 20.632874 C 15.703186 20.632874 22.683746 18.137207 25.591888 13.485229 C 25.591888 13.485229 14.585876 3.685303 13.484222 3.685303 Z"/>
    <path id="Path-copy-30" fill="#d69b56" fill-rule="evenodd" stroke="none" d="M 50.564209 1.006897 C 47.624756 1.006897 35.256073 12.185181 35.256073 12.185181 C 38.968231 18.194641 47.917145 21.322021 47.917145 21.322021 C 47.917145 21.322021 53.87439 13.511322 51.159424 1.434998 C 51.091553 1.142639 50.882721 1.006897 50.564209 1.006897 Z"/>
    <path id="Path-copy-29" fill="#f8e7c2" fill-rule="evenodd" stroke="none" d="M 48.992676 3.685303 C 47.870148 3.685303 36.890259 13.485229 36.890259 13.485229 C 39.798401 18.137207 46.78418 20.632874 46.78418 20.632874 C 46.78418 20.632874 51.848602 11.21405 49.081451 3.732269 C 49.065765 3.700928 49.039673 3.685303 48.992676 3.685303 Z"/>
    <path id="Path-copy-28" fill="#d69b56" fill-rule="evenodd" stroke="none" d="M 31.157532 9.579865 C 29.163086 9.63208 27.226074 10.023651 25.398682 10.60321 C 24.704285 10.853821 24.009888 11.130524 23.346802 11.407227 C 23.320709 11.407227 23.263275 11.43335 23.237183 11.43335 C 19.216949 13.234619 16.616852 16.090515 15.092316 19.468567 C 14.815613 20.021973 14.622406 20.601532 14.397919 21.186279 C 13.567749 23.598419 13.233612 26.172424 13.233612 28.720276 C 13.233612 32.625641 13.954132 31.215942 22.098969 40.300598 C 23.456451 41.793823 25.811157 45.286743 31.214966 45.537354 L 31.408142 45.537354 C 36.670959 45.229309 38.968231 41.793823 40.299622 40.300598 C 48.444458 31.215942 49.164978 32.651733 49.164978 28.720276 C 49.138885 26.198517 48.804718 23.650635 47.974579 21.295929 C 47.750061 20.7164 47.499451 20.131653 47.280182 19.578186 C 45.755615 16.200195 43.150299 13.292053 39.135315 11.464661 C 39.109222 11.43335 39.025665 11.43335 38.999573 11.407227 C 38.36261 11.130524 37.725616 10.827698 37.031219 10.629303 C 35.256073 10.049744 33.345154 9.663391 31.38205 9.579865 Z"/>
    <path id="Path-copy-27" fill="#ced49b" fill-rule="evenodd" stroke="none" d="M 39.495575 25.749512 C 37.96579 25.749512 36.59787 26.861572 36.284607 28.443573 C 35.95047 30.187408 37.114777 31.936462 38.916016 32.265381 C 39.130096 32.312378 39.338928 32.333252 39.553009 32.333252 C 41.087982 32.333252 42.471588 31.215942 42.763947 29.633972 C 43.124207 27.832703 41.933807 26.11499 40.132538 25.812134 C 39.918488 25.770386 39.704407 25.749512 39.495575 25.749512 Z"/>
    <path id="Path-copy-26" fill="#0d0c0b" fill-rule="evenodd" stroke="none" d="M 40.132538 25.75473 C 40.132538 25.75473 38.00235 26.83548 37.64209 28.636749 C 37.307953 30.438019 38.775055 32.239288 38.884705 32.239288 C 38.889923 32.239288 38.889923 32.239288 38.889923 32.239288 C 39.04657 32.239288 41.051453 31.137634 41.380371 29.357239 C 41.740631 27.587311 40.242188 25.979248 40.132538 25.75473 Z"/>
    <path id="Path-copy-25" fill="#ffffff" fill-rule="evenodd" stroke="none" d="M 40.675537 27.733521 C 40.357056 27.733521 40.095978 27.963226 40.022888 28.276489 C 39.965454 28.662842 40.216064 29.023132 40.576324 29.080536 C 40.62854 29.091003 40.675537 29.096191 40.727753 29.096191 C 41.051453 29.096191 41.333374 28.866455 41.380371 28.5271 C 41.463898 28.16687 41.213287 27.780518 40.826935 27.749176 C 40.774719 27.738708 40.727753 27.733521 40.675537 27.733521 Z"/>
    <path id="Path-copy-24" fill="#ffffff" fill-rule="evenodd" stroke="none" d="M 38.237305 28.793396 C 37.997131 28.793396 37.772614 28.976135 37.725616 29.221497 C 37.64209 29.49823 37.835266 29.774963 38.138092 29.858459 C 38.169403 29.863708 38.200745 29.863708 38.232056 29.863708 C 38.477448 29.863708 38.696747 29.686188 38.748962 29.440796 C 38.775055 29.13797 38.608002 28.861267 38.331268 28.803833 C 38.299957 28.798584 38.268616 28.793396 38.237305 28.793396 Z"/>
    <path id="Path-copy-23" fill="#986e3f" fill-rule="evenodd" stroke="none" d="M 40.257843 25.545898 C 39.615662 25.545898 38.905579 25.639862 38.138092 25.869568 C 34.765289 26.866821 33.292938 30.479797 33.89859 30.479797 C 34.044769 30.479797 34.326721 30.25528 34.733948 29.717529 C 35.574554 28.615845 37.365387 27.070435 39.526886 27.070435 C 40.571106 27.070435 41.698853 27.425476 42.847504 28.360046 L 44.789734 27.420227 C 44.789734 27.420227 43.155548 25.545898 40.257843 25.545898 Z"/>
    <path id="Path-copy-22" fill="#986e3f" fill-rule="evenodd" stroke="none" d="M 42.596893 30.297058 C 41.719727 31.278625 40.252625 31.544891 38.910797 31.544891 C 37.297485 31.544891 35.866943 31.158508 35.866943 31.158508 C 35.866943 31.158508 35.778168 31.127197 35.69986 31.127197 C 35.62677 31.127197 35.564117 31.15332 35.564117 31.242065 C 35.532776 31.518799 35.866943 31.628418 35.866943 31.628418 C 37.266174 32.213196 38.571442 32.422028 39.720062 32.422028 C 42.549896 32.422028 44.429474 31.158508 44.429474 31.158508 L 42.596893 30.297058 Z"/>
    <path id="Path-copy-21" fill="#ced49b" fill-rule="evenodd" stroke="none" d="M 23.289398 25.749512 C 23.080536 25.749512 22.866486 25.770386 22.652405 25.812134 C 20.851135 26.11499 19.660736 27.832703 20.020996 29.633972 C 20.313385 31.215942 21.702179 32.333252 23.237183 32.333252 C 23.446014 32.333252 23.660095 32.312378 23.874146 32.265381 C 25.644073 31.936462 26.834473 30.187408 26.505554 28.443573 C 26.187073 26.861572 24.819153 25.749512 23.289398 25.749512 Z"/>
    <path id="Path-copy-20" fill="#0d0c0b" fill-rule="evenodd" stroke="none" d="M 22.626312 25.75473 C 22.542786 25.979248 21.049561 27.587311 21.378479 29.357239 C 21.707397 31.137634 23.71228 32.239288 23.868927 32.239288 C 23.868927 32.239288 23.868927 32.239288 23.874146 32.239288 C 23.957672 32.239288 25.450897 30.438019 25.11676 28.636749 C 24.7565 26.83548 22.626312 25.75473 22.626312 25.75473 Z"/>
    <path id="Path-copy-19" fill="#ffffff" fill-rule="evenodd" stroke="none" d="M 22.109436 27.733521 C 22.062439 27.733521 22.010223 27.738708 21.963226 27.749176 C 21.571655 27.780518 21.326263 28.16687 21.404572 28.5271 C 21.456787 28.866455 21.733521 29.096191 22.062439 29.096191 C 22.109436 29.096191 22.161621 29.091003 22.208618 29.080536 C 22.568878 29.023132 22.819489 28.662842 22.762054 28.276489 C 22.694183 27.963226 22.433136 27.733521 22.109436 27.733521 Z"/>
    <path id="Path-copy-18" fill="#ffffff" fill-rule="evenodd" stroke="none" d="M 24.547668 28.793396 C 24.516327 28.793396 24.485016 28.798584 24.453674 28.803833 C 24.176971 28.861267 23.957672 29.13797 24.041229 29.440796 C 24.088196 29.686188 24.312714 29.863708 24.552887 29.863708 C 24.584198 29.863708 24.61554 29.863708 24.646851 29.858459 C 24.923584 29.774963 25.148071 29.49823 25.064545 29.221497 C 25.012329 28.976135 24.79306 28.793396 24.547668 28.793396 Z"/>
    <path id="Path-copy-17" fill="#986e3f" fill-rule="evenodd" stroke="none" d="M 22.5271 25.545898 C 19.629425 25.545898 18.000458 27.420227 18.000458 27.420227 L 19.937469 28.360046 C 21.091309 27.425476 22.219055 27.070435 23.258057 27.070435 C 25.424805 27.070435 27.215637 28.615845 28.056213 29.717529 C 28.46347 30.25528 28.740173 30.479797 28.891602 30.479797 C 29.492004 30.479797 28.019684 26.866821 24.646851 25.869568 C 23.879364 25.639862 23.17453 25.545898 22.5271 25.545898 Z"/>
    <path id="Path-copy-16" fill="#986e3f" fill-rule="evenodd" stroke="none" d="M 20.18808 30.297058 L 18.360687 31.158508 C 18.360687 31.158508 20.240295 32.422028 23.070099 32.422028 C 24.218719 32.422028 25.518768 32.213196 26.91803 31.628418 C 26.91803 31.628418 27.252167 31.518799 27.226074 31.242065 C 27.226074 31.15332 27.158203 31.127197 27.085114 31.127197 C 27.006775 31.127197 26.91803 31.158508 26.91803 31.158508 C 26.91803 31.158508 25.487457 31.544891 23.874146 31.544891 C 22.532318 31.544891 21.065216 31.278625 20.18808 30.297058 Z"/>
    <path id="Path-copy-15" fill="#f8e7c2" fill-rule="evenodd" stroke="none" d="M 35.287384 34.870697 C 32.958801 34.870697 31.100098 35.314514 31.100098 37.643066 C 31.100098 39.966461 33.292938 42.874573 35.59021 42.874573 C 37.918793 42.874573 39.469452 41.381348 39.469452 39.052795 C 39.469452 36.755493 37.610779 34.870697 35.287384 34.870697 Z"/>
    <path id="Path-copy-14" fill="#f8e7c2" fill-rule="evenodd" stroke="none" d="M 27.5289 34.870697 C 25.200287 34.870697 23.346802 36.755493 23.346802 39.052795 C 23.346802 41.381348 24.897461 42.874573 27.226074 42.874573 C 29.523346 42.874573 31.710968 39.966461 31.710968 37.643066 C 31.710968 35.314514 29.857483 34.870697 27.5289 34.870697 Z"/>
    <path id="Path-copy-13" fill="#986e3f" fill-rule="evenodd" stroke="none" d="M 29.58078 33.789948 C 28.60965 33.789948 27.77951 34.870697 28.60965 35.314514 C 29.079559 35.565125 30.102875 35.533783 30.269958 36.202087 C 30.578003 37.476013 31.131409 37.752747 31.38205 37.752747 C 31.601318 37.752747 32.180847 37.476013 32.488892 36.202087 C 32.655975 35.50769 33.653198 35.565125 34.1492 35.314514 C 35.010681 34.870697 34.175293 33.789948 33.209412 33.789948 Z"/>
    <path id="Path-copy-12" fill="#986e3f" fill-rule="evenodd" stroke="none" d="M 27.88913 37.502136 C 27.638519 37.502136 27.393127 37.721405 27.393127 37.9198 C 27.393127 38.165192 27.586334 38.332275 27.88913 38.332275 C 28.165863 38.332275 28.359039 38.165192 28.359039 37.9198 C 28.359039 37.669189 28.165863 37.502136 27.88913 37.502136 Z"/>
    <path id="Path-copy-11" fill="#986e3f" fill-rule="evenodd" stroke="none" d="M 26.395905 39.277283 C 26.113983 39.277283 25.894684 39.439148 25.894684 39.689758 C 25.894684 39.940369 26.113983 40.107422 26.395905 40.107422 C 26.672638 40.107422 26.865814 39.940369 26.865814 39.689758 C 26.865814 39.439148 26.672638 39.277283 26.395905 39.277283 Z"/>
    <path id="Path-copy-10" fill="#986e3f" fill-rule="evenodd" stroke="none" d="M 25.148071 37.502136 C 24.871368 37.502136 24.646851 37.721405 24.646851 37.9198 C 24.646851 38.165192 24.871368 38.332275 25.148071 38.332275 C 25.424805 38.332275 25.617981 38.165192 25.617981 37.9198 C 25.617981 37.669189 25.424805 37.502136 25.148071 37.502136 Z"/>
    <path id="Path-copy-9" fill="#ffffff" fill-rule="evenodd" stroke="none" d="M 9.088104 33.534119 C 6.514099 33.534119 3.966217 33.737732 1.517548 34.124084 C 1.360901 34.150208 1.402679 34.400818 1.574982 34.400818 C 1.5802 34.400818 1.590637 34.400818 1.601074 34.400818 C 4.02887 34.019653 6.555878 33.821289 9.108978 33.821289 C 15.536102 33.821289 22.119873 35.100433 27.695953 38.055542 C 27.716858 38.071228 27.737732 38.076416 27.758606 38.076416 C 27.868256 38.076416 27.951782 37.898926 27.831696 37.804932 C 22.23996 34.834167 15.583099 33.534119 9.088104 33.534119 Z"/>
    <path id="Path-copy-8" fill="#ffffff" fill-rule="evenodd" stroke="none" d="M 16.857025 36.593658 C 11.646423 36.593658 6.200836 37.731842 1.658508 38.749939 C 1.496674 38.776062 1.564545 39.026672 1.715942 39.026672 C 1.721161 39.026672 1.731598 39.026672 1.736847 39.026672 C 6.263489 38.008545 11.672516 36.870361 16.84137 36.870361 C 19.712952 36.870361 22.506226 37.220184 25.038452 38.139099 C 25.054108 38.144287 25.069763 38.149536 25.0802 38.149536 C 25.215973 38.149536 25.268158 37.935486 25.11676 37.862366 C 22.568878 36.943481 19.749512 36.593658 16.857025 36.593658 Z"/>
    <path id="Path-copy-7" fill="#ffffff" fill-rule="evenodd" stroke="none" d="M 24.573761 39.512207 C 17.410461 39.512207 10.053986 42.373352 3.981903 45.840149 C 3.867035 45.934143 3.945343 46.116882 4.049774 46.116882 C 4.070648 46.116882 4.096741 46.106445 4.122864 46.090759 C 10.11142 42.644867 17.467896 39.78894 24.584198 39.78894 C 25.200287 39.78894 25.811157 39.815063 26.422028 39.856812 C 26.589111 39.856812 26.589111 39.580109 26.422028 39.580109 C 25.805939 39.533112 25.18985 39.512207 24.573761 39.512207 Z"/>
    <path id="Path-copy-6" fill="#986e3f" fill-rule="evenodd" stroke="none" d="M 35.036774 37.502136 C 34.760071 37.502136 34.566895 37.669189 34.566895 37.9198 C 34.566895 38.165192 34.760071 38.332275 35.036774 38.332275 C 35.287384 38.332275 35.532776 38.165192 35.532776 37.9198 C 35.532776 37.721405 35.287384 37.502136 35.036774 37.502136 Z"/>
    <path id="Path-copy-5" fill="#986e3f" fill-rule="evenodd" stroke="none" d="M 36.529999 39.277283 C 36.284607 39.277283 36.06012 39.439148 36.06012 39.689758 C 36.06012 39.940369 36.253296 40.107422 36.529999 40.107422 C 36.806732 40.107422 37.031219 39.940369 37.031219 39.689758 C 37.031219 39.439148 36.806732 39.277283 36.529999 39.277283 Z"/>
    <path id="Path-copy-4" fill="#986e3f" fill-rule="evenodd" stroke="none" d="M 37.803955 37.502136 C 37.527222 37.502136 37.334045 37.669189 37.334045 37.9198 C 37.334045 38.165192 37.527222 38.332275 37.803955 38.332275 C 38.085876 38.332275 38.305176 38.165192 38.305176 37.9198 C 38.305176 37.721405 38.054565 37.502136 37.803955 37.502136 Z"/>
    <path id="Path-copy-3" fill="#ffffff" fill-rule="evenodd" stroke="none" d="M 53.863922 33.534119 C 47.368927 33.534119 40.712067 34.834167 35.120331 37.804932 C 34.97934 37.898926 35.057678 38.076416 35.182983 38.076416 C 35.209076 38.076416 35.235168 38.071228 35.256073 38.055542 C 40.826935 35.100433 47.415924 33.810822 53.843048 33.810822 C 56.396149 33.810822 58.923157 34.014465 61.350952 34.400818 C 61.361389 34.400818 61.371826 34.400818 61.377045 34.400818 C 61.549347 34.400818 61.596344 34.150208 61.434479 34.124084 C 58.991028 33.737732 56.437927 33.534119 53.863922 33.534119 Z"/>
    <path id="Path-copy-2" fill="#ffffff" fill-rule="evenodd" stroke="none" d="M 46.068878 36.593658 C 43.176422 36.593658 40.357056 36.943481 37.803955 37.862366 C 37.657745 37.935486 37.730835 38.149536 37.850922 38.149536 C 37.861389 38.149536 37.877045 38.144287 37.887482 38.139099 C 40.419708 37.220184 43.212952 36.870361 46.084564 36.870361 C 51.253418 36.870361 56.662415 38.008545 61.189087 39.026672 C 61.194305 39.026672 61.199524 39.026672 61.209961 39.026672 C 61.361389 39.026672 61.42926 38.776062 61.267395 38.749939 C 56.725067 37.731842 51.27951 36.593658 46.068878 36.593658 Z"/>
    <path id="Path-copy" fill="#ffffff" fill-rule="evenodd" stroke="none" d="M 38.383484 39.512207 C 37.762177 39.512207 37.146088 39.533112 36.529999 39.580109 C 36.336823 39.580109 36.336823 39.856812 36.529999 39.856812 C 37.146088 39.815063 37.756958 39.78894 38.373047 39.78894 C 45.510223 39.78894 52.840607 42.644867 58.834381 46.090759 C 58.855286 46.106445 58.881378 46.116882 58.902252 46.116882 C 59.011902 46.116882 59.084991 45.934143 58.970123 45.840149 C 52.924133 42.373352 45.546783 39.512207 38.383484 39.512207 Z"/>
</svg>
