<?xml version="1.0" encoding="UTF-8"?>
<!-- Generated by Pixelmator Pro 3.4.1 -->
<svg width="108" height="92" viewBox="0 0 108 92" xmlns="http://www.w3.org/2000/svg">
    <path id="Path-copy-35" fill="#846645" fill-rule="evenodd" stroke="none" d="M 17.065552 1.937805 C 16.799133 1.937805 16.542297 1.975891 16.275879 2.04248 C 15.467163 2.242279 14.763062 2.794128 14.201721 3.450623 C 11.937256 6.029022 11.984863 9.863342 12.184631 13.345642 C 12.441528 17.636627 12.641357 21.927643 12.888733 26.218658 C 12.993408 28.435516 13.14563 30.614319 13.84967 32.726532 C 14.61084 34.905334 16.018982 36.922394 16.123657 39.291504 C 16.171204 41.213409 15.162659 43.078247 14.411011 44.895508 C 12.441528 49.947662 12.38446 55.494568 12.641357 60.851196 C 12.641357 61.15564 12.688904 61.555267 12.688904 61.859741 C 14.201721 61.355469 15.771606 60.851196 16.675476 59.538208 C 17.893311 57.768524 17.284424 55.342346 17.988464 53.325287 C 18.492737 51.917145 19.710571 50.756378 21.02356 49.995239 C 22.336548 49.23407 23.849365 48.786896 25.314575 48.434875 L 25.314575 48.434875 C 24.049133 49.034271 21.118713 52.212097 20.566895 53.477509 C 20.214844 54.286255 20.214844 55.294769 20.005554 56.20816 C 19.55835 58.529663 17.893311 60.546753 15.666931 61.355469 C 14.705994 61.755066 13.697449 61.907288 12.688904 62.107117 C 12.736511 63.629395 12.945801 65.085144 13.240784 66.550354 C 14.506165 72.354156 18.597412 77.206512 23.497314 80.688782 C 28.340149 84.123505 33.944153 86.292786 39.491089 88.357422 C 39.491089 88.357422 44.771606 90.384003 52.830322 90.384003 C 56.864441 90.384003 61.59314 89.87973 66.702393 88.357422 C 72.353943 86.644836 77.862793 84.123505 82.753235 80.688782 C 87.605591 77.206512 91.639709 72.354156 92.952698 66.550354 C 93.257141 65.085144 93.409424 63.629395 93.514038 62.164185 C 92.448425 61.907288 91.392334 61.755066 90.383789 61.355469 C 88.414307 60.594299 86.6922 58.577271 86.187927 56.255737 C 86.035706 55.294769 86.035706 54.333801 85.636108 53.525085 C 85.08429 52.269165 82.153809 49.138916 80.888428 48.482422 L 80.888428 48.482422 C 82.353638 48.939117 83.866394 49.291138 85.179382 50.042786 C 86.539978 50.803955 87.700745 51.964722 88.205017 53.382385 C 88.918579 55.447021 88.357239 57.816101 89.575073 59.585785 C 90.478943 60.898773 92.143982 61.403015 93.713867 62.011963 C 93.713867 61.602844 93.761414 61.250793 93.761414 60.898773 C 94.018311 55.551636 93.961243 49.995239 91.99176 44.943054 C 91.335266 43.125793 90.326721 41.308533 90.326721 39.348572 C 90.383789 37.017517 91.839539 35.000488 92.600647 32.78363 C 93.361816 30.709473 93.45697 28.492615 93.514038 26.266235 C 93.761414 21.97522 93.961243 17.684204 94.21814 13.393188 C 94.417908 9.910889 94.465515 6.076599 92.20105 3.498169 C 91.639709 2.841675 90.935669 2.289856 90.126892 2.090027 C 89.870056 2.023438 89.613159 1.994904 89.356262 1.994904 C 87.615112 1.994904 85.950073 3.393524 84.675171 4.716034 C 79.832275 9.606445 74.228271 14.458801 69.785034 19.853516 C 69.785034 19.853516 65.494019 19.254089 61.155457 18.997192 C 60.13739 21.166504 60.042297 23.697327 60.851013 25.961761 C 61.402832 27.531647 62.411377 28.996887 62.411377 30.614319 C 62.411377 32.479156 61.355286 33.991943 60.441895 35.609406 C 58.729309 38.692078 58.025208 42.326599 58.272583 45.75177 C 57.815918 45.599548 57.768311 45.000153 57.768311 44.49588 C 57.768311 42.726196 57.673157 40.956512 57.673157 39.19635 C 57.673157 37.778687 57.673157 36.313477 58.072815 35.000488 C 58.52948 33.535248 59.385803 32.127136 59.43335 30.614319 C 59.585571 28.188141 57.673157 25.961761 57.815918 23.497528 C 57.920532 21.670746 59.081299 20.262634 60.441895 19.101868 C 60.13739 19.101868 59.842468 18.997192 59.538025 18.997192 C 58.025208 18.949646 56.150879 18.902039 54.390686 18.902039 C 54.742737 19.853516 54.990112 20.766876 55.094788 21.775391 C 55.342163 23.744904 55.04718 25.761963 54.029175 27.48407 C 53.58197 28.188141 53.077698 28.73999 52.725647 29.453552 C 51.812256 31.013916 51.859863 32.983398 51.108215 34.600891 C 50.347046 32.983398 50.2995 31.013916 50.546875 29.196655 C 50.803772 27.331848 51.355591 25.562134 51.812256 23.79248 C 51.964539 23.240631 52.11676 22.688782 52.012085 22.127441 C 51.964539 21.623169 51.707642 21.166504 51.460266 20.719299 C 51.108215 20.110382 50.756165 19.501465 50.347046 18.902039 C 48.330017 18.949646 46.912354 18.949646 46.912354 18.949646 L 45.751587 18.949646 C 47.216797 20.157959 48.330017 21.623169 48.482239 23.44043 C 48.577393 25.914185 46.712524 28.083496 46.8172 30.557251 C 46.912354 32.070007 47.825745 33.487671 48.225342 34.905334 C 48.577393 36.313477 48.577393 37.778687 48.577393 39.139252 C 48.577393 40.908936 48.529785 42.678619 48.529785 44.438782 C 48.529785 44.943054 48.482239 45.504395 48.025513 45.704224 C 48.28241 42.174377 47.521301 38.63501 45.808655 35.561829 C 44.942871 33.991943 43.782104 32.374512 43.88678 30.557251 C 43.88678 28.94928 44.895264 27.48407 45.456665 25.914185 C 46.255859 23.640259 46.05603 21.118896 45.047546 18.902039 C 40.756531 19.101868 36.617737 19.758362 36.617737 19.758362 C 32.1745 14.401733 26.618042 9.558868 21.727661 4.611389 C 20.452698 3.29837 18.79718 1.937805 17.065552 1.937805 Z"/>
    <path id="Path-copy-34" fill="#846645" fill-rule="evenodd" stroke="none" d="M 25.048157 48.701263 C 25.095764 48.701263 25.019653 48.777374 24.753235 48.986694 C 23.288025 50.099884 21.527832 51.8125 20.719116 53.525085 C 20.214844 54.638275 20.26239 55.99884 19.9104 57.159607 C 18.949402 59.795105 16.875305 61.012939 14.477661 61.726532 L 14.477661 61.726532 C 16.123657 61.041504 17.417603 60.090027 17.940918 58.120544 C 18.492737 55.99884 18.045532 54.029358 19.501282 52.116943 C 20.566895 50.756378 22.032104 50.195007 23.544922 49.490967 C 23.735168 49.37677 24.905457 48.701263 25.048157 48.701263 Z M 81.687622 48.729797 L 81.687622 48.729797 C 81.706665 48.729797 81.725647 48.729797 81.74469 48.729797 C 82.401184 48.882019 84.874939 50.147461 85.131836 50.252136 C 87.653137 51.707825 88.205017 53.829529 88.566528 56.560181 C 88.614136 57.311829 88.661682 58.120544 88.966187 58.881714 C 89.822449 60.73703 91.611145 61.374512 93.380859 62.040497 L 93.380859 62.040497 C 89.993713 61.136627 87.424805 59.83316 86.454346 56.236694 L 86.454346 56.236694 C 86.444824 56.227173 86.444824 56.217651 86.444824 56.20816 L 86.444824 56.20816 C 86.444824 56.20816 86.444824 56.20816 86.444824 56.20816 C 86.140381 53.981781 85.636108 52.773438 84.170898 51.156006 C 83.514404 50.299683 82.753235 49.538513 81.896912 48.882019 C 81.820801 48.81543 81.754211 48.767883 81.687622 48.729797 Z M 88.747314 2.394501 C 89.508484 2.394501 92.705322 4.26886 93.009766 4.811157 C 93.913635 6.124146 94.170532 8.093658 94.265686 9.606445 C 94.617737 14.506378 93.913635 19.653687 93.656799 24.553619 C 93.514038 27.27475 93.45697 30.110046 92.600647 32.678955 C 91.944153 34.600891 90.678772 36.313477 90.383789 38.330536 C 90.079346 40.204895 90.678772 41.91748 91.392334 43.630066 C 92.400879 46.056244 93.152527 48.529999 93.45697 51.203552 C 93.866089 53.981781 94.113464 57.064453 93.713867 59.842651 C 93.571167 60.917786 93.266663 61.355469 92.75293 61.355469 C 92.324768 61.355469 91.744385 61.050995 90.983215 60.546753 C 89.118408 59.129089 89.223022 57.264252 88.918579 55.247192 C 88.309631 50.851532 84.874939 49.44339 81.040649 48.282623 C 81.021606 48.273132 81.012085 48.273132 80.993042 48.273132 C 80.774231 48.273132 80.650513 48.596619 80.84082 48.729797 C 83.533386 50.451904 85.474365 53.077911 86.045227 56.093994 L 86.045227 56.093994 C 86.007141 56.141541 85.997681 56.217651 86.035706 56.303284 C 86.387756 57.616272 86.949097 58.834137 87.910034 59.842651 C 88.414307 60.394501 89.070801 60.851196 89.670227 61.203247 C 90.536011 61.659912 91.896606 61.659912 92.600647 62.164185 C 94.617737 63.677002 92.353271 68.776733 91.487488 70.641541 C 90.383789 72.963074 88.813904 75.084808 86.949097 77.006714 C 79.270935 84.827576 67.263733 89.31839 56.455322 90.079559 C 55.32312 90.146149 54.171875 90.184204 53.030151 90.184204 C 48.548828 90.184204 44.019958 89.603821 39.795532 88.157623 C 30.404785 84.93222 19.710571 80.136963 15.210266 70.641541 C 14.506165 69.128754 13.954346 67.615967 13.697449 65.950928 C 13.240784 63.477173 13.14563 62.611389 15.514709 61.812134 C 16.827698 61.355469 18.045532 60.594299 18.997009 59.433533 C 20.566895 57.568726 20.214844 55.294769 21.318542 53.230133 C 22.27948 51.508026 24.201416 49.690765 25.76178 48.577576 C 25.990112 48.491943 25.856934 48.158936 25.647583 48.158936 C 25.619019 48.158936 25.590515 48.168457 25.561951 48.177979 C 22.479309 49.034271 18.949402 50.252136 17.940918 53.734406 C 17.741089 54.333801 17.684021 54.990295 17.636414 55.599243 C 17.446167 56.90271 16.361511 61.403015 14.363464 61.403015 C 14.201721 61.403015 14.030457 61.36499 13.84967 61.307892 C 12.441528 60.794128 13.040955 56.151062 13.040955 54.838074 C 13.14563 52.212097 13.450073 49.490967 14.201721 46.969635 C 14.810669 44.695679 16.228271 42.621521 16.523254 40.252441 C 16.732544 38.891876 16.428101 37.578888 15.923828 36.313477 C 14.763062 33.383026 13.697449 31.061493 13.450073 27.883667 C 12.993408 22.936157 12.841187 17.941101 12.641357 12.946014 C 12.489136 10.47226 12.336914 7.34201 13.649902 5.172729 C 14.477661 3.812134 16.342468 2.651398 18.074097 2.651398 C 18.664001 2.651398 19.244385 2.794128 19.758179 3.098572 C 21.16626 3.907288 22.27948 5.31543 23.440247 6.428619 C 27.027161 9.968018 30.766357 13.393188 34.191528 17.132385 C 34.848022 17.788879 36.065918 19.805908 36.92218 20.062805 C 37.074402 20.100891 37.255188 20.119904 37.455017 20.119904 C 38.425476 20.119904 39.824097 19.682251 40.452026 19.558533 C 41.336914 19.463409 42.383484 19.225525 43.3349 19.225525 C 43.905762 19.225525 44.44812 19.311157 44.895264 19.558533 C 46.408081 20.462402 46.208313 23.288208 45.808655 24.858093 C 45.304382 26.979797 43.782104 28.797058 43.934326 31.061493 C 44.039001 32.78363 45.152161 34.191742 45.903809 35.656982 C 47.521301 38.834778 48.225342 42.174377 48.025513 45.704224 C 48.025513 45.856445 48.158752 45.942078 48.291931 45.942078 C 48.339539 45.942078 48.387085 45.932556 48.434631 45.904022 C 49.233887 44.895508 48.986511 43.687134 49.034058 42.374146 C 49.034058 40.252441 49.290955 37.978516 48.938904 35.913879 C 48.434631 32.878754 46.8172 31.270813 47.778137 27.988342 C 48.225342 26.475525 49.034058 25.057892 48.938904 23.44043 C 48.786682 21.97522 48.025513 21.271149 47.473694 20.062805 C 47.083618 19.339722 46.912354 19.244568 46.997986 19.244568 C 47.02655 19.244568 47.102661 19.254089 47.207275 19.254089 C 47.340515 19.254089 47.530762 19.235046 47.778137 19.149414 C 48.016052 19.05426 48.301453 19.006714 48.596436 19.006714 C 49.471741 19.006714 50.480286 19.39679 51.00354 19.805908 C 53.277527 21.927643 50.851318 26.570679 50.603943 28.996887 C 50.347046 30.909271 50.546875 32.631378 51.203369 34.543762 C 51.231934 34.657959 51.298523 34.705536 51.374634 34.705536 C 51.479309 34.705536 51.583923 34.629395 51.612488 34.543762 C 52.069153 33.383026 52.268982 32.279358 52.621033 31.061493 C 53.077698 29.548706 53.781799 28.797058 54.542908 27.48407 C 55.399231 26.01886 55.798828 24.353821 55.751282 22.688782 C 55.751282 22.079895 55.094788 20.005737 55.294556 19.653687 C 55.580017 19.063782 56.569519 18.835449 57.473389 18.835449 C 58.034729 18.835449 58.558044 18.921082 58.881531 19.05426 C 59.243042 19.197021 59.480896 19.225525 59.614136 19.225525 C 59.699768 19.225525 59.747314 19.216034 59.756836 19.216034 L 59.756836 19.216034 C 59.804382 19.216034 59.57605 19.311157 59.281128 20.062805 C 59.081299 20.567078 58.52948 21.166504 58.272583 21.670746 C 57.568542 23.240631 57.815918 24.601196 58.32019 26.114014 C 58.881531 27.988342 59.690247 29.301331 59.338196 31.365967 C 59.081299 32.583801 58.377258 33.639893 58.072815 34.848267 C 57.520935 36.922394 57.673157 39.139252 57.673157 41.260986 C 57.673157 42.773773 57.264038 44.648132 58.32019 45.904022 C 58.348694 45.932556 58.396301 45.942078 58.443848 45.942078 C 58.586548 45.942078 58.748291 45.856445 58.681702 45.704224 C 58.577026 42.878418 58.929077 40.147766 60.042297 37.578888 C 60.793884 35.656982 62.164001 33.944366 62.668274 31.927307 C 63.47699 28.797058 57.673157 20.310181 62.563599 19.301636 C 62.839539 19.244568 63.115417 19.225525 63.4104 19.225525 C 65.113464 19.225525 67.063904 20.043762 68.728943 20.043762 C 69.385437 20.043762 70.003906 19.910583 70.536682 19.558533 C 72.306396 18.445374 73.971436 15.77179 75.484192 14.259003 C 77.301453 12.384644 79.270935 10.624512 81.145264 8.807251 C 82.753235 7.284912 84.170898 5.677002 85.78833 4.259338 C 86.444824 3.602844 87.80542 2.489655 88.718811 2.394501 C 88.718811 2.394501 88.728271 2.394501 88.747314 2.394501 Z M 89.460938 1.728516 C 86.711243 1.728516 84.399231 4.782623 82.753235 6.428619 C 79.270935 9.863342 75.693542 13.145813 72.411011 16.732758 C 71.802124 17.389252 70.641357 19.301636 69.937256 19.558533 C 69.870667 19.587097 69.775513 19.60614 69.670898 19.60614 C 69.309326 19.60614 68.795532 19.444366 68.519653 19.406311 C 66.150513 19.149414 63.829041 18.902039 61.402832 18.749817 C 61.307678 18.749817 61.203064 18.797394 61.155457 18.949646 C 60.546509 20.567078 60.13739 22.232117 60.346741 24.049377 C 60.651184 26.875153 63.067871 29.348907 62.106934 32.326904 C 61.555054 34.144165 60.289673 35.656982 59.585571 37.426636 C 58.776855 39.491272 58.52948 41.460785 58.272583 43.630066 C 58.272583 43.639587 58.272583 43.649109 58.272583 43.649109 L 58.272583 43.649109 C 58.272583 43.58252 58.272583 43.506378 58.272583 43.430267 C 58.272583 42.174377 58.272583 40.956512 58.177429 39.700623 C 58.177429 36.969971 58.681702 34.905334 59.538025 32.374512 C 60.089844 30.661896 59.937622 29.501129 59.43335 27.779022 C 58.32019 24.296753 57.920532 21.822998 60.89856 19.149414 C 61.098389 18.997192 60.89856 18.749817 60.698792 18.749817 C 58.681702 18.645142 56.759766 18.645142 54.742737 18.550018 C 54.590515 18.550018 54.48584 18.692749 54.48584 18.902039 C 55.59906 22.584137 55.142334 25.314758 53.229919 28.587769 C 52.725647 29.396484 52.364136 30.110046 52.11676 31.013916 C 51.97406 31.537231 51.831299 33.459137 51.346069 33.459137 C 51.317566 33.459137 51.289001 33.449646 51.260437 33.440125 C 50.09967 32.878754 51.308044 27.836121 51.460266 27.074951 C 51.764709 25.761963 52.468811 24.353821 52.516357 23.040833 C 52.573425 21.318726 51.707642 20.215027 50.851318 18.797394 C 50.803772 18.749817 50.756165 18.692749 50.699097 18.692749 C 49.091187 18.692749 47.568848 18.749817 46.008484 18.797394 C 45.808655 18.797394 45.704041 19.05426 45.808655 19.206512 C 48.938904 21.97522 48.434631 24.448975 47.321472 27.883667 C 46.8172 29.596283 46.712524 30.814117 47.273926 32.526733 C 48.025513 34.848267 48.577393 36.817749 48.577393 39.348572 C 48.577393 40.709137 48.577393 42.174377 48.529785 43.534912 C 48.529785 43.620544 48.539307 43.734741 48.539307 43.858398 L 48.539307 43.858398 C 48.539307 43.820374 48.539307 43.772766 48.529785 43.734741 C 48.330017 41.765259 48.07312 39.900391 47.416626 37.978516 C 46.712524 36.066101 45.247314 34.343994 44.695496 32.374512 C 43.734558 29.396484 46.160706 26.979797 46.465149 24.096924 C 46.664978 22.327271 46.312927 20.662231 45.656433 18.997192 C 45.551758 18.949646 45.504211 18.797394 45.399536 18.797394 C 43.277832 18.949646 41.165649 19.149414 39.091492 19.406311 C 38.787048 19.444366 37.930725 19.672729 37.435974 19.672729 C 37.350342 19.672729 37.283752 19.672729 37.226685 19.653687 C 36.465515 19.453888 35.856567 18.293121 35.304749 17.684204 C 31.870056 13.897461 28.140381 10.47226 24.553406 6.932892 C 22.755188 5.229797 20.290955 1.890259 17.455688 1.890259 C 17.179749 1.890259 16.903809 1.918762 16.62793 1.985382 C 14.106567 2.546753 12.888733 5.420105 12.441528 7.694031 C 11.68042 11.832825 12.441528 16.371216 12.641357 20.51001 C 12.888733 24.953247 12.641357 29.653381 14.353943 33.839722 C 15.514709 36.722595 16.780151 38.939453 15.666931 42.174377 C 15.010437 44.14386 14.106567 45.961121 13.602295 47.978149 C 12.441528 52.516541 12.593811 57.311829 12.841187 61.954895 C 12.841187 62.021484 12.860168 62.078552 12.898254 62.116638 L 12.898254 62.116638 C 12.812622 62.145142 12.736511 62.240295 12.736511 62.364014 C 13.497681 72.810852 20.26239 79.927643 29.348694 84.523102 C 35.104919 87.405975 41.213196 89.822662 47.673523 90.479156 C 49.357544 90.678955 51.108215 90.774109 52.915955 90.774109 C 70.470093 90.774109 92.638733 81.411896 94.018311 62.41156 C 94.018311 62.316406 93.961243 62.211761 93.866089 62.164185 C 93.866089 62.164185 93.866089 62.164185 93.866089 62.164185 L 93.866089 62.164185 C 93.951721 62.126129 94.018311 62.040497 94.018311 61.907288 C 94.21814 57.568726 94.417908 53.230133 93.514038 48.939117 C 93.009766 46.465393 91.944153 44.391235 91.192566 42.022125 C 90.1745 38.891876 91.335266 36.61792 92.496033 33.6875 C 94.113464 29.853149 93.913635 25.562134 94.170532 21.528015 C 94.417908 17.132385 95.179077 12.384644 94.522583 8.046082 C 94.170532 5.619904 92.952698 2.489655 90.326721 1.83316 C 90.031799 1.766541 89.746338 1.728516 89.460938 1.728516 Z"/>
    <path id="Path-copy-33" fill="#51412e" fill-rule="evenodd" stroke="none" d="M 25.561951 48.482422 C 24.096741 48.939117 22.583923 49.291138 21.270935 50.042786 C 19.957947 50.803955 18.749634 51.964722 18.245361 53.382385 C 17.531799 55.447021 18.140686 57.816101 16.932373 59.585785 C 16.018982 60.851196 14.458618 61.355469 12.945801 61.907288 L 12.945801 62.211761 C 13.954346 61.954895 14.962891 61.859741 15.923828 61.50769 C 18.09314 60.594299 19.805725 58.577271 20.26239 56.255737 C 20.462219 55.294769 20.462219 54.333801 20.81427 53.525085 C 21.423157 52.269165 24.296509 49.138916 25.561951 48.482422 Z"/>
    <path id="Path-copy-32" fill="#51412e" fill-rule="evenodd" stroke="none" d="M 24.325073 49.043762 C 24.058655 49.281647 23.811279 49.557556 23.544922 49.79541 C 21.527832 51.8125 20.519287 53.27771 20.062622 56.103516 C 20.053101 56.141541 20.053101 56.179626 20.062622 56.20816 L 20.062622 56.20816 C 19.34906 58.881714 17.531799 60.594299 14.915283 61.50769 C 14.249268 61.71701 13.963867 61.802643 13.91626 61.802643 C 13.783081 61.802643 15.524231 61.136627 15.971436 60.794128 C 18.549805 58.976868 17.531799 56.055908 18.549805 53.477509 C 19.653503 50.708801 21.86084 50.052307 24.325073 49.043762 Z M 25.609558 48.225525 C 25.600037 48.225525 25.580994 48.225525 25.561951 48.225525 C 22.983521 48.986694 20.062622 49.79541 18.549805 52.269165 C 17.940918 53.230133 17.741089 54.238647 17.636414 55.342346 C 17.484192 56.712402 17.484192 57.873169 16.732544 59.033936 C 15.771606 60.594299 14.506165 61.050995 12.841187 61.602844 C 12.736511 61.659912 12.641357 61.755066 12.641357 61.859741 L 12.641357 62.164185 C 12.641357 62.364014 12.736511 62.41156 12.945801 62.41156 C 16.713562 61.612366 19.482239 60.156647 20.500305 56.360382 L 20.500305 56.360382 C 20.509766 56.34137 20.509766 56.322327 20.519287 56.303284 L 20.519287 56.303284 C 20.519287 56.303284 20.519287 56.303284 20.519287 56.303284 C 20.519287 56.303284 20.519287 56.303284 20.519287 56.303284 L 20.519287 56.303284 C 21.02356 53.173035 22.993042 50.394836 25.76178 48.682251 C 25.999634 48.53952 25.837891 48.225525 25.609558 48.225525 Z"/>
    <path id="Path-copy-31" fill="#51412e" fill-rule="evenodd" stroke="none" d="M 80.993042 48.482422 C 82.248962 49.138916 85.131836 52.269165 85.683655 53.525085 C 86.092773 54.333801 86.092773 55.342346 86.292603 56.255737 C 86.6922 58.577271 88.414307 60.594299 90.631165 61.403015 C 91.639709 61.812134 92.705322 62.011963 93.761414 62.259338 L 93.761414 61.907288 C 92.143982 61.355469 90.478943 60.898773 89.622681 59.585785 C 88.414307 57.816101 88.966187 55.447021 88.309631 53.429932 C 87.80542 51.964722 86.597046 50.803955 85.284058 50.042786 C 83.914001 49.291138 82.401184 48.882019 80.993042 48.482422 Z"/>
    <path id="Path-copy-30" fill="#51412e" fill-rule="evenodd" stroke="none" d="M 81.288025 48.672729 C 81.307007 48.672729 81.364136 48.691742 81.497314 48.729797 C 82.30603 48.986694 83.362183 49.490967 84.170898 49.947662 C 87.04425 51.260651 88.062256 53.173035 88.357239 56.255737 C 88.461914 57.568726 88.614136 58.624817 89.318176 59.785583 C 89.365784 59.83316 89.422852 59.852173 89.479919 59.852173 L 89.479919 59.852173 C 90.260132 60.765564 90.964172 61.165161 92.096436 61.659912 C 92.353271 61.774109 92.543579 61.85022 92.667297 61.907288 L 92.667297 61.907288 C 92.534058 61.859741 92.343811 61.802643 92.143982 61.755066 C 91.135437 61.403015 90.126892 61.15564 89.318176 60.594299 C 86.092773 58.377441 86.949097 54.74292 84.779785 51.964722 C 83.914001 50.956177 83.010132 49.890564 82.001587 49.034271 C 81.801758 48.920105 81.230896 48.672729 81.288025 48.672729 Z M 80.945496 48.225525 C 80.717163 48.225525 80.602966 48.53952 80.793274 48.682251 C 82.096741 49.490967 83.267029 50.756378 84.275513 51.964722 C 85.78833 53.781982 85.588562 55.799011 86.444824 57.816101 C 87.852966 60.851196 90.583618 61.812134 93.656799 62.41156 C 93.685303 62.440125 93.713867 62.449646 93.742432 62.449646 C 93.837524 62.449646 93.961243 62.316406 93.961243 62.164185 L 93.961243 61.859741 C 93.961243 61.755066 93.913635 61.659912 93.761414 61.602844 C 92.248657 61.15564 90.888062 60.651398 89.822449 59.48114 C 88.461914 57.064453 89.375305 54.18158 87.700745 51.917145 C 86.140381 49.738342 83.409729 48.939117 80.993042 48.225525 C 80.97406 48.225525 80.955017 48.225525 80.945496 48.225525 Z"/>
    <path id="Path-copy-29" fill="#51412e" fill-rule="evenodd" stroke="none" d="M 45.304382 18.949646 C 46.255859 21.118896 46.465149 23.640259 45.656433 25.866638 C 45.047546 27.48407 44.039001 28.94928 44.039001 30.557251 C 44.039001 32.374512 45.152161 33.887268 46.008484 35.561829 C 47.721069 38.63501 48.482239 42.221924 48.225342 45.704224 C 48.682007 45.504395 48.729614 44.943054 48.729614 44.438782 C 48.729614 42.678619 48.786682 40.908936 48.786682 39.139252 C 48.786682 37.674011 48.786682 36.2659 48.377563 34.905334 C 47.977966 33.487671 47.064575 32.070007 47.017029 30.557251 C 46.864807 28.083496 48.786682 25.866638 48.63446 23.44043 C 48.529785 21.575623 47.369019 20.157959 45.960938 18.949646 Z"/>
    <path id="Path-copy-28" fill="#51412e" fill-rule="evenodd" stroke="none" d="M 46.322449 19.60614 C 46.522278 19.60614 46.883789 19.996216 47.521301 21.023773 C 48.529785 22.688782 48.330017 24.249146 47.93042 26.01886 C 47.473694 27.531647 46.664978 28.94928 46.760132 30.614319 C 46.969421 33.031006 48.434631 35.057556 48.529785 37.578888 C 48.682007 39.595947 48.938904 42.469299 48.482239 44.49588 C 48.577393 43.839386 48.225342 41.213409 47.93042 39.900391 C 47.473694 38.035583 46.664978 36.361023 45.751587 34.648438 C 45.152161 33.383026 44.23877 32.127136 44.286377 30.614319 C 44.286377 29.09201 45.304382 27.427002 45.903809 26.01886 C 45.922852 25.933228 45.894287 25.866638 45.856262 25.809509 L 45.856262 25.809509 C 46.39856 23.973267 46.255859 22.631714 46.160706 20.766876 C 46.103638 20.100891 46.113159 19.60614 46.322449 19.60614 Z M 45.256836 18.692749 C 45.237793 18.692749 45.218811 18.692749 45.199768 18.692749 C 45.047546 18.692749 44.847717 18.844971 44.942871 18.997192 C 45.960938 21.223572 46.05603 23.497528 45.399536 25.819031 C 44.23877 28.492615 43.230286 30.357422 44.438599 33.240295 C 46.312927 37.531311 48.177795 40.80426 47.93042 45.656647 C 47.93042 45.799377 48.063599 45.894501 48.177795 45.894501 C 48.21582 45.894501 48.253906 45.88501 48.28241 45.856445 C 49.595398 44.239014 48.938904 41.108765 48.938904 39.139252 C 48.938904 37.674011 48.938904 36.2659 48.529785 34.848267 C 47.93042 32.583801 46.760132 31.365967 47.321472 28.797058 C 47.825745 26.475525 49.290955 24.506042 48.482239 22.032288 C 48.035034 20.728821 46.798157 18.692749 45.256836 18.692749 Z"/>
    <path id="Path-copy-27" fill="#51412e" fill-rule="evenodd" stroke="none" d="M 50.499268 18.749817 C 50.851318 19.349243 51.203369 19.95816 51.56488 20.614655 C 51.812256 21.023773 52.069153 21.470947 52.11676 21.97522 C 52.211914 22.53656 52.069153 23.135986 51.964539 23.697327 C 51.507813 25.45752 50.955994 27.227173 50.699097 29.044434 C 50.451721 30.861694 50.499268 32.78363 51.260437 34.496216 C 52.012085 32.831177 52.012085 30.96637 52.820801 29.301331 C 53.229919 28.587769 53.734192 28.035889 54.133789 27.331848 C 55.142334 25.714386 55.494385 23.640259 55.247009 21.670746 C 55.094788 20.662231 54.837891 19.710785 54.542908 18.749817 Z"/>
    <path id="Path-copy-26" fill="#51412e" fill-rule="evenodd" stroke="none" d="M 52.421204 18.921082 C 53.268005 18.921082 54.314575 19.311157 54.638062 19.758362 C 55.551453 21.023773 55.142334 24.144501 54.742737 25.514587 C 54.238464 27.027374 53.125305 28.188141 52.468811 29.596283 C 52.069153 30.462097 51.859863 31.365967 51.707642 32.279358 C 51.517334 33.059509 51.355591 33.354492 51.231934 33.354492 C 50.927429 33.354492 50.803772 31.679932 50.803772 30.766541 C 50.803772 27.769501 52.32605 25.076904 52.364136 22.146484 L 52.364136 22.146484 C 52.402161 22.098907 52.411682 22.022766 52.364136 21.927643 C 52.211914 21.42337 51.203369 19.910583 51.260437 19.60614 C 51.336548 19.111389 51.831299 18.921082 52.421204 18.921082 Z M 50.499268 18.597595 C 50.2995 18.597595 50.194824 18.749817 50.2995 18.949646 C 50.908386 19.910583 51.56488 20.919128 51.964539 21.97522 C 51.859863 26.475525 49.443176 29.957825 51.051147 34.543762 C 51.079651 34.66748 51.174805 34.715027 51.269958 34.715027 C 51.374634 34.715027 51.479309 34.657959 51.507813 34.543762 C 52.11676 32.878754 52.268982 31.013916 53.077698 29.453552 C 53.58197 28.435516 54.390686 27.579224 54.837891 26.570679 C 55.95105 24.049377 55.59906 21.271149 54.790283 18.749817 C 54.790283 18.645142 54.638062 18.597595 54.542908 18.597595 Z"/>
    <path id="Path-copy-25" fill="#51412e" fill-rule="evenodd" stroke="none" d="M 60.651184 18.844971 C 59.185974 20.157959 58.025208 21.623169 57.920532 23.345276 C 57.815918 25.819031 59.690247 28.035889 59.585571 30.509644 C 59.538025 32.022461 58.577026 33.383026 58.177429 34.848267 C 57.815918 36.2659 57.815918 37.674011 57.815918 39.091675 C 57.815918 40.861389 57.872986 42.621521 57.872986 44.391235 C 57.872986 44.895508 57.920532 45.456848 58.377258 45.656647 C 58.120361 42.117279 58.881531 38.587402 60.594116 35.504761 C 61.450439 33.887268 62.611145 32.326904 62.516052 30.509644 C 62.516052 28.844635 61.507507 27.427002 60.946167 25.819031 C 60.13739 23.640259 60.346741 21.023773 61.25061 18.902039 C 61.098389 18.902039 60.851013 18.902039 60.651184 18.844971 Z"/>
    <path id="Path-copy-24" fill="#51412e" fill-rule="evenodd" stroke="none" d="M 60.213562 19.60614 C 60.346741 19.60614 60.470398 19.663208 60.594116 19.805908 C 60.594116 19.805908 60.184998 21.84201 60.146912 21.84201 C 60.146912 21.84201 60.13739 21.83252 60.13739 21.822998 L 60.13739 21.822998 C 59.937622 23.697327 60.394287 25.105469 61.003235 26.875153 C 61.659729 28.73999 62.516052 30.2052 61.907104 32.22226 C 61.507507 33.335449 60.851013 34.343994 60.242065 35.352509 C 59.233521 37.274414 58.577026 39.291504 58.225037 41.365631 C 58.120361 42.307556 58.082275 44.353149 58.04425 44.353149 C 58.025208 44.353149 58.006165 43.934509 57.96814 42.830872 C 57.96814 40.204895 57.616089 37.426636 58.32019 34.905334 C 58.833923 33.088074 59.890015 31.565765 59.690247 29.548706 C 59.538025 27.369904 58.215515 25.619263 58.129883 23.411896 L 58.129883 23.411896 C 58.205994 22.783936 59.281128 19.60614 60.213562 19.60614 Z M 61.10791 18.692749 C 59.176453 18.692749 57.958618 21.604156 57.682678 23.259644 L 57.682678 23.259644 C 57.673157 23.278687 57.673157 23.307251 57.673157 23.345276 C 57.673157 23.345276 57.673157 23.345276 57.673157 23.345276 L 57.673157 23.345276 C 57.663635 23.383362 57.663635 23.421387 57.673157 23.449951 L 57.673157 23.449951 C 57.806396 25.371887 58.786377 26.913208 59.128906 28.797058 C 59.690247 31.565765 58.120361 33.335449 57.673157 35.913879 C 57.311646 37.978516 57.568542 40.300018 57.568542 42.374146 C 57.568542 43.687134 57.311646 44.8479 58.177429 45.904022 C 58.215515 45.932556 58.263062 45.942078 58.32019 45.942078 C 58.462891 45.942078 58.615112 45.856445 58.577026 45.704224 C 58.424805 42.526398 58.881531 39.443726 60.289673 36.61792 C 61.050781 35.057556 62.106934 33.639893 62.563599 31.927307 C 62.868042 30.766541 62.668274 29.748505 62.316223 28.540161 C 61.203064 25.010315 59.937622 22.841034 61.450439 18.997192 C 61.555054 18.902039 61.402832 18.692749 61.203064 18.692749 C 61.1745 18.692749 61.136414 18.692749 61.10791 18.692749 Z"/>
    <path id="Path-copy-23" fill="#51412e" fill-rule="evenodd" stroke="none" d="M 33.791931 52.773438 C 32.1745 52.773438 30.861511 54.086426 30.861511 55.703888 L 30.861511 56.607758 C 30.861511 58.22522 32.1745 59.538208 33.791931 59.538208 C 35.352295 59.538208 36.665283 58.272766 36.665283 56.607758 L 36.665283 55.703888 C 36.665283 54.086426 35.352295 52.773438 33.791931 52.773438 Z"/>
    <path id="Path-copy-22" fill="#51412e" fill-rule="evenodd" stroke="none" d="M 72.915283 52.773438 C 71.297852 52.773438 69.984863 54.086426 69.984863 55.703888 L 69.984863 56.607758 C 69.984863 58.22522 71.297852 59.538208 72.915283 59.538208 C 74.532776 59.538208 75.788635 58.272766 75.788635 56.607758 L 75.788635 55.703888 C 75.788635 54.086426 74.475647 52.773438 72.915283 52.773438 Z"/>
    <path id="Path-copy-21" fill="#77593a" fill-rule="evenodd" stroke="none" d="M 17.684021 4.658936 C 17.617432 4.658936 17.550781 4.658936 17.484192 4.658936 C 15.771606 4.868256 14.705994 6.78064 14.458618 8.445679 C 13.954346 11.880402 15.467163 15.210449 16.018982 18.645142 C 16.979919 24.601196 15.162659 31.470642 18.644958 36.418121 C 18.901855 36.817749 19.206299 37.169769 19.653503 37.274414 C 19.682007 37.274414 19.710571 37.274414 19.729614 37.274414 C 20.300476 37.274414 20.785706 36.751129 21.16626 36.2659 C 23.288025 33.335449 25.971069 30.814117 28.996643 28.844635 C 31.213562 27.427002 33.487488 25.819031 34.496033 23.288208 C 35.057373 22.032288 33.183044 21.470947 33.183044 21.470947 C 27.883484 17.684204 25.514404 10.976532 20.871338 6.381042 C 20.005554 5.515259 18.920898 4.658936 17.684021 4.658936 Z"/>
    <path id="Path-copy-20" fill="#77593a" fill-rule="evenodd" stroke="none" d="M 15.467163 6.428619 C 17.236816 6.533264 18.997009 6.533264 20.766663 6.580872 C 21.223389 6.837769 21.680054 7.541809 22.032104 7.998505 C 23.088196 9.254395 24.096741 10.672058 25.057678 12.0802 C 26.475342 14.154358 27.78833 16.276062 29.396301 18.188477 C 30.081299 18.968658 34.13446 21.946655 34.343811 23.202576 L 34.343811 23.202576 C 32.821472 26.37088 29.852966 27.836121 27.131836 29.957825 C 26.11377 30.709473 25.105286 31.565765 24.248962 32.479156 C 23.288025 33.335449 22.079651 35.561829 21.02356 36.113647 C 20.871338 36.313477 20.766663 36.418121 20.566895 36.61792 C 19.805725 36.2659 19.054077 35.913879 18.340515 35.561829 C 17.741089 34.848267 17.436646 33.487671 17.236816 32.583801 C 16.827698 30.861694 16.732544 29.149109 16.675476 27.48407 C 16.62793 24.800995 16.732544 22.184509 16.428101 19.558533 C 15.971436 15.971619 14.201721 12.384644 14.763062 8.702576 C 14.763062 7.89386 15.010437 7.13269 15.467163 6.428619 Z M 17.836243 4.525757 C 17.293884 4.525757 16.732544 4.706512 16.171204 5.115631 C 13.393005 7.085144 14.258789 11.528381 14.915283 14.30658 C 15.514709 17.084778 16.171204 19.710785 16.228271 22.631714 C 16.275879 24.90564 16.171204 27.179626 16.323425 29.501129 C 16.475647 31.470642 17.084595 37.122192 19.605896 37.578888 C 19.691528 37.588409 19.777161 37.5979 19.853271 37.5979 C 20.338562 37.5979 20.585938 37.331512 21.02356 37.074646 C 22.783752 35.761627 24.096741 33.335449 25.818848 31.822662 C 28.892029 29.09201 33.030762 27.48407 34.848022 23.545105 C 34.848022 23.497528 34.838562 23.449951 34.829041 23.402374 L 34.829041 23.402374 C 34.838562 23.383362 34.848022 23.364319 34.848022 23.345276 C 34.952698 22.479492 34.695801 22.431885 34.248657 21.775391 C 33.382813 20.51001 31.213562 19.501465 30.109863 18.245544 C 27.274536 14.963074 25.314575 11.024109 22.479309 7.646484 C 21.328064 6.371521 19.63446 4.525757 17.836243 4.525757 Z"/>
    <path id="Path-copy-19" fill="#77593a" fill-rule="evenodd" stroke="none" d="M 89.023254 4.658936 C 87.795898 4.658936 86.749268 5.515259 85.835938 6.381042 C 81.240417 10.976532 78.823792 17.684204 73.524231 21.470947 C 73.524231 21.470947 71.697449 22.032288 72.211243 23.288208 C 73.219788 25.819031 75.484192 27.427002 77.758179 28.844635 C 80.793274 30.814117 83.409729 33.335449 85.588562 36.2659 C 85.921509 36.751129 86.397278 37.274414 87.015686 37.274414 C 87.04425 37.274414 87.072815 37.274414 87.101318 37.274414 C 87.548523 37.169769 87.852966 36.817749 88.109863 36.418121 C 91.592163 31.470642 89.727295 24.601196 90.678772 18.645142 C 91.240112 15.210449 92.75293 11.880402 92.248657 8.445679 C 91.99176 6.78064 90.935669 4.868256 89.223022 4.658936 C 89.156433 4.658936 89.080322 4.658936 89.023254 4.658936 Z"/>
    <path id="Path-copy-18" fill="#77593a" fill-rule="evenodd" stroke="none" d="M 89.251587 5.657959 C 90.402832 5.657959 91.401855 6.228821 91.839539 7.741638 C 92.905151 11.575928 90.73584 15.667145 90.326721 19.453888 C 89.97467 21.927643 90.126892 24.401398 90.079346 26.827576 C 90.079346 28.540161 89.927124 30.309875 89.622681 32.022461 C 89.261108 33.459137 88.309631 36.40863 86.578064 36.40863 C 86.359192 36.40863 86.130859 36.361023 85.883484 36.2659 C 84.932007 35.809204 83.666626 33.535248 82.85791 32.726532 C 81.849365 31.718018 80.736145 30.766541 79.575439 29.853149 C 76.920898 27.836121 73.971436 26.389893 72.420532 23.37384 L 72.420532 23.37384 C 72.449097 23.335785 72.458618 23.297729 72.458618 23.240631 C 72.306396 22.032288 76.350037 19.206512 77.054077 18.445374 C 78.719116 16.580536 80.032104 14.401733 81.392639 12.337097 C 82.353638 10.919434 83.314575 9.463745 84.370667 8.198303 C 85.464844 6.92337 87.52948 5.657959 89.251587 5.657959 Z M 88.966187 4.440125 C 87.139404 4.440125 85.493408 6.228821 84.370667 7.541809 C 81.544922 10.871887 79.575439 14.858398 76.749634 18.1409 C 75.588867 19.453888 73.971436 20.310181 72.763062 21.528015 C 72.154175 22.184509 71.906799 22.279663 71.954346 23.240631 C 71.963867 23.278687 71.973389 23.307251 71.98291 23.335785 L 71.98291 23.335785 C 71.98291 23.37384 71.992432 23.402374 72.001892 23.44043 C 73.819153 27.331848 77.957947 28.996887 81.040649 31.718018 C 82.810303 33.240295 84.066223 35.609406 85.835938 36.922394 C 86.20697 37.207825 86.48291 37.464722 86.90155 37.464722 C 86.987183 37.464722 87.091797 37.4552 87.196472 37.426636 C 89.822449 36.969971 90.383789 31.31839 90.478943 29.348907 C 90.678772 27.074951 90.583618 24.800995 90.631165 22.479492 C 90.678772 19.558533 91.335266 16.980133 91.944153 14.154358 C 92.600647 11.376129 93.45697 6.932892 90.678772 5.020508 C 90.098389 4.611389 89.527527 4.440125 88.966187 4.440125 Z"/>
    <path id="Path-copy-17" fill="#51412e" fill-rule="evenodd" stroke="none" d="M 40.708923 37.122192 C 41.365417 38.692078 39.947815 40.404694 39.700439 42.069702 C 39.443542 43.687164 40.356934 45.39978 41.717468 46.160919 C 41.165649 45.247559 41.213196 44.086792 41.460571 42.983093 C 41.717468 41.91748 42.221741 40.908936 42.269287 39.852844 C 42.326416 38.787231 41.917297 37.531311 40.908752 37.122192 Z"/>
    <path id="Path-copy-16" fill="#51412e" fill-rule="evenodd" stroke="none" d="M 41.108521 37.569366 L 41.108521 37.569366 C 43.087524 39.034607 41.498657 41.651062 41.213196 43.487366 C 41.070496 44.172394 41.051453 44.819366 41.232239 45.437805 L 41.232239 45.437805 C 39.824097 44.14386 39.795532 42.345642 40.509155 40.404663 C 40.889709 39.377136 41.203674 38.56839 41.108521 37.569366 Z M 40.766052 36.874817 C 40.604309 36.874817 40.442566 36.989014 40.509155 37.169769 C 41.060974 39.291504 39.243713 41.061157 39.491089 43.125793 C 39.643311 44.49588 40.509155 45.656647 41.669922 46.408264 C 41.688904 46.427307 41.717468 46.436829 41.746033 46.436829 C 41.888733 46.436829 42.050476 46.23703 41.964844 46.103821 C 41.945801 46.065765 41.926758 46.018188 41.907776 45.970642 L 41.907776 45.970642 L 41.917297 45.961121 C 41.907776 45.951599 41.898254 45.942078 41.888733 45.942078 L 41.888733 45.942078 C 40.718445 43.154358 44.524231 38.901398 41.060974 37.017517 C 41.041931 37.008026 41.013428 36.998505 40.994385 36.998505 L 40.994385 36.998505 C 40.946777 36.912872 40.861145 36.874817 40.766052 36.874817 Z"/>
    <path id="Path-copy-15" fill="#51412e" fill-rule="evenodd" stroke="none" d="M 65.741394 37.122192 C 64.73291 37.531311 64.333313 38.787231 64.380859 39.852844 C 64.428406 40.908936 64.9422 41.91748 65.189575 42.983093 C 65.446472 44.086761 65.494019 45.247528 64.9422 46.160919 C 66.350342 45.39978 67.206665 43.687134 66.95929 42.069702 C 66.702393 40.404663 65.341797 38.692078 65.950745 37.122192 Z"/>
    <path id="Path-copy-14" fill="#51412e" fill-rule="evenodd" stroke="none" d="M 65.655762 37.607422 C 65.560669 38.615967 65.903137 39.462769 66.245667 40.452271 C 66.921204 42.383667 66.95929 44.229492 65.513062 45.54248 L 65.513062 45.54248 C 65.674805 44.91452 65.684326 44.28656 65.541626 43.58252 C 65.256165 41.698639 63.61969 39.025085 65.655762 37.607422 Z M 65.960266 36.89386 C 65.884155 36.89386 65.808044 36.941406 65.760437 37.03656 L 65.760437 37.03656 C 65.741394 37.046082 65.712891 37.055603 65.693848 37.074646 C 62.211548 39.044128 66.19812 43.430267 64.789978 46.160889 C 64.704346 46.313141 64.847046 46.503418 65.008789 46.503418 C 65.046875 46.503418 65.094421 46.493896 65.142029 46.465393 C 66.302795 45.704224 67.159058 44.591034 67.263733 43.182892 C 67.511108 41.108765 65.693848 39.396149 66.245667 37.274414 C 66.245667 37.027039 66.102966 36.89386 65.960266 36.89386 Z"/>
    <path id="Path-copy-13" fill="#45301d" fill-rule="evenodd" stroke="none" d="M 53.382141 73.667145 C 53.325073 75.436829 53.277527 77.254089 52.364136 78.766876 C 51.412659 80.431915 49.747681 81.44043 47.977966 82.096924 C 46.008484 82.962738 43.839172 83.46701 41.765015 83.514587 C 42.421509 85.331848 43.534729 86.844635 44.800171 88.005402 C 47.254883 90.231781 50.251892 91.459137 53.268005 91.459137 C 54.143311 91.459137 55.028137 91.354492 55.903503 91.135651 C 59.585571 90.279358 62.915649 87.405975 64.989807 83.514587 C 62.915649 83.514587 60.746338 82.962738 58.833923 82.096924 C 57.06427 81.345306 55.342163 80.336761 54.390686 78.766876 C 53.524902 77.254089 53.429749 75.436829 53.382141 73.667145 Z"/>
    <path id="Path-copy-12" fill="#77593a" fill-rule="evenodd" stroke="none" d="M 43.430054 68.320007 C 42.326416 68.320007 41.260803 68.47226 40.204651 68.719635 C 37.169556 69.433228 33.944153 71.145813 33.030762 74.171417 C 31.927124 77.558533 34.343811 81.297729 37.578674 82.705872 C 38.777527 83.219635 40.023926 83.46701 41.355896 83.46701 C 41.470093 83.46701 41.593811 83.46701 41.717468 83.46701 C 43.782104 83.46701 45.960938 82.858093 47.93042 82.049347 C 49.595398 81.297729 51.355591 80.279663 52.316528 78.719299 C 53.229919 77.206512 53.277527 75.332184 53.325073 73.571991 L 49.338562 69.680603 C 47.521301 68.719635 45.456665 68.320007 43.430054 68.320007 Z"/>
    <path id="Path-copy-11" fill="#77593a" fill-rule="evenodd" stroke="none" d="M 43.506165 68.624512 C 47.150208 68.691101 49.205322 69.899414 51.612488 72.354156 C 52.621033 73.372192 52.973022 73.419769 53.077698 74.780334 C 53.429749 78.319702 50.756165 80.736359 47.778137 82.001801 C 45.941895 82.762939 43.801147 83.248169 41.72699 83.248169 C 38.301758 83.248169 35.03833 81.935181 33.592163 78.414856 C 30.966187 72.002106 38.38739 68.976532 43.430054 68.672058 C 43.458618 68.662537 43.487183 68.643524 43.506165 68.624512 Z M 43.477661 68.110718 C 43.46814 68.110718 43.449097 68.110718 43.430054 68.120239 C 43.420532 68.120239 43.411011 68.120239 43.40155 68.120239 L 43.40155 68.120239 C 38.653809 68.386627 31.822449 70.755737 32.631165 76.749817 C 33.268677 81.564117 37.749939 83.676331 42.079041 83.676331 C 42.878235 83.676331 43.677429 83.609741 44.438599 83.46701 C 47.064575 82.90567 50.194824 81.801971 51.964539 79.680267 C 52.973022 78.462433 54.238464 75.037231 53.429749 73.467346 C 52.868408 72.30658 50.908386 70.793762 49.890381 69.985046 C 48.206299 68.491272 45.818176 68.177307 43.525208 68.120239 L 43.525208 68.120239 C 43.515686 68.120239 43.496643 68.110718 43.477661 68.110718 Z"/>
    <path id="Path-copy-10" fill="#77593a" fill-rule="evenodd" stroke="none" d="M 62.696777 68.310516 C 60.812927 68.310516 58.976685 68.805267 57.311646 69.680603 L 53.325073 73.571991 C 53.382141 75.389252 53.477295 77.206512 54.333618 78.719299 C 55.294556 80.336761 57.016663 81.345306 58.776855 82.049347 C 60.698792 82.858093 62.868042 83.362366 64.9422 83.46701 C 66.397888 83.46701 67.768005 83.162537 69.12854 82.705872 C 72.353943 81.297729 74.732544 77.510986 73.619385 74.171417 C 72.715515 71.19339 69.528137 69.433228 66.455017 68.719635 C 65.389404 68.47226 64.333313 68.367615 63.220093 68.320007 C 63.048828 68.310516 62.877563 68.310516 62.696777 68.310516 Z"/>
    <path id="Path-copy-9" fill="#77593a" fill-rule="evenodd" stroke="none" d="M 63.391357 68.605469 C 67.52063 68.605469 71.954346 70.384644 73.467163 74.228485 C 73.467163 74.228485 73.467163 74.228485 73.467163 74.228485 L 73.467163 74.228485 C 73.467163 74.228485 73.467163 74.238007 73.467163 74.238007 L 73.467163 74.238007 C 74.799133 80.079865 69.461548 83.134003 64.45697 83.134003 C 63.591187 83.134003 62.725342 83.04837 61.907104 82.858093 C 59.338196 82.306244 56.055725 81.040833 54.638062 78.671722 C 53.734192 77.054291 53.125305 74.685181 54.238464 73.219971 C 55.59906 71.40271 57.673157 69.680603 59.842468 69.081177 C 60.936646 68.75769 62.144958 68.605469 63.391357 68.605469 Z M 63.296204 68.072662 C 62.221069 68.072662 61.1745 68.186829 60.194519 68.424683 C 57.673157 68.976532 53.734192 71.497864 53.229919 74.171417 C 51.964539 80.53656 60.13739 83.714386 64.989807 83.714386 C 65.018311 83.714386 65.056396 83.714386 65.0849 83.714386 C 70.251282 83.714386 75.179749 79.642212 73.923828 74.12384 C 73.914307 74.095306 73.904785 74.066742 73.895264 74.047729 L 73.895264 74.047729 C 72.249268 69.975525 67.606262 68.072662 63.296204 68.072662 Z"/>
    <path id="Path-copy-8" fill="#ffb0ae" fill-rule="evenodd" stroke="none" d="M 53.876892 68.034607 C 53.705688 68.034607 53.543884 68.044128 53.382141 68.063141 C 52.573425 68.063141 51.812256 68.120239 51.051147 68.367615 C 50.499268 68.576904 49.842773 68.871887 49.595398 69.376129 C 49.338562 69.9375 49.53833 70.689117 50.09967 70.898438 C 50.16626 70.907959 50.242432 70.91748 50.318542 70.91748 C 50.565918 70.91748 50.841797 70.860382 51.079651 70.860382 C 51.250916 70.860382 51.403137 70.888916 51.507813 70.993591 C 51.812256 71.250488 51.612488 71.754761 51.612488 72.154358 C 51.56488 73.115295 52.316528 74.028687 53.277527 74.171417 L 53.524902 74.171417 C 54.48584 74.028687 55.247009 73.115295 55.142334 72.154358 C 55.094788 71.754761 54.990112 71.250488 55.294556 70.993591 C 55.418274 70.888916 55.580017 70.860382 55.751282 70.860382 C 55.979614 70.860382 56.236511 70.91748 56.455322 70.91748 C 56.531433 70.91748 56.598022 70.907959 56.655151 70.898438 C 57.216492 70.746216 57.41626 69.9375 57.159424 69.376129 C 56.912048 68.82428 56.303101 68.519836 55.751282 68.367615 C 55.151855 68.167786 54.495361 68.034607 53.876892 68.034607 Z"/>
    <path id="Path-copy-7" fill="#ffb0ae" fill-rule="evenodd" stroke="none" d="M 53.325073 68.358093 C 54.590515 68.358093 56.1604 68.557892 56.912048 69.585449 C 56.921509 69.594971 56.93103 69.594971 56.950073 69.604492 L 56.950073 69.604492 C 57.378235 71.155334 55.589539 70.403687 55.04718 70.898438 C 54.894958 70.993591 54.837891 71.19339 54.837891 71.40271 C 54.837891 71.650085 54.837891 71.954529 54.894958 72.211426 C 54.837891 73.219971 54.333618 73.77179 53.477295 73.971619 C 53.43927 73.971619 53.401184 73.98111 53.372681 74.000153 L 53.372681 74.000153 C 53.372681 74.000153 53.363159 74.000153 53.363159 74.000153 C 53.353638 74.000153 53.344116 74.000153 53.334595 74.009674 L 53.334595 74.009674 C 53.315552 74.000153 53.296509 73.98111 53.277527 73.971619 C 51.964539 73.619568 52.11676 72.86792 51.859863 71.754761 C 51.812256 71.497864 51.964539 71.450287 51.812256 71.250488 C 51.707642 70.898438 51.507813 70.746216 51.108215 70.689117 L 50.756165 70.689117 C 50.622986 70.727173 50.499268 70.746216 50.404175 70.746216 C 49.776184 70.746216 49.95697 70.032623 51.00354 68.672058 C 51.460266 68.424683 52.364136 68.367615 52.820801 68.367615 C 52.982544 68.367615 53.153809 68.358093 53.325073 68.358093 Z M 53.372681 74.000153 C 53.391663 74.019165 53.410706 74.047729 53.429749 74.104797 L 53.429749 74.104797 C 53.410706 74.076263 53.382141 74.047729 53.353638 74.019165 L 53.353638 74.019165 C 53.334595 74.038208 53.315552 74.066742 53.30603 74.095306 L 53.30603 74.095306 C 53.315552 74.05722 53.325073 74.028687 53.334595 74.009674 L 53.334595 74.009674 C 53.344116 74.019165 53.344116 74.019165 53.353638 74.019165 L 53.353638 74.019165 C 53.363159 74.019165 53.363159 74.009674 53.372681 74.000153 Z M 53.686646 67.825287 C 53.410706 67.825287 53.134766 67.844299 52.868408 67.863342 C 51.707642 67.92041 49.643005 68.167786 49.290955 69.528381 C 49.138733 69.9375 49.138733 70.28952 49.443176 70.689117 C 49.652527 71.050659 49.833313 71.117279 50.042603 71.117279 C 50.147278 71.117279 50.261414 71.098267 50.394653 71.098267 C 50.527832 71.098267 50.680054 71.117279 50.851318 71.19339 C 51.660034 71.497864 51.308044 72.86792 51.764709 73.514923 C 51.802795 73.648102 52.687622 74.371216 52.954041 74.371216 C 53.001587 74.371216 53.02063 74.352173 53.030151 74.304596 L 53.030151 74.304596 C 53.039673 74.437805 53.134766 74.532959 53.277527 74.532959 L 53.58197 74.532959 C 53.677124 74.532959 53.829346 74.428284 53.829346 74.276062 C 53.829346 74.352173 53.867432 74.390228 53.934021 74.390228 C 54.219421 74.390228 55.056702 73.648102 55.094788 73.514923 C 55.551453 72.86792 55.142334 71.497864 55.95105 71.19339 C 56.112793 71.136292 56.255554 71.117279 56.388733 71.117279 C 56.51239 71.117279 56.626587 71.136292 56.740784 71.136292 C 56.959595 71.136292 57.159424 71.069702 57.41626 70.689117 C 57.597046 70.232422 57.578064 69.813782 57.41626 69.433228 L 57.41626 69.433228 C 57.425781 69.395142 57.406799 69.357117 57.368713 69.328552 L 57.368713 69.328552 C 57.368713 69.328552 57.368713 69.328552 57.368713 69.328552 C 57.34967 69.271484 57.321167 69.223907 57.264038 69.204895 L 57.264038 69.204895 C 56.417297 68.167786 55.028137 67.825287 53.686646 67.825287 Z"/>
    <path id="Path-copy-6" fill="#51412e" fill-rule="evenodd" stroke="none" d="M 72.553772 73.039185 C 69.347412 73.039185 66.131531 73.162872 62.915649 73.419769 C 62.43042 73.419769 62.411377 74.12384 62.868042 74.12384 C 62.887085 74.12384 62.906128 74.12384 62.915649 74.12384 C 66.122009 73.876465 69.318848 73.752777 72.515686 73.752777 C 83.400208 73.752777 94.246643 75.189453 104.8172 77.95816 C 104.845764 77.967682 104.874268 77.967682 104.902832 77.967682 C 105.292908 77.967682 105.44519 77.349243 105.017029 77.254089 C 94.408386 74.485382 83.495361 73.039185 72.553772 73.039185 Z"/>
    <path id="Path-copy-5" fill="#51412e" fill-rule="evenodd" stroke="none" d="M 67.349365 75.712738 C 66.559631 75.712738 65.77948 75.72226 64.989807 75.741302 C 64.495056 75.741302 64.485535 76.445343 64.9422 76.445343 C 64.951721 76.445343 64.970764 76.445343 64.989807 76.445343 C 65.769958 76.426331 66.550171 76.416809 67.330322 76.416809 C 77.139709 76.416809 86.882507 77.891541 96.235168 80.793457 C 96.282776 80.802979 96.320801 80.812469 96.358887 80.812469 C 96.720398 80.812469 96.844116 80.222595 96.434998 80.079865 C 87.034729 77.177979 77.244385 75.712738 67.349365 75.712738 Z"/>
    <path id="Path-copy-4" fill="#51412e" fill-rule="evenodd" stroke="none" d="M 64.076416 78.062805 C 63.524536 78.16748 63.524536 78.823975 64.076416 78.823975 C 76.597412 78.823975 89.118408 81.849548 100.278809 87.605804 C 100.335938 87.634338 100.393005 87.64386 100.450073 87.64386 C 100.764038 87.64386 100.98291 87.215698 100.678406 86.996857 C 89.375305 81.193054 76.79718 78.062805 64.076416 78.062805 Z"/>
    <path id="Path-copy-3" fill="#51412e" fill-rule="evenodd" stroke="none" d="M 34.143982 73.039185 C 23.211914 73.039185 12.30835 74.485382 1.737793 77.254089 C 1.309631 77.349243 1.461914 77.967682 1.813904 77.967682 C 1.832947 77.967682 1.861511 77.967682 1.890015 77.95816 C 12.460571 75.189453 23.335571 73.752777 34.210571 73.752777 C 37.40741 73.752777 40.594788 73.876465 43.782104 74.12384 C 43.801147 74.12384 43.810669 74.12384 43.829651 74.12384 C 44.23877 74.12384 44.229309 73.419769 43.782104 73.419769 C 40.575745 73.162872 37.359863 73.039185 34.143982 73.039185 Z"/>
    <path id="Path-copy-2" fill="#51412e" fill-rule="evenodd" stroke="none" d="M 39.367432 75.712738 C 29.510437 75.712738 19.720093 77.177979 10.319824 80.079865 C 9.910706 80.222595 10.034424 80.812469 10.35791 80.812469 C 10.395935 80.812469 10.434021 80.802979 10.472046 80.793457 C 19.824768 77.891541 29.567566 76.416809 39.376892 76.416809 C 40.157104 76.416809 40.937256 76.426331 41.717468 76.445343 C 41.72699 76.445343 41.746033 76.445343 41.755554 76.445343 C 42.174133 76.445343 42.155151 75.741302 41.717468 75.741302 C 40.927795 75.72226 40.147583 75.712738 39.367432 75.712738 Z"/>
    <path id="Path-copy" fill="#51412e" fill-rule="evenodd" stroke="none" d="M 42.678406 78.062805 C 29.900513 78.062805 17.389038 81.193054 6.076416 86.996857 C 5.733887 87.215698 5.971741 87.64386 6.276184 87.64386 C 6.323792 87.64386 6.380859 87.634338 6.428406 87.605804 C 17.636414 81.849548 30.109863 78.823975 42.678406 78.823975 C 43.12561 78.823975 43.12561 78.16748 42.678406 78.062805 Z"/>
</svg>
