<?xml version="1.0" encoding="UTF-8"?>
<!-- Generated by Pixelmator Pro 3.4.1 -->
<svg width="91" height="91" viewBox="0 0 91 91" xmlns="http://www.w3.org/2000/svg">
    <path id="Path-copy-46" fill="#544439" fill-rule="evenodd" stroke="none" d="M 4.087524 1.409485 C -2.882202 1.409485 3.379517 32.524994 5.908142 44.193298 C 6.496582 46.878204 6.882813 48.533295 6.882813 48.533295 L 28.739075 27.854004 C 28.739075 27.854004 28.058655 26.778198 26.982849 25.021973 C 22.495728 18.236145 11.029663 1.60257 4.151917 1.409485 C 4.133545 1.409485 4.105957 1.409485 4.087524 1.409485 Z"/>
    <path id="Path-copy-45" fill="#dc7290" fill-rule="evenodd" stroke="none" d="M 7.811401 9.261719 C 1.761169 9.261719 9.815918 42.82309 9.815918 42.82309 L 25.373657 28.092896 C 25.373657 28.092896 14.100708 9.454834 7.857361 9.261719 C 7.838989 9.261719 7.820618 9.261719 7.811401 9.261719 Z"/>
    <path id="Path-copy-44" fill="#544439" fill-rule="evenodd" stroke="none" d="M 86.711853 1.409485 C 86.69342 1.409485 86.665833 1.409485 86.647461 1.409485 C 78.013489 1.64856 62.106323 27.854004 62.106323 27.854004 L 83.916565 48.533295 C 83.916565 48.533295 95.272278 1.409485 86.711853 1.409485 Z"/>
    <path id="Path-copy-43" fill="#dc7290" fill-rule="evenodd" stroke="none" d="M 82.941895 9.261719 C 82.923462 9.261719 82.90509 9.261719 82.886719 9.261719 C 76.643372 9.454834 65.379639 28.092896 65.379639 28.092896 L 80.937378 42.82309 C 80.937378 42.82309 88.992126 9.261719 82.941895 9.261719 Z"/>
    <path id="Path-copy-42" fill="#544439" fill-rule="evenodd" stroke="none" d="M 44.600098 21.748108 C 39.524536 21.748108 34.64209 22.483704 30.200928 23.85376 C 29.079163 24.138794 28.012573 24.53418 26.982727 24.920349 C 26.890747 24.920349 26.835571 24.920349 26.789612 25.021484 C 26.394226 25.113464 26.109192 25.315735 25.768982 25.407684 C 25.134521 25.655945 24.592041 25.89502 24.058716 26.14328 L 23.32312 26.52948 C 18.201599 28.975311 13.815613 32.340637 10.496277 36.285248 C 9.907776 37.020844 9.319336 37.756409 8.786011 38.537994 C 8.740051 38.583984 8.740051 38.675903 8.684875 38.731079 C 7.517151 40.487305 6.54248 42.33548 5.806885 44.192871 C 4.63916 47.116821 4.050659 50.243103 4.050659 53.461304 C 4.050659 54.684204 4.151794 55.999084 4.34491 57.268005 C 6.735596 73.662476 23.865662 90.489136 44.692078 90.489136 C 64.746155 90.489136 81.480835 74.876221 84.791016 59.07019 C 85.186401 57.222015 85.379456 55.318665 85.379456 53.461304 C 85.379456 51.116608 85.085205 48.725952 84.211731 46.390442 C 83.577271 44.146881 82.6026 41.99527 81.3797 40 L 80.644104 38.924194 C 80.009644 37.995483 79.329224 37.066833 78.602844 36.239258 C 75.375427 32.386597 71.136597 29.067261 66.106995 26.630615 C 66.060974 26.630615 66.060974 26.584656 66.015015 26.584656 C 65.1875 26.14328 64.405945 25.84906 63.569214 25.50885 C 63.569214 25.50885 63.477234 25.407684 63.431274 25.407684 C 63.081848 25.260559 62.649719 25.113464 62.208313 24.920349 C 61.132568 24.53418 60.056763 24.138794 58.990112 23.85376 C 54.549011 22.483704 49.666504 21.748108 44.600098 21.748108 Z"/>
    <path id="Path-copy-41" fill="#bbbbbb" fill-rule="evenodd" stroke="none" d="M 61.876587 48.559814 C 58.391724 48.559814 55.293091 50.987305 54.640259 54.536499 C 54.355225 56.09964 50.153137 63.952087 50.741577 65.312927 C 50.879517 65.597961 50.999084 65.717499 51.127808 65.717499 C 51.799011 65.717499 52.736877 62.655579 57.297546 62.655579 C 58.207825 62.655579 59.265259 62.775146 60.497375 63.069366 C 60.966309 63.161316 61.435242 63.207275 61.89502 63.207275 C 65.324707 63.207275 68.395813 60.743042 69.039429 57.221436 C 69.425598 55.410034 69.912964 52.927399 69.085388 51.465424 C 68.064758 49.709198 65.425842 49.074768 63.228271 48.679382 C 62.77771 48.596619 62.317993 48.559814 61.876587 48.559814 Z"/>
    <path id="Path-copy-40" fill="#d9f1fd" fill-rule="evenodd" stroke="none" d="M 61.848938 49.580444 C 58.906616 49.580444 56.267639 51.67688 55.669983 54.683594 C 55.035522 58.09491 57.279114 61.414246 60.69043 62.094666 C 61.085754 62.168243 61.471985 62.205017 61.848938 62.205017 C 64.818909 62.205017 67.457825 60.099396 68.064697 57.07428 C 68.745117 53.653778 66.501587 50.389587 63.081055 49.709167 C 62.667297 49.626404 62.262756 49.580444 61.848938 49.580444 Z"/>
    <path id="Path-copy-39" fill="#bbbbbb" fill-rule="evenodd" stroke="none" d="M 59.08136 49.074738 L 59.08136 49.074738 C 51.670288 53.120483 50.548523 61.947571 50.061218 63.804932 C 49.69342 65.165771 50.631287 65.331299 51.109436 65.331299 C 51.265747 65.331299 51.376038 65.312927 51.376038 65.312927 C 53.619629 52.587189 58.989441 49.562073 59.0354 49.562073 L 59.08136 49.074738 Z"/>
    <path id="Path-copy-38" fill="#0d0c0b" fill-rule="evenodd" stroke="none" d="M 63.081055 49.755127 C 63.081055 49.755127 59.035278 51.851563 58.354858 55.262878 C 57.766357 58.68338 60.543213 62.002747 60.745544 62.094666 C 60.745544 62.094666 60.745544 62.094666 60.7547 62.094666 C 61.021362 62.094666 64.800476 59.961487 65.42572 56.586945 C 66.060181 53.166443 63.18219 50.049377 63.081055 49.755127 Z"/>
    <path id="Path-copy-37" fill="#ffffff" fill-rule="evenodd" stroke="none" d="M 64.12915 53.39624 C 63.485535 53.39624 62.924622 53.78241 62.841858 54.435242 C 62.694763 55.170837 63.136108 55.851257 63.862549 55.998413 C 63.936096 56.007568 64.000427 56.007568 64.064819 56.007568 C 64.717651 56.007568 65.28772 55.584625 65.3797 54.922607 C 65.526794 54.196198 65.085449 53.561768 64.349854 53.414612 C 64.276306 53.405426 64.202759 53.39624 64.12915 53.39624 Z"/>
    <path id="Path-copy-36" fill="#ffffff" fill-rule="evenodd" stroke="none" d="M 59.39386 55.446655 C 58.924927 55.446655 58.529541 55.768494 58.400818 56.292603 C 58.299683 56.825867 58.649109 57.313232 59.228333 57.460327 C 59.292725 57.469543 59.3479 57.478729 59.412231 57.478729 C 59.872009 57.478729 60.267395 57.147705 60.405334 56.632813 C 60.451294 56.099487 60.157043 55.557007 59.568542 55.465027 C 59.513428 55.446655 59.449036 55.446655 59.39386 55.446655 Z"/>
    <path id="Path-copy-35" fill="#bbbbbb" fill-rule="evenodd" stroke="none" d="M 28.012268 48.559814 C 27.561768 48.559814 27.10199 48.596619 26.642273 48.679382 C 24.444702 49.074768 21.860901 49.709198 20.785095 51.465424 C 20.00354 52.927399 20.490906 55.410034 20.88623 57.221436 C 21.529907 60.743042 24.564209 63.207275 28.012268 63.207275 C 28.481262 63.207275 28.950195 63.161316 29.419128 63.069366 C 30.651245 62.775146 31.708618 62.655579 32.628113 62.655579 C 37.188782 62.655579 38.117493 65.717499 38.788696 65.717499 C 38.917419 65.717499 39.046143 65.597961 39.184082 65.312927 C 39.763367 63.952087 35.570496 56.09964 35.276245 54.536499 C 34.632629 50.987305 31.533936 48.559814 28.012268 48.559814 Z"/>
    <path id="Path-copy-34" fill="#d9f1fd" fill-rule="evenodd" stroke="none" d="M 28.067444 49.580444 C 27.662903 49.580444 27.249084 49.626404 26.835327 49.709167 C 23.424011 50.389587 21.180481 53.653778 21.860901 57.07428 C 22.421814 60.099396 25.088318 62.205017 28.067444 62.205017 C 28.453613 62.205017 28.839844 62.168243 29.226013 62.094666 C 32.646484 61.414246 34.890076 58.09491 34.200439 54.683594 C 33.648743 51.67688 31.018982 49.580444 28.067444 49.580444 Z"/>
    <path id="Path-copy-33" fill="#bbbbbb" fill-rule="evenodd" stroke="none" d="M 30.789001 49.074738 L 30.890137 49.562073 C 30.936096 49.562073 36.305908 52.587189 38.5495 65.312927 C 38.5495 65.312927 38.650635 65.331299 38.806946 65.331299 C 39.275879 65.331299 40.186157 65.165771 39.818359 63.804932 C 39.321838 61.947571 38.255249 53.120483 30.789001 49.074738 Z"/>
    <path id="Path-copy-32" fill="#0d0c0b" fill-rule="evenodd" stroke="none" d="M 26.835266 49.755127 C 26.642212 50.049377 23.810181 53.166443 24.444641 56.586945 C 25.125061 59.961487 28.894958 62.094666 29.170776 62.094666 C 29.170776 62.094666 29.179993 62.094666 29.179993 62.094666 C 29.327087 62.002747 32.159119 58.68338 31.524658 55.262878 C 30.890259 51.851563 26.835266 49.755127 26.835266 49.755127 Z"/>
    <path id="Path-copy-31" fill="#ffffff" fill-rule="evenodd" stroke="none" d="M 25.787048 53.39624 C 25.713501 53.39624 25.639954 53.405426 25.566406 53.414612 C 24.839966 53.561768 24.398621 54.196198 24.545776 54.922607 C 24.62854 55.584625 25.207764 56.007568 25.85144 56.007568 C 25.924988 56.007568 25.98938 56.007568 26.053711 55.998413 C 26.789307 55.851257 27.230652 55.170837 27.083557 54.435242 C 26.991577 53.78241 26.430725 53.39624 25.787048 53.39624 Z"/>
    <path id="Path-copy-30" fill="#ffffff" fill-rule="evenodd" stroke="none" d="M 30.494751 55.446655 C 30.43042 55.446655 30.366028 55.446655 30.301697 55.465027 C 29.768372 55.557007 29.418945 56.099487 29.520142 56.632813 C 29.648865 57.147705 30.04425 57.478729 30.513184 57.478729 C 30.568359 57.478729 30.63269 57.469543 30.687866 57.460327 C 31.230347 57.313232 31.616577 56.825867 31.469421 56.292603 C 31.386658 55.768494 30.991272 55.446655 30.494751 55.446655 Z"/>
    <path id="Path-copy-29" fill="#775e50" fill-rule="evenodd" stroke="none" d="M 52.497925 65.165436 C 47.863708 65.165436 44.158142 66.094116 44.158142 70.682373 C 44.158142 75.316589 48.544128 81.118561 53.132385 81.118561 C 57.720642 81.118561 60.791687 78.102661 60.791687 73.560364 C 60.791687 68.972107 57.086182 65.266602 52.497925 65.165436 Z"/>
    <path id="Path-copy-28" fill="#775e50" fill-rule="evenodd" stroke="none" d="M 37.032349 65.165436 C 32.444092 65.266602 28.738586 68.972107 28.738586 73.560364 C 28.738586 78.102661 31.864807 81.118561 36.397888 81.118561 C 40.986145 81.118561 45.372131 75.316589 45.372131 70.682373 C 45.372131 66.094116 41.666565 65.165436 37.032349 65.165436 Z"/>
    <path id="Path-copy-27" fill="#ebb1b0" fill-rule="evenodd" stroke="none" d="M 40.397583 62.195557 C 38.006897 62.195557 36.057556 64.825287 38.062073 65.855103 C 39.229797 66.489563 41.666443 66.342468 42.107788 67.997528 C 42.788269 71.123779 44.204224 71.75824 44.792725 71.75824 L 44.838684 71.75824 C 45.427185 71.75824 46.788025 71.123779 47.523621 67.997528 C 47.863831 66.342468 50.300476 66.489563 51.523376 65.855103 C 53.472717 64.779297 51.523376 62.195557 49.178711 62.195557 Z"/>
    <path id="Path-copy-26" fill="#ffffff" fill-rule="evenodd" stroke="none" d="M 52.350708 38.583618 C 51.964478 38.583618 51.670288 39.264038 51.670288 40.146729 C 51.670288 40.974274 51.964478 41.654694 52.350708 41.654694 C 52.690918 41.654694 52.985107 40.974274 52.985107 40.146729 C 52.985107 39.309998 52.690918 38.675537 52.350708 38.583618 Z"/>
    <path id="Path-copy-25" fill="#ffffff" fill-rule="evenodd" stroke="none" d="M 51.863342 49.994202 C 51.477173 49.994202 51.182922 50.683838 51.182922 51.511353 C 51.182922 52.384888 51.477173 53.074493 51.863342 53.074493 C 52.203552 53.074493 52.497803 52.384888 52.497803 51.511353 C 52.497803 50.683838 52.203552 49.994202 51.863342 49.994202 Z"/>
    <path id="Path-copy-24" fill="#ffffff" fill-rule="evenodd" stroke="none" d="M 60.892578 38.583618 C 60.497253 38.583618 60.203003 39.264038 60.203003 40.146729 C 60.203003 40.974274 60.497253 41.654694 60.892578 41.654694 C 61.232849 41.654694 61.527039 40.974274 61.527039 40.146729 C 61.527039 39.309998 61.232849 38.675537 60.892578 38.583618 Z"/>
    <path id="Path-copy-23" fill="#ffffff" fill-rule="evenodd" stroke="none" d="M 56.543518 44.091217 C 56.157288 44.091217 55.863098 44.780823 55.863098 45.608368 C 55.863098 46.481873 56.157288 47.116333 56.543518 47.116333 C 56.892883 47.116333 57.233093 46.481873 57.233093 45.608368 C 57.233093 44.826782 56.984863 44.091217 56.543518 44.091217 Z"/>
    <path id="Path-copy-22" fill="#ffffff" fill-rule="evenodd" stroke="none" d="M 47.082092 44.091217 C 46.741882 44.091217 46.401672 44.780823 46.401672 45.608368 C 46.401672 46.481873 46.741882 47.116333 47.082092 47.116333 C 47.477478 47.116333 47.762512 46.481873 47.762512 45.608368 C 47.762512 44.826782 47.477478 44.091217 47.082092 44.091217 Z"/>
    <path id="Path-copy-21" fill="#ffffff" fill-rule="evenodd" stroke="none" d="M 66.014099 44.091217 C 65.618713 44.091217 65.324463 44.780823 65.324463 45.608368 C 65.324463 46.481873 65.618713 47.116333 66.014099 47.116333 C 66.354309 47.116333 66.64856 46.481873 66.64856 45.608368 C 66.64856 44.826782 66.400269 44.091217 66.014099 44.091217 Z"/>
    <path id="Path-copy-20" fill="#ffffff" fill-rule="evenodd" stroke="none" d="M 74.795044 44.091217 C 74.399658 44.091217 74.105469 44.780823 74.105469 45.608368 C 74.105469 46.481873 74.399658 47.116333 74.795044 47.116333 C 75.135254 47.116333 75.429504 46.481873 75.429504 45.608368 C 75.429504 44.826782 75.135254 44.091217 74.795044 44.091217 Z"/>
    <path id="Path-copy-19" fill="#ffffff" fill-rule="evenodd" stroke="none" d="M 74.841064 55.557007 C 74.454834 55.557007 74.160645 56.246613 74.160645 57.074158 C 74.160645 57.901672 74.454834 58.582092 74.841064 58.582092 C 75.181274 58.582092 75.475464 57.901672 75.475464 57.074158 C 75.475464 56.246613 75.181274 55.557007 74.841064 55.557007 Z"/>
    <path id="Path-copy-18" fill="#ffffff" fill-rule="evenodd" stroke="none" d="M 56.543518 31.705963 C 56.157288 31.705963 55.863098 32.386414 55.863098 33.213928 C 55.863098 34.096649 56.157288 34.777069 56.543518 34.777069 C 56.892883 34.777069 57.233093 34.096649 57.233093 33.213928 C 57.233093 32.386414 56.984863 31.705963 56.543518 31.705963 Z"/>
    <path id="Path-copy-17" fill="#ffffff" fill-rule="evenodd" stroke="none" d="M 65.526733 31.751953 C 65.131409 31.751953 64.837158 32.432373 64.837158 33.315063 C 64.837158 34.142609 65.131409 34.823059 65.526733 34.823059 C 65.866943 34.823059 66.161194 34.142609 66.161194 33.315063 C 66.161194 32.432373 65.866943 31.751953 65.526733 31.751953 Z"/>
    <path id="Path-copy-16" fill="#ffffff" fill-rule="evenodd" stroke="none" d="M 70.308044 38.335327 C 69.958618 38.335327 69.673584 39.024963 69.673584 39.898468 C 69.673584 40.726013 69.958618 41.415649 70.308044 41.415649 C 70.694214 41.415649 70.988464 40.726013 70.988464 39.898468 C 70.988464 39.024963 70.740173 38.335327 70.308044 38.335327 Z"/>
    <path id="Path-copy-15" fill="#ffffff" fill-rule="evenodd" stroke="none" d="M 70.547119 48.973572 C 70.206909 48.973572 69.912659 49.654022 69.912659 50.481567 C 69.912659 51.364258 70.206909 51.998718 70.547119 51.998718 C 70.942444 51.998718 71.227539 51.364258 71.227539 50.481567 C 71.227539 49.654022 70.942444 48.973572 70.547119 48.973572 Z"/>
    <path id="Path-copy-14" fill="#ffffff" fill-rule="evenodd" stroke="none" d="M 79.521179 48.973572 C 79.180969 48.973572 78.840759 49.654022 78.840759 50.481567 C 78.840759 51.364258 79.180969 51.998718 79.521179 51.998718 C 79.916565 51.998718 80.210815 51.364258 80.210815 50.481567 C 80.210815 49.654022 79.916565 48.973572 79.521179 48.973572 Z"/>
    <path id="Path-copy-13" fill="#ffffff" fill-rule="evenodd" stroke="none" d="M 36.839172 38.583618 C 36.397766 38.675537 36.158752 39.309998 36.158752 40.146729 C 36.158752 40.974274 36.498962 41.654694 36.839172 41.654694 C 37.225342 41.654694 37.519592 40.974274 37.519592 40.146729 C 37.519592 39.264038 37.225342 38.583618 36.839172 38.583618 Z"/>
    <path id="Path-copy-12" fill="#ffffff" fill-rule="evenodd" stroke="none" d="M 37.280518 49.994202 C 36.885132 49.994202 36.590881 50.683838 36.590881 51.511353 C 36.590881 52.384888 36.885132 53.074493 37.280518 53.074493 C 37.620728 53.074493 37.914917 52.384888 37.914917 51.511353 C 37.914917 50.683838 37.620728 49.994202 37.280518 49.994202 Z"/>
    <path id="Path-copy-11" fill="#ffffff" fill-rule="evenodd" stroke="none" d="M 28.251221 38.583618 C 27.865051 38.675537 27.570801 39.309998 27.570801 40.146729 C 27.570801 40.974274 27.865051 41.654694 28.251221 41.654694 C 28.591431 41.654694 28.931641 40.974274 28.931641 40.146729 C 28.931641 39.264038 28.591431 38.583618 28.251221 38.583618 Z"/>
    <path id="Path-copy-10" fill="#ffffff" fill-rule="evenodd" stroke="none" d="M 32.591187 44.091217 C 32.204956 44.091217 31.910767 44.826782 31.910767 45.608368 C 31.910767 46.481873 32.204956 47.116333 32.591187 47.116333 C 32.931396 47.116333 33.225647 46.481873 33.225647 45.608368 C 33.225647 44.780823 32.931396 44.091217 32.591187 44.091217 Z"/>
    <path id="Path-copy-9" fill="#ffffff" fill-rule="evenodd" stroke="none" d="M 42.006592 44.091217 C 41.666382 44.091217 41.372131 44.826782 41.372131 45.608368 C 41.372131 46.481873 41.666382 47.116333 42.006592 47.116333 C 42.401978 47.116333 42.696228 46.481873 42.696228 45.608368 C 42.696228 44.780823 42.401978 44.091217 42.006592 44.091217 Z"/>
    <path id="Path-copy-8" fill="#ffffff" fill-rule="evenodd" stroke="none" d="M 23.129761 44.091217 C 22.688416 44.091217 22.449341 44.826782 22.449341 45.608368 C 22.449341 46.481873 22.743591 47.116333 23.129761 47.116333 C 23.469971 47.116333 23.810181 46.481873 23.810181 45.608368 C 23.810181 44.780823 23.469971 44.091217 23.129761 44.091217 Z"/>
    <path id="Path-copy-7" fill="#ffffff" fill-rule="evenodd" stroke="none" d="M 14.348816 44.091217 C 13.962585 44.091217 13.668396 44.826782 13.668396 45.608368 C 13.668396 46.481873 13.962585 47.116333 14.348816 47.116333 C 14.689026 47.116333 15.029236 46.481873 15.029236 45.608368 C 15.029236 44.780823 14.689026 44.091217 14.348816 44.091217 Z"/>
    <path id="Path-copy-6" fill="#ffffff" fill-rule="evenodd" stroke="none" d="M 14.302795 55.557007 C 13.90741 55.557007 13.61322 56.246613 13.61322 57.074158 C 13.61322 57.901672 13.90741 58.582092 14.302795 58.582092 C 14.643005 58.582092 14.937256 57.901672 14.937256 57.074158 C 14.937256 56.246613 14.643005 55.557007 14.302795 55.557007 Z"/>
    <path id="Path-copy-5" fill="#ffffff" fill-rule="evenodd" stroke="none" d="M 32.591187 31.705963 C 32.204956 31.705963 31.910767 32.386414 31.910767 33.213928 C 31.910767 34.096649 32.204956 34.777069 32.591187 34.777069 C 32.931396 34.777069 33.225647 34.096649 33.225647 33.213928 C 33.225647 32.386414 32.931396 31.705963 32.591187 31.705963 Z"/>
    <path id="Path-copy-4" fill="#ffffff" fill-rule="evenodd" stroke="none" d="M 23.617065 31.751953 C 23.230896 31.751953 22.936646 32.432373 22.936646 33.315063 C 22.936646 34.142609 23.230896 34.823059 23.617065 34.823059 C 23.957336 34.823059 24.297546 34.142609 24.297546 33.315063 C 24.297546 32.432373 23.957336 31.751953 23.617065 31.751953 Z"/>
    <path id="Path-copy-3" fill="#ffffff" fill-rule="evenodd" stroke="none" d="M 18.789856 38.335327 C 18.449646 38.335327 18.109436 39.024963 18.109436 39.898468 C 18.109436 40.726013 18.449646 41.415649 18.789856 41.415649 C 19.176025 41.415649 19.470276 40.726013 19.470276 39.898468 C 19.470276 39.024963 19.176025 38.335327 18.789856 38.335327 Z"/>
    <path id="Path-copy-2" fill="#ffffff" fill-rule="evenodd" stroke="none" d="M 18.541565 48.973572 C 18.201355 48.973572 17.861145 49.654022 17.861145 50.481567 C 17.861145 51.364258 18.201355 51.998718 18.541565 51.998718 C 18.936951 51.998718 19.231201 51.364258 19.231201 50.481567 C 19.231201 49.654022 18.936951 48.973572 18.541565 48.973572 Z"/>
    <path id="Path-copy" fill="#ffffff" fill-rule="evenodd" stroke="none" d="M 9.567505 48.973572 C 9.227295 48.973572 8.933044 49.654022 8.933044 50.481567 C 8.933044 51.364258 9.227295 51.998718 9.567505 51.998718 C 9.953674 51.998718 10.247925 51.364258 10.247925 50.481567 C 10.247925 49.654022 9.953674 48.973572 9.567505 48.973572 Z"/>
</svg>
