<?xml version="1.0" encoding="UTF-8"?>
<!-- Generated by Pixelmator Pro 3.4.1 -->
<svg width="132" height="111" viewBox="0 0 132 111" xmlns="http://www.w3.org/2000/svg">
    <path id="Path-copy-26" fill="#454545" fill-rule="evenodd" stroke="none" d="M 10.296448 1.813477 C 9.548218 1.813477 8.835632 1.920349 8.241821 2.217285 C 15.165741 5.364502 21.721497 9.343109 27.778473 13.93927 C 31.685791 16.967743 35.521851 20.554413 36.151306 25.411835 C 36.281952 26.29068 36.222565 27.359558 35.901917 28.238403 C 35.272461 30.007996 33.443512 31.20752 31.994568 32.4664 C 28.906708 34.865448 26.329559 37.763275 23.241699 40.031647 C 21.66214 41.219299 19.83316 42.22879 17.944824 42.858246 C 17.944824 43.487671 17.944824 44.057739 17.885437 44.687195 L 17.065979 49.544647 C 14.227509 57.288025 13.087372 65.613373 13.598083 73.796204 C 14.096863 81.36145 16.305878 89.235504 21.66214 94.591736 C 28.597931 101.46817 39.049133 102.786438 48.823395 103.297119 C 48.823395 103.297119 58.870819 103.712799 68.550079 103.712799 C 73.383759 103.712799 78.122437 103.605896 81.459686 103.297119 C 91.103302 102.347015 101.68515 101.46817 108.620972 94.591736 C 113.977203 89.235504 116.186218 81.36145 116.625641 73.796204 C 117.183838 65.613373 115.996185 57.288025 113.157745 49.544647 L 112.397644 44.687195 C 112.338287 44.057739 112.338287 43.487671 112.338287 42.858246 C 110.449921 42.22879 108.680359 41.219299 107.041412 40.031647 C 104.024811 37.763275 101.495148 34.865448 98.407288 32.4664 C 96.8396 31.266907 95.129395 30.138641 94.499969 28.238403 C 94.191162 27.359558 94.191162 26.350067 94.250549 25.411835 C 94.880005 20.554413 98.787323 16.837097 102.635284 13.93927 C 108.680359 9.343109 115.236115 5.364502 122.171906 2.217285 C 121.601837 1.932251 120.913025 1.825348 120.200439 1.825348 C 119.345337 1.825348 118.45462 1.979736 117.694519 2.157898 C 106.162567 5.115112 96.459564 12.549713 87.136597 19.794312 C 87.136597 19.794312 85.117615 19.544922 84.108124 19.295502 C 78.371826 17.977234 67.279297 17.02713 67.279297 17.02713 C 66.186676 16.979614 65.165314 16.955872 64.179565 16.955872 C 58.763947 16.955872 54.559692 17.6922 46.305603 19.295502 C 45.296112 19.485535 43.336517 19.794312 43.336517 19.794312 C 33.954193 12.549713 24.25119 5.055725 12.778595 2.157898 C 12.006622 1.955994 11.127777 1.813477 10.296448 1.813477 Z"/>
    <path id="Path-copy-25" fill="#262626" fill-rule="evenodd" stroke="none" d="M 119.832275 2.157898 C 120.331085 2.157898 120.722992 2.252899 120.722992 2.537933 C 120.722992 2.84671 116.815674 4.485657 116.245605 4.806335 C 113.977203 6.065216 111.649445 7.324127 109.44043 8.773041 C 105.651886 11.231445 101.815796 13.749237 98.668579 16.967743 C 96.400177 19.236115 94.250549 22.062714 93.941772 25.411835 C 93.632965 28.87973 95.628204 30.578064 98.157867 32.608917 L 98.157867 32.608917 C 98.169769 32.644562 98.193512 32.680176 98.217255 32.71582 C 101.186371 35.174225 103.894165 38.072052 106.982025 40.340454 C 108.110291 41.219299 110.010498 41.789368 111.138763 42.798859 C 112.207642 43.80835 112.017609 44.117126 112.207642 45.31665 C 112.718323 47.204987 112.77771 49.105225 113.407135 50.993561 C 115.046082 56.029144 116.11496 61.195374 116.36438 66.492218 C 116.934448 75.375763 115.806183 85.399414 109.93924 92.584625 C 103.894165 100.078613 94.131775 101.658173 85.117615 102.596405 C 79.203186 103.190247 73.253113 103.39212 67.291168 103.39212 C 61.816162 103.39212 56.329285 103.225861 50.842377 103.035858 C 45.296112 102.786438 39.678589 102.477661 34.322357 101.088104 C 24.809357 98.570313 18.07547 92.20459 15.427032 82.620361 C 12.837982 73.356781 13.467438 62.964935 16.115875 53.760742 C 16.804688 51.24295 17.564789 49.033966 17.944824 46.516174 C 18.32486 43.748962 18.894928 43.119507 21.41272 41.670593 C 24.559967 39.901031 27.077759 37.193207 29.726196 34.865448 C 32.184601 32.656433 36.151306 30.768097 36.531342 27.050781 C 37.10141 20.993835 31.17511 16.148254 26.828369 12.929779 C 23.360443 10.411987 19.83316 8.084198 16.056488 5.93457 C 15.735809 5.744568 9.690735 2.84671 9.750122 2.597321 C 9.809509 2.288544 10.153931 2.169769 10.664612 2.169769 C 12.517334 2.169769 16.519653 3.713684 17.065979 3.856201 C 25.510071 6.944061 32.873444 12.300323 39.999268 17.715942 C 42.01825 19.295502 42.457672 20.03183 43.918457 20.03183 C 44.322266 20.03183 44.797302 19.972443 45.414886 19.86557 C 49.702271 19.164856 53.918365 18.155365 58.277008 17.656555 C 60.117828 17.44278 61.946808 17.35965 63.763885 17.35965 C 66.863617 17.35965 69.951477 17.620941 73.074982 17.977234 C 76.922913 18.476044 80.640228 19.105469 84.488159 19.794312 C 85.129486 19.913086 85.66394 19.972443 86.138977 19.972443 C 88.205475 19.972443 88.846802 18.856079 91.412109 16.896484 C 99.226746 10.982025 107.991516 4.616302 117.753906 2.466675 L 117.753906 2.466675 C 117.575745 2.514191 117.492615 2.526062 117.468872 2.526062 C 117.373871 2.526062 118.834656 2.157898 119.832275 2.157898 Z M 10.830872 1.516571 C 9.98764 1.516571 9.156311 1.611572 8.360596 1.837219 C 8.111176 1.908478 8.051788 2.217285 8.241821 2.407288 C 16.626556 6.314636 26.068268 11.231445 32.374634 18.226624 C 35.023041 21.183838 37.790253 25.910645 34.643005 29.948608 C 33.574127 31.397522 31.804565 32.335754 30.486267 33.475891 C 26.519562 36.872528 23.170441 40.72049 18.07547 42.608826 C 17.944824 42.739471 17.885437 42.798859 17.885437 42.929504 C 17.944824 49.544647 14.797577 55.720367 13.90686 62.145477 C 12.968628 69.580078 13.15863 77.454132 15.48642 84.508698 C 20.522003 99.318542 34.892426 102.917084 49.013428 103.605896 C 54.809113 103.879059 60.676025 104.069092 66.531097 104.069092 C 70.284027 104.069092 74.025085 103.997833 77.742401 103.795929 C 90.663879 103.166473 106.411957 101.776947 113.157745 88.986084 C 117.183838 81.36145 117.753906 72.09787 116.875061 63.653778 C 116.11496 56.6586 112.718323 49.98407 112.77771 42.929504 C 112.77771 42.798859 112.718323 42.668213 112.52829 42.608826 C 106.982025 40.530457 103.205353 35.934296 98.609192 32.21701 L 98.609192 32.21701 C 98.597321 32.21701 98.597321 32.21701 98.597321 32.21701 L 98.597321 32.21701 C 98.597321 32.21701 98.597321 32.21701 98.597321 32.21701 C 84.23877 21.183838 114.226624 6.255249 122.29068 2.466675 C 122.54007 2.3479 122.480713 1.967865 122.231293 1.908478 C 121.388062 1.647217 120.521088 1.528442 119.630371 1.528442 C 115.556763 1.528442 111.103119 3.915588 107.742126 5.625793 C 101.815796 8.523621 96.400177 12.359711 91.222076 16.338287 L 89.08432 17.977234 C 87.74231 18.915466 87.065338 19.28363 85.937073 19.28363 C 85.473907 19.28363 84.927582 19.212372 84.23877 19.105469 C 82.089142 18.666046 79.951385 18.226624 77.742401 17.905975 C 74.345734 17.407166 70.877838 16.967743 67.46933 16.706451 C 66.47171 16.647064 65.485962 16.61145 64.488342 16.61145 C 61.032318 16.61145 57.600037 17.003357 54.179657 17.597168 C 51.28183 18.036621 48.383972 18.666046 45.414886 19.164856 C 45.18924 19.2005 44.963593 19.224243 44.737946 19.224243 C 42.552673 19.224243 41.139404 17.585297 39.369812 16.267029 C 34.072937 12.240936 28.716705 8.452362 22.790375 5.554535 C 19.358124 3.832458 14.880707 1.516571 10.830872 1.516571 Z"/>
    <path id="Path-copy-24" fill="#1c1c1c" fill-rule="evenodd" stroke="none" d="M 8.360596 2.217285 C 7.802399 2.466675 7.362976 2.84671 7.042297 3.357391 C 6.282227 4.735077 6.911682 6.504639 7.671753 7.894196 C 10.189545 12.870392 13.538696 17.525909 14.417542 23.012817 C 14.856964 26.160065 14.536316 29.37854 15.165741 32.4664 C 15.866455 35.934296 17.885437 39.330963 18.004211 42.798859 C 19.892548 42.169403 21.66214 41.159912 23.301056 39.960388 C 26.388916 37.763275 28.966095 34.865448 32.053955 32.4664 C 33.633514 31.266907 35.331848 30.138641 35.961304 28.238403 C 36.281952 27.359558 36.281952 26.350067 36.222565 25.411835 C 35.593109 20.554413 31.745178 16.837097 27.83786 13.93927 C 21.792755 9.343109 15.237 5.364502 8.360596 2.217285 Z"/>
    <path id="Path-copy-23" fill="#1c1c1c" fill-rule="evenodd" stroke="none" d="M 9.512604 3.013 C 10.510223 3.013 14.215637 5.459534 15.106384 5.93457 C 16.7453 6.884674 18.443634 7.822937 20.023193 8.832428 C 23.609863 11.1008 27.267792 13.559204 30.415009 16.457062 C 32.125214 18.155365 33.692902 19.924957 34.833038 22.062714 C 35.842529 24.212311 35.593109 24.331085 35.023041 27.050781 C 34.322357 30.447418 34.393616 30.138641 31.804565 32.086365 C 31.768921 32.145752 31.733307 32.21701 31.721436 32.276398 L 31.721436 32.276398 C 28.799835 34.722931 26.17514 37.525757 23.170441 39.770386 C 22.267822 40.423584 20.605133 41.848755 19.191833 41.848755 C 18.835541 41.848755 18.503021 41.753723 18.194214 41.539948 C 17.564789 41.029266 16.99472 37.311981 16.626556 36.314362 C 14.227509 29.437927 15.355774 22.383362 12.149139 15.708832 C 11.329681 14.129272 10.56958 12.620972 9.690735 11.1008 C 9.310699 10.411987 8.740631 9.651886 8.431854 8.832428 C 8.182434 8.452362 8.051788 8.084198 7.802399 7.76355 C 8.360596 6.18399 8.81189 4.616302 9.370087 3.036743 C 9.417572 3.024872 9.465088 3.013 9.512604 3.013 Z M 8.39621 2.157898 C 3.669403 2.157898 9.358215 11.552094 10.260803 13.060394 C 12.968628 18.095978 14.168121 22.692139 14.536316 28.369049 C 14.856964 33.404633 17.315369 37.822662 17.885437 42.798859 C 17.885437 42.905731 17.980438 43.119507 18.182343 43.119507 C 18.206116 43.119507 18.229858 43.119507 18.253601 43.119507 C 23.871124 41.029266 27.647827 36.433105 32.184601 32.71582 C 32.196472 32.71582 32.196472 32.703949 32.208344 32.703949 L 32.208344 32.703949 C 34.84491 30.756195 36.85202 28.927246 36.531342 25.411835 C 36.222565 22.442749 34.583618 19.924957 32.683411 17.787201 C 29.666809 14.509308 25.878235 11.920258 22.232208 9.533112 C 20.213226 8.202972 18.194214 7.003448 16.115875 5.815826 C 14.168121 4.735077 11.329681 2.597321 9.120667 2.217285 C 8.859406 2.181641 8.621857 2.157898 8.39621 2.157898 Z"/>
    <path id="Path-copy-22" fill="#1c1c1c" fill-rule="evenodd" stroke="none" d="M 122.171906 2.217285 C 115.236115 5.364502 108.680359 9.343109 102.635284 13.93927 C 98.787323 16.967743 94.880005 20.554413 94.250549 25.411865 C 94.131775 26.29071 94.191162 27.359589 94.499969 28.238434 C 95.129395 30.008026 96.958374 31.20755 98.407288 32.466431 C 101.495148 34.865479 104.143585 37.763306 107.172058 40.031677 C 108.739746 41.21933 110.568695 42.228821 112.468903 42.858276 C 112.647064 39.402252 114.606659 35.993713 115.295502 32.525818 C 115.924927 29.378571 115.61615 26.160095 116.11496 23.072205 C 116.934448 17.656555 120.271698 12.929779 122.801361 7.953583 C 123.490204 6.564056 124.179016 4.806366 123.430817 3.416809 C 123.110138 2.846741 122.730103 2.466705 122.171906 2.217316 Z"/>
    <path id="Path-copy-21" fill="#1c1c1c" fill-rule="evenodd" stroke="none" d="M 121.981903 2.585449 C 122.801361 3.583069 122.20755 7.811035 121.79187 8.903687 C 121.352448 9.841919 120.722992 10.792023 120.212311 11.730255 C 119.333466 13.250427 118.513977 14.758728 117.813293 16.338287 C 116.494995 19.164856 115.61615 22.003326 115.36676 25.150543 C 114.986694 29.568573 114.606659 33.475891 113.157745 37.692017 C 112.647064 39.330963 112.837097 41.290558 111.138763 41.670593 C 110.996246 41.694366 110.841858 41.718109 110.699341 41.718109 C 108.787231 41.718109 106.388214 39.319061 105.212463 38.321472 C 102.635284 36.124329 100.176849 33.725311 97.528442 31.516296 C 94.440582 28.998505 93.870514 24.521118 95.948883 21.124451 C 96.958374 19.426147 98.3479 17.905975 99.796814 16.587677 C 106.126923 10.696991 114.202881 6.231476 121.981903 2.585449 Z M 122.029388 1.920349 C 121.922516 1.920349 121.839386 1.979736 121.79187 2.062866 L 121.79187 2.062866 C 115.426147 5.067596 109.250427 8.630524 103.573517 12.870392 C 99.92746 15.518829 96.079529 18.606659 94.499969 23.012817 C 92.682861 28.119659 95.50946 30.388031 99.167358 33.475891 C 103.383484 37.062561 106.982025 41.159912 112.207642 43.178894 C 112.255127 43.190765 112.290771 43.190765 112.338287 43.190765 C 112.52829 43.190765 112.647064 43.072021 112.647064 42.858246 C 113.098358 38.64212 115.295502 34.734802 115.806183 30.506805 C 116.304993 25.281189 116.435638 20.803802 118.70401 16.017609 C 120.259827 12.716003 126.803711 5.233887 122.338196 2.074768 L 122.338196 2.074768 C 122.29068 2.00351 122.219421 1.955994 122.12442 1.944122 L 122.12442 1.944122 C 122.088776 1.932251 122.053162 1.920349 122.029388 1.920349 Z"/>
    <path id="Path-copy-20" fill="#000000" fill-rule="evenodd" stroke="none" d="M 35.593109 49.853424 C 33.954193 49.853424 32.505249 51.302338 32.505249 52.941284 L 32.505249 55.649109 C 32.505249 57.288025 33.954193 58.677582 35.593109 58.677582 L 36.721375 58.677582 C 38.419708 58.677582 39.749847 57.288025 39.868622 55.649109 L 39.868622 52.941284 C 39.868622 51.302338 38.419708 49.853424 36.780762 49.853424 Z"/>
    <path id="Path-copy-19" fill="#000000" fill-rule="evenodd" stroke="none" d="M 93.680481 49.853424 C 92.041534 49.853424 90.663879 51.302338 90.663879 52.941284 L 90.663879 55.649109 C 90.663879 57.288025 92.041534 58.677582 93.680481 58.677582 L 94.880005 58.677582 C 96.578308 58.677582 97.967865 57.288025 97.967865 55.649109 L 97.967865 52.941284 C 97.967865 51.302338 96.578308 49.853424 94.880005 49.853424 Z"/>
    <path id="Path-copy-18" fill="#000000" fill-rule="evenodd" stroke="none" d="M 53.799622 85.138153 L 51.210571 92.513367 C 53.170166 94.912415 54.809113 97.679596 56.067993 100.577423 C 56.756836 102.347015 57.386261 104.175964 58.526398 105.624908 C 58.585785 105.743652 58.645172 105.874298 58.775818 105.933685 C 58.645172 103.736542 59.096466 101.527557 60.54538 99.947998 C 60.664154 99.888611 60.735413 99.829224 60.7948 99.829224 C 60.818542 99.817352 60.830414 99.817352 60.854187 99.817352 C 61.186707 99.817352 61.29361 100.292389 61.174835 100.708069 C 60.7948 103.225861 61.364868 105.814911 62.742523 107.952667 C 62.932556 107.952667 63.181946 107.952667 63.312592 107.833893 L 67.029907 107.833893 C 67.160522 107.833893 67.409943 107.952667 67.599945 107.952667 C 68.989502 105.814911 69.547699 103.225861 69.167633 100.708069 C 69.048889 100.292389 69.155762 99.817352 69.488312 99.817352 C 69.512054 99.817352 69.523926 99.817352 69.547699 99.829224 C 69.618958 99.829224 69.678314 99.888611 69.80896 99.947998 C 71.257874 101.527557 71.697296 103.665283 71.566681 105.933685 C 71.697296 105.874298 71.756683 105.743652 71.816071 105.624908 C 73.015594 104.175964 73.585663 102.347015 74.274475 100.577423 C 75.473999 97.679596 77.112946 94.912415 79.131927 92.513367 L 73.585663 85.138153 Z"/>
    <path id="Path-copy-17" fill="#000000" fill-rule="evenodd" stroke="none" d="M 54.725952 85.292542 C 55.557312 85.292542 56.590546 85.458801 57.006226 85.458801 L 73.336243 85.458801 C 73.348114 85.458801 73.360016 85.458801 73.383759 85.458801 L 73.383759 85.458801 L 76.614136 89.61554 C 77.112946 90.316254 78.431213 91.385132 78.621246 92.133331 C 78.811249 93.024048 78.063049 93.522858 77.362335 94.532349 C 76.863525 95.161804 72.077362 104.746033 72.077362 104.746033 C 71.756683 104.674774 71.067871 100.518066 69.678314 99.639191 C 69.6427 99.603577 69.595184 99.591705 69.547699 99.591705 C 69.488312 99.591705 69.428925 99.603577 69.357666 99.639191 C 68.419434 100.268646 68.989502 100.838715 68.989502 102.026367 C 68.918243 105.375488 68.419434 107.703247 65.141541 107.703247 C 61.923065 107.703247 61.364868 105.375488 61.29361 102.026367 C 61.29361 100.957489 61.733032 100.268646 60.854187 99.639191 C 60.818542 99.603577 60.771057 99.591705 60.723541 99.591705 C 60.664154 99.591705 60.604767 99.603577 60.54538 99.639191 C 59.096466 100.648682 59.155853 102.347015 58.46701 103.795929 C 58.158234 104.496643 58.193878 104.829163 58.170105 104.829163 C 58.158234 104.829163 58.086975 104.579773 57.70694 104.116608 C 56.946838 103.166473 56.638062 101.71756 56.12738 100.577423 C 55.497925 99.069122 54.809113 97.679596 53.918365 96.230682 C 53.419556 95.411224 51.400574 93.522858 51.28183 92.453979 C 51.210571 91.943298 51.839996 90.815063 52.030029 90.37561 C 52.469452 89.235504 52.849487 88.226013 53.229553 87.097748 C 53.28891 86.800842 54.001495 85.435059 53.799622 85.435059 C 53.78772 85.435059 53.78772 85.435059 53.775848 85.435059 L 53.775848 85.435059 C 53.989624 85.328156 54.334045 85.292542 54.725952 85.292542 Z M 53.799622 84.829346 C 53.609589 84.829346 53.550201 84.959991 53.478943 85.078766 C 52.790131 87.038361 50.711761 90.434998 50.901764 92.513367 C 50.94928 93.000305 53.027649 95.767487 53.12265 95.767487 C 53.12265 95.767487 53.12265 95.767487 53.12265 95.755615 L 53.12265 95.755615 C 53.894623 96.990753 54.583435 98.261536 55.189148 99.567932 C 56.258026 101.836334 56.946838 104.294739 58.526398 106.254333 C 58.562042 106.325592 58.621429 106.361237 58.680786 106.361237 C 58.811432 106.361237 58.96582 106.194946 58.96582 106.064331 C 58.96582 105.351746 59.191498 100.71994 60.592896 100.71994 C 60.676025 100.71994 60.759155 100.731812 60.854187 100.767456 L 60.854187 100.767456 C 60.7948 100.838715 60.7948 103.142731 60.7948 103.356506 L 60.7948 103.356506 C 60.7948 103.356506 60.7948 103.356506 60.7948 103.356506 L 60.7948 103.356506 C 60.7948 103.368378 60.7948 103.368378 60.7948 103.368378 C 60.7948 103.368378 60.7948 103.368378 60.7948 103.356506 L 60.7948 103.356506 C 60.984802 105.185455 61.614258 106.693756 62.55249 108.1427 C 62.623749 108.273315 62.683136 108.332703 62.742523 108.332703 C 63.538239 108.237701 64.357697 108.190186 65.177185 108.190186 C 65.996643 108.190186 66.816132 108.237701 67.599945 108.332703 C 67.659332 108.332703 67.789978 108.273315 67.789978 108.1427 C 68.668823 106.563141 69.298279 105.114197 69.547699 103.356506 C 69.547699 103.035858 69.488312 100.767456 69.488312 100.767456 C 69.535797 100.731812 69.583313 100.708069 69.630829 100.708069 C 70.426544 100.708069 71.376648 105.767426 71.376648 106.064331 C 71.376648 106.194946 71.531036 106.325592 71.673553 106.325592 C 71.732941 106.325592 71.780457 106.313721 71.816071 106.254333 C 72.766174 105.114197 73.39563 103.736542 74.025085 102.347015 C 75.533386 98.819733 77.112946 95.79126 79.440704 92.7034 C 79.57135 92.584625 79.57135 92.394623 79.440704 92.323364 C 77.587982 89.924316 75.735291 87.572815 73.835052 85.173767 L 73.835052 85.173767 C 73.882568 85.007507 73.787567 84.829346 73.585663 84.829346 Z"/>
    <path id="Path-copy-16" fill="#ffffff" fill-rule="evenodd" stroke="none" d="M 69.55957 99.947998 C 69.22702 99.947998 69.179504 100.470551 69.238892 100.838715 C 69.618958 103.356506 69.048889 105.933685 67.659332 108.083313 C 67.718719 108.083313 67.766235 108.083313 67.825623 108.083313 C 69.274536 108.083313 70.664063 107.275696 71.697296 106.123688 C 71.756683 103.855316 71.436035 101.658173 69.868347 100.138 C 69.80896 100.078613 69.678314 99.947998 69.618958 99.947998 C 69.595184 99.947998 69.571442 99.947998 69.55957 99.947998 Z"/>
    <path id="Path-copy-15" fill="#ffffff" fill-rule="evenodd" stroke="none" d="M 69.678314 100.387421 C 69.702087 100.399292 69.72583 100.411163 69.749573 100.423035 L 69.749573 100.423035 C 70.782837 101.646301 71.198517 103.107117 71.376648 104.80542 C 71.495422 106.551239 69.797089 107.489471 68.217529 107.715149 L 68.217529 107.715149 C 68.775726 106.681885 69.22702 105.613007 69.488312 104.484772 C 69.547699 103.926575 69.618958 103.356506 69.618958 102.727051 C 69.618958 102.596405 69.618958 100.387421 69.678314 100.387421 Z M 69.512054 99.627319 C 69.14389 99.627319 68.965729 100.078613 68.918243 100.577423 C 68.72821 101.836334 69.167633 102.917084 68.918243 104.175964 C 68.668823 105.494263 68.098755 106.693756 67.409943 107.833893 C 67.350555 108.012054 67.409943 108.332703 67.659332 108.332703 C 69.167633 108.332703 71.697296 107.453857 72.006104 105.814911 C 72.374268 103.902832 71.483521 101.503784 70.082123 99.924225 L 70.082123 99.924225 C 70.05838 99.888611 70.034607 99.852966 69.987122 99.829224 L 69.987122 99.829224 C 69.987122 99.829224 69.987122 99.829224 69.987122 99.829224 C 69.963348 99.769836 69.915863 99.746094 69.868347 99.746094 L 69.868347 99.746094 C 69.737701 99.662964 69.618958 99.627319 69.512054 99.627319 Z"/>
    <path id="Path-copy-14" fill="#ffffff" fill-rule="evenodd" stroke="none" d="M 60.925446 99.947998 C 60.901672 99.947998 60.87793 99.947998 60.854187 99.947998 C 60.7948 99.947998 60.735413 100.078613 60.664154 100.138 C 59.155853 101.71756 58.775818 103.795929 58.835205 106.123688 C 59.809052 107.275696 61.246094 108.083313 62.706879 108.083313 C 62.766266 108.083313 62.813782 108.083313 62.873169 108.083313 C 61.424255 105.933685 60.7948 103.297119 61.29361 100.838715 C 61.352997 100.470551 61.305481 99.947998 60.925446 99.947998 Z"/>
    <path id="Path-copy-13" fill="#ffffff" fill-rule="evenodd" stroke="none" d="M 60.913574 100.767456 C 60.569153 103.213989 61.020447 105.541748 62.184326 107.715149 L 62.184326 107.715149 C 60.604767 107.501373 58.918335 106.598755 59.025208 104.746033 C 59.155853 104.045349 59.21524 103.356506 59.345886 102.655792 C 59.535889 102.156982 59.654663 101.776947 59.915955 101.396912 C 60.094086 100.898102 60.414764 100.767456 60.913574 100.767456 Z M 60.735413 99.639191 C 59.725922 99.757965 58.96582 102.026367 58.775818 102.727051 C 58.46701 103.736542 58.015717 105.494263 58.645172 106.444366 C 59.535889 107.703247 61.364868 108.332703 62.742523 108.332703 C 63.003815 108.332703 63.181946 108.083313 63.003815 107.833893 C 61.744904 105.826782 61.174835 103.39212 61.483612 100.898102 L 61.483612 100.898102 C 61.483612 100.874329 61.483612 100.862457 61.483612 100.838715 L 61.483612 100.838715 C 61.483612 100.838715 61.483612 100.838715 61.483612 100.838715 C 61.507385 100.779327 61.507385 100.731812 61.483612 100.684326 L 61.483612 100.684326 C 61.471741 100.161774 61.364868 99.639191 60.735413 99.639191 Z"/>
    <path id="Path-copy-12" fill="#1c1c1c" fill-rule="evenodd" stroke="none" d="M 72.801819 86.658325 C 74.39325 88.712921 75.98468 90.743805 77.623627 92.798401 L 77.623627 92.798401 C 75.533386 95.684357 73.89444 98.71283 72.516785 102.097595 C 71.756683 104.045349 70.628448 106.563141 68.288788 107.073822 C 67.980011 107.156952 67.623718 107.180695 67.243683 107.180695 C 66.507324 107.180695 65.711609 107.073822 65.082153 107.073822 C 64.405212 107.073822 63.787628 107.097565 63.158203 107.097565 C 62.837524 107.097565 62.516876 107.097565 62.184326 107.073822 C 59.785309 106.824402 58.526398 104.294739 57.70694 102.347015 C 56.234253 98.819733 54.654694 95.613098 52.291321 92.596497 L 52.291321 92.596497 L 54.429047 86.658325 Z M 53.799622 84.199921 C 53.229553 84.199921 52.849487 84.639343 52.600098 85.078766 C 52.160675 86.337646 51.721252 87.53717 51.28183 88.796082 C 50.901764 89.864929 50.082306 91.313873 49.892273 92.513367 C 49.761627 93.843536 51.341187 95.102417 52.030029 96.111908 C 52.920746 97.430206 53.740234 98.819733 54.298431 100.268646 C 55.628571 102.976471 56.317413 106.123688 58.775818 108.083313 C 60.224731 109.318451 61.673645 109.401581 63.395721 109.401581 C 63.692627 109.401581 64.001404 109.401581 64.322083 109.401581 C 65.200928 109.401581 66.115417 109.484711 67.018005 109.484711 C 67.908752 109.484711 68.799469 109.401581 69.618958 109.092804 C 72.196106 108.1427 73.585663 105.743652 74.595154 103.297119 C 75.972809 99.829224 77.552368 96.610718 79.951385 93.582245 C 80.390808 93.024048 80.331451 92.513367 79.951385 91.943298 C 78.217438 89.686798 76.471619 87.430298 74.690155 85.221283 L 74.690155 85.221283 C 74.654541 84.686829 74.298248 84.199921 73.585663 84.199921 Z"/>
    <path id="Path-copy-11" fill="none" stroke="#1c1c1c" stroke-width="0.041995" d="M 72.801819 86.658325 C 74.39325 88.712921 75.98468 90.743805 77.623627 92.798401 L 77.623627 92.798401 C 75.533386 95.684357 73.89444 98.71283 72.516785 102.097595 C 71.756683 104.045349 70.628448 106.563141 68.288788 107.073822 C 67.980011 107.156952 67.623718 107.180695 67.243683 107.180695 C 66.507324 107.180695 65.711609 107.073822 65.082153 107.073822 C 64.405212 107.073822 63.787628 107.097565 63.158203 107.097565 C 62.837524 107.097565 62.516876 107.097565 62.184326 107.073822 C 59.785309 106.824402 58.526398 104.294739 57.70694 102.347015 C 56.234253 98.819733 54.654694 95.613098 52.291321 92.596497 L 52.291321 92.596497 L 54.429047 86.658325 Z M 53.799622 84.199921 C 53.229553 84.199921 52.849487 84.639343 52.600098 85.078766 C 52.160675 86.337646 51.721252 87.53717 51.28183 88.796082 C 50.901764 89.864929 50.082306 91.313873 49.892273 92.513367 C 49.761627 93.843536 51.341187 95.102417 52.030029 96.111908 C 52.920746 97.430206 53.740234 98.819733 54.298431 100.268646 C 55.628571 102.976471 56.317413 106.123688 58.775818 108.083313 C 60.224731 109.318451 61.673645 109.401581 63.395721 109.401581 C 63.692627 109.401581 64.001404 109.401581 64.322083 109.401581 C 65.200928 109.401581 66.115417 109.484711 67.018005 109.484711 C 67.908752 109.484711 68.799469 109.401581 69.618958 109.092804 C 72.196106 108.1427 73.585663 105.743652 74.595154 103.297119 C 75.972809 99.829224 77.552368 96.610718 79.951385 93.582245 C 80.390808 93.024048 80.331451 92.513367 79.951385 91.943298 C 78.217438 89.686798 76.471619 87.430298 74.690155 85.221283 L 74.690155 85.221283 C 74.654541 84.686829 74.298248 84.199921 73.585663 84.199921 Z"/>
    <path id="Path-copy-10" fill="#1c1c1c" fill-rule="evenodd" stroke="none" d="M 50.248566 69.710724 C 48.550262 69.710724 46.851929 70.043274 45.296112 70.779602 C 40.569336 72.976746 37.861511 78.784271 39.559845 83.760468 C 40.498077 86.527679 42.517059 88.736694 45.034851 90.126221 C 47.564514 91.575134 50.462341 92.20459 53.28891 92.263977 C 53.443329 92.263977 53.597717 92.263977 53.740234 92.263977 C 56.697449 92.263977 59.71405 91.670135 62.05368 89.864929 C 63.561981 88.796082 64.761505 87.038361 65.200928 85.328156 C 65.711609 87.157135 66.780487 88.796082 68.360046 89.864929 C 70.699707 91.610779 73.740051 92.263977 76.697266 92.263977 C 76.839783 92.263977 76.970428 92.263977 77.112946 92.263977 C 79.951385 92.20459 82.849243 91.575134 85.367035 90.126221 C 87.884827 88.736694 89.963165 86.527679 90.9133 83.760468 C 92.552216 78.843658 89.773163 72.976746 85.117615 70.779602 C 83.597443 70.043274 81.922882 69.710724 80.23642 69.710724 C 76.81604 69.710724 73.324371 71.124023 70.877838 73.618042 L 59.535889 73.618042 C 57.172485 71.124023 53.70459 69.710724 50.248566 69.710724 Z"/>
    <path id="Path-copy-9" fill="#1c1c1c" fill-rule="evenodd" stroke="none" d="M 79.915771 70.019501 C 81.649719 70.019501 83.371796 70.435181 84.986969 71.088379 C 92.17218 74.995728 93.122284 84.639343 86.186493 89.366119 C 83.65683 91.076324 80.188934 92.050201 76.792267 92.050201 C 71.8992 92.050201 67.148651 90.031219 65.521606 85.268768 C 65.485962 85.11438 65.379089 85.03125 65.260315 85.03125 C 65.141541 85.03125 65.010895 85.11438 64.951538 85.268768 C 63.38385 89.971832 58.775818 92.073944 53.906494 92.073944 C 47.802032 92.073944 41.281921 88.796082 39.749847 83.19043 C 38.360321 78.154846 41.578827 72.418549 46.424377 70.648956 C 47.61203 70.245178 48.847168 70.055145 50.082306 70.055145 C 51.163055 70.055145 52.243805 70.197662 53.28891 70.458954 C 54.559692 70.708344 55.747345 71.219025 56.756836 71.84848 C 57.576294 72.34729 58.585785 73.677429 59.345886 73.926849 C 60.272247 74.211884 61.388611 74.306885 62.564362 74.306885 C 64.725891 74.306885 67.077393 73.986237 68.799469 73.986237 C 69.22702 73.986237 69.678314 74.033722 70.129639 74.033722 C 70.462158 74.033722 70.80658 74.009979 71.127258 73.926849 C 72.077362 73.618042 73.14624 72.157257 74.084473 71.59906 C 75.224609 70.969635 76.48349 70.589569 77.611755 70.268921 C 78.383698 70.102661 79.15567 70.019501 79.915771 70.019501 Z M 50.082306 69.390076 C 45.414886 69.520691 41.317535 72.228516 39.619202 76.575287 C 35.688141 86.254517 45.545532 92.477753 54.179657 92.477753 C 55.094147 92.477753 56.008606 92.406494 56.887482 92.263977 C 58.96582 91.883911 61.103577 91.135712 62.742523 89.61554 C 63.561981 88.986084 64.191437 87.406525 64.892151 86.907715 C 65.105927 86.729584 65.22467 86.598938 65.272186 86.515808 L 65.272186 86.515808 C 65.272186 86.658325 65.355316 86.943359 65.830383 87.347137 C 67.409943 88.796082 68.098755 90.316254 70.248383 91.135712 C 72.243622 92.014557 74.523895 92.37085 76.780396 92.37085 C 77.718628 92.37085 78.65686 92.311462 79.57135 92.20459 C 84.737579 91.444489 90.283844 88.226013 91.412109 82.750977 C 92.540344 77.810425 89.701904 72.941101 85.355133 70.577698 L 85.355133 70.577698 C 85.319519 70.553955 85.283875 70.530212 85.236389 70.530212 L 85.236389 70.530212 C 85.236389 70.530212 85.236389 70.530212 85.236389 70.530212 C 85.212616 70.506439 85.177002 70.494568 85.153259 70.482697 L 85.153259 70.482697 C 83.502441 69.817627 82.006012 69.532593 80.592712 69.532593 C 77.457367 69.532593 74.702026 70.93399 71.507294 72.667938 C 70.177124 73.356781 68.431305 73.534912 66.626099 73.534912 C 64.809021 73.534912 62.932556 73.356781 61.364868 73.356781 C 59.46463 73.356781 59.155853 72.667938 57.576294 71.59906 C 55.379181 70.209534 52.790131 69.390076 50.082306 69.390076 Z"/>
    <path id="Path-copy-8" fill="#000000" fill-rule="evenodd" stroke="none" d="M 65.307831 72.477936 C 62.433746 72.477936 60.414764 72.976746 60.414764 72.976746 C 58.96582 73.297394 58.46701 75.375763 59.535889 76.325867 C 60.474121 77.204712 62.303101 77.074097 62.932556 78.214203 C 63.312592 78.974304 63.003815 79.781891 63.181946 80.601379 C 63.312592 81.515839 64.179565 82.180939 65.082153 82.180939 C 65.117798 82.180939 65.165314 82.180939 65.200928 82.180939 C 65.248444 82.180939 65.284058 82.180939 65.319702 82.180939 C 66.22229 82.180939 67.101166 81.515839 67.350555 80.601379 C 67.46933 79.781891 67.160522 78.974304 67.599945 78.214203 C 68.098755 77.074097 69.927734 77.204712 70.937225 76.325867 C 72.077362 75.375763 71.507294 73.297394 70.117737 72.976746 C 68.395691 72.608551 66.744873 72.477936 65.307831 72.477936 Z"/>
    <path id="Path-copy-7" fill="#000000" fill-rule="evenodd" stroke="none" d="M 65.355316 72.751068 C 66.067902 72.751068 66.780487 72.76297 67.46933 72.798584 C 68.039398 72.857971 68.478821 72.976746 69.048889 73.048004 C 70.628448 73.048004 71.067871 74.116852 70.30777 76.325867 C 69.868347 76.765289 68.989502 76.765289 68.419434 77.014709 C 67.980011 77.264099 67.599945 77.454132 67.350555 77.893555 C 66.531097 79.152435 67.908752 81.61087 65.200928 81.872131 C 62.433746 81.61087 63.88266 79.342468 63.181946 78.083588 C 62.932556 77.513519 62.433746 77.264099 61.923065 77.014709 C 61.364868 76.824677 60.54538 76.765289 60.034698 76.325867 C 59.21524 74.437531 59.405273 73.42804 60.414764 73.166748 L 60.54538 73.166748 C 61.174835 72.798584 62.433746 72.857971 63.253204 72.798584 C 63.942047 72.76297 64.654633 72.751068 65.355316 72.751068 Z M 65.770996 72.133514 C 64.713989 72.133514 63.775757 72.192902 63.253204 72.228516 C 61.364868 72.418549 57.70694 72.727325 58.645172 75.625153 C 58.835205 76.195221 59.21524 76.575287 59.654663 76.884064 C 60.165344 77.145355 60.224731 77.074097 60.735413 77.264099 C 61.804291 77.893555 62.362488 78.843658 62.683136 80.043182 C 63.122559 81.492096 63.371979 82.311554 65.141541 82.501587 C 65.153412 82.501587 65.165314 82.501587 65.177185 82.501587 L 65.177185 82.501587 C 65.189056 82.501587 65.189056 82.501587 65.200928 82.501587 C 66.97052 82.311554 67.160522 81.492096 67.659332 80.043182 C 67.980011 78.843658 68.419434 77.893555 69.618958 77.264099 C 69.927734 77.145355 70.30777 77.014709 70.628448 76.884064 C 71.127258 76.575287 71.507294 76.254608 71.626038 75.696411 C 72.694916 72.632324 68.740082 72.133514 65.770996 72.133514 Z"/>
    <path id="Path-copy-6" fill="#ffffff" fill-rule="evenodd" stroke="none" d="M 89.024933 79.306854 C 85.367035 79.306854 81.709106 79.425598 78.063049 79.663147 C 78.039307 79.663147 78.015533 79.663147 78.003662 79.663147 C 77.433594 79.663147 77.445465 80.601379 78.063049 80.601379 C 81.578461 80.375702 85.105743 80.268829 88.633026 80.268829 C 102.480896 80.268829 116.281219 82.014648 129.796539 85.328156 C 129.832184 85.340027 129.867798 85.340027 129.903442 85.340027 C 130.461639 85.340027 130.699158 84.508698 130.045959 84.389923 C 116.590027 81.005157 102.825287 79.306854 89.024933 79.306854 Z"/>
    <path id="Path-copy-5" fill="#ffffff" fill-rule="evenodd" stroke="none" d="M 77.718628 82.406586 C 77.196075 82.406586 76.994171 83.261688 77.683014 83.380432 C 93.811127 85.589447 109.630463 89.366119 124.998505 94.781769 C 125.069763 94.805511 125.12912 94.817383 125.188507 94.817383 C 125.675446 94.817383 125.817963 93.950409 125.259766 93.843536 C 109.879852 88.487274 94.00116 84.69873 77.873016 82.430328 C 77.81366 82.418457 77.766144 82.406586 77.718628 82.406586 Z"/>
    <path id="Path-copy-4" fill="#ffffff" fill-rule="evenodd" stroke="none" d="M 78.027405 85.743835 C 77.504852 85.743835 77.291077 86.551422 77.873016 86.717712 C 87.956085 90.625031 97.908478 94.853027 107.611481 99.508545 C 107.682739 99.556061 107.753998 99.579803 107.825256 99.579803 C 108.252808 99.579803 108.597229 98.843475 108.110291 98.6297 C 98.3479 93.902924 88.395508 89.674927 78.181824 85.77948 C 78.122437 85.755707 78.074921 85.743835 78.027405 85.743835 Z"/>
    <path id="Path-copy-3" fill="#ffffff" fill-rule="evenodd" stroke="none" d="M 41.483795 79.306854 C 27.67157 79.306854 13.942474 81.005157 0.486542 84.389923 C -0.214172 84.508698 0.011505 85.340027 0.569672 85.340027 C 0.605316 85.340027 0.64093 85.340027 0.676575 85.328156 C 14.191895 82.014648 27.992249 80.268829 41.863861 80.268829 C 45.403015 80.268829 48.930298 80.375702 52.469452 80.601379 C 53.087036 80.601379 53.098907 79.663147 52.528839 79.663147 C 52.516968 79.663147 52.493195 79.663147 52.469452 79.663147 C 48.811523 79.425598 45.141724 79.306854 41.483795 79.306854 Z"/>
    <path id="Path-copy-2" fill="#ffffff" fill-rule="evenodd" stroke="none" d="M 52.754486 82.406586 C 52.70697 82.406586 52.659485 82.418457 52.600098 82.430328 C 36.471985 84.69873 20.652649 88.487274 5.272736 93.843536 C 4.714539 93.950409 4.857056 94.817383 5.296478 94.817383 C 5.355865 94.817383 5.403381 94.805511 5.462738 94.781769 C 20.842651 89.366119 36.721375 85.589447 52.849487 83.380432 C 53.431427 83.261688 53.265167 82.406586 52.754486 82.406586 Z"/>
    <path id="Path-copy" fill="#ffffff" fill-rule="evenodd" stroke="none" d="M 52.398193 85.743835 C 52.338806 85.743835 52.279419 85.755707 52.220062 85.77948 C 42.01825 89.674927 32.053955 93.902924 22.291565 98.6297 C 21.804657 98.843475 22.16095 99.579803 22.588501 99.579803 C 22.647858 99.579803 22.731018 99.556061 22.790375 99.508545 C 32.505249 94.853027 42.457672 90.625031 52.54071 86.717712 C 53.110779 86.551422 52.95639 85.743835 52.398193 85.743835 Z"/>
</svg>
