<?xml version="1.0" encoding="UTF-8"?>
<!-- Generated by Pixelmator Pro 3.4.1 -->
<svg width="106" height="91" viewBox="0 0 106 91" xmlns="http://www.w3.org/2000/svg">
    <path id="Path-copy-10" fill="#d9d9d9" fill-rule="evenodd" stroke="none" d="M 6.746704 0.847412 C 5.681091 0.847412 4.653564 1.028198 3.711609 1.484894 C 0.02002 3.254578 -0.779175 8.249634 0.429138 12.083984 C 1.589905 15.918274 4.263428 19.153198 6.033142 22.835266 C 9.515442 30.104309 9.515442 39.247681 15.071838 45.051514 C 15.071838 45.051514 15.928162 47.068542 15.576111 49.941895 C 14.310669 59.484894 17.136475 69.63678 24.158142 76.144684 C 26.926819 78.723083 30.20929 80.740143 33.396667 82.709625 C 36.165344 84.422241 39.048218 86.144348 41.826416 87.809357 C 41.826416 87.809357 45.54657 90.34021 51.455078 90.34021 C 54.404541 90.34021 57.905823 89.71225 61.759216 87.809357 C 64.64209 86.391724 67.36322 84.422241 70.141418 82.709625 C 73.376343 80.740143 76.658813 78.723083 79.42749 76.144684 C 86.449158 69.63678 89.274963 59.484894 88.009521 49.941895 C 87.609924 47.020996 88.513794 45.051514 88.513794 45.051514 C 94.07019 39.247681 94.07019 30.104309 97.55249 22.835266 C 99.265076 19.153198 101.948181 15.918274 103.156494 12.083984 C 104.364807 8.249634 103.508545 3.254578 99.874023 1.484894 C 98.932068 1.028198 97.914063 0.847412 96.857971 0.847412 C 95.602051 0.847412 94.298584 1.104309 93.061707 1.437317 C 83.670959 3.958649 76.097473 11.075439 70.341187 19.048523 C 69.637146 20.057068 68.875977 21.122681 68.171936 22.131226 L 66.402222 21.874329 C 60.769714 20.35202 55.546265 19.828735 51.045959 19.828735 C 41.579041 19.828735 35.356628 22.131226 35.356628 22.131226 C 34.652588 21.122681 33.996094 20.057068 33.244446 19.048523 C 27.48822 11.180115 19.914673 4.006226 10.523926 1.437317 C 9.315613 1.104309 8.012146 0.847412 6.746704 0.847412 Z"/>
    <path id="Path-copy-9" fill="#ffb0ae" fill-rule="evenodd" stroke="none" d="M 7.479309 3.949127 C 7.317566 3.949127 7.155823 3.949127 6.99408 3.958649 C 5.728699 4.006226 4.815308 4.710266 3.958984 5.623657 C 2.798218 6.736877 2.798218 8.049866 2.998047 9.714874 C 3.759216 15.518677 7.945557 20.313965 10.26709 25.661072 C 12.740845 31.265076 12.645691 38.029846 17.088928 42.273285 C 17.088928 42.273285 17.136475 42.282776 17.212585 42.282776 C 17.498047 42.282776 18.249695 42.092499 18.649292 40.256226 C 19.153564 37.934692 20.019348 35.660767 21.275269 33.643677 C 20.371399 33.234558 19.458008 32.578064 18.70636 31.92157 C 18.449463 31.674194 18.249695 31.217499 18.49707 31.0177 C 18.573181 30.960632 18.668335 30.951111 18.753967 30.951111 C 18.8396 30.951111 18.925171 30.960632 19.001343 30.960632 C 19.714905 31.0177 20.371399 31.169922 20.970825 31.217499 C 21.065918 31.236511 21.170593 31.246033 21.275269 31.246033 C 21.503601 31.246033 21.731934 31.188965 21.836609 31.0177 C 21.884216 30.865479 21.836609 30.608582 21.731934 30.408783 L 20.618774 27.383179 C 20.751953 27.192902 20.951782 27.11676 21.161072 27.11676 C 21.465576 27.11676 21.798584 27.259521 22.036438 27.430756 C 22.321838 27.621033 22.702454 27.792297 23.02594 27.792297 C 23.216187 27.792297 23.387451 27.735229 23.501648 27.583008 C 23.65387 27.383179 23.65387 27.126282 23.65387 26.926514 C 23.701416 26.422241 23.701416 25.870392 23.701416 25.309021 C 23.701416 24.957001 23.701416 24.652527 23.901245 24.348083 C 24.07251 24.091187 24.319885 23.872375 24.567261 23.872375 C 24.614807 23.872375 24.662415 23.881866 24.709961 23.900909 C 24.90979 23.948486 25.014465 24.148285 25.166687 24.300507 C 25.870728 25.109253 26.527222 25.965515 27.231323 26.821838 C 27.48822 26.374634 27.735596 25.870392 28.040039 25.413696 C 28.192261 25.213898 28.39209 25.061646 28.544312 25.061646 C 28.74408 25.061646 28.896301 25.213898 29.000977 25.413696 C 29.248352 25.870392 29.505249 26.374634 29.762146 26.821838 L 31.826782 24.909424 C 32.939941 23.948486 31.779175 21.931396 31.722107 21.874329 C 28.39209 18.344482 25.518677 14.966858 21.979309 11.332336 C 18.059387 7.307739 13.083313 3.949127 7.479309 3.949127 Z"/>
    <path id="Path-copy-8" fill="#ffb0ae" fill-rule="evenodd" stroke="none" d="M 8.154846 4.158447 C 10.999695 4.158447 14.24408 5.661743 16.375305 6.936646 C 19.867126 9.001282 22.588257 11.988831 25.261841 14.966858 C 26.679443 16.479645 28.040039 18.040009 29.457703 19.552795 C 30.409119 20.56134 33.444214 22.892395 31.826782 24.852356 C 31.427185 25.213898 31.018066 25.613495 30.56134 25.965515 C 30.466187 26.117767 30.057068 26.622009 29.904846 26.622009 C 29.904846 26.622009 29.895325 26.622009 29.895325 26.622009 C 29.686035 26.622009 29.295959 25.604004 29.153198 25.366119 C 28.896301 25.147278 28.801208 24.976013 28.591858 24.976013 C 28.515747 24.976013 28.420593 25.004578 28.296936 25.061646 C 28.192261 25.109253 28.144714 25.213898 28.040039 25.366119 L 27.48822 26.317566 C 27.383545 26.365143 27.288391 26.384155 27.193237 26.384155 C 26.955383 26.384155 26.746094 26.241455 26.679443 25.917969 C 26.16571 25.518372 25.375977 23.83429 24.576782 23.83429 C 24.34845 23.83429 24.120056 23.967499 23.901245 24.300507 C 23.140076 25.404175 24.681458 27.449768 22.578735 27.449768 C 22.455078 27.449768 22.33136 27.440277 22.18866 27.430756 C 21.712952 27.402222 21.484558 27.154846 21.180115 27.154846 C 21.027893 27.154846 20.856628 27.211914 20.618774 27.383179 L 20.571167 27.430756 C 20.818542 28.191895 21.42749 29.200439 21.475098 29.952087 C 21.579712 30.45636 22.340881 30.865479 20.970825 31.217499 C 20.951782 31.22702 20.923218 31.22702 20.885193 31.22702 C 20.656799 31.22702 20.190613 31.112854 20.066956 31.112854 C 19.829041 31.065277 19.410461 30.941589 19.058411 30.941589 C 18.744446 30.941589 18.468506 31.036743 18.401917 31.369751 C 18.297241 31.92157 19.210632 32.48291 19.562683 32.730286 C 20.219177 33.234558 21.123047 33.434387 20.875671 34.395325 C 20.666321 35.156494 20.066956 35.908142 19.810059 36.669281 L 19.058411 38.743408 C 18.801514 39.599731 18.70636 40.760498 18.192566 41.569214 C 17.916687 42.054443 17.621704 42.244751 17.336304 42.244751 C 16.537048 42.244751 15.766418 40.789032 15.319214 40.056396 C 13.75885 37.525574 13.045288 34.5 12.29364 31.674194 C 11.532471 28.848389 10.628601 26.07019 9.258545 23.444214 C 7.698181 20.361511 5.681091 17.535767 4.41571 14.310364 C 3.055115 11.075439 1.742126 5.775909 6.280518 4.415344 C 6.879944 4.234558 7.507874 4.158447 8.154846 4.158447 Z M 7.869446 3.882507 C 7.108276 3.882507 6.394714 3.987183 5.776245 4.263123 C -0.227356 6.936646 4.520325 15.318878 6.689636 19.105621 C 8.449829 22.283447 10.26709 25.366119 11.332703 28.895996 C 12.188965 31.873993 12.797913 35.004242 13.958679 37.830017 C 14.558044 39.247681 15.366821 40.560669 16.375305 41.721436 C 16.736877 42.111511 16.841553 42.387451 17.165039 42.387451 C 17.260193 42.387451 17.364807 42.368408 17.488525 42.320862 C 18.344849 42.121033 18.601685 40.960266 18.753967 40.256226 C 19.410461 37.934692 20.162048 35.765411 21.42749 33.691254 L 21.42749 33.539032 C 20.770996 33.234558 20.219177 32.930115 19.657837 32.48291 C 19.410461 32.273621 19.105957 32.026245 18.84906 31.873993 C 18.744446 31.303131 18.84906 31.0177 19.153564 31.0177 C 19.248718 31.0177 19.372375 31.055756 19.505554 31.112854 C 19.572205 31.103333 19.638794 31.093811 19.714905 31.093811 C 20.162048 31.093811 20.713928 31.369751 21.199158 31.369751 C 21.351379 31.369751 21.49408 31.341187 21.627319 31.265076 C 22.54071 30.608582 21.123047 29.143372 21.123047 28.344147 C 20.72345 27.839874 20.875671 27.630554 21.475098 27.630554 C 21.655823 27.506866 21.836609 27.440277 21.998352 27.440277 C 22.160095 27.440277 22.312317 27.506866 22.436035 27.630554 C 22.54071 27.630554 22.740479 27.735229 22.8927 27.735229 C 23.197205 27.735229 23.44458 27.735229 23.65387 27.478333 C 24.053467 26.878906 23.549194 25.870392 23.79657 25.156799 C 24.101074 24.338562 24.395996 24.062653 24.681458 24.062653 C 25.11908 24.062653 25.518677 24.709625 25.823181 25.109253 C 26.270325 25.661072 26.774597 26.222412 27.231323 26.821838 C 27.250305 26.840881 27.269348 26.850372 27.27887 26.850372 C 27.307434 26.850372 27.335938 26.821838 27.335938 26.821838 C 27.55481 26.384155 27.97345 25.347107 28.687012 25.347107 C 28.791687 25.347107 28.886841 25.366119 29.000977 25.413696 C 29.248352 25.565918 29.657471 26.574463 29.762146 26.821838 C 29.762146 26.850372 29.771667 26.859894 29.79071 26.859894 C 29.809692 26.859894 29.828735 26.850372 29.8573 26.821838 L 31.893372 24.985535 L 31.893372 24.985535 C 31.902893 24.985535 31.921936 24.995056 31.931458 24.995056 C 31.950439 24.995056 31.969482 24.985535 31.979004 24.957001 C 33.444214 23.187317 31.32251 21.32251 30.266418 20.161743 C 27.640442 17.231262 24.957336 14.205688 22.18866 11.42749 C 19.810059 9.001282 17.088928 6.784424 13.911072 5.423889 C 12.312683 4.719788 9.934082 3.882507 7.869446 3.882507 Z"/>
    <path id="Path-copy-7" fill="#ffb0ae" fill-rule="evenodd" stroke="none" d="M 96.210938 3.949127 C 90.597473 3.949127 85.63092 7.307739 81.701416 11.332336 C 78.17157 14.966858 75.345825 18.344482 71.958679 21.874329 C 71.911072 21.931396 70.797913 23.948486 71.854004 24.909424 L 73.928162 26.821838 C 74.185059 26.374634 74.432434 25.870392 74.689331 25.413696 C 74.841553 25.213898 74.936707 25.061646 75.136475 25.061646 C 75.345825 25.061646 75.488525 25.213898 75.640747 25.413696 C 75.94519 25.870392 76.202087 26.374634 76.449463 26.821838 C 77.163086 25.965515 77.867126 25.109253 78.523621 24.300507 C 78.675842 24.148285 78.770996 23.948486 78.980347 23.900909 C 79.018372 23.881866 79.065918 23.872375 79.113525 23.872375 C 79.379944 23.872375 79.655823 24.091187 79.779541 24.348083 C 79.931763 24.652527 79.988831 24.957001 79.988831 25.309021 C 79.988831 25.870392 79.988831 26.422241 80.036438 26.926514 C 80.036438 27.126282 80.036438 27.383179 80.18866 27.583008 C 80.302795 27.735229 80.4646 27.792297 80.654846 27.792297 C 80.978333 27.792297 81.368469 27.621033 81.65387 27.430756 C 81.882202 27.259521 82.224731 27.11676 82.519714 27.11676 C 82.738525 27.11676 82.938293 27.192902 83.062012 27.383179 L 81.958313 30.408783 C 81.901245 30.608582 81.806091 30.865479 81.901245 31.0177 C 81.977356 31.188965 82.186707 31.246033 82.415039 31.246033 C 82.519714 31.246033 82.614807 31.236511 82.709961 31.217499 C 83.318909 31.169922 83.975403 31.0177 84.679443 30.960632 C 84.755554 30.960632 84.841187 30.951111 84.93634 30.951111 C 85.021973 30.951111 85.107605 30.960632 85.183716 31.0177 C 85.440613 31.217499 85.231323 31.674194 84.983948 31.92157 C 84.222778 32.578064 83.318909 33.234558 82.405518 33.643677 C 83.670959 35.660767 84.527222 37.934692 85.031494 40.256226 C 85.431091 42.092499 86.182739 42.282776 86.477722 42.282776 C 86.553833 42.282776 86.601379 42.273285 86.601379 42.273285 C 91.044617 38.029846 90.987549 31.265076 93.413696 25.661072 C 95.782837 20.313965 99.92157 15.518677 100.682739 9.714874 C 100.882568 8.049866 100.882568 6.736877 99.721802 5.623657 C 98.865479 4.710266 97.961609 4.006226 96.696167 3.958649 C 96.534424 3.949127 96.372681 3.949127 96.210938 3.949127 Z"/>
    <path id="Path-copy-6" fill="#ffb0ae" fill-rule="evenodd" stroke="none" d="M 82.738525 34.319214 C 82.843201 34.766388 83.185669 35.318237 83.490173 35.812988 L 83.490173 35.812988 C 83.261841 35.299194 83.004944 34.804443 82.738525 34.319214 Z M 95.744751 3.892029 C 94.403198 3.892029 92.995056 4.253601 91.701111 4.66272 C 88.666016 5.623657 86.040039 7.393372 83.623352 9.4104 C 80.293335 12.283783 77.458008 15.766052 74.47998 19.048523 C 73.328735 20.304443 70.093811 22.797241 71.768372 24.861877 L 71.768372 24.861877 C 71.768372 24.871368 71.777893 24.890411 71.806458 24.909424 L 71.806458 24.909424 L 71.806458 24.909424 C 71.806458 24.909424 71.806458 24.909424 71.806458 24.909424 L 71.806458 24.909424 L 73.880554 26.821838 C 73.890076 26.840881 73.909119 26.850372 73.928162 26.850372 C 73.956665 26.850372 73.975708 26.821838 73.975708 26.821838 C 74.12793 26.622009 74.537048 25.461273 74.736877 25.413696 C 75.136475 25.565918 75.488525 25.661072 75.897644 25.870392 C 76.097473 26.165344 76.249695 26.469788 76.401917 26.821838 C 76.401917 26.850372 76.411438 26.859894 76.43042 26.859894 C 76.449463 26.859894 76.478027 26.850372 76.506592 26.821838 C 76.906189 26.317566 77.362854 25.813293 77.714905 25.366119 C 78.057434 24.918945 78.466553 24.157776 78.961304 24.157776 C 79.256226 24.157776 79.579712 24.433716 79.931763 25.213898 C 80.236206 25.870392 79.579712 26.926514 80.141052 27.583008 C 80.293335 27.839874 80.436035 27.839874 80.692932 27.839874 C 80.730957 27.839874 80.759521 27.849396 80.788086 27.849396 C 80.968811 27.849396 81.035461 27.725708 81.301819 27.687653 L 81.701416 27.478333 C 81.834656 27.468811 81.958313 27.45929 82.062988 27.45929 C 82.824158 27.45929 83.014465 27.773285 82.662415 28.391724 C 82.510193 29.200439 81.197205 30.665649 82.110596 31.369751 C 82.243774 31.455383 82.395996 31.483887 82.567261 31.483887 C 83.100098 31.483887 83.766052 31.169922 84.222778 31.169922 C 86.296936 31.265076 83.014465 33.291656 82.405518 33.643677 C 82.310364 33.643677 82.310364 33.691254 82.405518 33.738831 C 82.519714 33.929138 82.63385 34.128906 82.738525 34.319214 L 82.738525 34.319214 C 82.719482 34.243103 82.709961 34.166992 82.709961 34.090881 C 82.662415 32.834961 85.231323 32.777893 85.288391 31.521973 C 85.288391 31.0177 85.183716 30.960632 84.679443 30.960632 C 84.660461 30.960632 84.631897 30.960632 84.612854 30.960632 C 84.184692 30.960632 83.528198 31.198486 82.985901 31.198486 C 82.538696 31.198486 82.167664 31.036743 82.053467 30.45636 C 81.958313 29.799866 83.014465 27.982605 83.214233 27.430756 C 83.214233 27.383179 83.214233 27.383179 83.166687 27.383179 C 82.947815 27.211914 82.77655 27.154846 82.624329 27.154846 C 82.291321 27.154846 82.024963 27.402222 81.549194 27.430756 C 81.416016 27.440277 81.282837 27.449768 81.16864 27.449768 C 79.104004 27.449768 80.597778 25.394653 79.884216 24.25293 C 79.665344 23.919922 79.437012 23.796265 79.218201 23.796265 C 78.399963 23.796265 77.581665 25.518372 77.105957 25.917969 C 77.010803 26.222412 76.8396 26.365143 76.611206 26.365143 C 76.506592 26.365143 76.382874 26.336609 76.249695 26.27002 L 75.697815 25.366119 C 75.640747 25.261475 75.593201 25.109253 75.440918 25.004578 C 75.326782 24.966522 75.231628 24.94751 75.155518 24.94751 C 74.946167 24.94751 74.860596 25.099731 74.632202 25.366119 C 74.384827 25.604004 74.089905 26.622009 73.890076 26.622009 C 73.890076 26.622009 73.880554 26.622009 73.880554 26.622009 C 73.671265 26.526886 73.319214 26.117767 73.166992 25.965515 C 72.719849 25.613495 72.367798 25.213898 71.911072 24.861877 L 71.911072 24.861877 C 71.930115 24.833313 71.930115 24.795258 71.911072 24.757202 C 70.445862 23.092163 72.615173 21.274902 73.623718 20.161743 C 74.936707 18.74408 76.249695 17.288391 77.515076 15.823151 C 79.988831 13.044922 82.510193 10.266724 85.48822 7.992767 C 88.218811 5.975708 91.396667 4.415344 94.83136 4.063293 C 95.097778 4.03476 95.364197 4.025269 95.630554 4.025269 C 97.314636 4.025269 98.779846 4.491455 99.874023 5.975708 C 101.139465 7.545593 100.635193 9.867126 100.13092 11.627258 C 98.465881 17.887787 93.870422 22.939941 92.053162 29.200439 C 91.139771 32.178467 90.635498 35.251617 89.32251 38.086914 C 88.818237 39.295258 87.914368 41.112518 86.848755 41.873657 C 86.629944 42.0354 86.487183 42.159119 86.315918 42.159119 C 86.173218 42.159119 86.020996 42.073486 85.792664 41.873657 C 85.088562 41.264771 84.983948 39.751953 84.727051 38.886139 C 84.479675 38.086914 84.222778 37.325775 83.927795 36.564636 C 83.842224 36.364807 83.670959 36.098389 83.490173 35.812988 L 83.490173 35.812988 C 84.013428 36.916656 84.441589 38.067902 84.784119 39.247681 C 85.031494 40.104004 85.088562 41.61676 85.992432 42.225708 C 86.173218 42.339874 86.354004 42.387451 86.525269 42.387451 C 87.533813 42.387451 88.333008 40.579712 88.770691 39.847107 C 90.388123 37.22113 91.044617 34.147949 91.853333 31.169922 C 92.709656 27.687653 94.07019 24.557404 95.839905 21.370056 C 97.447815 18.496704 99.265076 15.566254 100.226074 12.283783 C 100.987183 9.762451 101.491455 6.984253 99.265076 5.119385 C 98.237549 4.215515 97.019714 3.892029 95.744751 3.892029 Z"/>
    <path id="Path-copy-5" fill="#211a12" fill-rule="evenodd" stroke="none" d="M 30.666016 55.955017 C 29.248352 55.955017 28.144714 57.115784 28.144714 58.476379 L 28.144714 60.046265 C 28.144714 61.454376 29.248352 62.567566 30.666016 62.567566 C 32.02655 62.567566 33.187317 61.454376 33.187317 60.046265 L 33.187317 58.476379 C 33.187317 57.115784 32.02655 55.955017 30.666016 55.955017 Z"/>
    <path id="Path-copy-4" fill="#211a12" fill-rule="evenodd" stroke="none" d="M 73.071838 55.955017 C 71.654175 55.955017 70.550537 57.115784 70.550537 58.476379 L 70.550537 60.046265 C 70.550537 61.454376 71.654175 62.567566 73.071838 62.567566 C 74.432434 62.567566 75.593201 61.454376 75.593201 60.046265 L 75.593201 58.476379 C 75.593201 57.115784 74.432434 55.955017 73.071838 55.955017 Z"/>
    <path id="Path-copy-3" fill="#ffb0ae" fill-rule="evenodd" stroke="none" d="M 51.826111 70.692902 C 49.894714 70.692902 48.486572 71.65387 48.486572 71.65387 C 48.134521 72.35791 48.381897 73.318878 49.095459 73.670929 C 49.44751 73.870728 49.894714 73.927795 50.15155 74.279846 C 50.256226 74.374969 50.351379 74.58429 50.456055 74.784119 C 50.665344 75.079041 50.998352 75.288361 51.350403 75.393036 L 51.207703 75.393036 C 51.378967 75.431091 51.54071 75.459625 51.702454 75.459625 C 51.721436 75.459625 51.75 75.459625 51.769043 75.459625 L 51.769043 75.459625 C 51.788086 75.459625 51.807068 75.459625 51.826111 75.459625 C 51.978333 75.459625 52.130554 75.431091 52.273315 75.393036 L 52.187683 75.393036 C 52.539673 75.288361 52.844177 75.079041 53.024963 74.784119 C 53.177185 74.631866 53.234253 74.374969 53.386475 74.279846 C 53.63385 73.927795 54.042969 73.870728 54.442566 73.670929 C 55.051514 73.318878 55.65094 72.110535 54.994446 71.65387 C 53.890747 70.930756 52.79657 70.692902 51.826111 70.692902 Z"/>
    <path id="Path-copy-2" fill="#ffb0ae" fill-rule="evenodd" stroke="none" d="M 48.477051 72.024933 C 47.906189 73.071503 48.648315 73.414032 49.323792 73.689941 L 49.323792 73.689941 C 48.924194 73.40451 48.581665 73.081024 48.486572 72.557739 C 48.448486 72.367432 48.438965 72.186676 48.477051 72.024933 Z M 51.968811 70.531158 C 51.645325 70.531158 51.359924 70.559692 51.160095 70.588257 C 50.199158 70.68338 48.667297 70.997375 48.477051 72.024933 L 48.477051 72.024933 C 48.477051 72.024933 48.486572 72.015411 48.486572 72.00589 C 48.838562 71.349396 49.599731 71.149597 50.256226 70.997375 C 50.750977 70.845123 51.226685 70.778534 51.711975 70.778534 C 51.864197 70.778534 52.016418 70.778534 52.16864 70.797546 C 52.672913 70.797546 53.129578 70.8927 53.529175 71.044922 C 53.938293 71.149597 54.242798 71.301819 54.642395 71.501617 C 54.794617 72.00589 54.946838 72.462585 55.146667 72.919281 C 54.994446 73.575775 54.042969 73.670929 53.681458 74.022949 C 53.07251 74.479645 52.872681 75.164673 52.225708 75.345459 L 52.225708 75.345459 C 52.083008 75.373993 51.949829 75.393036 51.835632 75.393036 L 51.835632 75.393036 C 51.711975 75.393036 51.569214 75.373993 51.416992 75.335938 L 51.416992 75.335938 C 50.798584 75.14566 50.636841 74.470123 49.999329 74.022949 C 49.837585 73.899261 49.580688 73.804108 49.323792 73.689941 L 49.323792 73.689941 C 49.732971 73.994415 50.199158 74.241791 50.503601 74.631866 C 50.779541 74.955353 51.036438 75.202728 51.340881 75.345459 L 51.340881 75.345459 C 51.264771 75.373993 51.274292 75.440613 51.312317 75.440613 C 51.502625 75.488159 51.683411 75.507202 51.845154 75.507202 C 51.911743 75.507202 51.978333 75.507202 52.035461 75.497681 L 52.035461 75.497681 C 52.178162 75.488159 52.320862 75.469147 52.473083 75.440613 C 52.454041 75.440613 52.44458 75.412048 52.425537 75.393036 L 52.425537 75.393036 C 52.710938 75.269348 52.967834 75.050507 53.234253 74.736542 C 53.833679 74.127594 55.09906 73.623352 55.451111 72.614807 C 55.945862 70.997375 53.481628 70.531158 51.968811 70.531158 Z"/>
    <path id="Path-copy" fill="#999999" fill-rule="evenodd" stroke="none" d="M 65.9646 75.107605 C 65.745728 75.107605 65.536438 75.240784 65.498352 75.535736 C 64.841858 78.161743 62.7677 79.88385 60.246399 80.692566 C 60.094177 80.740143 59.999023 80.740143 59.846802 80.78772 C 58.961975 81.025574 58.02002 81.187317 57.106628 81.187317 C 55.137146 81.187317 53.300842 80.473724 52.473083 78.371033 C 52.473083 78.114166 52.225708 77.914368 51.968811 77.914368 L 51.816589 77.914368 C 51.569214 77.914368 51.312317 78.114166 51.312317 78.371033 C 50.513123 80.464233 48.629272 81.187317 46.621704 81.187317 C 45.832031 81.187317 45.013794 81.073151 44.243103 80.892365 C 44.147949 80.892365 44.090881 80.78772 43.93866 80.78772 C 41.322205 80.131226 39.048218 78.266388 38.334656 75.592834 C 38.258545 75.288361 38.030212 75.155182 37.792297 75.155182 C 37.449829 75.155182 37.088257 75.440613 37.173889 75.897308 C 38.08728 79.427155 41.169922 81.548859 44.595154 82.205353 C 44.652222 82.205353 44.747375 82.205353 44.852051 82.25293 C 45.908142 84.174866 47.677795 85.582977 49.751953 86.239471 C 50.503601 86.458313 51.274292 86.562988 52.054443 86.562988 C 54.423584 86.562988 56.783142 85.60202 58.381592 83.822815 C 58.838257 83.318542 59.237854 82.757202 59.589905 82.205353 C 62.872375 81.501282 65.850403 79.379578 66.659119 75.944855 C 66.716187 75.42157 66.316589 75.107605 65.9646 75.107605 Z"/>
</svg>
