<?xml version="1.0" encoding="UTF-8"?>
<!-- Generated by Pixelmator Pro 3.4.1 -->
<svg width="148" height="123" viewBox="0 0 148 123" xmlns="http://www.w3.org/2000/svg">
    <path id="Path-copy-25" fill="#272425" fill-rule="evenodd" stroke="none" d="M 22.82618 1.038574 C 16.203697 1.038574 1.749298 37.123352 21.405403 52.599976 L 46.638947 29.361572 C 46.638947 29.361572 29.695251 3.504517 23.401543 1.144287 C 23.213669 1.073822 23.025795 1.038574 22.82618 1.038574 Z"/>
    <path id="Path-copy-24" fill="#b7b7b7" fill-rule="evenodd" stroke="none" d="M 22.274719 13.168762 C 20.384254 13.168762 18.846054 14.683533 18.0476 18.652496 C 14.618935 36.031433 20.842194 45.683777 20.842194 45.683777 L 38.971832 30.359802 C 38.971832 30.359802 28.615395 13.168762 22.274719 13.168762 Z"/>
    <path id="Path-copy-23" fill="#272425" fill-rule="evenodd" stroke="none" d="M 126.464233 1.038574 C 126.264618 1.038574 126.076752 1.073822 125.88887 1.144287 C 119.595169 3.504517 102.710175 29.361572 102.710175 29.361572 L 127.943726 52.599976 C 147.599823 37.123352 133.086716 1.038574 126.464233 1.038574 Z"/>
    <path id="Path-copy-22" fill="#b7b7b7" fill-rule="evenodd" stroke="none" d="M 127.016357 13.168762 C 120.663925 13.168762 110.307495 30.359802 110.307495 30.359802 L 128.437134 45.683777 C 128.437134 45.683777 134.672134 36.031433 131.243469 18.652496 C 130.445007 14.683533 128.906815 13.168762 127.016357 13.168762 Z"/>
    <path id="Path-copy-21" fill="#272425" fill-rule="evenodd" stroke="none" d="M 74.362122 21.635193 C 39.852394 21.635193 11.871223 44.13385 11.871223 71.916656 C 11.871223 99.769897 39.852386 122.256836 74.362122 122.256836 C 108.813126 122.256836 136.782562 99.769928 136.782562 71.916656 C 136.782562 44.192566 108.813126 21.705627 74.362122 21.635193 Z"/>
    <path id="Path-copy-20" fill="none" stroke="none" d="M 60.341888 90.235565 L 2.712173 76.778625"/>
    <path id="Path-copy-19" fill="none" stroke="#424243" stroke-width="0.181102" stroke-linecap="round" stroke-linejoin="round" d="M 60.341888 90.235565 L 2.712173 76.778625"/>
    <path id="Path-copy-18" fill="none" stroke="none" d="M 60.342155 95.34375 L 11.190163 102.506714"/>
    <path id="Path-copy-17" fill="none" stroke="#424243" stroke-width="0.181102" stroke-linecap="round" stroke-linejoin="round" d="M 60.342155 95.34375 L 11.190163 102.506714"/>
    <path id="Path-copy-16" fill="none" stroke="none" d="M 60.341949 92.971741 L 4.76709 91.233826"/>
    <path id="Path-copy-15" fill="none" stroke="#424243" stroke-width="0.181102" stroke-linecap="round" stroke-linejoin="round" d="M 60.341949 92.971741 L 4.76709 91.233826"/>
    <path id="Path-copy-14" fill="none" stroke="none" d="M 87.257217 90.235565 L 144.886932 76.778625"/>
    <path id="Path-copy-13" fill="none" stroke="#424243" stroke-width="0.181102" stroke-linecap="round" stroke-linejoin="round" d="M 87.257217 90.235565 L 144.886932 76.778625"/>
    <path id="Path-copy-12" fill="none" stroke="none" d="M 87.257217 95.34375 L 136.40921 102.506714"/>
    <path id="Path-copy-11" fill="none" stroke="#424243" stroke-width="0.181102" stroke-linecap="round" stroke-linejoin="round" d="M 87.257217 95.34375 L 136.40921 102.506714"/>
    <path id="Path-copy-10" fill="none" stroke="none" d="M 87.257217 92.971741 L 142.890793 91.233826"/>
    <path id="Path-copy-9" fill="none" stroke="#424243" stroke-width="0.181102" stroke-linecap="round" stroke-linejoin="round" d="M 87.257217 92.971741 L 142.890793 91.233826"/>
    <path id="Path-copy-8" fill="#424243" fill-rule="evenodd" stroke="none" d="M 74.42244 91.668304 C 74.046692 91.668304 73.741409 91.985352 73.741409 92.349365 L 73.741409 99.019135 C 73.741409 101.766876 71.557388 103.93924 68.821503 103.93924 C 66.073883 103.93924 63.901611 101.766876 63.901611 99.019135 C 63.901611 98.643372 63.584579 98.338074 63.208832 98.338074 C 62.833092 98.338074 62.527794 98.643372 62.527794 99.019135 C 62.527794 102.577118 65.392838 105.442291 68.880219 105.442291 C 71.369522 105.442291 73.494827 104.009705 74.551605 101.954773 C 75.667084 103.93924 77.792389 105.442291 80.281693 105.442291 C 83.769058 105.442291 86.634109 102.577118 86.634109 99.019135 C 86.387527 98.713806 86.01178 98.39679 85.636047 98.39679 C 85.2603 98.39679 84.955002 98.713806 84.955002 99.148315 C 84.955002 101.825592 82.770996 104.009705 80.03511 104.009705 C 77.287491 104.009705 75.115219 101.825592 75.115219 99.148315 L 75.115219 92.349365 C 75.115219 91.985352 74.798187 91.668304 74.42244 91.668304 Z"/>
    <path id="Path-copy-7" fill="#424243" fill-rule="evenodd" stroke="none" d="M 69.749329 103.939392 C 69.197449 103.939392 68.821701 104.315125 68.821701 104.878784 C 68.821701 107.931824 71.311005 110.421265 74.363922 110.421265 C 77.358139 110.421265 79.847443 107.931824 79.847443 104.878784 C 79.847443 104.315125 79.471695 103.939392 78.908081 103.939392 C 78.414917 103.939392 77.980469 104.315125 77.980469 104.878784 C 77.980469 106.933716 76.360062 108.554199 74.363922 108.554199 C 72.309082 108.554199 70.68869 106.933716 70.68869 104.878784 C 70.68869 104.315125 70.312943 103.939392 69.749329 103.939392 Z"/>
    <path id="Path-copy-6" fill="#6d6e6f" fill-rule="evenodd" stroke="none" d="M 74.657288 78.645721 C 74.469421 78.645721 74.363739 78.645721 74.363739 78.645721 C 74.363739 78.645721 74.293289 78.645721 74.164124 78.645721 C 72.637665 78.645721 62.903549 78.857086 62.903549 84.258667 C 62.903549 90.106415 74.363739 94.850403 74.363739 94.850403 C 74.363739 94.850403 85.765213 90.106415 85.765213 84.258667 C 85.765213 78.904053 76.430328 78.645721 74.657288 78.645721 Z"/>
    <path id="Path-copy-5" fill="#ffffff" fill-rule="evenodd" stroke="none" d="M 68.939011 81.076447 C 66.95462 81.076447 65.263763 82.074585 65.263763 83.319275 C 65.263763 84.563965 66.95462 85.562073 68.939011 85.562073 C 70.993866 85.562073 72.614258 84.563965 72.614258 83.319275 C 72.614258 82.074585 70.993866 81.076447 68.939011 81.076447 Z"/>
    <path id="Path-copy-4" fill="#f5db39" fill-rule="evenodd" stroke="none" d="M 51.783241 65.036011 C 50.162842 65.036011 48.049286 66.069336 46.205795 67.865967 C 43.587326 70.543243 42.647972 73.91333 44.021782 75.287231 C 44.831978 76.085693 48.025803 76.261841 50.667747 76.261841 C 52.746086 76.261841 54.483902 76.156158 54.483902 76.156158 C 54.483902 76.156158 55.106224 67.12616 53.61499 65.693573 C 53.157051 65.247375 52.522987 65.036011 51.783241 65.036011 Z"/>
    <path id="Path-copy-3" fill="#b4a331" fill-rule="evenodd" stroke="none" d="M 50.808815 65.86972 C 50.808815 65.86972 48.695251 67.67807 48.202087 70.296661 C 47.638474 72.973938 48.883125 75.475098 48.883125 75.475098 C 48.883125 75.475098 50.996689 73.666748 51.501595 70.989441 C 52.065208 68.37088 50.808815 65.86972 50.808815 65.86972 Z"/>
    <path id="Path-copy-2" fill="#f5db39" fill-rule="evenodd" stroke="none" d="M 97.343811 65.036011 C 96.615814 65.036011 95.993484 65.247375 95.547287 65.693573 C 94.114761 67.12616 94.678375 76.156158 94.678375 76.156158 C 94.678375 76.156158 96.416199 76.261841 98.482788 76.261841 C 101.124741 76.261841 104.306824 76.085693 105.081787 75.287231 C 106.514313 73.91333 105.574951 70.543243 102.897781 67.865967 C 101.089508 66.069336 98.964203 65.036011 97.343811 65.036011 Z"/>
    <path id="Path-copy" fill="#b4a331" fill-rule="evenodd" stroke="none" d="M 98.353729 65.86972 C 98.353729 65.86972 97.10907 68.37088 97.602234 70.989441 C 98.165848 73.666748 100.279404 75.475098 100.279404 75.475098 C 100.279404 75.475098 101.524063 72.973938 100.960449 70.296661 C 100.408569 67.67807 98.353729 65.86972 98.353729 65.86972 Z"/>
</svg>
