<?xml version="1.0" encoding="UTF-8"?>
<!-- Generated by Pixelmator Pro 3.4.1 -->
<svg width="98" height="96" viewBox="0 0 98 96" xmlns="http://www.w3.org/2000/svg">
    <path id="Path-copy-81" fill="#fdfdfd" fill-rule="evenodd" stroke="none" d="M 10.437378 14.384094 C 9.104736 14.384094 7.914551 15.347961 7.763672 16.848236 C 7.411682 21.11438 7.411682 28.632538 10.965393 36.100403 C 10.965393 36.100403 11.275513 33.47702 12.742249 30.543518 C 14.03302 27.962036 16.262451 25.162628 19.858093 23.519867 C 19.858093 23.519867 17.544861 17.962982 11.853821 14.761261 C 11.635925 14.627167 11.409607 14.534973 11.191711 14.493042 C 10.940247 14.417633 10.68042 14.384094 10.437378 14.384094 Z"/>
    <path id="Path-copy-80" fill="none" stroke="#fdfdfd" stroke-width="8" stroke-linejoin="round" d="M 10.437378 14.384094 C 9.104736 14.384094 7.914551 15.347961 7.763672 16.848236 C 7.411682 21.11438 7.411682 28.632538 10.965393 36.100403 C 10.965393 36.100403 11.275513 33.47702 12.742249 30.543518 C 14.03302 27.962036 16.262451 25.162628 19.858093 23.519867 C 19.858093 23.519867 17.544861 17.962982 11.853821 14.761261 C 11.635925 14.627167 11.409607 14.534973 11.191711 14.493042 C 10.940247 14.417633 10.68042 14.384094 10.437378 14.384094 Z"/>
    <path id="Path-copy-79" fill="#fdfdfd" fill-rule="evenodd" stroke="none" d="M 11.191772 14.400848 C 11.141479 14.576874 11.099609 14.803162 11.099609 15.021088 C 10.747559 18.583191 10.697266 24.408295 12.742371 30.543518 C 14.033081 27.962036 16.262573 25.162628 19.858215 23.519867 C 19.858215 23.519867 17.544922 17.962982 11.853943 14.669067 C 11.635986 14.576874 11.409668 14.442749 11.191772 14.400848 Z"/>
    <path id="Path-copy-78" fill="none" stroke="#fdfdfd" stroke-width="8" stroke-linejoin="round" d="M 11.191772 14.400848 C 11.141479 14.576874 11.099609 14.803162 11.099609 15.021088 C 10.747559 18.583191 10.697266 24.408295 12.742371 30.543518 C 14.033081 27.962036 16.262573 25.162628 19.858215 23.519867 C 19.858215 23.519867 17.544922 17.962982 11.853943 14.669067 C 11.635986 14.576874 11.409668 14.442749 11.191772 14.400848 Z"/>
    <path id="Path-copy-77" fill="#fdfdfd" fill-rule="evenodd" stroke="none" d="M 81.907104 6.413147 C 81.010254 6.413147 80.088318 6.555634 79.183105 6.840607 C 65.973938 11.157043 56.016785 20.586182 56.016785 20.586182 C 82.560852 24.852325 87.103577 40.726776 87.103577 40.726776 C 92.040222 30.141022 91.906128 20.401764 90.749512 13.780426 C 89.978394 9.422089 86.122925 6.413147 81.907104 6.413147 Z"/>
    <path id="Path-copy-76" fill="none" stroke="#fdfdfd" stroke-width="8" stroke-linejoin="round" d="M 81.907104 6.413147 C 81.010254 6.413147 80.088318 6.555634 79.183105 6.840607 C 65.973938 11.157043 56.016785 20.586182 56.016785 20.586182 C 82.560852 24.852325 87.103577 40.726776 87.103577 40.726776 C 92.040222 30.141022 91.906128 20.401764 90.749512 13.780426 C 89.978394 9.422089 86.122925 6.413147 81.907104 6.413147 Z"/>
    <path id="Path-copy-75" fill="#fdfdfd" fill-rule="evenodd" stroke="none" d="M 82.343567 6.396393 L 82.343567 6.396393 C 84.480835 7.687134 86.031372 9.824402 86.475586 12.489685 C 87.456238 18.272888 87.682495 26.495087 84.34668 35.521912 C 86.475586 38.547607 87.104187 40.726776 87.104187 40.726776 C 92.040894 30.141022 91.856506 20.401764 90.750122 13.780426 C 90.03772 9.514282 86.433716 6.572388 82.343567 6.396393 Z"/>
    <path id="Path-copy-74" fill="none" stroke="#fdfdfd" stroke-width="8" stroke-linejoin="round" d="M 82.343567 6.396393 L 82.343567 6.396393 C 84.480835 7.687134 86.031372 9.824402 86.475586 12.489685 C 87.456238 18.272888 87.682495 26.495087 84.34668 35.521912 C 86.475586 38.547607 87.104187 40.726776 87.104187 40.726776 C 92.040894 30.141022 91.856506 20.401764 90.750122 13.780426 C 90.03772 9.514282 86.433716 6.572388 82.343567 6.396393 Z"/>
    <path id="Path-copy-73" fill="#fdfdfd" fill-rule="evenodd" stroke="none" d="M 80.507629 7.98053 C 80.138794 7.98053 79.761658 8.047577 79.409607 8.173279 C 76.157654 9.288025 69.494385 11.911407 65.353943 15.649536 C 65.353943 15.649536 70.33252 16.177582 74.204773 18.138824 C 74.590332 18.306458 75.000977 18.390259 75.411682 18.390259 C 76.1828 18.390259 76.928711 18.096924 77.448364 17.518585 C 78.56311 16.40387 80.205872 14.895203 81.982727 13.864288 C 83.541687 12.975861 84.078125 10.981079 83.139404 9.422119 L 83.097473 9.380219 C 82.510742 8.466644 81.521729 7.98053 80.507629 7.98053 Z"/>
    <path id="Path-copy-72" fill="none" stroke="#fdfdfd" stroke-width="8" stroke-linejoin="round" d="M 80.507629 7.98053 C 80.138794 7.98053 79.761658 8.047577 79.409607 8.173279 C 76.157654 9.288025 69.494385 11.911407 65.353943 15.649536 C 65.353943 15.649536 70.33252 16.177582 74.204773 18.138824 C 74.590332 18.306458 75.000977 18.390259 75.411682 18.390259 C 76.1828 18.390259 76.928711 18.096924 77.448364 17.518585 C 78.56311 16.40387 80.205872 14.895203 81.982727 13.864288 C 83.541687 12.975861 84.078125 10.981079 83.139404 9.422119 L 83.097473 9.380219 C 82.510742 8.466644 81.521729 7.98053 80.507629 7.98053 Z"/>
    <path id="Path-copy-71" fill="#fdfdfd" fill-rule="evenodd" stroke="none" d="M 86.165344 14.384094 C 85.913879 14.384094 85.662476 14.417633 85.411011 14.493042 C 85.184692 14.534973 84.966797 14.627167 84.740479 14.761261 C 79.007568 17.962982 76.736206 23.519867 76.736206 23.519867 C 80.340271 25.162628 82.56134 27.962036 83.852051 30.543518 C 85.36908 33.47702 85.637329 36.100403 85.637329 36.100403 C 89.19104 28.632538 89.19104 21.11438 88.88092 16.848236 C 88.730042 15.347961 87.506348 14.384094 86.165344 14.384094 Z"/>
    <path id="Path-copy-70" fill="none" stroke="#fdfdfd" stroke-width="8" stroke-linejoin="round" d="M 86.165344 14.384094 C 85.913879 14.384094 85.662476 14.417633 85.411011 14.493042 C 85.184692 14.534973 84.966797 14.627167 84.740479 14.761261 C 79.007568 17.962982 76.736206 23.519867 76.736206 23.519867 C 80.340271 25.162628 82.56134 27.962036 83.852051 30.543518 C 85.36908 33.47702 85.637329 36.100403 85.637329 36.100403 C 89.19104 28.632538 89.19104 21.11438 88.88092 16.848236 C 88.730042 15.347961 87.506348 14.384094 86.165344 14.384094 Z"/>
    <path id="Path-copy-69" fill="#fdfdfd" fill-rule="evenodd" stroke="none" d="M 85.411011 14.400848 C 85.184692 14.442749 84.966797 14.576874 84.740479 14.669067 C 79.007568 17.962982 76.736206 23.519867 76.736206 23.519867 C 80.340271 25.162628 82.56134 27.962036 83.852051 30.543518 C 85.897156 24.408295 85.855225 18.583191 85.545105 15.021088 C 85.545105 14.803162 85.452942 14.576874 85.411011 14.400848 Z"/>
    <path id="Path-copy-68" fill="none" stroke="#fdfdfd" stroke-width="8" stroke-linejoin="round" d="M 85.411011 14.400848 C 85.184692 14.442749 84.966797 14.576874 84.740479 14.669067 C 79.007568 17.962982 76.736206 23.519867 76.736206 23.519867 C 80.340271 25.162628 82.56134 27.962036 83.852051 30.543518 C 85.897156 24.408295 85.855225 18.583191 85.545105 15.021088 C 85.545105 14.803162 85.452942 14.576874 85.411011 14.400848 Z"/>
    <path id="Path-copy-67" fill="#fdfdfd" fill-rule="evenodd" stroke="none" d="M 14.644775 6.413147 C 10.428894 6.413147 6.581848 9.422089 5.81073 13.780426 C 4.654114 20.401764 4.52002 30.141022 9.498596 40.726776 C 9.540466 40.726776 13.991028 24.852325 40.543457 20.586182 C 40.543457 20.586182 30.619812 11.157043 17.368774 6.840607 C 16.463562 6.555634 15.549988 6.413147 14.644775 6.413147 Z"/>
    <path id="Path-copy-66" fill="none" stroke="#fdfdfd" stroke-width="8" stroke-linejoin="round" d="M 14.644775 6.413147 C 10.428894 6.413147 6.581848 9.422089 5.81073 13.780426 C 4.654114 20.401764 4.52002 30.141022 9.498596 40.726776 C 9.540466 40.726776 13.991028 24.852325 40.543457 20.586182 C 40.543457 20.586182 30.619812 11.157043 17.368774 6.840607 C 16.463562 6.555634 15.549988 6.413147 14.644775 6.413147 Z"/>
    <path id="Path-copy-65" fill="#fdfdfd" fill-rule="evenodd" stroke="none" d="M 14.259216 6.396393 L 14.259216 6.396393 C 10.210999 6.572388 6.565063 9.514282 5.852661 13.780426 C 4.737915 20.401764 4.612183 30.141022 9.540466 40.726776 C 9.540466 40.726776 10.169128 38.547607 12.256104 35.521912 C 8.920288 26.495087 9.146545 18.272888 10.169128 12.489685 C 10.613342 9.824402 12.121948 7.687134 14.259216 6.396393 Z"/>
    <path id="Path-copy-64" fill="none" stroke="#fdfdfd" stroke-width="8" stroke-linejoin="round" d="M 14.259216 6.396393 L 14.259216 6.396393 C 10.210999 6.572388 6.565063 9.514282 5.852661 13.780426 C 4.737915 20.401764 4.612183 30.141022 9.540466 40.726776 C 9.540466 40.726776 10.169128 38.547607 12.256104 35.521912 C 8.920288 26.495087 9.146545 18.272888 10.169128 12.489685 C 10.613342 9.824402 12.121948 7.687134 14.259216 6.396393 Z"/>
    <path id="Path-copy-63" fill="#fdfdfd" fill-rule="evenodd" stroke="none" d="M 16.094971 7.98053 C 15.080811 7.98053 14.100159 8.466644 13.546997 9.380219 L 13.505127 9.422119 C 12.524475 10.981079 13.102783 12.975861 14.661743 13.864288 C 16.438599 14.895203 18.03949 16.40387 19.145813 17.518585 C 19.698975 18.096924 20.46167 18.390259 21.232788 18.390259 C 21.643494 18.390259 22.054199 18.306458 22.439697 18.138824 C 26.261658 16.177582 31.290527 15.649536 31.290527 15.649536 C 27.108154 11.911407 20.436523 9.288025 17.192932 8.173279 C 16.840942 8.047577 16.463745 7.98053 16.094971 7.98053 Z"/>
    <path id="Path-copy-62" fill="none" stroke="#fdfdfd" stroke-width="8" stroke-linejoin="round" d="M 16.094971 7.98053 C 15.080811 7.98053 14.100159 8.466644 13.546997 9.380219 L 13.505127 9.422119 C 12.524475 10.981079 13.102783 12.975861 14.661743 13.864288 C 16.438599 14.895203 18.03949 16.40387 19.145813 17.518585 C 19.698975 18.096924 20.46167 18.390259 21.232788 18.390259 C 21.643494 18.390259 22.054199 18.306458 22.439697 18.138824 C 26.261658 16.177582 31.290527 15.649536 31.290527 15.649536 C 27.108154 11.911407 20.436523 9.288025 17.192932 8.173279 C 16.840942 8.047577 16.463745 7.98053 16.094971 7.98053 Z"/>
    <path id="Path-copy-61" fill="#fdfdfd" fill-rule="evenodd" stroke="none" d="M 10.437378 14.384094 C 9.104736 14.384094 7.914551 15.347961 7.763672 16.848236 C 7.411682 21.11438 7.411682 28.632538 10.965393 36.100403 C 10.965393 36.100403 11.275513 33.47702 12.742249 30.543518 C 14.03302 27.962036 16.262451 25.162628 19.858093 23.519867 C 19.858093 23.519867 17.544861 17.962982 11.853821 14.761261 C 11.635925 14.627167 11.409607 14.534973 11.191711 14.493042 C 10.940247 14.417633 10.68042 14.384094 10.437378 14.384094 Z"/>
    <path id="Path-copy-60" fill="none" stroke="#fdfdfd" stroke-width="8" stroke-linejoin="round" d="M 10.437378 14.384094 C 9.104736 14.384094 7.914551 15.347961 7.763672 16.848236 C 7.411682 21.11438 7.411682 28.632538 10.965393 36.100403 C 10.965393 36.100403 11.275513 33.47702 12.742249 30.543518 C 14.03302 27.962036 16.262451 25.162628 19.858093 23.519867 C 19.858093 23.519867 17.544861 17.962982 11.853821 14.761261 C 11.635925 14.627167 11.409607 14.534973 11.191711 14.493042 C 10.940247 14.417633 10.68042 14.384094 10.437378 14.384094 Z"/>
    <path id="Path-copy-59" fill="#fdfdfd" fill-rule="evenodd" stroke="none" d="M 11.191772 14.400848 C 11.141479 14.576874 11.099609 14.803162 11.099609 15.021088 C 10.747559 18.583191 10.697266 24.408295 12.742371 30.543518 C 14.033081 27.962036 16.262573 25.162628 19.858215 23.519867 C 19.858215 23.519867 17.544922 17.962982 11.853943 14.669067 C 11.635986 14.576874 11.409668 14.442749 11.191772 14.400848 Z"/>
    <path id="Path-copy-58" fill="none" stroke="#fdfdfd" stroke-width="8" stroke-linejoin="round" d="M 11.191772 14.400848 C 11.141479 14.576874 11.099609 14.803162 11.099609 15.021088 C 10.747559 18.583191 10.697266 24.408295 12.742371 30.543518 C 14.033081 27.962036 16.262573 25.162628 19.858215 23.519867 C 19.858215 23.519867 17.544922 17.962982 11.853943 14.669067 C 11.635986 14.576874 11.409668 14.442749 11.191772 14.400848 Z"/>
    <path id="Path-copy-57" fill="#fdfdfd" fill-rule="evenodd" stroke="none" d="M 48.279541 15.649719 C 35.648682 15.649719 26.579956 18.541321 20.486633 21.743042 C 12.700317 25.875092 7.763611 33.745239 7.361328 42.554138 C 7.009277 50.642242 8.920288 56.517639 8.920288 56.517639 C 7.629517 58.964996 6.875183 61.538116 6.296875 63.893311 C 4.964233 69.902802 7.185303 76.172119 12.214172 79.776123 C 18.567322 84.394318 27.68634 87.378082 35.162537 89.289063 C 39.470642 90.378662 43.887634 90.923431 48.296265 90.923431 C 52.713318 90.923431 57.13031 90.378662 61.438354 89.289063 C 68.914612 87.461914 78.025269 84.394318 84.42865 79.776123 C 89.415649 76.172119 91.67865 69.902802 90.169983 63.893311 C 89.675476 61.63031 88.921143 59.048828 87.680664 56.651733 C 87.680664 56.60144 87.630371 56.55954 87.630371 56.517639 C 87.630371 56.517639 89.499451 50.642242 89.189331 42.554138 C 88.787048 33.745239 83.850342 25.875092 76.072388 21.743042 C 71.135681 19.16156 64.153992 16.756073 54.993042 15.917938 C 52.906067 15.733551 50.676636 15.649719 48.279541 15.649719 Z"/>
    <path id="Path-copy-56" fill="none" stroke="#fdfdfd" stroke-width="8" stroke-linejoin="round" d="M 48.279541 15.649719 C 35.648682 15.649719 26.579956 18.541321 20.486633 21.743042 C 12.700317 25.875092 7.763611 33.745239 7.361328 42.554138 C 7.009277 50.642242 8.920288 56.517639 8.920288 56.517639 C 7.629517 58.964996 6.875183 61.538116 6.296875 63.893311 C 4.964233 69.902802 7.185303 76.172119 12.214172 79.776123 C 18.567322 84.394318 27.68634 87.378082 35.162537 89.289063 C 39.470642 90.378662 43.887634 90.923431 48.296265 90.923431 C 52.713318 90.923431 57.13031 90.378662 61.438354 89.289063 C 68.914612 87.461914 78.025269 84.394318 84.42865 79.776123 C 89.415649 76.172119 91.67865 69.902802 90.169983 63.893311 C 89.675476 61.63031 88.921143 59.048828 87.680664 56.651733 C 87.680664 56.60144 87.630371 56.55954 87.630371 56.517639 C 87.630371 56.517639 89.499451 50.642242 89.189331 42.554138 C 88.787048 33.745239 83.850342 25.875092 76.072388 21.743042 C 71.135681 19.16156 64.153992 16.756073 54.993042 15.917938 C 52.906067 15.733551 50.676636 15.649719 48.279541 15.649719 Z"/>
    <path id="Path-copy-55" fill="#fdfdfd" fill-rule="evenodd" stroke="none" d="M 48.279663 19.698059 C 37.601746 19.698059 29.907532 22.137054 24.752991 24.852631 C 18.215454 28.322571 14.033081 35.036102 13.681091 42.420135 C 13.412903 49.309692 14.971802 54.204437 14.971802 54.204437 C 13.898987 56.291412 13.236877 58.512512 12.742371 60.431854 C 11.594116 65.494263 13.546997 70.833221 17.679016 73.900848 C 23.110229 77.773071 30.804382 80.354553 37.115601 81.955414 C 40.761536 82.860596 44.499634 83.321564 48.22937 83.321564 C 51.967529 83.321564 55.705627 82.860596 59.351563 81.955414 C 65.662781 80.396454 73.356934 77.773071 78.737854 73.900848 C 83.096191 70.833221 84.965271 65.494263 83.808594 60.431854 C 83.36438 58.42868 82.651978 56.291412 81.587524 54.204437 C 81.587524 54.204437 83.188354 49.267792 82.878296 42.420135 C 82.517883 34.994171 78.33551 28.322571 71.797974 24.852631 C 66.643433 22.137054 58.94928 19.698059 48.279663 19.698059 Z"/>
    <path id="Path-copy-54" fill="none" stroke="#fdfdfd" stroke-width="8" stroke-linejoin="round" d="M 48.279663 19.698059 C 37.601746 19.698059 29.907532 22.137054 24.752991 24.852631 C 18.215454 28.322571 14.033081 35.036102 13.681091 42.420135 C 13.412903 49.309692 14.971802 54.204437 14.971802 54.204437 C 13.898987 56.291412 13.236877 58.512512 12.742371 60.431854 C 11.594116 65.494263 13.546997 70.833221 17.679016 73.900848 C 23.110229 77.773071 30.804382 80.354553 37.115601 81.955414 C 40.761536 82.860596 44.499634 83.321564 48.22937 83.321564 C 51.967529 83.321564 55.705627 82.860596 59.351563 81.955414 C 65.662781 80.396454 73.356934 77.773071 78.737854 73.900848 C 83.096191 70.833221 84.965271 65.494263 83.808594 60.431854 C 83.36438 58.42868 82.651978 56.291412 81.587524 54.204437 C 81.587524 54.204437 83.188354 49.267792 82.878296 42.420135 C 82.517883 34.994171 78.33551 28.322571 71.797974 24.852631 C 66.643433 22.137054 58.94928 19.698059 48.279663 19.698059 Z"/>
    <path id="Path-copy-53" fill="#fdfdfd" fill-rule="evenodd" stroke="none" d="M 55.077942 15.917938 C 54.189514 17.074585 53.351379 18.407227 52.680847 19.739868 C 50.769897 23.427704 49.747314 27.610046 49.747314 31.968384 C 49.747314 46.862213 61.799866 59.006927 76.735596 59.006927 C 78.965027 59.006927 81.144226 58.738708 83.18927 58.202301 C 84.739868 57.850281 86.298828 57.313873 87.765564 56.651733 C 87.765564 56.60144 87.681763 56.55954 87.681763 56.517639 C 87.681763 56.517639 89.592712 50.642242 89.2323 42.554169 C 88.88031 33.74527 83.901733 25.875092 76.115356 21.743042 C 71.178711 19.16156 64.238831 16.756073 55.077942 15.917938 Z"/>
    <path id="Path-copy-52" fill="none" stroke="#fdfdfd" stroke-width="8" stroke-linejoin="round" d="M 55.077942 15.917938 C 54.189514 17.074585 53.351379 18.407227 52.680847 19.739868 C 50.769897 23.427704 49.747314 27.610046 49.747314 31.968384 C 49.747314 46.862213 61.799866 59.006927 76.735596 59.006927 C 78.965027 59.006927 81.144226 58.738708 83.18927 58.202301 C 84.739868 57.850281 86.298828 57.313873 87.765564 56.651733 C 87.765564 56.60144 87.681763 56.55954 87.681763 56.517639 C 87.681763 56.517639 89.592712 50.642242 89.2323 42.554169 C 88.88031 33.74527 83.901733 25.875092 76.115356 21.743042 C 71.178711 19.16156 64.238831 16.756073 55.077942 15.917938 Z"/>
    <path id="Path-copy-51" fill="#fdfdfd" fill-rule="evenodd" stroke="none" d="M 52.722778 19.823792 C 50.853699 23.478088 49.789246 27.652039 49.789246 32.060669 C 49.789246 46.954498 61.841736 59.04892 76.785889 59.04892 C 79.006958 59.04892 81.186157 58.780731 83.231201 58.252686 C 82.786987 56.961945 82.300842 55.537109 81.672241 54.246368 C 81.672241 54.246368 83.231201 49.309692 82.963013 42.420135 C 82.694763 35.036102 78.47052 28.322571 71.891113 24.852631 C 67.440552 22.539368 61.171265 20.360199 52.722778 19.823792 Z"/>
    <path id="Path-copy-50" fill="none" stroke="#fdfdfd" stroke-width="8" stroke-linejoin="round" d="M 52.722778 19.823792 C 50.853699 23.478088 49.789246 27.652039 49.789246 32.060669 C 49.789246 46.954498 61.841736 59.04892 76.785889 59.04892 C 79.006958 59.04892 81.186157 58.780731 83.231201 58.252686 C 82.786987 56.961945 82.300842 55.537109 81.672241 54.246368 C 81.672241 54.246368 83.231201 49.309692 82.963013 42.420135 C 82.694763 35.036102 78.47052 28.322571 71.891113 24.852631 C 67.440552 22.539368 61.171265 20.360199 52.722778 19.823792 Z"/>
    <path id="Path-copy-49" fill="#fdfdfd" fill-rule="evenodd" stroke="none" d="M 41.56604 15.917938 C 32.354858 16.756073 25.423401 19.16156 20.486694 21.743042 C 12.700378 25.875092 7.763672 33.74527 7.361389 42.554169 C 7.05127 50.642242 8.920349 56.517639 8.920349 56.517639 C 8.920349 56.55954 8.878418 56.60144 8.878418 56.651733 C 10.303284 57.313873 11.853821 57.850281 13.412781 58.202301 C 15.457825 58.738708 17.637024 59.006927 19.858093 59.006927 C 34.844116 59.006927 46.896606 46.862213 46.896606 31.968384 C 46.896606 27.610046 45.832214 23.427704 43.921204 19.739868 C 43.292603 18.407227 42.454468 17.074585 41.56604 15.917938 Z"/>
    <path id="Path-copy-48" fill="none" stroke="#fdfdfd" stroke-width="8" stroke-linejoin="round" d="M 41.56604 15.917938 C 32.354858 16.756073 25.423401 19.16156 20.486694 21.743042 C 12.700378 25.875092 7.763672 33.74527 7.361389 42.554169 C 7.05127 50.642242 8.920349 56.517639 8.920349 56.517639 C 8.920349 56.55954 8.878418 56.60144 8.878418 56.651733 C 10.303284 57.313873 11.853821 57.850281 13.412781 58.202301 C 15.457825 58.738708 17.637024 59.006927 19.858093 59.006927 C 34.844116 59.006927 46.896606 46.862213 46.896606 31.968384 C 46.896606 27.610046 45.832214 23.427704 43.921204 19.739868 C 43.292603 18.407227 42.454468 17.074585 41.56604 15.917938 Z"/>
    <path id="Path-copy-47" fill="#fdfdfd" fill-rule="evenodd" stroke="none" d="M 43.871094 19.823792 C 35.422607 20.360199 29.153259 22.539368 24.711121 24.852631 C 18.123291 28.322571 13.899048 35.036102 13.639221 42.420135 C 13.371033 49.309692 14.92157 54.246368 14.92157 54.246368 C 14.301331 55.537109 13.764954 56.961945 13.371033 58.252686 C 15.416077 58.780731 17.595276 59.04892 19.816345 59.04892 C 34.760437 59.04892 46.854858 46.954498 46.854858 32.060669 C 46.854858 27.652039 45.790405 23.478088 43.871094 19.823792 Z"/>
    <path id="Path-copy-46" fill="none" stroke="#fdfdfd" stroke-width="8" stroke-linejoin="round" d="M 43.871094 19.823792 C 35.422607 20.360199 29.153259 22.539368 24.711121 24.852631 C 18.123291 28.322571 13.899048 35.036102 13.639221 42.420135 C 13.371033 49.309692 14.92157 54.246368 14.92157 54.246368 C 14.301331 55.537109 13.764954 56.961945 13.371033 58.252686 C 15.416077 58.780731 17.595276 59.04892 19.816345 59.04892 C 34.760437 59.04892 46.854858 46.954498 46.854858 32.060669 C 46.854858 27.652039 45.790405 23.478088 43.871094 19.823792 Z"/>
    <path id="Path-copy-45" fill="#fdfdfd" fill-rule="evenodd" stroke="none" d="M 43.871582 53.400635 C 38.624817 53.400635 34.400574 57.675171 34.400574 62.871674 C 34.400574 68.118439 38.67511 72.392975 43.871582 72.392975 C 45.522705 72.392975 46.989502 71.990662 48.322144 71.278259 C 49.654785 71.990662 51.171814 72.392975 52.772705 72.392975 C 58.06134 72.392975 62.285583 68.118439 62.285583 62.871674 C 62.285583 57.675171 58.01947 53.400635 52.772705 53.400635 C 51.171814 53.400635 49.654785 53.761047 48.322144 54.515381 C 46.989502 53.761047 45.522705 53.400635 43.871582 53.400635 Z"/>
    <path id="Path-copy-44" fill="none" stroke="#fdfdfd" stroke-width="8" stroke-linejoin="round" d="M 43.871582 53.400635 C 38.624817 53.400635 34.400574 57.675171 34.400574 62.871674 C 34.400574 68.118439 38.67511 72.392975 43.871582 72.392975 C 45.522705 72.392975 46.989502 71.990662 48.322144 71.278259 C 49.654785 71.990662 51.171814 72.392975 52.772705 72.392975 C 58.06134 72.392975 62.285583 68.118439 62.285583 62.871674 C 62.285583 57.675171 58.01947 53.400635 52.772705 53.400635 C 51.171814 53.400635 49.654785 53.761047 48.322144 54.515381 C 46.989502 53.761047 45.522705 53.400635 43.871582 53.400635 Z"/>
    <path id="Path-copy-43" fill="#fdfdfd" fill-rule="evenodd" stroke="none" d="M 34.492737 61.539215 C 34.450867 61.983429 34.400574 62.427643 34.400574 62.871857 C 34.400574 68.118652 38.624817 72.393188 43.871582 72.393188 C 45.522705 72.393188 46.989502 71.990875 48.322144 71.278442 C 49.654785 71.990875 51.171814 72.393188 52.772705 72.393188 C 58.01947 72.393188 62.285583 68.168915 62.285583 62.871857 C 62.285583 62.427643 62.243713 61.983429 62.19342 61.539215 C 61.573181 66.165771 57.575256 69.727875 52.772705 69.727875 C 51.171814 69.727875 49.654785 69.325562 48.322144 68.613159 C 46.989502 69.325562 45.522705 69.727875 43.871582 69.727875 C 39.119324 69.727875 35.163269 66.165771 34.492737 61.539215 Z"/>
    <path id="Path-copy-42" fill="none" stroke="#fdfdfd" stroke-width="8" stroke-linejoin="round" d="M 34.492737 61.539215 C 34.450867 61.983429 34.400574 62.427643 34.400574 62.871857 C 34.400574 68.118652 38.624817 72.393188 43.871582 72.393188 C 45.522705 72.393188 46.989502 71.990875 48.322144 71.278442 C 49.654785 71.990875 51.171814 72.393188 52.772705 72.393188 C 58.01947 72.393188 62.285583 68.168915 62.285583 62.871857 C 62.285583 62.427643 62.243713 61.983429 62.19342 61.539215 C 61.573181 66.165771 57.575256 69.727875 52.772705 69.727875 C 51.171814 69.727875 49.654785 69.325562 48.322144 68.613159 C 46.989502 69.325562 45.522705 69.727875 43.871582 69.727875 C 39.119324 69.727875 35.163269 66.165771 34.492737 61.539215 Z"/>
    <path id="Path-copy-41" fill="#fdfdfd" fill-rule="evenodd" stroke="none" d="M 48.29718 51.464478 C 47.618286 51.464478 46.947815 51.531525 46.277283 51.665619 C 46.235352 51.665619 46.185059 51.665619 46.101257 51.715912 C 44.00592 52.202026 43.34375 54.917633 44.986511 56.334106 C 45.60675 56.828583 46.319153 57.314728 47.257874 57.67511 C 47.567993 57.784088 47.911682 57.842743 48.246887 57.842743 C 48.590576 57.842743 48.925781 57.784088 49.210754 57.67511 C 50.149475 57.272827 50.903809 56.828583 51.482117 56.334106 C 53.217102 54.86734 52.5047 52.160126 50.3255 51.665619 L 50.275208 51.665619 C 49.638245 51.531525 48.967712 51.464478 48.29718 51.464478 Z"/>
    <path id="Path-copy-40" fill="none" stroke="#fdfdfd" stroke-width="8" stroke-linejoin="round" d="M 48.29718 51.464478 C 47.618286 51.464478 46.947815 51.531525 46.277283 51.665619 C 46.235352 51.665619 46.185059 51.665619 46.101257 51.715912 C 44.00592 52.202026 43.34375 54.917633 44.986511 56.334106 C 45.60675 56.828583 46.319153 57.314728 47.257874 57.67511 C 47.567993 57.784088 47.911682 57.842743 48.246887 57.842743 C 48.590576 57.842743 48.925781 57.784088 49.210754 57.67511 C 50.149475 57.272827 50.903809 56.828583 51.482117 56.334106 C 53.217102 54.86734 52.5047 52.160126 50.3255 51.665619 L 50.275208 51.665619 C 49.638245 51.531525 48.967712 51.464478 48.29718 51.464478 Z"/>
    <path id="Path-copy-39" fill="#fdfdfd" fill-rule="evenodd" stroke="none" d="M 44.232239 53.450928 L 44.232239 53.450928 C 43.963989 54.423157 44.190308 55.537903 45.078735 56.334137 C 45.657043 56.828644 46.411377 57.314758 47.341736 57.675171 C 47.651855 57.784119 47.987122 57.842804 48.322388 57.842804 C 48.657593 57.842804 48.992859 57.784119 49.302979 57.675171 C 50.233337 57.314758 50.94574 56.828644 51.565979 56.334137 C 52.454407 55.630096 52.680725 54.515381 52.412476 53.450928 L 52.412476 53.450928 C 52.236511 53.895142 51.968262 54.339355 51.565979 54.649475 C 50.94574 55.185883 50.233337 55.630096 49.302979 55.982117 C 48.992859 56.091064 48.657593 56.14975 48.322388 56.14975 C 47.987122 56.14975 47.651855 56.091064 47.341736 55.982117 C 46.411377 55.671997 45.657043 55.185883 45.078735 54.649475 C 44.634521 54.339355 44.408203 53.895142 44.232239 53.450928 Z"/>
    <path id="Path-copy-38" fill="none" stroke="#fdfdfd" stroke-width="8" stroke-linejoin="round" d="M 44.232239 53.450928 L 44.232239 53.450928 C 43.963989 54.423157 44.190308 55.537903 45.078735 56.334137 C 45.657043 56.828644 46.411377 57.314758 47.341736 57.675171 C 47.651855 57.784119 47.987122 57.842804 48.322388 57.842804 C 48.657593 57.842804 48.992859 57.784119 49.302979 57.675171 C 50.233337 57.314758 50.94574 56.828644 51.565979 56.334137 C 52.454407 55.630096 52.680725 54.515381 52.412476 53.450928 L 52.412476 53.450928 C 52.236511 53.895142 51.968262 54.339355 51.565979 54.649475 C 50.94574 55.185883 50.233337 55.630096 49.302979 55.982117 C 48.992859 56.091064 48.657593 56.14975 48.322388 56.14975 C 47.987122 56.14975 47.651855 56.091064 47.341736 55.982117 C 46.411377 55.671997 45.657043 55.185883 45.078735 54.649475 C 44.634521 54.339355 44.408203 53.895142 44.232239 53.450928 Z"/>
    <path id="Path-copy-37" fill="#fdfdfd" fill-rule="evenodd" stroke="none" d="M 48.389465 51.766205 C 47.886536 51.766205 47.392029 51.82489 46.897522 51.933838 L 46.763428 51.933838 C 46.453308 51.984131 46.18512 52.160156 45.967224 52.336151 C 45.388916 52.822266 45.388916 53.710693 45.967224 54.154938 C 46.411438 54.55722 46.947815 54.86734 47.609985 55.185852 C 47.836243 55.244507 48.087708 55.278046 48.347534 55.278046 C 48.598999 55.278046 48.858826 55.244507 49.076721 55.185852 C 49.747253 54.86734 50.275269 54.55722 50.727844 54.154938 C 51.306213 53.710693 51.306213 52.822266 50.727844 52.378052 C 50.501587 52.202057 50.191467 52.067932 49.965149 51.933838 L 49.881348 51.933838 C 49.386841 51.82489 48.892334 51.766205 48.389465 51.766205 Z"/>
    <path id="Path-copy-36" fill="none" stroke="#fdfdfd" stroke-width="8" stroke-linejoin="round" d="M 48.389465 51.766205 C 47.886536 51.766205 47.392029 51.82489 46.897522 51.933838 L 46.763428 51.933838 C 46.453308 51.984131 46.18512 52.160156 45.967224 52.336151 C 45.388916 52.822266 45.388916 53.710693 45.967224 54.154938 C 46.411438 54.55722 46.947815 54.86734 47.609985 55.185852 C 47.836243 55.244507 48.087708 55.278046 48.347534 55.278046 C 48.598999 55.278046 48.858826 55.244507 49.076721 55.185852 C 49.747253 54.86734 50.275269 54.55722 50.727844 54.154938 C 51.306213 53.710693 51.306213 52.822266 50.727844 52.378052 C 50.501587 52.202057 50.191467 52.067932 49.965149 51.933838 L 49.881348 51.933838 C 49.386841 51.82489 48.892334 51.766205 48.389465 51.766205 Z"/>
    <path id="Path-copy-35" fill="#fdfdfd" fill-rule="evenodd" stroke="none" d="M 64.113342 39.570923 C 61.221741 39.570923 58.908447 41.926117 58.908447 44.817719 L 58.908447 48.153534 C 58.908447 51.045105 61.221741 53.400299 64.113342 53.400299 C 66.996582 53.400299 69.360107 51.045105 69.360107 48.153534 L 69.360107 44.817719 C 69.360107 41.926117 66.996582 39.570923 64.113342 39.570923 Z"/>
    <path id="Path-copy-34" fill="none" stroke="#fdfdfd" stroke-width="8" stroke-linejoin="round" d="M 64.113342 39.570923 C 61.221741 39.570923 58.908447 41.926117 58.908447 44.817719 L 58.908447 48.153534 C 58.908447 51.045105 61.221741 53.400299 64.113342 53.400299 C 66.996582 53.400299 69.360107 51.045105 69.360107 48.153534 L 69.360107 44.817719 C 69.360107 41.926117 66.996582 39.570923 64.113342 39.570923 Z"/>
    <path id="Path-copy-33" fill="#fdfdfd" fill-rule="evenodd" stroke="none" d="M 68.689758 37.835938 C 66.334534 37.835938 64.423584 39.746887 64.423584 42.110474 C 64.423584 44.423737 66.292664 46.376617 68.689758 46.376617 C 71.003052 46.376617 72.955872 44.507568 72.955872 42.110474 C 72.955872 39.704987 71.095215 37.835938 68.689758 37.835938 Z"/>
    <path id="Path-copy-32" fill="none" stroke="#fdfdfd" stroke-width="8" stroke-linejoin="round" d="M 68.689758 37.835938 C 66.334534 37.835938 64.423584 39.746887 64.423584 42.110474 C 64.423584 44.423737 66.292664 46.376617 68.689758 46.376617 C 71.003052 46.376617 72.955872 44.507568 72.955872 42.110474 C 72.955872 39.704987 71.095215 37.835938 68.689758 37.835938 Z"/>
    <path id="Path-copy-31" fill="#fdfdfd" fill-rule="evenodd" stroke="none" d="M 32.489441 39.570923 C 29.597839 39.570923 27.284546 41.926117 27.284546 44.817719 L 27.284546 48.153534 C 27.284546 51.045105 29.597839 53.400299 32.489441 53.400299 C 35.381042 53.400299 37.736206 51.045105 37.736206 48.153534 L 37.736206 44.817719 C 37.736206 41.926117 35.381042 39.570923 32.489441 39.570923 Z"/>
    <path id="Path-copy-30" fill="none" stroke="#fdfdfd" stroke-width="8" stroke-linejoin="round" d="M 32.489441 39.570923 C 29.597839 39.570923 27.284546 41.926117 27.284546 44.817719 L 27.284546 48.153534 C 27.284546 51.045105 29.597839 53.400299 32.489441 53.400299 C 35.381042 53.400299 37.736206 51.045105 37.736206 48.153534 L 37.736206 44.817719 C 37.736206 41.926117 35.381042 39.570923 32.489441 39.570923 Z"/>
    <path id="Path-copy-29" fill="#fdfdfd" fill-rule="evenodd" stroke="none" d="M 27.954956 37.835938 C 25.599792 37.835938 23.63855 39.704987 23.63855 42.110474 C 23.63855 44.507568 25.599792 46.376617 27.954956 46.376617 C 30.26825 46.376617 32.22113 44.423737 32.22113 42.110474 C 32.22113 39.746887 30.26825 37.835938 27.954956 37.835938 Z"/>
    <path id="Path-copy-28" fill="none" stroke="#fdfdfd" stroke-width="8" stroke-linejoin="round" d="M 27.954956 37.835938 C 25.599792 37.835938 23.63855 39.704987 23.63855 42.110474 C 23.63855 44.507568 25.599792 46.376617 27.954956 46.376617 C 30.26825 46.376617 32.22113 44.423737 32.22113 42.110474 C 32.22113 39.746887 30.26825 37.835938 27.954956 37.835938 Z"/>
    <path id="Path-copy-27" fill="#f7e3bc" fill-rule="evenodd" stroke="none" d="M 10.436035 14.384094 C 9.103394 14.384094 7.913269 15.347961 7.76239 16.848236 C 7.410339 21.11438 7.410339 28.632538 10.964111 36.100403 C 10.964111 36.100403 11.274231 33.47702 12.740967 30.543518 C 14.031677 27.962036 16.261169 25.162628 19.856812 23.519867 C 19.856812 23.519867 17.543518 17.962982 11.852539 14.761261 C 11.634583 14.627167 11.408325 14.534973 11.190369 14.493042 C 10.938965 14.417633 10.679138 14.384094 10.436035 14.384094 Z"/>
    <path id="Path-copy-26" fill="#efc2b1" fill-rule="evenodd" stroke="none" d="M 11.190491 14.400848 C 11.140198 14.576874 11.098267 14.803162 11.098267 15.021088 C 10.746277 18.583191 10.695984 24.408295 12.741028 30.543518 C 14.031799 27.962036 16.26123 25.162628 19.856873 23.519867 C 19.856873 23.519867 17.543579 17.962982 11.8526 14.669067 C 11.634705 14.576874 11.408386 14.442749 11.190491 14.400848 Z"/>
    <path id="Path-copy-25" fill="#c08644" fill-rule="evenodd" stroke="none" d="M 81.905762 6.413147 C 81.008972 6.413147 80.086975 6.555634 79.181824 6.840607 C 65.972656 11.157043 56.015503 20.586182 56.015503 20.586182 C 82.559509 24.852325 87.102234 40.726776 87.102234 40.726776 C 92.03894 30.141022 91.904846 20.401764 90.748169 13.780426 C 89.977112 9.422089 86.121643 6.413147 81.905762 6.413147 Z"/>
    <path id="Path-copy-24" fill="#b47d3a" fill-rule="evenodd" stroke="none" d="M 82.342224 6.396393 L 82.342224 6.396393 C 84.479492 7.687134 86.03009 9.824402 86.474304 12.489685 C 87.454895 18.272888 87.681213 26.495087 84.345398 35.521912 C 86.474304 38.547607 87.102905 40.726776 87.102905 40.726776 C 92.039551 30.141022 91.855164 20.401764 90.74884 13.780426 C 90.036377 9.514282 86.432373 6.572388 82.342224 6.396393 Z"/>
    <path id="Path-copy-23" fill="#c49a55" fill-rule="evenodd" stroke="none" d="M 80.506287 7.98053 C 80.137512 7.98053 79.760315 8.047577 79.408325 8.173279 C 76.156311 9.288025 69.493103 11.911407 65.352661 15.649536 C 65.352661 15.649536 70.331238 16.177582 74.20343 18.138824 C 74.588989 18.306458 74.999695 18.390259 75.4104 18.390259 C 76.181458 18.390259 76.927429 18.096924 77.447083 17.518585 C 78.561768 16.40387 80.204529 14.895203 81.981445 13.864288 C 83.540344 12.975861 84.076782 10.981079 83.138062 9.422119 L 83.09613 9.380219 C 82.50946 8.466644 81.520447 7.98053 80.506287 7.98053 Z"/>
    <path id="Path-copy-22" fill="#f7e3bc" fill-rule="evenodd" stroke="none" d="M 86.164063 14.384094 C 85.912598 14.384094 85.661133 14.417633 85.409729 14.493042 C 85.183411 14.534973 84.965515 14.627167 84.739197 14.761261 C 79.006287 17.962982 76.734924 23.519867 76.734924 23.519867 C 80.338928 25.162628 82.559998 27.962036 83.850769 30.543518 C 85.367798 33.47702 85.635986 36.100403 85.635986 36.100403 C 89.189758 28.632538 89.189758 21.11438 88.879639 16.848236 C 88.72876 15.347961 87.505066 14.384094 86.164063 14.384094 Z"/>
    <path id="Path-copy-21" fill="#efc2b1" fill-rule="evenodd" stroke="none" d="M 85.409729 14.400848 C 85.183411 14.442749 84.965515 14.576874 84.739197 14.669067 C 79.006287 17.962982 76.734924 23.519867 76.734924 23.519867 C 80.338928 25.162628 82.559998 27.962036 83.850769 30.543518 C 85.895813 24.408295 85.853943 18.583191 85.543823 15.021088 C 85.543823 14.803162 85.451599 14.576874 85.409729 14.400848 Z"/>
    <path id="Path-copy-20" fill="#f5de76" fill-rule="evenodd" stroke="none" d="M 14.643494 6.413147 C 10.427612 6.413147 6.580505 9.422089 5.809448 13.780426 C 4.652771 20.401764 4.518677 30.141022 9.497253 40.726776 C 9.539185 40.726776 13.989746 24.852325 40.542114 20.586182 C 40.542114 20.586182 30.61853 11.157043 17.367432 6.840607 C 16.462219 6.555634 15.548645 6.413147 14.643494 6.413147 Z"/>
    <path id="Path-copy-19" fill="#f5de76" fill-rule="evenodd" stroke="none" d="M 14.257935 6.396393 L 14.257935 6.396393 C 10.209717 6.572388 6.563782 9.514282 5.851318 13.780426 C 4.736633 20.401764 4.610901 30.141022 9.539185 40.726776 C 9.539185 40.726776 10.167786 38.547607 12.254761 35.521912 C 8.918945 26.495087 9.145264 18.272888 10.167786 12.489685 C 10.612 9.824402 12.120667 7.687134 14.257935 6.396393 Z"/>
    <path id="Path-copy-18" fill="#f9ed80" fill-rule="evenodd" stroke="none" d="M 16.093628 7.98053 C 15.079529 7.98053 14.098877 8.466644 13.545715 9.380219 L 13.503784 9.422119 C 12.523132 10.981079 13.101501 12.975861 14.6604 13.864288 C 16.437317 14.895203 18.038147 16.40387 19.14447 17.518585 C 19.697693 18.096924 20.460388 18.390259 21.231506 18.390259 C 21.642151 18.390259 22.052856 18.306458 22.438416 18.138824 C 26.260315 16.177582 31.289185 15.649536 31.289185 15.649536 C 27.106873 11.911407 20.435242 9.288025 17.19165 8.173279 C 16.8396 8.047577 16.462463 7.98053 16.093628 7.98053 Z"/>
    <path id="Path-copy-17" fill="#f7e3bc" fill-rule="evenodd" stroke="none" d="M 10.436035 14.384094 C 9.103394 14.384094 7.913269 15.347961 7.76239 16.848236 C 7.410339 21.11438 7.410339 28.632538 10.964111 36.100403 C 10.964111 36.100403 11.274231 33.47702 12.740967 30.543518 C 14.031677 27.962036 16.261169 25.162628 19.856812 23.519867 C 19.856812 23.519867 17.543518 17.962982 11.852539 14.761261 C 11.634583 14.627167 11.408325 14.534973 11.190369 14.493042 C 10.938965 14.417633 10.679138 14.384094 10.436035 14.384094 Z"/>
    <path id="Path-copy-16" fill="#efc2b1" fill-rule="evenodd" stroke="none" d="M 11.190491 14.400848 C 11.140198 14.576874 11.098267 14.803162 11.098267 15.021088 C 10.746277 18.583191 10.695984 24.408295 12.741028 30.543518 C 14.031799 27.962036 16.26123 25.162628 19.856873 23.519867 C 19.856873 23.519867 17.543579 17.962982 11.8526 14.669067 C 11.634705 14.576874 11.408386 14.442749 11.190491 14.400848 Z"/>
    <path id="Path-copy-15" fill="#faf1a1" fill-rule="evenodd" stroke="none" d="M 48.278198 15.649719 C 35.6474 15.649719 26.578674 18.541321 20.485352 21.743042 C 12.698975 25.875092 7.762329 33.745239 7.359985 42.554138 C 7.007996 50.642242 8.918945 56.517639 8.918945 56.517639 C 7.628235 58.964996 6.873901 61.538116 6.295593 63.893311 C 4.962891 69.902802 7.184021 76.172119 12.212891 79.776123 C 18.565979 84.394318 27.684998 87.378082 35.161255 89.289063 C 39.469299 90.378662 43.886353 90.923431 48.294983 90.923431 C 52.711975 90.923431 57.129028 90.378662 61.437073 89.289063 C 68.91333 87.461914 78.023926 84.394318 84.427368 79.776123 C 89.414307 76.172119 91.677307 69.902802 90.16864 63.893311 C 89.674133 61.63031 88.9198 59.048828 87.679382 56.651733 C 87.679382 56.60144 87.629089 56.55954 87.629089 56.517639 C 87.629089 56.517639 89.498108 50.642242 89.188049 42.554138 C 88.785706 33.745239 83.84906 25.875092 76.071045 21.743042 C 71.134399 19.16156 64.152649 16.756073 54.99176 15.917938 C 52.904785 15.733551 50.675293 15.649719 48.278198 15.649719 Z"/>
    <path id="Path-copy-14" fill="#fdfbb1" fill-rule="evenodd" stroke="none" d="M 48.278381 19.698059 C 37.600403 19.698059 29.90625 22.137054 24.751648 24.852631 C 18.214111 28.322571 14.031799 35.036102 13.679749 42.420135 C 13.41156 49.309692 14.97052 54.204437 14.97052 54.204437 C 13.897705 56.291412 13.235535 58.512512 12.741028 60.431854 C 11.592773 65.494263 13.545654 70.833221 17.677734 73.900848 C 23.108887 77.773071 30.80304 80.354553 37.114258 81.955414 C 40.760193 82.860596 44.498352 83.321564 48.228088 83.321564 C 51.966187 83.321564 55.704346 82.860596 59.35022 81.955414 C 65.661499 80.396454 73.355652 77.773071 78.736511 73.900848 C 83.094849 70.833221 84.963928 65.494263 83.807312 60.431854 C 83.363098 58.42868 82.650635 56.291412 81.586243 54.204437 C 81.586243 54.204437 83.187073 49.267792 82.876953 42.420135 C 82.516541 34.994171 78.334229 28.322571 71.796692 24.852631 C 66.64209 22.137054 58.947937 19.698059 48.278381 19.698059 Z"/>
    <path id="Path-copy-13" fill="#c08644" fill-rule="evenodd" stroke="none" d="M 55.076599 15.917938 C 54.188171 17.074585 53.350037 18.407227 52.679504 19.739868 C 50.768555 23.427704 49.746033 27.610046 49.746033 31.968384 C 49.746033 46.862213 61.798523 59.006927 76.734253 59.006927 C 78.963745 59.006927 81.142883 58.738708 83.187988 58.202301 C 84.738525 57.850281 86.297485 57.313873 87.764221 56.651733 C 87.764221 56.60144 87.68042 56.55954 87.68042 56.517639 C 87.68042 56.517639 89.591431 50.642242 89.231018 42.554169 C 88.878967 33.74527 83.900391 25.875092 76.114014 21.743042 C 71.177368 19.16156 64.237549 16.756073 55.076599 15.917938 Z"/>
    <path id="Path-copy-12" fill="#c49a55" fill-rule="evenodd" stroke="none" d="M 52.721436 19.823792 C 50.852356 23.478088 49.787964 27.652039 49.787964 32.060669 C 49.787964 46.954498 61.840454 59.04892 76.784546 59.04892 C 79.005615 59.04892 81.184814 58.780731 83.229858 58.252686 C 82.785645 56.961945 82.299561 55.537109 81.670959 54.246368 C 81.670959 54.246368 83.229858 49.309692 82.96167 42.420135 C 82.693481 35.036102 78.469238 28.322571 71.889771 24.852631 C 67.43927 22.539368 61.169922 20.360199 52.721436 19.823792 Z"/>
    <path id="Path-copy-11" fill="#f5de76" fill-rule="evenodd" stroke="none" d="M 41.564697 15.917938 C 32.353516 16.756073 25.422058 19.16156 20.485413 21.743042 C 12.699036 25.875092 7.76239 33.74527 7.360046 42.554169 C 7.049927 50.642242 8.919006 56.517639 8.919006 56.517639 C 8.919006 56.55954 8.877075 56.60144 8.877075 56.651733 C 10.301941 57.313873 11.852539 57.850281 13.411438 58.202301 C 15.456543 58.738708 17.635681 59.006927 19.856812 59.006927 C 34.842834 59.006927 46.895325 46.862213 46.895325 31.968384 C 46.895325 27.610046 45.830872 23.427704 43.919922 19.739868 C 43.291321 18.407227 42.453186 17.074585 41.564697 15.917938 Z"/>
    <path id="Path-copy-10" fill="#f2cf60" fill-rule="evenodd" stroke="none" d="M 43.869751 19.823792 C 35.421265 20.360199 29.151978 22.539368 24.709778 24.852631 C 18.122009 28.322571 13.897766 35.036102 13.637939 42.420135 C 13.36969 49.309692 14.920288 54.246368 14.920288 54.246368 C 14.300049 55.537109 13.763611 56.961945 13.36969 58.252686 C 15.414795 58.780731 17.593933 59.04892 19.815063 59.04892 C 34.759155 59.04892 46.853577 46.954498 46.853577 32.060669 C 46.853577 27.652039 45.789124 23.478088 43.869751 19.823792 Z"/>
    <path id="Path-copy-9" fill="#ffffff" fill-rule="evenodd" stroke="none" d="M 43.8703 53.400635 C 38.623474 53.400635 34.399231 57.675171 34.399231 62.871674 C 34.399231 68.118439 38.673767 72.392975 43.8703 72.392975 C 45.521423 72.392975 46.988159 71.990662 48.320801 71.278259 C 49.653442 71.990662 51.170532 72.392975 52.771362 72.392975 C 58.060059 72.392975 62.284302 68.118439 62.284302 62.871674 C 62.284302 57.675171 58.018127 53.400635 52.771362 53.400635 C 51.170532 53.400635 49.653442 53.761047 48.320801 54.515381 C 46.988159 53.761047 45.521423 53.400635 43.8703 53.400635 Z"/>
    <path id="Path-copy-8" fill="#ece7de" fill-rule="evenodd" stroke="none" d="M 34.491455 61.539215 C 34.449524 61.983429 34.399231 62.427643 34.399231 62.871857 C 34.399231 68.118652 38.623474 72.393188 43.8703 72.393188 C 45.521423 72.393188 46.988159 71.990875 48.320801 71.278442 C 49.653442 71.990875 51.170532 72.393188 52.771362 72.393188 C 58.018127 72.393188 62.284302 68.168915 62.284302 62.871857 C 62.284302 62.427643 62.242371 61.983429 62.192078 61.539215 C 61.571899 66.165771 57.573914 69.727875 52.771362 69.727875 C 51.170532 69.727875 49.653442 69.325562 48.320801 68.613159 C 46.988159 69.325562 45.521423 69.727875 43.8703 69.727875 C 39.117981 69.727875 35.161926 66.165771 34.491455 61.539215 Z"/>
    <path id="Path-copy-7" fill="#5e5c52" fill-rule="evenodd" stroke="none" d="M 48.295898 51.464478 C 47.617004 51.464478 46.946472 51.531525 46.27594 51.665619 C 46.23407 51.665619 46.183777 51.665619 46.099976 51.715912 C 44.004578 52.202026 43.342468 54.917633 44.985229 56.334106 C 45.605469 56.828583 46.317871 57.314728 47.256592 57.67511 C 47.566711 57.784088 47.910339 57.842743 48.245605 57.842743 C 48.589233 57.842743 48.9245 57.784088 49.209473 57.67511 C 50.148193 57.272827 50.902527 56.828583 51.480835 56.334106 C 53.21582 54.86734 52.503357 52.160126 50.324219 51.665619 L 50.273926 51.665619 C 49.636902 51.531525 48.966431 51.464478 48.295898 51.464478 Z"/>
    <path id="Path-copy-6" fill="#504e46" fill-rule="evenodd" stroke="none" d="M 44.230896 53.450928 L 44.230896 53.450928 C 43.962708 54.423157 44.188965 55.537903 45.077454 56.334137 C 45.655762 56.828644 46.410095 57.314758 47.340393 57.675171 C 47.650513 57.784119 47.985779 57.842804 48.321045 57.842804 C 48.656311 57.842804 48.991577 57.784119 49.301697 57.675171 C 50.231995 57.314758 50.944458 56.828644 51.564636 56.334137 C 52.453125 55.630096 52.679382 54.515381 52.411194 53.450928 L 52.411194 53.450928 C 52.235168 53.895142 51.96698 54.339355 51.564636 54.649475 C 50.944458 55.185883 50.231995 55.630096 49.301697 55.982117 C 48.991577 56.091064 48.656311 56.14975 48.321045 56.14975 C 47.985779 56.14975 47.650513 56.091064 47.340393 55.982117 C 46.410095 55.671997 45.655762 55.185883 45.077454 54.649475 C 44.63324 54.339355 44.406921 53.895142 44.230896 53.450928 Z"/>
    <path id="Path-copy-5" fill="#64655c" fill-rule="evenodd" stroke="none" d="M 48.388123 51.766205 C 47.885254 51.766205 47.390747 51.82489 46.89624 51.933838 L 46.762146 51.933838 C 46.452026 51.984131 46.183838 52.160156 45.965881 52.336151 C 45.387573 52.822266 45.387573 53.710693 45.965881 54.154938 C 46.410095 54.55722 46.946533 54.86734 47.608643 55.185852 C 47.834961 55.244507 48.086426 55.278046 48.346252 55.278046 C 48.597656 55.278046 48.857483 55.244507 49.075378 55.185852 C 49.745911 54.86734 50.273926 54.55722 50.726563 54.154938 C 51.304871 53.710693 51.304871 52.822266 50.726563 52.378052 C 50.500244 52.202057 50.190125 52.067932 49.963867 51.933838 L 49.880005 51.933838 C 49.385498 51.82489 48.890991 51.766205 48.388123 51.766205 Z"/>
    <path id="Path-copy-4" fill="#504e46" fill-rule="evenodd" stroke="none" d="M 64.112061 39.570923 C 61.220459 39.570923 58.907166 41.926117 58.907166 44.817719 L 58.907166 48.153534 C 58.907166 51.045105 61.220459 53.400299 64.112061 53.400299 C 66.995239 53.400299 69.358826 51.045105 69.358826 48.153534 L 69.358826 44.817719 C 69.358826 41.926117 66.995239 39.570923 64.112061 39.570923 Z"/>
    <path id="Path-copy-3" fill="#ffffff" fill-rule="evenodd" stroke="none" d="M 68.688416 37.835938 C 66.333252 37.835938 64.422302 39.746887 64.422302 42.110474 C 64.422302 44.423737 66.291321 46.376617 68.688416 46.376617 C 71.001709 46.376617 72.95459 44.507568 72.95459 42.110474 C 72.95459 39.704987 71.093933 37.835938 68.688416 37.835938 Z"/>
    <path id="Path-copy-2" fill="#504e46" fill-rule="evenodd" stroke="none" d="M 32.488098 39.570923 C 29.596497 39.570923 27.283203 41.926117 27.283203 44.817719 L 27.283203 48.153534 C 27.283203 51.045105 29.596497 53.400299 32.488098 53.400299 C 35.3797 53.400299 37.734863 51.045105 37.734863 48.153534 L 37.734863 44.817719 C 37.734863 41.926117 35.3797 39.570923 32.488098 39.570923 Z"/>
    <path id="Path-copy" fill="#ffffff" fill-rule="evenodd" stroke="none" d="M 27.953674 37.835938 C 25.59845 37.835938 23.637207 39.704987 23.637207 42.110474 C 23.637207 44.507568 25.59845 46.376617 27.953674 46.376617 C 30.266907 46.376617 32.219788 44.423737 32.219788 42.110474 C 32.219788 39.746887 30.266907 37.835938 27.953674 37.835938 Z"/>
</svg>
