<?xml version="1.0" encoding="UTF-8"?>
<!-- Generated by Pixelmator Pro 3.4.1 -->
<svg width="145" height="125" viewBox="0 0 145 125" xmlns="http://www.w3.org/2000/svg">
    <path id="Path-copy-27" fill="#cccccc" fill-rule="evenodd" stroke="none" d="M 21.834778 0.500366 C 14.085052 0.500366 12.957825 31.665039 13.263123 33.438171 L 15.071381 31.629822 L 15.071381 31.629822 C 15.071381 31.629822 14.695648 39.227234 15.881592 41.035553 C 15.928558 41.106018 16.010742 41.141235 16.116425 41.141235 C 18.864044 41.141235 41.115143 19.981201 41.115143 19.981201 C 41.115143 19.981201 30.523834 2.038635 22.363159 0.535614 C 22.187042 0.512146 22.010895 0.500366 21.834778 0.500366 Z"/>
    <path id="Path-copy-26" fill="#e9c38c" fill-rule="evenodd" stroke="none" d="M 25.052368 11.327087 C 24.934937 11.327087 24.829254 11.338837 24.735321 11.385803 C 21.741119 12.560059 24.735321 38.111786 24.735321 38.111786 L 37.311005 26.95639 C 37.311005 26.95639 28.304901 11.327087 25.052368 11.327087 Z"/>
    <path id="Path-copy-25" fill="#cccccc" fill-rule="evenodd" stroke="none" d="M 123.19455 0.500366 C 123.018433 0.500366 122.842316 0.512146 122.666168 0.535614 C 114.505493 2.038635 103.914215 19.981201 103.914215 19.981201 C 103.914215 19.981201 126.223999 41.141235 128.924652 41.141235 C 129.030334 41.141235 129.1008 41.106018 129.147766 41.035553 C 130.333679 39.227234 130.016663 31.629822 130.016663 31.629822 L 130.016663 31.629822 L 131.766205 33.438171 C 132.071503 31.665039 130.944275 0.500366 123.19455 0.500366 Z"/>
    <path id="Path-copy-24" fill="#e9c38c" fill-rule="evenodd" stroke="none" d="M 120.036072 11.327087 C 116.724854 11.327087 107.718719 26.95639 107.718719 26.95639 L 120.364868 38.111786 C 120.364868 38.111786 123.288605 12.560059 120.364868 11.385803 C 120.259186 11.338837 120.153503 11.327087 120.036072 11.327087 Z"/>
    <path id="Path-copy-23" fill="#b7b7b7" fill-rule="evenodd" stroke="none" d="M 89.022186 9.800537 C 79.875183 9.800537 72.736053 13.616882 72.454254 13.816498 C 72.207672 13.663849 65.021576 9.812317 55.827576 9.812317 C 52.997772 9.812317 49.980072 10.176331 46.903656 11.127441 L 52.19931 13.816498 C 52.19931 13.816498 21.05954 19.112366 6.10022 52.813416 L 11.090576 50.511871 L 11.090576 50.511871 C 11.090576 50.511871 4.609009 60.78656 6.10022 80.666656 L 7.908508 76.862091 C 7.908508 76.862091 8.530823 92.749695 8.225525 101.779724 L 9.963348 98.292175 C 9.963348 98.292175 24.499939 124.806793 67.83963 124.806793 C 69.366089 124.806793 70.916046 124.783295 72.51297 124.71286 C 74.109863 124.783295 75.659821 124.806793 77.186279 124.806793 C 120.52597 124.806793 135.062561 98.292175 135.062561 98.292175 L 136.812134 101.779724 C 136.495087 92.69101 137.117401 76.862091 137.117401 76.862091 L 138.92569 80.666656 C 140.229034 60.78656 133.817902 50.511871 133.817902 50.511871 L 133.817902 50.511871 L 138.796509 52.813416 C 123.848969 19.112366 92.697449 13.816498 92.697449 13.816498 L 97.993073 11.127441 C 94.904938 10.176331 91.875519 9.800537 89.022186 9.800537 Z"/>
    <path id="Path-copy-22" fill="#000000" fill-rule="evenodd" stroke="none" d="M 72.456024 86.949707 C 72.080292 86.949707 71.704529 87.266785 71.704529 87.642517 L 71.704529 94.312286 C 71.704529 97.048279 69.590973 99.232391 66.843353 99.232391 C 64.107452 99.232391 61.923462 97.048279 61.923462 94.312286 C 61.923462 93.936523 61.618164 93.619476 61.242432 93.619476 C 60.807953 93.619476 60.490936 93.936523 60.490936 94.312286 C 60.490936 97.858521 63.414673 100.723694 66.913788 100.723694 C 69.403107 100.723694 71.516663 99.291107 72.573456 97.236176 C 73.700684 99.232391 75.755524 100.723694 78.244812 100.723694 C 81.802643 100.723694 84.667694 97.858521 84.667694 94.312286 C 84.409363 94.12439 84.04538 93.689941 83.669617 93.689941 C 83.293884 93.689941 82.976837 93.995239 82.976837 94.429688 C 82.976837 97.106995 80.804596 99.291107 78.056946 99.291107 C 75.321075 99.291107 73.137054 97.106995 73.137054 94.429688 L 73.137054 87.642517 C 73.137054 87.266785 72.831757 86.949707 72.456024 86.949707 Z"/>
    <path id="Path-copy-21" fill="none" stroke="#000000" stroke-linejoin="round" d="M 72.456024 86.949707 C 72.080292 86.949707 71.704529 87.266785 71.704529 87.642517 L 71.704529 94.312286 C 71.704529 97.048279 69.590973 99.232391 66.843353 99.232391 C 64.107452 99.232391 61.923462 97.048279 61.923462 94.312286 C 61.923462 93.936523 61.618164 93.619476 61.242432 93.619476 C 60.807953 93.619476 60.490936 93.936523 60.490936 94.312286 C 60.490936 97.858521 63.414673 100.723694 66.913788 100.723694 C 69.403107 100.723694 71.516663 99.291107 72.573456 97.236176 C 73.700684 99.232391 75.755524 100.723694 78.244812 100.723694 C 81.802643 100.723694 84.667694 97.858521 84.667694 94.312286 C 84.409363 94.12439 84.04538 93.689941 83.669617 93.689941 C 83.293884 93.689941 82.976837 93.995239 82.976837 94.429688 C 82.976837 97.106995 80.804596 99.291107 78.056946 99.291107 C 75.321075 99.291107 73.137054 97.106995 73.137054 94.429688 L 73.137054 87.642517 C 73.137054 87.266785 72.831757 86.949707 72.456024 86.949707 Z"/>
    <path id="Path-copy-20" fill="#000000" fill-rule="evenodd" stroke="none" d="M 67.782898 99.232544 C 67.219299 99.232544 66.843536 99.608276 66.843536 100.160187 C 66.843536 103.213257 69.332855 105.714417 72.385773 105.714417 C 75.379974 105.714417 77.869293 103.213257 77.869293 100.160187 C 77.869293 99.608276 77.49353 99.232544 76.941681 99.232544 C 76.436768 99.232544 76.002319 99.608276 76.002319 100.160187 C 76.002319 102.215118 74.381897 103.835571 72.385773 103.835571 C 70.330933 103.835571 68.710541 102.215118 68.710541 100.160187 C 68.710541 99.608276 68.346527 99.232544 67.782898 99.232544 Z"/>
    <path id="Path-copy-19" fill="none" stroke="#000000" stroke-linejoin="round" d="M 67.782898 99.232544 C 67.219299 99.232544 66.843536 99.608276 66.843536 100.160187 C 66.843536 103.213257 69.332855 105.714417 72.385773 105.714417 C 75.379974 105.714417 77.869293 103.213257 77.869293 100.160187 C 77.869293 99.608276 77.49353 99.232544 76.941681 99.232544 C 76.436768 99.232544 76.002319 99.608276 76.002319 100.160187 C 76.002319 102.215118 74.381897 103.835571 72.385773 103.835571 C 70.330933 103.835571 68.710541 102.215118 68.710541 100.160187 C 68.710541 99.608276 68.346527 99.232544 67.782898 99.232544 Z"/>
    <path id="Path-copy-18" fill="#783f04" fill-rule="evenodd" stroke="none" d="M 72.127258 73.927124 C 70.612549 73.927124 60.925385 74.138489 60.925385 79.540039 C 60.925385 85.399567 72.326874 90.131805 72.326874 90.131805 C 72.326874 90.131805 83.787048 85.399567 83.787048 79.540039 C 83.787048 74.138489 74.052948 73.927124 72.526489 73.927124 C 72.397339 73.927124 72.326874 73.938873 72.326874 73.938873 C 72.326874 73.938873 72.256409 73.927124 72.127258 73.927124 Z"/>
    <path id="Path-copy-17" fill="#ffffff" fill-rule="evenodd" stroke="none" d="M 66.972595 76.369598 C 64.976471 76.369598 63.356079 77.355957 63.356079 78.612427 C 63.356079 79.857117 64.976471 80.855225 66.972595 80.855225 C 69.027466 80.855225 70.647858 79.857117 70.647858 78.612427 C 70.647858 77.355957 69.027466 76.369598 66.972595 76.369598 Z"/>
    <path id="Path-copy-16" fill="none" stroke="none" d="M 60.923553 86.773499 C 60.923553 86.773499 28.961823 80.596954 2.612793 93.619385"/>
    <path id="Path-copy-15" fill="none" stroke="#000000" stroke-width="0.181102" stroke-linecap="round" stroke-linejoin="round" d="M 60.923553 86.773499 C 60.923553 86.773499 28.961823 80.596954 2.612793 93.619385"/>
    <path id="Path-copy-14" fill="none" stroke="none" d="M 60.923798 89.944061 C 60.923798 89.944061 34.069855 87.454651 11.020325 105.526398"/>
    <path id="Path-copy-13" fill="none" stroke="#000000" stroke-width="0.181102" stroke-linecap="round" stroke-linejoin="round" d="M 60.923798 89.944061 C 60.923798 89.944061 34.069855 87.454651 11.020325 105.526398"/>
    <path id="Path-copy-12" fill="none" stroke="none" d="M 60.924316 92.691864 C 60.924316 92.691864 46.599091 92.316101 26.907745 108.826111"/>
    <path id="Path-copy-11" fill="none" stroke="#000000" stroke-width="0.181102" stroke-linecap="round" stroke-linejoin="round" d="M 60.924316 92.691864 C 60.924316 92.691864 46.599091 92.316101 26.907745 108.826111"/>
    <path id="Path-copy-10" fill="none" stroke="none" d="M 83.787781 86.773499 C 83.787781 86.773499 115.749512 80.596954 142.168976 93.619385"/>
    <path id="Path-copy-9" fill="none" stroke="#000000" stroke-width="0.181102" stroke-linecap="round" stroke-linejoin="round" d="M 83.787781 86.773499 C 83.787781 86.773499 115.749512 80.596954 142.168976 93.619385"/>
    <path id="Path-copy-8" fill="none" stroke="none" d="M 83.787781 89.944061 C 83.787781 89.944061 110.641724 87.454651 133.691254 105.526398"/>
    <path id="Path-copy-7" fill="none" stroke="#000000" stroke-width="0.181102" stroke-linecap="round" stroke-linejoin="round" d="M 83.787781 89.944061 C 83.787781 89.944061 110.641724 87.454651 133.691254 105.526398"/>
    <path id="Path-copy-6" fill="none" stroke="none" d="M 83.787781 92.691864 C 83.787781 92.691864 98.124756 92.316101 117.874786 108.826111"/>
    <path id="Path-copy-5" fill="none" stroke="#000000" stroke-width="0.181102" stroke-linecap="round" stroke-linejoin="round" d="M 83.787781 92.691864 C 83.787781 92.691864 98.124756 92.316101 117.874786 108.826111"/>
    <path id="Path-copy-4" fill="#38761d" fill-rule="evenodd" stroke="none" d="M 47.057281 58.567749 C 44.920227 58.567749 42.113892 59.929871 39.742004 62.348846 C 36.254639 65.777649 34.951294 70.134155 36.876953 72.00119 C 37.921997 73.046265 41.99649 73.269409 45.413391 73.269409 C 48.149292 73.269409 50.462463 73.128479 50.462463 73.128479 C 50.462463 73.128479 51.202209 61.409424 49.40567 59.413208 C 48.818573 58.83783 48.008392 58.567749 47.057281 58.567749 Z"/>
    <path id="Path-copy-3" fill="#274e13" fill-rule="evenodd" stroke="none" d="M 45.730652 59.67157 C 45.730652 59.67157 42.924286 62.031799 42.231537 65.519348 C 41.421326 68.948151 43.112183 72.189087 43.112183 72.189087 C 43.112183 72.189087 45.848053 69.887573 46.599548 66.400024 C 47.351044 62.971191 45.730652 59.67157 45.730652 59.67157 Z"/>
    <path id="Path-copy-2" fill="#38761d" fill-rule="evenodd" stroke="none" d="M 97.0448 58.567749 C 96.093689 58.567749 95.271759 58.83783 94.696381 59.413208 C 92.946838 61.409424 93.639618 73.128479 93.639618 73.128479 C 93.639618 73.128479 95.964539 73.269409 98.712158 73.269409 C 102.140808 73.269409 106.23877 73.046265 107.283813 72.00119 C 109.150787 70.134155 107.906128 65.777649 104.348297 62.348846 C 101.988159 59.929871 99.170105 58.567749 97.0448 58.567749 Z"/>
    <path id="Path-copy" fill="#274e13" fill-rule="evenodd" stroke="none" d="M 98.371765 59.67157 C 98.371765 59.67157 96.810059 62.971191 97.502838 66.400024 C 98.242584 69.887573 101.04892 72.189087 101.04892 72.189087 C 101.04892 72.189087 102.669342 68.948151 101.859131 65.519348 C 101.178101 62.031799 98.371765 59.67157 98.371765 59.67157 Z"/>
</svg>
