<?xml version="1.0" encoding="UTF-8"?>
<!-- Generated by Pixelmator Pro 3.4.1 -->
<svg width="101" height="123" viewBox="0 0 101 123" xmlns="http://www.w3.org/2000/svg">
    <path id="Path-copy-11" fill="#5e5e5e" fill-rule="evenodd" stroke="none" d="M 12.871521 2.186462 C 10.543701 2.186462 8.560364 4.324219 7.800293 6.687592 C 7.040222 9.217285 7.36084 11.925079 7.479614 14.502258 C 7.800293 19.549713 7.729004 24.644684 6.850159 29.632751 C 6.28009 32.779999 5.460632 35.737213 5.02124 38.896332 C 4.201721 44.88205 4.902466 51.057739 7.099548 56.663391 C 7.099548 56.663391 6.909546 57.981689 5.591248 60.630096 C 2.063965 67.755951 0.294434 76.01001 1.814575 83.884064 C 3.322876 91.758087 8.049683 98.943298 14.605469 103.159424 C 14.605469 103.159424 30.104126 113.871918 34.201477 116.710358 C 38.061279 119.453796 42.229919 122.256622 46.956726 122.256622 C 47.016113 122.256622 47.063599 122.256622 47.111084 122.256622 L 53.738098 122.256622 C 58.524292 122.256622 62.871033 119.667572 66.647766 116.710358 C 66.457703 116.710358 81.588196 106.567932 85.863708 103.159424 C 91.920654 98.37323 97.027527 91.758087 98.595215 83.884064 C 100.174744 76.01001 98.405151 67.755951 94.818481 60.630096 C 93.488342 57.981689 93.369568 56.663391 93.369568 56.663391 C 95.447937 51.057739 96.208069 44.810791 95.38855 38.896332 C 94.937256 35.737213 94.117798 32.720612 93.559631 29.632751 C 92.740112 24.644684 92.55011 19.549713 92.930176 14.502258 C 93.120178 11.925079 93.428955 9.146027 92.609497 6.687592 C 91.896912 4.300446 89.87793 2.198334 87.526428 2.198334 C 87.395752 2.198334 87.265137 2.198334 87.13446 2.222076 C 84.604797 2.530884 82.965881 5.048676 81.70697 7.317047 C 76.86145 16.081818 72.003967 24.834717 67.217773 33.5401 C 66.2677 35.238403 65.388855 36.87735 64.450623 38.516296 C 64.450623 38.516296 64.272461 38.765686 63.714294 38.765686 C 63.441101 38.765686 63.061096 38.706329 62.550415 38.516296 C 59.248779 37.364288 55.768982 36.746704 52.33667 36.746704 C 52.17041 36.746704 52.00415 36.746704 51.837891 36.746704 L 48.631287 36.746704 C 48.465027 36.746704 48.298706 36.746704 48.132446 36.746704 C 44.640808 36.746704 41.220398 37.364288 37.918762 38.516296 C 37.408081 38.658813 37.039917 38.706329 36.754883 38.706329 C 36.196716 38.706329 36.030457 38.516296 36.030457 38.516296 C 35.080322 36.87735 34.201477 35.167145 33.251343 33.5401 C 28.46521 24.77533 23.54834 16.081818 18.762207 7.317047 C 17.503296 5.048676 15.864319 2.471497 13.346558 2.222076 C 13.180298 2.198334 13.025879 2.186462 12.871521 2.186462 Z"/>
    <path id="Path-copy-10" fill="#5e5e5e" fill-rule="evenodd" stroke="none" d="M 12.36084 2.815918 C 13.28717 2.815918 14.356018 3.195953 15.614929 4.110443 C 17.12323 5.179291 18.061462 7.50708 18.88092 9.086639 C 20.080444 11.295624 21.339355 13.492767 22.538879 15.571136 C 26.63623 22.94635 30.543518 30.380981 34.771545 37.756195 C 35.460388 39.015106 35.460388 39.335754 36.778625 39.454529 C 36.826172 39.454529 36.861755 39.4664 36.909302 39.4664 C 37.930664 39.4664 39.593323 38.753815 40.495972 38.445038 C 42.835571 37.815582 45.294006 37.506805 47.74054 37.506805 C 48.880676 37.506805 50.068298 37.471161 51.25592 37.471161 C 51.861633 37.471161 52.455444 37.483063 53.037415 37.506805 C 55.246399 37.566193 57.455444 37.886841 59.652527 38.445038 C 60.567017 38.718201 61.968445 39.478271 63.061096 39.478271 C 63.262939 39.478271 63.453003 39.454529 63.631165 39.395142 C 65.139465 39.015106 65.329468 37.886841 66.077698 36.497314 C 68.167908 32.779999 70.175049 29.12207 72.134644 25.464142 C 74.213013 21.746857 76.231995 18.029541 78.310364 14.252869 C 79.248596 12.554535 80.258057 10.784943 81.208191 8.955994 C 81.588196 8.207794 82.087036 7.388306 82.467041 6.687592 C 83.844727 4.454834 84.177246 4.098541 86.635681 4.098541 C 86.885071 4.098541 87.146362 4.098541 87.443298 4.110443 C 90.911194 4.1698 91.481262 4.680481 92.170044 8.017761 C 92.490723 9.276642 92.490723 10.535553 92.419495 11.925079 C 92.30072 14.312225 92.110718 16.711273 91.980042 19.039032 C 91.980042 23.326416 92.419495 27.542511 93.238953 31.770508 C 94.189026 36.497314 95.257935 41.034088 95.008545 45.820282 C 94.818481 48.599335 94.379089 51.307159 93.559631 53.884338 C 93.238953 54.834442 92.740112 55.843933 92.740112 56.782166 C 92.740112 59.620605 95.38855 63.088531 96.267395 65.606323 C 97.846985 69.953064 98.595215 74.620483 98.47644 79.216644 C 98.096375 88.919647 92.609497 96.793671 85.305542 102.79126 C 85.246155 102.87439 85.222412 102.95752 85.222412 103.052521 L 85.222412 103.052521 C 79.11792 107.814972 72.479065 111.864807 66.148926 116.330322 C 62.989807 118.539337 59.84259 120.938354 55.935242 121.627197 C 54.616943 121.852844 53.227417 121.90036 51.837891 121.90036 C 50.899658 121.90036 49.973328 121.876587 49.070679 121.876587 C 42.704956 121.876587 38.108826 119.038147 33.001953 115.582123 C 26.576843 111.164093 20.021057 106.817352 13.655334 102.221191 C 6.909546 97.363739 2.634033 89.620361 1.743347 81.425659 C 1.363281 77.518311 1.68396 73.480347 2.634033 69.703674 C 3.572266 65.855713 5.531921 62.459076 6.850159 58.74176 C 7.539001 56.722778 7.170837 56.342743 6.470154 54.145599 C 5.211243 49.7276 4.712402 45.060181 5.211243 40.46402 C 5.591248 36.366669 6.850159 32.459351 7.420227 28.433258 C 8.049683 24.335907 8.10907 20.238556 7.990295 16.141205 C 7.85968 14.312225 7.669617 12.554535 7.669617 10.666199 C 7.717163 7.982117 8.976074 2.815918 12.36084 2.815918 Z M 87.847046 1.782654 C 87.253235 1.782654 86.588196 1.901428 85.863708 2.150818 C 83.595337 2.910919 82.217651 5.369324 81.148804 7.25766 C 78.619141 11.604431 76.291382 16.02243 73.892334 20.428558 C 71.623962 24.585297 69.296143 28.742035 66.968384 32.839386 C 65.899536 34.668335 65.008789 37.946228 62.550415 38.255005 C 62.419739 38.278778 62.277222 38.290649 62.134705 38.290649 C 60.281982 38.290649 57.562317 36.912994 55.745239 36.687347 C 54.450684 36.509186 53.144287 36.473572 51.802246 36.473572 C 50.733398 36.473572 49.652649 36.497314 48.559998 36.497314 C 47.111084 36.497314 45.66217 36.497314 44.15387 36.687347 C 42.348694 36.912994 39.795227 38.231262 37.978149 38.231262 C 37.823792 38.231262 37.681274 38.219391 37.538757 38.195648 C 35.139709 37.886841 33.762024 34.03891 32.752563 32.150543 C 31.683655 30.190948 30.543518 28.183838 29.534058 26.224243 C 27.016235 21.687469 24.498474 17.02005 21.909424 12.423889 C 20.127991 9.359802 17.37262 1.782654 12.800232 1.782654 C 12.194519 1.782654 11.553223 1.925171 10.888123 2.222076 C 4.011719 5.179291 7.230225 16.711273 6.980835 22.198151 C 6.660156 31.200439 3.132874 39.703918 4.391785 48.789368 C 4.77179 51.805969 6.660156 55.143219 6.030701 58.041046 C 5.650635 59.679993 4.451172 61.449585 3.821716 63.088531 C 2.824097 65.546936 1.93335 68.124115 1.43457 70.713165 C -0.014343 77.577698 0.555664 84.762909 3.453552 91.128662 C 7.919067 100.96228 17.62207 106.12851 26.13739 111.983582 C 31.363037 115.641479 36.849915 120.487061 43.025635 122.31601 C 45.104004 122.909851 47.681152 123.206757 50.282104 123.206757 C 53.274963 123.206757 56.291504 122.814819 58.643066 122.007233 C 63.559875 120.308899 67.977905 116.401581 72.194031 113.503754 C 77.051453 110.225861 81.778259 107.066742 86.184387 103.610718 C 91.980042 98.883911 96.896851 92.708221 98.785217 85.332977 C 100.614197 77.898376 99.355286 69.953064 96.398071 63.029144 C 95.697327 61.390198 94.189026 59.311829 94.058411 57.601624 C 93.868408 55.90332 94.628479 54.585022 95.067932 52.946106 C 96.077393 48.848755 96.398071 44.561371 96.018005 40.404633 C 95.638 36.806091 94.628479 33.219421 93.999023 29.632751 C 93.04895 24.205261 93.120178 18.730255 93.428955 13.302734 C 93.654602 9.597321 92.775757 1.782654 87.847046 1.782654 Z"/>
    <path id="Path-copy-9" fill="#494949" fill-rule="evenodd" stroke="none" d="M 9.747986 8.267151 C 9.747986 8.267151 9.747986 8.267151 9.747986 8.267151 L 9.747986 8.267151 C 9.747986 8.267151 9.747986 8.267151 9.747986 8.267151 Z M 12.313293 5.179291 C 10.294312 5.179291 9.759888 8.267151 9.747986 8.267151 C 9.747986 8.267151 9.747986 8.267151 9.747986 8.267151 L 9.747986 8.267151 C 10.068665 11.165009 10.187439 14.193481 10.44873 17.091309 C 10.69812 19.288452 10.44873 21.497437 10.318054 23.647064 C 9.997437 27.233734 9.249207 30.511627 8.358459 33.979523 C 6.850159 39.703918 6.850159 45.820282 8.429749 51.615936 C 8.679138 52.31665 8.869141 53.005463 9.367981 53.504272 C 9.795532 53.89621 10.353699 54.074341 10.935669 54.074341 C 11.493835 54.074341 12.063904 53.908081 12.5271 53.634918 C 13.465332 53.06485 14.28479 52.126617 14.985474 51.307159 C 18.512756 47.019775 22.918884 43.492493 27.835754 41.034088 C 29.534058 40.155243 31.612427 39.074493 31.933105 36.996124 C 32.123108 35.547211 31.172974 34.098297 30.353516 32.839386 C 26.88562 27.993835 23.869019 22.756348 21.220581 17.340729 C 19.332275 13.373993 17.883301 8.837219 14.474792 6.129425 C 13.607849 5.440582 12.895264 5.179291 12.313293 5.179291 Z"/>
    <path id="Path-copy-8" fill="#494949" fill-rule="evenodd" stroke="none" d="M 90.590515 8.267151 L 90.590515 8.267151 C 90.590515 8.267151 90.590515 8.267151 90.590515 8.267151 L 90.590515 8.267151 C 90.590515 8.267151 90.590515 8.267151 90.590515 8.267151 Z M 88.037109 5.179291 C 87.443298 5.179291 86.730713 5.440582 85.863708 6.129425 C 82.467041 8.837219 81.077515 13.373993 79.189209 17.340729 C 76.481384 22.756348 73.52417 27.993835 70.056274 32.839386 C 69.165527 34.098297 68.227295 35.547211 68.476685 36.996124 C 68.797363 39.074493 70.804443 40.155243 72.574036 41.034088 C 77.419617 43.492493 81.837646 47.019775 85.364929 51.307159 C 86.125 52.126617 86.87323 53.06485 87.823303 53.634918 C 88.286499 53.908081 88.868469 54.074341 89.426636 54.074341 C 90.020447 54.074341 90.590515 53.89621 90.970581 53.504272 C 91.481262 53.005463 91.671265 52.31665 91.920654 51.615936 C 93.488342 45.820282 93.488342 39.703918 91.980042 33.979523 C 91.160583 30.511627 90.341125 27.233734 90.032349 23.647064 C 89.901672 21.497437 89.652283 19.288452 89.901672 17.091309 C 90.222351 14.193481 90.281738 11.165009 90.590515 8.267151 L 90.590515 8.267151 C 90.590515 8.267151 90.590515 8.267151 90.590515 8.267151 C 90.590515 8.267151 90.044189 5.179291 88.037109 5.179291 Z"/>
    <path id="Path-copy-7" fill="#211a12" fill-rule="evenodd" stroke="none" d="M 22.28949 74.109802 C 20.7099 74.109802 19.450989 75.380585 19.450989 76.948242 L 19.450989 79.09787 C 19.450989 80.665558 20.7099 81.924469 22.28949 81.924469 C 23.797791 81.924469 25.056641 80.606171 25.12793 79.09787 L 25.12793 76.948242 C 25.12793 75.380585 23.869019 74.109802 22.28949 74.109802 Z"/>
    <path id="Path-copy-6" fill="#211a12" fill-rule="evenodd" stroke="none" d="M 78.060913 74.109802 C 76.481384 74.109802 75.222473 75.380585 75.222473 76.948242 L 75.222473 79.09787 C 75.222473 80.665558 76.481384 81.924469 78.060913 81.924469 C 79.628601 81.924469 80.887512 80.606171 80.887512 79.09787 L 80.887512 76.948242 C 80.887512 75.380585 79.628601 74.109802 78.060913 74.109802 Z"/>
    <path id="Path-copy-5" fill="#494949" fill-rule="evenodd" stroke="none" d="M 50.780884 56.437744 C 48.821289 56.437744 46.861694 56.972198 46.861694 56.972198 C 44.664551 58.231079 43.465027 60.820129 43.334412 63.337921 C 43.144409 65.855713 43.714478 68.385376 44.284546 70.843811 C 46.172852 79.976746 46.74292 89.430328 45.982849 98.693909 L 54.367554 98.693909 C 53.548096 89.430328 54.177551 79.976746 56.065857 70.843811 C 56.635925 68.385376 57.194153 65.855713 57.004089 63.337921 C 56.885376 60.820129 55.685852 58.112305 53.476807 56.972198 C 52.740479 56.580261 51.766663 56.437744 50.780884 56.437744 Z"/>
    <path id="Path-copy-4" fill="#494949" fill-rule="evenodd" stroke="none" d="M 50.198975 55.867676 C 49.937683 55.867676 49.66449 55.879547 49.379456 55.90332 C 43.963867 56.473389 42.396179 61.449585 43.025635 66.425781 C 43.65509 71.722656 45.032715 77.007629 45.543396 82.494537 C 45.982849 87.910156 45.982849 93.266388 45.602783 98.693909 C 45.543396 99.002686 45.757202 99.157074 45.99469 99.157074 C 46.232239 99.157074 46.481628 99.002686 46.481628 98.693909 C 46.932922 91.758087 46.861694 84.822296 45.923462 77.957733 C 45.163391 72.221466 39.937744 58.231079 49.011292 57.102814 C 49.521973 57.031555 50.008911 57.007813 50.460205 57.007813 C 60.198853 57.007813 55.210754 72.055176 54.367554 77.957733 C 53.41748 84.822296 53.358093 91.817474 53.797485 98.693909 C 53.821228 99.002686 54.08252 99.157074 54.320068 99.157074 C 54.569458 99.157074 54.807007 99.002686 54.807007 98.693909 C 54.426941 93.527679 54.426941 88.36145 54.807007 83.18335 C 55.305786 77.518311 56.695313 72.031433 57.455444 66.425781 C 58.108643 60.950775 55.899597 55.867676 50.198975 55.867676 Z"/>
    <path id="Path-copy-3" fill="#3d3d3d" fill-rule="evenodd" stroke="none" d="M 50.032654 108.290009 C 49.818909 108.290009 49.593262 108.456299 49.450745 108.705688 C 48.58374 111.413513 45.864075 112.589264 42.954346 112.589264 C 42.479309 112.589264 41.992371 112.55365 41.505432 112.494263 C 38.987671 112.173584 36.529236 111.045349 35.270325 109.406403 C 35.139709 109.21637 34.961548 109.145111 34.783386 109.145111 C 34.367737 109.145111 33.952087 109.584534 34.260864 110.035858 C 36.030457 112.232971 39.237061 113.681885 42.455566 113.753143 C 44.272644 115.926514 47.122986 117.351685 49.91394 117.351685 C 50.032654 117.351685 50.151428 117.351685 50.270203 117.339813 C 53.16803 117.280426 55.935242 115.950287 57.823608 113.753143 C 61.042114 113.681885 64.379333 112.232971 66.077698 110.035858 C 66.43396 109.596405 66.030151 109.192627 65.6026 109.192627 C 65.400696 109.192627 65.210693 109.275757 65.080078 109.46579 C 63.809265 111.164093 61.291504 112.30423 58.714294 112.55365 C 58.274902 112.601135 57.847351 112.624908 57.4198 112.624908 C 54.474426 112.624908 51.719116 111.460999 50.899658 108.705688 C 50.852173 108.456299 50.638367 108.290009 50.400879 108.290009 C 50.341492 108.290009 50.270203 108.30188 50.198975 108.325653 C 50.151428 108.30188 50.092041 108.290009 50.032654 108.290009 Z"/>
    <path id="Path-copy-2" fill="#211a12" fill-rule="evenodd" stroke="none" d="M 47.277344 97.434998 C 46.279724 97.434998 45.294006 97.767548 44.593323 98.37323 C 44.284546 98.62265 43.963867 98.943298 43.963867 99.323364 C 43.963867 100.071564 44.973328 100.522858 45.792786 100.582245 C 46.612305 100.641632 47.681152 100.831665 48.001831 101.520477 C 48.310608 102.149933 47.811829 102.850647 47.871155 103.480072 C 47.871155 103.480072 47.74054 105.689087 50.139587 105.87912 C 50.198975 105.87912 52.538574 105.499054 52.467346 103.480072 C 52.467346 102.850647 52.099182 102.149933 52.407959 101.520477 C 52.657349 100.831665 53.738098 100.772278 54.616943 100.582245 C 55.436462 100.522858 56.445923 100.071564 56.374695 99.323364 C 56.374695 98.943298 56.065857 98.62265 55.745239 98.37323 C 54.997009 97.767548 54.011292 97.434998 53.049255 97.434998 C 52.728638 97.434998 52.396057 97.470642 52.099182 97.553772 L 48.310608 97.553772 C 47.978088 97.470642 47.621765 97.434998 47.277344 97.434998 Z"/>
    <path id="Path-copy" fill="none" stroke="#211a12" stroke-width="0.041995" d="M 47.277344 97.434998 C 46.279724 97.434998 45.294006 97.767548 44.593323 98.37323 C 44.284546 98.62265 43.963867 98.943298 43.963867 99.323364 C 43.963867 100.071564 44.973328 100.522858 45.792786 100.582245 C 46.612305 100.641632 47.681152 100.831665 48.001831 101.520477 C 48.310608 102.149933 47.811829 102.850647 47.871155 103.480072 C 47.871155 103.480072 47.74054 105.689087 50.139587 105.87912 C 50.198975 105.87912 52.538574 105.499054 52.467346 103.480072 C 52.467346 102.850647 52.099182 102.149933 52.407959 101.520477 C 52.657349 100.831665 53.738098 100.772278 54.616943 100.582245 C 55.436462 100.522858 56.445923 100.071564 56.374695 99.323364 C 56.374695 98.943298 56.065857 98.62265 55.745239 98.37323 C 54.997009 97.767548 54.011292 97.434998 53.049255 97.434998 C 52.728638 97.434998 52.396057 97.470642 52.099182 97.553772 L 48.310608 97.553772 C 47.978088 97.470642 47.621765 97.434998 47.277344 97.434998 Z"/>
</svg>
