<?xml version="1.0" encoding="UTF-8"?>
<!-- Generated by Pixelmator Pro 3.4.1 -->
<svg width="187" height="210" viewBox="0 0 187 210" xmlns="http://www.w3.org/2000/svg">
    <path id="Path-copy-43" fill="#8a8067" fill-rule="evenodd" stroke="none" d="M 95.625092 47.151001 C 89.145081 47.151001 82.652985 47.792938 76.318359 49.088928 C 64.678589 51.462921 55.23114 58.076141 49.962341 68.807495 C 46.365051 76.208008 43.022095 83.717529 40.139404 91.432953 C 37.69278 98.046173 33.320282 104.417145 33.380859 111.672302 C 33.380859 119.000153 37.244629 127.103149 39.30368 134.103973 C 40.454346 138.222107 41.677643 142.388672 44.306 145.731628 C 47.334015 149.522705 51.706512 151.38797 55.170563 154.609802 C 58.767883 157.880096 61.795898 161.86496 63.915527 166.237457 C 64.109314 166.625031 64.363678 167.073181 64.484802 167.460785 C 64.557465 167.521332 64.557465 167.521332 64.557465 167.581909 C 66.677094 172.087616 68.021545 177.223145 71.885315 180.372314 C 74.19873 182.298126 77.21463 183.26712 80.109436 184.163391 C 83.452393 185.132385 86.916473 186.089233 90.453217 186.476807 C 92.039886 187.142975 94.086853 187.397339 96.327576 187.397339 C 102.819672 187.397339 110.983276 185.217163 114.616913 184.163391 C 117.511688 183.26712 120.467072 182.298126 122.841034 180.372314 C 126.692688 177.223145 128.049255 172.087616 130.108337 167.581909 C 131.004639 165.59552 132.034119 163.669678 133.257446 161.925537 C 133.511841 161.477386 133.766174 161.162476 133.959961 160.835449 C 135.692017 158.582581 137.496704 156.535645 139.54364 154.609802 C 142.95929 151.38797 147.392334 149.522705 150.347656 145.731628 C 153.048706 142.388672 154.199341 138.222107 155.422668 134.103973 C 157.409058 127.103149 161.21228 119.000153 161.272827 111.672302 C 161.393921 104.417145 157.033569 98.046173 154.526367 91.4935 C 151.631592 83.790192 148.421875 76.268555 144.751892 68.880157 C 142.438477 64.05954 138.586792 58.269928 134.093201 55.120789 C 129.33313 51.777832 121.557159 50.493958 115.84024 49.27063 C 109.22699 47.865601 102.432098 47.151001 95.625092 47.151001 Z"/>
    <path id="Path-copy-42" fill="#bcb5ac" fill-rule="evenodd" stroke="none" d="M 113.914581 150.213684 C 113.805573 150.213684 113.696564 150.2258 113.587555 150.237915 C 111.407349 150.552826 111.019775 153.314392 110.825989 155.446106 C 110.692749 157.371948 110.244598 159.418884 109.602661 161.223602 C 108.451996 164.699768 106.392944 167.848938 103.498138 170.029114 C 101.887238 171.179779 99.900848 172.015503 97.841766 172.403107 C 97.09082 172.548431 96.327759 172.609009 95.576813 172.609009 C 94.934875 172.609009 94.292908 172.560547 93.663086 172.475769 C 91.543457 172.148743 89.617645 171.373566 88.006714 170.029114 C 84.409424 166.879974 83.452576 161.86554 81.902222 157.238708 C 81.260254 155.312897 80.55777 153.447601 79.528229 151.776154 C 78.365479 152.224304 77.4086 152.866241 76.512329 153.701965 C 75.676575 154.416595 74.840851 155.252319 74.126221 156.015381 C 70.66217 159.552124 67.185974 163.343231 64.484955 167.461334 C 64.557648 167.521912 64.557648 167.521912 64.557648 167.582458 C 66.677277 172.088196 68.021698 177.223724 71.885468 180.372864 C 74.198883 182.298706 77.154266 183.26767 80.036957 184.163971 C 83.452576 185.132935 86.916626 186.089813 90.453369 186.477386 C 92.04007 187.143555 94.087006 187.397919 96.327759 187.397919 C 102.819855 187.397919 110.983429 185.217743 114.617065 184.163971 C 117.511871 183.26767 120.467224 182.298706 122.841217 180.372864 C 126.692871 177.223724 128.049438 172.088196 130.108459 167.582458 C 131.004761 165.596069 132.034302 163.670258 133.257629 161.926117 C 131.840515 160.835999 130.229614 159.806488 128.691376 158.970734 C 124.573242 156.402985 120.527802 153.835205 116.48233 151.267426 C 116.48233 151.194763 116.349121 151.194763 116.349121 151.194763 C 115.658722 150.686035 114.810852 150.213684 113.914581 150.213684 Z"/>
    <path id="Path-copy-41" fill="#a29b92" fill-rule="evenodd" stroke="none" d="M 73.16925 152.599609 C 73.16925 152.599609 73.16925 152.611725 73.16925 152.611725 C 73.16925 152.611725 73.16925 152.599609 73.16925 152.599609 Z M 47.4552 122.924896 C 45.60202 122.924896 43.991119 124.148224 43.022156 125.747009 C 42.065277 127.357941 41.677704 129.150543 41.2901 130.894684 C 41.544464 130.50708 41.738251 129.986267 41.992615 129.610779 C 42.707245 132.566162 43.991119 135.582062 45.783722 138.222504 C 46.437775 139.118805 47.079712 139.954559 47.782227 140.850861 C 50.095642 143.103699 52.469604 145.283875 54.78302 147.536743 L 54.080536 145.356567 L 54.080536 145.356567 C 56.066925 147.14917 57.811066 149.147644 59.288727 151.388397 L 59.543091 147.984894 C 61.020782 148.626831 62.498444 149.656372 63.527985 151.000824 L 63.527985 148.118134 C 66.156311 149.402008 68.27594 151.836548 69.051117 154.731354 C 68.929993 153.31424 68.85733 151.836548 68.663513 150.492096 L 68.663513 150.492096 C 69.886841 150.819122 70.916382 151.715424 71.497772 152.805511 C 71.425079 152.296814 71.425079 151.642761 71.303955 151.073486 C 71.412994 151.025024 71.522003 151.012939 71.643097 151.012939 C 72.357727 151.012939 73.048126 151.824432 73.16925 152.599609 L 73.16925 152.599609 C 72.793762 150.03183 75.737 147.464081 75.034515 144.641937 C 74.319885 141.880371 71.243408 141.371674 68.85733 140.729736 C 61.52948 138.864471 45.856384 132.759949 47.4552 122.924896 Z"/>
    <path id="Path-copy-40" fill="#a29b92" fill-rule="evenodd" stroke="none" d="M 118.662811 152.599609 L 118.662811 152.599609 C 118.662811 152.599609 118.662811 152.611725 118.662811 152.611725 C 118.662811 152.611725 118.662811 152.599609 118.662811 152.599609 Z M 144.364746 122.924896 C 145.975647 132.759949 130.290466 138.864471 122.974731 140.729736 C 120.588654 141.371674 117.512146 141.880371 116.797546 144.641937 C 116.095032 147.464081 119.0383 150.03183 118.662811 152.599609 L 118.662811 152.599609 C 118.783936 151.824432 119.474335 151.012939 120.152588 151.012939 C 120.249512 151.012939 120.358521 151.025024 120.467529 151.073486 C 120.394836 151.642761 120.394836 152.296814 120.33429 152.805511 C 120.91568 151.715424 121.94519 150.819122 123.168518 150.492096 L 123.168518 150.492096 C 122.974731 151.836548 122.902069 153.31424 122.708252 154.731354 C 123.544006 151.836548 125.603058 149.402008 128.2435 148.118134 L 128.2435 151.000824 C 129.333618 149.656372 130.750732 148.626831 132.28894 147.984894 L 132.543335 151.388397 C 133.960449 149.147644 135.753052 147.14917 137.751526 145.356567 L 137.751526 145.356567 L 137.049011 147.536743 C 139.362427 145.283875 141.675842 143.103699 144.049805 140.850861 C 144.752319 139.954559 145.394287 139.118805 146.036194 138.222504 C 147.780396 135.582062 149.124817 132.566162 149.827332 129.610779 C 150.021118 129.986267 150.287598 130.50708 150.541931 130.894684 C 150.154358 129.150543 149.706177 127.357941 148.737244 125.747009 C 147.780396 124.148224 146.169434 122.924896 144.364746 122.924896 Z"/>
    <path id="Path-copy-39" fill="#382f27" fill-rule="evenodd" stroke="none" d="M 55.231201 115.851379 L 55.231201 115.851379 C 53.438599 117.971008 51.827698 120.223846 50.410553 122.537262 L 49.962433 117.971008 C 45.783722 122.476715 44.947998 129.610748 47.782227 135.000641 C 50.555908 140.305756 56.551422 143.685059 62.546936 143.685059 C 62.655945 143.685059 62.777039 143.685059 62.886047 143.685059 C 64.54541 143.648712 66.289581 143.394348 67.961029 143.394348 C 69.511383 143.394348 70.989075 143.612366 72.260834 144.44812 C 75.034515 146.313385 75.410004 150.043915 76.245728 153.132507 C 77.347931 157.759338 79.782471 161.998596 83.125427 165.26886 C 81.453949 153.314178 78.886169 141.492767 75.349457 129.986237 C 74.768066 128.254181 74.198792 126.388916 72.781677 125.177704 C 71.55835 124.148193 69.947418 123.76059 68.40918 123.506226 C 67.222198 123.312439 66.035217 123.215546 64.836121 123.215546 C 62.413696 123.215546 59.979156 123.603149 57.617279 124.34198 C 56.92688 124.559998 56.188049 124.790131 55.461334 124.790131 C 55.170624 124.790131 54.879944 124.753784 54.589264 124.656891 C 53.111572 124.014954 52.917786 121.895325 53.499146 120.357086 C 54.080536 118.879395 55.170624 117.46228 55.231201 115.851379 Z"/>
    <path id="Path-copy-38" fill="#879497" fill-rule="evenodd" stroke="none" d="M 60.475769 119.31546 C 59.930725 119.31546 59.373566 119.339691 58.840637 119.388123 C 57.738434 119.521362 56.648346 119.715149 55.691467 120.1633 C 52.990479 121.192841 51.827698 123.373016 50.87085 125.747009 C 49.768646 128.314789 49.320496 131.403381 50.289459 134.10437 C 51.064636 136.357239 52.917816 138.222504 55.170654 139.239929 C 55.812592 139.566956 56.454529 139.821289 57.096497 139.954529 C 58.380371 140.402679 59.736938 140.85083 61.154053 140.911377 C 61.408417 140.959839 61.650635 140.971954 61.904999 140.971954 C 62.401611 140.971954 62.910309 140.911377 63.467468 140.911377 C 65.199493 140.85083 66.931549 140.790283 68.602997 140.402679 C 70.589386 139.893982 74.198822 138.343628 74.901306 136.284546 C 76.318451 132.178558 74.57428 127.35791 71.945953 124.148193 C 69.269165 120.890045 64.81192 119.31546 60.475769 119.31546 Z"/>
    <path id="Path-copy-37" fill="#778285" fill-rule="evenodd" stroke="none" d="M 60.415222 119.31546 C 59.858063 119.31546 59.313019 119.339691 58.767975 119.388123 C 57.677856 119.4487 56.648346 119.715149 55.558258 120.090637 C 52.917816 121.192841 51.706604 123.312469 50.73761 125.747009 C 49.901886 127.806061 49.453735 130.252716 49.901886 132.566132 C 50.035126 131.463928 50.350037 130.313263 50.73761 129.283752 C 51.706604 126.90976 52.990479 124.717468 55.558258 123.687927 C 56.648346 123.239807 57.677856 123.118683 58.767975 122.924866 C 59.325134 122.876434 59.894379 122.840088 60.451538 122.840088 C 64.775574 122.840088 69.208618 124.378326 71.885406 127.672821 C 73.484192 129.671326 74.840759 132.239105 75.28891 134.940125 C 75.930847 131.149017 74.319946 127.030884 71.885406 124.148193 C 69.196503 120.890045 64.751343 119.31546 60.415222 119.31546 Z"/>
    <path id="Path-copy-36" fill="#0f100f" fill-rule="evenodd" stroke="none" d="M 60.63324 119.969513 C 64.872467 119.969513 68.663574 121.507751 71.049652 124.148193 C 71.243439 124.34198 71.304016 124.463104 71.497803 124.656921 C 73.677979 127.297363 75.737061 131.924194 74.319946 136.090759 C 73.677979 137.895477 70.468262 139.312592 68.40921 139.821289 C 68.021637 139.893982 67.573486 139.954529 67.125336 140.015076 C 65.962555 140.208893 64.67868 140.26944 63.467468 140.402679 C 62.995087 140.402679 62.462158 140.42691 61.953461 140.42691 C 61.699097 140.42691 61.444733 140.42691 61.2146 140.402679 C 59.858063 140.26944 58.513611 139.821289 57.35083 139.506378 C 56.781555 139.312592 56.139618 139.118805 55.497681 138.791779 C 53.305389 137.70166 51.633911 135.969635 50.931396 133.97113 C 50.60437 133.074829 50.410583 132.117981 50.410583 131.08844 C 50.410583 129.477539 50.73761 127.672821 51.440125 126.001343 C 51.960938 124.790131 52.602875 123.506256 53.378052 122.537292 C 54.019989 121.834778 54.855743 121.192841 55.945831 120.672028 C 56.781555 120.357117 57.738434 120.1633 58.961761 120.03009 C 59.482574 119.969513 60.051849 119.969513 60.63324 119.969513 Z M 60.572662 118.746185 C 59.991272 118.746185 59.349335 118.746185 58.767944 118.879425 C 57.423523 119.000549 56.393982 119.254913 55.425018 119.58194 C 54.722504 119.896851 54.080566 120.223877 53.499176 120.672028 C 51.827698 121.955902 50.931396 123.76062 50.228912 125.625885 C 49.647522 126.970337 49.320496 128.314758 49.126709 129.610779 C 49.005585 131.282257 49.126709 132.881042 49.647522 134.358734 C 50.410583 136.67215 52.348541 138.670654 54.855743 139.893982 C 55.497681 140.208893 56.200195 140.463226 56.842133 140.729706 C 58.06546 141.105194 59.543121 141.553314 61.020813 141.686554 L 63.467468 141.686554 C 65.199493 141.553314 66.992096 141.492767 68.736237 141.044617 C 68.990601 140.911377 69.305511 140.85083 69.571991 140.790253 C 71.752167 140.148315 74.768097 138.597961 75.482697 136.551025 C 75.991394 135.073334 76.124634 133.52298 75.991394 132.117981 C 75.676483 128.896149 74.065582 125.819672 72.454651 123.821167 C 69.826324 120.61145 65.453857 118.746185 60.572662 118.746185 Z"/>
    <path id="Path-copy-35" fill="#0f100f" fill-rule="evenodd" stroke="none" d="M 63.140503 122.924896 C 60.960297 122.924896 59.288849 125.940826 59.288849 129.47757 C 59.288849 133.07486 60.960297 135.969666 63.140503 135.969666 C 65.199554 135.969666 66.992157 133.07486 66.992157 129.47757 C 66.992157 125.819702 65.320679 122.924896 63.140503 122.924896 Z"/>
    <path id="Path-copy-34" fill="#382f27" fill-rule="evenodd" stroke="none" d="M 136.855164 115.851379 C 136.976318 117.46228 138.066406 118.879395 138.647766 120.357086 C 139.229187 121.895325 139.0354 124.014954 137.497131 124.656891 C 137.206421 124.753784 136.927856 124.790131 136.637146 124.790131 C 135.934692 124.790131 135.220032 124.559998 134.541748 124.34198 C 132.167786 123.603149 129.733276 123.215546 127.286621 123.215546 C 126.087494 123.215546 124.888397 123.312439 123.677185 123.506226 C 122.199524 123.76059 120.588593 124.148193 119.365265 125.177704 C 117.887604 126.388916 117.378876 128.254181 116.797516 129.986237 C 113.333435 141.492767 110.692993 153.314178 109.021515 165.26886 C 112.364471 161.998596 114.811127 157.759338 115.901215 153.132507 C 116.736938 150.043915 117.124542 146.313385 119.825531 144.44812 C 121.121521 143.612366 122.623444 143.394348 124.185913 143.394348 C 125.857391 143.394348 127.601532 143.648712 129.27301 143.685059 C 129.382019 143.685059 129.491028 143.685059 129.600037 143.685059 C 135.59552 143.685059 141.591003 140.305756 144.364685 135.000641 C 147.138367 129.610748 146.36322 122.476715 142.184509 117.971008 L 141.675842 122.537262 C 140.319275 120.223846 138.720459 117.971008 136.855164 115.851379 Z"/>
    <path id="Path-copy-33" fill="#879497" fill-rule="evenodd" stroke="none" d="M 131.68335 119.31546 C 127.347198 119.31546 122.9505 120.890045 120.273712 124.148193 C 117.572723 127.35791 115.901245 132.178558 117.245697 136.284546 C 118.020874 138.343628 121.618164 139.893982 123.616669 140.402679 C 125.288147 140.790283 127.020172 140.85083 128.752228 140.911377 C 129.309387 140.911377 129.805969 140.971954 130.314697 140.971954 C 130.556946 140.971954 130.811279 140.959839 131.065613 140.911377 C 132.482727 140.85083 133.827209 140.402679 135.111084 139.954529 C 135.753052 139.821289 136.407104 139.566956 137.049011 139.239929 C 139.289795 138.222504 141.155029 136.357239 141.930237 134.10437 C 142.887085 131.403381 142.438904 128.314789 141.348816 125.747009 C 140.379883 123.373016 139.229187 121.192841 136.528198 120.1633 C 135.498657 119.715149 134.469116 119.521362 133.318481 119.388123 C 132.773438 119.339691 132.228394 119.31546 131.68335 119.31546 Z"/>
    <path id="Path-copy-32" fill="#778285" fill-rule="evenodd" stroke="none" d="M 131.68335 119.31546 C 127.347198 119.31546 122.938385 120.890045 120.20105 124.148193 C 117.76651 127.22467 116.155609 131.463928 116.930786 135.327698 C 117.512146 132.881042 118.723358 130.50708 120.20105 128.581238 C 122.938385 125.286743 127.322998 123.748505 131.634888 123.748505 C 132.192078 123.748505 132.761353 123.772736 133.318481 123.821167 C 134.469116 123.881744 135.498657 124.148193 136.528198 124.523682 C 139.16864 125.625885 140.379883 127.745514 141.348816 130.180054 C 141.736389 131.08844 141.990784 132.045319 142.18457 133.074829 C 142.693298 130.640289 142.245117 128.060425 141.348816 125.747009 C 140.379883 123.373016 139.095947 121.192841 136.528198 120.1633 C 135.498657 119.715149 134.469116 119.58194 133.318481 119.388123 C 132.773438 119.339691 132.228394 119.31546 131.68335 119.31546 Z"/>
    <path id="Path-copy-31" fill="#0f100f" fill-rule="evenodd" stroke="none" d="M 131.586426 119.896851 C 132.155701 119.896851 132.676514 119.896851 133.257935 119.969513 C 134.469116 120.03006 135.43811 120.284424 136.213257 120.61145 C 137.303406 120.999054 138.066467 121.640991 138.781067 122.476715 C 139.677368 123.506256 140.258728 124.717468 140.706909 125.940796 C 141.348816 127.551697 141.675842 129.150513 141.796997 130.640289 C 141.857544 131.851501 141.675842 133.014282 141.288269 133.97113 C 140.573669 135.969635 138.902161 137.70166 136.721985 138.791779 C 136.080078 139.118805 135.43811 139.312592 134.85675 139.506378 C 133.766663 139.893982 132.349487 140.26944 131.005066 140.402679 C 130.762817 140.42691 130.520569 140.42691 130.266235 140.42691 C 129.757507 140.42691 129.224609 140.402679 128.752197 140.402679 C 127.468292 140.26944 126.12384 140.26944 124.82785 140.075653 C 124.452393 139.954529 124.125336 139.893982 123.677216 139.821289 C 121.690826 139.312592 118.408417 137.895477 117.827057 136.090759 C 116.409912 131.924194 118.468994 127.297363 120.721832 124.523682 C 120.915649 124.402557 120.976196 124.208771 121.109436 124.075531 C 123.543976 121.447205 127.335052 119.896851 131.586426 119.896851 Z M 131.647034 118.685638 C 126.765808 118.685638 122.393311 120.550903 119.752869 123.76062 C 118.08139 125.747009 116.543152 128.835602 116.228241 132.045319 C 116.034454 133.462433 116.228241 135.000671 116.736938 136.417786 C 117.439453 138.537415 120.394806 139.954529 122.514435 140.596466 C 122.841461 140.729706 123.168488 140.85083 123.483398 140.85083 C 125.215454 141.371643 127.020142 141.43222 128.752197 141.492767 L 131.198853 141.492767 C 132.676514 141.43222 134.093689 140.911377 135.377563 140.535919 C 136.01947 140.26944 136.661438 140.075653 137.363953 139.760742 C 139.871155 138.537415 141.796997 136.551025 142.572144 134.164917 C 143.080872 132.820496 143.214111 131.08844 142.959717 129.223175 C 142.826538 127.999847 142.511597 126.77652 141.990784 125.492645 C 141.288269 123.687927 140.379883 121.895355 138.72052 120.61145 C 138.139099 120.223877 137.497192 119.836273 136.782532 119.521362 C 135.825684 119.061096 134.796143 118.879425 133.379028 118.746185 C 132.870361 118.685638 132.228394 118.685638 131.647034 118.685638 Z"/>
    <path id="Path-copy-30" fill="#0f100f" fill-rule="evenodd" stroke="none" d="M 129.079285 122.924896 C 126.959656 122.924896 125.215546 125.880249 125.215546 129.47757 C 125.215546 133.014313 126.959686 135.969666 129.079285 135.969666 C 131.198914 135.969666 132.930969 133.014313 132.930969 129.47757 C 132.930969 125.880249 131.198914 122.924896 129.079285 122.924896 Z"/>
    <path id="Path-copy-29" fill="#775545" fill-rule="evenodd" stroke="none" d="M 85.766083 172.185211 C 85.596527 172.185211 85.426941 172.221527 85.24527 172.342651 C 84.797119 172.597015 84.736572 173.178406 84.990906 173.626556 C 85.124146 174.01413 85.632874 174.329041 86.020447 174.522827 C 87.304321 175.164795 88.84256 175.237457 90.065887 175.939972 C 90.768402 176.448669 91.422455 177.102722 91.737366 177.865784 C 91.99173 178.447174 92.124969 179.149689 92.512543 179.670502 C 93.081818 180.372986 94.111359 180.566803 95.019745 180.62735 L 95.019745 180.700043 C 95.334686 180.700043 95.661713 180.700043 95.976624 180.62735 C 96.30365 180.62735 96.618561 180.62735 96.945587 180.700043 L 96.945587 180.62735 C 97.902435 180.566803 98.871429 180.372986 99.452789 179.670502 C 99.840393 179.149689 100.022064 178.447174 100.215851 177.865784 C 100.542877 177.102722 101.124268 176.327545 101.960022 175.939972 C 103.110657 175.237457 104.648895 175.164795 105.944916 174.522827 C 106.320374 174.268494 106.78064 174.01413 106.962311 173.626556 C 107.349915 173.178406 107.289337 172.597015 106.901764 172.342651 C 106.756409 172.221527 106.586853 172.185211 106.405151 172.185211 C 106.175018 172.185211 105.9328 172.245758 105.678436 172.282104 C 104.333984 172.548553 102.965332 172.657562 101.584534 172.657562 C 100.978943 172.657562 100.373322 172.633362 99.7677 172.597015 C 98.677612 172.536438 97.551208 172.330536 96.449005 172.330536 C 96.315765 172.330536 96.182526 172.330536 96.049286 172.342651 C 94.886536 172.342651 93.602631 172.536438 92.379303 172.597015 C 91.870605 172.633362 91.349792 172.645447 90.841064 172.645447 C 89.387634 172.645447 87.934174 172.512238 86.408051 172.282104 C 86.190033 172.245758 85.9841 172.185211 85.766083 172.185211 Z"/>
    <path id="Path-copy-28" fill="#ffffff" fill-rule="evenodd" stroke="none" d="M 58.126038 126.134644 C 56.333466 126.134644 54.855774 126.716003 54.855774 127.418518 C 54.855774 128.133118 56.333466 128.702393 58.126038 128.702393 C 59.991302 128.702393 61.408447 128.133118 61.408447 127.418518 C 61.408447 126.716003 59.991302 126.134644 58.126038 126.134644 Z"/>
    <path id="Path-copy-27" fill="#ffffff" fill-rule="evenodd" stroke="none" d="M 125.215515 126.134644 C 123.422913 126.134644 121.945221 126.716003 121.945221 127.418518 C 121.945221 128.133118 123.422913 128.702393 125.215515 128.702393 C 127.020203 128.702393 128.497894 128.133118 128.497894 127.418518 C 128.497894 126.716003 127.020203 126.134644 125.215515 126.134644 Z"/>
    <path id="Path-copy-26" fill="#666666" fill-rule="evenodd" stroke="none" d="M 114.447784 178.301849 C 114.19342 178.301849 114.072296 178.713684 114.363007 178.762115 C 133.572815 185.581238 151.438232 195.670654 167.244568 208.521637 C 167.280884 208.557953 167.329346 208.570068 167.377808 208.570068 C 167.583679 208.570068 167.838074 208.279388 167.632141 208.073486 C 151.765259 195.222504 133.827209 185.133087 114.556793 178.313965 C 114.520447 178.301849 114.4841 178.301849 114.447784 178.301849 Z"/>
    <path id="Path-copy-25" fill="none" stroke="#666666" stroke-linejoin="round" d="M 114.447784 178.301849 C 114.19342 178.301849 114.072296 178.713684 114.363007 178.762115 C 133.572815 185.581238 151.438232 195.670654 167.244568 208.521637 C 167.280884 208.557953 167.329346 208.570068 167.377808 208.570068 C 167.583679 208.570068 167.838074 208.279388 167.632141 208.073486 C 151.765259 195.222504 133.827209 185.133087 114.556793 178.313965 C 114.520447 178.301849 114.4841 178.301849 114.447784 178.301849 Z"/>
    <path id="Path-copy-24" fill="#666666" fill-rule="evenodd" stroke="none" d="M 117.79071 173.105713 C 116.010223 173.105713 114.217651 173.154175 112.425049 173.238953 C 112.146454 173.238953 112.110138 173.711334 112.340271 173.711334 C 112.364471 173.711334 112.400818 173.699219 112.425049 173.687103 C 114.048065 173.614441 115.671082 173.59021 117.282013 173.59021 C 138.829468 173.59021 159.7229 179.743164 180.168152 185.896149 C 180.204529 185.920349 180.22876 185.920349 180.265076 185.920349 C 180.519409 185.920349 180.640564 185.508545 180.362 185.447998 C 160.001465 179.282928 139.217102 173.105713 117.79071 173.105713 Z"/>
    <path id="Path-copy-23" fill="none" stroke="#666666" stroke-linejoin="round" d="M 117.79071 173.105713 C 116.010223 173.105713 114.217651 173.154175 112.425049 173.238953 C 112.146454 173.238953 112.110138 173.711334 112.340271 173.711334 C 112.364471 173.711334 112.400818 173.699219 112.425049 173.687103 C 114.048065 173.614441 115.671082 173.59021 117.282013 173.59021 C 138.829468 173.59021 159.7229 179.743164 180.168152 185.896149 C 180.204529 185.920349 180.22876 185.920349 180.265076 185.920349 C 180.519409 185.920349 180.640564 185.508545 180.362 185.447998 C 160.001465 179.282928 139.217102 173.105713 117.79071 173.105713 Z"/>
    <path id="Path-copy-22" fill="#666666" fill-rule="evenodd" stroke="none" d="M 78.728607 178.301849 C 78.692291 178.301849 78.66806 178.301849 78.631714 178.313965 C 59.349213 185.133087 41.423248 195.222504 25.54425 208.073486 C 25.338348 208.279388 25.495819 208.521637 25.725952 208.521637 C 25.798615 208.521637 25.859161 208.497406 25.931854 208.46106 C 41.738159 195.731201 59.603577 185.581238 78.8255 178.762115 C 79.104095 178.713684 78.982971 178.301849 78.728607 178.301849 Z"/>
    <path id="Path-copy-21" fill="none" stroke="#666666" stroke-linejoin="round" d="M 78.728607 178.301849 C 78.692291 178.301849 78.66806 178.301849 78.631714 178.313965 C 59.349213 185.133087 41.423248 195.222504 25.54425 208.073486 C 25.338348 208.279388 25.495819 208.521637 25.725952 208.521637 C 25.798615 208.521637 25.859161 208.497406 25.931854 208.46106 C 41.738159 195.731201 59.603577 185.581238 78.8255 178.762115 C 79.104095 178.713684 78.982971 178.301849 78.728607 178.301849 Z"/>
    <path id="Path-copy-20" fill="#666666" fill-rule="evenodd" stroke="none" d="M 75.845856 173.129944 C 54.249939 173.129944 33.32016 179.234467 12.826447 185.447998 C 12.535767 185.508545 12.656891 185.920349 12.911224 185.920349 C 12.947571 185.920349 12.983917 185.920349 13.020233 185.896149 C 33.465515 179.743164 54.358948 173.59021 75.894318 173.59021 C 77.517334 173.59021 79.128235 173.614441 80.751282 173.687103 C 80.775482 173.699219 80.811829 173.711334 80.83606 173.711334 C 81.066193 173.711334 81.041962 173.238953 80.751282 173.238953 C 79.116119 173.16629 77.480988 173.129944 75.845856 173.129944 Z"/>
    <path id="Path-copy-19" fill="none" stroke="#666666" stroke-linejoin="round" d="M 75.845856 173.129944 C 54.249939 173.129944 33.32016 179.234467 12.826447 185.447998 C 12.535767 185.508545 12.656891 185.920349 12.911224 185.920349 C 12.947571 185.920349 12.983917 185.920349 13.020233 185.896149 C 33.465515 179.743164 54.358948 173.59021 75.894318 173.59021 C 77.517334 173.59021 79.128235 173.614441 80.751282 173.687103 C 80.775482 173.699219 80.811829 173.711334 80.83606 173.711334 C 81.066193 173.711334 81.041962 173.238953 80.751282 173.238953 C 79.116119 173.16629 77.480988 173.129944 75.845856 173.129944 Z"/>
    <path id="Path-copy-18" fill="#8a8067" fill-rule="evenodd" stroke="none" d="M 7.872528 11.03241 C 5.292633 11.03241 2.967102 12.873474 1.707458 15.150543 C 0.423553 17.463989 0.096527 20.225525 -0.09726 22.865967 C -0.218384 28.134766 0.484131 33.403534 2.022369 38.345276 C 3.18512 42.209045 4.783936 45.806335 6.007263 49.597443 C 7.291138 53.642883 8.005737 57.821594 8.768829 62.000244 C 9.93158 69.134308 11.082245 76.268341 14.231384 82.760468 C 15.648499 85.643158 17.453217 88.416809 18.737091 91.372192 C 19.766632 93.806732 20.408569 96.447174 21.946808 98.506226 C 22.915771 99.911224 24.199677 100.940765 25.229187 102.22464 C 27.46994 105.058899 28.572144 108.716736 31.454834 110.909058 C 33.513885 112.447296 36.408691 113.089233 37.498779 115.402649 C 40.781189 112.580505 41.289886 107.687225 42.379974 103.447968 C 44.184692 97.089111 48.036346 91.565979 52.6026 86.805908 C 57.168884 82.1185 62.49823 78.194183 67.766998 74.342529 C 69.571716 73.058655 71.424866 71.64151 72.26059 69.582458 C 73.677704 66.566528 72.26059 62.969238 70.589111 60.074432 C 66.289307 52.419556 59.990997 46.193939 53.111328 40.658691 C 49.392883 37.703339 45.601807 35.014435 41.738037 32.240784 C 37.244446 29.031067 32.738708 25.760773 28.245117 22.53894 C 23.109589 18.820526 18.095154 15.211121 12.438782 12.388977 C 11.082245 11.686462 9.604553 11.044556 8.005737 11.044556 C 7.957306 11.03241 7.908844 11.03241 7.872528 11.03241 Z"/>
    <path id="Path-copy-17" fill="#d5b498" fill-rule="evenodd" stroke="none" d="M 9.992157 14.823547 C 7.593964 14.823547 5.462219 16.579803 4.335785 18.687317 C 3.112457 20.806946 2.797546 23.314148 2.737 25.82135 C 2.543182 30.641968 3.18515 35.462616 4.662811 40.150024 C 5.692352 43.686768 7.230591 47.029694 8.320679 50.566437 C 9.544006 54.224304 10.185944 58.148621 10.888458 62.060852 C 12.051208 68.686188 13.020203 75.299408 15.975555 81.343353 C 16.992981 83.523529 18.288971 85.522034 19.379059 87.581116 C 19.572845 88.15036 19.887756 88.73175 20.14212 89.252563 C 21.111084 91.493317 21.692474 93.939972 23.109589 95.926361 C 24.00589 97.222351 25.229218 98.17923 26.186066 99.402557 C 28.245148 101.970306 29.335236 105.446503 32.036224 107.432892 C 33.901489 108.789429 36.602509 109.431396 37.559357 111.611572 C 40.647949 108.97113 41.035553 104.477539 42.186188 100.492645 C 43.797119 94.642487 47.261169 89.506927 51.57309 85.073883 C 55.812347 80.761963 60.693542 77.164673 65.586823 73.506805 C 67.318878 72.344055 68.990326 71.06015 69.753387 69.134338 C 70.976715 66.239532 69.753387 62.896606 68.275726 60.195587 C 64.230286 53.134216 58.380127 47.417297 52.02124 42.269623 C 48.678284 39.568604 45.141571 37.000854 41.616913 34.493652 C 38.52832 32.240784 35.439728 30.060608 32.363251 27.807739 C 31.261047 27.044678 30.170959 26.208923 29.080872 25.494324 C 24.320801 22.09082 19.572845 18.687317 14.364624 16.119537 C 13.08075 15.4776 11.724182 14.89621 10.246521 14.835663 C 10.161713 14.823547 10.076935 14.823547 9.992157 14.823547 Z"/>
    <path id="Path-copy-16" fill="#d0a28a" fill-rule="evenodd" stroke="none" d="M 32.363342 27.747253 L 32.363342 27.747253 C 32.545013 28.001617 32.678253 28.134827 32.7388 28.389221 C 36.081757 33.912354 37.886475 41.627747 38.467834 47.986633 C 39.109802 54.999542 37.692657 71.120789 28.184662 71.641602 C 27.990845 71.653717 27.809174 71.653717 27.627502 71.653717 C 25.495758 71.653717 23.376129 70.999664 21.304962 70.357727 C 19.827271 69.836914 18.289032 69.44931 16.871918 68.940613 L 16.871918 68.940613 C 15.902954 70.866425 16.484344 73.240417 17.126282 75.299469 C 18.21637 79.090576 19.37912 82.566742 19.572937 86.418427 C 19.572937 86.806 19.572937 87.133026 19.694061 87.508514 C 20.081635 90.342743 21.498749 93.806824 23.10968 95.865875 C 24.005951 97.14975 25.229279 98.118744 26.186157 99.342041 C 28.245209 101.909821 29.335297 105.373901 32.036316 107.372406 C 33.901581 108.716827 36.60257 109.358795 37.559448 111.551086 C 40.648041 108.910645 41.035614 104.417023 42.186279 100.432159 C 43.79718 94.582001 47.333923 89.446442 51.573181 85.001282 C 55.812408 80.701477 60.693604 77.104187 65.647461 73.434204 C 67.318939 72.283569 68.990417 70.999664 69.826141 69.073853 C 70.976807 66.179047 69.826141 62.83609 68.275787 60.135071 C 64.230347 53.061615 58.380188 47.344666 52.021332 42.209137 C 48.678375 39.508118 45.141632 36.940369 41.617004 34.433167 C 38.528412 32.180298 35.439819 30.000122 32.363342 27.747253 Z"/>
    <path id="Path-copy-15" fill="#8a8067" fill-rule="evenodd" stroke="none" d="M 53.111359 40.792114 C 53.13559 40.816315 53.159821 40.82843 53.184052 40.852661 L 53.184052 40.852661 C 53.159821 40.82843 53.13559 40.816315 53.111359 40.792114 Z M 53.184052 40.852661 L 53.184052 40.852661 C 54.819183 42.233459 57.907776 49.367493 56.454315 51.208527 C 56.139404 50.820923 55.364227 50.566589 55.037201 49.791412 C 54.916077 52.880005 54.916077 56.029175 54.916077 59.178284 C 53.559509 58.524231 52.215088 57.821747 50.870636 56.986023 L 50.870636 56.986023 C 52.723785 62.448578 53.632202 68.298737 53.498962 74.076233 C 52.469421 72.925568 51.318787 71.70224 50.289246 70.418365 L 50.289246 70.418365 C 50.931183 75.626587 47.39444 80.374542 43.79715 84.165619 C 42.065125 85.90979 40.06662 87.702362 37.63208 88.150513 C 37.353485 88.21109 37.074921 88.235291 36.796326 88.235291 C 34.61615 88.235291 32.278503 86.733398 32.169495 84.625885 C 31.709229 86.551727 31.139984 88.416992 30.691833 90.342804 C 25.544159 85.90979 22.528259 79.090637 22.915833 72.223083 L 22.915833 72.223083 C 21.753082 73.119354 21.050568 74.597046 21.111115 76.01416 C 20.214813 71.254089 19.379089 66.433472 18.482788 61.746094 C 17.647064 61.867188 17.25946 62.836182 17.186798 63.671906 C 17.065674 64.447083 17.065674 65.403931 16.544861 65.985321 C 16.242035 66.300232 15.93924 66.433472 15.660675 66.433472 C 14.304108 66.433472 13.250366 63.332764 12.49939 62.969421 C 12.281372 62.872498 12.063354 62.836182 11.833221 62.836182 C 11.36087 62.836182 10.876373 62.969421 10.428223 62.969421 C 10.367676 62.969421 10.307098 62.969421 10.246552 62.969421 C 9.737823 62.836182 9.21701 62.509155 8.76886 62.060974 L 8.76886 62.060974 C 9.931641 69.195038 11.082275 76.329071 14.231445 82.881744 C 15.64856 85.77655 17.453278 88.477539 18.737152 91.432892 C 19.766693 93.879547 20.40863 96.507874 21.946869 98.627502 C 22.915833 99.98407 24.199707 101.013611 25.229248 102.297485 C 27.470001 105.119598 28.572205 108.789581 31.454895 110.969757 C 33.513947 112.508026 36.408752 113.149963 37.49884 115.463379 C 40.781219 112.641235 41.289948 107.760071 42.380035 103.508698 C 44.184723 97.149841 48.036377 91.626709 52.602661 86.866638 C 57.168945 82.239807 62.49826 78.254913 67.767059 74.403259 C 69.571747 73.119354 71.424896 71.70224 72.260651 69.715851 C 73.677765 66.627258 72.260651 63.029968 70.589172 60.135162 C 66.301483 52.516632 60.03952 46.363678 53.184052 40.852661 Z"/>
    <path id="Path-copy-14" fill="#8a8067" fill-rule="evenodd" stroke="none" d="M 176.086426 2.323761 C 175.856262 2.323761 175.638245 2.335876 175.408142 2.360107 C 173.869873 2.614441 172.452759 3.389618 171.168884 4.225342 C 165.900085 7.568298 161.140076 11.747009 156.452637 15.925659 C 152.273987 19.644104 148.228516 23.314087 144.049805 27.044617 C 140.513062 30.193787 137.049011 33.270264 133.633423 36.61319 C 127.274506 42.790375 121.690826 49.597412 118.21463 57.627747 C 116.870178 60.776886 115.961761 64.374207 117.572693 67.329559 C 118.662781 69.267487 120.661285 70.478699 122.587097 71.641479 C 128.304047 74.911743 133.960449 78.194122 139.0354 82.372833 C 144.110413 86.551514 148.543457 91.687042 150.929504 97.791565 C 152.52832 101.849121 153.436707 106.657654 157.034058 109.104279 C 157.869751 106.730316 160.631348 105.761353 162.496582 104.089874 C 165.124939 101.655334 165.960693 97.791565 167.886475 94.836212 C 168.794922 93.358521 169.945557 92.207855 170.781311 90.730194 C 172.125732 88.477325 172.452759 85.776337 173.288513 83.269104 C 174.257507 80.192627 175.735168 77.297852 176.885803 74.269806 C 179.259766 67.462799 179.586792 60.195496 180.09552 53.000916 C 180.422546 48.701111 180.737488 44.461853 181.512634 40.34375 C 182.348389 36.419403 183.632263 32.628296 184.346863 28.716064 C 185.364319 23.56842 185.497559 18.299652 184.722351 13.285217 C 184.346863 10.656921 183.704956 8.016479 182.154602 5.836273 C 180.749573 3.837769 178.472534 2.323761 176.086426 2.323761 Z"/>
    <path id="Path-copy-13" fill="#d5b498" fill-rule="evenodd" stroke="none" d="M 174.475525 6.235992 C 174.257507 6.235992 174.027344 6.248108 173.797241 6.284424 C 172.392212 6.478241 171.108337 7.180725 169.88501 8.016479 C 164.870605 11.105072 160.558655 14.956726 156.198303 18.820496 C 155.168762 19.716797 154.199829 20.613098 153.170288 21.509399 C 150.348145 23.956055 147.453369 26.523804 144.631226 29.031006 C 141.409424 31.865265 138.139099 34.820618 135.111084 37.897095 C 129.200378 43.686707 124.004242 49.912354 120.78241 57.373413 C 119.498535 60.268188 118.602234 63.671722 120.140472 66.372711 C 121.170013 68.165314 123.035278 69.267517 124.827881 70.357605 C 130.108765 73.434082 135.43811 76.522675 140.064941 80.374329 C 144.825012 84.238098 148.870483 89.058746 151.050659 94.642426 C 152.601013 98.433533 153.436768 102.866577 156.767578 105.179993 C 157.482178 102.93924 160.049988 102.030823 161.854675 100.432037 C 164.349792 98.179169 165.003845 94.642426 166.796448 91.880859 C 167.692749 90.596985 168.722229 89.44632 169.557983 88.089752 C 170.781311 85.970154 171.108337 83.523499 171.810852 81.149506 C 171.944092 80.507568 172.125793 79.998871 172.392212 79.41748 C 173.227966 77.164612 174.318054 75.045013 175.093262 72.792145 C 177.333984 66.566498 177.661011 59.880615 178.048584 53.134155 C 178.302979 49.209839 178.557312 45.358154 179.393066 41.494385 C 180.09552 37.897095 181.197754 34.372467 181.960815 30.702515 C 182.79657 26.015106 182.869202 21.061249 182.408936 16.434387 C 182.094055 13.999878 181.512634 11.553223 180.09552 9.494141 C 178.763184 7.628906 176.679932 6.235992 174.475525 6.235992 Z"/>
    <path id="Path-copy-12" fill="#d0a28a" fill-rule="evenodd" stroke="none" d="M 152.976501 21.50946 C 150.214905 23.956116 147.320129 26.523895 144.497986 29.031128 C 141.288269 31.865356 138.00592 34.820709 134.917297 37.897186 C 129.079285 43.686768 123.871033 49.912415 120.661316 57.373474 C 119.365326 60.268311 118.469025 63.671783 120.019379 66.372803 C 121.036804 68.165405 122.902069 69.267609 124.64621 70.357697 C 129.975525 73.434174 135.244324 76.522766 139.931702 80.37442 C 144.691772 84.23819 148.676697 89.058807 150.929565 94.642517 C 152.467773 98.433624 153.242981 102.866638 156.646484 105.180054 C 157.348938 102.939331 159.916748 102.030914 161.721436 100.432098 C 164.168091 98.17926 164.810059 94.642517 166.675293 91.880951 C 167.571594 90.597076 168.601135 89.446411 169.43689 88.089844 C 170.781311 85.837006 171.810852 82.239685 172.004639 79.417572 L 171.944092 78.388031 C 171.810852 74.596954 172.513367 70.999634 173.227966 67.135864 C 173.676086 64.955688 174.063721 62.642273 172.840393 60.776978 C 171.423279 61.418945 170.006165 62.000305 168.601135 62.642273 C 166.408813 63.611237 164.168091 64.568085 161.854675 64.640778 C 161.721436 64.640778 161.588196 64.640778 161.454956 64.640778 C 152.249756 64.640778 149.124817 49.173584 149.06427 42.209106 C 148.991577 35.85022 150.021118 28.001587 152.66156 22.151428 C 152.782715 21.969727 152.855347 21.703278 152.976501 21.50946 Z"/>
    <path id="Path-copy-11" fill="#8a8067" fill-rule="evenodd" stroke="none" d="M 133.633423 36.492249 C 127.274506 42.717896 121.690826 49.537048 118.21463 57.567383 C 116.870178 60.655945 115.961761 64.313812 117.572693 67.269196 C 118.602234 69.195007 120.661285 70.418335 122.587097 71.508423 C 128.243469 74.851379 133.960449 78.133759 139.0354 82.312439 C 144.110413 86.479034 148.482849 91.626678 150.929504 97.731201 C 152.52832 101.716095 153.436707 106.536713 157.034058 109.043915 C 157.797119 106.657837 160.631348 105.640411 162.496582 103.968933 C 165.124939 101.582855 165.960693 97.731201 167.886475 94.775818 C 168.722229 93.298157 169.945557 92.074829 170.781311 90.657715 C 172.125732 88.416962 172.452759 85.64328 173.227966 83.20874 C 174.257507 80.120148 175.735168 77.225342 176.885803 74.209442 C 179.259766 67.656769 180.09552 60.074585 180.09552 53.134338 L 180.09552 53.134338 C 178.557312 54.357666 176.885803 53.970062 175.468689 55.447754 C 174.06366 56.925415 174.378601 59.238831 172.513367 60.583282 C 171.483826 61.38269 170.163574 61.80661 168.855469 61.80661 C 168.03186 61.80661 167.220337 61.637024 166.481506 61.297913 C 165.645752 65.343353 164.676819 69.449371 163.780518 73.434265 C 162.42395 71.581116 161.018921 69.643158 159.662354 67.850555 L 159.662354 67.850555 C 159.916748 71.447876 159.662354 75.105743 158.959839 78.642487 C 158.632813 80.253387 157.990906 82.04599 156.39209 82.506256 C 156.161987 82.566803 155.94397 82.591034 155.725952 82.591034 C 154.018127 82.591034 152.540405 80.689423 151.632019 79.090637 C 148.349609 73.058777 145.139954 67.075378 141.857544 61.164673 C 141.094482 61.552246 140.706909 62.388 140.767456 63.151062 C 139.737915 59.687012 138.72052 56.210815 137.690979 52.613525 C 137.690979 54.733124 136.721985 56.864868 135.111084 58.20929 C 135.946838 54.672577 136.080078 50.942017 135.304871 47.417419 L 135.304871 47.417419 C 134.808289 47.841309 134.299561 48.02301 133.790833 48.02301 C 132.216309 48.02301 130.774963 46.194092 130.67804 44.58316 C 130.484253 41.954834 133.379028 39.253845 133.633423 36.492249 Z"/>
    <path id="Path-copy-10" fill="#80775f" fill-rule="evenodd" stroke="none" d="M 68.215332 51.269165 C 67.319061 51.584045 66.483307 52.044312 65.70813 52.492462 C 67.573395 57.567444 68.663483 62.775665 69.184326 68.105011 C 69.30545 69.909698 69.378113 71.835541 68.663483 73.507019 C 67.319061 76.910522 63.527954 78.327637 60.960175 80.955963 C 57.811035 84.044556 56.708832 88.792511 54.141052 92.523041 C 51.512726 96.447388 47.45517 99.075714 43.797302 101.97052 C 40.139435 104.865326 36.530029 108.402069 35.512604 112.956207 C 37.826019 111.672333 38.661743 108.789642 40.139435 106.657898 C 43.349152 102.10376 49.647461 100.819855 53.184204 96.641174 C 56.333344 92.971191 56.842041 87.508636 60.318237 84.16568 C 62.24408 82.312531 64.872406 81.343567 66.931458 79.478302 C 69.184326 77.491913 70.334961 74.40332 70.783112 71.447937 C 71.170715 68.432037 70.855774 65.343445 70.334961 62.448639 C 69.826263 58.657532 69.051086 54.999695 68.215332 51.269165 Z"/>
    <path id="Path-copy-9" fill="#80775f" fill-rule="evenodd" stroke="none" d="M 81.260345 47.671814 C 80.751648 47.671814 80.170258 47.671814 79.52832 47.732361 C 79.019592 62.448608 79.915894 77.225403 82.035522 91.62674 C 83.379974 85.001404 82.423126 78.254944 81.781158 71.702271 C 81.139221 63.732513 81.139221 55.702148 81.260345 47.671814 Z"/>
    <path id="Path-copy-8" fill="#80775f" fill-rule="evenodd" stroke="none" d="M 98.87149 45.673309 C 98.229553 45.673309 97.648163 45.745972 97.139435 45.745972 C 96.558075 61.164734 97.333252 76.583466 99.513428 91.62674 C 100.797302 85.001404 99.840454 78.254944 99.380188 71.641724 C 98.617126 63.029999 98.617126 54.357727 98.87149 45.673309 Z"/>
    <path id="Path-copy-7" fill="#80775f" fill-rule="evenodd" stroke="none" d="M 101.511963 45.673309 C 100.85791 61.104156 101.766296 76.522888 103.946503 91.62674 C 105.230377 85.001404 104.273529 78.254944 103.752686 71.641724 C 103.050201 63.029999 103.050201 54.357727 103.304535 45.673309 Z"/>
    <path id="Path-copy-6" fill="#80775f" fill-rule="evenodd" stroke="none" d="M 84.736572 47.284241 C 84.470093 47.344788 84.288422 47.344788 84.021942 47.41748 C 85.766083 61.49176 85.37851 75.687164 85.24527 89.955261 C 85.24527 91.62674 85.305817 93.492004 86.335358 94.836456 C 86.916748 87.060455 86.916748 79.163361 86.856171 71.38736 C 86.722961 64.374451 86.722961 57.31308 85.37851 50.43338 C 85.124146 49.343292 84.930359 48.313782 84.736572 47.284241 Z"/>
    <path id="Path-copy-5" fill="#80775f" fill-rule="evenodd" stroke="none" d="M 90.199158 46.315247 L 88.782043 46.581726 C 89.932678 62.061035 88.333893 77.746216 90.126465 93.23764 C 90.199158 93.685791 90.392944 94.194489 90.768433 94.327728 C 92.185547 91.105896 91.228699 87.387482 90.768433 83.717499 C 90.199158 79.732605 90.392944 75.626617 90.453522 71.508484 C 90.707855 63.090546 90.586731 54.733185 90.199158 46.315247 Z"/>
    <path id="Path-copy-4" fill="#80775f" fill-rule="evenodd" stroke="none" d="M 93.408875 45.867096 C 93.021301 46.000336 92.633698 46.000336 92.185577 46.060913 C 92.318787 47.599121 92.318787 49.088928 92.379364 50.627167 C 92.766937 65.852112 93.275665 80.955933 94.947144 95.926544 C 96.170441 94.255066 96.049347 91.94165 95.85553 89.761475 L 93.408875 45.867096 Z"/>
    <path id="Path-copy-3" fill="#80775f" fill-rule="evenodd" stroke="none" d="M 74.453094 48.955719 C 73.811157 49.149506 73.096558 49.343323 72.45459 49.597656 C 72.90274 51.208557 73.484131 52.553009 73.617371 53.44931 C 74.768036 58.851318 75.155609 64.253326 75.482635 69.715912 C 75.676422 72.283661 75.737 74.85144 75.155609 77.225433 C 74.646912 79.732635 73.229767 82.046051 70.976929 83.269379 C 68.929962 84.29892 66.350098 84.29892 64.484833 85.776581 C 63.467407 86.551758 62.813354 87.702423 62.24408 88.792511 C 59.736877 93.685822 57.423462 99.015137 52.990417 102.297546 C 50.543762 104.162811 47.527832 105.180206 45.081177 106.984924 C 40.648163 110.073517 38.007721 115.657196 38.334747 120.998657 C 39.109924 120.804871 39.364258 119.835907 39.485382 119.000153 C 40.139435 115.402863 41.035736 111.478516 43.85788 108.971313 C 46.498322 106.536774 50.349976 106.015961 53.244781 103.835785 C 57.617249 100.553375 58.901123 94.836456 61.917053 90.597229 C 65.320557 85.837158 72.067017 86.297394 75.034485 81.14975 C 76.378937 78.836334 76.439484 76.014221 76.572723 73.373779 C 76.439484 65.210205 75.930786 56.986053 74.453094 48.955719 Z"/>
    <path id="Path-copy-2" fill="#80775f" fill-rule="evenodd" stroke="none" d="M 117.572693 47.732361 C 116.228271 52.553009 115.259277 57.373657 114.556793 62.327515 C 114.03595 65.343414 113.721039 68.432007 114.169189 71.38736 C 114.556793 74.342743 115.768005 77.298096 118.020844 79.417725 C 120.019348 81.14975 122.647675 82.239838 124.573517 84.044556 C 128.049683 87.448059 128.631073 92.910614 131.707581 96.568481 C 135.244324 100.880402 141.603149 102.031067 144.752319 106.536774 C 146.302673 108.716949 147.065735 111.611755 149.37915 112.89563 C 148.289063 108.402039 144.752319 104.865295 141.215576 101.909943 C 137.497131 98.95459 133.512268 96.253571 130.871826 92.401917 C 128.364624 88.731934 127.213959 83.983978 124.004242 80.834839 C 121.424377 78.254944 117.705933 76.777283 116.288818 73.434326 C 115.574219 71.762848 115.646881 69.837006 115.840668 67.971741 C 116.409943 61.358521 118.081421 54.805847 120.661285 48.701355 C 119.631775 48.374329 118.602234 48.059387 117.572693 47.732361 Z"/>
    <path id="Path-copy" fill="#80775f" fill-rule="evenodd" stroke="none" d="M 111.02002 46.315247 C 109.215302 55.120789 108.512817 64.120087 108.45224 73.119385 C 108.45224 75.880951 108.512817 78.775757 109.857239 81.089172 C 112.885284 86.297394 119.631744 85.776581 122.974701 90.463959 C 126.051178 94.775879 127.213928 100.432251 131.646973 103.775208 C 134.541748 105.894806 138.393433 106.476196 141.033875 108.910736 C 143.79541 111.357391 144.752319 115.209045 145.394226 118.939575 C 145.527466 119.714752 145.781799 120.671631 146.617554 120.925964 C 146.81134 115.536072 144.243591 110.073517 140.004333 106.791107 C 137.497131 104.998535 134.541748 103.968994 132.034546 102.103729 C 127.528839 98.82135 125.288116 93.552551 122.708221 88.610809 C 122.066284 87.508606 121.424347 86.357941 120.467468 85.582764 C 118.662781 84.165649 116.095001 84.238342 113.975372 83.075562 C 111.783081 81.924927 110.378082 79.478271 109.796692 77.104279 C 109.154755 74.597076 109.348541 72.029297 109.469666 69.522095 C 109.796692 64.059509 110.184265 58.596954 111.33493 53.255493 C 111.60141 51.911072 112.691498 49.27063 113.393982 46.70285 C 112.618805 46.509033 111.783081 46.448486 111.02002 46.315247 Z"/>
</svg>
