<?xml version="1.0" encoding="UTF-8"?>
<!-- Generated by Pixelmator Pro 3.4.1 -->
<svg width="99" height="95" viewBox="0 0 99 95" xmlns="http://www.w3.org/2000/svg">
    <path id="Path-copy-75" fill="#fdfdfd" fill-rule="evenodd" stroke="none" d="M 81.898056 6.962158 C 81.529099 6.962158 81.160156 7.029236 80.799591 7.155029 C 77.59642 8.270264 70.921783 10.894836 66.745926 14.634644 C 66.745926 14.634644 71.726761 15.162933 75.592346 17.125061 C 75.978073 17.292755 76.397339 17.376617 76.799835 17.376617 C 77.571274 17.376617 78.317551 17.08313 78.845825 16.504547 C 79.952682 15.389313 81.604568 13.879974 83.382233 12.848602 C 84.941895 11.959747 85.470169 9.964081 84.539398 8.404419 L 84.48909 8.362488 C 83.90213 7.448486 82.912659 6.962158 81.898056 6.962158 Z"/>
    <path id="Path-copy-74" fill="none" stroke="#fdfdfd" stroke-width="8" stroke-linejoin="round" d="M 81.898056 6.962158 C 81.529099 6.962158 81.160156 7.029236 80.799591 7.155029 C 77.59642 8.270264 70.921783 10.894836 66.745926 14.634644 C 66.745926 14.634644 71.726761 15.162933 75.592346 17.125061 C 75.978073 17.292755 76.397339 17.376617 76.799835 17.376617 C 77.571274 17.376617 78.317551 17.08313 78.845825 16.504547 C 79.952682 15.389313 81.604568 13.879974 83.382233 12.848602 C 84.941895 11.959747 85.470169 9.964081 84.539398 8.404419 L 84.48909 8.362488 C 83.90213 7.448486 82.912659 6.962158 81.898056 6.962158 Z"/>
    <path id="Path-copy-73" fill="#fdfdfd" fill-rule="evenodd" stroke="none" d="M 17.507599 6.962158 C 16.492989 6.962158 15.49514 7.448486 14.90818 8.362488 L 14.866249 8.404419 C 13.935486 9.964081 14.46376 11.959747 16.023415 12.848602 C 17.801086 13.879974 19.402664 15.389313 20.517899 16.504547 C 21.071327 17.08313 21.825996 17.376617 22.597443 17.376617 C 23.008316 17.376617 23.419189 17.292755 23.804916 17.125061 C 27.636963 15.162933 32.659721 14.634644 32.659721 14.634644 C 28.483871 10.894836 21.809227 8.270264 18.606064 7.155029 C 18.245499 7.029236 17.876549 6.962158 17.507599 6.962158 Z"/>
    <path id="Path-copy-72" fill="none" stroke="#fdfdfd" stroke-width="8" stroke-linejoin="round" d="M 17.507599 6.962158 C 16.492989 6.962158 15.49514 7.448486 14.90818 8.362488 L 14.866249 8.404419 C 13.935486 9.964081 14.46376 11.959747 16.023415 12.848602 C 17.801086 13.879974 19.402664 15.389313 20.517899 16.504547 C 21.071327 17.08313 21.825996 17.376617 22.597443 17.376617 C 23.008316 17.376617 23.419189 17.292755 23.804916 17.125061 C 27.636963 15.162933 32.659721 14.634644 32.659721 14.634644 C 28.483871 10.894836 21.809227 8.270264 18.606064 7.155029 C 18.245499 7.029236 17.876549 6.962158 17.507599 6.962158 Z"/>
    <path id="Path-copy-71" fill="#fdfdfd" fill-rule="evenodd" stroke="none" d="M 11.797234 13.3685 C 10.472366 13.3685 9.273277 14.332794 9.13073 15.833771 C 8.770164 20.101837 8.770164 27.623413 12.375816 35.094666 C 12.375816 35.094666 12.644142 32.470062 14.111557 29.535248 C 15.402885 26.952576 17.624969 24.151917 21.272552 22.508423 C 21.272552 22.508423 18.958221 16.949005 13.222717 13.74585 C 12.996315 13.611664 12.778297 13.51944 12.551895 13.477509 C 12.300339 13.402039 12.048782 13.3685 11.797226 13.3685 Z"/>
    <path id="Path-copy-70" fill="none" stroke="#fdfdfd" stroke-width="8" stroke-linejoin="round" d="M 11.797234 13.3685 C 10.472366 13.3685 9.273277 14.332794 9.13073 15.833771 C 8.770164 20.101837 8.770164 27.623413 12.375816 35.094666 C 12.375816 35.094666 12.644142 32.470062 14.111557 29.535248 C 15.402885 26.952576 17.624969 24.151917 21.272552 22.508423 C 21.272552 22.508423 18.958221 16.949005 13.222717 13.74585 C 12.996315 13.611664 12.778297 13.51944 12.551895 13.477509 C 12.300339 13.402039 12.048782 13.3685 11.797226 13.3685 Z"/>
    <path id="Path-copy-69" fill="#fdfdfd" fill-rule="evenodd" stroke="none" d="M 12.551918 13.385284 C 12.509995 13.561371 12.468063 13.787781 12.468063 14.005768 C 12.107498 17.569519 12.065575 23.397247 14.111572 29.535248 C 15.402901 26.952576 17.624985 24.151917 21.27256 22.508423 C 21.27256 22.508423 18.958237 16.949005 13.22274 13.653595 C 12.996338 13.561371 12.77832 13.427216 12.551918 13.385284 Z"/>
    <path id="Path-copy-68" fill="none" stroke="#fdfdfd" stroke-width="8" stroke-linejoin="round" d="M 12.551918 13.385284 C 12.509995 13.561371 12.468063 13.787781 12.468063 14.005768 C 12.107498 17.569519 12.065575 23.397247 14.111572 29.535248 C 15.402901 26.952576 17.624985 24.151917 21.27256 22.508423 C 21.27256 22.508423 18.958237 16.949005 13.22274 13.653595 C 12.996338 13.561371 12.77832 13.427216 12.551918 13.385284 Z"/>
    <path id="Path-copy-67" fill="#fdfdfd" fill-rule="evenodd" stroke="none" d="M 83.365433 5.394104 C 82.459824 5.394104 81.537445 5.536652 80.623459 5.821747 C 67.408325 10.140167 57.446671 19.573547 57.446671 19.573547 C 84.044632 23.841644 88.497192 39.723267 88.539124 39.723267 C 93.478027 29.132721 93.394165 19.389069 92.186691 12.76474 C 91.423645 8.404419 87.599976 5.394104 83.365433 5.394104 Z"/>
    <path id="Path-copy-66" fill="none" stroke="#fdfdfd" stroke-width="8" stroke-linejoin="round" d="M 83.365433 5.394104 C 82.459824 5.394104 81.537445 5.536652 80.623459 5.821747 C 67.408325 10.140167 57.446671 19.573547 57.446671 19.573547 C 84.044632 23.841644 88.497192 39.723267 88.539124 39.723267 C 93.478027 29.132721 93.394165 19.389069 92.186691 12.76474 C 91.423645 8.404419 87.599976 5.394104 83.365433 5.394104 Z"/>
    <path id="Path-copy-65" fill="#fdfdfd" fill-rule="evenodd" stroke="none" d="M 83.784805 5.37735 L 83.784805 5.37735 C 85.872726 6.668671 87.432373 8.806915 87.876801 11.473419 C 88.849487 17.259216 89.117813 25.485138 85.780487 34.516052 C 87.876801 37.543121 88.497299 39.723267 88.497299 39.723267 C 93.436203 29.132721 93.260117 19.389069 92.144882 12.76474 C 91.432144 8.496643 87.826492 5.553436 83.784805 5.37735 Z"/>
    <path id="Path-copy-64" fill="none" stroke="#fdfdfd" stroke-width="8" stroke-linejoin="round" d="M 83.784805 5.37735 L 83.784805 5.37735 C 85.872726 6.668671 87.432373 8.806915 87.876801 11.473419 C 88.849487 17.259216 89.117813 25.485138 85.780487 34.516052 C 87.876801 37.543121 88.497299 39.723267 88.497299 39.723267 C 93.436203 29.132721 93.260117 19.389069 92.144882 12.76474 C 91.432144 8.496643 87.826492 5.553436 83.784805 5.37735 Z"/>
    <path id="Path-copy-63" fill="#fdfdfd" fill-rule="evenodd" stroke="none" d="M 87.574905 13.3685 C 87.323349 13.3685 87.0634 13.402039 86.803467 13.477509 C 86.585449 13.51944 86.359039 13.611664 86.141022 13.74585 C 80.447449 16.949005 78.133133 22.508423 78.133133 22.508423 C 81.780701 24.151917 84.002792 26.952576 85.252197 29.535248 C 86.761536 32.470062 87.029861 35.094666 87.029861 35.094666 C 90.585205 27.623413 90.677444 20.101837 90.274948 15.833771 C 90.124023 14.332794 88.933319 13.3685 87.574905 13.3685 Z"/>
    <path id="Path-copy-62" fill="none" stroke="#fdfdfd" stroke-width="8" stroke-linejoin="round" d="M 87.574905 13.3685 C 87.323349 13.3685 87.0634 13.402039 86.803467 13.477509 C 86.585449 13.51944 86.359039 13.611664 86.141022 13.74585 C 80.447449 16.949005 78.133133 22.508423 78.133133 22.508423 C 81.780701 24.151917 84.002792 26.952576 85.252197 29.535248 C 86.761536 32.470062 87.029861 35.094666 87.029861 35.094666 C 90.585205 27.623413 90.677444 20.101837 90.274948 15.833771 C 90.124023 14.332794 88.933319 13.3685 87.574905 13.3685 Z"/>
    <path id="Path-copy-61" fill="#fdfdfd" fill-rule="evenodd" stroke="none" d="M 86.803467 13.385284 C 86.585449 13.427216 86.359039 13.561371 86.141022 13.653595 C 80.447449 16.949005 78.133133 22.508423 78.133133 22.508423 C 81.780701 24.151917 84.002792 26.952576 85.252197 29.535248 C 87.340118 23.397247 87.247879 17.569519 86.937622 14.005768 C 86.937622 13.787781 86.895706 13.561371 86.803467 13.385284 Z"/>
    <path id="Path-copy-60" fill="none" stroke="#fdfdfd" stroke-width="8" stroke-linejoin="round" d="M 86.803467 13.385284 C 86.585449 13.427216 86.359039 13.561371 86.141022 13.653595 C 80.447449 16.949005 78.133133 22.508423 78.133133 22.508423 C 81.780701 24.151917 84.002792 26.952576 85.252197 29.535248 C 87.340118 23.397247 87.247879 17.569519 86.937622 14.005768 C 86.937622 13.787781 86.895706 13.561371 86.803467 13.385284 Z"/>
    <path id="Path-copy-59" fill="#fdfdfd" fill-rule="evenodd" stroke="none" d="M 16.082077 5.394104 C 11.847534 5.394104 8.032249 8.404419 7.260811 12.76474 C 6.061722 19.389069 5.969482 29.132721 10.908386 39.723267 C 10.908386 39.723267 15.352562 23.841644 42.009232 19.573547 C 42.009232 19.573547 32.039185 10.140167 18.824051 5.821747 C 17.910057 5.536652 16.987686 5.394104 16.082077 5.394104 Z"/>
    <path id="Path-copy-58" fill="none" stroke="#fdfdfd" stroke-width="8" stroke-linejoin="round" d="M 16.082077 5.394104 C 11.847534 5.394104 8.032249 8.404419 7.260811 12.76474 C 6.061722 19.389069 5.969482 29.132721 10.908386 39.723267 C 10.908386 39.723267 15.352562 23.841644 42.009232 19.573547 C 42.009232 19.573547 32.039185 10.140167 18.824051 5.821747 C 17.910057 5.536652 16.987686 5.394104 16.082077 5.394104 Z"/>
    <path id="Path-copy-57" fill="#fdfdfd" fill-rule="evenodd" stroke="none" d="M 15.620888 5.37735 C 11.570816 5.553436 7.973557 8.496643 7.260811 12.76474 C 6.145569 19.389069 5.969482 29.132721 10.908386 39.723267 C 10.908386 39.723267 11.528893 37.543121 13.616814 34.516052 C 10.28788 25.485138 10.505898 17.259216 11.528893 11.473419 C 11.973312 8.806915 13.532967 6.668671 15.620888 5.37735 Z"/>
    <path id="Path-copy-56" fill="none" stroke="#fdfdfd" stroke-width="8" stroke-linejoin="round" d="M 15.620888 5.37735 C 11.570816 5.553436 7.973557 8.496643 7.260811 12.76474 C 6.145569 19.389069 5.969482 29.132721 10.908386 39.723267 C 10.908386 39.723267 11.528893 37.543121 13.616814 34.516052 C 10.28788 25.485138 10.505898 17.259216 11.528893 11.473419 C 11.973312 8.806915 13.532967 6.668671 15.620888 5.37735 Z"/>
    <path id="Path-copy-55" fill="#fdfdfd" fill-rule="evenodd" stroke="none" d="M 11.797234 13.3685 C 10.472366 13.3685 9.273277 14.332794 9.13073 15.833771 C 8.770164 20.101837 8.770164 27.623413 12.375816 35.094666 C 12.375816 35.094666 12.644142 32.470062 14.111557 29.535248 C 15.402885 26.952576 17.624969 24.151917 21.272552 22.508423 C 21.272552 22.508423 18.958221 16.949005 13.222717 13.74585 C 12.996315 13.611664 12.778297 13.51944 12.551895 13.477509 C 12.300339 13.402039 12.048782 13.3685 11.797226 13.3685 Z"/>
    <path id="Path-copy-54" fill="none" stroke="#fdfdfd" stroke-width="8" stroke-linejoin="round" d="M 11.797234 13.3685 C 10.472366 13.3685 9.273277 14.332794 9.13073 15.833771 C 8.770164 20.101837 8.770164 27.623413 12.375816 35.094666 C 12.375816 35.094666 12.644142 32.470062 14.111557 29.535248 C 15.402885 26.952576 17.624969 24.151917 21.272552 22.508423 C 21.272552 22.508423 18.958221 16.949005 13.222717 13.74585 C 12.996315 13.611664 12.778297 13.51944 12.551895 13.477509 C 12.300339 13.402039 12.048782 13.3685 11.797226 13.3685 Z"/>
    <path id="Path-copy-53" fill="#fdfdfd" fill-rule="evenodd" stroke="none" d="M 12.551918 13.385284 C 12.509995 13.561371 12.468063 13.787781 12.468063 14.005768 C 12.107498 17.569519 12.065575 23.397247 14.111572 29.535248 C 15.402901 26.952576 17.624985 24.151917 21.27256 22.508423 C 21.27256 22.508423 18.958237 16.949005 13.22274 13.653595 C 12.996338 13.561371 12.77832 13.427216 12.551918 13.385284 Z"/>
    <path id="Path-copy-52" fill="none" stroke="#fdfdfd" stroke-width="8" stroke-linejoin="round" d="M 12.551918 13.385284 C 12.509995 13.561371 12.468063 13.787781 12.468063 14.005768 C 12.107498 17.569519 12.065575 23.397247 14.111572 29.535248 C 15.402901 26.952576 17.624985 24.151917 21.27256 22.508423 C 21.27256 22.508423 18.958237 16.949005 13.22274 13.653595 C 12.996338 13.561371 12.77832 13.427216 12.551918 13.385284 Z"/>
    <path id="Path-copy-51" fill="#fdfdfd" fill-rule="evenodd" stroke="none" d="M 49.65657 14.634674 C 43.921066 14.634674 38.931847 15.255188 34.571526 16.185944 C 29.414604 17.301178 25.188446 18.944702 21.85112 20.730743 C 14.069618 24.864685 9.130714 32.738403 8.728226 41.5513 C 8.417969 49.643036 10.28788 55.521088 10.28788 55.521088 C 8.996552 57.969574 8.233498 60.543854 7.6633 62.900116 C 6.321663 68.912323 8.552139 75.184479 13.57489 78.790131 C 19.981216 83.4104 29.104347 86.395538 36.533669 88.307373 C 40.852066 89.397461 45.279465 89.942505 49.698486 89.942505 C 54.117508 89.942505 58.53653 89.397461 62.829773 88.307373 C 70.301025 86.479401 79.424149 83.4104 85.830475 78.790131 C 90.81131 75.184479 93.125626 68.912323 91.658218 62.900116 C 91.079636 60.543854 90.274658 57.969574 89.03363 55.521088 C 89.03363 55.521088 90.945465 49.643036 90.5849 41.5513 C 90.190796 32.738403 85.251892 24.864685 77.462006 20.730743 C 74.12468 19.036926 69.898529 17.343109 64.741608 16.185944 C 60.465134 15.255188 55.400452 14.634674 49.65657 14.634674 Z"/>
    <path id="Path-copy-50" fill="none" stroke="#fdfdfd" stroke-width="8" stroke-linejoin="round" d="M 49.65657 14.634674 C 43.921066 14.634674 38.931847 15.255188 34.571526 16.185944 C 29.414604 17.301178 25.188446 18.944702 21.85112 20.730743 C 14.069618 24.864685 9.130714 32.738403 8.728226 41.5513 C 8.417969 49.643036 10.28788 55.521088 10.28788 55.521088 C 8.996552 57.969574 8.233498 60.543854 7.6633 62.900116 C 6.321663 68.912323 8.552139 75.184479 13.57489 78.790131 C 19.981216 83.4104 29.104347 86.395538 36.533669 88.307373 C 40.852066 89.397461 45.279465 89.942505 49.698486 89.942505 C 54.117508 89.942505 58.53653 89.397461 62.829773 88.307373 C 70.301025 86.479401 79.424149 83.4104 85.830475 78.790131 C 90.81131 75.184479 93.125626 68.912323 91.658218 62.900116 C 91.079636 60.543854 90.274658 57.969574 89.03363 55.521088 C 89.03363 55.521088 90.945465 49.643036 90.5849 41.5513 C 90.190796 32.738403 85.251892 24.864685 77.462006 20.730743 C 74.12468 19.036926 69.898529 17.343109 64.741608 16.185944 C 60.465134 15.255188 55.400452 14.634674 49.65657 14.634674 Z"/>
    <path id="Path-copy-49" fill="#fdfdfd" fill-rule="evenodd" stroke="none" d="M 49.656586 18.684753 C 38.982193 18.684753 31.326477 21.124878 26.11924 23.841675 C 19.578751 27.313171 15.402901 34.029755 15.092651 41.417145 C 14.77401 48.309814 16.333664 53.206787 16.333664 53.206787 C 15.310661 55.294708 14.648232 57.516785 14.111572 59.437012 C 12.954414 64.501709 14.908173 69.843109 19.092407 72.912079 C 24.475731 76.786072 32.215302 79.368713 38.487457 80.970306 C 42.135033 81.875916 45.874847 82.337097 49.61467 82.337097 C 53.3461 82.337097 57.085907 81.875916 60.73349 80.970306 C 67.097885 79.410645 74.753601 76.786072 80.136932 72.912079 C 84.488861 69.843109 86.35878 64.501709 85.201614 59.437012 C 84.757187 57.432953 84.044449 55.294708 82.979523 53.206787 C 82.979523 53.206787 84.5811 48.267883 84.270844 41.417145 C 83.918671 33.987823 79.776367 27.313171 73.193954 23.841675 C 68.028641 21.124878 60.330994 18.684753 49.656586 18.684753 Z"/>
    <path id="Path-copy-48" fill="none" stroke="#fdfdfd" stroke-width="8" stroke-linejoin="round" d="M 49.656586 18.684753 C 38.982193 18.684753 31.326477 21.124878 26.11924 23.841675 C 19.578751 27.313171 15.402901 34.029755 15.092651 41.417145 C 14.77401 48.309814 16.333664 53.206787 16.333664 53.206787 C 15.310661 55.294708 14.648232 57.516785 14.111572 59.437012 C 12.954414 64.501709 14.908173 69.843109 19.092407 72.912079 C 24.475731 76.786072 32.215302 79.368713 38.487457 80.970306 C 42.135033 81.875916 45.874847 82.337097 49.61467 82.337097 C 53.3461 82.337097 57.085907 81.875916 60.73349 80.970306 C 67.097885 79.410645 74.753601 76.786072 80.136932 72.912079 C 84.488861 69.843109 86.35878 64.501709 85.201614 59.437012 C 84.757187 57.432953 84.044449 55.294708 82.979523 53.206787 C 82.979523 53.206787 84.5811 48.267883 84.270844 41.417145 C 83.918671 33.987823 79.776367 27.313171 73.193954 23.841675 C 68.028641 21.124878 60.330994 18.684753 49.656586 18.684753 Z"/>
    <path id="Path-copy-47" fill="#fdfdfd" fill-rule="evenodd" stroke="none" d="M 49.656677 14.584381 C 43.963104 14.584381 38.931961 15.162964 34.621948 16.144012 C 34.311699 17.527588 34.085297 19.078857 34.001442 20.638519 C 33.582184 27.145447 35.192146 33.912354 43.963104 33.912354 C 45.623383 33.912354 47.543594 33.669159 49.748917 33.1409 C 51.937469 33.669159 53.840912 33.912354 55.492798 33.912354 C 64.272141 33.912354 65.890503 27.1203 65.362228 20.638519 C 65.228058 19.078857 65.01004 17.569519 64.741714 16.144012 C 60.465256 15.162964 55.400574 14.584381 49.656677 14.584381 Z"/>
    <path id="Path-copy-46" fill="none" stroke="#fdfdfd" stroke-width="8" stroke-linejoin="round" d="M 49.656677 14.584381 C 43.963104 14.584381 38.931961 15.162964 34.621948 16.144012 C 34.311699 17.527588 34.085297 19.078857 34.001442 20.638519 C 33.582184 27.145447 35.192146 33.912354 43.963104 33.912354 C 45.623383 33.912354 47.543594 33.669159 49.748917 33.1409 C 51.937469 33.669159 53.840912 33.912354 55.492798 33.912354 C 64.272141 33.912354 65.890503 27.1203 65.362228 20.638519 C 65.228058 19.078857 65.01004 17.569519 64.741714 16.144012 C 60.465256 15.162964 55.400574 14.584381 49.656677 14.584381 Z"/>
    <path id="Path-copy-45" fill="#fdfdfd" fill-rule="evenodd" stroke="none" d="M 49.748917 18.592529 C 43.426453 18.592529 38.269531 19.38913 34.001442 20.638519 C 33.582184 27.145477 35.192146 33.912354 43.963104 33.912354 C 45.623383 33.912354 47.543594 33.669189 49.748917 33.1409 C 51.937469 33.669189 53.840912 33.912354 55.492798 33.912354 C 64.272141 33.912354 65.89888 27.1203 65.454468 20.638519 C 61.177994 19.38913 55.979141 18.592529 49.748917 18.592529 Z"/>
    <path id="Path-copy-44" fill="none" stroke="#fdfdfd" stroke-width="8" stroke-linejoin="round" d="M 49.748917 18.592529 C 43.426453 18.592529 38.269531 19.38913 34.001442 20.638519 C 33.582184 27.145477 35.192146 33.912354 43.963104 33.912354 C 45.623383 33.912354 47.543594 33.669189 49.748917 33.1409 C 51.937469 33.669189 53.840912 33.912354 55.492798 33.912354 C 64.272141 33.912354 65.89888 27.1203 65.454468 20.638519 C 61.177994 19.38913 55.979141 18.592529 49.748917 18.592529 Z"/>
    <path id="Path-copy-43" fill="#fdfdfd" fill-rule="evenodd" stroke="none" d="M 45.296371 52.401947 C 40.00528 52.401947 35.779121 56.678406 35.779121 61.877258 C 35.779121 67.176727 40.047211 71.402893 45.296371 71.402893 C 46.897949 71.402893 48.41568 71.000397 49.748932 70.287659 C 51.082184 71.000397 52.549591 71.402893 54.1931 71.402893 C 59.442261 71.402893 63.668411 67.126434 63.668411 61.877258 C 63.668411 56.628113 59.40033 52.401947 54.1931 52.401947 C 52.549591 52.401947 51.082184 52.762512 49.748932 53.517181 C 48.41568 52.762512 46.897949 52.401947 45.296371 52.401947 Z"/>
    <path id="Path-copy-42" fill="none" stroke="#fdfdfd" stroke-width="8" stroke-linejoin="round" d="M 45.296371 52.401947 C 40.00528 52.401947 35.779121 56.678406 35.779121 61.877258 C 35.779121 67.176727 40.047211 71.402893 45.296371 71.402893 C 46.897949 71.402893 48.41568 71.000397 49.748932 70.287659 C 51.082184 71.000397 52.549591 71.402893 54.1931 71.402893 C 59.442261 71.402893 63.668411 67.126434 63.668411 61.877258 C 63.668411 56.628113 59.40033 52.401947 54.1931 52.401947 C 52.549591 52.401947 51.082184 52.762512 49.748932 53.517181 C 48.41568 52.762512 46.897949 52.401947 45.296371 52.401947 Z"/>
    <path id="Path-copy-41" fill="#fdfdfd" fill-rule="evenodd" stroke="none" d="M 35.862976 60.544037 C 35.821045 60.988464 35.779121 61.432892 35.779121 61.877289 C 35.779121 67.126465 40.00528 71.402924 45.296371 71.402924 C 46.897949 71.402924 48.41568 71.000427 49.748932 70.287689 C 51.082184 71.000427 52.549591 71.402924 54.1931 71.402924 C 59.40033 71.402924 63.668411 67.176758 63.668411 61.877289 C 63.668411 61.432892 63.626495 60.988464 63.584564 60.544037 C 62.964066 65.172699 58.955917 68.73642 54.1931 68.73642 C 52.549591 68.73642 51.082184 68.333923 49.748932 67.621185 C 48.41568 68.333923 46.897949 68.73642 45.296371 68.73642 C 40.491623 68.73642 36.533791 65.172699 35.862976 60.544037 Z"/>
    <path id="Path-copy-40" fill="none" stroke="#fdfdfd" stroke-width="8" stroke-linejoin="round" d="M 35.862976 60.544037 C 35.821045 60.988464 35.779121 61.432892 35.779121 61.877289 C 35.779121 67.126465 40.00528 71.402924 45.296371 71.402924 C 46.897949 71.402924 48.41568 71.000427 49.748932 70.287689 C 51.082184 71.000427 52.549591 71.402924 54.1931 71.402924 C 59.40033 71.402924 63.668411 67.176758 63.668411 61.877289 C 63.668411 61.432892 63.626495 60.988464 63.584564 60.544037 C 62.964066 65.172699 58.955917 68.73642 54.1931 68.73642 C 52.549591 68.73642 51.082184 68.333923 49.748932 67.621185 C 48.41568 68.333923 46.897949 68.73642 45.296371 68.73642 C 40.491623 68.73642 36.533791 65.172699 35.862976 60.544037 Z"/>
    <path id="Path-copy-39" fill="#fdfdfd" fill-rule="evenodd" stroke="none" d="M 49.690262 50.464935 C 49.011063 50.464935 48.323471 50.532013 47.652649 50.666199 C 47.610733 50.666199 47.568802 50.666199 47.476563 50.716492 C 45.388641 51.20285 44.717819 53.919678 46.361328 55.336761 C 46.990219 55.831512 47.702972 56.317841 48.675659 56.678406 C 48.969131 56.787415 49.30455 56.8461 49.631577 56.8461 C 49.96698 56.8461 50.302383 56.787415 50.595871 56.678406 C 51.568558 56.275909 52.281311 55.831512 52.90181 55.336761 C 54.595627 53.869354 53.882889 51.160919 51.702728 50.666199 L 51.660797 50.666199 C 51.040283 50.532013 50.369476 50.464935 49.690262 50.464935 Z"/>
    <path id="Path-copy-38" fill="none" stroke="#fdfdfd" stroke-width="8" stroke-linejoin="round" d="M 49.690262 50.464935 C 49.011063 50.464935 48.323471 50.532013 47.652649 50.666199 C 47.610733 50.666199 47.568802 50.666199 47.476563 50.716492 C 45.388641 51.20285 44.717819 53.919678 46.361328 55.336761 C 46.990219 55.831512 47.702972 56.317841 48.675659 56.678406 C 48.969131 56.787415 49.30455 56.8461 49.631577 56.8461 C 49.96698 56.8461 50.302383 56.787415 50.595871 56.678406 C 51.568558 56.275909 52.281311 55.831512 52.90181 55.336761 C 54.595627 53.869354 53.882889 51.160919 51.702728 50.666199 L 51.660797 50.666199 C 51.040283 50.532013 50.369476 50.464935 49.690262 50.464935 Z"/>
    <path id="Path-copy-37" fill="#fdfdfd" fill-rule="evenodd" stroke="none" d="M 45.606659 52.452271 C 45.338333 53.424957 45.564728 54.540192 46.453568 55.336792 C 47.074081 55.831512 47.786819 56.317841 48.725967 56.678406 C 49.036224 56.787415 49.371628 56.84613 49.698654 56.84613 C 50.034058 56.84613 50.369476 56.787415 50.679733 56.678406 C 51.618866 56.317841 52.323227 55.831512 52.952133 55.336792 C 53.840958 54.632416 54.058975 53.517181 53.799042 52.452271 L 53.799042 52.452271 C 53.614563 52.896667 53.346237 53.341095 52.952133 53.651337 C 52.323227 54.187988 51.618866 54.632416 50.679733 54.984589 C 50.369476 55.093597 50.034058 55.152313 49.698654 55.152313 C 49.371628 55.152313 49.036224 55.093597 48.725967 54.984589 C 47.786819 54.674347 47.074081 54.187988 46.453568 53.651337 C 46.009155 53.341095 45.791138 52.896667 45.606659 52.452271 Z"/>
    <path id="Path-copy-36" fill="none" stroke="#fdfdfd" stroke-width="8" stroke-linejoin="round" d="M 45.606659 52.452271 C 45.338333 53.424957 45.564728 54.540192 46.453568 55.336792 C 47.074081 55.831512 47.786819 56.317841 48.725967 56.678406 C 49.036224 56.787415 49.371628 56.84613 49.698654 56.84613 C 50.034058 56.84613 50.369476 56.787415 50.679733 56.678406 C 51.618866 56.317841 52.323227 55.831512 52.952133 55.336792 C 53.840958 54.632416 54.058975 53.517181 53.799042 52.452271 L 53.799042 52.452271 C 53.614563 52.896667 53.346237 53.341095 52.952133 53.651337 C 52.323227 54.187988 51.618866 54.632416 50.679733 54.984589 C 50.369476 55.093597 50.034058 55.152313 49.698654 55.152313 C 49.371628 55.152313 49.036224 55.093597 48.725967 54.984589 C 47.786819 54.674347 47.074081 54.187988 46.453568 53.651337 C 46.009155 53.341095 45.791138 52.896667 45.606659 52.452271 Z"/>
    <path id="Path-copy-35" fill="#fdfdfd" fill-rule="evenodd" stroke="none" d="M 49.790894 50.766815 C 49.287781 50.766815 48.79306 50.8255 48.281555 50.934509 L 48.189316 50.934509 C 47.837143 50.984833 47.568817 51.160919 47.342407 51.337006 C 46.763824 51.823364 46.763824 52.712189 47.342407 53.156616 C 47.786819 53.559113 48.323486 53.869354 48.994293 54.187988 C 49.212311 54.246704 49.47226 54.280243 49.723816 54.280243 C 49.983765 54.280243 50.235321 54.246704 50.461716 54.187988 C 51.124146 53.869354 51.660812 53.559113 52.105225 53.156616 C 52.683807 52.712189 52.683807 51.823364 52.105225 51.378937 C 51.878815 51.20285 51.618881 51.068695 51.350555 50.934509 L 51.300247 50.934509 C 50.788742 50.8255 50.294006 50.766815 49.790894 50.766815 Z"/>
    <path id="Path-copy-34" fill="none" stroke="#fdfdfd" stroke-width="8" stroke-linejoin="round" d="M 49.790894 50.766815 C 49.287781 50.766815 48.79306 50.8255 48.281555 50.934509 L 48.189316 50.934509 C 47.837143 50.984833 47.568817 51.160919 47.342407 51.337006 C 46.763824 51.823364 46.763824 52.712189 47.342407 53.156616 C 47.786819 53.559113 48.323486 53.869354 48.994293 54.187988 C 49.212311 54.246704 49.47226 54.280243 49.723816 54.280243 C 49.983765 54.280243 50.235321 54.246704 50.461716 54.187988 C 51.124146 53.869354 51.660812 53.559113 52.105225 53.156616 C 52.683807 52.712189 52.683807 51.823364 52.105225 51.378937 C 51.878815 51.20285 51.618881 51.068695 51.350555 50.934509 L 51.300247 50.934509 C 50.788742 50.8255 50.294006 50.766815 49.790894 50.766815 Z"/>
    <path id="Path-copy-33" fill="#fdfdfd" fill-rule="evenodd" stroke="none" d="M 64.071014 38.700409 C 62.025009 38.700409 60.331192 40.343903 60.331192 42.440216 L 60.331192 48.670471 C 60.331192 50.716461 62.025009 52.401886 64.071014 52.401886 L 67.005844 52.401886 C 69.102158 52.401886 70.745667 50.666138 70.745667 48.670471 L 70.745667 42.440216 C 70.745667 40.343903 69.102158 38.700409 67.005844 38.700409 Z"/>
    <path id="Path-copy-32" fill="none" stroke="#fdfdfd" stroke-width="8" stroke-linejoin="round" d="M 64.071014 38.700409 C 62.025009 38.700409 60.331192 40.343903 60.331192 42.440216 L 60.331192 48.670471 C 60.331192 50.716461 62.025009 52.401886 64.071014 52.401886 L 67.005844 52.401886 C 69.102158 52.401886 70.745667 50.666138 70.745667 48.670471 L 70.745667 42.440216 C 70.745667 40.343903 69.102158 38.700409 67.005844 38.700409 Z"/>
    <path id="Path-copy-31" fill="#fdfdfd" fill-rule="evenodd" stroke="none" d="M 70.07486 36.830505 C 67.768921 36.830505 65.806778 38.700409 65.806778 41.106964 C 65.806778 43.421295 67.676682 45.375061 70.07486 45.375061 C 72.439499 45.375061 74.351334 43.505157 74.351334 41.106964 C 74.351334 38.700409 72.48143 36.830505 70.07486 36.830505 Z"/>
    <path id="Path-copy-30" fill="none" stroke="#fdfdfd" stroke-width="8" stroke-linejoin="round" d="M 70.07486 36.830505 C 67.768921 36.830505 65.806778 38.700409 65.806778 41.106964 C 65.806778 43.421295 67.676682 45.375061 70.07486 45.375061 C 72.439499 45.375061 74.351334 43.505157 74.351334 41.106964 C 74.351334 38.700409 72.48143 36.830505 70.07486 36.830505 Z"/>
    <path id="Path-copy-29" fill="#fdfdfd" fill-rule="evenodd" stroke="none" d="M 33.867256 38.566254 C 30.97435 38.566254 28.660027 40.922485 28.660027 43.815399 L 28.660027 47.15274 C 28.660027 50.045624 30.97435 52.401886 33.867256 52.401886 C 36.751778 52.401886 39.116417 50.045624 39.116417 47.15274 L 39.116417 43.815399 C 39.116417 40.922485 36.751778 38.566254 33.867256 38.566254 Z"/>
    <path id="Path-copy-28" fill="none" stroke="#fdfdfd" stroke-width="8" stroke-linejoin="round" d="M 33.867256 38.566254 C 30.97435 38.566254 28.660027 40.922485 28.660027 43.815399 L 28.660027 47.15274 C 28.660027 50.045624 30.97435 52.401886 33.867256 52.401886 C 36.751778 52.401886 39.116417 50.045624 39.116417 47.15274 L 39.116417 43.815399 C 39.116417 40.922485 36.751778 38.566254 33.867256 38.566254 Z"/>
    <path id="Path-copy-27" fill="#fdfdfd" fill-rule="evenodd" stroke="none" d="M 29.322441 36.830505 C 26.924271 36.830505 25.054359 38.700409 25.054359 41.106964 C 25.054359 43.505157 26.966194 45.375061 29.322441 45.375061 C 31.729004 45.375061 33.598915 43.421295 33.598915 41.106964 C 33.598915 38.700409 31.636772 36.830505 29.322441 36.830505 Z"/>
    <path id="Path-copy-26" fill="none" stroke="#fdfdfd" stroke-width="8" stroke-linejoin="round" d="M 29.322441 36.830505 C 26.924271 36.830505 25.054359 38.700409 25.054359 41.106964 C 25.054359 43.505157 26.966194 45.375061 29.322441 45.375061 C 31.729004 45.375061 33.598915 43.421295 33.598915 41.106964 C 33.598915 38.700409 31.636772 36.830505 29.322441 36.830505 Z"/>
    <path id="Path-copy-25" fill="#dfd4cf" fill-rule="evenodd" stroke="none" d="M 81.896744 6.962158 C 81.527786 6.962158 81.158844 7.029236 80.798279 7.155029 C 77.595108 8.270264 70.920471 10.894836 66.744614 14.634644 C 66.744614 14.634644 71.725449 15.162933 75.591034 17.125061 C 75.976761 17.292755 76.396027 17.376617 76.798523 17.376617 C 77.569962 17.376617 78.316238 17.08313 78.844513 16.504547 C 79.95137 15.389313 81.603256 13.879974 83.38092 12.848602 C 84.940582 11.959747 85.468857 9.964081 84.538086 8.404419 L 84.487778 8.362488 C 83.900818 7.448486 82.911346 6.962158 81.896744 6.962158 Z"/>
    <path id="Path-copy-24" fill="#dfd4cf" fill-rule="evenodd" stroke="none" d="M 17.506287 6.962158 C 16.491676 6.962158 15.493828 7.448486 14.906868 8.362488 L 14.864937 8.404419 C 13.934174 9.964081 14.462448 11.959747 16.022102 12.848602 C 17.799774 13.879974 19.401352 15.389313 20.516586 16.504547 C 21.070015 17.08313 21.824684 17.376617 22.596123 17.376617 C 23.007004 17.376617 23.417877 17.292755 23.803604 17.125061 C 27.635651 15.162933 32.658409 14.634644 32.658409 14.634644 C 28.482559 10.894836 21.807915 8.270264 18.604752 7.155029 C 18.244186 7.029236 17.875237 6.962158 17.506287 6.962158 Z"/>
    <path id="Path-copy-23" fill="#f7e3bc" fill-rule="evenodd" stroke="none" d="M 11.795921 13.3685 C 10.471054 13.3685 9.271965 14.332794 9.129417 15.833771 C 8.768852 20.101837 8.768852 27.623413 12.374504 35.094666 C 12.374504 35.094666 12.64283 32.470062 14.110245 29.535248 C 15.401573 26.952576 17.623657 24.151917 21.27124 22.508423 C 21.27124 22.508423 18.956909 16.949005 13.221413 13.74585 C 12.99501 13.611664 12.776993 13.51944 12.550591 13.477509 C 12.299034 13.402039 12.047478 13.3685 11.795921 13.3685 Z"/>
    <path id="Path-copy-22" fill="#efc2b1" fill-rule="evenodd" stroke="none" d="M 12.550606 13.385284 C 12.508682 13.561371 12.466751 13.787781 12.466751 14.005768 C 12.106186 17.569519 12.064262 23.397247 14.11026 29.535248 C 15.401588 26.952576 17.623672 24.151917 21.271248 22.508423 C 21.271248 22.508423 18.956924 16.949005 13.221428 13.653595 C 12.995026 13.561371 12.777008 13.427216 12.550606 13.385284 Z"/>
    <path id="Path-copy-21" fill="#968d84" fill-rule="evenodd" stroke="none" d="M 83.36412 5.394104 C 82.458511 5.394104 81.536133 5.536652 80.622147 5.821747 C 67.407013 10.140167 57.445358 19.573547 57.445358 19.573547 C 84.04332 23.841644 88.49588 39.723267 88.537811 39.723267 C 93.476715 29.132721 93.392853 19.389069 92.185379 12.76474 C 91.422333 8.404419 87.598663 5.394104 83.36412 5.394104 Z"/>
    <path id="Path-copy-20" fill="#c2bbb6" fill-rule="evenodd" stroke="none" d="M 83.783493 5.37735 L 83.783493 5.37735 C 85.871414 6.668671 87.431061 8.806915 87.875488 11.473419 C 88.848175 17.259216 89.116501 25.485138 85.779175 34.516052 C 87.875488 37.543121 88.495987 39.723267 88.495987 39.723267 C 93.434891 29.132721 93.258804 19.389069 92.14357 12.76474 C 91.430832 8.496643 87.82518 5.553436 83.783493 5.37735 Z"/>
    <path id="Path-copy-19" fill="#f7e3bc" fill-rule="evenodd" stroke="none" d="M 87.573593 13.3685 C 87.322037 13.3685 87.062088 13.402039 86.802155 13.477509 C 86.584137 13.51944 86.357727 13.611664 86.139709 13.74585 C 80.446136 16.949005 78.131821 22.508423 78.131821 22.508423 C 81.779388 24.151917 84.00148 26.952576 85.250885 29.535248 C 86.760223 32.470062 87.028549 35.094666 87.028549 35.094666 C 90.583893 27.623413 90.676132 20.101837 90.273636 15.833771 C 90.122711 14.332794 88.932007 13.3685 87.573593 13.3685 Z"/>
    <path id="Path-copy-18" fill="#efc2b1" fill-rule="evenodd" stroke="none" d="M 86.802155 13.385284 C 86.584137 13.427216 86.357727 13.561371 86.139709 13.653595 C 80.446136 16.949005 78.131821 22.508423 78.131821 22.508423 C 81.779388 24.151917 84.00148 26.952576 85.250885 29.535248 C 87.338806 23.397247 87.246567 17.569519 86.93631 14.005768 C 86.93631 13.787781 86.894394 13.561371 86.802155 13.385284 Z"/>
    <path id="Path-copy-17" fill="#968d84" fill-rule="evenodd" stroke="none" d="M 16.080765 5.394104 C 11.846222 5.394104 8.030937 8.404419 7.259499 12.76474 C 6.06041 19.389069 5.96817 29.132721 10.907074 39.723267 C 10.907074 39.723267 15.35125 23.841644 42.007919 19.573547 C 42.007919 19.573547 32.037872 10.140167 18.822739 5.821747 C 17.908745 5.536652 16.986374 5.394104 16.080765 5.394104 Z"/>
    <path id="Path-copy-16" fill="#c2bbb6" fill-rule="evenodd" stroke="none" d="M 15.619576 5.37735 C 11.569504 5.553436 7.972244 8.496643 7.259499 12.76474 C 6.144257 19.389069 5.96817 29.132721 10.907074 39.723267 C 10.907074 39.723267 11.52758 37.543121 13.615501 34.516052 C 10.286568 25.485138 10.504585 17.259216 11.52758 11.473419 C 11.972 8.806915 13.531654 6.668671 15.619576 5.37735 Z"/>
    <path id="Path-copy-15" fill="#f7e3bc" fill-rule="evenodd" stroke="none" d="M 11.795921 13.3685 C 10.471054 13.3685 9.271965 14.332794 9.129417 15.833771 C 8.768852 20.101837 8.768852 27.623413 12.374504 35.094666 C 12.374504 35.094666 12.64283 32.470062 14.110245 29.535248 C 15.401573 26.952576 17.623657 24.151917 21.27124 22.508423 C 21.27124 22.508423 18.956909 16.949005 13.221413 13.74585 C 12.99501 13.611664 12.776993 13.51944 12.550591 13.477509 C 12.299034 13.402039 12.047478 13.3685 11.795921 13.3685 Z"/>
    <path id="Path-copy-14" fill="#efc2b1" fill-rule="evenodd" stroke="none" d="M 12.550606 13.385284 C 12.508682 13.561371 12.466751 13.787781 12.466751 14.005768 C 12.106186 17.569519 12.064262 23.397247 14.11026 29.535248 C 15.401588 26.952576 17.623672 24.151917 21.271248 22.508423 C 21.271248 22.508423 18.956924 16.949005 13.221428 13.653595 C 12.995026 13.561371 12.777008 13.427216 12.550606 13.385284 Z"/>
    <path id="Path-copy-13" fill="#968d84" fill-rule="evenodd" stroke="none" d="M 49.655258 14.634674 C 43.919754 14.634674 38.930534 15.255188 34.570213 16.185944 C 29.413292 17.301178 25.187134 18.944702 21.849808 20.730743 C 14.068306 24.864685 9.129402 32.738403 8.726913 41.5513 C 8.416656 49.643036 10.286568 55.521088 10.286568 55.521088 C 8.995239 57.969574 8.232185 60.543854 7.661987 62.900116 C 6.320351 68.912323 8.550827 75.184479 13.573578 78.790131 C 19.979904 83.4104 29.103035 86.395538 36.532356 88.307373 C 40.850754 89.397461 45.278152 89.942505 49.697174 89.942505 C 54.116196 89.942505 58.535217 89.397461 62.828461 88.307373 C 70.299713 86.479401 79.422836 83.4104 85.829163 78.790131 C 90.809998 75.184479 93.124313 68.912323 91.656906 62.900116 C 91.078323 60.543854 90.273346 57.969574 89.032318 55.521088 C 89.032318 55.521088 90.944153 49.643036 90.583588 41.5513 C 90.189484 32.738403 85.25058 24.864685 77.460693 20.730743 C 74.123367 19.036926 69.897217 17.343109 64.740295 16.185944 C 60.463821 15.255188 55.399139 14.634674 49.655258 14.634674 Z"/>
    <path id="Path-copy-12" fill="#ded9ce" fill-rule="evenodd" stroke="none" d="M 49.655273 18.684753 C 38.980873 18.684753 31.325157 21.124878 26.117912 23.841675 C 19.577431 27.313171 15.401581 34.029755 15.091331 41.417145 C 14.77269 48.309814 16.332344 53.206787 16.332344 53.206787 C 15.309341 55.294708 14.646912 57.516785 14.110252 59.437012 C 12.953094 64.501709 14.906853 69.843109 19.091087 72.912079 C 24.474411 76.786072 32.213982 79.368713 38.486137 80.970306 C 42.133713 81.875916 45.873535 82.337097 49.613358 82.337097 C 53.344788 82.337097 57.084595 81.875916 60.732178 80.970306 C 67.096573 79.410645 74.752289 76.786072 80.13562 72.912079 C 84.487549 69.843109 86.357468 64.501709 85.200302 59.437012 C 84.755875 57.432953 84.043137 55.294708 82.97821 53.206787 C 82.97821 53.206787 84.579788 48.267883 84.269531 41.417145 C 83.917358 33.987823 79.775055 27.313171 73.192642 23.841675 C 68.027328 21.124878 60.329681 18.684753 49.655273 18.684753 Z"/>
    <path id="Path-copy-11" fill="#a6a299" fill-rule="evenodd" stroke="none" d="M 49.655365 14.584381 C 43.961792 14.584381 38.930641 15.162964 34.620628 16.144012 C 34.310379 17.527588 34.083977 19.078857 34.000122 20.638519 C 33.580864 27.145447 35.190826 33.912354 43.961792 33.912354 C 45.62207 33.912354 47.542282 33.669159 49.747604 33.1409 C 51.936157 33.669159 53.8396 33.912354 55.491486 33.912354 C 64.270828 33.912354 65.889191 27.1203 65.360916 20.638519 C 65.226746 19.078857 65.008728 17.569519 64.740402 16.144012 C 60.463943 15.162964 55.399261 14.584381 49.655365 14.584381 Z"/>
    <path id="Path-copy-10" fill="#b0ada4" fill-rule="evenodd" stroke="none" d="M 49.747604 18.592529 C 43.42514 18.592529 38.268211 19.38913 34.000122 20.638519 C 33.580864 27.145477 35.190826 33.912354 43.961792 33.912354 C 45.62207 33.912354 47.542282 33.669189 49.747604 33.1409 C 51.936157 33.669189 53.8396 33.912354 55.491486 33.912354 C 64.270828 33.912354 65.897568 27.1203 65.453156 20.638519 C 61.176682 19.38913 55.977829 18.592529 49.747604 18.592529 Z"/>
    <path id="Path-copy-9" fill="#ffffff" fill-rule="evenodd" stroke="none" d="M 45.295059 52.401947 C 40.003967 52.401947 35.777809 56.678406 35.777809 61.877258 C 35.777809 67.176727 40.045898 71.402893 45.295059 71.402893 C 46.896637 71.402893 48.414368 71.000397 49.74762 70.287659 C 51.080872 71.000397 52.548279 71.402893 54.191788 71.402893 C 59.440948 71.402893 63.667099 67.126434 63.667099 61.877258 C 63.667099 56.628113 59.399017 52.401947 54.191788 52.401947 C 52.548279 52.401947 51.080872 52.762512 49.74762 53.517181 C 48.414368 52.762512 46.896637 52.401947 45.295059 52.401947 Z"/>
    <path id="Path-copy-8" fill="#bead94" fill-rule="evenodd" stroke="none" d="M 35.861664 60.544037 C 35.819733 60.988464 35.777809 61.432892 35.777809 61.877289 C 35.777809 67.126465 40.003967 71.402924 45.295059 71.402924 C 46.896637 71.402924 48.414368 71.000427 49.74762 70.287689 C 51.080872 71.000427 52.548279 71.402924 54.191788 71.402924 C 59.399017 71.402924 63.667099 67.176758 63.667099 61.877289 C 63.667099 61.432892 63.625183 60.988464 63.583252 60.544037 C 62.962753 65.172699 58.954605 68.73642 54.191788 68.73642 C 52.548279 68.73642 51.080872 68.333923 49.74762 67.621185 C 48.414368 68.333923 46.896637 68.73642 45.295059 68.73642 C 40.490311 68.73642 36.532478 65.172699 35.861664 60.544037 Z"/>
    <path id="Path-copy-7" fill="#5e5c52" fill-rule="evenodd" stroke="none" d="M 49.68895 50.464935 C 49.00975 50.464935 48.322159 50.532013 47.651337 50.666199 C 47.609421 50.666199 47.56749 50.666199 47.47525 50.716492 C 45.387329 51.20285 44.716507 53.919678 46.360016 55.336761 C 46.988907 55.831512 47.70166 56.317841 48.674347 56.678406 C 48.967819 56.787415 49.303238 56.8461 49.630264 56.8461 C 49.965668 56.8461 50.301071 56.787415 50.594559 56.678406 C 51.567245 56.275909 52.279999 55.831512 52.900497 55.336761 C 54.594315 53.869354 53.881577 51.160919 51.701416 50.666199 L 51.659485 50.666199 C 51.038971 50.532013 50.368164 50.464935 49.68895 50.464935 Z"/>
    <path id="Path-copy-6" fill="#504e46" fill-rule="evenodd" stroke="none" d="M 45.605347 52.452271 C 45.337021 53.424957 45.563416 54.540192 46.452255 55.336792 C 47.072769 55.831512 47.785507 56.317841 48.724655 56.678406 C 49.034912 56.787415 49.370316 56.84613 49.697342 56.84613 C 50.032745 56.84613 50.368164 56.787415 50.678421 56.678406 C 51.617554 56.317841 52.321915 55.831512 52.950821 55.336792 C 53.839645 54.632416 54.057663 53.517181 53.797729 52.452271 L 53.797729 52.452271 C 53.613251 52.896667 53.344925 53.341095 52.950821 53.651337 C 52.321915 54.187988 51.617554 54.632416 50.678421 54.984589 C 50.368164 55.093597 50.032745 55.152313 49.697342 55.152313 C 49.370316 55.152313 49.034912 55.093597 48.724655 54.984589 C 47.785507 54.674347 47.072769 54.187988 46.452255 53.651337 C 46.007843 53.341095 45.789825 52.896667 45.605347 52.452271 Z"/>
    <path id="Path-copy-5" fill="#64655c" fill-rule="evenodd" stroke="none" d="M 49.789581 50.766815 C 49.286469 50.766815 48.791748 50.8255 48.280243 50.934509 L 48.188004 50.934509 C 47.835831 50.984833 47.567505 51.160919 47.341095 51.337006 C 46.762512 51.823364 46.762512 52.712189 47.341095 53.156616 C 47.785507 53.559113 48.322174 53.869354 48.992981 54.187988 C 49.210999 54.246704 49.470947 54.280243 49.722504 54.280243 C 49.982452 54.280243 50.234009 54.246704 50.460403 54.187988 C 51.122833 53.869354 51.6595 53.559113 52.103912 53.156616 C 52.682495 52.712189 52.682495 51.823364 52.103912 51.378937 C 51.877502 51.20285 51.617569 51.068695 51.349243 50.934509 L 51.298935 50.934509 C 50.78743 50.8255 50.292694 50.766815 49.789581 50.766815 Z"/>
    <path id="Path-copy-4" fill="#504e46" fill-rule="evenodd" stroke="none" d="M 64.069702 38.700409 C 62.023697 38.700409 60.32988 40.343903 60.32988 42.440216 L 60.32988 48.670471 C 60.32988 50.716461 62.023697 52.401886 64.069702 52.401886 L 67.004532 52.401886 C 69.100845 52.401886 70.744354 50.666138 70.744354 48.670471 L 70.744354 42.440216 C 70.744354 40.343903 69.100845 38.700409 67.004532 38.700409 Z"/>
    <path id="Path-copy-3" fill="#ffffff" fill-rule="evenodd" stroke="none" d="M 70.073547 36.830505 C 67.767609 36.830505 65.805466 38.700409 65.805466 41.106964 C 65.805466 43.421295 67.675369 45.375061 70.073547 45.375061 C 72.438187 45.375061 74.350021 43.505157 74.350021 41.106964 C 74.350021 38.700409 72.480118 36.830505 70.073547 36.830505 Z"/>
    <path id="Path-copy-2" fill="#504e46" fill-rule="evenodd" stroke="none" d="M 33.865944 38.566254 C 30.973038 38.566254 28.658714 40.922485 28.658714 43.815399 L 28.658714 47.15274 C 28.658714 50.045624 30.973038 52.401886 33.865944 52.401886 C 36.750465 52.401886 39.115105 50.045624 39.115105 47.15274 L 39.115105 43.815399 C 39.115105 40.922485 36.750465 38.566254 33.865944 38.566254 Z"/>
    <path id="Path-copy" fill="#ffffff" fill-rule="evenodd" stroke="none" d="M 29.321129 36.830505 C 26.922958 36.830505 25.053047 38.700409 25.053047 41.106964 C 25.053047 43.505157 26.964882 45.375061 29.321129 45.375061 C 31.727692 45.375061 33.597603 43.421295 33.597603 41.106964 C 33.597603 38.700409 31.63546 36.830505 29.321129 36.830505 Z"/>
</svg>
