<?xml version="1.0" encoding="UTF-8"?>
<!-- Generated by Pixelmator Pro 3.4.1 -->
<svg width="98" height="81" viewBox="0 0 98 81" xmlns="http://www.w3.org/2000/svg">
    <path id="Path-copy-20" fill="#bf9a6f" fill-rule="evenodd" stroke="none" d="M 7.409424 1.271698 C 7.257782 1.271698 7.112183 1.283844 6.966583 1.314148 C 3.520874 1.987518 2.331848 10.711029 4.291321 20.854034 C 6.177948 30.560303 10.266724 38.046234 13.639648 38.046234 C 13.773102 38.046234 13.912628 38.034119 14.046082 38.009827 C 17.461456 37.300079 18.620148 28.576569 16.684967 18.439606 C 14.804382 8.733368 10.745972 1.271698 7.409424 1.271698 Z"/>
    <path id="Path-copy-19" fill="#f2dab8" fill-rule="evenodd" stroke="none" d="M 9.605377 11.614716 C 9.605377 13.901733 9.7995 16.698364 10.442535 19.980286 C 11.085571 23.231873 11.953064 25.967804 12.790222 28.06073 C 12.82663 25.810089 12.5961 22.940674 11.953064 19.69516 C 11.212952 15.988586 10.278748 13.319366 9.605377 11.614716 Z"/>
    <path id="Path-copy-18" fill="#bf9a6f" fill-rule="evenodd" stroke="none" d="M 89.571655 1.047241 C 86.180542 1.047241 82.103943 8.521057 80.253662 18.245514 C 78.288147 28.382446 79.483246 37.105957 82.922913 37.779327 C 83.056335 37.809662 83.195862 37.821777 83.329346 37.821777 C 86.671936 37.821777 90.760681 30.36618 92.647339 20.659943 C 94.606812 10.516907 93.417786 1.799469 90.008423 1.089722 C 89.862854 1.059387 89.717285 1.047241 89.571655 1.047241 Z"/>
    <path id="Path-copy-17" fill="#f2dab8" fill-rule="evenodd" stroke="none" d="M 87.302734 11.165802 C 86.495911 13.125244 85.658752 15.800537 84.955017 19.240173 C 84.312012 22.491791 84.117859 25.355133 84.117859 27.611816 C 84.955017 25.518921 85.822571 22.813293 86.435242 19.531372 C 87.108643 16.279785 87.302734 13.416443 87.302734 11.165802 Z"/>
    <path id="Path-copy-16" fill="#bf9a6f" fill-rule="evenodd" stroke="none" d="M 48.327362 6.367371 C 25.893799 6.367371 7.639984 16.637787 6.839233 29.413635 L 6.772491 29.413635 C 6.772491 29.413635 5.583466 45.956726 8.028229 57.222046 C 3.520905 58.732574 0.59082 60.922546 0.94873 62.724274 C 1.270264 64.337921 4.133606 65.235748 8.125305 65.272156 C 6.70575 66.267059 5.965668 67.328674 6.129456 68.293213 C 6.444916 69.906891 9.33252 70.798645 13.366669 70.798645 C 15.047058 70.798645 16.927643 70.647003 18.905304 70.32547 C 27.659119 74.44455 40.501709 77.823547 45.10611 78.982239 C 46.13739 80.074188 47.296082 80.717224 48.551819 80.717224 C 49.807556 80.717224 50.996582 80.074188 52.088531 78.915497 C 56.632263 77.726471 67.667053 74.796417 76.038696 71.192963 C 78.29541 71.617615 80.455048 71.81781 82.359863 71.81781 C 86.394043 71.81781 89.293762 70.91391 89.621399 69.294189 C 89.815491 68.32962 89.075378 67.29834 87.655884 66.267059 C 91.647583 66.267059 94.547302 65.363159 94.868835 63.755554 C 95.159973 62.020569 92.515076 59.988312 88.432373 58.477783 C 91.228943 47.212463 89.942871 29.413635 89.942871 29.413635 L 89.942871 29.413635 L 89.779114 29.480377 C 89.039001 16.637787 70.760925 6.367371 48.327362 6.367371 Z"/>
    <path id="Path-copy-15" fill="#000000" fill-rule="evenodd" stroke="none" d="M 47.714081 39.228424 C 47.362244 39.228424 47.071045 39.519592 47.071045 39.87146 L 47.071045 48.243103 C 47.071045 50.238953 45.46344 51.876862 43.431213 51.876862 C 41.471741 51.876862 39.827759 50.269287 39.827759 48.243103 C 39.827759 47.885193 39.53656 47.600067 39.184723 47.600067 C 38.832855 47.600067 38.541687 47.885193 38.541687 48.243103 C 38.541687 50.979034 40.761993 53.199341 43.497925 53.199341 C 46.233887 53.199341 48.423859 50.979034 48.357117 48.243103 L 48.357117 39.87146 C 48.357117 39.519592 48.065918 39.228424 47.714081 39.228424 Z"/>
    <path id="Path-copy-14" fill="#000000" fill-rule="evenodd" stroke="none" d="M 47.744293 39.228424 C 47.392426 39.228424 47.101257 39.519592 47.101257 39.87146 L 47.101257 48.243103 C 47.101257 50.979034 49.321533 53.199341 52.057495 53.199341 C 54.793457 53.199341 57.013763 50.979034 56.916687 48.243103 C 56.916687 47.885193 56.631561 47.600067 56.273651 47.600067 C 55.921783 47.600067 55.630615 47.885193 55.630615 48.243103 C 55.630615 50.238953 54.02301 51.876862 52.027161 51.876862 C 50.031311 51.876862 48.387329 50.269287 48.387329 48.243103 L 48.387329 39.87146 C 48.387329 39.519592 48.102203 39.228424 47.744293 39.228424 Z"/>
    <path id="Path-copy-13" fill="#f2dab8" fill-rule="evenodd" stroke="none" d="M 42.727448 35.461273 C 42.436249 35.461273 42.242126 35.625061 42.114746 35.849518 C 42.048004 36.110352 42.078339 36.395477 42.272461 36.5896 L 47.362183 41.642914 C 47.453186 41.770325 47.616974 41.867371 47.780762 41.867371 C 47.938477 41.867371 48.102264 41.806732 48.229675 41.642914 L 53.313324 36.5896 C 53.507446 36.395477 53.537781 36.110352 53.477112 35.849518 C 53.343658 35.625061 53.155579 35.461273 52.86441 35.461273 Z"/>
    <path id="Path-copy-12" fill="#000000" fill-rule="evenodd" stroke="none" d="M 69.825684 31.797211 C 68.861115 31.797211 68.121002 32.567657 68.121002 33.532227 C 68.121002 34.496765 68.861115 35.273285 69.825684 35.273285 C 70.790222 35.273285 71.560669 34.496765 71.560669 33.532227 C 71.560669 32.597992 70.790222 31.797211 69.825684 31.797211 Z"/>
    <path id="Path-copy-11" fill="#000000" fill-rule="evenodd" stroke="none" d="M 29.205658 31.797211 C 28.241089 31.797211 27.470642 32.567657 27.470642 33.532227 C 27.470642 34.496765 28.241089 35.273285 29.205658 35.273285 C 30.170197 35.273285 30.946716 34.496765 30.946716 33.532227 C 30.946716 32.597992 30.170197 31.797211 29.205658 31.797211 Z"/>
    <path id="Path-copy-10" fill="#6e4b36" fill-rule="evenodd" stroke="none" d="M 15.65451 52.683228 C 11.419861 52.683228 7.974152 53.648071 7.974152 54.837463 C 7.974152 56.063232 11.419861 57.028107 15.65451 57.028107 C 19.870972 57.028107 23.319733 56.063232 23.319733 54.837463 C 23.319733 53.648071 19.904236 52.683228 15.65451 52.683228 Z"/>
    <path id="Path-copy-9" fill="#6e4b36" fill-rule="evenodd" stroke="none" d="M 15.16925 42.897644 C 10.666565 42.897644 7.002716 43.862335 7.002716 45.087891 C 7.002716 46.277069 10.666565 47.24176 15.16925 47.24176 C 19.652649 47.24176 23.319733 46.277069 23.319733 45.087891 C 23.319733 43.862335 19.688019 42.897644 15.16925 42.897644 Z"/>
    <path id="Path-copy-8" fill="#6e4b36" fill-rule="evenodd" stroke="none" d="M 81.94873 52.683228 C 77.928009 52.683228 74.651154 53.648071 74.651154 54.837463 C 74.651154 56.063232 77.928009 57.028107 81.94873 57.028107 C 85.97229 57.028107 89.249146 56.063232 89.249146 54.837463 C 89.249146 53.648071 85.986633 52.683228 81.94873 52.683228 Z"/>
    <path id="Path-copy-7" fill="#6e4b36" fill-rule="evenodd" stroke="none" d="M 82.324341 42.897644 C 78.096771 42.897644 74.651306 43.862061 74.651306 45.087311 C 74.651306 46.276184 78.096771 47.240631 82.324341 47.240631 C 86.554932 47.240631 90.000366 46.276184 90.000366 45.087311 C 90.000366 43.862061 86.570007 42.897644 82.324341 42.897644 Z"/>
    <path id="Path-copy-6" fill="#434244" fill-rule="evenodd" stroke="none" d="M 50.801697 43.668945 C 50.607574 43.668945 50.44986 43.832733 50.44986 44.026855 C 50.44986 44.220978 50.607574 44.378693 50.801697 44.378693 C 50.995819 44.378693 51.159607 44.220978 51.159607 44.026855 C 51.159607 43.832733 50.995819 43.668945 50.801697 43.668945 Z"/>
    <path id="Path-copy-5" fill="#434244" fill-rule="evenodd" stroke="none" d="M 53.05838 46.374512 C 52.864258 46.374512 52.700439 46.5383 52.700439 46.726349 C 52.700439 46.920471 52.864258 47.084259 53.05838 47.084259 C 53.246429 47.084259 53.410217 46.920471 53.410217 46.726349 C 53.410217 46.5383 53.246429 46.374512 53.05838 46.374512 Z"/>
    <path id="Path-copy-4" fill="#434244" fill-rule="evenodd" stroke="none" d="M 54.119965 42.576996 C 53.895508 42.576996 53.73172 42.740814 53.73172 42.928864 C 53.73172 43.15332 53.895508 43.317108 54.119965 43.317108 C 54.314087 43.317108 54.471832 43.15332 54.471832 42.928864 C 54.471832 42.771118 54.314087 42.60733 54.119965 42.576996 Z"/>
    <path id="Path-copy-3" fill="#434244" fill-rule="evenodd" stroke="none" d="M 41.629425 41.903656 C 41.435303 41.903656 41.277588 42.061371 41.277588 42.255493 C 41.277588 42.449615 41.435303 42.607361 41.629425 42.607361 C 41.823547 42.607361 41.981293 42.449615 41.981293 42.255493 C 41.981293 42.061371 41.823547 41.903656 41.629425 41.903656 Z"/>
    <path id="Path-copy-2" fill="#434244" fill-rule="evenodd" stroke="none" d="M 44.335022 44.348358 C 44.1409 44.348358 43.977081 44.506073 43.977081 44.700226 C 43.977081 44.924683 44.1409 45.08847 44.335022 45.08847 C 44.529144 45.08847 44.686859 44.924683 44.686859 44.700226 C 44.686859 44.54248 44.529144 44.378693 44.335022 44.348358 Z"/>
    <path id="Path-copy" fill="#434244" fill-rule="evenodd" stroke="none" d="M 41.502045 46.471558 C 41.307922 46.471558 41.150177 46.635345 41.150177 46.859802 C 41.150177 47.047882 41.307922 47.21167 41.502045 47.21167 C 41.726501 47.21167 41.890289 47.047882 41.890289 46.859802 C 41.890289 46.635345 41.726501 46.471558 41.502045 46.471558 Z"/>
</svg>
