<?xml version="1.0" encoding="UTF-8"?>
<!-- Generated by Pixelmator Pro 3.4.1 -->
<svg width="113" height="118" viewBox="0 0 113 118" xmlns="http://www.w3.org/2000/svg">
    <path id="Path-copy-20" fill="#bead94" fill-rule="evenodd" stroke="none" d="M 20.780457 1.175476 C 20.092926 1.175476 19.503601 1.715698 19.069794 2.935272 C 15.550201 12.929199 18.505005 41.634155 18.505005 41.634155 L 36.094666 28.693604 C 36.094666 28.693604 25.724213 1.175476 20.780457 1.175476 Z"/>
    <path id="Path-copy-19" fill="#8e7f67" fill-rule="evenodd" stroke="none" d="M 22.671204 10.842041 C 22.196472 16.87439 22.327423 25.04306 22.76123 32.295013 L 30.054108 26.909241 C 27.533112 20.696808 24.84024 14.877258 22.671204 10.842041 Z"/>
    <path id="Path-copy-18" fill="#bead94" fill-rule="evenodd" stroke="none" d="M 95.395264 1.740234 C 90.451508 1.740234 80.081055 29.299286 80.081055 29.299286 L 97.670715 42.239807 C 97.670715 42.239807 100.625519 13.493958 97.105957 3.500061 C 96.67215 2.280457 96.082825 1.740234 95.395264 1.740234 Z"/>
    <path id="Path-copy-17" fill="#8e7f67" fill-rule="evenodd" stroke="none" d="M 93.504517 11.488647 L 93.504517 11.488647 C 91.327301 15.532043 88.642609 21.310669 86.121613 27.564056 L 93.41449 32.949829 C 93.848297 25.73877 94.069305 17.529175 93.504517 11.488647 Z"/>
    <path id="Path-copy-16" fill="#bead94" fill-rule="evenodd" stroke="none" d="M 56.156189 15.360168 C 25.274048 15.360168 0.178711 55.180359 0.178711 77.026245 C 0.178711 98.822998 25.274048 116.453583 56.156189 116.453583 C 87.030151 116.453583 112.133667 98.822998 112.133667 77.026245 C 112.133667 55.180359 87.079285 15.360168 56.156189 15.360168 Z"/>
    <path id="Path-copy-15" fill="#faf4f8" fill-rule="evenodd" stroke="none" d="M 55.763306 59.826599 C 44.607117 59.826599 35.529907 72.834503 35.529907 88.883423 C 35.529907 104.937622 44.607117 117.972046 55.763306 117.972046 C 66.968628 117.972046 76.045837 104.937622 76.045837 88.883423 C 76.045837 72.834503 66.968628 59.826599 55.763306 59.826599 Z"/>
    <path id="Path-copy-14" fill="#434244" fill-rule="evenodd" stroke="none" d="M 55.853363 73.408447 C 55.624176 73.408447 55.394989 73.482117 55.239471 73.637634 L 49.419922 79.457214 C 49.117065 79.800964 49.117065 80.365753 49.419922 80.717712 C 49.599976 80.865021 49.829163 80.946869 50.050171 80.946869 C 50.279327 80.946869 50.508514 80.865021 50.68042 80.717712 L 55.853363 75.544739 L 60.977173 80.717712 C 61.149078 80.889587 61.370056 80.979614 61.582886 80.979614 C 61.803864 80.979614 62.016693 80.930511 62.278595 80.717712 C 62.622375 80.365753 62.622375 79.800964 62.278595 79.457214 L 56.499969 73.637634 C 56.328094 73.482117 56.090729 73.408447 55.853363 73.408447 Z"/>
    <path id="Path-copy-13" fill="#434244" fill-rule="evenodd" stroke="none" d="M 55.763306 68.341919 C 55.288574 68.341919 54.895691 68.726624 54.895691 69.209534 L 54.895691 74.464325 C 54.895691 74.939056 55.288574 75.33194 55.763306 75.33194 C 56.28717 75.33194 56.63092 74.939056 56.63092 74.464325 L 56.63092 69.209534 C 56.63092 68.726624 56.28717 68.341919 55.763306 68.341919 Z"/>
    <path id="Path-copy-12" fill="#b4949e" fill-rule="evenodd" stroke="none" d="M 51.073273 64.7323 L 55.763306 69.471436 L 60.543365 64.7323 Z"/>
    <path id="Path-copy-11" fill="#b4949e" fill-rule="evenodd" stroke="none" d="M 59.020966 65.346191 L 55.763306 68.603821 L 52.505676 65.346191 Z M 51.073273 64.167542 C 50.860474 64.167542 50.639465 64.298523 50.508514 64.519501 C 50.418488 64.7323 50.46759 64.994232 50.639465 65.166138 L 55.329498 69.905273 C 55.46048 70.036224 55.591431 70.077148 55.763306 70.077148 C 55.935211 70.077148 56.115265 70.036224 56.197113 69.905273 L 60.92807 65.166138 C 61.108154 65.035156 61.149078 64.7323 61.059021 64.519501 C 60.977173 64.298523 60.756195 64.167542 60.494263 64.167542 Z"/>
    <path id="Path-copy-10" fill="#434244" fill-rule="evenodd" stroke="none" d="M 87.897766 57.914185 C 86.596344 57.914185 85.556854 58.91275 85.556854 60.263306 C 85.556854 61.564697 86.596344 62.563293 87.897766 62.563293 C 89.199188 62.563293 90.246887 61.564697 90.246887 60.263306 C 90.246887 58.91275 89.199188 57.914185 87.897766 57.914185 Z"/>
    <path id="Path-copy-9" fill="#434244" fill-rule="evenodd" stroke="none" d="M 27.664063 57.914185 C 26.36264 57.914185 25.323151 58.91275 25.323151 60.263306 C 25.323151 61.564697 26.36264 62.563293 27.664063 62.563293 C 28.965485 62.563293 30.013184 61.564697 30.013184 60.263306 C 30.013184 58.91275 28.965485 57.914185 27.664063 57.914185 Z"/>
    <path id="Path-copy-8" fill="none" stroke="none" d="M 62.491425 72.467163 C 62.491425 72.467163 68.098175 70.167175 78.002075 72.033386"/>
    <path id="Path-copy-7" fill="none" stroke="#434244" stroke-width="0.08399" stroke-linecap="round" d="M 62.491425 72.467163 C 62.491425 72.467163 68.098175 70.167175 78.002075 72.033386"/>
    <path id="Path-copy-6" fill="none" stroke="none" d="M 32.223145 71.681396 C 32.223145 71.681396 37.829895 69.422363 47.684692 71.24762"/>
    <path id="Path-copy-5" fill="none" stroke="#434244" stroke-width="0.08399" stroke-linecap="round" d="M 32.223145 71.681396 C 32.223145 71.681396 37.829895 69.422363 47.684692 71.24762"/>
    <path id="Path-copy-4" fill="none" stroke="none" d="M 35.137024 77.329102 C 35.137024 77.329102 39.998932 73.768616 50.033783 73.1138"/>
    <path id="Path-copy-3" fill="none" stroke="#434244" stroke-width="0.08399" stroke-linecap="round" d="M 35.137024 77.329102 C 35.137024 77.329102 39.998932 73.768616 50.033783 73.1138"/>
    <path id="Path-copy-2" fill="none" stroke="none" d="M 61.926636 70.077148 C 61.926636 70.077148 66.74765 66.475739 76.782501 65.820923"/>
    <path id="Path-copy" fill="none" stroke="#434244" stroke-width="0.08399" stroke-linecap="round" d="M 61.926636 70.077148 C 61.926636 70.077148 66.74765 66.475739 76.782501 65.820923"/>
</svg>
