<?xml version="1.0" encoding="UTF-8"?>
<!-- Generated by Pixelmator Pro 3.4.1 -->
<svg width="71" height="82" viewBox="0 0 71 82" xmlns="http://www.w3.org/2000/svg">
    <path id="Path-copy-19" fill="#f4cccc" fill-rule="evenodd" stroke="none" d="M 23.584946 0.808411 C 23.579163 0.808411 23.573364 0.808411 23.567581 0.808411 C 18.651855 0.808411 14.656738 14.970825 14.656738 24.865967 C 14.656738 34.697449 18.651855 42.681885 23.567581 42.681885 C 28.483307 42.681885 32.478424 34.726379 32.478424 24.865967 C 32.478424 14.982422 28.523849 0.808411 23.584946 0.808411 Z"/>
    <path id="Path-copy-18" fill="#f4cccc" fill-rule="evenodd" stroke="none" d="M 47.850403 0.808411 C 47.844604 0.808411 47.844604 0.808411 47.838821 0.808411 C 42.92308 0.808411 38.927963 14.970825 38.927963 24.865967 C 38.927963 34.697449 42.92308 42.681885 47.838821 42.681885 C 52.754547 42.681885 56.743881 34.726379 56.743881 24.865967 C 56.743881 14.982422 52.760345 0.808411 47.850403 0.808411 Z"/>
    <path id="Path-copy-17" fill="#b4949e" fill-rule="evenodd" stroke="none" d="M 23.567459 7.571045 C 21.847824 11.039276 19.971848 18.288391 19.971848 24.865845 C 19.971848 32.11499 22.368927 36.445923 23.567459 37.308655 C 24.765991 36.445923 27.220963 32.11499 27.192017 24.865845 C 27.192017 18.288391 25.287094 11.039276 23.567459 7.571045 Z"/>
    <path id="Path-copy-16" fill="#b4949e" fill-rule="evenodd" stroke="none" d="M 47.838699 7.571045 C 46.113266 11.039276 44.243088 18.288391 44.243088 24.865845 C 44.243088 32.11499 46.640167 36.445923 47.838699 37.308655 C 49.037231 36.445923 51.492203 32.11499 51.428513 24.865845 C 51.428513 18.288391 49.558334 11.039276 47.838699 7.571045 Z"/>
    <path id="Path-copy-15" fill="#f4cccc" fill-rule="evenodd" stroke="none" d="M 35.703766 12.486694 C 17.146729 12.486694 2.092667 27.534973 2.092667 46.092041 C 2.092667 64.649048 17.146729 79.703125 35.703766 79.703125 C 54.255005 79.703125 69.309082 64.649048 69.309082 46.092041 C 69.309082 27.534973 54.255005 12.486694 35.703766 12.486694 Z"/>
    <path id="Path-copy-14" fill="#f4cccc" fill-rule="evenodd" stroke="none" d="M 6.151642 30.580231 C 6.151642 30.580231 -5.428413 44.065216 7.778641 80.98822 C 8.056564 69.963989 8.635559 63.907623 8.635559 63.907623 L 10.540482 80.40921 L 13.064926 67.474304 L 15.241989 81.787231 L 18.009613 70.236145 L 6.151642 30.580231 Z"/>
    <path id="Path-copy-13" fill="#f4cccc" fill-rule="evenodd" stroke="none" d="M 65.040665 29.717529 L 53.182693 69.408173 L 55.944534 80.959259 L 58.127365 66.646332 L 60.617081 79.575439 L 62.550949 63.05072 C 62.550949 63.05072 63.135742 69.130249 63.378922 80.160248 C 76.591766 43.208313 65.040665 29.717529 65.040665 29.717529 Z"/>
    <path id="Path-copy-12" fill="#434244" fill-rule="evenodd" stroke="none" d="M 34.78244 37.215515 C 34.475571 37.215515 34.255554 37.429718 34.255554 37.765533 L 34.255554 44.615021 C 34.255554 46.276733 32.906509 47.625793 31.244797 47.625793 C 29.588882 47.625793 28.268784 46.276733 28.268784 44.615021 C 28.268784 44.308167 28.019806 44.093933 27.712952 44.093933 C 27.406082 44.093933 27.191849 44.308167 27.191849 44.615021 C 27.191849 46.861511 28.975143 48.673767 31.215851 48.673767 C 33.427597 48.673767 35.239838 46.861511 35.332474 44.58606 L 35.332474 37.765533 C 35.332474 37.429718 35.08931 37.215515 34.78244 37.215515 Z"/>
    <path id="Path-copy-11" fill="#434244" fill-rule="evenodd" stroke="none" d="M 34.747665 37.215515 C 34.440796 37.215515 34.197617 37.429718 34.197617 37.765533 L 34.197617 44.615021 C 34.197617 46.861511 36.009872 48.673767 38.250565 48.673767 C 40.462326 48.673767 42.274567 46.861511 42.338257 44.58606 C 42.338257 44.279205 42.124023 44.064972 41.817154 44.064972 C 41.5103 44.064972 41.261322 44.279205 41.261322 44.58606 C 41.261322 46.247772 39.941223 47.596832 38.285309 47.596832 C 36.623596 47.596832 35.274551 46.247772 35.274551 44.58606 L 35.274551 37.765533 C 35.274551 37.429718 35.054535 37.215515 34.747665 37.215515 Z"/>
    <path id="Path-copy-10" fill="#b4949e" fill-rule="evenodd" stroke="none" d="M 30.573151 34.72583 L 34.718735 38.871399 L 38.864319 34.72583 Z"/>
    <path id="Path-copy-9" fill="#b4949e" fill-rule="evenodd" stroke="none" d="M 37.544357 35.217987 L 34.718826 38.072479 L 31.864334 35.217987 Z M 30.573166 34.141052 C 30.324188 34.141052 30.138916 34.297363 30.052063 34.476868 C 29.988373 34.66214 30.017319 34.911133 30.173645 35.061646 L 34.319305 39.213104 C 34.440903 39.334717 34.568283 39.363647 34.718826 39.363647 C 34.875153 39.363647 35.025696 39.334717 35.089386 39.213104 L 39.235046 35.061646 C 39.391373 34.911133 39.420319 34.66214 39.356628 34.476868 C 39.263992 34.262634 39.078705 34.141052 38.864487 34.141052 Z"/>
    <path id="Path-copy-8" fill="#434244" fill-rule="evenodd" stroke="none" d="M 52.754272 31.159241 C 51.984192 31.159241 51.335709 31.807709 51.335709 32.577789 C 51.335709 33.342072 51.984192 33.99054 52.754272 33.99054 C 53.518555 33.99054 54.167038 33.342072 54.167038 32.577789 C 54.167038 31.807709 53.547501 31.159241 52.754272 31.159241 Z"/>
    <path id="Path-copy-7" fill="#434244" fill-rule="evenodd" stroke="none" d="M 19.543427 31.159241 C 18.773361 31.159241 18.130661 31.807709 18.130661 32.577789 C 18.130661 33.342072 18.773361 33.99054 19.543427 33.99054 C 20.313507 33.99054 20.956207 33.342072 20.956207 32.577789 C 20.956207 31.807709 20.313507 31.159241 19.543427 31.159241 Z"/>
    <path id="Path-copy-6" fill="#434244" fill-rule="evenodd" stroke="none" d="M 37.266266 41.82428 C 37.115738 41.82428 37.023087 41.945862 37.023087 42.096405 C 37.023087 42.252747 37.115738 42.374329 37.266266 42.374329 C 37.422592 42.374329 37.544189 42.252747 37.544189 42.096405 C 37.544189 41.974823 37.422592 41.82428 37.266266 41.82428 Z"/>
    <path id="Path-copy-5" fill="#434244" fill-rule="evenodd" stroke="none" d="M 38.927963 43.81601 C 38.771637 43.81601 38.650055 43.94339 38.650055 44.093933 C 38.650055 44.250244 38.771637 44.342896 38.927963 44.342896 C 39.078506 44.342896 39.205887 44.250244 39.205887 44.093933 C 39.205887 43.94339 39.078506 43.81601 38.927963 43.81601 Z"/>
    <path id="Path-copy-4" fill="#434244" fill-rule="evenodd" stroke="none" d="M 39.698029 41.054199 C 39.541702 41.054199 39.420105 41.175812 39.420105 41.332153 C 39.420105 41.482666 39.541702 41.604248 39.698029 41.604248 C 39.848557 41.604248 39.970154 41.482666 39.970154 41.332153 C 39.970154 41.175812 39.848557 41.054199 39.698029 41.054199 Z"/>
    <path id="Path-copy-3" fill="#434244" fill-rule="evenodd" stroke="none" d="M 30.573151 40.562073 C 30.416824 40.562073 30.295227 40.683655 30.295227 40.839996 C 30.295227 40.961578 30.416824 41.083191 30.573151 41.083191 C 30.694733 41.083191 30.81633 40.99054 30.81633 40.839996 C 30.81633 40.683655 30.723694 40.562073 30.573151 40.562073 Z"/>
    <path id="Path-copy-2" fill="#434244" fill-rule="evenodd" stroke="none" d="M 32.535919 42.345367 C 32.414337 42.345367 32.292755 42.46698 32.292755 42.623291 C 32.292755 42.773834 32.414337 42.895416 32.535919 42.895416 C 32.692245 42.895416 32.813843 42.773834 32.813843 42.623291 C 32.813843 42.46698 32.692245 42.345367 32.535919 42.345367 Z"/>
    <path id="Path-copy" fill="#434244" fill-rule="evenodd" stroke="none" d="M 30.480515 43.8797 C 30.324188 43.8797 30.202591 44.001282 30.202591 44.157623 C 30.202591 44.308167 30.324188 44.435547 30.480515 44.435547 C 30.631058 44.435547 30.758423 44.308167 30.758423 44.157623 C 30.758423 44.001282 30.631058 43.8797 30.480515 43.8797 Z"/>
</svg>
