<?xml version="1.0" encoding="UTF-8"?>
<!-- Generated by Pixelmator Pro 3.4.1 -->
<svg width="97" height="89" viewBox="0 0 97 89" xmlns="http://www.w3.org/2000/svg">
    <path id="Path-copy-23" fill="#ffffff" fill-rule="evenodd" stroke="none" d="M 13.861847 27.809448 C 13.861847 27.809448 13.172218 28.397888 12.197548 29.473694 C 11.958473 29.712738 11.710213 29.960999 11.471138 30.255249 C 10.735542 31.082764 9.90799 32.103394 9.025269 33.326294 C 5.76104 37.813293 1.9543 44.985229 1.908325 53.867371 C 1.908325 53.867371 2.689903 52.396179 3.857666 52.055969 C 3.857666 52.055969 5.807014 60.68985 12.344666 68.744446 C 12.344666 68.744446 12.638908 66.252686 13.080269 65.572266 C 13.080269 65.572266 30.881805 73.571686 33.906967 81.378052 L 35.028763 77.718536 C 35.028763 77.718536 47.322495 80.743591 48.05809 88.448792 C 48.05809 88.549957 48.104065 88.549957 48.205215 88.549957 C 48.25119 88.549957 48.297165 88.503967 48.297165 88.448792 C 49.032776 80.743591 60.250687 77.718536 60.250687 77.718536 L 61.427643 81.378052 C 64.452805 73.571686 82.254349 65.572266 82.254349 65.572266 C 82.695709 66.252686 82.98996 68.744446 82.98996 68.744446 C 89.527603 60.68985 91.476944 52.055969 91.476944 52.055969 C 92.644714 52.396179 93.426285 53.867371 93.426285 53.867371 C 93.38031 46.20813 90.548248 39.817749 87.477112 35.275574 C 87.081726 34.641113 86.649567 34.107849 86.309357 33.565338 C 85.867996 32.930908 85.47261 32.397614 85.086411 31.910278 C 85.086411 31.864319 85.040436 31.809143 84.939301 31.717194 C 84.893326 31.717194 84.893326 31.671204 84.893326 31.671204 C 82.934784 29.179443 81.380829 27.809448 81.380829 27.809448 L 77.868332 27.956543 L 76.838486 27.956543 L 72.691544 28.057678 L 48.104065 28.885193 L 47.61673 28.885193 C 47.61673 28.885193 47.61673 36.737549 47.570755 46.84256 C 47.570755 36.691559 47.515594 28.885193 47.515594 28.885193 L 24.546448 28.158813 L 20.44548 28.011719 L 18.201889 27.956543 L 14.395157 27.809448 Z"/>
    <path id="Path-copy-22" fill="#ffffff" fill-rule="evenodd" stroke="none" d="M 92.34816 1.71521 C 84.238159 1.71521 67.438873 11.682312 63.37468 14.100525 L 62.445984 14.688965 L 72.836349 28.104126 L 84.403671 43.036377 C 84.403671 43.036377 85.672577 40.158447 87.373657 35.956421 C 87.373657 35.818512 87.474808 35.717377 87.520782 35.570251 C 87.566757 35.469116 87.566757 35.423157 87.621918 35.276031 C 92.34816 23.718231 99.768539 3.030029 93.865341 1.862305 C 93.405594 1.761169 92.899857 1.71521 92.34816 1.71521 Z"/>
    <path id="Path-copy-21" fill="#dc7290" fill-rule="evenodd" stroke="none" d="M 91.492676 5.503357 C 85.212494 5.503357 71.419968 19.57135 71.419968 19.57135 L 82.886154 36.88504 C 82.886154 36.88504 98.011948 6.790619 92.154724 5.567719 C 91.943237 5.530945 91.722565 5.503357 91.492676 5.503357 Z"/>
    <path id="Path-copy-20" fill="#ffffff" fill-rule="evenodd" stroke="none" d="M 5.126831 1.678406 C 4.602715 1.678406 4.106186 1.724365 3.664825 1.807129 C -4.629074 3.471375 13.126495 42.981232 13.126495 42.981232 L 35.084183 14.688965 C 35.084183 14.688965 14.386208 1.678406 5.126831 1.678406 Z"/>
    <path id="Path-copy-19" fill="#dc7290" fill-rule="evenodd" stroke="none" d="M 6.03698 5.503357 C 5.807106 5.503357 5.577225 5.530945 5.365746 5.567719 C -0.482285 6.790619 14.634315 36.88504 14.634315 36.88504 L 26.100494 19.57135 C 26.100494 19.57135 12.317169 5.503357 6.03698 5.503357 Z"/>
    <path id="Path-copy-18" fill="#ffffff" fill-rule="evenodd" stroke="none" d="M 48.297073 11.663727 C 43.175446 11.663727 38.302094 12.151062 33.814926 13.861267 C 33.373566 14.008392 32.932205 14.201477 32.591995 14.348602 C 32.398895 14.449738 32.25177 14.495728 32.150635 14.541687 C 29.713959 15.663452 27.323257 16.987488 25.079666 18.495422 C 21.125809 21.125122 17.512169 24.352478 14.44104 27.864868 C 13.567513 28.885498 12.684792 29.961304 11.903214 31.083038 C 11.029686 32.250793 10.294083 33.372559 9.56768 34.549469 C 9.319412 35.036804 9.025177 35.468933 8.786102 35.956268 C 6.781593 39.670959 5.51268 43.47757 5.172462 47.183044 C 4.34491 56.791565 18.928207 64.450806 28.684113 70.206726 C 29.419708 70.648071 37.373398 77.718811 48.251099 77.718811 C 59.082825 77.718811 67.082489 70.648071 67.818085 70.206726 C 77.619965 64.34967 92.157288 56.791565 91.476852 47.183044 C 91.136642 43.330444 89.766586 39.422668 87.624146 35.570068 C 87.56897 35.570068 87.56897 35.524109 87.56897 35.524109 C 86.88855 34.301208 86.106964 33.078308 85.325394 31.910583 C 85.279419 31.864594 85.279419 31.809448 85.187469 31.763458 C 85.132294 31.763458 85.132294 31.671509 85.132294 31.671509 C 81.720947 26.936218 77.132629 22.495148 72.112152 18.936768 C 69.519165 17.180603 66.843414 15.571503 64.057327 14.348602 C 63.818253 14.302612 63.615967 14.201477 63.422867 14.100342 C 58.742615 12.252197 53.666962 11.663727 48.297073 11.663727 Z"/>
    <path id="Path-copy-17" fill="#d9f1fd" fill-rule="evenodd" stroke="none" d="M 64.864426 38.484344 C 61.977188 38.484344 59.393402 40.543945 58.832504 43.477112 C 58.25322 46.741211 60.450821 49.959412 63.715057 50.593811 C 64.073654 50.658203 64.432266 50.685791 64.790863 50.685791 C 67.705688 50.685791 70.317078 48.62616 70.887161 45.720612 C 71.521622 42.401306 69.324005 39.183136 66.004608 38.594666 C 65.618423 38.521118 65.241425 38.484344 64.864426 38.484344 Z"/>
    <path id="Path-copy-16" fill="#0d0c0b" fill-rule="evenodd" stroke="none" d="M 65.958542 38.548706 C 65.958542 38.548706 62.004684 40.645111 61.4254 43.909241 C 60.790939 47.228546 63.521866 50.547852 63.714951 50.593811 C 63.908051 50.593811 67.714783 48.497437 68.303268 45.233276 C 68.983704 41.914001 66.151627 38.888916 65.958542 38.548706 Z"/>
    <path id="Path-copy-15" fill="#ffffff" fill-rule="evenodd" stroke="none" d="M 67.098526 42.143799 C 66.482468 42.143799 65.903183 42.603516 65.811234 43.22876 C 65.664108 43.86322 66.151443 44.54361 66.841064 44.690735 C 66.89624 44.699921 66.951416 44.709106 67.015778 44.709106 C 67.631836 44.709106 68.211136 44.240173 68.303085 43.614929 C 68.450195 42.88855 67.96286 42.25412 67.273239 42.152985 C 67.218063 42.143799 67.162903 42.143799 67.098526 42.143799 Z"/>
    <path id="Path-copy-14" fill="#ffffff" fill-rule="evenodd" stroke="none" d="M 62.446014 44.093018 C 61.949493 44.093018 61.554108 44.414856 61.471344 44.938965 C 61.324234 45.472229 61.710419 45.959595 62.25293 46.06073 C 62.335678 46.079102 62.418442 46.088318 62.50119 46.088318 C 62.970139 46.088318 63.337936 45.738892 63.420685 45.279175 C 63.466675 44.736664 63.181625 44.249329 62.639114 44.102234 C 62.574753 44.093018 62.510391 44.093018 62.446014 44.093018 Z"/>
    <path id="Path-copy-13" fill="#cacaca" fill-rule="evenodd" stroke="none" d="M 66.087616 38.125732 C 64.919846 38.125732 63.632538 38.29126 62.253296 38.695831 C 54.446732 40.939331 51.715805 51.375366 51.86293 53.030457 L 53.177811 54.593567 C 53.177811 54.593567 52.20314 50.888062 56.009872 45.812561 C 57.554642 43.771332 60.828064 40.930145 64.818695 40.930145 C 66.749649 40.930145 68.836929 41.592163 70.988556 43.329987 L 74.547028 41.619751 C 74.547028 41.619751 71.485092 38.125732 66.087616 38.125732 Z"/>
    <path id="Path-copy-12" fill="#d9f1fd" fill-rule="evenodd" stroke="none" d="M 31.625732 38.484344 C 31.248734 38.484344 30.871735 38.521118 30.494736 38.594666 C 27.175339 39.183136 25.032898 42.401306 25.612183 45.720612 C 26.182281 48.62616 28.793655 50.685791 31.671707 50.685791 C 32.030304 50.685791 32.379715 50.658203 32.738327 50.593811 C 36.057724 49.959412 38.24614 46.741211 37.611679 43.477112 C 37.096756 40.543945 34.485382 38.484344 31.625732 38.484344 Z"/>
    <path id="Path-copy-11" fill="#0d0c0b" fill-rule="evenodd" stroke="none" d="M 30.494644 38.548706 C 30.393494 38.888916 27.561432 41.914001 28.195892 45.233276 C 28.784363 48.497437 32.59111 50.593811 32.73822 50.593811 C 32.93132 50.547852 35.662231 47.228546 35.082947 43.909241 C 34.448502 40.645111 30.494644 38.548706 30.494644 38.548706 Z"/>
    <path id="Path-copy-10" fill="#ffffff" fill-rule="evenodd" stroke="none" d="M 29.446396 42.143799 C 29.39122 42.143799 29.336044 42.143799 29.271683 42.152985 C 28.545273 42.25412 28.103912 42.88855 28.251038 43.614929 C 28.333786 44.240173 28.913086 44.709106 29.538345 44.709106 C 29.593506 44.709106 29.657867 44.699921 29.713043 44.690735 C 30.393478 44.54361 30.880814 43.86322 30.733688 43.22876 C 30.65094 42.603516 30.071655 42.143799 29.446396 42.143799 Z"/>
    <path id="Path-copy-9" fill="#ffffff" fill-rule="evenodd" stroke="none" d="M 34.089691 44.093018 C 34.025314 44.093018 33.970154 44.093018 33.905777 44.102234 C 33.372467 44.249329 32.977081 44.736664 33.124207 45.279175 C 33.20697 45.738892 33.583954 46.088318 34.052902 46.088318 C 34.135666 46.088318 34.209213 46.079102 34.301163 46.06073 C 34.834488 45.959595 35.174698 45.472229 35.082748 44.938965 C 34.944824 44.414856 34.549438 44.093018 34.089691 44.093018 Z"/>
    <path id="Path-copy-8" fill="#cacaca" fill-rule="evenodd" stroke="none" d="M 30.384521 38.125732 C 25.014633 38.125732 21.952682 41.619751 21.952682 41.619751 L 25.520355 43.329987 C 27.644409 41.592163 29.722473 40.930145 31.644226 40.930145 C 35.625671 40.930145 38.91748 43.771332 40.489838 45.812561 C 44.259796 50.77771 43.413849 54.437256 43.3311 54.593567 L 43.3311 54.593567 L 44.63678 53.030457 C 44.783905 51.375366 42.007019 40.939331 34.200439 38.695831 C 32.830383 38.29126 31.552277 38.125732 30.384521 38.125732 Z M 43.3311 54.593567 L 43.321899 54.593567 C 43.321899 54.593567 43.321899 54.593567 43.3311 54.593567 Z"/>
    <path id="Path-copy-7" fill="#cacaca" fill-rule="evenodd" stroke="none" d="M 54.299759 54.933472 C 50.686111 54.933472 47.7621 55.669037 47.7621 59.227417 C 47.7621 62.840942 51.173447 67.373962 54.787094 67.373962 C 58.345566 67.373962 60.791443 65.038483 60.791443 61.424957 C 60.791443 57.866577 57.858231 54.933472 54.299759 54.933472 Z"/>
    <path id="Path-copy-6" fill="#cacaca" fill-rule="evenodd" stroke="none" d="M 42.24556 54.933472 C 38.595139 54.933472 35.717102 57.866577 35.717102 61.424957 C 35.717102 65.038483 38.153778 67.373962 41.758224 67.373962 C 45.371857 67.373962 48.783218 62.840942 48.783218 59.227417 C 48.783218 55.669037 45.859192 54.933472 42.24556 54.933472 Z"/>
    <path id="Path-copy-5" fill="#ffffff" fill-rule="evenodd" stroke="none" d="M 55.035355 53.471497 C 51.035522 53.471497 47.808075 54.207092 47.808075 57.912598 C 47.808075 61.618073 51.568832 66.252228 55.568665 66.252228 C 59.522522 66.252228 62.207474 63.861572 62.207474 60.156097 C 62.207474 56.496582 58.980011 53.471497 55.035355 53.471497 Z"/>
    <path id="Path-copy-4" fill="#ffffff" fill-rule="evenodd" stroke="none" d="M 41.519196 53.471497 C 37.565353 53.471497 34.347092 56.496582 34.347092 60.156097 C 34.347092 63.861572 37.032043 66.252228 40.985886 66.252228 C 44.930557 66.252228 48.737289 61.618073 48.737289 57.912598 C 48.737289 54.207092 45.473053 53.471497 41.519196 53.471497 Z"/>
    <path id="Path-copy-3" fill="#dc7290" fill-rule="evenodd" stroke="none" d="M 44.351028 52.598022 C 42.245377 52.598022 40.48912 54.841553 42.346512 55.816193 C 43.376358 56.404663 45.472824 56.257538 45.859009 57.719513 C 46.539444 60.450348 47.7164 61.038818 48.24971 61.084778 L 48.2957 61.084778 C 48.783035 61.084778 50.005966 60.450348 50.686401 57.719513 C 51.035812 56.257538 53.178238 56.404663 54.198898 55.816193 C 55.909164 54.841553 54.198898 52.598022 52.102432 52.598022 Z"/>
    <path id="Path-copy-2" fill="#ffffff" fill-rule="evenodd" stroke="none" d="M 63.907928 14.348572 L 63.907928 14.348572 C 63.907928 14.348572 85.736893 35.965393 87.465546 35.965393 C 87.603485 35.965393 87.612671 35.818298 87.474747 35.524048 C 85.424255 31.423218 82.987579 28.011963 82.987579 28.011963 L 85.185196 28.011963 C 83.640427 26.044281 78.528 23.01001 78.895798 23.01001 C 78.914185 23.01001 78.941772 23.019196 78.987747 23.028381 C 79.907257 23.322632 83.373779 23.322632 83.373779 23.322632 C 79.475082 19.663116 63.907928 14.348572 63.907928 14.348572 Z"/>
    <path id="Path-copy" fill="#ffffff" fill-rule="evenodd" stroke="none" d="M 32.343567 14.348572 L 32.343567 14.348572 C 32.343567 14.348572 16.785599 19.663116 12.877724 23.322632 C 12.877724 23.322632 16.344238 23.322632 17.272934 23.028381 C 17.309715 23.019196 17.337303 23.01001 17.35569 23.01001 C 17.686714 23.01001 12.611061 26.044281 11.029526 28.011963 L 13.227127 28.011963 C 13.227127 28.011963 10.781258 31.423218 8.785942 35.524048 C 8.638817 35.818298 8.648018 35.965393 8.785942 35.965393 C 10.487015 35.965393 32.343567 14.348572 32.343567 14.348572 Z"/>
</svg>
