<?xml version="1.0" encoding="UTF-8"?>
<!-- Generated by Pixelmator Pro 3.4.1 -->
<svg width="98" height="86" viewBox="0 0 98 86" xmlns="http://www.w3.org/2000/svg">
    <path id="Path-copy-25" fill="#e79d49" fill-rule="evenodd" stroke="none" d="M 23.458252 1.320526 C 23.081238 1.320526 22.759399 1.440063 22.474365 1.688324 C 14.382751 8.952179 13.693115 20.71228 14.47467 29.107056 C 14.529846 29.787476 14.621826 30.421936 14.677002 31.010376 C 14.722961 31.442535 14.768921 31.791931 14.870056 32.178101 C 15.449341 36.426086 16.332092 39.248871 16.332092 39.248871 C 16.332092 39.248871 17.794067 38.715576 19.991699 37.740936 C 22.042175 36.812256 24.773132 35.442261 27.651123 33.686035 C 30.234924 32.132141 32.919922 30.228821 35.356567 27.985291 L 36.184143 27.1026 C 37.848389 25.53949 39.356384 23.737335 40.533386 21.788025 C 40.533386 21.788025 39.797791 20.519165 38.52887 18.46875 C 34.85083 12.71283 27.108643 1.320526 23.458252 1.320526 Z"/>
    <path id="Path-copy-24" fill="#f0c88b" fill-rule="evenodd" stroke="none" d="M 25.591492 6.239624 C 25.324829 6.239624 25.076538 6.331604 24.865051 6.515472 C 13.748291 16.372253 19.109009 38.127014 19.109009 38.127014 C 19.109009 38.127014 32.818726 33.253815 38.574829 24.077454 C 38.574829 24.077454 29.425781 6.239624 25.591492 6.239624 Z"/>
    <path id="Path-copy-23" fill="#e79d49" fill-rule="evenodd" stroke="none" d="M 74.37854 1.375702 C 69.440796 1.375702 57.312622 21.788025 57.312622 21.788025 C 64.383545 33.253906 81.5047 39.248871 81.5047 39.248871 C 81.5047 39.248871 89.072144 13.981689 75.362427 1.734314 C 75.077332 1.495239 74.755554 1.375702 74.37854 1.375702 Z"/>
    <path id="Path-copy-22" fill="#f0c88b" fill-rule="evenodd" stroke="none" d="M 72.291199 6.239624 C 68.466064 6.239624 59.307861 24.077454 59.307861 24.077454 C 64.971985 33.253815 78.773682 38.127014 78.773682 38.127014 C 78.773682 38.127014 84.143555 16.372253 73.017578 6.515472 C 72.806091 6.331604 72.567017 6.239624 72.291199 6.239624 Z"/>
    <path id="Path-copy-21" fill="#f0c88b" fill-rule="evenodd" stroke="none" d="M 22.190002 25.585052 C 21.87738 25.585052 21.564697 25.686188 21.261292 25.888489 L 21.114197 26.026398 C 21.114197 26.081543 21.068176 26.081543 21.013 26.127533 C 19.845276 26.909088 18.76947 27.543518 17.70282 28.030853 C 16.571838 28.518188 15.450012 28.858398 14.429382 29.051453 C 13.528259 29.21698 12.691528 29.281342 11.909973 29.281342 C 8.949158 29.281342 6.972229 28.325073 6.622803 28.131989 L 6.622803 28.131989 C -3.914673 44.664154 8.140015 60.46991 8.140015 60.46991 C 4.425232 60.46991 0.2323 62.520355 0.2323 62.520355 C 5.896423 62.91571 15.992554 70.961121 15.992554 70.961121 C 13.500671 71.062286 10.57666 72.864441 10.57666 72.864441 C 17.408569 74.234467 23.743958 76.330872 28.580505 78.087067 C 33.996399 80.082336 37.554871 81.746582 37.554871 81.746582 C 37.453735 81.498322 36.387085 73.452911 34.428528 63.30191 C 34.143494 61.499756 33.748108 59.596436 33.407898 57.647156 C 33.306763 57.352905 33.260803 56.95752 33.214783 56.61731 C 33.159607 56.424255 33.159607 56.23114 33.067688 56.084045 C 32.727478 54.0336 32.286133 52.029144 31.844727 50.033875 C 31.697632 49.151184 31.504517 48.378845 31.311462 47.542114 C 31.265442 47.348999 31.265442 47.201904 31.210266 47.05481 C 31.063171 46.3284 30.870056 45.592834 30.722961 44.857239 L 30.336792 43.202209 C 29.509216 39.643799 28.580505 36.425659 27.605835 33.685608 C 27.605835 33.639648 27.550659 33.547699 27.550659 33.492523 C 27.063354 32.177673 26.575989 30.908813 26.088684 29.833008 C 24.792175 27.203308 23.468079 25.585052 22.190002 25.585052 Z"/>
    <path id="Path-copy-20" fill="#f0c88b" fill-rule="evenodd" stroke="none" d="M 49.259644 17.493805 L 49.259644 17.539795 L 49.259644 17.539795 L 49.259644 17.493805 Z M 48.045898 17.539795 C 44.726501 17.594971 41.50824 17.98114 38.381897 18.61557 C 37.453247 18.808655 36.625671 19.00177 35.752136 19.25 C 35.40271 19.351135 35.117676 19.443115 34.72229 19.54425 C 34.38208 19.691345 33.995911 19.737335 33.70166 19.83847 C 33.214355 19.985596 32.72699 20.17868 32.239685 20.325806 C 31.945435 20.4729 31.697144 20.51886 31.458069 20.666016 C 31.016724 20.81311 30.630554 20.960236 30.235168 21.15332 C 29.554688 21.392395 28.920227 21.686615 28.285828 21.980835 C 28.138672 22.026825 27.945557 22.12796 27.844421 22.17395 C 25.499695 23.249725 23.311279 24.619751 21.306763 26.081726 L 21.214844 26.173645 C 21.214844 26.27478 21.113708 26.27478 21.067688 26.32077 C 19.991882 27.157471 18.870117 28.076965 17.840271 29.051605 C 17.113831 29.741211 16.433411 30.46759 15.743774 31.203186 C 15.504761 31.442261 15.357605 31.736481 15.109375 31.984741 C 15.017395 32.131836 14.91626 32.177826 14.8703 32.278961 C 14.281799 32.959381 13.748474 33.68576 13.261169 34.421326 C 12.819763 35.101746 12.332458 35.837341 11.992249 36.572937 C 11.357788 37.593536 10.870422 38.614136 10.475037 39.735901 C 9.307312 42.715027 8.626831 45.887207 8.626831 49.206482 C 8.626831 55.937073 9.546387 64.957092 15.992065 69.205078 C 17.352905 70.032593 18.575867 70.961304 19.743652 71.889954 C 19.844788 71.981903 19.991882 72.037048 19.991882 72.037048 C 21.113708 72.965759 24.433105 74.620789 28.037537 76.422974 C 31.550049 78.234314 35.264832 80.183624 37.453247 81.792694 C 37.701477 81.939819 37.894592 82.132904 38.087708 82.234039 C 38.777283 82.767334 39.411743 83.355804 40.138184 83.741974 C 42.436951 85.203949 44.965576 86.04068 48.284973 86.04068 L 48.873413 86.04068 L 48.919434 75.448303 L 48.919434 74.960999 L 49.020569 69.057983 L 49.020569 66.032898 L 49.020569 65.839813 L 49.066528 60.322937 L 49.066528 53.840637 L 49.167664 34.669617 L 49.167664 34.614441 L 49.259644 17.539795 Z"/>
    <path id="Path-copy-19" fill="#f0c88b" fill-rule="evenodd" stroke="none" d="M 75.068054 25.741333 C 67.45459 25.741333 59.896301 81.746582 59.896301 81.746582 C 59.896301 81.746582 72.438293 75.889526 86.828491 72.910431 C 86.828491 72.910431 83.895264 71.108276 81.357483 71.007111 C 81.357483 71.007111 91.508728 62.9617 97.172852 62.621521 C 97.172852 62.621521 92.970764 60.525085 89.265137 60.525085 C 89.265137 60.525085 101.319824 44.719299 90.727173 28.223938 L 90.727173 28.223938 C 90.727173 28.223938 88.649109 29.410065 85.403259 29.410065 C 82.874634 29.410065 79.647156 28.692871 76.14386 26.127533 C 75.785278 25.870087 75.426697 25.741333 75.068054 25.741333 Z"/>
    <path id="Path-copy-18" fill="#f0c88b" fill-rule="evenodd" stroke="none" d="M 48.283447 17.493805 L 48.338623 32.223816 L 48.430542 60.276978 L 48.430542 65.104248 L 48.430542 68.763733 L 48.531677 76.377014 L 48.577698 85.939545 L 49.166138 85.939545 C 52.531555 85.939545 55.161316 85.056824 57.460083 83.548889 C 58.140503 83.153534 58.728943 82.666199 59.363403 82.178894 C 59.556519 82.031769 59.795593 81.939819 59.942688 81.746735 C 62.287415 79.99054 66.480347 77.838959 70.24115 75.935638 C 73.459412 74.326569 76.383423 72.864594 77.459229 71.981903 C 77.459229 71.981903 77.606323 71.935913 77.707458 71.788818 C 78.875244 70.915314 80.098206 69.986633 81.459045 69.103943 C 87.849548 64.911133 88.82428 55.891083 88.82428 49.105347 C 88.82428 45.841248 88.189819 42.669037 87.169128 39.542816 C 86.727783 38.467041 86.240479 37.400452 85.651978 36.370636 C 85.265808 35.644226 84.870422 34.908661 84.383057 34.228271 C 83.950867 33.68576 83.509521 33.106506 83.068176 32.518036 C 82.829102 32.278961 82.682007 32.030701 82.488892 31.791626 C 82.240601 31.543396 82.047546 31.295135 81.799255 31.056061 C 81.26593 30.46759 80.732666 29.83316 80.098206 29.299866 C 78.921204 28.132141 77.652283 27.056335 76.337402 26.081726 L 76.236267 26.081726 C 74.240967 24.619751 71.997375 23.249725 69.606689 22.12796 C 69.505554 22.026825 69.312439 21.980835 69.165283 21.934875 C 68.576843 21.640625 67.896423 21.346405 67.215942 21.052185 C 66.875732 20.90506 66.434387 20.757935 65.993042 20.56485 C 65.698792 20.4729 65.459717 20.417725 65.211426 20.27063 C 64.724121 20.077515 64.236755 19.985596 63.749451 19.783325 C 63.409241 19.691345 63.069031 19.59021 62.728821 19.49826 L 61.993225 19.295959 C 61.11969 19.056915 60.236938 18.808655 59.363403 18.61557 C 56.191162 17.98114 52.825745 17.539795 49.359253 17.493805 Z"/>
    <path id="Path-copy-17" fill="#0d0c0b" fill-rule="evenodd" stroke="none" d="M 63.749146 43.201874 C 59.749329 43.201874 56.429932 46.521179 56.429932 50.520874 C 56.429932 52.175964 56.282776 54.86084 57.165527 56.08374 C 58.370056 57.793945 61.01825 57.839905 63.372131 57.839905 C 63.500854 57.839905 63.629578 57.839905 63.749146 57.839905 C 67.794922 57.839905 71.068359 54.566589 71.068359 50.566864 C 71.068359 48.764709 71.114319 46.180969 70.047729 44.912109 C 68.677673 43.247864 65.992737 43.201874 63.749146 43.201874 Z"/>
    <path id="Path-copy-16" fill="#9bd994" fill-rule="evenodd" stroke="none" d="M 63.749084 44.231689 C 60.282593 44.231689 57.459717 47.054443 57.459717 50.520874 C 57.459717 53.987305 60.282593 56.810089 63.749084 56.810089 C 67.215637 56.810089 70.047668 53.987305 70.047668 50.520874 C 70.047668 47.054443 67.215637 44.231689 63.749084 44.231689 Z"/>
    <path id="Path-copy-15" fill="#0d0c0b" fill-rule="evenodd" stroke="none" d="M 59.749451 44.424744 C 53.211792 49.739319 53.745056 58.62146 53.653137 60.52478 C 53.570374 61.628113 54.112915 61.858002 54.581848 61.858002 C 54.912842 61.858002 55.216309 61.738464 55.216309 61.738464 C 54.968018 48.893402 59.694275 44.912079 59.749451 44.912079 C 59.749451 44.912079 59.749451 44.912079 59.749451 44.912079 L 59.749451 44.424744 Z"/>
    <path id="Path-copy-14" fill="#0d0c0b" fill-rule="evenodd" stroke="none" d="M 63.749023 44.231689 C 63.749023 44.231689 60.135376 47.054443 60.135376 50.520874 C 60.135376 53.987305 63.555908 56.810089 63.749023 56.810089 C 63.942078 56.810089 67.36261 53.987305 67.36261 50.520874 C 67.36261 47.054443 63.997253 44.571869 63.749023 44.231689 Z"/>
    <path id="Path-copy-13" fill="#ffffff" fill-rule="evenodd" stroke="none" d="M 65.698181 47.596863 C 65.017761 47.596863 64.42926 48.130188 64.42926 48.865784 C 64.42926 49.546173 64.971741 50.180603 65.698181 50.180603 C 66.387817 50.180603 66.967102 49.592163 66.967102 48.865784 C 66.967102 48.130188 66.433777 47.596863 65.698181 47.596863 Z"/>
    <path id="Path-copy-12" fill="#ffffff" fill-rule="evenodd" stroke="none" d="M 61.358276 50.474792 C 60.769775 50.474792 60.337646 50.906952 60.337646 51.495422 C 60.337646 52.129852 60.769775 52.516022 61.358276 52.516022 C 61.992737 52.516022 62.434082 52.028687 62.434082 51.495422 C 62.434082 50.962097 61.992737 50.474792 61.358276 50.474792 Z"/>
    <path id="Path-copy-11" fill="#0d0c0b" fill-rule="evenodd" stroke="none" d="M 33.995239 43.201874 C 31.751648 43.201874 29.066711 43.247864 27.696655 44.912109 C 26.620789 46.180969 26.675964 48.764709 26.675964 50.566864 C 26.675964 54.566589 29.995361 57.839905 33.995239 57.839905 C 34.114746 57.839905 34.243469 57.839905 34.372192 57.839905 C 36.726135 57.839905 39.374268 57.793945 40.578857 56.08374 C 41.452393 54.86084 41.305237 52.175964 41.305237 50.520874 C 41.305237 46.521179 38.041016 43.201874 33.995239 43.201874 Z"/>
    <path id="Path-copy-10" fill="#9bd994" fill-rule="evenodd" stroke="none" d="M 33.995178 44.231689 C 30.528625 44.231689 27.696594 47.054443 27.696594 50.520874 C 27.696594 53.987305 30.528625 56.810089 33.995178 56.810089 C 37.452515 56.810089 40.284546 53.987305 40.284546 50.520874 C 40.284546 47.054443 37.452515 44.231689 33.995178 44.231689 Z"/>
    <path id="Path-copy-9" fill="#0d0c0b" fill-rule="evenodd" stroke="none" d="M 38.086548 44.424744 L 38.086548 44.912079 L 38.086548 44.912079 C 38.086548 44.912079 38.086548 44.912079 38.086548 44.912079 L 38.086548 44.912079 C 38.086548 44.912079 38.086548 44.912079 38.086548 44.912079 L 38.086548 44.912079 L 38.086548 44.912079 C 38.141724 44.939667 42.766846 48.948578 42.57373 61.738464 C 42.57373 61.738464 42.877136 61.858002 43.217346 61.858002 C 43.68634 61.858002 44.247192 61.628113 44.192017 60.52478 C 44.044922 58.62146 44.624207 49.739319 38.086548 44.424744 Z"/>
    <path id="Path-copy-8" fill="#0d0c0b" fill-rule="evenodd" stroke="none" d="M 33.995056 44.231689 C 33.792786 44.571869 30.381409 47.054443 30.381409 50.520874 C 30.381409 53.987305 33.792786 56.810089 33.995056 56.810089 C 34.188171 56.810089 37.599487 53.987305 37.599487 50.520874 C 37.599487 47.054443 33.995056 44.231689 33.995056 44.231689 Z"/>
    <path id="Path-copy-7" fill="#ffffff" fill-rule="evenodd" stroke="none" d="M 32.036499 47.596863 C 31.31012 47.596863 30.767578 48.130188 30.767578 48.865784 C 30.767578 49.592163 31.356079 50.180603 32.036499 50.180603 C 32.772095 50.180603 33.30542 49.546173 33.30542 48.865784 C 33.30542 48.130188 32.726135 47.596863 32.036499 47.596863 Z"/>
    <path id="Path-copy-6" fill="#ffffff" fill-rule="evenodd" stroke="none" d="M 36.385559 50.474792 C 35.843079 50.520752 35.355713 50.962097 35.355713 51.495422 C 35.355713 52.028687 35.751099 52.516022 36.385559 52.516022 C 36.918884 52.516022 37.40625 52.129852 37.40625 51.495422 C 37.40625 50.906952 36.964844 50.474792 36.385559 50.474792 Z"/>
    <path id="Path-copy-5" fill="#ffffff" fill-rule="evenodd" stroke="none" d="M 59.115173 62.666809 C 57.211792 62.666809 55.455505 62.767944 53.947571 63.108154 L 53.800415 63.108154 C 53.607361 63.108154 53.460205 63.154114 53.257935 63.200104 C 53.257935 63.25528 53.211975 63.25528 53.165955 63.25528 C 52.33844 63.448364 51.602844 63.742615 51.014343 64.128784 C 50.039673 64.671265 49.313232 65.397644 48.724792 66.372314 L 48.724792 74.325745 C 50.379883 78.867981 54.434875 83.207886 58.728943 83.934265 C 59.161133 83.989441 59.556519 84.08139 59.942688 84.08139 C 66.186096 84.08139 70.333069 80.035706 70.333069 73.884399 C 70.333069 72.964935 70.241089 72.128204 70.048035 71.30069 C 68.871033 66.372314 64.429871 62.666809 59.115173 62.666809 Z"/>
    <path id="Path-copy-4" fill="#ffffff" fill-rule="evenodd" stroke="none" d="M 38.969666 62.519714 C 37.406494 62.519714 35.944519 62.91507 34.629639 63.448364 C 31.356201 64.86438 28.873535 67.74231 28.09198 71.2547 C 27.889709 72.128235 27.797729 72.964935 27.797729 73.83844 C 27.797729 74.72113 27.843689 75.594635 28.036804 76.37619 C 28.137939 77.01062 28.331055 77.599091 28.579285 78.132385 C 30.041321 81.893036 33.507813 84.08139 38.142151 84.08139 C 38.57428 84.08139 38.923706 83.989441 39.355835 83.934265 C 39.604126 83.888306 39.898376 83.842316 40.137451 83.74118 C 43.502808 82.867676 46.629089 79.842621 48.431335 76.37619 C 48.624451 76.08197 48.826721 75.69577 48.918701 75.40155 C 49.019836 75.355591 49.019836 75.208435 49.065796 75.15329 C 49.258911 74.868256 49.314087 74.619995 49.406006 74.325745 L 49.406006 66.372314 C 49.314087 66.179199 49.166931 66.032104 49.111755 65.691895 L 49.065796 65.645935 C 48.872681 65.397644 48.624451 65.1586 48.431335 64.956299 C 47.98999 64.616089 47.60376 64.321869 47.116455 63.981659 C 46.481995 63.641479 45.746399 63.347229 44.964844 63.154144 C 44.964844 63.108154 44.918823 63.108154 44.817688 63.108154 C 44.679749 63.007019 44.477478 63.007019 44.284363 62.96106 L 44.192444 62.96106 C 43.557983 62.859924 42.969482 62.712769 42.289063 62.666809 C 41.259216 62.62085 40.137451 62.519714 38.969666 62.519714 Z"/>
    <path id="Path-copy-3" fill="#e79d49" fill-rule="evenodd" stroke="none" d="M 49.259705 17.493805 L 49.259705 17.539795 L 49.259705 17.539795 L 49.259705 17.493805 Z M 48.137878 17.539795 C 44.873657 17.594971 41.60022 17.98114 38.529114 18.61557 C 37.600403 18.808655 36.726868 19.00177 35.899353 19.25 C 35.503967 19.351135 35.209717 19.397125 34.869507 19.54425 C 34.483337 19.691345 34.143066 19.737335 33.793701 19.83847 C 33.306335 19.985596 32.819031 20.123505 32.331665 20.325806 C 32.037415 20.4729 31.79834 20.51886 31.55011 20.620026 C 31.11792 20.81311 30.768494 20.960236 30.336365 21.107361 C 29.646729 21.346405 29.067444 21.686615 28.377808 21.980835 C 28.285889 22.026825 28.092773 22.12796 27.945679 22.17395 C 25.646912 23.249725 23.458496 24.619751 21.453979 26.081726 L 21.306824 26.173645 C 21.306824 26.27478 21.260864 26.27478 21.214905 26.32077 C 20.037964 27.102325 18.916138 27.736755 17.895508 28.224091 C 16.718567 28.665436 15.651917 29.051605 14.62207 29.253906 C 13.730164 29.410217 12.884216 29.474548 12.102661 29.474548 C 9.123474 29.474548 7.128174 28.518311 6.815491 28.325226 L 6.815491 28.325226 C 8.911987 30.081421 11.744019 30.862976 14.769226 31.102051 C 15.164612 31.102051 15.504822 31.203186 15.890991 31.203186 C 16.258789 31.230774 16.626587 31.23996 16.994385 31.23996 C 17.353027 31.23996 17.720825 31.230774 18.088623 31.203186 C 20.77356 31.056061 23.550415 30.669891 26.235352 30.081421 C 29.55481 29.492981 32.727051 28.619446 35.402832 28.031006 L 35.503967 28.031006 C 37.554443 27.589661 39.264709 27.203461 40.57959 27.157471 C 40.745117 27.139099 40.910645 27.139099 41.066956 27.139099 C 45.048401 27.139099 47.209229 29.980286 48.34021 32.278961 C 48.68042 33.106506 49.02063 33.888062 49.112549 34.375366 C 49.112549 34.467316 49.167725 34.614441 49.167725 34.669617 L 49.167725 34.614441 L 49.259705 17.539795 Z"/>
    <path id="Path-copy-2" fill="#e79d49" fill-rule="evenodd" stroke="none" d="M 49.110962 17.493805 L 49.166138 34.669617 C 49.589111 33.14328 51.602783 27.09314 57.432434 27.09314 C 57.570374 27.09314 57.708313 27.09314 57.846191 27.102325 C 60.917358 27.29541 66.388367 28.959656 72.14447 30.081421 C 75.371887 30.706665 78.654541 31.212372 81.734863 31.212372 C 82.001526 31.212372 82.268188 31.212372 82.534851 31.203186 C 86.001343 31.056061 88.392029 30.274506 90.77356 28.279236 L 90.77356 28.279236 C 90.534485 28.407959 88.704712 29.364227 85.890991 29.364227 C 83.546265 29.364227 80.521118 28.702209 77.164917 26.32077 C 77.118958 26.27478 77.017822 26.27478 77.017822 26.173645 C 75.022522 24.66571 72.778931 23.350861 70.388245 22.17395 C 70.287048 22.12796 70.093994 22.026825 69.992859 21.980835 C 69.312378 21.686615 68.677917 21.392395 68.043518 21.15332 C 67.602112 20.960236 67.215942 20.81311 66.820557 20.666016 C 66.581482 20.51886 66.333191 20.4729 65.992981 20.325806 C 65.505676 20.17868 65.018311 19.985596 64.531006 19.83847 C 64.236755 19.737335 63.896545 19.691345 63.510376 19.54425 C 59.013977 18.128235 54.186584 17.493805 49.110962 17.493805 Z"/>
    <path id="Path-copy" fill="#0d0c0b" fill-rule="evenodd" stroke="none" d="M 45.166565 60.276215 C 44.771179 60.276215 44.476929 60.322205 44.191895 60.469299 C 43.842468 60.570435 43.603394 60.71759 43.355164 60.809509 C 43.116089 61.01178 42.867798 61.204895 42.720703 61.44397 C 42.573547 61.545105 42.527588 61.6922 42.481628 61.885315 C 42.141418 62.473755 42.233337 63.154175 43.014954 63.59552 C 43.014954 63.59552 43.060913 63.59552 43.060913 63.641479 C 43.263184 63.742645 43.502258 63.788635 43.796509 63.889771 C 43.943604 63.889771 43.989624 63.93573 44.090759 63.93573 C 44.964294 64.128815 45.994141 64.377075 46.481445 65.011536 C 46.62854 65.15863 46.674561 65.351746 46.72052 65.49884 C 47.207825 67.696381 48.090576 68.569885 48.679077 68.818146 C 48.826172 68.864136 48.918152 68.864136 48.964111 68.910095 L 49.212341 68.910095 C 49.359497 68.910095 49.405457 68.864136 49.552612 68.818146 C 50.141052 68.523926 51.014587 67.641235 51.501953 65.49884 C 51.557068 65.351746 51.603088 65.15863 51.750183 65.011536 C 52.237549 64.377075 53.212219 64.18399 54.09491 63.93573 C 54.242065 63.93573 54.288025 63.889771 54.43512 63.889771 C 54.674194 63.834595 54.922485 63.742645 55.16156 63.641479 C 55.16156 63.641479 55.216736 63.641479 55.216736 63.59552 C 55.897156 63.154175 55.998291 62.473755 55.704041 61.885315 C 55.648865 61.73819 55.602905 61.545105 55.455811 61.44397 C 55.262695 61.204895 55.11554 61.01178 54.77533 60.809509 C 54.5271 60.6716 54.288025 60.524475 53.993774 60.469299 C 53.699524 60.322205 53.313354 60.276215 53.019104 60.276215 Z"/>
</svg>
