<?xml version="1.0" encoding="UTF-8"?>
<!-- Generated by Pixelmator Pro 3.4.1 -->
<svg width="94" height="86" viewBox="0 0 94 86" xmlns="http://www.w3.org/2000/svg">
    <path id="Path-copy-17" fill="#807778" fill-rule="evenodd" stroke="none" d="M 20.736938 0.99765 C 20.725342 0.99765 20.713806 0.99765 20.708008 0.99765 C 15.792053 0.99765 11.796753 15.159424 11.796753 25.019379 C 11.796753 34.850403 15.792053 42.840271 20.708008 42.840271 C 25.618164 42.840271 29.613464 34.914093 29.613464 25.019379 C 29.613464 15.182556 25.635559 0.99765 20.736938 0.99765 Z"/>
    <path id="Path-copy-16" fill="#ecc0cf" fill-rule="evenodd" stroke="none" d="M 20.707764 7.760315 C 18.982239 11.199432 17.083069 18.477173 17.083069 25.019592 C 17.083069 32.303101 19.509155 36.63385 20.707764 37.461792 C 21.906372 36.63385 24.297729 32.303101 24.297729 25.019592 C 24.297729 18.477173 22.42749 11.199432 20.707764 7.760315 Z"/>
    <path id="Path-copy-15" fill="#807778" fill-rule="evenodd" stroke="none" d="M 72.992004 0.99765 C 72.980469 0.99765 72.968872 0.99765 72.963074 0.99765 C 68.047119 0.99765 64.051819 15.159424 64.051819 25.019379 C 64.051819 34.850403 68.047119 42.840271 72.963074 42.840271 C 77.879028 42.840271 81.86853 34.914093 81.86853 25.019379 C 81.86853 15.182556 77.890625 0.99765 72.992004 0.99765 Z"/>
    <path id="Path-copy-14" fill="#ecc0cf" fill-rule="evenodd" stroke="none" d="M 72.96283 7.760315 C 71.272095 11.199432 69.367065 18.477173 69.367065 25.019592 C 69.367065 32.303101 71.764282 36.63385 72.96283 37.461792 C 74.161438 36.63385 76.587585 32.303101 76.587585 25.019592 C 76.587585 18.477173 74.682556 11.199432 72.96283 7.760315 Z"/>
    <path id="Path-copy-13" fill="#807778" fill-rule="evenodd" stroke="none" d="M 46.851624 10.921631 C 21.322266 10.921631 0.61615 32.82428 0.61615 47.721375 C 0.61615 62.624207 21.322266 85.597992 46.851624 85.597992 C 72.381042 85.597992 93.087097 62.624207 93.087097 47.721375 C 93.087097 32.795349 72.381042 10.921631 46.851624 10.921631 Z"/>
    <path id="Path-copy-12" fill="#434244" fill-rule="evenodd" stroke="none" d="M 46.791931 42.870544 C 46.624023 42.870544 46.461914 42.934235 46.357666 43.055817 L 42.240784 47.143402 C 42.02655 47.386566 42.02655 47.815002 42.240784 48.029236 C 42.362366 48.156616 42.518677 48.214508 42.66925 48.214508 C 42.825562 48.214508 42.976135 48.185547 43.161438 48.029236 L 46.815063 44.375885 L 50.474548 48.029236 C 50.578796 48.156616 50.740906 48.214508 50.903015 48.214508 C 51.065186 48.214508 51.227295 48.156616 51.331543 48.029236 C 51.580505 47.786072 51.580505 47.386566 51.331543 47.143402 L 47.24939 43.055817 C 47.122009 42.934235 46.954041 42.870544 46.791931 42.870544 Z"/>
    <path id="Path-copy-11" fill="#434244" fill-rule="evenodd" stroke="none" d="M 46.78595 39.274994 C 46.415405 39.274994 46.17218 39.552917 46.17218 39.888702 L 46.17218 43.605743 C 46.17218 43.976288 46.415405 44.219452 46.78595 44.219452 C 47.121826 44.219452 47.399719 43.947327 47.399719 43.605743 L 47.399719 39.888702 C 47.399719 39.552917 47.121826 39.274994 46.78595 39.274994 Z"/>
    <path id="Path-copy-10" fill="#b4949e" fill-rule="evenodd" stroke="none" d="M 43.43927 36.698486 L 46.786072 40.073914 L 50.103943 36.698486 Z"/>
    <path id="Path-copy-9" fill="#b4949e" fill-rule="evenodd" stroke="none" d="M 49.090637 37.155853 L 46.786072 39.460175 L 44.481567 37.155853 Z M 43.439331 36.327911 C 43.282959 36.327911 43.132446 36.449493 43.039795 36.605835 C 42.976074 36.727417 43.010803 36.94162 43.132446 37.034241 L 46.479187 40.380737 C 46.542908 40.473389 46.66449 40.502319 46.786072 40.502319 C 46.878723 40.502319 47.000366 40.473389 47.121948 40.380737 L 50.474487 37.034241 C 50.567139 36.94162 50.625061 36.756348 50.53241 36.605835 C 50.503479 36.449493 50.352905 36.327911 50.167603 36.327911 Z"/>
    <path id="Path-copy-8" fill="#434244" fill-rule="evenodd" stroke="none" d="M 69.511902 31.904388 C 69.494507 31.904388 69.477173 31.904388 69.459778 31.904388 C 68.539124 31.904388 67.832703 32.639709 67.832703 33.560242 C 67.832703 34.486633 68.539124 35.221924 69.459778 35.221924 C 70.380432 35.221924 71.115845 34.486633 71.115845 33.560242 C 71.115845 32.657043 70.409424 31.904388 69.511902 31.904388 Z"/>
    <path id="Path-copy-7" fill="#434244" fill-rule="evenodd" stroke="none" d="M 26.816162 31.869629 C 26.798828 31.869629 26.775635 31.869629 26.75824 31.875427 C 25.837585 31.93335 25.131226 32.703369 25.189087 33.623962 C 25.218079 34.480835 25.95343 35.164032 26.804565 35.164032 C 26.839355 35.164032 26.874084 35.164032 26.908813 35.158234 C 27.835266 35.129272 28.541687 34.359253 28.477966 33.43866 C 28.449036 32.535461 27.684692 31.869629 26.816162 31.869629 Z"/>
    <path id="Path-copy-6" fill="#434244" fill-rule="evenodd" stroke="none" d="M 49.026672 41.521484 C 48.87616 41.521484 48.783508 41.608337 48.783508 41.764648 C 48.783508 41.92099 48.87616 42.042572 49.026672 42.042572 C 49.183044 42.042572 49.304626 41.92099 49.304626 41.764648 C 49.304626 41.608337 49.183044 41.521484 49.026672 41.521484 Z"/>
    <path id="Path-copy-5" fill="#434244" fill-rule="evenodd" stroke="none" d="M 50.659485 43.513245 C 50.503174 43.513245 50.381531 43.605865 50.381531 43.762207 C 50.381531 43.91272 50.503174 44.0401 50.659485 44.0401 C 50.810059 44.0401 50.931641 43.91272 50.931641 43.762207 C 50.931641 43.605865 50.810059 43.513245 50.659485 43.513245 Z"/>
    <path id="Path-copy-4" fill="#434244" fill-rule="evenodd" stroke="none" d="M 51.458496 40.751434 C 51.302185 40.751434 51.180603 40.844055 51.180603 40.994598 C 51.180603 41.15094 51.302185 41.272522 51.458496 41.272522 C 51.60907 41.272522 51.730652 41.15094 51.730652 40.994598 C 51.730652 40.844055 51.60907 40.751434 51.458496 40.751434 Z"/>
    <path id="Path-copy-3" fill="#434244" fill-rule="evenodd" stroke="none" d="M 42.333435 40.230347 C 42.148132 40.230347 42.055481 40.351929 42.055481 40.502441 C 42.055481 40.658783 42.177063 40.780365 42.333435 40.780365 C 42.483948 40.780365 42.576599 40.658783 42.576599 40.502441 C 42.576599 40.351929 42.483948 40.230347 42.333435 40.230347 Z"/>
    <path id="Path-copy-2" fill="#434244" fill-rule="evenodd" stroke="none" d="M 44.267273 42.042603 C 44.11676 42.042603 43.989319 42.164185 43.989319 42.320496 C 43.989319 42.471008 44.11676 42.592621 44.267273 42.592621 C 44.423645 42.592621 44.545227 42.471008 44.545227 42.320496 C 44.545227 42.164185 44.423645 42.042603 44.267273 42.042603 Z"/>
    <path id="Path-copy" fill="#434244" fill-rule="evenodd" stroke="none" d="M 42.211792 43.576904 C 42.055481 43.576904 41.933899 43.698486 41.933899 43.854828 C 41.933899 44.005371 42.055481 44.132751 42.211792 44.132751 C 42.362366 44.132751 42.483948 44.005371 42.483948 43.854828 C 42.483948 43.698486 42.362366 43.576904 42.211792 43.576904 Z"/>
</svg>
