<?xml version="1.0" encoding="UTF-8"?>
<!-- Generated by Pixelmator Pro 3.4.1 -->
<svg width="61" height="42" viewBox="0 0 61 42" xmlns="http://www.w3.org/2000/svg">
    <path id="Path-copy-31" fill="#857882" fill-rule="evenodd" stroke="none" d="M 51.402588 1.539215 C 50.165222 1.539215 45.210449 4.071411 41.701904 5.961456 C 39.623901 7.073547 38.073242 7.955902 38.073242 7.955902 C 41.811523 14.022766 50.650757 17.374695 51.564453 17.734955 C 51.621887 17.766296 51.64801 17.766296 51.64801 17.766296 C 51.64801 17.766296 57.161438 11.918701 51.674133 1.643616 C 51.637573 1.570557 51.543579 1.539215 51.402588 1.539215 Z"/>
    <path id="Path-copy-30" fill="#ebb1b0" fill-rule="evenodd" stroke="none" d="M 50.233093 4.285492 C 48.739868 4.285492 39.817078 9.313385 39.817078 9.313385 C 42.923584 14.2995 50.431519 16.96225 50.431519 16.96225 C 50.431519 16.96225 54.723206 12.38858 50.431519 4.358582 C 50.400146 4.306396 50.332275 4.285492 50.233093 4.285492 Z"/>
    <path id="Path-copy-29" fill="#857882" fill-rule="evenodd" stroke="none" d="M 8.182678 1.539215 C 8.041687 1.539215 7.947693 1.570557 7.905945 1.643616 C 2.423828 11.918701 7.905945 17.766296 7.905945 17.766296 C 7.905945 17.766296 17.549255 14.383026 21.538147 7.955902 C 21.538147 7.955902 10.171875 1.539215 8.182678 1.539215 Z"/>
    <path id="Path-copy-28" fill="#ebb1b0" fill-rule="evenodd" stroke="none" d="M 9.320862 4.285492 C 9.221619 4.285492 9.153748 4.306396 9.127686 4.358582 C 4.83075 12.38858 9.127686 16.96225 9.127686 16.96225 C 9.127686 16.96225 16.687744 14.2995 19.762939 9.313385 C 19.762939 9.313385 10.819275 4.285492 9.320862 4.285492 Z"/>
    <path id="Path-copy-27" fill="#dfdfdf" fill-rule="evenodd" stroke="none" d="M 29.761292 2.499878 C 26.524231 2.499878 23.417725 3.194275 20.650574 4.43689 C 19.679443 4.880676 18.765747 5.381897 17.852051 5.935364 C 17.188965 6.295593 16.578125 6.765503 15.941162 7.20929 C 12.698853 9.621429 10.124878 12.806274 8.574219 16.184296 C 8.323608 16.685516 8.099121 17.238953 7.905945 17.766296 C 7.268982 19.593658 6.908691 21.478455 6.908691 23.305847 C 6.908691 26.297516 7.879822 29.095978 9.5401 31.586426 C 9.848145 32.056335 10.208435 32.531464 10.594788 32.970032 C 12.42218 35.215088 14.917847 37.099884 17.794617 38.483459 C 18.212341 38.707977 18.68219 38.927246 19.125977 39.09433 C 19.376587 39.203979 19.595886 39.261414 19.820374 39.371033 C 20.426025 39.621643 21.036926 39.81485 21.673889 40.008026 C 24.195679 40.728516 26.936707 41.14621 29.761292 41.14621 C 32.617249 41.14621 35.332153 40.728516 37.880066 40.008026 C 38.490906 39.788727 39.070435 39.590332 39.681335 39.371033 C 39.900635 39.261414 40.177307 39.177856 40.427917 39.068237 L 41.7854 38.431244 C 44.609985 37.04245 47.048279 35.215088 48.87561 33.027466 C 49.293335 32.531464 49.679688 32.030243 50.013794 31.502899 C 51.64801 29.064667 52.587769 26.297516 52.587769 23.305847 C 52.587769 21.478455 52.227539 19.562317 51.621887 17.734955 C 51.3974 17.207642 51.204224 16.737732 50.984924 16.24173 C 49.434265 12.85849 46.881165 9.704956 43.612793 7.235413 C 43.007141 6.791626 42.370178 6.37915 41.701904 5.961487 C 40.81427 5.381927 39.848389 4.880707 38.851196 4.43692 C 36.078796 3.220398 32.977478 2.499908 29.761292 2.499908 Z"/>
    <path id="Path-copy-26" fill="#857882" fill-rule="evenodd" stroke="none" d="M 29.761292 2.499878 C 26.49292 2.499878 23.417725 3.194275 20.650574 4.43689 C 26.827087 9.563995 27.437927 21.671631 29.735229 21.781281 L 29.761292 21.781281 C 32.03772 21.723846 32.674683 9.563995 38.851196 4.43689 C 36.026611 3.220398 32.977478 2.499878 29.761292 2.499878 Z"/>
    <path id="Path-copy-25" fill="#d9f1fd" fill-rule="evenodd" stroke="none" d="M 39.368042 18.413696 C 37.733887 18.413696 36.256287 19.624969 35.943054 21.28006 C 35.551453 23.190979 36.825378 25.049683 38.741516 25.409912 C 38.971252 25.456909 39.200989 25.477783 39.425476 25.477783 C 41.070129 25.477783 42.526794 24.292603 42.86615 22.61142 C 43.200317 20.674408 41.952515 18.841827 40.041565 18.481567 C 39.817078 18.439789 39.59259 18.413696 39.368042 18.413696 Z"/>
    <path id="Path-copy-24" fill="#0d0c0b" fill-rule="evenodd" stroke="none" d="M 40.041565 18.455475 C 40.041565 18.455475 37.770447 19.645874 37.384033 21.53067 C 36.992493 23.441589 38.600586 25.352478 38.710205 25.38382 C 38.710205 25.38382 38.715454 25.38382 38.715454 25.38382 C 38.845947 25.38382 40.986572 24.198639 41.372925 22.308624 C 41.701904 20.397705 40.125122 18.679962 40.041565 18.455475 Z"/>
    <path id="Path-copy-23" fill="#ffffff" fill-rule="evenodd" stroke="none" d="M 40.610657 20.528229 C 40.245178 20.528229 39.947632 20.742279 39.874512 21.118195 C 39.817078 21.53067 40.041565 21.917023 40.454041 22.00058 C 40.495789 22.005798 40.532349 22.011017 40.568909 22.011017 C 40.939575 22.011017 41.268555 21.770844 41.341614 21.394928 C 41.399048 20.977234 41.148438 20.616974 40.735962 20.533447 C 40.688965 20.528229 40.647217 20.528229 40.610657 20.528229 Z"/>
    <path id="Path-copy-22" fill="#ffffff" fill-rule="evenodd" stroke="none" d="M 37.968811 21.687317 C 37.707764 21.687317 37.483276 21.875275 37.410156 22.167633 C 37.352722 22.475677 37.545898 22.752411 37.880066 22.830719 C 37.916626 22.841156 37.947937 22.841156 37.984497 22.841156 C 38.245544 22.841156 38.470032 22.658417 38.517029 22.360809 C 38.574463 22.057983 38.381287 21.755188 38.073242 21.697754 C 38.041931 21.692535 38.005371 21.687317 37.968811 21.687317 Z"/>
    <path id="Path-copy-21" fill="#857882" fill-rule="evenodd" stroke="none" d="M 40.145996 18.262299 C 39.462036 18.262299 38.715454 18.361481 37.906189 18.596436 C 33.395142 19.922577 31.813171 25.937256 31.870605 26.877045 L 32.643311 27.759399 L 32.643311 27.759399 C 32.591125 27.675873 32.053345 25.540436 34.225342 22.694977 C 35.138977 21.499359 37.044678 19.865143 39.352417 19.865143 C 40.469727 19.865143 41.680969 20.251495 42.923584 21.253967 L 45.001587 20.256744 C 45.001587 20.256744 43.247314 18.262299 40.145996 18.262299 Z M 32.643311 27.759399 C 32.643311 27.764618 32.643311 27.764618 32.643311 27.764618 L 32.643311 27.759399 Z"/>
    <path id="Path-copy-20" fill="#d9f1fd" fill-rule="evenodd" stroke="none" d="M 20.128418 18.413696 C 19.90918 18.413696 19.684631 18.439789 19.460144 18.481567 C 17.549255 18.841827 16.301392 20.674408 16.635559 22.61142 C 16.974915 24.292603 18.426392 25.477783 20.070984 25.477783 C 20.30072 25.477783 20.530457 25.456909 20.760193 25.409912 C 22.671082 25.049683 23.945068 23.190979 23.558655 21.28006 C 23.219299 19.624969 21.757385 18.413696 20.128418 18.413696 Z"/>
    <path id="Path-copy-19" fill="#0d0c0b" fill-rule="evenodd" stroke="none" d="M 19.460144 18.455475 C 19.376587 18.679962 17.794617 20.397705 18.128784 22.308624 C 18.515137 24.198639 20.655762 25.38382 20.786316 25.38382 C 20.786316 25.38382 20.786316 25.38382 20.786316 25.38382 C 20.901184 25.352478 22.504028 23.441589 22.117676 21.53067 C 21.731323 19.645874 19.460144 18.455475 19.460144 18.455475 Z"/>
    <path id="Path-copy-18" fill="#ffffff" fill-rule="evenodd" stroke="none" d="M 18.891052 20.528229 C 18.849304 20.528229 18.807495 20.528229 18.765747 20.533447 C 18.353271 20.616974 18.102661 20.977234 18.154907 21.394928 C 18.233215 21.770844 18.556885 22.011017 18.927612 22.011017 C 18.964172 22.011017 19.00592 22.005798 19.04248 22.00058 C 19.460144 21.917023 19.679443 21.53067 19.627197 21.118195 C 19.548889 20.742279 19.251282 20.528229 18.891052 20.528229 Z"/>
    <path id="Path-copy-17" fill="#ffffff" fill-rule="evenodd" stroke="none" d="M 21.52771 21.687317 C 21.496338 21.687317 21.459839 21.692535 21.423279 21.697754 C 21.146545 21.755188 20.927246 22.057983 20.953369 22.360809 C 21.026489 22.658417 21.256165 22.841156 21.517273 22.841156 C 21.548584 22.841156 21.585144 22.841156 21.621643 22.830719 C 21.9245 22.752411 22.143799 22.475677 22.060242 22.167633 C 22.013245 21.875275 21.788757 21.687317 21.52771 21.687317 Z"/>
    <path id="Path-copy-16" fill="#857882" fill-rule="evenodd" stroke="none" d="M 19.355713 18.262299 C 16.249207 18.262299 14.500122 20.256744 14.500122 20.256744 L 16.578125 21.253967 C 17.815491 20.251495 19.026794 19.865143 20.149353 19.865143 C 22.457031 19.865143 24.362732 21.499359 25.276428 22.694977 C 27.448364 25.540436 26.905396 27.675873 26.858398 27.759399 L 26.858398 27.759399 L 27.631104 26.877045 C 27.688538 25.937256 26.106567 19.922577 21.590332 18.596436 C 20.786316 18.361481 20.034485 18.262299 19.355713 18.262299 Z M 26.858398 27.759399 L 26.853149 27.764618 C 26.853149 27.764618 26.858398 27.764618 26.858398 27.759399 Z"/>
    <path id="Path-copy-15" fill="#ffffff" fill-rule="evenodd" stroke="none" d="M 32.784302 27.179871 C 30.983032 27.179871 29.51593 27.514008 29.51593 29.315277 C 29.51593 31.142639 31.202332 33.413818 33.003601 33.413818 C 34.804871 33.413818 36.026611 32.249512 36.026611 30.453461 C 36.026611 28.62088 34.585571 27.179871 32.784302 27.179871 Z"/>
    <path id="Path-copy-14" fill="#ffffff" fill-rule="evenodd" stroke="none" d="M 26.717407 27.179871 C 24.916138 27.179871 23.475159 28.62088 23.475159 30.453461 C 23.475159 32.249512 24.665527 33.413818 26.466797 33.413818 C 28.268066 33.413818 29.98584 31.142639 29.98584 29.315277 C 29.98584 27.514008 28.518677 27.179871 26.717407 27.179871 Z"/>
    <path id="Path-copy-13" fill="#d27891" fill-rule="evenodd" stroke="none" d="M 28.3255 26.323608 C 27.547546 26.323608 26.884521 27.153748 27.573669 27.487915 C 27.965271 27.707184 28.764099 27.623657 28.878967 28.177094 C 29.098206 29.205627 29.568115 29.398804 29.735229 29.398804 C 29.902283 29.398804 30.346069 29.205627 30.59668 28.177094 C 30.732422 27.681091 31.510376 27.707184 31.870605 27.487915 C 32.559814 27.179871 31.922852 26.323608 31.150085 26.323608 Z"/>
    <path id="Path-copy-12" fill="#e7c7d4" fill-rule="evenodd" stroke="none" d="M 32.256958 29.205627 C 31.980286 29.205627 31.787109 29.372711 31.787109 29.618103 C 31.787109 29.84259 31.980286 30.035797 32.256958 30.035797 C 32.533691 30.035797 32.726868 29.84259 32.726868 29.618103 C 32.726868 29.372711 32.533691 29.205627 32.256958 29.205627 Z"/>
    <path id="Path-copy-11" fill="#e7c7d4" fill-rule="evenodd" stroke="none" d="M 33.781555 30.92337 C 33.504822 30.92337 33.311646 31.090454 33.311646 31.335815 C 33.311646 31.586426 33.504822 31.75351 33.781555 31.75351 C 34.058228 31.75351 34.277527 31.586426 34.277527 31.335815 C 34.277527 31.142639 34.032166 30.92337 33.781555 30.92337 Z"/>
    <path id="Path-copy-10" fill="#e7c7d4" fill-rule="evenodd" stroke="none" d="M 35.029358 29.205627 C 34.778748 29.205627 34.55426 29.372711 34.55426 29.618103 C 34.55426 29.84259 34.752625 30.035797 35.029358 30.035797 C 35.306091 30.035797 35.499268 29.84259 35.499268 29.618103 C 35.499268 29.372711 35.306091 29.205627 35.029358 29.205627 Z"/>
    <path id="Path-copy-9" fill="#c7bfc2" fill-rule="evenodd" stroke="none" d="M 51.131104 25.185425 C 44.615234 25.185425 37.947937 26.495911 32.340515 29.482361 C 32.17865 29.550232 32.283081 29.732971 32.403137 29.732971 C 32.42926 29.732971 32.455383 29.722534 32.476257 29.70163 C 38.062805 26.762177 44.656982 25.462128 51.099792 25.462128 C 53.637207 25.462128 56.153809 25.660522 58.571167 26.046906 C 58.581604 26.046906 58.586792 26.046906 58.597229 26.046906 C 58.748657 26.046906 58.816528 25.796295 58.654663 25.770172 C 56.22168 25.389038 53.689453 25.185425 51.131104 25.185425 Z"/>
    <path id="Path-copy-8" fill="#c7bfc2" fill-rule="evenodd" stroke="none" d="M 43.304749 28.281494 C 40.41748 28.281494 37.603333 28.631317 35.055481 29.534576 C 34.909302 29.607666 34.956238 29.826935 35.076355 29.826935 C 35.097229 29.826935 35.118103 29.826935 35.138977 29.816498 C 37.666016 28.892365 40.464478 28.542572 43.330872 28.542572 C 48.499695 28.542572 53.908752 29.685974 58.435364 30.698853 C 58.45105 30.704071 58.466736 30.70929 58.477173 30.70929 C 58.612915 30.70929 58.670349 30.474365 58.518921 30.453461 C 53.971375 29.419708 48.520569 28.281494 43.304749 28.281494 Z"/>
    <path id="Path-copy-7" fill="#c7bfc2" fill-rule="evenodd" stroke="none" d="M 35.59845 31.163544 C 34.982361 31.163544 34.366272 31.184418 33.750183 31.226196 C 33.588318 31.226196 33.588318 31.502899 33.750183 31.502899 C 34.361084 31.461121 34.977173 31.440247 35.588013 31.440247 C 42.704346 31.440247 50.060791 34.296173 56.054565 37.736847 C 56.075439 37.757751 56.101563 37.76297 56.122437 37.76297 C 56.232117 37.76297 56.305176 37.585449 56.190308 37.517578 C 50.123474 34.01947 42.76178 31.163544 35.59845 31.163544 Z"/>
    <path id="Path-copy-6" fill="#e7c7d4" fill-rule="evenodd" stroke="none" d="M 27.573669 29.205627 C 27.296936 29.205627 27.10376 29.372711 27.10376 29.618103 C 27.10376 29.84259 27.296936 30.035797 27.573669 30.035797 C 27.850403 30.035797 28.07489 29.84259 28.07489 29.618103 C 28.07489 29.372711 27.850403 29.205627 27.573669 29.205627 Z"/>
    <path id="Path-copy-5" fill="#e7c7d4" fill-rule="evenodd" stroke="none" d="M 26.054321 30.92337 C 25.803711 30.92337 25.579224 31.142639 25.579224 31.335815 C 25.579224 31.586426 25.7724 31.75351 26.054321 31.75351 C 26.331055 31.75351 26.550354 31.586426 26.550354 31.335815 C 26.550354 31.090454 26.331055 30.92337 26.054321 30.92337 Z"/>
    <path id="Path-copy-4" fill="#e7c7d4" fill-rule="evenodd" stroke="none" d="M 24.806519 29.205627 C 24.529785 29.205627 24.336609 29.372711 24.336609 29.618103 C 24.336609 29.84259 24.529785 30.035797 24.806519 30.035797 C 25.083252 30.035797 25.30249 29.84259 25.30249 29.618103 C 25.30249 29.372711 25.083252 29.205627 24.806519 29.205627 Z"/>
    <path id="Path-copy-3" fill="#c7bfc2" fill-rule="evenodd" stroke="none" d="M 8.709961 25.185425 C 6.15686 25.185425 3.629883 25.389038 1.202087 25.770172 C 1.045471 25.796295 1.087219 26.046906 1.233398 26.046906 C 1.243835 26.046906 1.249084 26.046906 1.259521 26.046906 C 3.671631 25.67099 6.182983 25.472565 8.71521 25.472565 C 15.163208 25.472565 21.773071 26.762177 27.380493 29.70163 C 27.411804 29.722534 27.437927 29.732971 27.46405 29.732971 C 27.589355 29.732971 27.657227 29.550232 27.521484 29.482361 C 21.887939 26.495911 15.215393 25.185425 8.709961 25.185425 Z"/>
    <path id="Path-copy-2" fill="#c7bfc2" fill-rule="evenodd" stroke="none" d="M 16.546814 28.281494 C 11.34137 28.281494 5.890625 29.419708 1.343079 30.453461 C 1.19165 30.474365 1.222961 30.70929 1.353516 30.70929 C 1.369141 30.70929 1.384827 30.704071 1.395264 30.698853 C 5.921936 29.685974 11.330933 28.542572 16.510254 28.542572 C 19.381836 28.542572 22.180298 28.892365 24.722961 29.816498 C 24.743835 29.826935 24.764771 29.826935 24.780396 29.826935 C 24.900513 29.826935 24.921387 29.607666 24.775208 29.534576 C 22.237732 28.631317 19.434021 28.281494 16.546814 28.281494 Z"/>
    <path id="Path-copy" fill="#c7bfc2" fill-rule="evenodd" stroke="none" d="M 24.258301 31.163544 C 17.095032 31.163544 9.712402 34.01947 3.666443 37.517578 C 3.556763 37.585449 3.629883 37.76297 3.734314 37.76297 C 3.760437 37.76297 3.781311 37.757751 3.807373 37.736847 C 9.801208 34.296173 17.131531 31.440247 24.26355 31.440247 C 24.879639 31.440247 25.495728 31.461121 26.106567 31.502899 C 26.122253 31.508118 26.137878 31.513336 26.148315 31.513336 C 26.273621 31.513336 26.257996 31.278412 26.106567 31.226196 C 25.495728 31.184418 24.87439 31.163544 24.258301 31.163544 Z"/>
</svg>
