<?xml version="1.0" encoding="UTF-8"?>
<!-- Generated by Pixelmator Pro 3.4.1 -->
<svg width="98" height="72" viewBox="0 0 98 72" xmlns="http://www.w3.org/2000/svg">
    <path id="Path-copy-32" fill="#d69b56" fill-rule="evenodd" stroke="none" d="M 11.634521 1.941742 C 11.488647 1.941742 11.394287 1.976044 11.342834 2.061829 C 4.565399 14.758759 8.751953 25.962952 11.119751 30.604187 C 11.162659 30.689972 11.162659 30.784332 11.257019 30.82724 C 11.299927 31.007385 11.394287 31.144653 11.480103 31.281921 C 12.072021 32.380035 12.483826 32.971985 12.483826 32.971985 C 12.483826 32.971985 28.183411 27.369904 34.651978 16.903503 C 34.651978 16.903503 33.013367 15.668121 30.645569 13.986664 L 29.418762 13.171631 C 29.281555 13.034393 29.101379 12.845642 28.912598 12.759857 C 22.710022 8.324524 13.453247 1.941742 11.634521 1.941742 Z"/>
    <path id="Path-copy-31" fill="#f8e7c2" fill-rule="evenodd" stroke="none" d="M 13.513306 6.385651 C 13.4104 6.385651 13.33313 6.411377 13.298828 6.480011 C 6.289795 19.631622 14.43988 31.650818 14.43988 31.650818 C 14.43988 31.650818 26.682068 27.275513 31.786621 19.082581 C 31.786621 19.082581 15.649475 6.385651 13.513306 6.385651 Z"/>
    <path id="Path-copy-30" fill="#d69b56" fill-rule="evenodd" stroke="none" d="M 84.564636 1.933167 C 81.776428 1.933167 61.555725 16.903503 61.555725 16.903503 C 68.015747 27.369904 83.715271 32.971985 83.715271 32.971985 C 83.715271 32.971985 93.872864 18.859528 84.856323 2.061829 C 84.813416 1.976044 84.710449 1.933167 84.564636 1.933167 Z"/>
    <path id="Path-copy-29" fill="#f8e7c2" fill-rule="evenodd" stroke="none" d="M 82.642944 6.385651 C 80.506775 6.385651 64.369629 19.082581 64.369629 19.082581 C 69.422668 27.275513 81.71637 31.650818 81.71637 31.650818 C 81.71637 31.650818 89.866455 19.631622 82.857422 6.480011 C 82.823059 6.411377 82.74585 6.385651 82.642944 6.385651 Z"/>
    <path id="Path-copy-28" fill="#d69b56" fill-rule="evenodd" stroke="none" d="M 47.940857 7.981354 C 42.930725 8.024231 38.152222 9.11377 33.742615 10.984009 C 33.605347 11.026886 33.468079 11.121277 33.330811 11.164154 C 32.052551 11.713226 30.739929 12.390961 29.504578 13.077271 C 28.457947 13.712128 27.462769 14.261169 26.501953 14.94751 C 21.088562 18.542114 16.258606 23.269135 12.844177 28.416534 C 12.252197 29.188629 11.754639 29.960754 11.299927 30.82724 C 11.162659 31.058868 10.982483 31.333405 10.888123 31.556458 C 9.026489 35.065247 7.74823 38.702759 7.473694 42.160095 C 7.293549 44.21048 7.293549 45.119843 7.473694 45.84906 C 7.473694 45.84906 16.902039 45.891968 31.143188 61.917542 C 33.605347 64.64566 37.886292 71.019867 47.983765 71.114227 L 48.121033 71.114227 C 58.227051 71.019867 62.507996 64.64566 64.961609 61.917542 C 79.168396 45.943451 88.631042 45.84906 88.631042 45.84906 C 88.768311 45.119843 88.768311 44.21048 88.588196 42.160095 C 88.31366 38.702759 87.086853 35.065247 85.173706 31.556458 C 85.130859 31.333405 85.036438 31.196136 84.89917 31.007385 C 84.444519 30.192383 83.946899 29.368805 83.35498 28.553802 C 79.940552 23.457855 75.162048 18.679352 69.697205 15.033295 C 68.744934 14.35556 67.741211 13.712128 66.69458 13.171631 C 65.467773 12.390961 64.146606 11.713226 62.782532 11.164154 C 62.602356 11.121277 62.507996 11.026886 62.32782 10.984009 C 57.952576 9.11377 53.088257 8.024231 48.078125 7.981354 Z"/>
    <path id="Path-copy-27" fill="#f8e7c2" fill-rule="evenodd" stroke="none" d="M 63.87207 33.924255 C 61.143921 33.924255 58.664612 35.863098 58.141296 38.659851 C 57.549316 41.756897 59.591125 44.802429 62.731079 45.394379 C 63.099976 45.463013 63.460266 45.497314 63.820618 45.497314 C 66.540161 45.497314 68.950806 43.575623 69.517029 40.796021 C 70.109009 37.656128 68.058594 34.653473 64.875793 34.018616 C 64.541199 33.958557 64.198059 33.924255 63.87207 33.924255 Z"/>
    <path id="Path-copy-26" fill="#0d0c0b" fill-rule="evenodd" stroke="none" d="M 64.961609 34.018616 C 64.961609 34.018616 61.229736 35.97464 60.637756 39.114563 C 60.00293 42.211578 62.602356 45.351471 62.782532 45.394379 C 62.962708 45.394379 66.471497 43.481262 67.106323 40.341339 C 67.646851 37.201447 65.055969 34.378937 64.961609 34.018616 Z"/>
    <path id="Path-copy-25" fill="#ffffff" fill-rule="evenodd" stroke="none" d="M 65.922424 37.415894 C 65.278992 37.415894 64.772888 37.844849 64.644165 38.428223 C 64.558411 39.114563 65.013062 39.706512 65.647888 39.84375 C 65.707947 39.852356 65.768005 39.852356 65.819519 39.852356 C 66.428589 39.852356 66.934753 39.423401 67.054871 38.882904 C 67.149231 38.20517 66.78894 37.561737 66.1026 37.433075 C 66.042542 37.4245 65.982483 37.415894 65.922424 37.415894 Z"/>
    <path id="Path-copy-24" fill="#ffffff" fill-rule="evenodd" stroke="none" d="M 61.478516 39.311859 C 61.066711 39.311859 60.714966 39.637878 60.637756 40.066833 C 60.500488 40.572968 60.869385 41.027679 61.367004 41.113464 C 61.444214 41.139191 61.521423 41.147766 61.598633 41.147766 C 62.001831 41.147766 62.344971 40.847504 62.465088 40.384247 C 62.550903 39.929565 62.233459 39.431976 61.684448 39.337616 C 61.615784 39.320435 61.54718 39.311859 61.478516 39.311859 Z"/>
    <path id="Path-copy-23" fill="#553c1f" fill-rule="evenodd" stroke="none" d="M 65.021667 33.701202 C 63.906372 33.701202 62.688171 33.855621 61.367004 34.241669 C 53.99762 36.429321 51.398193 46.260864 51.535461 47.805084 L 52.770813 49.263519 C 52.770813 49.263519 51.809998 45.711792 55.456055 40.976196 C 56.923096 39.020172 60.011536 36.343536 63.760559 36.343536 C 65.587891 36.343536 67.578186 36.986969 69.611389 38.659851 L 72.974365 36.978363 C 72.974365 36.978363 70.100403 33.701202 65.021667 33.701202 Z"/>
    <path id="Path-copy-22" fill="#f8e7c2" fill-rule="evenodd" stroke="none" d="M 32.344238 33.924255 C 32.009644 33.924255 31.666504 33.958557 31.331909 34.018616 C 28.183411 34.653473 26.141602 37.656128 26.682068 40.796021 C 27.248291 43.575623 29.658997 45.497314 32.387146 45.497314 C 32.738892 45.497314 33.099182 45.463013 33.468079 45.394379 C 36.607971 44.802429 38.658386 41.756897 38.066406 38.659851 C 37.534546 35.863098 35.089539 33.924255 32.344238 33.924255 Z"/>
    <path id="Path-copy-21" fill="#0d0c0b" fill-rule="evenodd" stroke="none" d="M 31.331909 34.018616 C 31.143188 34.378937 28.552307 37.201447 29.144287 40.341339 C 29.779114 43.481262 33.330811 45.394379 33.468079 45.394379 C 33.648254 45.351471 36.290588 42.211578 35.655701 39.114563 C 35.012329 35.97464 31.331909 34.018616 31.331909 34.018616 Z"/>
    <path id="Path-copy-20" fill="#ffffff" fill-rule="evenodd" stroke="none" d="M 30.31958 37.415894 C 30.259521 37.415894 30.199463 37.4245 30.14801 37.433075 C 29.504578 37.561737 29.049866 38.20517 29.144287 38.882904 C 29.264343 39.423401 29.813416 39.852356 30.422546 39.852356 C 30.482605 39.852356 30.542664 39.852356 30.602661 39.84375 C 31.194641 39.706512 31.649353 39.114563 31.554932 38.428223 C 31.42627 37.844849 30.928711 37.415894 30.31958 37.415894 Z"/>
    <path id="Path-copy-19" fill="#ffffff" fill-rule="evenodd" stroke="none" d="M 34.729187 39.311859 C 34.660583 39.311859 34.583374 39.320435 34.514709 39.337616 C 34.060059 39.431976 33.691162 39.929565 33.785522 40.384247 C 33.862732 40.847504 34.197266 41.147766 34.600525 41.147766 C 34.677734 41.147766 34.754944 41.139191 34.832153 41.113464 C 35.381226 41.027679 35.698608 40.572968 35.604248 40.066833 C 35.492737 39.637878 35.140991 39.311859 34.729187 39.311859 Z"/>
    <path id="Path-copy-18" fill="#553c1f" fill-rule="evenodd" stroke="none" d="M 31.2547 33.701202 C 26.158752 33.701202 23.319092 36.978363 23.319092 36.978363 L 26.639221 38.659851 C 28.689575 36.986969 30.679932 36.343536 32.507202 36.343536 C 36.264832 36.343536 39.344666 39.020172 40.837463 40.976196 C 44.38916 45.711792 43.479797 49.263519 43.479797 49.263519 L 44.758057 47.805084 C 44.843811 46.260864 42.252991 36.429321 34.926514 34.241669 C 33.596741 33.855621 32.369995 33.701202 31.2547 33.701202 Z"/>
    <path id="Path-copy-17" fill="#ffffff" fill-rule="evenodd" stroke="none" d="M 53.036804 48.311249 C 50.077026 48.311249 47.717773 48.851715 47.717773 51.811462 C 47.717773 54.77124 50.488831 58.503082 53.448547 58.503082 C 56.408325 58.503082 58.407227 56.641449 58.407227 53.630219 C 58.407227 50.721954 55.996521 48.311249 53.036804 48.311249 Z"/>
    <path id="Path-copy-16" fill="#ffffff" fill-rule="evenodd" stroke="none" d="M 43.205261 48.311249 C 40.245483 48.311249 37.886292 50.721954 37.886292 53.630219 C 37.886292 56.641449 39.842285 58.503082 42.802063 58.503082 C 45.753235 58.503082 48.575684 54.77124 48.575684 51.811462 C 48.575684 48.851715 46.164978 48.311249 43.205261 48.311249 Z"/>
    <path id="Path-copy-15" fill="#d27891" fill-rule="evenodd" stroke="none" d="M 45.753235 46.938599 C 44.526428 46.938599 43.479797 48.311249 44.569336 48.903198 C 45.212708 49.220612 46.439514 49.126251 46.671143 50.035614 C 47.074402 51.674225 47.803589 51.991638 48.121033 51.991638 C 48.395569 51.991638 49.124756 51.674225 49.53656 50.035614 C 49.759583 49.169128 50.994995 49.220612 51.629822 48.903198 C 52.71936 48.311249 51.672729 46.938599 50.445923 46.938599 Z"/>
    <path id="Path-copy-14" fill="#d69b56" fill-rule="evenodd" stroke="none" d="M 62.276367 10.941101 L 62.276367 10.941101 C 62.284973 10.941101 83.569458 31.60791 85.293823 31.60791 C 85.431091 31.60791 85.439697 31.470673 85.310974 31.196136 C 83.449341 27.326996 81.124451 24.049835 81.124451 24.049835 L 83.174805 24.049835 C 81.690674 22.213928 76.783447 19.339935 77.169495 19.339935 C 77.186646 19.339935 77.212402 19.348541 77.25531 19.357117 C 78.070313 19.631622 81.398987 19.631622 81.398987 19.631622 C 77.710022 16.174286 62.284973 10.941101 62.276367 10.941101 Z"/>
    <path id="Path-copy-13" fill="#d69b56" fill-rule="evenodd" stroke="none" d="M 33.691162 10.941101 C 33.691162 10.941101 31.649353 11.670319 28.869751 12.665497 C 27.780212 13.120178 26.5448 13.626343 25.275146 14.123901 C 21.088562 15.805389 16.490234 17.950165 14.671509 19.631622 C 14.671509 19.631622 17.897217 19.631622 18.80658 19.357117 C 18.849487 19.348541 18.875183 19.339935 18.883789 19.339935 C 19.235535 19.339935 14.371216 22.213928 12.89563 24.049835 L 14.937439 24.049835 C 14.937439 24.049835 13.804993 25.594055 12.483826 27.867493 C 11.986267 28.691071 11.480103 29.600433 11.025391 30.552704 C 10.888123 30.741455 10.845276 30.964508 10.708008 31.144653 C 10.613586 31.376282 10.613586 31.51355 10.708008 31.51355 C 10.733704 31.530701 10.768066 31.539276 10.810913 31.539276 C 10.948181 31.539276 11.136963 31.419189 11.394287 31.239014 C 11.848999 30.964508 12.526733 30.466919 13.350342 29.780609 C 16.987793 26.820831 23.45636 20.721161 28.140503 16.260101 C 29.049866 15.445068 29.822021 14.62149 30.602661 13.943756 C 32.327087 12.253693 33.553894 11.121277 33.691162 10.941101 Z"/>
    <path id="Path-copy-12" fill="#f8e7c2" fill-rule="evenodd" stroke="none" d="M 44.526428 52.085999 C 44.071716 52.085999 43.711426 52.403412 43.711426 52.772308 C 43.711426 53.132629 44.071716 53.450073 44.526428 53.450073 C 44.981079 53.450073 45.298523 53.132629 45.298523 52.772308 C 45.298523 52.360535 44.981079 52.085999 44.526428 52.085999 Z"/>
    <path id="Path-copy-11" fill="#f8e7c2" fill-rule="evenodd" stroke="none" d="M 42.021362 54.951385 C 41.618103 54.951385 41.20636 55.268799 41.20636 55.637695 C 41.20636 56.0495 41.56665 56.31546 42.021362 56.31546 C 42.476013 56.31546 42.802063 56.0495 42.802063 55.637695 C 42.802063 55.225922 42.476013 54.951385 42.021362 54.951385 Z"/>
    <path id="Path-copy-10" fill="#f8e7c2" fill-rule="evenodd" stroke="none" d="M 39.979553 52.085999 C 39.524841 52.085999 39.155945 52.403412 39.155945 52.772308 C 39.155945 53.132629 39.524841 53.450073 39.979553 53.450073 C 40.434204 53.450073 40.751648 53.132629 40.751648 52.772308 C 40.751648 52.360535 40.339844 52.085999 39.979553 52.085999 Z"/>
    <path id="Path-copy-9" fill="#ffffff" fill-rule="evenodd" stroke="none" d="M 13.513306 45.523071 C 9.309601 45.523071 5.148804 45.857635 1.15097 46.483917 C 0.88504 46.526794 0.996552 46.947174 1.245331 46.947174 C 1.262512 46.947174 1.271088 46.947174 1.288239 46.938599 C 5.226013 46.338074 9.326752 46.02066 13.470398 46.02066 C 24.074097 46.02066 34.969421 48.122498 44.166077 52.995361 C 44.191833 53.003967 44.21759 53.012543 44.251892 53.012543 C 44.457764 53.012543 44.672241 52.746582 44.38916 52.583588 C 35.175293 47.684967 24.21991 45.523071 13.513306 45.523071 Z"/>
    <path id="Path-copy-8" fill="#ffffff" fill-rule="evenodd" stroke="none" d="M 26.37323 50.610413 C 17.802795 50.610413 8.846313 52.480621 1.373993 54.179291 C 1.116638 54.222168 1.185272 54.642548 1.468353 54.642548 C 1.485535 54.642548 1.502686 54.633972 1.511261 54.633972 C 8.923523 52.935333 17.828491 51.065094 26.338928 51.065094 C 31.048828 51.065094 35.63855 51.639893 39.790833 53.132629 C 39.825134 53.141205 39.842285 53.149811 39.868042 53.149811 C 40.091064 53.149811 40.17688 52.798065 39.92804 52.677948 C 35.741516 51.185211 31.117371 50.610413 26.373169 50.610413 Z"/>
    <path id="Path-copy-7" fill="#ffffff" fill-rule="evenodd" stroke="none" d="M 38.89856 55.380341 C 27.179688 55.380341 15.134766 60.064484 5.200256 65.786682 C 5.011536 65.898193 5.131622 66.198456 5.311798 66.198456 C 5.3461 66.198456 5.389008 66.181305 5.431885 66.146973 C 15.31488 60.519165 27.411316 55.809296 39.173096 55.809296 C 40.142517 55.809296 41.112 55.843597 42.072815 55.912231 C 42.338745 55.912231 42.338745 55.500458 42.072815 55.500458 C 41.017578 55.423248 39.962402 55.380341 38.89856 55.380341 Z"/>
    <path id="Path-copy-6" fill="#f8e7c2" fill-rule="evenodd" stroke="none" d="M 51.586914 51.811462 C 51.123657 51.811462 50.763367 52.128906 50.763367 52.497803 C 50.763367 52.909576 51.123657 53.22702 51.586914 53.22702 C 51.947266 53.22702 52.35907 52.909576 52.35907 52.497803 C 52.35907 52.180359 51.990173 51.905853 51.586914 51.811462 Z"/>
    <path id="Path-copy-5" fill="#f8e7c2" fill-rule="evenodd" stroke="none" d="M 54.040527 54.728333 C 53.628723 54.728333 53.225525 55.045746 53.225525 55.406067 C 53.225525 55.817871 53.585815 56.092407 54.040527 56.092407 C 54.495239 56.092407 54.812622 55.817871 54.812622 55.406067 C 54.812622 55.045746 54.495239 54.728333 54.040527 54.728333 Z"/>
    <path id="Path-copy-4" fill="#f8e7c2" fill-rule="evenodd" stroke="none" d="M 56.133789 51.811462 C 55.679138 51.811462 55.318787 52.128906 55.318787 52.497803 C 55.318787 52.909576 55.679138 53.22702 56.133789 53.22702 C 56.588501 53.22702 56.905884 52.909576 56.905884 52.497803 C 56.905884 52.180359 56.545593 51.905853 56.133789 51.811462 Z"/>
    <path id="Path-copy-3" fill="#ffffff" fill-rule="evenodd" stroke="none" d="M 82.531372 45.300018 C 71.84198 45.300018 60.877991 47.453339 51.629822 52.360535 C 51.42395 52.480621 51.586914 52.780914 51.784241 52.780914 C 51.809998 52.780914 51.835693 52.780914 51.852905 52.772308 C 61.03241 47.899445 71.902039 45.7547 82.505676 45.7547 C 86.683655 45.7547 90.81012 46.089264 94.782227 46.715546 C 94.790771 46.715546 94.807922 46.715546 94.816528 46.715546 C 95.056763 46.715546 95.133972 46.303741 94.867981 46.260864 C 90.878784 45.634583 86.726501 45.300018 82.531372 45.300018 Z"/>
    <path id="Path-copy-2" fill="#ffffff" fill-rule="evenodd" stroke="none" d="M 69.654297 50.38736 C 64.918701 50.38736 60.303223 50.953583 56.133789 52.44632 C 55.88501 52.575012 55.936462 52.918152 56.15094 52.918152 C 56.176697 52.918152 56.202454 52.918152 56.228149 52.909576 C 60.397583 51.41684 64.995911 50.842041 69.705811 50.842041 C 78.216125 50.842041 87.11261 52.71228 94.550598 54.410919 C 94.567749 54.410919 94.576294 54.410919 94.593445 54.410919 C 94.833679 54.410919 94.902344 53.999115 94.644958 53.956238 C 87.172607 52.257568 78.216125 50.38736 69.654297 50.38736 Z"/>
    <path id="Path-copy" fill="#ffffff" fill-rule="evenodd" stroke="none" d="M 57.00885 55.165863 C 55.987976 55.165863 54.967041 55.200165 53.946167 55.268799 C 53.680237 55.268799 53.680237 55.723511 53.946167 55.723511 C 54.958496 55.654877 55.962219 55.620544 56.974548 55.620544 C 68.702026 55.620544 80.746948 60.313263 90.595642 65.966827 C 90.629944 65.992554 90.664307 66.001129 90.690002 66.001129 C 90.878784 66.001129 91.016052 65.718048 90.818726 65.563629 C 80.892822 59.824249 68.770691 55.165863 57.00885 55.165863 Z"/>
</svg>
