<?xml version="1.0" encoding="UTF-8"?>
<!-- Generated by Pixelmator Pro 3.4.1 -->
<svg width="64" height="42" viewBox="0 0 64 42" xmlns="http://www.w3.org/2000/svg">
    <path id="Path-copy-36" fill="#666666" fill-rule="evenodd" stroke="none" d="M 51.253235 1.486267 C 48.825439 1.486267 43.124023 4.357849 40.335999 5.861511 C 40.309875 5.887634 40.278564 5.887634 40.226349 5.918945 C 39.312653 6.414948 38.753998 6.717773 38.753998 6.717773 C 38.811432 6.832642 38.837555 6.884857 38.921082 6.994507 C 42.387878 12.314758 50.031494 15.363861 51.248016 15.83374 C 51.362885 15.859863 51.388977 15.891174 51.4151 15.891174 C 51.4151 15.891174 53.466949 13.338074 52.3862 2.206787 C 52.333984 1.695129 51.916321 1.486267 51.253235 1.486267 Z"/>
    <path id="Path-copy-35" fill="#7b6c78" fill-rule="evenodd" stroke="none" d="M 50.057617 4.399628 C 48.50174 4.399628 40.362091 7.99173 40.362091 7.99173 C 43.270233 12.675018 50.282104 15.139343 50.282104 15.139343 C 50.282104 15.139343 51.66571 12.011932 50.308228 4.504059 C 50.292542 4.430969 50.203796 4.399628 50.057617 4.399628 Z"/>
    <path id="Path-copy-34" fill="#666666" fill-rule="evenodd" stroke="none" d="M 10.894409 1.481049 C 10.231339 1.481049 9.808426 1.695129 9.750992 2.206787 C 8.701553 13.285889 10.722107 15.859863 10.722107 15.859863 C 10.722107 15.859863 19.697113 12.701111 23.409302 6.717773 C 23.409302 6.717773 14.178452 1.481049 10.894409 1.481049 Z"/>
    <path id="Path-copy-33" fill="#7b6c78" fill-rule="evenodd" stroke="none" d="M 12.053482 4.368286 C 11.907288 4.368286 11.818542 4.404846 11.802872 4.477936 C 10.445389 11.980621 11.828979 15.087158 11.828979 15.087158 C 11.828979 15.087158 18.866974 12.648926 21.748993 7.965607 C 21.748993 7.965607 13.60936 4.368286 12.053482 4.368286 Z"/>
    <path id="Path-copy-32" fill="#666666" fill-rule="evenodd" stroke="none" d="M 31.110382 4.838196 C 28.009064 4.838196 24.933838 5.031372 23.686005 5.334198 C 23.633789 5.334198 23.602478 5.360291 23.576385 5.360291 C 23.409302 5.443848 23.216125 5.475159 23.049042 5.527374 C 22.636566 5.668335 22.244995 5.804077 21.884735 5.945068 L 21.83255 5.945068 C 21.639343 6.028595 21.414856 6.080811 21.22168 6.195679 C 20.86142 6.331421 20.527283 6.472382 20.167023 6.634247 C 20.114807 6.665558 20.005157 6.717773 19.947723 6.749115 C 19.723236 6.858765 19.561371 6.916168 19.394287 7.025818 C 16.929962 8.299744 14.820648 9.93396 13.217773 11.870972 C 12.883636 12.288635 12.580811 12.701111 12.246658 13.144897 L 11.635803 14.199585 C 11.635803 14.199585 11.609695 14.225647 11.609695 14.256989 C 11.275543 14.779114 11.056259 15.363861 10.805649 15.917297 C 10.168686 17.494049 9.834534 19.128235 9.834534 20.877319 C 9.834534 24.312744 10.27832 28.855103 13.353531 31.126251 C 13.463165 31.209778 13.604141 31.293335 13.713776 31.371643 C 14.376862 31.81543 15.013824 32.259216 15.624695 32.760437 C 15.656021 32.78656 15.682129 32.78656 15.708221 32.812653 L 15.765656 32.843994 L 15.791763 32.843994 C 16.512268 33.449646 18.976624 34.58783 21.247772 35.804321 C 21.331329 35.804321 21.36264 35.835632 21.414856 35.861755 C 22.996826 36.665802 24.432617 37.495972 25.268005 38.190369 C 25.821442 38.634155 26.374847 39.020508 27.011841 39.323303 C 28.009064 39.850647 29.199463 40.12738 30.61438 40.12738 C 30.723999 40.12738 30.943298 40.153473 31.084259 40.153473 L 31.611603 40.153473 C 33.021271 40.153473 34.185577 39.87677 35.208893 39.354645 C 35.845886 39.072693 36.404541 38.660248 36.957947 38.216461 C 37.730682 37.553406 39.229126 36.749329 40.779785 35.887878 C 40.863312 35.861755 40.889435 35.835632 40.972961 35.804321 C 43.24411 34.58783 45.708466 33.449646 46.428955 32.843994 C 46.455078 32.843994 46.512512 32.812653 46.538605 32.78656 L 46.569946 32.760437 L 46.596039 32.729126 L 46.653473 32.67691 C 47.233002 32.233124 47.843872 31.789307 48.506958 31.34552 C 48.616608 31.261993 48.757568 31.152344 48.867218 31.09491 C 51.942413 28.797668 52.3862 24.281433 52.3862 20.845978 C 52.3862 19.102142 52.052063 17.441833 51.498627 15.917297 C 51.279327 15.363861 51.002625 14.810425 50.69458 14.256989 C 50.69458 14.225647 50.668488 14.225647 50.668488 14.199585 C 50.449188 13.839294 50.250793 13.505157 50.005402 13.144897 C 49.697357 12.732422 49.368439 12.288635 49.034271 11.870972 C 47.426178 9.93396 45.322113 8.299744 42.857758 7.025818 C 42.690674 6.916168 42.497498 6.858765 42.304321 6.749115 C 42.246887 6.717773 42.137268 6.691681 42.079834 6.634247 C 41.719574 6.498505 41.390656 6.331421 41.030396 6.195679 C 40.832001 6.138245 40.612701 6.028595 40.419525 5.945068 L 40.362091 5.945068 C 40.001831 5.804077 39.589386 5.668335 39.197784 5.527374 C 39.03595 5.475159 38.837555 5.391632 38.67569 5.360291 C 38.644348 5.360291 38.618256 5.334198 38.560822 5.334198 C 37.286896 5.031372 34.21167 4.838196 31.110382 4.838196 Z"/>
    <path id="Path-copy-31" fill="#9ba0a5" fill-rule="evenodd" stroke="none" d="M 39.813873 18.225006 C 38.012604 18.225006 36.383636 19.519836 36.044281 21.347198 C 35.90329 22.203461 33.162231 29.904541 34.378754 30.959167 C 34.420532 30.995728 34.457062 31.011383 34.488403 31.011383 C 35.015717 31.011383 33.512054 25.571045 37.359985 25.571045 C 37.855988 25.571045 38.435516 25.65979 39.114258 25.863403 C 39.354431 25.905182 39.594604 25.926086 39.829559 25.926086 C 41.641266 25.926086 43.285889 24.65213 43.60437 22.814331 C 43.797546 21.874512 44.048157 20.569275 43.630493 19.796539 C 43.077057 18.825439 41.693451 18.522583 40.555267 18.298096 C 40.309875 18.251099 40.059265 18.225006 39.813873 18.225006 Z"/>
    <path id="Path-copy-30" fill="#d9f1fd" fill-rule="evenodd" stroke="none" d="M 39.390961 19.373657 C 37.996948 19.373657 36.879639 19.97406 36.597717 21.430725 C 36.289673 23.258118 37.427856 24.97583 39.229126 25.309998 C 39.443176 25.351746 39.662476 25.37262 39.871307 25.37262 C 41.427185 25.37262 42.81076 24.260559 43.077057 22.67334 C 43.385101 21.070496 42.356537 20.041931 40.863312 19.603363 C 40.696228 19.572021 40.471741 19.488495 40.309875 19.462402 C 40.085388 19.436279 39.892212 19.378845 39.672913 19.378845 C 39.578918 19.373657 39.484955 19.373657 39.390961 19.373657 Z"/>
    <path id="Path-copy-29" fill="#9ba0a5" fill-rule="evenodd" stroke="none" d="M 38.367645 18.491272 L 38.367645 18.491272 C 34.326538 20.156799 33.522491 29.575592 33.271881 30.541504 C 33.083923 31.267212 33.559052 31.355988 33.81488 31.355988 C 33.903625 31.355988 33.966278 31.34552 33.966278 31.34552 C 35.323761 19.932312 38.341553 18.768005 38.341553 18.741882 L 38.367645 18.491272 Z"/>
    <path id="Path-copy-28" fill="#0d0c0b" fill-rule="evenodd" stroke="none" d="M 39.699005 19.436279 C 39.088165 19.880066 38.231903 20.626709 38.007385 21.733582 C 37.647125 23.508728 39.114258 25.309998 39.229126 25.309998 C 39.364868 25.309998 41.390656 24.197906 41.719574 22.427979 C 41.91275 21.289764 41.333221 20.266418 40.889435 19.629456 C 40.722351 19.603363 40.503052 19.519836 40.335999 19.488495 C 40.142822 19.462402 39.918304 19.436279 39.699005 19.436279 Z"/>
    <path id="Path-copy-27" fill="#ffffff" fill-rule="evenodd" stroke="none" d="M 41.030396 20.757202 C 40.685791 20.757202 40.388184 20.992188 40.335999 21.321106 C 40.252441 21.707458 40.503052 22.067688 40.889435 22.119934 C 40.94162 22.130371 40.988617 22.135559 41.035614 22.135559 C 41.359314 22.135559 41.620361 21.905853 41.693451 21.566467 C 41.750885 21.180115 41.526398 20.845978 41.140045 20.762451 C 41.103485 20.757202 41.066925 20.757202 41.030396 20.757202 Z"/>
    <path id="Path-copy-26" fill="#ffffff" fill-rule="evenodd" stroke="none" d="M 38.550385 21.837982 C 38.304993 21.837982 38.080475 22.015503 38.007385 22.260864 C 37.95517 22.537598 38.148376 22.814331 38.425079 22.897858 C 38.45639 22.903076 38.487732 22.908295 38.519043 22.908295 C 38.764435 22.908295 38.988953 22.725555 39.062042 22.480164 C 39.114258 22.203461 38.921082 21.926758 38.644348 21.843201 C 38.613037 21.837982 38.581696 21.837982 38.550385 21.837982 Z"/>
    <path id="Path-copy-25" fill="#666666" fill-rule="evenodd" stroke="none" d="M 51.279327 15.83374 C 50.167236 16.05304 47.676819 26.970276 46.789215 31.209778 C 46.569946 32.207031 46.428955 32.812653 46.428955 32.812653 C 46.455078 32.812653 46.512512 32.78656 46.538605 32.760437 C 46.538605 32.703003 46.569946 32.703003 46.596039 32.67691 L 46.653473 32.650818 C 47.065948 32.342773 48.094482 31.679688 49.587708 31.068817 C 51.180145 30.405762 53.388641 29.80011 55.962646 29.80011 C 56.385529 29.80011 56.818878 29.815765 57.262665 29.852295 C 57.262665 29.852295 53.519165 28.437408 51.388977 28.327759 C 51.388977 28.327759 54.876648 27.690796 56.568268 27.607239 C 56.568268 27.607239 53.769775 26.583923 52.412323 26.41687 C 52.412323 26.41687 54.046509 25.805969 55.043732 25.670227 C 55.043732 25.670227 52.689026 17.133789 51.446411 15.891174 C 51.388977 15.83374 51.362885 15.83374 51.279327 15.83374 Z"/>
    <path id="Path-copy-24" fill="#666666" fill-rule="evenodd" stroke="none" d="M 48.783661 31.126251 C 48.094482 31.126251 47.400085 31.152344 46.705688 31.235901 C 45.431732 31.371643 44.21524 31.622253 43.327667 32.039917 C 42.63327 32.374084 41.609924 33.204224 40.722351 34.034393 C 39.641571 35.031616 38.701782 36.054932 38.701782 36.054932 C 38.701782 36.054932 39.505829 35.861755 40.753662 35.804321 L 40.915527 35.804321 C 41.124359 35.799103 41.343658 35.793884 41.573395 35.793884 C 43.703583 35.793884 46.710907 36.190674 49.838318 37.965851 C 49.838318 37.965851 48.094482 36.081055 46.178345 35.365753 C 46.178345 35.365753 48.632263 34.72879 50.464844 34.72879 C 50.997406 34.72879 51.477753 34.781006 51.832764 34.921967 C 51.691803 34.864532 49.420624 33.533142 48.204132 33.089355 C 48.204132 33.089355 53.294678 31.512634 54.673035 31.512634 C 54.699127 31.512634 54.720032 31.512634 54.740906 31.512634 C 54.740906 31.512634 52.27655 31.152344 49.504181 31.126251 Z"/>
    <path id="Path-copy-23" fill="#9ba0a5" fill-rule="evenodd" stroke="none" d="M 22.297211 18.198914 C 22.051819 18.198914 21.801208 18.219788 21.555817 18.271973 C 20.417633 18.491272 19.034058 18.799316 18.480621 19.765198 C 18.062927 20.543152 18.313538 21.843201 18.506714 22.788208 C 18.8461 24.615601 20.454163 25.905182 22.255432 25.905182 C 22.495605 25.905182 22.746216 25.884308 22.996826 25.832092 C 23.686005 25.628479 24.276001 25.539734 24.772003 25.539734 C 28.614685 25.539734 27.100586 30.980042 27.622711 30.980042 C 27.654022 30.980042 27.690582 30.964417 27.73233 30.933075 C 28.948853 29.878418 26.207794 22.151245 26.066833 21.321106 C 25.727448 19.488495 24.09848 18.198914 22.297211 18.198914 Z"/>
    <path id="Path-copy-22" fill="#d9f1fd" fill-rule="evenodd" stroke="none" d="M 22.746216 19.373657 C 22.657471 19.373657 22.563477 19.373657 22.469513 19.378845 C 22.276337 19.378845 22.051819 19.436279 21.858643 19.462402 C 21.665466 19.488495 21.47229 19.572021 21.305206 19.603363 C 19.806763 20.041931 18.757324 21.070496 19.086243 22.67334 C 19.357758 24.260559 20.71524 25.37262 22.2659 25.37262 C 22.47995 25.37262 22.694 25.351746 22.9133 25.309998 C 24.683228 24.97583 25.873627 23.231995 25.544708 21.430725 C 25.257568 19.97406 24.140259 19.373657 22.746216 19.373657 Z"/>
    <path id="Path-copy-21" fill="#9ba0a5" fill-rule="evenodd" stroke="none" d="M 23.743439 18.491272 L 23.795654 18.741882 C 23.795654 18.768005 26.787323 19.906189 28.144806 31.34552 C 28.144806 31.34552 28.207458 31.355988 28.296204 31.355988 C 28.552032 31.355988 29.027161 31.267212 28.839203 30.541504 C 28.588593 29.575592 27.815887 20.156799 23.743439 18.491272 Z"/>
    <path id="Path-copy-20" fill="#0d0c0b" fill-rule="evenodd" stroke="none" d="M 22.438171 19.436279 C 22.218903 19.436279 22.025726 19.462402 21.801208 19.488495 C 21.639343 19.519836 21.440948 19.603363 21.247772 19.629456 C 20.803986 20.266418 20.224457 21.289764 20.417633 22.427979 C 20.777893 24.197906 22.772339 25.309998 22.9133 25.309998 C 22.996826 25.278656 24.490051 23.508728 24.129791 21.733582 C 23.936615 20.626709 23.049042 19.880066 22.438171 19.436279 Z"/>
    <path id="Path-copy-19" fill="#ffffff" fill-rule="evenodd" stroke="none" d="M 21.138123 20.725891 C 21.101593 20.725891 21.065033 20.73111 21.028503 20.736328 C 20.64212 20.819885 20.39151 21.180115 20.475067 21.540375 C 20.522064 21.890198 20.819641 22.104248 21.138123 22.104248 C 21.174683 22.104248 21.211243 22.09903 21.247772 22.093811 C 21.639343 22.010254 21.884735 21.676147 21.801208 21.289764 C 21.754211 20.94519 21.456635 20.725891 21.138123 20.725891 Z"/>
    <path id="Path-copy-18" fill="#ffffff" fill-rule="evenodd" stroke="none" d="M 23.59726 21.837982 C 23.560699 21.837982 23.529388 21.837982 23.492828 21.843201 C 23.190002 21.874512 23.022949 22.151245 23.106476 22.480164 C 23.153473 22.725555 23.37796 22.908295 23.618134 22.908295 C 23.649475 22.908295 23.680786 22.903076 23.712128 22.897858 C 23.994049 22.814331 24.213348 22.537598 24.129791 22.260864 C 24.082825 22.015503 23.858307 21.837982 23.59726 21.837982 Z"/>
    <path id="Path-copy-17" fill="#ffffff" fill-rule="evenodd" stroke="none" d="M 31.058167 4.143799 C 29.752899 4.143799 28.45285 4.253418 27.178894 4.420502 C 25.957184 4.587585 24.792877 4.838196 23.659912 5.198456 C 23.602478 5.198456 23.576385 5.224548 23.550262 5.224548 C 23.383179 5.308105 23.190002 5.334198 23.022949 5.391632 C 22.605255 5.527374 22.218903 5.668335 21.858643 5.804077 C 21.884735 5.861511 21.916077 5.861511 21.942169 5.887634 C 22.412079 6.195679 22.829773 6.582031 23.242218 6.968384 C 25.210571 8.85321 26.51062 11.568146 27.48172 14.199585 C 27.51828 14.298767 27.539154 14.345764 27.544373 14.345764 C 27.622711 14.345764 25.35675 6.884857 26.416626 6.884857 C 26.432281 6.884857 26.442749 6.884857 26.458405 6.884857 C 31.058167 7.714996 30.530823 19.655579 31.000732 22.563721 L 31.058167 22.563721 L 31.058167 22.621155 L 31.167786 22.621155 C 31.611603 19.655579 31.058167 7.746338 35.684021 6.916168 C 35.694458 6.91095 35.710114 6.91095 35.720581 6.91095 C 36.785675 6.91095 34.514496 14.371857 34.592804 14.371857 C 34.598053 14.371857 34.618927 14.32489 34.655457 14.225647 C 35.652679 11.62558 36.957947 8.910645 38.921082 6.994507 C 39.312653 6.608154 39.756439 6.221771 40.195007 5.918945 C 40.226349 5.887634 40.278564 5.887634 40.309875 5.861511 C 39.918304 5.720551 39.531952 5.584808 39.088165 5.391632 C 38.921082 5.334198 38.753998 5.250671 38.560822 5.224548 C 38.534729 5.224548 38.508606 5.198456 38.477295 5.198456 C 36.180023 4.530151 33.689575 4.143799 31.084259 4.143799 Z"/>
    <path id="Path-copy-16" fill="#666666" fill-rule="evenodd" stroke="none" d="M 10.852646 15.828552 C 10.805649 15.828552 10.763885 15.849426 10.722107 15.891174 C 9.474274 17.133789 7.119583 25.670227 7.119583 25.670227 C 8.090698 25.805969 9.750992 26.41687 9.750992 26.41687 C 8.42485 26.583923 5.60025 27.607239 5.60025 27.607239 C 7.317978 27.690796 10.805649 28.327759 10.805649 28.327759 C 8.618027 28.379974 4.879745 29.852295 4.879745 29.852295 C 5.313095 29.815765 5.741211 29.80011 6.158905 29.80011 C 11.949066 29.80011 15.708221 32.812653 15.708221 32.812653 C 15.708221 32.812653 12.189224 15.828552 10.852646 15.828552 Z"/>
    <path id="Path-copy-15" fill="#666666" fill-rule="evenodd" stroke="none" d="M 12.826202 31.053162 C 9.928513 31.053162 7.317978 31.429077 7.317978 31.429077 C 8.644135 31.429077 13.906967 33.063263 13.906967 33.063263 C 12.664352 33.50708 10.27832 34.890625 10.27832 34.890625 C 10.649017 34.754883 11.14502 34.697449 11.688004 34.697449 C 13.525818 34.697449 15.932739 35.308319 15.932739 35.308319 C 14.016602 36.081055 12.304092 37.939758 12.304092 37.939758 C 15.452393 36.143677 18.511932 35.741669 20.621246 35.741669 C 22.307648 35.741669 23.383179 36.002747 23.383179 36.002747 C 23.383179 36.002747 20.365417 32.729126 18.726013 31.956421 C 17.217102 31.251556 14.945953 31.053162 12.826202 31.053162 Z"/>
    <path id="Path-copy-14" fill="#ffffff" fill-rule="evenodd" stroke="none" d="M 26.458405 29.768799 C 24.020172 29.768799 22.025726 31.429077 21.498383 33.700256 C 21.47229 33.783752 21.440948 33.86731 21.440948 33.976959 C 21.388733 34.285004 21.36264 34.561707 21.36264 34.864532 C 21.36264 35.167358 21.388733 35.501526 21.440948 35.778229 L 21.440948 35.835632 C 21.801208 38.0755 23.576385 39.464294 26.04071 39.464294 C 26.207794 39.464294 26.427063 39.464294 26.594147 39.432983 L 27.011841 39.323303 C 28.781769 38.853424 30.389862 37.026062 31.084259 35.115143 C 31.830872 37.026062 33.407623 38.827332 35.208893 39.323303 L 35.626587 39.432983 C 35.793671 39.464294 36.012939 39.464294 36.180023 39.464294 C 38.644348 39.464294 40.419525 38.0755 40.779785 35.835632 L 40.779785 35.778229 C 40.832001 35.501526 40.863312 35.167358 40.863312 34.864532 C 40.863312 34.58783 40.832001 34.285004 40.889435 34.034393 C 40.863312 33.924744 40.863312 33.86731 40.832001 33.75769 C 40.309875 31.486511 38.284119 29.820984 35.877197 29.820984 C 35.485626 29.820984 35.099274 29.820984 34.739014 29.852295 C 34.545837 29.852295 34.410065 29.852295 34.269104 29.878418 L 34.21167 29.878418 C 33.966278 29.904541 33.715668 29.961975 33.522491 29.988068 L 33.49118 29.988068 C 33.407623 30.019409 33.298004 30.019409 33.245789 30.045471 L 33.162231 30.045471 C 32.828094 30.155151 32.467834 30.264771 32.191132 30.431854 C 31.747345 30.682465 31.413177 30.985291 31.167786 31.429077 C 30.917175 31.016602 30.583038 30.682465 30.113159 30.431854 C 29.836426 30.264771 29.502289 30.155151 29.142029 30.045471 C 29.115906 30.019409 29.115906 30.019409 29.089813 30.019409 C 29.006287 29.988068 28.922729 29.961975 28.839203 29.961975 L 28.81311 29.961975 C 28.5625 29.904541 28.369324 29.878418 28.118683 29.852295 L 28.035156 29.852295 C 27.899414 29.852295 27.73233 29.820984 27.59137 29.820984 C 27.262451 29.768799 26.844757 29.768799 26.458405 29.768799 Z"/>
    <path id="Path-copy-13" fill="#7b6c78" fill-rule="evenodd" stroke="none" d="M 29.5336 28.630585 C 29.392639 28.630585 29.256897 28.661926 29.142029 28.688019 C 29.032379 28.740234 28.948853 28.797668 28.839203 28.855103 C 28.729553 28.907288 28.672119 28.990845 28.588593 29.074371 C 28.5625 29.131805 28.536377 29.184021 28.505066 29.215332 C 28.343201 29.460754 28.395416 29.711365 28.703461 29.878418 L 28.729553 29.878418 C 28.81311 29.904541 28.896637 29.961975 29.006287 29.988068 C 29.032379 29.988068 29.089813 30.019409 29.115906 30.019409 C 29.476166 30.097717 29.836426 30.155151 30.029602 30.431854 C 30.060944 30.515381 30.087036 30.541504 30.113159 30.656372 C 30.337646 31.486511 30.640472 31.81543 30.891083 31.930298 C 30.943298 31.956421 31.026825 31.956421 31.058167 31.956421 L 31.058167 31.982513 C 31.084259 31.982513 31.167786 31.982513 31.220001 31.956421 C 31.470612 31.846741 31.773438 31.512634 31.997955 30.682465 C 32.024048 30.598938 32.024048 30.541504 32.107605 30.457947 C 32.274658 30.238678 32.661011 30.129028 32.995178 30.045471 C 33.021271 30.045471 33.052612 30.019409 33.104828 30.019409 C 33.214447 29.988068 33.298004 29.961975 33.381531 29.904541 L 33.407623 29.904541 C 33.715668 29.737457 33.767883 29.492065 33.632141 29.267548 C 33.574707 29.184021 33.548615 29.157898 33.522491 29.131805 C 33.438965 29.048279 33.381531 28.938629 33.271881 28.881195 C 33.162231 28.797668 33.078705 28.771545 32.969055 28.740234 C 32.854218 28.688019 32.718445 28.661926 32.577484 28.661926 L 31.058167 28.661926 L 31.058167 28.630585 Z"/>
    <path id="Path-copy-12" fill="#e5e5e6" fill-rule="evenodd" stroke="none" d="M 26.985718 33.230347 C 26.735107 33.230347 26.484497 33.423523 26.484497 33.64801 C 26.484497 33.893433 26.709015 34.060486 26.985718 34.060486 C 27.262451 34.060486 27.455627 33.893433 27.455627 33.64801 C 27.455627 33.423523 27.262451 33.230347 26.985718 33.230347 Z"/>
    <path id="Path-copy-11" fill="#e5e5e6" fill-rule="evenodd" stroke="none" d="M 25.487274 34.974182 C 25.210571 34.974182 24.991272 35.167358 24.991272 35.391846 C 24.991272 35.642456 25.210571 35.804321 25.487274 35.804321 C 25.764008 35.804321 25.957184 35.642456 25.957184 35.391846 C 25.957184 35.141235 25.764008 34.974182 25.487274 34.974182 Z"/>
    <path id="Path-copy-10" fill="#e5e5e6" fill-rule="evenodd" stroke="none" d="M 24.213348 33.230347 C 23.962738 33.230347 23.712128 33.423523 23.712128 33.64801 C 23.712128 33.893433 23.936615 34.060486 24.213348 34.060486 C 24.490051 34.060486 24.683228 33.893433 24.683228 33.64801 C 24.683228 33.423523 24.432617 33.230347 24.213348 33.230347 Z"/>
    <path id="Path-copy-9" fill="#ffffff" fill-rule="evenodd" stroke="none" d="M 8.184677 29.231018 C 5.610687 29.231018 3.057587 29.43985 0.614136 29.820984 C 0.452286 29.847107 0.494049 30.102905 0.666336 30.102905 C 0.676788 30.102905 0.687225 30.102905 0.692444 30.097717 C 3.115021 29.721802 5.642014 29.523376 8.189896 29.523376 C 14.61702 29.523376 21.216461 30.802551 26.787323 33.75769 C 26.813446 33.778564 26.839539 33.783752 26.860413 33.783752 C 26.970062 33.783752 27.043152 33.601044 26.928284 33.50708 C 21.336548 30.531067 14.679672 29.231018 8.184677 29.231018 Z"/>
    <path id="Path-copy-8" fill="#ffffff" fill-rule="evenodd" stroke="none" d="M 15.948395 32.321899 C 10.742996 32.321899 5.292206 33.460083 0.749878 34.47818 C 0.593246 34.504272 0.661118 34.754883 0.812531 34.754883 C 0.817749 34.754883 0.822968 34.754883 0.83342 34.754883 C 5.360077 33.736786 10.763885 32.598572 15.937958 32.598572 C 18.804321 32.598572 21.597595 32.948425 24.129791 33.86731 C 24.145477 33.872528 24.161133 33.872528 24.17157 33.872528 C 24.307312 33.872528 24.359528 33.642822 24.187225 33.590576 C 21.644592 32.671692 18.835632 32.321899 15.948395 32.321899 Z"/>
    <path id="Path-copy-7" fill="#ffffff" fill-rule="evenodd" stroke="none" d="M 23.665131 35.214355 C 16.501831 35.214355 9.119247 38.070251 3.078476 41.542297 C 2.963608 41.631042 3.036713 41.81897 3.146347 41.81897 C 3.167236 41.81897 3.193344 41.808533 3.214218 41.787659 C 9.208008 38.346985 16.564484 35.491058 23.680786 35.491058 C 24.291656 35.491058 24.907745 35.511963 25.513397 35.558929 C 25.68045 35.558929 25.68045 35.282227 25.513397 35.282227 C 24.902527 35.235229 24.286438 35.214355 23.665131 35.214355 Z"/>
    <path id="Path-copy-6" fill="#e5e5e6" fill-rule="evenodd" stroke="none" d="M 35.349884 33.089355 C 35.073151 33.089355 34.879974 33.287781 34.879974 33.50708 C 34.879974 33.75769 35.073151 33.924744 35.349884 33.924744 C 35.626587 33.924744 35.845886 33.75769 35.845886 33.50708 C 35.845886 33.287781 35.626587 33.089355 35.349884 33.089355 Z"/>
    <path id="Path-copy-5" fill="#e5e5e6" fill-rule="evenodd" stroke="none" d="M 36.87442 34.83844 C 36.62381 34.83844 36.373199 35.005493 36.373199 35.250916 C 36.373199 35.501526 36.597717 35.668579 36.87442 35.668579 C 37.151154 35.668579 37.370422 35.501526 37.370422 35.250916 C 37.370422 35.031616 37.119812 34.83844 36.87442 34.83844 Z"/>
    <path id="Path-copy-4" fill="#e5e5e6" fill-rule="evenodd" stroke="none" d="M 38.117035 33.089355 C 37.840332 33.089355 37.647125 33.287781 37.647125 33.50708 C 37.647125 33.75769 37.840332 33.924744 38.117035 33.924744 C 38.398987 33.924744 38.618256 33.75769 38.618256 33.50708 C 38.618256 33.287781 38.398987 33.089355 38.117035 33.089355 Z"/>
    <path id="Path-copy-3" fill="#ffffff" fill-rule="evenodd" stroke="none" d="M 54.22403 29.126587 C 47.70813 29.126587 41.040833 30.442291 35.433411 33.423523 C 35.266327 33.47052 35.344635 33.663696 35.490845 33.663696 C 35.516937 33.663696 35.54306 33.658447 35.569153 33.64801 C 41.155701 30.703369 47.749908 29.40332 54.192688 29.40332 C 56.730133 29.40332 59.246674 29.606934 61.664032 29.988068 C 61.674469 29.988068 61.679688 29.993286 61.690125 29.993286 C 61.841553 29.993286 61.909424 29.737457 61.747559 29.711365 C 59.314545 29.3302 56.782349 29.126587 54.22403 29.126587 Z"/>
    <path id="Path-copy-2" fill="#ffffff" fill-rule="evenodd" stroke="none" d="M 46.408081 32.180908 C 43.515625 32.180908 40.696228 32.530701 38.148376 33.449646 C 37.996948 33.501831 38.049164 33.736786 38.184906 33.736786 C 38.200562 33.736786 38.216248 33.731567 38.231903 33.726349 C 40.758881 32.807434 43.557373 32.457642 46.423737 32.457642 C 51.59259 32.457642 57.001617 33.601044 61.52829 34.613922 C 61.533508 34.619141 61.543945 34.619141 61.549164 34.619141 C 61.700592 34.619141 61.768463 34.363312 61.611816 34.337219 C 57.069489 33.324341 51.618713 32.180908 46.408081 32.180908 Z"/>
    <path id="Path-copy" fill="#ffffff" fill-rule="evenodd" stroke="none" d="M 38.691345 35.078613 C 38.075256 35.078613 37.459167 35.099487 36.843109 35.141235 C 36.634247 35.167358 36.676025 35.423187 36.822205 35.423187 C 36.827423 35.423187 36.83786 35.417969 36.843109 35.417969 C 37.453949 35.376221 38.070038 35.355316 38.680908 35.355316 C 45.797211 35.355316 53.153687 38.211243 59.147491 41.651917 C 59.168365 41.672791 59.194458 41.67804 59.215363 41.67804 C 59.325012 41.67804 59.398102 41.4953 59.283234 41.401306 C 53.216339 37.934509 45.854645 35.078613 38.691345 35.078613 Z"/>
</svg>
