<?xml version="1.0" encoding="UTF-8"?>
<!-- Generated by Pixelmator Pro 3.4.1 -->
<svg width="80" height="80" viewBox="0 0 100 100" xmlns="http://www.w3.org/2000/svg">
    <path id="Path-copy-15" fill="#ffffff" fill-rule="evenodd" stroke="none" d="M 47.147766 15.866913 C 39.070618 15.866913 31.649658 18.686798 25.767548 23.287659 C 14.823578 31.372345 12.253571 43.432953 5.043518 49.353912 C 0.278473 53.25174 0.52063 61.164581 6.285553 69.952271 C 12.089539 78.825897 30.532593 84.957764 47.147766 85.082733 C 66.254822 85.082733 81.760742 69.624207 81.760742 50.478729 C 81.760742 31.372345 66.254822 15.866913 47.147766 15.866913 Z"/>
    <path id="Path-copy-14" fill="#b7b7b7" fill-rule="evenodd" stroke="none" d="M 47.108276 15.827881 C 40.687195 15.827881 34.719177 17.608856 29.532318 20.592743 C 29.243286 24.779602 25.392181 35.020203 22.572205 37.793213 C 19.799103 40.613068 22.447235 43.511078 28.290253 43.761017 C 34.133301 44.010986 32.891266 59.508575 44.702332 67.757294 C 44.749207 65.398285 44.749207 61.414551 43.007233 58.266602 L 43.007233 58.266602 C 45.530365 61.047394 53.615295 71.280182 56.349335 72.983063 C 56.724304 71.280182 60.208252 63.406403 55.2323 56.235657 L 55.2323 56.235657 C 57.4664 57.399536 61.700256 60.211609 64.020294 61.336426 C 64.387421 59.469513 65.301392 57.938507 65.176392 57.188629 L 65.176392 57.188629 C 67.129272 59.469513 71.480316 66.804321 71.769348 68.585297 C 72.222412 66.304413 72.597382 64.148499 72.433319 62.828369 L 72.433319 62.828369 C 73.839417 63.695435 73.761292 67.42923 75.58139 70.038208 C 79.432465 64.484375 81.635345 57.688538 81.635345 50.431854 C 81.71344 31.32547 66.215332 15.827881 47.108276 15.827881 Z"/>
    <path id="Path-copy-13" fill="#b7b7b7" fill-rule="evenodd" stroke="none" d="M 43.655151 1.806549 C 40.936737 1.806549 40.491455 14.69516 40.889862 18.850769 C 44.873749 23.795319 53.130554 27.005737 61.41861 27.005737 C 64.262024 27.005737 67.105408 26.630798 69.776978 25.818451 C 63.230896 16.452698 51.208923 6.212097 43.959808 1.861237 C 43.850433 1.829987 43.748871 1.806549 43.655151 1.806549 Z"/>
    <path id="Path-copy-12" fill="#252a2f" fill-rule="evenodd" stroke="none" d="M 25.806122 38.66037 C 24.064148 38.66037 22.658081 40.074219 22.658081 41.855194 C 22.658081 43.597107 24.064148 45.003143 25.806122 45.003143 C 27.587158 45.003143 28.954193 43.597107 28.954193 41.855194 C 28.954193 40.074219 27.587158 38.66037 25.806122 38.66037 Z"/>
    <path id="Path-copy-11" fill="#e28086" fill-rule="evenodd" stroke="none" d="M 2.731293 49.721222 C 2.340729 49.721222 1.950134 49.768066 1.598633 49.854004 C 0.028503 50.353912 1.145569 55.243774 2.184479 55.243774 C 3.262482 55.243774 4.918549 52.876953 4.918549 51.017883 C 4.918549 50.096161 3.832733 49.721222 2.731293 49.721222 Z"/>
    <path id="Path-copy-10" fill="#e28086" fill-rule="evenodd" stroke="none" d="M 42.592773 2.775146 C 40.8508 6.212128 40.514893 15.249786 40.928925 18.850769 C 43.787933 21.740936 45.764252 22.904846 47.060974 22.904846 C 52.302521 22.904846 46.537598 4.032776 42.592773 2.775146 Z"/>
    <path id="Path-copy-9" fill="#a3a6aa" fill-rule="evenodd" stroke="none" d="M 41.054077 55.821838 L 42.632019 58.516754 C 42.671082 58.587036 42.717957 58.657349 42.749207 58.727661 L 42.749207 58.727661 L 42.717957 58.766693 C 42.749207 58.805756 42.788239 58.844818 42.827301 58.883881 L 42.827301 58.883881 C 43.100708 59.422852 43.29599 60.024323 43.460052 60.625793 C 43.670959 61.414734 43.834991 62.203674 43.999054 62.992615 C 44.084961 63.73468 44.209961 64.570496 44.249023 65.351624 C 44.27243 65.8125 44.311493 66.281158 44.311493 66.734222 L 44.311493 66.734222 C 43.491302 66.070251 42.655457 65.554718 41.803986 64.984497 C 40.726013 64.273651 39.608948 63.609711 38.445038 62.906677 C 37.327972 62.203674 36.164063 61.586578 35.046997 60.922607 C 34.468964 60.586731 33.883087 60.211792 33.305023 59.922791 C 32.766022 59.594696 32.187988 59.219757 31.609924 58.891693 L 31.609924 58.891693 C 32.562927 59.883728 33.64093 60.625793 34.718933 61.586578 C 35.750031 62.414581 36.828033 63.117584 37.945099 63.906525 L 41.179077 66.101501 L 42.835114 67.179474 C 43.374115 67.554413 43.959991 67.882477 44.413055 68.257416 L 45.202026 68.874512 L 45.241089 67.968414 C 45.326996 67.054474 45.326996 66.226471 45.287933 65.398499 C 45.241089 64.570496 45.077026 63.73468 44.991119 62.906677 C 44.881744 62.148987 44.694275 61.461609 44.506805 60.711731 L 44.506805 60.711731 C 44.967682 61.281952 45.451996 61.852173 45.90506 62.453644 L 49.014069 66.390533 C 50.052979 67.67157 51.130981 69.046356 52.248047 70.288361 C 52.787018 70.905457 53.365082 71.569397 53.990021 72.14743 C 54.318085 72.444275 54.607117 72.772339 54.982086 73.022308 C 55.192993 73.147278 55.396088 73.272278 55.606995 73.397247 C 55.810089 73.561279 56.060059 73.639404 56.435028 73.639404 L 56.888092 73.686249 L 56.927155 73.18634 C 57.013092 72.3974 57.302094 71.491302 57.513031 70.655487 C 57.716125 69.74939 57.966095 68.874512 58.177002 68.007446 C 58.380096 67.054474 58.591003 66.179626 58.669128 65.273499 C 58.684753 64.953247 58.692566 64.632996 58.684753 64.304901 L 58.684753 64.304901 C 59.512787 65.359436 60.30954 66.484253 61.161011 67.593475 C 61.778137 68.382385 62.403046 69.124481 63.145142 69.874359 C 63.89505 70.577362 64.762146 71.194458 65.762024 71.608459 L 66.37912 71.944336 L 66.418182 71.155396 C 66.465057 70.327423 66.590027 69.460358 66.629089 68.58548 C 66.668152 67.67157 66.754089 66.804535 66.754089 65.937469 C 66.793152 64.984497 66.754089 64.109619 66.629089 63.242584 C 66.543182 62.367706 66.340057 61.414734 65.926056 60.625793 L 65.926056 60.625793 C 66.176025 61.461609 66.176025 62.367706 66.176025 63.242584 C 66.176025 64.109619 66.051056 64.937622 65.965118 65.8125 C 65.840118 66.640472 65.715149 67.554413 65.590149 68.421448 C 65.535492 69.030731 65.457367 69.640015 65.426117 70.272736 L 65.426117 70.272736 C 64.879303 69.944672 64.355927 69.546295 63.89505 69.085419 C 63.231079 68.421448 62.60614 67.67157 61.989044 66.929504 C 60.786072 65.351624 59.708069 63.656586 58.301971 62.164612 L 56.59906 60.211792 L 57.466156 62.656738 C 57.497406 62.734833 57.520844 62.812958 57.544281 62.88324 L 57.544281 62.88324 L 57.513031 62.906677 C 57.528656 62.930115 57.552063 62.953552 57.5755 62.97699 L 57.5755 62.97699 C 57.755188 63.648773 57.755188 64.390839 57.716125 65.101654 C 57.677063 65.976532 57.513031 66.804535 57.302094 67.67157 C 57.098999 68.58548 56.888092 69.413483 56.638123 70.288361 C 56.474091 70.944489 56.231934 71.592834 56.099121 72.350525 L 56.099121 72.350525 C 55.966339 72.280243 55.825714 72.194305 55.68512 72.108398 C 55.396088 71.819366 55.146118 71.569397 54.818024 71.319458 C 54.193115 70.741394 53.700989 70.116516 53.115112 69.49942 C 52.037109 68.257416 51.006012 66.968567 49.967072 65.6875 L 46.858063 61.75061 C 46.319061 61.047607 45.819122 60.383636 45.241089 59.758728 C 44.663025 59.13385 44.084961 58.477692 43.42099 57.891846 L 41.054077 55.821838 Z"/>
    <path id="Path-copy-8" fill="none" stroke="none" d="M 9.80835 50.432037 C 12.331482 49.604034 27.423401 51.017883 31.610382 52.962891"/>
    <path id="Path-copy-7" fill="none" stroke="#c1c4c6" stroke-width="0.181102" d="M 9.80835 50.432037 C 12.331482 49.604034 27.423401 51.017883 31.610382 52.962891"/>
    <path id="Path-copy-6" fill="none" stroke="none" d="M 8.441376 52.962921 C 11.628479 53.751862 25.767365 58.180847 30.571472 61.336609"/>
    <path id="Path-copy-5" fill="none" stroke="#c1c4c6" stroke-width="0.181102" d="M 8.441376 52.962921 C 11.628479 53.751862 25.767365 58.180847 30.571472 61.336609"/>
    <path id="Path-copy-4" fill="none" stroke="none" d="M 7.488373 57.14978 C 9.472504 58.477692 22.947418 67.67157 25.806458 71.077301"/>
    <path id="Path-copy-3" fill="none" stroke="#c1c4c6" stroke-width="0.181102" d="M 7.488373 57.14978 C 9.472504 58.477692 22.947418 67.67157 25.806458 71.077301"/>
    <path id="Path-copy-2" fill="#a3a6aa" fill-rule="evenodd" stroke="none" d="M 55.356689 38.66037 L 55.356689 38.66037 C 55.809753 40.035156 56.27063 41.316223 56.637787 42.644135 C 56.809631 43.347137 56.926788 44.011108 57.051788 44.675049 C 57.083038 45.081238 57.137726 45.495239 57.153351 45.917053 L 57.153351 45.917053 L 53.075714 44.050171 L 50.630707 42.972198 C 49.841736 42.59726 49.013702 42.269196 48.224731 41.855194 L 48.224731 41.855194 C 48.927765 42.480103 49.638641 42.933136 50.505707 43.433075 C 51.255615 43.925171 52.036774 44.386047 52.786682 44.800049 C 53.575653 45.253082 54.356812 45.628052 55.145782 46.042023 C 55.895691 46.456024 56.684631 46.784119 57.512665 47.159058 L 58.254761 47.494934 L 58.254761 46.705994 C 58.254761 45.917053 58.176636 45.21405 58.051666 44.464172 C 57.879822 43.761139 57.676697 43.058136 57.426727 42.394165 C 56.887756 41.066254 56.184692 39.824249 55.356689 38.66037 Z"/>
    <path id="Path-copy" fill="#b7b7b7" fill-rule="evenodd" stroke="none" d="M 44.623718 12.054993 L 44.623718 12.054993 C 45.076782 12.804871 47.685852 14.663971 47.685852 15.249817 C 47.685852 15.327942 47.638977 15.359161 47.55304 15.359161 C 46.982819 15.359161 44.858063 14 44.287811 14 C 44.272217 14 44.256592 14 44.248779 14.007813 C 45.326752 14.624908 47.560852 16.616791 47.896759 17.319794 C 47.881134 17.366669 47.849884 17.390106 47.810822 17.390106 C 47.592102 17.390106 47.029694 16.86676 46.654724 16.86676 L 46.654724 16.86676 C 47.146851 17.319794 47.810822 18.108734 47.52182 18.561798 C 47.498383 18.593048 47.467133 18.600861 47.420258 18.600861 C 46.771912 18.600861 43.826935 15.929413 43.131714 14.960785 L 43.131714 14.960785 C 43.256714 15.913788 47.52182 20.842712 47.52182 21.834717 C 46.896881 21.670685 44.451874 18.108734 43.545715 18.06189 L 43.545715 18.06189 C 44.373749 18.522736 45.240845 20.967682 46.029816 22.420563 C 45.240845 21.795685 44.248779 19.76474 43.045776 19.264832 L 43.045776 19.264832 C 43.256714 19.889709 43.834747 20.967682 43.545715 22.78772 C 43.475433 23.389191 45.842316 23.771942 47.271851 23.771942 C 47.623352 23.771942 47.912384 23.748505 48.099854 23.70163 C 51.927521 23.334503 49.591858 13.296997 49.146606 13.296997 L 49.146606 13.296997 C 49.146606 13.296997 49.138794 13.296997 49.138794 13.296997 C 49.107544 13.312622 49.068481 13.312622 49.013824 13.312622 C 48.263916 13.312622 45.084595 12.289337 44.623718 12.054993 Z"/>
</svg>
