<?xml version="1.0" encoding="UTF-8"?>
<!-- Generated by Pixelmator Pro 3.4.1 -->
<svg width="80" height="80" viewBox="0 0 100 100" xmlns="http://www.w3.org/2000/svg">
    <path id="Path-copy-12" fill="#dfd0c0" fill-rule="evenodd" stroke="none" d="M 30.613876 11.824982 C 25.495117 11.824982 20.779709 13.582336 17.034271 16.540131 C 10.081215 21.711426 8.808739 26.858704 4.222977 30.62793 C 1.217026 33.095947 2.359863 37.633423 4.986465 43.721832 C 8.069244 50.751343 20.069031 55.744995 30.613876 55.845825 C 42.796127 55.845825 52.630295 45.964172 52.630295 33.835388 C 52.630295 21.6586 42.767319 11.824982 30.613876 11.824982 Z"/>
    <path id="Path-copy-11" fill="#e3811e" fill-rule="evenodd" stroke="none" d="M 30.666687 11.800964 C 29.672714 11.800964 28.702744 11.877808 27.737579 12.002625 C 23.838486 12.511597 20.11705 14.091309 17.063095 16.511292 C 16.832596 16.664978 16.602112 16.871429 16.400436 17.025085 C 14.868652 18.321503 13.317657 23.007843 16.400436 25.912781 C 18.417206 27.775818 18.950211 30.330261 20.093048 30.330261 C 20.621246 30.330261 21.283905 29.778076 22.282684 28.361603 C 24.496338 25.24057 22.796478 16.17041 31.886353 16.17041 C 32.222488 16.17041 32.568222 16.179993 32.933167 16.208801 C 33.903137 16.27124 34.671432 16.300049 35.271652 16.300049 C 36.587357 16.300049 37.096359 16.160797 37.110764 15.954346 L 40.808167 17.505249 C 42.844147 19.291412 42.512833 26.829895 48.577545 30.373474 C 48.980896 30.603943 49.384262 30.704773 49.773209 30.704773 C 50.675949 30.704773 51.501862 30.133362 52.145309 29.225891 C 50.056519 19.291412 41.240341 11.800964 30.666687 11.800964 Z"/>
    <path id="Path-copy-10" fill="#34383e" fill-rule="evenodd" stroke="none" d="M 28.462646 1.429565 C 26.72438 1.429565 26.445877 11.018311 26.690765 13.683167 C 29.221344 16.861816 34.493759 18.916901 39.780579 18.916901 C 41.571671 18.916901 43.367554 18.681641 45.062607 18.167847 C 40.88501 12.209106 33.216461 4.25769 28.630707 1.458374 C 28.57309 1.439148 28.515472 1.429565 28.462646 1.429565 Z"/>
    <path id="Path-copy-9" fill="#252a2f" fill-rule="evenodd" stroke="none" d="M 17.087097 26.34494 C 15.992279 26.34494 15.099136 27.238037 15.099136 28.361603 C 15.099136 29.480347 15.992279 30.373474 17.087097 30.373474 C 18.210724 30.373474 19.09906 29.480347 19.09906 28.361603 C 19.09906 27.238037 18.210724 26.34494 17.087097 26.34494 Z"/>
    <path id="Path-copy-8" fill="#9c5f56" fill-rule="evenodd" stroke="none" d="M 3.152168 31.232941 C 2.907272 31.232941 2.657578 31.261749 2.436691 31.314575 C 1.394691 31.621887 2.134178 34.728485 2.868858 34.752502 C 3.531509 34.752502 4.578308 33.225586 4.578308 32.054016 C 4.578308 31.468201 3.867638 31.232941 3.152168 31.232941 Z"/>
    <path id="Path-copy-7" fill="none" stroke="none" d="M 6.945618 33.835388 C 8.525421 33.302429 18.157913 34.219513 20.779709 35.467926"/>
    <path id="Path-copy-6" fill="none" stroke="#252a2f" stroke-width="0.181102" d="M 6.945618 33.835388 C 8.525421 33.302429 18.157913 34.219513 20.779709 35.467926"/>
    <path id="Path-copy-5" fill="none" stroke="none" d="M 6.465431 34.728485 C 8.501411 35.237457 17.139923 38.781006 20.193893 40.740051"/>
    <path id="Path-copy-4" fill="none" stroke="#252a2f" stroke-width="0.181102" d="M 6.465431 34.728485 C 8.501411 35.237457 17.139923 38.781006 20.193893 40.740051"/>
    <path id="Path-copy-3" fill="none" stroke="none" d="M 5.80278 37.378967 C 7.075264 38.195221 15.27681 44.792603 17.087097 46.929291"/>
    <path id="Path-copy-2" fill="none" stroke="#252a2f" stroke-width="0.181102" d="M 5.80278 37.378967 C 7.075264 38.195221 15.27681 44.792603 17.087097 46.929291"/>
    <path id="Path-copy" fill="#44484d" fill-rule="evenodd" stroke="none" d="M 27.761581 2.068176 C 26.690765 4.25769 26.48909 11.445648 26.719589 13.683167 C 27.170959 14.259369 27.535889 14.509064 27.824005 14.509064 C 29.730331 14.509064 28.294586 3.527863 27.761581 2.068176 Z"/>
</svg>
