<svg width="80" height="80" viewBox="0 0 100 100" xmlns="http://www.w3.org/2000/svg">
  <path
    d="M87.06 44.56c0 35.23-21.8 37.8-42.69 37.8S6.53 65.41 6.53 44.56C15.41 17.42 23.48 6.73 44.37 6.73s42.69 2.53 42.69 37.84z"
    fill="#d49456" fill-rule="evenodd" />
  <path
    d="M44.37 82.32C28.62 82.15 13 74.86 6.69 63.63c-.99-1.78-4.55-9.24-4.93-10.98C.1 41.17.27 42.62 5.49 38.35c7.96-6.51 6.63-17.82 19.61-26.48l19.27 70.46z"
    fill="#d49456" fill-rule="evenodd" />
  <path
    d="M8.6 57.04l-1.98 6.09c-6.3-2.9-6.22-8.91-5.1-14.17 0 3.77 7.05 8.08 7.09 8.08H8.6zM7.65 37.77l-6.38 8.75c-.58-3.9.46-6.09.87-8.12.21-1.03 1.52-1.41 2.83-1.41s2.5.35 2.68.78z"
    fill="#d49456" fill-rule="evenodd" />
  <path
    d="M2.27 42.99c-.34 4.72.41 8.04 2.07 9.78.87.95 2.06 1.45 3.48 1.45h.17c.37 0 .74.34.74.66 0 .46-.33.75-.66.75h-.12c-1.83 0-3.41-.62-4.6-1.83C1.36 51.73.53 48.04.86 42.94c0-.41.29-.7.7-.7s.71.37.71.75z"
    fill="#aa743e" fill-rule="evenodd" />
  <path
    d="M4.25 39.51c0 1.66-1.7 3.81-2.77 3.81-1.16 0-2.32-4.35-.62-4.76.36-.09.78-.14 1.2-.14 1.11 0 2.2.34 2.2 1.09h-.01z"
    fill="#895f3a" fill-rule="evenodd" />
  <path d="M95.44 51.53c-3.43 7.64-13.65 30.63-43.32 30.63h-.32l33.07-54.37c1.2 4.85 4.98 20.31 10.57 23.75z"
    fill="#d49456" fill-rule="evenodd" />
  <path d="M23.73 38.14c0 1.7-1.41 3.15-3.15 3.15s-3.15-1.45-3.15-3.15 1.37-3.19 3.15-3.19 3.15 1.41 3.15 3.19z"
    fill="#252a2f" fill-rule="evenodd" />
  <path
    d="M68.37 24.79c.09.25.25.59.41.91.21.29.34.66.54 1.08.41.83.91 1.74 1.45 2.73.29.5.54 1.04.83 1.53.29.54.58 1.04.91 1.58.29.5.54 1.04.87 1.53.29.54.59 1.04.87 1.54.33.45.58.91.83 1.41.33.41.54.83.79 1.24.24.34.45.7.66 1.04.21.29.37.58.54.83.34.37.5.66.5.66s-.25-.21-.7-.54c-.41-.29-.99-.87-1.62-1.53-.33-.37-.66-.75-.99-1.16-.29-.41-.66-.87-1-1.33-.7-.95-1.32-1.98-1.95-3.06-.33-.59-.62-1.08-.87-1.66-.34-.54-.54-1.08-.79-1.61-.25-.5-.41-1.04-.62-1.54-.2-.54-.33-.99-.45-1.45-.29-.91-.41-1.7-.5-2.24-.04-.5-.04-.83-.04-.83s.12.25.33.87zM48.93 30.93c0 .08.04.29.04.49.04.5.12 1.16.04 1.95 0 .74-.04 1.7-.2 2.69-.09.95-.29 1.99-.54 3.03-.12.49-.29.99-.45 1.53-.12.5-.34.95-.5 1.45-.16.49-.37.91-.58 1.33-.21.41-.41.78-.62 1.16-.2.29-.41.62-.62.87-.2.24-.41.45-.53.62-.37.29-.59.46-.59.46s.16-.21.37-.62c.09-.16.13-.45.29-.7.13-.29.21-.62.37-1 .16-.37.25-.78.41-1.2.09-.42.2-.87.38-1.33.25-.95.49-1.95.74-2.91.54-2.03 1.04-4.06 1.41-5.55.2-.74.37-1.37.45-1.82.13-.45.16-.7.16-.7s0 .04-.04.25zM63.31 41.83c.12.2.29.5.5.74.2.25.41.59.66.87.24.33.49.66.83.99l.99 1c.33.29.7.66 1.12.95.41.33.83.7 1.24.95.41.29.87.58 1.29.83.5.2.91.45 1.37.66.45.16.87.41 1.28.54.41.13.84.29 1.2.41.37.08.7.2 1.04.29.29.08.58.12.83.16.45.12.7.16.7.16s-.25.05-.62.21c-.25 0-.54.04-.87.04-.29 0-.7 0-1.12-.04-.41-.09-.91-.12-1.37-.21-.5-.12-.99-.29-1.49-.41-.45-.16-.99-.37-1.49-.62-.5-.34-.99-.54-1.45-.91-.49-.29-.95-.66-1.37-1.04-.25-.12-.41-.33-.62-.54-.21-.16-.42-.37-.59-.58-.2-.21-.33-.41-.49-.62-.17-.2-.25-.41-.41-.62-.25-.41-.46-.83-.66-1.2-.46-.79-.66-1.45-.75-1.91-.08-.25-.08-.45-.08-.58v-.21s.08.25.33.66v.03zM6.95 36.94c1.91 1.12 3.69 2.73 4.44 10.15 0 .16-.16.37-.37.37s-.37-.12-.33-.37c-.71-7.05-2.32-8.54-4.11-9.58a.454.454 0 01-.08-.5c.08-.08.18-.14.28-.14.05 0 .12.02.17.06z"
    fill="#aa743e" fill-rule="evenodd" />
  <path
    d="M48.97 0c2.95.21 17 8.42 16.7 12.72-1.37.98-4.66 1.23-7.8 1.23-1.95 0-3.84-.1-5.17-.2-3.4-.25-10.62-1.2-12.6-3.11C40.43 6.52 45.8 0 48.79 0h.19z"
    fill="#d49456" fill-rule="evenodd" />
  <path
    d="M48.93.88c2.86 1.74 2.45 10.11 2.86 12.8-3.69-.37-9.91-1.24-11.69-3.02 0-.04 5.14-9.97 8.16-9.97.23 0 .46.06.66.19z"
    fill="#e4b587" fill-rule="evenodd" />
  <path
    d="M25.31 34.28c.83 0 1.57.05 2.27.05.37 0 .66.08.91.08h1.37s-.2.09-.54.29c-.2.12-.41.21-.66.25-.24.09-.58.16-.95.21-.29.12-.7.16-1.08.2l-1.24.16c-.87.05-1.74.12-2.69.17-.91 0-1.82 0-2.7-.05-.83-.08-1.66-.16-2.32-.29-.66-.08-1.24-.25-1.66-.33-.41-.16-.62-.21-.62-.21s.2-.08.62-.12c.41 0 .99-.08 1.66-.16.66-.04 1.49-.08 2.32-.12.42 0 .84-.08 1.29-.08.5-.05.91-.05 1.37-.05h2.66zM35.88 49.54c0 .12-.09.33-.13.54-.05.2-.09.49-.21.74-.08.25-.2.5-.37.83-.13.3-.29.66-.49.91-.21.29-.41.58-.62.91-.2.29-.45.62-.74.87l-.75.79c-.29.25-.58.5-.83.7-.33.25-.58.41-.83.62-.25.2-.45.37-.75.54-.45.29-.87.5-1.12.66-.33.16-.45.25-.45.25s.04-.21.25-.46c.2-.33.45-.66.83-1.08.37-.41.79-.91 1.24-1.41.25-.25.45-.54.7-.79.29-.25.5-.5.75-.79.24-.25.49-.49.7-.74.2-.29.49-.54.7-.79s.33-.54.54-.75c.2-.24.41-.45.58-.66.34-.46.59-.84.79-1.08.21-.25.29-.41.29-.41s-.04.2-.08.58v.02zM14.57 51.53c.5.45 1.04.87 1.62 1.28.54.41 1.12.79 1.74 1.12.34.12.62.29.95.41.12.09.29.09.46.13.16 0 .29 0 .45.09v.06c.07 0 .14 0 .21.02.21.09.34.21.3.37-.07.16-.16.27-.27.27-.03 0-.07 0-.1-.02-.21-.04-.41-.04-.58-.09-.05-.03-.09-.05-.14-.08l-.52.08-1.16.09c-.33.04-.7.04-1.12.04h-.16c.12.17.2.29.33.41.09.17.21.3.25.41.16.3.29.59.41.91.16.29.25.62.29.91.21.62.29 1.33.41 1.87.09.33.16.58.29.83.05.13.09.2.21.33.04.16.12.16.25.25l.04.04c.12.05.12.17.12.25 0 .16-.16.28-.32.29l-.02.05s-.05-.04-.07-.05c-1.22-.16-2.48-.41-3.69-.82-.34-.13-.59-.2-.87-.37-.29-.16-.58-.37-.83-.49l-.41-.34-.37-.29-.33-.37-.25-.41.33.34.34.37.37.33.41.25c.58.37 1.16.58 1.78.7.98.3 1.96.46 2.97.55-.05-.07-.09-.14-.15-.22-.12-.34-.25-.62-.34-.96-.16-.62-.29-1.24-.41-1.78-.08-.33-.16-.62-.29-.91-.09-.25-.21-.5-.33-.75-.12-.13-.17-.29-.3-.37-.04-.16-.12-.24-.24-.37l-.62-.62s-.07-.07-.08-.16v-.05c0-.12.12-.27.28-.29l.13-.16c.06.05.12.11.17.16h.08c.09.05.17.05.25.05h.54c.41 0 .75-.05 1.12-.05l.63-.02c-.16-.08-.32-.16-.46-.22-.59-.37-1.16-.79-1.7-1.25-.54-.45-1.04-.95-1.53-1.49-.25-.24-.46-.54-.66-.83-.21-.25-.41-.54-.58-.87.37.58.83 1.12 1.2 1.45h-.03z"
    fill="#aa743e" fill-rule="evenodd" />
  <path
    d="M94.56 42.2zm-.21.02c.07 0 .14 0 .21-.02-1.26.27-3.5 1.44-6.27 1.44-1.09 0-2.24-.18-3.46-.65l1.41-7.92c1.99 2.98 6.27 7.16 8.12 7.16h-.01zM85.66 64.96l3.02-5.39c2.78-.09 5.23-1.41 5.88-1.74-.87 2.94-5.05 6.76-8.91 7.13h.01z"
    fill="#d49456" fill-rule="evenodd" />
  <path
    d="M71.4 67.03c0 .08 0 .33-.09.54-.13.2-.16.45-.33.7-.13.25-.3.58-.5.87-.21.34-.46.71-.75 1-.24.37-.54.66-.87 1.03-.37.37-.66.75-1.04 1.04-.37.34-.7.66-1.12.99-.41.37-.79.66-1.2.91-.38.34-.79.58-1.2.83-.83.5-1.62.91-2.28 1.2-.66.34-1.28.54-1.7.62-.41.04-.66.12-.66.12s.21-.17.5-.37c.16-.16.37-.34.62-.46.21-.16.46-.37.79-.58.29-.2.58-.45.91-.74.33-.25.7-.54 1.03-.83.75-.54 1.54-1.16 2.24-1.79.74-.62 1.49-1.24 2.2-1.82.29-.25.66-.58.95-.83.34-.25.62-.54.91-.79.29-.2.5-.45.7-.66.21-.2.37-.41.54-.58.12-.16.25-.34.29-.41.05-.12.13-.16.13-.16s-.08.08-.08.16h.01zM25.68 17.04c-.08.04-.16.21-.33.29-.09.16-.21.34-.38.5-.12.12-.29.29-.45.5l-.46.62c-.37.41-.74.87-1.08 1.37-.74.91-1.53 1.78-2.07 2.49-.33.29-.58.54-.74.74-.17.21-.25.34-.25.34s.2-.59.66-1.37c.45-.74 1.16-1.73 1.87-2.69.37-.41.7-.87 1.16-1.29.21-.2.34-.41.54-.58.21-.12.41-.29.58-.46.17-.08.29-.24.46-.37.16-.05.33-.12.41-.21.2-.16.37-.2.37-.2l-.3.33zM53.86 65.41c0 .33-.08.79-.13 1.37-.08 1.12-.29 2.66-.58 4.15-.25 1.49-.62 2.98-.87 4.1-.17.54-.25 1.03-.37 1.33l-.13.54v-.54c0-.37.04-.83.09-1.41.12-1.08.33-2.57.58-4.06.25-1.45.62-2.98.87-4.06.17-.58.25-1.03.37-1.32.09-.37.16-.54.16-.54v.45h.01zM24.98 67.9c.54.37 1.16.79 1.83 1.24.37.21.66.41 1.03.66.34.21.66.5 1.04.71.66.45 1.41.87 2.07 1.24.34.16.66.33 1 .49.29.17.62.34.91.41.34.17.59.3.83.34.21.08.41.16.62.2.37.09.58.17.58.17s-.25.04-.62.08c-.21.05-.46.05-.71.05-.29 0-.62 0-.95-.05-.16 0-.37 0-.49-.04-.21 0-.37-.04-.59-.12-.41-.04-.78-.21-1.2-.33-.41-.17-.84-.34-1.2-.54-.34-.21-.75-.41-1.12-.66-.78-.54-1.45-1.04-2.07-1.62-.62-.5-1.16-1.08-1.62-1.54a27.3 27.3 0 01-1.41-1.73l2.07 1.03zM47.73 53.77c.04.25.04.62 0 1.08-.04.2-.04.5-.13.74-.04.25-.13.5-.2.79-.12.5-.37 1.08-.62 1.58-.25.54-.5 1.04-.87 1.53l-.46.62c-.16.2-.37.33-.49.49-.17.17-.34.34-.5.42-.16.12-.29.2-.41.24-.21.12-.37.17-.37.17s.09-.17.16-.37c.09-.12.13-.25.21-.41.13-.12.16-.29.29-.5.04-.2.13-.41.25-.62.08-.21.2-.46.29-.66.13-.3.2-.5.33-.75.09-.25.25-.45.34-.7.2-.54.54-.99.74-1.45.25-.49.46-.91.66-1.24.13-.2.21-.37.34-.54.04-.16.16-.33.2-.41.09-.25.21-.37.21-.37s.04.16.04.37h-.01z"
    fill="#aa743e" fill-rule="evenodd" />
  <path d="M19.92 57c-3.44-1.62-11.94-7.05-12.27-11.11" fill="none" />
  <path d="M19.92 57c-3.44-1.62-11.94-7.05-12.27-11.11" fill="none" stroke="#eac8aa" stroke-linecap="round"
    stroke-width=".18" />
  <path d="M15.41 58.33c-2.37-.66-7.76-7.38-7.76-8.25" fill="none" />
  <path d="M15.41 58.33c-2.37-.66-7.76-7.38-7.76-8.25" fill="none" stroke="#eac8aa" stroke-linecap="round"
    stroke-width=".18" />
  <path d="M11.1 59.41c-2.53-1.54-3.86-5.93-4.19-6.68" fill="none" />
  <path d="M11.1 59.41c-2.53-1.54-3.86-5.93-4.19-6.68" fill="none" stroke="#eac8aa" stroke-linecap="round"
    stroke-width=".18" />
</svg>