<?xml version="1.0" encoding="UTF-8"?>
<!-- Generated by Pixelmator Pro 3.4.1 -->
<svg width="80" height="80" viewBox="0 0 100 100" xmlns="http://www.w3.org/2000/svg">
    <path id="Path-copy-12" fill="#ddcfc6" fill-rule="evenodd" stroke="none" d="M 32.11261 11.872742 C 26.73938 11.872742 21.76947 13.759766 17.822327 16.842407 C 10.509155 22.23938 8.804504 28.433411 3.964233 32.404297 C 0.775818 35.030762 1.976257 39.793915 4.75177 46.165588 C 8.012207 53.550415 20.953125 58.059113 32.11261 58.164734 C 44.904724 58.164734 55.271851 47.793335 55.271851 35.030762 C 55.271851 22.215363 44.880676 11.872742 32.11261 11.872742 Z"/>
    <path id="Path-copy-11" fill="#605448" fill-rule="evenodd" stroke="none" d="M 17.236511 21.442322 C 15.551086 21.442322 13.832031 21.648773 12.420288 21.936859 C 9.183838 25.806946 7.325562 29.628967 3.964233 32.404297 C 0.804626 34.977936 1.947449 39.640259 4.626892 45.858307 C 4.910217 45.949524 5.193542 45.987946 5.472046 45.987946 C 7.55603 45.987946 9.467163 43.716797 10.230652 42.569214 C 11.450317 40.787842 13.543884 40.17804 17.870361 38.391846 C 22.201599 36.610474 25.212402 29.120026 24.141541 24.635345 C 23.589355 22.20575 20.477783 21.442322 17.236511 21.442322 Z"/>
    <path id="Path-copy-10" fill="#605448" fill-rule="evenodd" stroke="none" d="M 29.826965 0.939575 C 28.016663 0.939575 27.690125 11.066101 27.963806 13.884644 C 30.624023 17.178497 36.18457 19.32959 41.749878 19.32959 C 43.637024 19.32959 45.52417 19.084717 47.300842 18.546936 C 42.916748 12.280884 34.840088 3.897339 29.999817 0.968384 C 29.9422 0.949188 29.884583 0.939575 29.826965 0.939575 Z"/>
    <path id="Path-copy-9" fill="#252a2f" fill-rule="evenodd" stroke="none" d="M 17.870361 27.132172 C 16.69873 27.132172 15.733521 28.073273 15.733521 29.249664 C 15.733521 30.445251 16.69873 31.386353 17.870361 31.386353 C 19.046814 31.386353 20.011963 30.445251 20.011963 29.249664 C 20.011963 28.073273 19.046814 27.132172 17.870361 27.132172 Z"/>
    <path id="Path-copy-8" fill="#252a2f" fill-rule="evenodd" stroke="none" d="M 2.845398 33.038086 C 2.571716 33.038086 2.298035 33.076538 2.053101 33.143738 C 0.953491 33.45105 1.769836 36.735321 2.461243 36.735321 C 3.171936 36.735321 4.266785 35.131592 4.266785 33.907196 C 4.266785 33.297394 3.570496 33.038086 2.845398 33.038086 Z"/>
    <path id="Path-copy-7" fill="none" stroke="none" d="M 7.171875 35.030762 C 8.852539 34.444946 18.969971 35.410095 21.76947 36.735321"/>
    <path id="Path-copy-6" fill="none" stroke="#252a2f" stroke-width="0.181102" d="M 7.171875 35.030762 C 8.852539 34.444946 18.969971 35.410095 21.76947 36.735321"/>
    <path id="Path-copy-5" fill="none" stroke="none" d="M 6.278748 36.735321 C 8.420349 37.273071 17.870361 40.254883 21.082825 42.314758"/>
    <path id="Path-copy-4" fill="none" stroke="#252a2f" stroke-width="0.181102" d="M 6.278748 36.735321 C 8.420349 37.273071 17.870361 40.254883 21.082825 42.314758"/>
    <path id="Path-copy-3" fill="none" stroke="none" d="M 5.616089 39.539429 C 6.941406 40.432526 15.96405 46.621765 17.870361 48.840088"/>
    <path id="Path-copy-2" fill="none" stroke="#252a2f" stroke-width="0.181102" d="M 5.616089 39.539429 C 6.941406 40.432526 15.96405 46.621765 17.870361 48.840088"/>
    <path id="Path-copy" fill="#766756" fill-rule="evenodd" stroke="none" d="M 29.106689 1.606995 C 27.934998 3.897339 27.757324 11.488647 28.011841 13.884644 C 28.487244 14.47522 28.866577 14.734497 29.169067 14.734497 C 31.181091 14.734497 29.663696 3.157898 29.106689 1.606995 Z"/>
</svg>
