<?xml version="1.0" encoding="UTF-8"?>
<!-- Generated by Pixelmator Pro 3.4.1 -->
<svg width="80" height="80" viewBox="0 0 100 100" xmlns="http://www.w3.org/2000/svg">
    <path id="Path-copy-18" fill="#a3a6aa" fill-rule="evenodd" stroke="none" d="M 24.462341 16.347778 C 18.781738 16.347778 12.769867 19.40155 10.47937 24.116699 C 7.699127 29.796967 7.14209 28.932678 2.07135 33.057251 C 1.331879 33.619019 1.432709 40.571716 3.291016 42.381897 C 3.343842 44.53302 6.20575 46.746521 10.359344 46.746521 C 12.457733 46.746521 14.892273 46.179932 17.456451 44.753876 C 17.782959 44.571411 18.099884 44.489807 18.416809 44.489807 C 21.475586 44.489807 24.284668 52.16272 27.242584 52.16272 C 27.900452 52.16272 28.572693 52.167511 29.254547 52.167511 C 35.698639 52.167511 42.637268 52.081085 43.698486 50.328491 C 44.64444 48.724792 43.165497 44.854706 42.81015 40.648529 C 42.550842 37.897217 44.692474 34.612946 44.461975 33.081238 C 42.733307 21.696716 37.816223 16.347778 24.462341 16.347778 Z"/>
    <path id="Path-copy-17" fill="#252a2f" fill-rule="evenodd" stroke="none" d="M 12.64502 27.684265 C 11.521362 27.684265 10.628235 28.572571 10.628235 29.696136 C 10.628235 30.790894 11.521362 31.68399 12.64502 31.68399 C 13.763824 31.68399 14.656982 30.790894 14.656982 29.696136 C 14.656982 28.572571 13.763824 27.684265 12.64502 27.684265 Z"/>
    <path id="Path-copy-16" fill="#ffffff" fill-rule="evenodd" stroke="none" d="M 7.065277 43.985626 C 7.24295 44.470581 7.799957 45.363678 8.006439 45.363678 C 8.184113 45.363678 8.645081 44.523407 8.693085 44.014435 L 8.693085 44.014435 C 8.438599 44.052856 8.068848 44.086456 7.74234 44.086456 C 7.444611 44.086456 7.185303 44.057648 7.065277 43.985626 Z"/>
    <path id="Path-copy-15" fill="none" stroke="none" d="M 12.51535 42.204224 C 11.775879 43.020508 10.781891 43.63031 9.687073 43.884796 C 6.604279 44.547424 0.462738 43.505463 1.788055 35.707703"/>
    <path id="Path-copy-14" fill="none" stroke="#7f848a" stroke-width="0.181102" stroke-linecap="round" stroke-linejoin="round" d="M 12.51535 42.204224 C 11.775879 43.020508 10.781891 43.63031 9.687073 43.884796 C 6.604279 44.547424 0.462738 43.505463 1.788055 35.707703"/>
    <path id="Path-copy-13" fill="#9c5f56" fill-rule="evenodd" stroke="none" d="M 3.833649 32.884399 C 3.079742 32.884399 2.234619 32.985229 1.788055 33.081238 C 0.645203 33.38855 0.870911 37.364258 1.629578 37.364258 C 1.629578 37.364258 1.634399 37.364258 1.634399 37.364258 C 2.7052 33.974335 5.331818 34.382477 5.331818 33.340515 C 5.331818 32.994812 4.635529 32.884399 3.833649 32.884399 Z"/>
    <path id="Path-copy-12" fill="#7f848a" fill-rule="evenodd" stroke="none" d="M 19.012238 28.423706 C 19.113068 28.879883 19.141876 29.364807 19.141876 29.873779 C 19.141876 30.358765 19.089081 30.843719 18.98822 31.299866 C 18.757751 32.240967 18.402405 33.158081 17.816589 33.897522 C 17.201935 34.612946 16.414459 35.19873 15.468475 35.453247 C 14.978699 35.592468 14.4505 35.650085 13.912689 35.650085 C 13.48053 35.650085 13.038757 35.611694 12.61618 35.554077 L 12.61618 35.554077 C 13.101166 35.683716 13.562164 35.760529 14.071136 35.808533 C 14.186401 35.813354 14.296844 35.818146 14.412079 35.818146 C 14.805817 35.818146 15.199585 35.779724 15.574127 35.683716 C 16.568115 35.477234 17.456451 34.867432 18.095093 34.075195 C 18.704926 33.28772 19.089081 32.31781 19.242737 31.352661 C 19.367584 30.358765 19.343567 29.34082 19.012238 28.423706 Z"/>
    <path id="Path-copy-11" fill="#a3a6aa" fill-rule="evenodd" stroke="none" d="M 42.987823 1.784576 C 40.380432 1.784576 32.649445 8.785278 29.533081 10.893188 C 26.118958 13.188324 23.828491 15.939636 25.99411 23.098755 C 26.551117 25.033813 35.46814 28.164429 38.70459 28.447723 C 45.484772 23.478088 45.455963 21.3414 44.870148 15.709167 C 44.260315 10.02887 45.27829 3.378723 43.54483 1.952637 C 43.405579 1.837402 43.213501 1.784576 42.987823 1.784576 Z"/>
    <path id="Path-copy-10" fill="#d1d3d4" fill-rule="evenodd" stroke="none" d="M 42.133087 3.945313 C 39.914642 3.945313 33.653046 11.382935 30.627899 13.389984 C 28.438263 14.844849 26.551117 20.856445 28.058899 24.904175 C 28.159729 26.104553 35.46814 28.164429 38.656555 28.423706 C 40.284393 27.223328 41.532867 26.205383 42.450012 25.264282 C 44.361145 22.844299 44.236298 20.726807 43.852142 17.135223 C 43.290344 11.762268 44.260315 5.44339 42.579651 4.094147 C 42.459625 3.993286 42.305939 3.945313 42.133087 3.945313 Z"/>
    <path id="Path-copy-9" fill="#7f848a" fill-rule="evenodd" stroke="none" d="M 19.213928 23.353271 L 19.213928 23.353271 C 19.468414 23.607727 19.751709 23.7854 19.982208 24.063904 C 20.107056 24.217529 20.236725 24.294373 20.313538 24.472046 L 20.644867 24.880157 C 21.0242 25.441956 21.307526 26.075745 21.45639 26.738373 C 21.634033 27.42981 21.686859 28.116425 21.686859 28.827057 C 21.686859 29.518494 21.586029 30.229126 21.562012 30.915741 C 21.662842 30.589233 21.710876 30.229126 21.816528 29.873779 C 21.893341 29.518494 21.917358 29.187164 21.941376 28.827057 C 22.018188 28.116425 21.965363 27.401001 21.787689 26.690369 C 21.586029 25.974915 21.278717 25.312317 20.82254 24.750519 C 20.361572 24.164734 19.799744 23.732605 19.213928 23.353271 Z"/>
    <path id="Path-copy-8" fill="#7f848a" fill-rule="evenodd" stroke="none" d="M 24.131012 27.146484 L 24.131012 27.146484 C 24.106995 27.962769 24.082977 28.855865 24.236633 29.744141 C 24.385498 30.589233 24.716827 31.400696 25.201813 32.140137 C 25.662781 32.879578 26.296631 33.465393 26.935272 34.027161 C 27.573914 34.56012 28.207764 35.0979 28.769562 35.760529 C 28.539093 35.429199 28.284576 35.069092 28.006073 34.737793 C 27.698761 34.435303 27.39624 34.104004 27.112946 33.820679 C 26.503113 33.263702 25.89328 32.649109 25.456299 31.938477 C 25.000122 31.24704 24.716827 30.435577 24.49115 29.643311 L 24.361481 29.057526 L 24.260651 28.423706 C 24.207825 27.986755 24.207825 27.554626 24.131012 27.146484 Z"/>
    <path id="Path-copy-7" fill="#7f848a" fill-rule="evenodd" stroke="none" d="M 21.077026 34.204834 L 21.077026 34.204834 C 20.745697 34.814636 20.385559 35.376404 19.929382 35.885376 C 19.497223 36.394348 19.012238 36.879272 18.426422 37.186584 C 17.864594 37.541931 17.230774 37.743591 16.568115 37.820404 C 16.31842 37.878021 16.08313 37.90683 15.833435 37.90683 C 15.746979 37.90683 15.660553 37.90683 15.574127 37.897217 C 15.213989 37.897217 14.911469 37.820404 14.551331 37.820404 C 14.911469 37.926025 15.213989 38.026855 15.574127 38.050873 C 15.929474 38.103699 16.260803 38.103699 16.616119 38.103699 C 17.331604 38.050873 18.01825 37.849213 18.628082 37.489075 C 19.242737 37.133789 19.775726 36.624817 20.159882 36.063019 C 20.568024 35.477234 20.870544 34.843445 21.077026 34.204834 Z"/>
    <path id="Path-copy-6" fill="#7f848a" fill-rule="evenodd" stroke="none" d="M 13.48053 26.488708 C 13.206818 26.488708 12.933105 26.522278 12.669006 26.589539 C 12.361694 26.690369 12.030365 26.815186 11.775879 27.021667 C 11.521362 27.199341 11.266876 27.42981 11.11322 27.708282 C 11.367706 27.53064 11.651031 27.352966 11.876709 27.223328 C 12.160034 27.09848 12.438538 26.968842 12.74585 26.916016 C 13.355682 26.767181 13.941498 26.714355 14.580139 26.690369 C 14.239227 26.555908 13.859863 26.488708 13.48053 26.488708 Z"/>
    <path id="Path-copy-5" fill="#7f848a" fill-rule="evenodd" stroke="none" d="M 40.692535 31.429504 C 40.644531 31.909668 40.567688 32.394623 40.538879 32.879578 L 40.361206 34.305664 C 40.236359 35.246765 40.130707 36.240692 40.10672 37.210602 C 40.058685 38.151733 40.10672 39.14563 40.284393 40.091553 C 40.361206 40.3172 40.385223 40.571716 40.438049 40.802185 C 40.514862 41.032654 40.567688 41.28714 40.668518 41.4888 L 40.999847 42.180237 C 41.100677 42.35791 41.254364 42.588379 41.379211 42.766022 C 41.278351 42.588379 41.153503 42.35791 41.047882 42.127411 L 40.822174 41.464783 C 40.769379 41.234314 40.692535 40.979858 40.644531 40.778168 C 40.567688 40.547699 40.538879 40.293213 40.514862 40.062744 C 40.385223 39.121643 40.361206 38.151733 40.385223 37.210602 C 40.414032 36.240692 40.514862 35.299561 40.567688 34.329651 C 40.644531 33.38855 40.745361 32.394623 40.692535 31.429504 Z"/>
    <path id="Path-copy-4" fill="#7f848a" fill-rule="evenodd" stroke="none" d="M 25.609955 36.115845 L 25.609955 36.115845 C 26.224609 36.90332 26.551117 37.849213 26.810425 38.790314 C 27.112946 39.707428 27.266602 40.701355 27.497101 41.695251 C 27.521088 40.677338 27.39624 39.683411 27.141754 38.689484 C 27.012115 38.228516 26.810425 37.743591 26.551117 37.287415 C 26.296631 36.855286 25.99411 36.447144 25.609955 36.115845 Z"/>
    <path id="Path-copy-3" fill="#7f848a" fill-rule="evenodd" stroke="none" d="M 22.22467 40.600525 C 22.65683 40.778168 22.810486 41.210327 22.959351 41.594421 C 23.113007 41.973755 23.242645 42.381897 23.343506 42.814026 C 23.573975 43.63031 23.799683 44.470581 24.082977 45.286865 C 24.361481 46.127136 24.716827 46.914581 25.201813 47.654022 C 25.662781 48.369446 26.272614 49.056091 27.012115 49.48822 C 26.680786 49.209717 26.373444 48.878418 26.042145 48.599945 C 25.787628 48.292633 25.533142 47.937317 25.355469 47.553192 C 24.947327 46.813751 24.615997 46.026306 24.337494 45.234039 C 24.05896 44.393738 23.828491 43.606293 23.545166 42.766022 C 23.420319 42.35791 23.266663 41.949768 23.088989 41.565613 C 22.959351 41.363953 22.858521 41.18631 22.733673 40.979858 C 22.604004 40.802185 22.450348 40.648529 22.22467 40.600525 Z"/>
    <path id="Path-copy-2" fill="#7f848a" fill-rule="evenodd" stroke="none" d="M 38.248413 41.032654 C 38.349243 41.311157 38.37326 41.594421 38.450073 41.872925 L 38.502899 42.737213 C 38.526917 43.322998 38.603729 43.884796 38.70459 44.470581 C 38.781403 45.032349 38.882233 45.594147 39.088715 46.151123 C 39.165558 46.40564 39.266388 46.688904 39.420044 46.94339 C 39.597717 47.197876 39.751373 47.452362 40.005859 47.606018 C 39.775391 47.399536 39.650543 47.145081 39.544891 46.890564 C 39.468079 46.636108 39.367218 46.381592 39.290405 46.07431 C 39.165558 45.517334 39.088715 44.979553 38.987885 44.393738 L 38.70459 42.713196 C 38.656555 42.434723 38.603729 42.127411 38.526917 41.848938 C 38.478882 41.565613 38.402069 41.28714 38.248413 41.032654 Z"/>
    <path id="Path-copy" fill="#7f848a" fill-rule="evenodd" stroke="none" d="M 8.693085 31.68399 L 8.693085 31.68399 C 8.779541 31.712799 8.875549 31.731995 8.971588 31.756012 L 8.971588 31.756012 C 8.880371 31.727203 8.789124 31.698395 8.693085 31.68399 Z M 8.971588 31.756012 C 9.523804 31.933655 10.013611 32.298584 10.450562 32.649109 C 10.959564 33.057251 11.468567 33.542206 12.083191 33.849487 C 12.510559 34.0896 13.019562 34.195221 13.518951 34.195221 C 13.706207 34.195221 13.888672 34.180786 14.071136 34.151978 C 14.757813 34.027161 15.343628 33.671844 15.929474 33.311707 L 15.929474 33.311707 L 15.444489 33.542206 C 15.319641 33.595032 15.165955 33.671844 14.988312 33.719849 L 14.527313 33.897522 L 14.042328 33.974335 C 13.850281 34.012756 13.658203 34.031982 13.461304 34.031982 C 13.000336 34.031982 12.544159 33.926331 12.131195 33.695862 C 11.574188 33.412537 11.036377 32.956421 10.503387 32.548279 C 10.224884 32.370605 9.941559 32.164154 9.663055 32.01532 C 9.485382 31.909668 9.331726 31.885651 9.17807 31.808838 C 9.11084 31.789612 9.04364 31.770416 8.971588 31.756012 Z"/>
</svg>
