<?xml version="1.0" encoding="UTF-8"?>
<!-- Generated by Pixelmator Pro 3.4.1 -->
<svg width="80" height="80" viewBox="0 0 100 100" xmlns="http://www.w3.org/2000/svg">
    <path id="Path-copy-12" fill="#394049" fill-rule="evenodd" stroke="none" d="M 1.976868 48.438965 C 1.586273 48.438965 1.172272 48.501465 0.766083 48.634247 C -1.014954 49.126343 -0.31192 54.477112 0.85199 54.477112 C 2.008118 54.477112 3.835999 51.860291 3.835999 49.876251 C 3.835999 48.884216 2.992371 48.438965 1.976868 48.438965 Z"/>
    <path id="Path-copy-11" fill="#252a2f" fill-rule="evenodd" stroke="none" d="M 45.526276 16.967163 C 37.324127 16.967163 29.864105 19.740143 23.93515 24.426941 C 12.86618 32.589722 10.296173 41.916382 3.007996 47.923279 C -1.842957 51.860168 1.430084 60.694702 5.203064 67.529602 C 11.171082 78.184204 28.74707 86.635986 45.526276 86.800049 C 64.797363 86.800049 80.428253 71.138397 80.428253 51.860168 C 80.428253 32.589722 64.797363 16.967163 45.526276 16.967163 Z"/>
    <path id="Path-copy-10" fill="#434343" fill-rule="evenodd" stroke="none" d="M 73.585205 31.097839 L 73.585205 31.097839 C 76.491089 36.198608 78.108093 42.041443 78.108093 48.298279 C 78.108093 67.568726 62.477173 83.238159 43.167023 83.238159 C 27.957947 83.074127 12.084869 76.106445 4.827942 66.904785 L 4.827942 66.904785 C 4.952942 67.115662 5.116974 67.318756 5.202911 67.529663 C 11.170929 78.184265 28.66098 86.636078 45.526123 86.80011 C 64.797211 86.80011 80.428131 71.138489 80.428131 51.860229 C 80.428131 44.11145 77.897186 36.901611 73.585205 31.097839 Z"/>
    <path id="Path-copy-9" fill="#252a2f" fill-rule="evenodd" stroke="none" d="M 40.916595 1.008606 C 38.268494 1.008606 38.784058 15.693817 39.268372 19.911926 C 43.221008 24.942383 51.579376 28.184082 59.976776 28.184082 C 62.835815 28.184082 65.702637 27.809143 68.405426 26.996765 C 61.773438 17.545105 48.470367 5.445435 41.174377 1.055481 C 41.08844 1.024231 40.99472 1.008606 40.916595 1.008606 Z"/>
    <path id="Path-copy-8" fill="#f4e254" fill-rule="evenodd" stroke="none" d="M 24.020599 39.971497 C 22.278625 39.971497 20.786621 41.416565 20.786621 43.158508 C 20.786621 44.939453 22.192688 46.392365 24.020599 46.392365 C 25.754761 46.392365 27.207703 44.939453 27.207703 43.158508 C 27.207703 41.416565 25.754761 39.971497 24.020599 39.971497 Z"/>
    <path id="Path-copy-7" fill="none" stroke="none" d="M 7.850952 51.860321 C 10.381897 51.032349 25.637848 52.446167 29.863892 54.477112"/>
    <path id="Path-copy-6" fill="none" stroke="#5f666f" stroke-width="0.181102" d="M 7.850952 51.860321 C 10.381897 51.032349 25.637848 52.446167 29.863892 54.477112"/>
    <path id="Path-copy-5" fill="none" stroke="none" d="M 6.530823 54.477112 C 9.717957 55.305115 24.020905 59.734131 28.824982 62.928955"/>
    <path id="Path-copy-4" fill="none" stroke="#5f666f" stroke-width="0.181102" d="M 6.530823 54.477112 C 9.717957 55.305115 24.020905 59.734131 28.824982 62.928955"/>
    <path id="Path-copy-3" fill="none" stroke="none" d="M 5.491913 58.664001 C 7.483856 60.030945 21.115021 69.349823 23.97406 72.708679"/>
    <path id="Path-copy-2" fill="none" stroke="#5f666f" stroke-width="0.181102" d="M 5.491913 58.664001 C 7.483856 60.030945 21.115021 69.349823 23.97406 72.708679"/>
    <path id="Path-copy" fill="#c88f87" fill-rule="evenodd" stroke="none" d="M 39.89328 2.008453 C 38.112244 5.445435 38.893402 16.342163 39.268372 19.911926 C 40.002655 20.825836 40.572906 21.232025 41.002533 21.232025 C 43.775635 21.232025 40.682251 4.336212 39.89328 2.008453 Z"/>
</svg>
