<?xml version="1.0" encoding="UTF-8"?>
<!-- Generated by Pixelmator Pro 3.4.1 -->
<svg width="348" height="375" viewBox="0 0 348 375" xmlns="http://www.w3.org/2000/svg">
    <path id="Path-copy-36" fill="#d9d9d9" fill-rule="evenodd" stroke="none" d="M 162.13385 287.019165 C 72.625854 287.019165 0.115021 306.582214 0.115021 330.653259 C 0.115021 354.795166 72.625854 374.273163 162.13385 374.273163 C 251.556763 374.273163 324.138489 354.795166 324.138489 330.653259 C 324.138489 306.582214 251.556763 287.019165 162.13385 287.019165 Z"/>
    <path id="Path-copy-35" fill="#e7c998" fill-rule="evenodd" stroke="none" d="M 294.992737 148.872009 C 286.557922 148.872009 278.023926 150.998444 270.510559 154.86853 C 255.767395 162.466919 244.710022 175.934235 237.111633 190.677399 C 229.513245 205.420563 225.076111 221.510437 220.72406 237.529449 L 214.926025 253.931213 C 211.991577 259.417358 209.142151 264.988586 208.164001 271.070129 C 207.256775 277.165863 208.532593 283.942047 213.040588 288.152344 C 217.180054 291.909027 223.119812 292.958069 228.69104 293.269928 C 229.697571 293.312469 230.718201 293.32663 231.724731 293.32663 C 260.403015 293.32663 288.556763 275.960907 301.045959 250.16037 C 305.114502 241.824799 307.822144 232.496918 314.215576 225.876678 C 319.588318 220.248779 327.427673 217.115845 335.210388 217.115845 C 338.867798 217.115845 342.511047 217.810486 345.870789 219.256439 C 344.594971 207.220917 343.163147 195.114502 339.250549 183.75943 C 335.26709 172.319305 328.349121 161.559662 318.043091 155.166229 C 311.139343 150.856689 303.115662 148.872009 294.992737 148.872009 Z"/>
    <path id="Path-copy-34" fill="#deb687" fill-rule="evenodd" stroke="none" d="M 313.152344 182.101044 C 315.562317 185.262329 317.901367 188.26767 320.226257 191.343872 C 315.463074 189.968811 310.487244 189.28833 305.511414 189.28833 C 296.679688 189.28833 287.833801 191.428925 279.994385 195.568359 C 283.524292 197.510498 286.827332 199.622742 290.371338 201.649902 C 282.092468 207.150238 274.720886 214.068207 268.937073 222.191101 C 272.084167 222.035187 275.401367 221.964294 278.704407 221.893402 L 278.704407 221.893402 C 272.863831 238.862213 255.016113 250.273987 237.267578 250.273987 C 233.071472 250.273987 228.875366 249.636078 224.849304 248.289337 C 218.838623 261.00531 215.152832 274.685272 213.650208 288.747986 C 217.70459 292.065186 223.34668 293.043335 228.535095 293.270142 C 229.555786 293.312683 230.562317 293.326843 231.568787 293.326843 C 260.26123 293.326843 288.400879 275.961121 300.975037 250.160583 C 305.029419 241.825043 307.737061 232.497131 314.130493 225.876892 C 319.503235 220.248993 327.356812 217.116058 335.139526 217.116058 C 338.796936 217.116058 342.440186 217.810699 345.799927 219.256653 C 345.729065 218.576202 345.729065 218.051697 345.643982 217.456299 C 340.086975 202.032684 328.122314 188.863068 313.152344 182.101044 Z"/>
    <path id="Path-copy-33" fill="#ba776d" fill-rule="evenodd" stroke="none" d="M 60.817169 156.073547 C 60.817169 156.073547 46.89624 223.23996 60.817169 268.7453 C 60.817169 268.7453 55.019135 264.903564 49.603882 264.903564 C 45.166748 264.903564 40.970612 267.483643 40.431915 276.868225 C 39.297821 297.777985 49.901581 311.698944 50.582031 317.341034 C 51.262482 323.054016 22.456604 321.693085 30.125885 336.889893 C 30.877228 338.364197 44.075195 338.860382 61.355865 338.860382 C 95.903076 338.860382 146.710266 336.889893 146.710266 336.889893 C 146.710266 336.889893 197.559998 338.860382 232.093018 338.860382 C 249.373657 338.860382 262.557495 338.364197 263.294617 336.889893 C 271.119873 321.693085 242.299805 323.054016 242.980286 317.341034 C 243.660706 311.613892 254.264465 297.777985 253.130371 276.868225 C 252.634216 267.483643 248.438049 264.903564 244.000916 264.903564 C 238.571472 264.903564 232.759277 268.7453 232.759277 268.7453 C 246.595154 223.23996 232.759277 156.073547 232.759277 156.073547 L 146.781128 164.579193 L 60.817169 156.073547 Z"/>
    <path id="Path-copy-32" fill="#e7c998" fill-rule="evenodd" stroke="none" d="M 79.841583 147.780457 C 72.710999 147.780457 67.380768 151.763947 65.622925 162.16922 C 58.024536 206.838165 82.478333 279.348969 90.969818 288.605988 C 99.404633 297.848816 95.180145 330.723236 95.180145 330.723236 C 87.595917 330.723236 80.819733 336.663025 83.300568 343.439209 C 84.406281 346.44455 92.217316 347.961395 100.637939 347.961395 C 111.114105 347.961395 122.540039 345.622314 123.163788 340.958374 C 124.89328 328.313293 129.55722 262.507751 146.327576 262.507751 L 146.327576 190.904205 C 146.327576 190.904205 103.30304 147.780457 79.841583 147.780457 Z"/>
    <path id="Path-copy-31" fill="#deb687" fill-rule="evenodd" stroke="none" d="M 95.562958 325.379974 C 95.265259 328.697205 94.96756 330.724396 94.96756 330.724396 C 94.96756 330.724396 96.512756 330.426697 98.539948 330.426697 C 100.850647 330.426697 103.785095 330.809448 105.798096 332.453857 C 105.798096 332.453857 102.410004 327.194519 95.562958 325.379974 Z"/>
    <path id="Path-copy-30" fill="#deb687" fill-rule="evenodd" stroke="none" d="M 146.327637 242.647644 C 146.327637 242.647644 123.461548 250.841431 121.065796 266.718689 C 118.499908 282.510864 114.743256 321.693665 114.062805 333.133789 C 113.609161 340.958984 105.798126 345.991516 98.270599 347.876953 C 99.064453 347.905304 99.858337 347.905304 100.652191 347.905304 C 111.142517 347.905304 122.5401 345.622955 123.163849 340.873932 C 124.893341 328.313904 129.713226 262.508362 146.327637 262.508362 L 146.327637 242.647644 Z"/>
    <path id="Path-copy-29" fill="#8194a2" fill-rule="evenodd" stroke="none" d="M 95.109314 330.795288 C 92.628479 330.795288 90.303619 331.404877 88.34729 332.453918 L 95.109314 330.795288 Z"/>
    <path id="Path-copy-28" fill="#e7c998" fill-rule="evenodd" stroke="none" d="M 212.927124 147.780457 C 189.479767 147.780457 146.41275 190.904205 146.41275 190.904205 L 146.41275 262.507751 C 163.183075 262.507751 167.847015 328.313293 169.491455 340.958374 C 170.171906 345.622314 181.61203 347.961395 192.088165 347.961395 C 200.52298 347.961395 208.334045 346.44455 209.439758 343.439209 C 211.920593 336.663025 205.144409 330.723236 197.56015 330.723236 C 197.56015 330.723236 193.335663 297.848816 201.770477 288.605988 C 210.261963 279.419861 234.715759 206.838165 227.117371 162.16922 C 225.373718 151.763947 220.057678 147.780457 212.927124 147.780457 Z"/>
    <path id="Path-copy-27" fill="#deb687" fill-rule="evenodd" stroke="none" d="M 197.17749 325.379974 C 190.330444 327.194519 186.942352 332.453857 186.942352 332.453857 C 188.955353 330.809448 191.889801 330.426697 194.200531 330.426697 C 196.227692 330.426697 197.772888 330.724396 197.772888 330.724396 C 197.772888 330.724396 197.475189 328.697205 197.17749 325.379974 Z"/>
    <path id="Path-copy-26" fill="#deb687" fill-rule="evenodd" stroke="none" d="M 146.412781 242.647644 L 146.412781 262.508362 C 163.027161 262.508362 167.847046 328.313904 169.576538 340.873932 C 170.129395 345.622955 181.527008 347.905304 192.059845 347.905304 C 192.867889 347.905304 193.675934 347.905304 194.469788 347.876953 C 186.942291 345.991516 179.131226 340.958984 178.677612 333.133789 C 177.997162 321.693665 174.240479 282.510864 171.674591 266.718689 C 169.278839 250.841431 146.412781 242.647644 146.412781 242.647644 Z"/>
    <path id="Path-copy-25" fill="#8194a2" fill-rule="evenodd" stroke="none" d="M 197.631165 330.795288 L 204.393158 332.453918 C 202.436859 331.404877 200.111969 330.795288 197.631165 330.795288 Z"/>
    <path id="Path-copy-24" fill="#be8a7d" fill-rule="evenodd" stroke="none" d="M 176.281677 137.701172 C 125.091736 137.701172 61.044037 141.713013 61.044037 141.713013 C 61.044037 141.713013 45.464478 166.152649 70.669617 190.223694 C 84.73233 203.747681 112.786865 214.294739 145.023346 214.294739 C 170.185944 214.294739 197.886078 207.872955 223.502319 191.42865 C 237.338196 182.554413 244.11438 158.55423 238.614075 144.718353 C 236.530151 139.345581 209.042664 137.701172 176.281677 137.701172 Z"/>
    <path id="Path-copy-23" fill="#be8a7d" fill-rule="evenodd" stroke="none" d="M 67.933655 1 C 66.728668 1 65.552063 1.212646 64.417969 1.737152 C 59.980835 3.693451 58.634094 9.250488 57.953644 14.141266 C 55.628784 33.54834 57.202332 53.635925 62.617584 72.504333 C 85.483673 67.769501 99.844086 45.059387 120.385254 33.931122 C 107.371582 22.037354 92.628448 11.887268 76.76535 3.764343 C 74.015198 2.360901 70.924805 1 67.933655 1 Z"/>
    <path id="Path-copy-22" fill="#ba776d" fill-rule="evenodd" stroke="none" d="M 74.539734 17.288452 C 73.575745 17.288452 72.668488 17.529449 71.874634 18.124847 C 70.286896 19.414886 69.76239 21.512939 69.535553 23.625183 C 68.188843 34.072998 68.855103 44.76178 71.562744 54.982758 C 72.172333 57.009949 72.767731 59.0513 74.497192 60.100342 C 75.262726 60.568146 76.07074 60.766602 76.907135 60.766602 C 79.260376 60.766602 81.769562 59.150513 83.825073 57.548645 C 90.303558 52.346008 101.573578 42.351837 108.122955 37.163391 C 99.475525 29.791809 89.920807 23.540131 79.685669 18.734436 C 78.06958 18.011444 76.226685 17.288452 74.539734 17.288452 Z"/>
    <path id="Path-copy-21" fill="#be8a7d" fill-rule="evenodd" stroke="none" d="M 227.741211 1 C 224.75 1 221.659607 2.360901 218.909485 3.764343 C 203.046387 11.887268 188.232361 22.037354 175.289551 33.931122 C 195.745697 45.059387 210.191162 67.769501 232.986328 72.504333 C 238.472534 53.635925 240.046082 33.54834 237.721191 14.141266 C 237.04071 9.250488 235.608948 3.693451 231.242676 1.737152 C 230.108582 1.212646 228.932007 1 227.741211 1 Z"/>
    <path id="Path-copy-20" fill="#ba776d" fill-rule="evenodd" stroke="none" d="M 221.135132 17.288452 C 219.448181 17.288452 217.605286 18.011444 215.975037 18.734436 C 205.754028 23.540131 196.128479 29.791809 187.481049 37.163391 C 194.087097 42.351837 205.371277 52.346008 211.849792 57.548645 C 213.848633 59.150513 216.386169 60.766602 218.75354 60.766602 C 219.589966 60.766602 220.41217 60.568146 221.177673 60.100342 C 222.822083 59.0513 223.502563 57.009949 224.027039 54.982758 C 226.805603 44.76178 227.486023 34.072998 226.139282 23.625183 C 225.827454 21.512939 225.388 19.414886 223.800232 18.124847 C 223.006409 17.529449 222.099121 17.288452 221.135132 17.288452 Z"/>
    <path id="Path-copy-19" fill="#e7c998" fill-rule="evenodd" stroke="none" d="M 147.461609 23.540161 C 62.390747 23.540161 31.033173 110.198761 51.942932 148.176575 C 72.76767 186.239441 116.174927 199.621704 147.461609 199.621704 C 178.748291 199.621704 222.070496 186.239441 242.980286 148.176575 C 263.819153 110.198761 232.532471 23.540161 147.461609 23.540161 Z"/>
    <path id="Path-copy-18" fill="#be8a7d" fill-rule="evenodd" stroke="none" d="M 147.461639 45.881866 C 107.96698 45.881866 113.169617 73.56781 104.593079 75.821838 C 96.016541 78.075836 57.953644 104.925415 61.710327 130.952759 C 65.197662 155.165558 87.142273 163.997253 102.197327 163.997253 C 103.416473 163.997253 104.593079 163.926392 105.712982 163.827148 C 106.322571 163.756287 106.903778 163.727936 107.470825 163.727936 C 120.966492 163.727936 124.652283 180.214752 147.532532 180.214752 C 170.483673 180.214752 174.183624 163.727936 187.608398 163.727936 C 188.175446 163.727936 188.756683 163.756287 189.352081 163.827148 C 190.486176 163.926392 191.662781 163.997253 192.896088 163.997253 C 208.022034 163.997253 230.009155 155.165558 233.354736 130.952759 C 236.969666 104.854492 198.906769 77.919891 190.330231 75.821838 C 181.753662 73.482788 186.942139 45.881866 147.461639 45.881866 Z"/>
    <path id="Path-copy-17" fill="#deb687" fill-rule="evenodd" stroke="none" d="M 245.546143 95.824646 L 245.546143 95.824646 C 239.294495 107.108826 228.988464 116.2099 217.406555 122.220581 C 202.29483 130.130859 185.141754 133.363007 168.300507 135.758789 C 166.273346 136.028137 164.231964 136.311646 162.204803 136.311646 C 160.75882 136.311646 159.327026 136.169861 157.909424 135.758789 C 154.535522 134.865662 151.303345 132.228912 150.920593 128.699066 L 141.295013 128.699066 C 139.934113 134.256104 134.447968 138.026947 128.805847 139.075989 C 127.345734 139.345337 125.88559 139.45874 124.425446 139.45874 C 120.229309 139.45874 116.019012 138.494751 111.879578 137.502441 C 88.191284 131.4776 64.644775 121.398376 47.19397 104.557129 L 47.19397 104.557129 C 44.046875 121.029785 45.620422 136.82196 51.85791 148.177063 C 72.696808 186.239929 116.019012 199.622162 147.390747 199.622162 C 178.677429 199.622162 221.999634 186.239929 242.838562 148.177063 C 250.281006 134.865662 251.174072 115.387695 245.546143 95.824646 Z"/>
    <path id="Path-copy-16" fill="#ba776d" fill-rule="evenodd" stroke="none" d="M 230.278503 113.800079 C 226.209961 116.961365 221.928772 119.895813 217.406616 122.220703 C 202.294861 130.130981 185.141785 133.363129 168.300537 135.758911 C 166.273376 136.028229 164.231995 136.311768 162.204803 136.311768 C 160.75885 136.311768 159.327057 136.169983 157.909454 135.758911 C 154.535553 134.865784 151.303375 132.229034 150.920624 128.699188 L 141.295044 128.699188 C 139.934143 134.256226 134.447998 138.027069 128.805878 139.076111 C 127.345764 139.345459 125.88562 139.458862 124.425476 139.458862 C 120.22934 139.458862 116.019043 138.494873 111.879608 137.502563 C 94.882446 133.136292 77.885284 126.742859 63.227173 117.259064 C 61.639465 121.78125 60.959015 126.44519 61.639465 131.109131 C 65.11261 155.236877 87.05722 164.068604 102.055573 164.068604 C 103.274719 164.068604 104.451324 164.011902 105.571228 163.898468 C 106.166626 163.841766 106.747864 163.813416 107.314911 163.813416 C 120.810547 163.813416 124.496338 180.371124 147.46167 180.371124 C 170.341919 180.371124 174.04187 163.813416 187.537537 163.813416 C 188.090393 163.813416 188.671631 163.841766 189.281189 163.898468 C 190.401123 164.011902 191.591919 164.068604 192.811066 164.068604 C 207.936951 164.068604 229.867432 155.236877 233.283875 131.109131 C 234.106079 125.240204 232.8302 119.4422 230.278503 113.800079 Z"/>
    <path id="Path-copy-15" fill="#e7c998" fill-rule="evenodd" stroke="none" d="M 170.030121 7.747864 C 163.551636 23.171509 143.620026 28.586761 143.620026 28.586761 C 153.018799 21.059265 146.029968 11.660492 146.029968 11.660492 L 146.029968 11.660492 C 136.106689 25.581421 116.54364 28.586761 116.54364 28.586761 C 117.252441 33.264893 131.258453 36.738037 144.881683 36.738037 C 155.995758 36.738037 166.854675 34.427307 170.030121 28.586761 C 176.948059 15.729034 170.030121 7.747864 170.030121 7.747864 Z"/>
    <path id="Path-copy-14" fill="#51371d" fill-rule="evenodd" stroke="none" d="M 147.234955 115.529602 C 125.800659 115.529602 131.669586 134.865784 146.852203 134.865784 C 162.658569 134.865784 168.073822 115.529602 147.234955 115.529602 Z"/>
    <path id="Path-copy-13" fill="#000000" fill-rule="evenodd" stroke="none" d="M 179.476074 99.946045 C 176.037323 101.95694 173.847168 105.372894 174.40094 108.229614 C 175.052734 111.562866 179.233521 112.89917 183.708527 111.171997 C 184.349243 110.919647 184.977936 110.618713 185.553101 110.282379 C 189.016327 108.257202 191.23349 104.803162 190.599152 101.949097 C 189.954773 98.600403 185.80304 97.313812 181.320648 99.056458 C 180.67511 99.300476 180.063477 99.602539 179.476074 99.946045 Z"/>
    <path id="Path-copy-12" fill="none" stroke="#000000" stroke-width="2" stroke-linejoin="round" d="M 179.476074 99.946045 C 176.037323 101.95694 173.847168 105.372894 174.40094 108.229614 C 175.052734 111.562866 179.233521 112.89917 183.708527 111.171997 C 184.349243 110.919647 184.977936 110.618713 185.553101 110.282379 C 189.016327 108.257202 191.23349 104.803162 190.599152 101.949097 C 189.954773 98.600403 185.80304 97.313812 181.320648 99.056458 C 180.67511 99.300476 180.063477 99.602539 179.476074 99.946045 Z"/>
    <path id="Path-copy-11" fill="#51371d" fill-rule="evenodd" stroke="none" d="M 168.740112 142.988892 C 168.102173 142.988892 167.407562 143.215698 166.783813 143.740234 C 160.617188 149.070465 155.442902 151.848969 148.454071 151.848969 C 146.08667 151.848969 143.506622 151.537109 140.614685 150.884979 C 134.221252 149.524078 129.557312 145.994232 123.84436 143.513428 C 123.603363 143.414185 123.419067 143.357483 123.263123 143.357483 C 121.916412 143.357483 122.965424 146.646332 123.16391 147.043274 C 127.303314 153.068115 136.333496 155.54895 143.09552 156.456207 C 144.626526 156.654663 146.08667 156.753906 147.490112 156.753906 C 156.491943 156.753906 163.098022 152.713715 170.32782 146.603821 C 172.128204 144.959381 170.639709 142.988892 168.740112 142.988892 Z"/>
    <path id="Path-copy-10" fill="#51371d" fill-rule="evenodd" stroke="none" d="M 147.362549 127.749481 C 146.894745 127.749481 146.426941 128.018799 146.256836 128.614197 C 143.776001 136.070862 145.207794 145.625549 145.278687 153.365723 C 145.321198 154.910919 146.582886 155.704773 147.802032 155.704773 C 148.964478 155.704773 150.098541 154.981781 150.098541 153.521637 C 150.013489 149.155396 149.871735 144.718262 149.786682 140.352051 C 149.71579 136.524475 149.871735 132.455933 148.666779 128.69928 C 148.468292 128.089722 147.901245 127.749481 147.362549 127.749481 Z"/>
    <path id="Path-copy-9" fill="#51371d" fill-rule="evenodd" stroke="none" d="M 69.47879 114.593933 C 55.742126 114.593933 42.048004 118.067108 30.806366 125.537903 C 29.785675 126.218384 30.168427 127.862793 31.302521 127.862793 C 31.430115 127.862793 31.557678 127.834442 31.699432 127.791931 C 46.371735 122.929504 59.753967 120.13681 73.518982 120.13681 C 82.974457 120.13681 92.628387 121.4552 103.00531 124.332947 C 103.132904 124.375488 103.260468 124.403809 103.388062 124.403809 C 104.437103 124.403809 104.98996 122.77356 103.912567 122.220703 C 93.493134 117.244873 81.471802 114.593933 69.47879 114.593933 Z"/>
    <path id="Path-copy-8" fill="#51371d" fill-rule="evenodd" stroke="none" d="M 93.436432 131.619568 C 74.128571 131.619568 52.736816 144.463135 41.112396 158.412445 C 40.105896 159.58905 40.984833 161.261841 42.260681 161.261841 C 42.515839 161.261841 42.785187 161.190948 43.068695 161.035004 C 51.560211 156.753845 58.704956 149.977661 66.827881 145.015991 C 77.516663 138.466644 88.574036 136.141754 100.907257 135.234497 C 102.409943 135.092712 103.00531 132.753662 101.275848 132.385071 C 98.724152 131.860565 96.101563 131.619568 93.436432 131.619568 Z"/>
    <path id="Path-copy-7" fill="#51371d" fill-rule="evenodd" stroke="none" d="M 102.140625 146.518768 C 101.998871 146.518768 101.871277 146.547119 101.729523 146.603821 C 88.34726 152.316803 72.243195 165.85498 70.669647 181.491241 C 70.584595 182.143341 71.038239 182.469391 71.548584 182.469391 C 71.931335 182.469391 72.328247 182.299286 72.540894 181.944885 C 76.538574 175.707397 79.019379 169.087158 83.910156 163.218231 C 89.098602 157.051636 95.633789 152.019104 102.707672 148.24826 C 103.700012 147.794617 103.062073 146.518768 102.140625 146.518768 Z"/>
    <path id="Path-copy-6" fill="#51371d" fill-rule="evenodd" stroke="none" d="M 231.157654 114.593933 C 219.164673 114.593933 207.143311 117.244873 196.723877 122.220703 C 195.646484 122.77356 196.199371 124.403809 197.248383 124.403809 C 197.375977 124.403809 197.503571 124.375488 197.631165 124.332947 C 208.008057 121.4552 217.661987 120.13681 227.117493 120.13681 C 240.882507 120.13681 254.264709 122.929504 268.937012 127.791931 C 269.078796 127.834442 269.22052 127.862793 269.333923 127.862793 C 270.468018 127.862793 270.850769 126.218384 269.830139 125.537903 C 258.58844 118.067108 244.894348 114.593933 231.157654 114.593933 Z"/>
    <path id="Path-copy-5" fill="#51371d" fill-rule="evenodd" stroke="none" d="M 207.200012 131.619568 C 204.534912 131.619568 201.912354 131.860565 199.360657 132.385071 C 197.631165 132.753662 198.226563 135.092712 199.729218 135.234497 C 212.076599 136.141754 223.119812 138.466644 233.737732 145.015991 C 241.931519 149.977661 249.076294 156.753845 257.567749 161.035004 C 257.851318 161.190948 258.120667 161.261841 258.375793 161.261841 C 259.651672 161.261841 260.530579 159.58905 259.524048 158.412445 C 247.899658 144.463135 226.507874 131.619568 207.200012 131.619568 Z"/>
    <path id="Path-copy-4" fill="#51371d" fill-rule="evenodd" stroke="none" d="M 198.510071 146.518768 C 197.574463 146.518768 196.936523 147.794617 197.928864 148.24826 C 205.002747 152.019104 211.537903 157.051636 216.726379 163.218231 C 221.617126 169.087158 224.097961 175.707397 228.095642 181.944885 C 228.308289 182.299286 228.7052 182.469391 229.087952 182.469391 C 229.598267 182.469391 230.051941 182.143341 229.966858 181.491241 C 228.393311 165.85498 212.289246 152.316803 198.907013 146.603821 C 198.765259 146.547119 198.637665 146.518768 198.510071 146.518768 Z"/>
    <path id="Path-copy-3" fill="#deb687" fill-rule="evenodd" stroke="none" d="M 70.669647 161.262024 Z"/>
    <path id="Path-copy-2" fill="#000000" fill-rule="evenodd" stroke="none" d="M 116.548248 100.016907 C 119.987 102.027802 122.177155 105.443756 121.623383 108.300476 C 120.971588 111.633728 116.790802 112.970032 112.315796 111.242859 C 111.67511 110.990509 111.046387 110.689575 110.471222 110.353241 C 107.007996 108.328064 104.790833 104.874054 105.425171 102.019958 C 106.06955 98.671265 110.221283 97.384674 114.703674 99.127319 C 115.349243 99.371368 115.960846 99.673401 116.548248 100.016907 Z"/>
    <path id="Path-copy" fill="none" stroke="#000000" stroke-width="2" stroke-linejoin="round" d="M 116.548248 100.016907 C 119.987 102.027802 122.177155 105.443756 121.623383 108.300476 C 120.971588 111.633728 116.790802 112.970032 112.315796 111.242859 C 111.67511 110.990509 111.046387 110.689575 110.471222 110.353241 C 107.007996 108.328064 104.790833 104.874054 105.425171 102.019958 C 106.06955 98.671265 110.221283 97.384674 114.703674 99.127319 C 115.349243 99.371368 115.960846 99.673401 116.548248 100.016907 Z"/>
</svg>
