<?xml version="1.0" encoding="UTF-8"?>
<!-- Generated by Pixelmator Pro 3.4.1 -->
<svg width="251" height="245" viewBox="0 0 251 245" xmlns="http://www.w3.org/2000/svg">
    <path id="Path-copy-25" fill="#999999" fill-rule="evenodd" stroke="none" d="M 124.096008 224.533966 C 59.17334 224.533966 6.503296 229.085541 6.503296 234.671539 C 6.503296 240.241608 59.17334 244.793182 124.096008 244.793182 C 189.034546 244.793182 241.70459 240.241608 241.70459 234.671539 C 241.70459 229.085541 189.114075 224.533966 124.096008 224.533966 Z"/>
    <path id="Path-copy-24" fill="#e5d0b2" fill-rule="evenodd" stroke="none" d="M 44.358887 23.136902 C 13.45697 23.136902 -6.385803 74.763672 3.718567 136.798553 C 10.035828 175.900574 28.112305 192.022034 38.74176 198.356018 C 44.581665 223.644226 68.768494 235.27774 90.648071 235.27774 C 94.116943 235.27774 97.522217 234.991272 100.800171 234.418365 C 105.016968 233.67038 109.058716 233.383911 112.893616 233.383911 C 126.721497 233.383911 137.828369 237.17157 144.973022 237.17157 C 147.328064 237.17157 149.253479 236.773712 150.701477 235.675598 C 157.496094 230.598877 151.894897 223.835175 143.127197 223.835175 C 142.87262 223.835175 142.602051 223.851105 142.347473 223.867004 C 133.134216 224.280792 101.229797 225.713104 101.229797 225.713104 C 101.229797 225.713104 150.192322 209.925873 141.48822 175.311737 C 140.390259 170.919342 138.369385 167.290833 135.759766 164.330719 L 151.544861 164.251129 C 151.544861 164.251129 154.15448 230.360138 161.251404 236.869202 C 163.558716 238.92218 166.391113 239.861145 168.937134 239.861145 C 174.299622 239.861145 178.389099 235.691528 173.583557 229.086975 C 166.407043 219.37912 164.545288 200.552216 164.545288 187.550018 C 164.545288 174.627411 163.622375 163.662292 163.622375 163.662292 L 186.583984 162.977966 C 186.583984 162.977966 191.134949 222.593842 195.017578 231.028564 C 196.958862 235.150421 202.114502 237.537598 206.315369 237.537598 C 210.563965 237.537598 213.857849 235.118591 211.900635 229.596252 C 208.018005 218.631134 201.605286 219.29953 200.173157 197.178345 C 198.900208 175.136688 193.4104 82.004791 193.4104 82.004791 L 130.429077 79.888153 C 129.713013 82.705017 127.61261 84.980804 124.080017 84.980804 C 123.889099 84.980804 123.69812 84.964905 123.507202 84.964905 C 123.061646 84.933044 122.600159 84.933044 122.122803 84.933044 C 97.856384 84.933044 30.849243 110.237183 36.720886 183.921509 C 30.642395 177.253326 23.54541 165.508392 18.151123 144.660339 C 6.455505 99.654022 20.442505 36.552856 41.096802 36.552856 C 41.31958 36.552856 41.558289 36.552856 41.781067 36.568787 C 62.817261 37.841919 51.408081 55.316101 61.958008 56.255066 C 62.180786 56.270996 62.387634 56.286896 62.610413 56.286896 C 73.192139 56.286896 89.120483 32.590149 50.994324 23.916718 C 48.734802 23.391541 46.522949 23.136902 44.358887 23.136902 Z"/>
    <path id="Path-copy-23" fill="#fcf6ef" fill-rule="evenodd" stroke="none" d="M 167.521484 119.053162 C 159.374329 119.053162 149.381348 121.472168 149.858704 130.463867 C 150.36792 141.031128 158.976563 150.739014 164.545898 159.858032 L 187.841675 159.858032 C 194.604431 143.975311 194.508972 122.79306 173.409119 119.498749 C 171.738281 119.22821 169.685608 119.053162 167.521484 119.053162 Z"/>
    <path id="Path-copy-22" fill="#6b6762" fill-rule="evenodd" stroke="none" d="M 44.199768 23.136902 C 13.37738 23.136902 -6.481262 74.763672 3.623108 136.798553 C 6.837402 157.073669 13.329651 171.25354 20.251587 181.056885 C 21.524536 179.863312 22.447449 178.765198 23.052124 177.332886 C 24.388794 173.449738 24.388794 169.391541 24.388794 165.349243 C 24.388794 164.839966 24.484253 164.251129 24.484253 163.821442 C 22.28833 158.505981 20.012878 152.171997 18.071594 144.660339 C 6.360046 99.622192 20.378845 36.552856 41.049072 36.552856 C 41.271851 36.552856 41.478699 36.568787 41.701477 36.568787 C 62.721802 37.841919 51.328491 55.316101 61.878418 56.334656 C 62.069397 56.350555 62.276245 56.366455 62.483093 56.366455 C 73.06488 56.366455 89.104553 32.606049 50.819275 23.916718 C 48.559753 23.391541 46.363831 23.136902 44.199768 23.136902 Z"/>
    <path id="Path-copy-21" fill="#bead94" fill-rule="evenodd" stroke="none" d="M 151.545288 163.995483 L 135.664673 164.075073 C 138.369812 167.035156 140.311096 170.743256 141.488647 175.056091 C 150.272278 209.670227 101.230225 225.377869 101.230225 225.377869 C 101.230225 225.377869 133.134583 224.104706 142.3479 223.611359 C 142.618408 223.595459 142.904846 223.579529 143.191223 223.579529 C 149.763062 223.579529 154.457214 227.319458 153.566162 231.377655 C 155.348328 231.791443 157.114624 231.966492 158.976379 232.046082 C 157.957947 229.006409 157.035034 224.789032 156.27124 219.8078 C 146.819275 220.141998 138.449341 221.065033 138.449341 221.065033 C 138.449341 221.065033 147.153442 217.277374 155.09375 211.452667 C 152.56366 190.334045 151.545288 163.995483 151.545288 163.995483 Z"/>
    <path id="Path-copy-20" fill="#e4caaa" fill-rule="evenodd" stroke="none" d="M 165.898499 163.406647 L 163.447998 163.565796 L 163.447998 163.565796 C 163.447998 163.565796 163.447998 163.565796 163.447998 163.565796 C 163.447998 163.565796 163.447998 163.565796 163.447998 163.565796 L 163.447998 163.565796 L 163.447998 163.565796 C 163.638916 163.709045 164.545959 174.721893 164.545959 187.469452 C 164.545959 191.941437 164.720947 196.843109 165.389282 202.078979 C 166.99646 199.962372 168.094421 197.686584 168.683167 195.394897 C 172.740845 178.254913 169.701538 168.801697 165.898499 163.406647 Z"/>
    <path id="Path-copy-19" fill="#e4caaa" fill-rule="evenodd" stroke="none" d="M 169.192383 219.886963 L 169.192383 219.886963 C 170.369873 223.260834 171.802002 226.475586 173.743347 228.846832 C 174.427551 229.849457 175.016296 230.788422 175.270935 231.631897 C 180.251526 230.788422 183.799988 229.005981 183.624939 225.457031 C 183.44989 221.908112 176.957642 220.39621 169.192383 219.886963 Z"/>
    <path id="Path-copy-18" fill="#cbb595" fill-rule="evenodd" stroke="none" d="M 231.330078 1.190918 L 216.467896 22.309509 L 124.446411 19.174316 L 105.447021 3.307556 L 105.447021 3.307556 C 105.447021 3.307556 102.232727 14.95697 106.465393 54.059021 C 109.807007 85.108276 128.742798 115.998413 167.314453 115.998413 C 177.402954 115.998413 188.843933 113.881775 201.685242 109.107422 C 250.663635 90.789764 231.330078 1.206818 231.330078 1.190918 Z"/>
    <path id="Path-copy-17" fill="#6b6762" fill-rule="evenodd" stroke="none" d="M 107.897522 7.85907 C 107.897522 11.837708 108.311279 15.800415 108.820496 19.779053 C 109.250122 23.407562 109.838867 27.195221 110.173035 30.839661 C 115.917419 29.821106 120.563843 26.351746 124.526001 21.800171 C 119.879578 16.055054 113.546448 12.426514 107.897522 7.85907 Z"/>
    <path id="Path-copy-16" fill="#6b6762" fill-rule="evenodd" stroke="none" d="M 229.898438 10.405365 C 227.447876 16.818909 222.960571 22.389008 218.664246 28.134155 C 221.862671 30.107544 225.840759 32.033203 228.545837 32.033203 C 229.771118 32.033203 230.74176 31.635376 231.235046 30.664551 C 233.860596 25.349121 232.173889 17.582825 229.898438 10.405365 Z"/>
    <path id="Path-copy-15" fill="#6b6762" fill-rule="evenodd" stroke="none" d="M 178.421387 38.367004 C 161.490601 38.367004 144.893982 42.488892 136.348999 48.822876 C 124.605652 57.432617 123.348572 75.845764 124.860229 83.023193 C 128.233643 98.714935 143.85968 109.536835 158.801392 113.069855 C 163.591064 114.183868 168.364746 114.693146 173.090759 114.693146 C 179.471619 114.693146 185.788879 113.786011 191.97876 112.22641 C 195.113525 111.382935 198.31189 110.38031 201.685364 109.107147 C 217.645508 103.20285 226.349609 89.516357 230.820984 73.904175 C 230.391357 67.474701 228.80011 60.647369 224.82196 55.315979 C 215.481384 43.205017 196.752502 38.367004 178.421387 38.367004 Z"/>
    <path id="Path-copy-14" fill="#dcd1c5" fill-rule="evenodd" stroke="none" d="M 104.174011 57.766693 L 161.50647 74.142761 L 161.50647 72.805939 L 104.174011 57.766693 Z"/>
    <path id="Path-copy-13" fill="#dcd1c5" fill-rule="evenodd" stroke="none" d="M 160.408508 78.630493 L 105.526611 79.808167 L 160.233459 80.221954 L 160.408508 78.630493 Z"/>
    <path id="Path-copy-12" fill="#dcd1c5" fill-rule="evenodd" stroke="none" d="M 159.899292 86.810516 L 111.525574 102.359039 L 111.525574 102.359039 L 159.819763 88.258759 L 159.899292 86.810516 Z"/>
    <path id="Path-copy-11" fill="#dcd1c5" fill-rule="evenodd" stroke="none" d="M 249.056824 57.432495 L 191.724426 72.296692 L 191.724426 73.808533 L 249.056824 57.432495 Z"/>
    <path id="Path-copy-10" fill="#dcd1c5" fill-rule="evenodd" stroke="none" d="M 192.822388 78.280396 L 192.997437 79.983246 L 247.704285 79.378479 L 192.822388 78.280396 Z"/>
    <path id="Path-copy-9" fill="#dcd1c5" fill-rule="evenodd" stroke="none" d="M 193.331604 86.476318 L 193.411133 87.829041 L 241.705322 102.008911 L 241.705322 102.008911 L 193.331604 86.476318 Z"/>
    <path id="Path-copy-8" fill="#282828" fill-rule="evenodd" stroke="none" d="M 177.546387 78.121246 L 176.034668 79.378479 C 176.034668 79.378479 178.389709 94.927002 173.918335 98.221313 C 172.518066 99.255768 170.560791 99.621796 168.508118 99.621796 C 164.116272 99.621796 159.39032 97.966675 159.39032 97.966675 L 159.39032 97.966675 C 159.39032 97.966675 165.500671 101.276917 170.75177 101.276917 C 173.568237 101.276917 176.130127 100.322021 177.371338 97.377838 C 177.625916 96.948151 177.721375 96.359314 177.800964 95.929626 C 177.976013 96.613953 178.135132 97.202789 178.389709 97.791626 C 179.66272 100.751709 182.24054 101.706604 185.057007 101.706604 C 190.308105 101.706604 196.370728 98.380463 196.370728 98.380463 L 196.370728 98.380463 C 196.370728 98.380463 191.596985 100.003754 187.18927 100.003754 C 185.136597 100.003754 183.163452 99.653625 181.763123 98.635101 C 177.291748 95.420349 179.66272 79.808167 179.66272 79.808167 L 178.214661 78.535034 C 178.214661 78.535034 178.135132 78.964722 177.976013 79.728607 C 177.721375 78.789673 177.546387 78.121246 177.546387 78.121246 Z"/>
    <path id="Path-copy-7" fill="#282828" fill-rule="evenodd" stroke="none" d="M 177.625977 72.041931 C 172.979553 72.121521 169.096924 74.397278 169.096924 77.436951 C 169.096924 80.397064 172.899963 82.768341 177.625977 82.768341 C 182.351929 82.768341 186.155029 80.397064 186.155029 77.436951 C 186.155029 74.492767 182.351929 72.041931 177.625977 72.041931 Z"/>
    <path id="Path-copy-6" fill="#bae5ed" fill-rule="evenodd" stroke="none" d="M 207.684631 48.981934 C 203.881531 48.981934 200.937744 52.117096 200.937744 55.745605 C 200.937744 59.453674 203.977051 62.493378 207.684631 62.493378 C 211.408142 62.493378 214.447388 59.453674 214.447388 55.745605 C 214.447388 52.117096 211.408142 48.981934 207.684631 48.981934 Z"/>
    <path id="Path-copy-5" fill="#ffffff" fill-rule="evenodd" stroke="none" d="M 210.898926 52.785461 C 209.625977 52.785461 208.528015 53.883575 208.528015 55.156738 C 208.528015 56.414001 209.625977 57.432526 210.898926 57.432526 C 212.156006 57.432526 213.174438 56.414001 213.174438 55.156738 C 213.174438 53.883575 212.156006 52.785461 210.898926 52.785461 Z"/>
    <path id="Path-copy-4" fill="#bae5ed" fill-rule="evenodd" stroke="none" d="M 148.506165 48.393097 C 144.703064 48.393097 141.743347 51.43277 141.743347 55.156769 C 141.743347 58.864868 144.782654 61.904541 148.506165 61.904541 C 152.213745 61.904541 155.252991 58.864868 155.252991 55.156769 C 155.252991 51.43277 152.213745 48.393097 148.506165 48.393097 Z"/>
    <path id="Path-copy-3" fill="#ffffff" fill-rule="evenodd" stroke="none" d="M 151.625 52.196655 C 150.36792 52.196655 149.349548 53.215179 149.349548 54.472412 C 149.349548 55.745605 150.36792 56.843689 151.625 56.843689 C 152.89801 56.843689 153.995972 55.745605 153.995972 54.472412 C 153.995972 53.215179 152.89801 52.196655 151.625 52.196655 Z"/>
    <path id="Path-copy-2" fill="#0c343d" fill-rule="evenodd" stroke="none" d="M 150.219421 53.98999 L 150.219421 53.98999 C 150.219421 53.0354 150.993286 52.261505 151.947937 52.261505 L 151.947937 52.261505 C 152.406372 52.261505 152.846008 52.443604 153.170166 52.767761 C 153.494324 53.091919 153.676453 53.531586 153.676453 53.98999 L 153.676453 53.98999 C 153.676453 54.944641 152.902527 55.718506 151.947937 55.718506 L 151.947937 55.718506 C 150.993286 55.718506 150.219421 54.944641 150.219421 53.98999 Z"/>
    <path id="Path-copy" fill="#0c343d" fill-rule="evenodd" stroke="none" d="M 209.459473 54.575012 L 209.459473 54.575012 C 209.459473 53.620361 210.233337 52.846497 211.187988 52.846497 L 211.187988 52.846497 C 211.646423 52.846497 212.08606 53.028595 212.410217 53.352753 C 212.734375 53.67691 212.916504 54.116577 212.916504 54.575012 L 212.916504 54.575012 C 212.916504 55.529602 212.142578 56.303497 211.187988 56.303497 L 211.187988 56.303497 C 210.233337 56.303497 209.459473 55.529602 209.459473 54.575012 Z"/>
</svg>
