<?xml version="1.0" encoding="UTF-8"?>
<!-- Generated by Pixelmator Pro 3.4.1 -->
<svg width="301" height="343" viewBox="0 0 301 343" xmlns="http://www.w3.org/2000/svg">
    <path id="Path-copy-38" fill="#d9d9d9" fill-rule="evenodd" stroke="none" d="M 149.85994 262.054749 C 67.417191 262.054749 0.50108 280.090729 0.50108 302.282837 C 0.50108 324.540283 67.417191 342.497864 149.85994 342.497864 C 232.315765 342.497864 299.231873 324.540283 299.231873 302.282837 C 299.231873 280.090729 232.315765 262.054749 149.85994 262.054749 Z"/>
    <path id="Path-copy-37" fill="#8ea3b4" fill-rule="evenodd" stroke="none" d="M 14.498573 152.636444 L 14.498573 152.636444 C 18.184189 155.616302 21.922081 158.739929 25.738388 161.785126 C 17.975075 164.764984 10.826023 169.273987 4.722542 174.89389 C 9.166187 174.619446 13.531425 174.344971 17.975075 174.135864 L 17.975075 174.135864 C 12.498932 179.337555 8.199043 185.715485 5.62434 192.851471 C 9.649761 191.531433 13.675186 190.224487 17.831306 188.904449 L 17.831306 188.904449 C 14.642334 196.733124 13.322311 205.332886 13.949646 213.801971 L 21.791382 206.796692 L 21.791382 225.303162 C 25.463928 224.479797 28.718246 221.774384 30.182037 218.232544 L 30.182037 218.232544 C 27.18911 229.119476 36.899788 239.039276 45.564903 246.253662 C 54.033974 253.180542 62.489975 260.185822 70.880623 267.125732 C 72.435905 268.36734 74.213364 269.674316 76.121521 269.674316 C 76.343704 269.674316 76.552811 269.648163 76.774994 269.62204 C 79.754852 269.203796 81.140228 265.805725 81.767563 262.891205 C 87.034592 239.666595 82.943817 214.416229 70.527748 194.02774 C 58.190086 173.639221 37.527122 158.530823 14.498573 152.636444 Z"/>
    <path id="Path-copy-36" fill="#8194a2" fill-rule="evenodd" stroke="none" d="M 26.457214 179.180725 C 19.608765 179.180725 12.825668 182.265137 8.120628 187.166199 C 7.21883 188.969818 6.317032 190.917175 5.558994 192.916809 C 9.715115 191.609863 13.805885 190.289825 17.975075 188.969818 L 17.975075 188.969818 C 14.707687 196.811554 13.400726 205.411316 14.014999 213.86731 L 21.856728 206.86203 L 21.856728 225.381592 C 25.529274 224.545135 28.783592 221.839752 30.247383 218.297882 L 30.247383 218.297882 C 27.267525 229.184814 37.043549 239.104614 45.708664 246.319 C 54.099319 253.24588 62.555321 260.25116 71.024391 267.191101 C 72.579666 268.432709 74.304848 269.739655 76.252213 269.739655 C 76.461319 269.739655 76.683502 269.726593 76.918762 269.687378 C 79.689499 269.203796 81.009537 265.805725 81.767563 262.825867 C 82.943817 257.545746 83.571167 252.213379 83.845627 246.802582 C 80.800415 244.65918 77.402328 243.064697 73.860481 242.162903 C 73.586021 244.162537 73.233147 246.109894 72.958687 248.187958 C 68.109879 241.261108 63.248009 234.255829 58.3992 227.315887 C 57.353638 230.165039 56.321144 233.001129 55.275581 235.850311 C 49.65567 226.139618 45.434204 215.52713 42.728806 204.705566 L 34.965492 209.358307 C 34.677963 201.869446 34.403503 194.380615 34.129044 186.826416 L 24.000137 189.178925 C 25.0457 185.846191 26.078194 182.52652 27.123756 179.193787 C 26.901581 179.180725 26.679398 179.180725 26.457214 179.180725 Z"/>
    <path id="Path-copy-35" fill="#758693" fill-rule="evenodd" stroke="none" d="M 77.533035 141.331299 C 77.533035 141.331299 64.711807 203.254822 77.533035 245.208099 C 77.533035 245.208099 72.200661 241.66626 67.195023 241.66626 C 63.104248 241.66626 59.248734 244.044922 58.739021 252.69696 C 57.70652 271.974548 67.482552 284.808838 68.109886 290.010529 C 68.737228 295.277557 42.166824 294.022888 49.250519 308.033447 C 49.943207 309.39267 62.110962 309.850128 78.029678 309.850128 C 109.880173 309.850128 156.721451 308.033447 156.721451 308.033447 C 156.721451 308.033447 203.601959 309.850128 235.452454 309.850128 C 251.371155 309.850128 263.53891 309.39267 264.205475 308.033447 C 271.419861 294.022888 244.862518 295.277557 245.489868 290.010529 C 246.117218 284.730438 255.893219 271.974548 254.847656 252.69696 C 254.377167 244.044922 250.521637 241.66626 246.417816 241.66626 C 241.41217 241.66626 236.05365 245.208099 236.05365 245.208099 C 248.80954 203.254822 236.05365 141.331299 236.05365 141.331299 L 156.799866 149.173035 L 77.533035 141.331299 Z"/>
    <path id="Path-copy-34" fill="#8ea3b4" fill-rule="evenodd" stroke="none" d="M 95.072372 133.685608 C 88.498383 133.685608 83.597305 137.358154 81.976685 146.951202 C 74.971397 188.133362 97.503311 254.984131 105.279694 263.518555 C 113.108353 272.039886 109.2267 302.348206 109.2267 302.348206 C 102.22142 302.348206 95.987244 307.824341 98.274414 314.071594 C 99.293839 316.842316 106.495163 318.240753 114.258469 318.240753 C 123.91687 318.240753 134.450943 316.08429 135.026001 311.784393 C 136.620483 300.126373 140.920364 239.457489 156.381653 239.457489 L 156.381653 173.443176 C 156.381653 173.443176 116.702484 133.685608 95.072372 133.685608 Z"/>
    <path id="Path-copy-33" fill="#8194a2" fill-rule="evenodd" stroke="none" d="M 109.579575 297.420959 C 109.292038 300.479248 109.017578 302.348206 109.017578 302.348206 C 109.017578 302.348206 110.442169 302.07373 112.311111 302.07373 C 114.441452 302.07373 117.159912 302.426605 119.002716 303.942688 C 119.002716 303.942688 115.879105 299.093872 109.579575 297.420959 Z"/>
    <path id="Path-copy-32" fill="#8194a2" fill-rule="evenodd" stroke="none" d="M 156.381653 221.147064 C 156.381653 221.147064 135.300461 228.701263 133.01329 243.339142 C 130.72612 257.898651 127.26268 294.022888 126.635345 304.570007 C 126.217117 311.784393 119.002716 316.424103 112.075867 318.162354 C 112.794678 318.188477 113.526581 318.188477 114.271545 318.188477 C 123.929947 318.188477 134.437866 316.08429 135.026001 311.705994 C 136.620483 300.126373 141.051056 239.457489 156.381653 239.457489 L 156.381653 221.147064 Z"/>
    <path id="Path-copy-31" fill="#8194a2" fill-rule="evenodd" stroke="none" d="M 109.161346 302.413544 C 106.874176 302.413544 104.717697 302.975525 102.914108 303.942688 L 109.161346 302.413544 Z"/>
    <path id="Path-copy-30" fill="#8ea3b4" fill-rule="evenodd" stroke="none" d="M 217.821625 133.685608 C 196.191513 133.685608 156.525406 173.443176 156.525406 173.443176 L 156.525406 239.457489 C 171.986694 239.457489 176.286575 300.126373 177.881058 311.784393 C 178.456131 316.08429 188.990189 318.240753 198.64859 318.240753 C 206.411896 318.240753 213.61322 316.842316 214.63266 314.071594 C 216.854462 307.824341 210.750977 302.348206 203.667297 302.348206 C 203.667297 302.348206 199.785629 272.039886 207.62738 263.518555 C 215.390686 254.984131 237.922607 188.133362 230.930389 146.951202 C 229.309753 137.358154 224.395599 133.685608 217.821625 133.685608 Z"/>
    <path id="Path-copy-29" fill="#8194a2" fill-rule="evenodd" stroke="none" d="M 203.262146 297.420959 C 196.949539 299.093872 193.825912 303.942688 193.825912 303.942688 C 195.707932 302.426605 198.41333 302.07373 200.543671 302.07373 C 202.399551 302.07373 203.811066 302.348206 203.811066 302.348206 C 203.811066 302.348206 203.536591 300.479248 203.262146 297.420959 Z"/>
    <path id="Path-copy-28" fill="#8194a2" fill-rule="evenodd" stroke="none" d="M 156.525406 221.147064 L 156.525406 239.457489 C 171.908279 239.457489 176.286575 300.126373 177.881058 311.705994 C 178.456131 316.08429 188.96405 318.188477 198.622452 318.188477 C 199.367416 318.188477 200.099304 318.188477 200.831192 318.162354 C 193.891266 316.424103 186.689941 311.784393 186.271713 304.570007 C 185.644379 294.022888 182.180939 257.898651 179.893768 243.339142 C 177.593536 228.701263 156.525406 221.147064 156.525406 221.147064 Z"/>
    <path id="Path-copy-27" fill="#8194a2" fill-rule="evenodd" stroke="none" d="M 203.811066 302.413544 L 210.058319 303.942688 C 208.1763 302.975525 206.032867 302.413544 203.811066 302.413544 Z"/>
    <path id="Path-copy-26" fill="#b1cadb" fill-rule="evenodd" stroke="none" d="M 238.693695 139.109467 L 77.049454 146.114746 C 77.049454 146.114746 69.625954 170.450256 83.571167 176.344635 C 97.437958 182.173645 124.897095 206.718262 156.381653 206.718262 C 187.866196 206.718262 226.13385 173.992096 230.930389 172.881195 C 235.713837 171.770264 238.693695 139.109467 238.693695 139.109467 Z"/>
    <path id="Path-copy-25" fill="#8194a2" fill-rule="evenodd" stroke="none" d="M 245.006287 0.951233 C 222.147644 0.951233 199.39357 10.884064 184.19368 27.952911 C 200.138535 41.819702 216.148712 55.686523 232.106628 69.566345 C 240.079071 61.450195 245.280762 50.693939 246.666138 39.401855 C 248.195251 41.336121 250.482422 42.59082 253.044067 42.865265 C 252.704254 38.212524 252.207611 33.572815 251.867798 28.920044 L 251.867798 28.920044 C 255.122131 29.272949 258.245758 30.723633 260.676697 33.010803 C 259.003784 27.194885 255.684113 21.927856 251.305817 17.837067 C 255.605713 17.62796 259.84024 17.484192 264.140106 17.275085 C 258.311096 13.458771 252.495148 9.577118 246.666138 5.760803 C 249.645996 4.375427 252.560486 3.05542 255.540344 1.670044 C 252.050781 1.186462 248.522003 0.951233 245.006287 0.951233 Z"/>
    <path id="Path-copy-24" fill="#b1cadb" fill-rule="evenodd" stroke="none" d="M 238.628357 15.131683 L 238.628357 15.131683 C 227.597656 16.164185 216.776062 19.222443 206.934692 24.136597 C 202.909256 26.149292 198.609375 29.207581 198.334915 33.572815 C 201.171005 37.179993 206.307343 46.197998 210.254333 48.341431 C 214.24057 50.589355 218.906403 52.863464 223.350037 52.863464 C 225.101349 52.863464 226.813477 52.51062 228.434082 51.674133 C 232.799316 49.452332 234.87738 44.315979 236.13205 39.467163 C 238.131714 31.625458 238.96817 23.378571 238.628357 15.131683 Z"/>
    <path id="Path-copy-23" fill="#8194a2" fill-rule="evenodd" stroke="none" d="M 68.528107 0.951233 C 64.999329 0.951233 61.48362 1.186462 57.98098 1.670044 C 60.960838 3.05542 63.875343 4.375427 66.855202 5.760803 C 61.039253 9.577118 55.210228 13.458771 49.38121 17.275085 C 53.681091 17.484192 57.915627 17.62796 62.215523 17.837067 C 57.850288 21.927856 54.517555 27.194885 52.857719 33.010803 C 55.275589 30.723633 58.399208 29.272949 61.653526 28.920044 L 61.653526 28.920044 C 61.313721 33.572815 60.830147 38.212524 60.477272 42.865265 C 63.038902 42.59082 65.339142 41.336121 66.855209 39.401855 C 68.240585 50.693939 73.442268 61.450195 81.414688 69.566345 C 97.372604 55.686523 113.382813 41.819702 129.340744 27.952911 C 114.127777 10.884064 91.386749 0.951233 68.528114 0.951233 Z"/>
    <path id="Path-copy-22" fill="#b1cadb" fill-rule="evenodd" stroke="none" d="M 74.906052 15.131683 L 74.906052 15.131683 C 74.553169 23.378571 75.389618 31.625458 77.402328 39.467163 C 78.643936 44.315979 80.722 49.452332 85.100296 51.674133 C 86.720932 52.51062 88.433029 52.863464 90.17128 52.863464 C 94.614929 52.863464 99.280762 50.589355 103.266983 48.341431 C 107.213989 46.197998 112.350327 37.179993 115.186417 33.572815 C 114.911957 29.207581 110.612076 26.149292 106.586639 24.136597 C 96.74527 19.222443 85.858337 16.164185 74.906052 15.131683 Z"/>
    <path id="Path-copy-21" fill="#8ea3b4" fill-rule="evenodd" stroke="none" d="M 180.92627 4.519196 C 171.006485 16.935272 147.507416 19.496887 147.507416 19.496887 C 156.721451 10.622681 154.094482 4.519196 154.094482 4.519196 L 154.094482 4.519196 C 142.371078 12.831421 117.617355 26.632874 117.617355 26.632874 C 97.294189 35.311066 82.669357 50.419464 73.586021 67.200775 C 73.586021 67.200775 49.172096 109.088684 51.459267 132.391724 C 51.459267 132.391724 55.419342 127.595184 64.633377 124.824432 C 65.260719 127.111603 66.031822 129.202728 66.933624 131.202393 C 66.306282 140.089691 66.933624 155.19809 76.356766 163.523376 C 76.356766 163.523376 75.32428 155.890778 79.480392 149.578186 C 100.561584 172.815857 132.255249 181.337189 156.381653 181.337189 C 180.442688 181.337189 212.201721 172.672089 233.282898 149.512817 C 237.439026 155.825409 236.471863 163.458038 236.471863 163.458038 C 245.908081 154.988983 246.522369 139.945923 245.908081 130.993256 C 246.809875 128.993622 247.567932 126.902496 248.195251 124.759094 C 257.55307 127.529846 261.434723 132.313293 261.434723 132.313293 C 263.656555 109.088684 239.242615 67.200775 239.242615 67.200775 C 228.564789 47.439606 210.123657 29.965637 183.775436 22.685883 C 188.415131 13.458771 180.92627 4.519196 180.92627 4.519196 Z"/>
    <path id="Path-copy-20" fill="#8194a2" fill-rule="evenodd" stroke="none" d="M 57.562752 101.037842 C 53.471977 111.924805 50.557472 123.582825 51.393921 132.5224 C 51.393921 132.5224 55.275581 127.738953 64.568031 124.968201 C 65.195374 127.190033 65.953407 129.268097 66.855202 131.280792 C 66.240936 140.220367 66.855202 155.263428 76.291428 163.588745 C 76.291428 163.588745 75.24585 155.969177 79.415039 149.656586 C 100.496231 172.881195 132.176834 181.480957 156.316299 181.480957 C 180.37735 181.480957 212.136353 172.815857 233.13913 149.578186 C 237.308319 155.890778 236.406525 163.523376 236.406525 163.523376 C 245.829681 155.132751 246.457001 140.011261 245.829681 131.137024 C 246.666138 129.124329 247.502563 127.046265 248.051483 124.902863 C 257.409302 127.738953 261.369385 132.391724 261.369385 132.391724 C 262.127411 124.340881 259.696472 114.01593 256.233032 103.952362 C 241.124634 113.453918 224.343323 120.184753 206.869324 123.648193 C 209.496307 121.217255 211.299927 117.962921 211.992584 114.499512 L 211.992584 114.499512 C 203.954834 119.76651 194.309494 122.68103 184.598816 122.811737 C 186.337067 120.602966 188.075317 118.446503 189.878906 116.303101 L 189.878906 116.303101 C 187.526398 116.512207 185.173874 116.61676 182.808289 116.61676 C 174.482986 116.61676 166.118469 115.296753 158.185242 112.76123 C 153.362579 116.734375 147.076126 118.786316 140.789673 118.786316 C 135.797104 118.786316 130.804535 117.47934 126.556931 114.839294 L 126.556931 114.839294 C 127.667831 117.061127 128.778748 119.204529 129.82431 121.504761 C 118.937378 118.799377 108.115784 116.015564 97.163498 113.323242 L 97.163498 113.323242 C 99.3069 116.303101 101.398041 119.139191 103.541443 122.119049 C 87.45282 116.995789 71.991539 109.781372 57.562752 101.037842 Z"/>
    <path id="Path-copy-19" fill="#303a43" fill-rule="evenodd" stroke="none" d="M 156.446991 102.776123 C 134.124191 102.776123 140.083908 122.955505 156.028763 122.955505 C 172.600967 122.955505 178.090179 102.776123 156.446991 102.776123 Z"/>
    <path id="Path-copy-18" fill="#303a43" fill-rule="evenodd" stroke="none" d="M 121.067719 86.818176 C 117.369034 86.818176 113.997086 89.327515 113.108353 93.06543 C 112.075867 97.430664 114.78125 101.874298 119.146484 102.919861 C 119.786896 103.063629 120.427307 103.142029 121.054642 103.142029 C 124.779465 103.142029 128.099136 100.606567 128.987869 96.816406 C 130.033432 92.43808 127.328033 88.072876 122.962799 87.040344 C 122.322388 86.883545 121.695053 86.818176 121.067719 86.818176 Z"/>
    <path id="Path-copy-17" fill="#ffffff" fill-rule="evenodd" stroke="none" d="M 118.166275 89.249115 C 116.650208 89.249115 115.473938 90.438446 115.473938 91.954529 C 115.473938 93.418304 116.650208 94.594543 118.166275 94.594543 C 119.630066 94.594543 120.80632 93.418304 120.80632 91.954529 C 120.80632 90.438446 119.630066 89.249115 118.166275 89.249115 Z"/>
    <path id="Path-copy-16" fill="#ffffff" fill-rule="evenodd" stroke="none" d="M 123.577072 98.89444 C 122.884384 98.89444 122.335464 99.443359 122.335464 100.136047 C 122.335464 100.828735 122.884384 101.456085 123.577072 101.456085 C 124.26976 101.456085 124.897095 100.828735 124.897095 100.136047 C 124.897095 99.443359 124.26976 98.89444 123.577072 98.89444 Z"/>
    <path id="Path-copy-15" fill="#303a43" fill-rule="evenodd" stroke="none" d="M 191.865479 86.818176 C 188.179871 86.818176 184.794861 89.327515 183.906128 93.06543 C 182.873627 97.430664 185.579025 101.80896 190.009613 102.841431 C 190.650024 102.998291 191.277359 103.063629 191.904694 103.063629 C 195.57724 103.063629 198.896912 100.55426 199.785629 96.816406 C 200.831192 92.43808 198.125809 88.072876 193.760574 87.040344 C 193.120163 86.883545 192.492828 86.818176 191.865479 86.818176 Z"/>
    <path id="Path-copy-14" fill="#ffffff" fill-rule="evenodd" stroke="none" d="M 188.977112 89.249115 C 187.447983 89.249115 186.271713 90.438446 186.271713 91.954529 C 186.271713 93.418304 187.447983 94.594543 188.977112 94.594543 C 190.427841 94.594543 191.604095 93.418304 191.604095 91.954529 C 191.604095 90.438446 190.427841 89.249115 188.977112 89.249115 Z"/>
    <path id="Path-copy-13" fill="#ffffff" fill-rule="evenodd" stroke="none" d="M 194.453262 98.89444 C 193.760574 98.89444 193.13324 99.443359 193.13324 100.136047 C 193.13324 100.828735 193.760574 101.456085 194.453262 101.456085 C 195.14595 101.456085 195.69487 100.828735 195.69487 100.136047 C 195.69487 99.443359 195.14595 98.89444 194.453262 98.89444 Z"/>
    <path id="Path-copy-12" fill="#303a43" fill-rule="evenodd" stroke="none" d="M 81.689148 103.089783 C 69.011681 103.089783 56.38649 106.291809 46.061546 113.179474 C 45.120537 113.806824 45.473412 115.322876 46.505905 115.322876 C 46.623535 115.322876 46.754227 115.296753 46.884926 115.257507 C 60.411911 110.774658 72.749573 108.199951 85.440109 108.199951 C 94.157501 108.199951 103.057861 109.415436 112.624786 112.068542 C 112.742401 112.107788 112.84697 112.133911 112.951523 112.133911 C 113.879456 112.133911 114.454514 110.63092 113.461227 110.121216 C 103.855118 105.533783 92.759064 103.089783 81.689148 103.089783 Z"/>
    <path id="Path-copy-11" fill="#303a43" fill-rule="evenodd" stroke="none" d="M 103.802826 118.786316 C 86.002106 118.786316 66.280151 130.627319 55.550041 143.487762 C 54.635178 144.57254 55.44548 146.114746 56.621742 146.114746 C 56.856995 146.114746 57.105316 146.049408 57.353638 145.90564 C 65.195381 141.958618 71.782425 135.711365 79.271286 131.137024 C 89.112656 125.098907 99.3069 122.955505 110.677414 122.119049 C 112.075867 121.988342 112.624786 119.831879 111.030289 119.492065 C 108.67778 119.008484 106.259903 118.786316 103.802826 118.786316 Z"/>
    <path id="Path-copy-10" fill="#303a43" fill-rule="evenodd" stroke="none" d="M 111.801392 132.5224 C 111.683777 132.5224 111.566147 132.548553 111.448517 132.60083 C 99.097794 137.867859 84.263855 150.349274 82.813126 164.764984 C 82.721649 165.366211 83.152939 165.666809 83.623444 165.666809 C 83.963257 165.666809 84.34227 165.509949 84.538315 165.183228 C 88.210861 159.432617 90.511093 153.329132 95.007019 147.918335 C 99.790482 142.233093 105.828613 137.593384 112.350327 134.116882 C 113.265182 133.698669 112.624786 132.5224 111.801392 132.5224 Z"/>
    <path id="Path-copy-9" fill="#303a43" fill-rule="evenodd" stroke="none" d="M 230.77356 103.089783 C 219.716705 103.089783 208.633728 105.533783 199.027603 110.121216 C 198.034317 110.63092 198.544022 112.133911 199.511169 112.133911 C 199.628799 112.133911 199.733353 112.107788 199.864059 112.068542 C 209.430969 109.415436 218.318268 108.199951 227.048737 108.199951 C 239.739258 108.199951 252.076935 110.774658 265.590851 115.257507 C 265.734589 115.296753 265.852234 115.322876 265.969849 115.322876 C 267.015411 115.322876 267.368286 113.806824 266.427277 113.179474 C 256.063141 106.291809 243.437958 103.089783 230.77356 103.089783 Z"/>
    <path id="Path-copy-8" fill="#303a43" fill-rule="evenodd" stroke="none" d="M 208.607574 118.786316 C 206.163574 118.786316 203.732635 119.008484 201.380127 119.492065 C 199.864059 119.831879 200.347626 121.988342 201.733002 122.119049 C 213.038177 122.955505 223.29776 125.098907 233.073792 131.137024 C 240.627991 135.711365 247.215057 141.958618 254.991425 145.90564 C 255.252808 146.049408 255.514221 146.114746 255.762543 146.114746 C 256.977997 146.114746 257.78833 144.57254 256.860382 143.487762 C 246.078003 130.627319 226.395233 118.786316 208.607574 118.786316 Z"/>
    <path id="Path-copy-7" fill="#303a43" fill-rule="evenodd" stroke="none" d="M 200.661301 132.5224 C 199.785629 132.5224 199.158295 133.698669 200.138519 134.116882 C 206.660217 137.593384 212.685272 142.233093 217.46875 147.918335 C 221.977753 153.329132 224.264923 159.432617 227.937439 165.183228 C 228.146576 165.509949 228.499451 165.666809 228.839264 165.666809 C 229.296692 165.666809 229.714905 165.366211 229.67569 164.764984 C 228.224976 150.349274 213.37796 137.867859 201.040314 132.60083 C 200.909622 132.548553 200.778915 132.5224 200.661301 132.5224 Z"/>
    <path id="Path-copy-6" fill="#303a43" fill-rule="evenodd" stroke="none" d="M 175.437057 124.915924 C 174.862 124.915924 174.260803 125.111969 173.711868 125.595551 C 168.314148 130.261383 163.700592 132.640045 157.557907 132.640045 C 155.49292 132.640045 153.258026 132.378632 150.761734 131.829712 C 145.14183 130.588104 141.051056 127.464478 136.058487 125.308014 C 135.875519 125.242676 135.73175 125.203461 135.601059 125.203461 C 134.398651 125.203461 135.326599 128.117981 135.574921 128.431641 C 139.182114 133.698669 147.089188 135.855133 152.983566 136.691589 C 154.290512 136.848419 155.53212 136.926849 156.734528 136.926849 C 164.706955 136.926849 170.496765 133.437286 176.770157 128.013397 C 178.364639 126.61496 177.083817 124.915924 175.437057 124.915924 Z"/>
    <path id="Path-copy-5" fill="#303a43" fill-rule="evenodd" stroke="none" d="M 156.656113 111.532715 C 156.237885 111.532715 155.845795 111.767944 155.688965 112.277649 C 153.610901 118.799377 154.721817 127.190033 154.787155 133.986206 C 154.852509 135.371582 155.950348 136.077332 156.995911 136.077332 C 157.989197 136.077332 158.943283 135.43692 158.943283 134.116882 C 159.021698 130.235229 158.943283 126.418915 158.87793 122.602631 C 158.812592 119.204529 158.943283 115.675751 157.832367 112.421448 C 157.649399 111.859436 157.139679 111.532715 156.656113 111.532715 Z"/>
    <path id="Path-copy-4" fill="#b1cadb" fill-rule="evenodd" stroke="none" d="M 180.991623 4.519196 C 171.0849 16.935272 147.572769 19.496887 147.572769 19.496887 C 156.799866 10.622681 154.159821 4.519196 154.159821 4.519196 L 154.159821 4.519196 C 145.350937 10.897156 128.778748 20.398712 121.433655 24.55481 C 128.360519 28.789368 133.980438 35.311066 136.82959 42.930603 C 137.796738 40.434326 138.8423 37.938049 139.809448 35.311066 C 145.494705 50.693939 151.245316 66.089844 156.865219 81.420471 C 161.857788 68.377045 166.785019 55.202942 171.777588 42.107239 C 173.999405 45.296204 176.20816 48.485168 178.364639 51.739502 C 181.200729 43.623291 187.996902 37.728943 193.825912 31.351013 C 194.87149 30.109375 195.903976 28.920044 196.949539 27.534668 C 192.78035 25.600403 188.480469 24.00592 183.840775 22.685883 C 188.480469 13.458771 180.991623 4.519196 180.991623 4.519196 Z"/>
    <path id="Path-copy-3" fill="#b1cadb" fill-rule="evenodd" stroke="none" d="M 228.499451 51.530396 C 223.506866 55.412048 218.579651 59.372131 213.587097 63.319122 C 218.239838 63.671997 222.74884 65.057373 226.8396 67.344543 C 221.075928 74.140717 215.456024 81.067566 209.770782 87.942139 C 217.194275 86.478363 224.748474 85.576569 232.381104 85.445862 L 232.381104 85.445862 C 232.106628 87.733032 231.061066 90.020203 229.401245 91.745422 C 236.890106 92.163635 244.444305 92.581848 251.867798 93.06543 C 245.908081 78.780396 239.242615 67.200775 239.242615 67.200775 C 236.262756 61.868408 232.655548 56.588318 228.499451 51.530396 Z"/>
    <path id="Path-copy-2" fill="#b1cadb" fill-rule="evenodd" stroke="none" d="M 80.722 56.248474 C 78.016602 59.777283 75.664078 63.528229 73.586021 67.409912 C 73.586021 67.409912 65.339134 81.551147 58.94812 97.927307 C 64.502686 97.234619 70.044174 96.816406 75.59874 96.672607 C 75.389618 94.869019 75.180511 93.000061 74.971397 91.131134 L 101.319611 91.131134 C 93.765411 86.13855 87.17836 79.891296 81.976685 72.676941 L 81.976685 72.676941 C 82.669357 72.742249 83.362045 72.768402 84.054733 72.768402 C 87.465897 72.768402 90.863968 72.075745 93.974533 70.807983 C 90.223572 65.331848 85.714569 60.404602 80.722 56.248474 Z"/>
    <path id="Path-copy" fill="#8194a2" fill-rule="evenodd" stroke="none" d="M 74.696938 150.689087 Z"/>
</svg>
