<?xml version="1.0" encoding="UTF-8"?>
<!-- Generated by Pixelmator Pro 3.4.1 -->
<svg width="354" height="375" viewBox="0 0 354 375" xmlns="http://www.w3.org/2000/svg">
    <path id="Path-copy-40" fill="#f0f0f0" fill-rule="evenodd" stroke="none" d="M 159.325058 289.106445 C 71.305252 289.106445 0 308.343872 0 332.000305 C 0 355.740387 71.305244 374.908112 159.325058 374.908112 C 247.26123 374.908112 318.636169 355.740387 318.636169 332.000305 C 318.636169 308.343872 247.26123 289.106445 159.325058 289.106445 Z"/>
    <path id="Path-copy-39" fill="#d0bfb1" fill-rule="evenodd" stroke="none" d="M 307.049744 146.204834 C 289.763641 146.204834 272.770264 156.172058 264.489655 171.352875 C 257.393982 184.372986 256.655151 199.902344 252.222076 214.037659 C 243.927521 240.956085 221.218597 262.842133 194.160233 270.467407 L 201.032867 304.118958 C 231.799377 292.437103 261.018494 270.843781 271.445923 239.548126 C 275.000732 229.051208 276.185669 217.954834 278.917999 207.234863 C 281.650299 196.500946 286.236725 185.780945 294.824005 178.755096 C 299.744965 174.72641 306.255157 172.370514 312.556213 172.370514 C 317.226257 172.370514 321.798706 173.666962 325.506866 176.538635 C 329.43808 179.563629 332.017059 183.92691 335.725189 187.188904 C 338.164764 189.293884 341.552307 190.86911 344.688904 190.86911 C 346.305969 190.86911 347.853363 190.450897 349.177704 189.475098 C 353.987152 186.0737 352.885864 178.462372 350.292938 173.20694 C 342.528137 157.384857 325.506866 146.581238 307.983765 146.204834 C 307.677063 146.204834 307.356445 146.204834 307.049744 146.204834 Z"/>
    <path id="Path-copy-38" fill="#baa89d" fill-rule="evenodd" stroke="none" d="M 308.889526 160.340271 C 301.166534 160.340271 293.192596 163.281647 287.044891 168.174622 C 276.993835 176.315674 271.152802 188.736359 267.305237 201.087341 C 263.388 213.521973 261.08783 226.458435 256.055328 238.363342 C 251.106476 250.42157 242.965271 261.740967 231.129852 267.066101 L 234.754364 286.442932 C 251.399231 274.607727 265.005096 259.008698 271.445557 239.771271 C 275.000366 229.190704 276.185303 218.108276 278.917633 207.374359 C 281.719635 196.654388 286.236328 185.850769 294.823639 178.894623 C 299.744598 174.865906 306.254791 172.523956 312.555847 172.523956 C 317.225891 172.523956 321.79834 173.820404 325.5065 176.678131 C 329.437714 179.786774 332.016693 184.080353 335.724823 187.3284 C 338.150452 189.475189 341.454346 191.036499 344.576996 191.036499 C 346.208038 191.036499 347.783295 190.618286 349.177338 189.62854 C 351.254456 188.290283 352.146637 186.143494 352.439392 183.703979 L 352.439392 183.703979 C 351.909668 183.759735 351.365997 183.787598 350.822296 183.787598 C 346.86322 183.787598 342.597473 182.407532 339.419037 179.940125 C 333.494354 175.423523 329.507416 168.69043 323.289978 164.480499 C 318.996338 161.622772 313.99173 160.340271 308.889526 160.340271 Z"/>
    <path id="Path-copy-37" fill="#aa9a8f" fill-rule="evenodd" stroke="none" d="M 68.042885 154.122925 C 68.042885 154.122925 54.367332 220.171387 68.042885 264.919281 C 68.042885 264.919281 62.355194 261.14151 57.016014 261.14151 C 52.652664 261.14151 48.540237 263.678619 47.996567 272.906982 C 46.895271 293.468719 57.322708 307.157959 57.991844 312.706146 C 58.577339 318.324036 30.320114 317.069397 37.792175 331.929626 C 38.531021 333.379395 51.523491 333.86731 68.502922 333.86731 C 102.475723 333.86731 152.438187 331.929626 152.438187 331.929626 C 152.438187 331.929626 202.442474 333.86731 236.401337 333.86731 C 253.394714 333.86731 266.37323 333.379395 267.084198 331.929626 C 274.779327 317.139099 246.368744 318.324036 247.107574 312.706146 C 247.776733 307.07431 258.204163 293.468719 257.102875 272.906982 C 256.601013 263.678619 252.488586 261.14151 248.111298 261.14151 C 242.772125 261.14151 237.056549 264.919281 237.056549 264.919281 C 250.732086 220.171387 237.056549 154.122925 237.056549 154.122925 L 152.507889 162.487 L 68.042885 154.122925 Z"/>
    <path id="Path-copy-36" fill="#d0bfb1" fill-rule="evenodd" stroke="none" d="M 86.722702 145.967865 C 79.710678 145.967865 74.483017 149.88504 72.782288 160.117126 C 65.310219 204.042542 89.343506 275.416168 97.638046 284.519073 C 105.988358 293.538361 101.778351 325.935303 101.778351 325.935303 C 94.30629 325.935303 87.642776 331.776215 90.165985 338.369904 C 91.211517 341.353119 98.864807 342.844696 107.13147 342.844696 C 117.447388 342.844696 128.753067 340.53064 129.36644 335.930389 C 130.983536 323.495758 135.65358 258.785553 152.075394 258.785553 L 152.075394 188.37381 C 152.075394 188.37381 109.752274 145.967865 86.722702 145.967865 Z"/>
    <path id="Path-copy-35" fill="#baa89d" fill-rule="evenodd" stroke="none" d="M 102.140442 320.764771 C 101.917404 324.012817 101.624649 326.020203 101.624649 326.020203 C 101.624649 326.020203 103.199921 325.671722 105.277039 325.671722 C 107.493561 325.671722 110.281647 326.062042 112.275131 327.720917 C 112.275131 327.720917 108.943375 322.535187 102.140442 320.764771 Z"/>
    <path id="Path-copy-34" fill="#baa89d" fill-rule="evenodd" stroke="none" d="M 152.074997 239.409424 C 152.074997 239.409424 129.658798 247.466827 127.219223 263.065857 C 124.696014 278.609131 121.001801 317.13974 120.332657 328.305817 C 119.900513 336.000763 112.275101 341.033173 104.886673 342.87326 C 105.653397 342.901154 106.434067 342.9151 107.228668 342.9151 C 117.53064 342.9151 128.738739 340.670715 129.366058 336.000763 C 130.983139 323.566162 135.722885 258.855927 152.074997 258.855927 L 152.074997 239.409424 Z"/>
    <path id="Path-copy-33" fill="#baa89d" fill-rule="evenodd" stroke="none" d="M 101.62471 326.020264 C 99.18515 326.020264 96.884979 326.675446 94.975143 327.720947 L 101.62471 326.020264 Z"/>
    <path id="Path-copy-32" fill="#d0bfb1" fill-rule="evenodd" stroke="none" d="M 217.538727 145.967865 C 194.495224 145.967865 152.213928 188.37381 152.213928 188.37381 L 152.213928 258.785553 C 168.635742 258.785553 173.29184 323.495758 174.922867 335.930389 C 175.536255 340.53064 186.814056 342.844696 197.129959 342.844696 C 205.38269 342.844696 213.03598 341.353119 214.123322 338.369904 C 216.632599 331.776215 209.983032 325.935303 202.510956 325.935303 C 202.510956 325.935303 198.300964 293.538361 206.651276 284.519073 C 214.931885 275.346466 238.979095 204.042542 231.50705 160.117126 C 229.778412 149.88504 224.550781 145.967865 217.538727 145.967865 Z"/>
    <path id="Path-copy-31" fill="#baa89d" fill-rule="evenodd" stroke="none" d="M 202.148132 320.764771 C 195.331253 322.535187 192.013428 327.720917 192.013428 327.720917 C 193.923264 326.062042 196.711349 325.671722 198.955765 325.671722 C 201.046814 325.671722 202.66391 326.020203 202.66391 326.020203 C 202.66391 326.020203 202.357239 324.012817 202.148132 320.764771 Z"/>
    <path id="Path-copy-30" fill="#baa89d" fill-rule="evenodd" stroke="none" d="M 152.213928 239.409424 L 152.213928 258.855927 C 168.56604 258.855927 173.29184 323.566162 174.922867 336.000763 C 175.536255 340.670715 186.758286 342.9151 197.060257 342.9151 C 197.840927 342.9151 198.635529 342.901154 199.402252 342.87326 C 192.013824 341.033173 184.388412 336.000763 183.87262 328.305817 C 183.287125 317.13974 179.578979 278.609131 177.069702 263.065857 C 174.630127 247.466827 152.213928 239.409424 152.213928 239.409424 Z"/>
    <path id="Path-copy-29" fill="#8194a2" fill-rule="evenodd" stroke="none" d="M 202.58017 326.020264 L 209.243683 327.720947 C 207.250214 326.675446 204.950043 326.020264 202.58017 326.020264 Z"/>
    <path id="Path-copy-28" fill="#ffffff" fill-rule="evenodd" stroke="none" d="M 192.335403 132.320343 C 139.403625 132.320343 63.60955 150.428619 63.60955 150.428619 C 63.60955 150.428619 57.991562 185.850555 91.643723 202.049011 C 91.643723 202.049011 89.120514 197.016602 86.025742 192.737 L 86.025742 192.737 C 86.025742 192.737 109.027451 208.266327 127.066345 210.705841 C 127.066345 210.705841 124.097046 204.279449 121.657471 202.955109 L 121.657471 202.955109 C 125.992935 204.265503 146.443527 210.998596 152.591263 223.210175 C 152.591263 223.210175 158.725052 208.851807 177.43309 205.826782 L 177.43309 205.826782 C 177.43309 205.826782 177.43309 212.69928 171.229599 214.553345 C 171.229599 214.553345 199.779587 208.851807 214.793427 192.806702 L 214.793427 192.806702 C 214.793427 192.806702 213.60849 199.609497 209.760925 203.972748 C 209.760925 203.972748 251.470673 189.628326 242.158447 149.912811 C 239.021851 136.73938 218.473694 132.320343 192.335403 132.320343 Z"/>
    <path id="Path-copy-27" fill="#baa89d" fill-rule="evenodd" stroke="none" d="M 76.002533 1.630432 C 74.831543 1.630432 73.674484 1.839508 72.55925 2.355286 C 68.265602 4.279053 66.85762 9.743591 66.202415 14.552917 C 63.902252 33.637024 65.463577 53.390198 70.858521 71.94458 C 93.274719 67.288574 107.396362 44.956421 127.582092 34.013397 C 114.868423 22.317627 100.30069 12.336456 84.687408 4.348755 C 81.982971 2.968658 78.943954 1.630432 76.002533 1.630432 Z"/>
    <path id="Path-copy-26" fill="#d67268" fill-rule="evenodd" stroke="none" d="M 82.568344 17.675659 C 81.592514 17.675659 80.672455 17.912628 79.877853 18.553894 C 78.33046 19.7388 77.884369 21.871643 77.591614 23.879028 C 76.253342 34.152893 76.922485 44.663788 79.585098 54.784363 C 80.170593 56.708069 80.839737 58.715454 82.470764 59.74704 C 83.223541 60.207092 84.018158 60.402222 84.840637 60.402222 C 87.168686 60.402222 89.677963 58.813049 91.643555 57.237823 C 98.000397 52.205414 109.09697 42.293945 115.607147 37.191864 C 107.103485 29.942993 97.637939 23.79538 87.572952 19.069672 C 85.997696 18.37265 84.213318 17.675659 82.568344 17.675659 Z"/>
    <path id="Path-copy-25" fill="#baa89d" fill-rule="evenodd" stroke="none" d="M 233.165649 1.630432 C 230.210297 1.630432 227.171265 2.968658 224.480774 4.348755 C 208.867493 12.336456 194.369461 22.317627 181.586105 34.013397 C 201.77182 44.956421 215.893463 67.288574 238.379364 71.94458 C 243.70462 53.390198 245.26593 33.637024 242.965759 14.552917 C 242.310577 9.743591 240.97229 4.279053 236.608948 2.355286 C 235.493713 1.839508 234.336639 1.630432 233.165649 1.630432 Z"/>
    <path id="Path-copy-24" fill="#d67268" fill-rule="evenodd" stroke="none" d="M 226.599609 17.675659 C 224.95462 17.675659 223.170258 18.37265 221.595001 19.069672 C 211.529999 23.79538 202.148102 29.942993 193.630493 37.191864 C 200.070984 42.293945 211.167542 52.205414 217.524384 57.237823 C 219.545746 58.813049 222.013214 60.402222 224.341248 60.402222 C 225.14978 60.402222 225.944397 60.207092 226.697174 59.74704 C 228.397919 58.715454 228.997345 56.708069 229.582855 54.784363 C 232.245483 44.663788 232.914612 34.152893 231.576324 23.879028 C 231.353271 21.871643 230.837494 19.7388 229.2901 18.553894 C 228.495483 17.912628 227.575439 17.675659 226.599609 17.675659 Z"/>
    <path id="Path-copy-23" fill="#d0bfb1" fill-rule="evenodd" stroke="none" d="M 152.953903 23.79541 C 69.227737 23.79541 38.461227 109.011627 59.023354 146.3573 C 79.515778 183.786621 122.117691 196.946106 152.953903 196.946106 C 183.720413 196.946106 226.336273 183.786621 246.88446 146.3573 C 267.446564 109.011597 236.610352 23.79541 152.953903 23.79541 Z"/>
    <path id="Path-copy-22" fill="#d0bfb1" fill-rule="evenodd" stroke="none" d="M 169.695618 12.503815 C 150.736649 12.503815 132.251648 29.050781 132.251648 29.050781 C 138.90123 19.585419 132.251648 14.260254 132.251648 14.260254 C 125.588135 26.234863 111.912582 32.089722 111.912582 32.089722 C 113.515732 33.121307 118.659744 33.483765 124.877167 33.483765 C 137.562943 33.483765 154.6539 32.006104 154.6539 32.006104 C 154.6539 32.006104 165.1371 35.323853 175.202087 35.323853 C 180.234573 35.323853 185.155548 34.501404 188.612762 32.006104 C 198.956558 24.617798 197.339478 17.299225 197.339478 17.285278 L 197.339478 17.285278 C 190.634125 23.251678 182.465042 24.729309 175.982742 24.729309 C 169.598038 24.729309 164.858292 23.279541 164.858292 23.279541 C 167.96701 14.622711 171.591522 12.55957 171.591522 12.55957 C 170.964203 12.517761 170.322937 12.503815 169.695618 12.503815 Z"/>
    <path id="Path-copy-21" fill="#ffffff" fill-rule="evenodd" stroke="none" d="M 150.8069 78.664307 C 150.639603 78.664307 150.458389 78.678223 150.291092 78.678223 C 142.679626 79.194031 137.49379 86.373199 133.283783 92.88324 C 123.441849 108.412598 112.791367 124.318298 97.038696 133.937012 C 87.057358 140.084625 75.305573 143.249023 63.567741 143.249023 C 61.476685 143.249023 59.399559 143.151459 57.322433 142.956299 L 57.322433 142.956299 C 57.907936 144.141205 58.437668 145.326111 59.02317 146.511017 C 79.515579 183.926422 122.117508 197.016235 152.95372 197.016235 C 183.72023 197.016235 226.33609 183.926422 246.814575 146.511017 C 247.414001 145.465515 247.846161 144.43396 248.445587 143.318726 L 248.445587 143.318726 C 247.567352 143.360565 246.703033 143.374512 245.824799 143.374512 C 216.006226 143.374512 186.341019 126.283875 172.107849 99.909088 C 169.598572 95.169434 167.451752 90.067322 164.119995 85.927124 C 160.760345 81.912354 156.006668 78.664307 150.8069 78.664307 Z"/>
    <path id="Path-copy-20" fill="#baa89d" fill-rule="evenodd" stroke="none" d="M 249.477234 94.946503 L 249.477234 94.946503 C 243.343445 106.042877 233.208771 114.992462 221.819458 120.917023 C 206.945038 128.681702 190.091049 131.860046 173.5159 134.229858 C 171.578171 134.522614 169.584702 134.787476 167.633041 134.787476 C 166.15535 134.787476 164.705551 134.634125 163.311508 134.229858 C 159.979752 133.337708 156.801331 130.744843 156.438889 127.343445 L 146.959396 127.343445 C 145.635056 132.82193 140.240112 136.516052 134.691833 137.477936 C 133.214142 137.756744 131.750397 137.868256 130.27272 137.868256 C 126.174225 137.868256 122.075745 136.962158 118.046967 135.930573 C 94.752518 130.006012 71.597481 120.094543 54.436821 103.603333 L 54.436821 103.603333 C 51.32811 119.732117 52.889435 135.261444 59.023216 146.511139 C 79.51564 183.926544 122.117569 197.016327 152.953781 197.016327 C 183.720291 197.016327 226.336151 183.926544 246.814636 146.511139 C 254.133331 133.268005 255.025543 114.114227 249.477234 94.946503 Z"/>
    <path id="Path-copy-19" fill="#f0f0f0" fill-rule="evenodd" stroke="none" d="M 146.959335 127.273956 C 145.634995 132.668823 140.240051 136.376892 134.691772 137.408478 C 133.214081 137.687256 131.750336 137.798798 130.272659 137.798798 C 126.174164 137.798798 122.075684 136.89267 118.046906 135.861115 C 112.498611 134.453156 106.88063 132.822144 101.402039 130.828705 C 99.994064 131.860291 98.600021 132.975494 97.038696 133.937378 C 87.113113 140.084961 75.319519 143.24939 63.567749 143.24939 C 61.476692 143.24939 59.399567 143.151825 57.322441 142.956635 L 57.322441 142.956635 C 57.768539 144.057922 58.354034 145.103424 58.869827 146.13501 C 59.023178 146.204712 59.023178 146.288361 59.09288 146.358032 C 79.585281 183.857056 122.256912 196.946869 153.037354 196.946869 C 183.803864 196.946869 226.405792 183.857056 246.967896 146.358032 C 247.483704 145.396179 247.92981 144.280975 248.445587 143.24939 L 248.445587 143.24939 C 247.651001 143.277283 246.870331 143.291199 246.075714 143.291199 C 229.639954 143.291199 213.315735 138.161224 199.486832 129.197723 C 190.969238 131.414185 182.242538 132.891846 173.515839 134.1604 C 171.578125 134.453156 169.584641 134.718018 167.63298 134.718018 C 166.155289 134.718018 164.70549 134.564667 163.311447 134.1604 C 159.979691 133.26825 156.80127 130.675385 156.438828 127.273956 Z"/>
    <path id="Path-copy-18" fill="#58504c" fill-rule="evenodd" stroke="none" d="M 114.965591 81.326874 C 111.006516 81.326874 107.451706 84.017334 106.503754 88.004211 C 105.402466 92.660217 108.357834 97.399872 113.013931 98.50116 C 113.655197 98.640564 114.296448 98.710266 114.923767 98.710266 C 118.882858 98.710266 122.493423 96.019806 123.441376 91.991089 C 124.55661 87.335083 121.670929 82.679077 117.014832 81.563843 C 116.331757 81.410522 115.634735 81.326874 114.965591 81.326874 Z"/>
    <path id="Path-copy-17" fill="#ffffff" fill-rule="evenodd" stroke="none" d="M 111.9823 83.780365 C 110.420975 83.780365 109.096634 85.118622 109.096634 86.665955 C 109.096634 88.227264 110.420975 89.481873 111.9823 89.481873 C 113.529694 89.481873 114.867981 88.227264 114.867981 86.665955 C 114.867981 85.118622 113.613342 83.780365 111.9823 83.780365 Z"/>
    <path id="Path-copy-16" fill="#ffffff" fill-rule="evenodd" stroke="none" d="M 117.823273 94.068268 C 117.014725 94.068268 116.415283 94.653748 116.415283 95.392578 C 116.415283 96.215057 117.014725 96.800537 117.823273 96.800537 C 118.562119 96.800537 119.161545 96.215057 119.161545 95.392578 C 119.161545 94.653748 118.562119 94.068268 117.823273 94.068268 Z"/>
    <path id="Path-copy-15" fill="#58504c" fill-rule="evenodd" stroke="none" d="M 190.480103 81.326874 C 186.521011 81.326874 182.966217 84.017334 182.018265 88.004211 C 180.916962 92.660217 183.872345 97.316223 188.528442 98.431458 C 189.211517 98.584778 189.880661 98.668427 190.549805 98.668427 C 194.467056 98.668427 198.007919 95.977966 198.955872 91.991089 C 200.071106 87.335083 197.18544 82.595428 192.529343 81.563843 C 191.846252 81.410522 191.163177 81.326874 190.480103 81.326874 Z"/>
    <path id="Path-copy-14" fill="#ffffff" fill-rule="evenodd" stroke="none" d="M 187.496811 83.780365 C 185.949417 83.780365 184.611145 85.118622 184.611145 86.665955 C 184.611145 88.227264 185.949417 89.481873 187.496811 89.481873 C 189.044205 89.481873 190.382477 88.227264 190.382477 86.665955 C 190.382477 85.118622 189.044205 83.780365 187.496811 83.780365 Z"/>
    <path id="Path-copy-13" fill="#ffffff" fill-rule="evenodd" stroke="none" d="M 193.337769 94.068268 C 192.529236 94.068268 191.929794 94.653748 191.929794 95.392578 C 191.929794 96.215057 192.529236 96.800537 193.337769 96.800537 C 194.076614 96.800537 194.676056 96.215057 194.676056 95.392578 C 194.676056 94.653748 194.076614 94.068268 193.337769 94.068268 Z"/>
    <path id="Path-copy-12" fill="#58504c" fill-rule="evenodd" stroke="none" d="M 76.281601 113.417358 C 62.801224 113.417358 49.348717 116.832703 38.307899 124.165222 C 37.332069 124.820404 37.68058 126.465332 38.753998 126.465332 C 38.893402 126.465332 39.046745 126.451416 39.200089 126.381714 C 53.656303 121.642029 66.843941 118.881897 80.421906 118.881897 C 89.692291 118.881897 99.14389 120.164368 109.320404 122.980286 C 109.431931 123.022125 109.543442 123.036072 109.641037 123.036072 C 110.7005 123.036072 111.285995 121.460815 110.212585 120.986877 C 99.938492 116.052063 88.103088 113.417358 76.281601 113.417358 Z"/>
    <path id="Path-copy-11" fill="#58504c" fill-rule="evenodd" stroke="none" d="M 99.910522 130.075958 C 80.92366 130.075958 59.887573 142.70575 48.44249 156.422852 C 47.452721 157.607788 48.344902 159.266663 49.627426 159.266663 C 49.86441 159.266663 50.115334 159.210907 50.366264 159.085419 C 58.730515 154.79187 65.756485 148.128479 73.814056 143.24942 C 84.241486 136.8927 95.115005 134.522888 107.243179 133.630707 C 108.720856 133.561005 109.320297 131.191162 107.619568 130.828735 C 105.110291 130.312958 102.531311 130.075958 99.910522 130.075958 Z"/>
    <path id="Path-copy-10" fill="#58504c" fill-rule="evenodd" stroke="none" d="M 108.469635 144.796875 C 108.344177 144.796875 108.204773 144.824768 108.065369 144.880524 C 94.891663 150.498413 79.06929 163.811249 77.507965 179.201172 C 77.424316 179.842438 77.884354 180.163055 78.386215 180.163055 C 78.748657 180.163055 79.138992 179.981842 79.362045 179.647278 C 83.279297 173.569366 85.718872 166.989594 90.52832 161.218384 C 95.630508 155.154419 102.070984 150.27536 109.027252 146.581207 C 109.989136 145.995728 109.375763 144.796875 108.469635 144.796875 Z"/>
    <path id="Path-copy-9" fill="#58504c" fill-rule="evenodd" stroke="none" d="M 235.409882 113.417358 C 223.588409 113.417358 211.739044 116.052063 201.478882 120.986877 C 200.405487 121.460815 200.977051 123.036072 202.036499 123.036072 C 202.148041 123.036072 202.245605 123.022125 202.357147 122.980286 C 212.533661 120.164368 221.98526 118.881897 231.255646 118.881897 C 244.833588 118.881897 258.02124 121.642029 272.477448 126.381714 C 272.644745 126.451416 272.784149 126.465332 272.923553 126.465332 C 273.996948 126.465332 274.359406 124.820404 273.369629 124.165222 C 262.328827 116.832703 248.890259 113.417358 235.409882 113.417358 Z"/>
    <path id="Path-copy-8" fill="#58504c" fill-rule="evenodd" stroke="none" d="M 211.780853 130.075958 C 209.160034 130.075958 206.581055 130.312958 204.057861 130.828735 C 202.357117 131.191162 202.956573 133.561005 204.434235 133.630707 C 216.562408 134.522888 227.435944 136.8927 237.863373 143.24942 C 245.934875 148.128479 252.960846 154.79187 261.311157 159.085419 C 261.562073 159.210907 261.813019 159.266663 262.049988 159.266663 C 263.33252 159.266663 264.238647 157.607788 263.234924 156.422852 C 251.789856 142.70575 230.7677 130.075958 211.780853 130.075958 Z"/>
    <path id="Path-copy-7" fill="#58504c" fill-rule="evenodd" stroke="none" d="M 203.207489 144.796875 C 202.301361 144.796875 201.687988 145.995728 202.663818 146.581207 C 209.60614 150.27536 216.046631 155.154419 221.148804 161.218384 C 225.958252 166.989594 228.397827 173.569366 232.315094 179.647278 C 232.538147 179.981842 232.928467 180.163055 233.290924 180.163055 C 233.792786 180.163055 234.252808 179.842438 234.169159 179.201172 C 232.607849 163.811249 216.785461 150.498413 203.625702 144.880524 C 203.486298 144.824768 203.346893 144.796875 203.207489 144.796875 Z"/>
    <path id="Path-copy-6" fill="#58504c" fill-rule="evenodd" stroke="none" d="M 174.058807 148.21225 C 173.445435 148.21225 172.776291 148.421356 172.190796 148.95108 C 166.112762 154.192566 160.982697 156.924835 154.096115 156.924835 C 151.75412 156.924835 149.216965 156.604218 146.373123 155.976898 C 140.085983 154.568939 135.56929 151.167542 129.881607 148.644379 C 129.672501 148.56073 129.505219 148.518921 129.351868 148.518921 C 128.041473 148.518921 129.017303 151.794861 129.282166 152.199127 C 133.352768 158.123688 142.232819 160.563232 148.882401 161.441437 C 150.387955 161.650543 151.823822 161.734192 153.203918 161.734192 C 162.056107 161.734192 168.552322 157.775177 175.592239 151.753052 C 177.362671 150.149933 175.898926 148.21225 174.058792 148.21225 Z"/>
    <path id="Path-copy-5" fill="#58504c" fill-rule="evenodd" stroke="none" d="M 153.092209 133.128876 C 152.618225 133.128876 152.172134 133.393738 151.990906 134.007111 C 149.621033 141.325684 150.95932 150.721344 151.112656 158.332672 C 151.140549 159.852173 152.367294 160.632813 153.552231 160.632813 C 154.681412 160.632813 155.768768 159.935791 155.768768 158.486023 C 155.699066 154.276093 155.615417 149.912842 155.545715 145.549561 C 155.392365 141.77179 155.615417 137.770966 154.430481 134.076813 C 154.235321 133.477386 153.649826 133.128876 153.092209 133.128876 Z"/>
    <path id="Path-copy-4" fill="#d67268" fill-rule="evenodd" stroke="none" d="M 152.729919 119.955322 C 132.836945 119.955322 138.231888 137.854492 152.367462 137.854492 C 167.088547 137.770844 172.037399 119.955322 152.729919 119.955322 Z"/>
    <path id="Path-copy-3" fill="#ecc0cf" stroke="#ecc0cf" stroke-width="2" d="M 224.987427 41.992493 C 224.987427 40.175476 226.460419 38.702515 228.277435 38.702515 C 230.094452 38.702515 231.567444 40.175476 231.567444 41.992493 C 231.567444 43.809509 230.094452 45.282501 228.277435 45.282501 C 226.460419 45.282501 224.987427 43.809509 224.987427 41.992493 Z"/>
    <path id="Path-copy-2" fill="#dfd0c0" stroke="#dfd0c0" stroke-width="2" d="M 188.011047 176.000275 C 188.011047 174.183258 189.484039 172.710297 191.301056 172.710297 C 193.118073 172.710297 194.591049 174.183258 194.591049 176.000275 C 194.591049 177.817291 193.118073 179.290283 191.301056 179.290283 C 189.484039 179.290283 188.011047 177.817291 188.011047 176.000275 Z"/>
    <path id="Path-copy" fill="#b5c7eb" stroke="#b5c7eb" stroke-width="2" d="M 200.011047 232.992126 C 200.011047 231.17511 201.484039 229.702118 203.301056 229.702118 C 205.118073 229.702118 206.591064 231.17511 206.591064 232.992126 C 206.591064 234.809143 205.118073 236.282135 203.301056 236.282135 C 201.484039 236.282135 200.011047 234.809143 200.011047 232.992126 Z"/>
</svg>
