<?xml version="1.0" encoding="UTF-8"?>
<!-- Generated by Pixelmator Pro 3.4.1 -->
<svg width="590" height="292" viewBox="0 0 590 292" xmlns="http://www.w3.org/2000/svg">
    <path id="Path-copy-31" fill="#b7b7b7" fill-rule="evenodd" stroke="none" d="M 361.58429 212.68338 C 235.688385 212.68338 133.73587 218.083435 133.73587 224.668854 C 133.73587 231.367157 235.784912 236.654327 361.58429 236.654327 C 487.499451 236.654327 589.432678 231.367157 589.432678 224.668854 C 589.432678 218.083435 487.402954 212.68338 361.58429 212.68338 Z"/>
    <path id="Path-copy-30" fill="#e0ddd1" fill-rule="evenodd" stroke="none" d="M 232.251343 0.877472 C 225.859985 0.877472 222.171936 5.58136 225.744141 12.938202 C 230.976929 23.512512 232.714752 23.512512 232.714752 42.873627 C 232.714752 58.847992 231.478973 100.392578 230.976929 114.353668 C 223.890472 114.767609 216.939148 115.557861 210.065094 117.157166 C 208.539673 117.552307 206.994934 118.060303 205.450195 118.54953 C 201.974548 92.09494 190.408325 19.015594 168.569641 15.421844 C 166.020844 15.007904 163.916138 14.819763 162.197601 14.819763 C 145.977905 14.819763 164.514709 32.44986 173.590027 46.166351 C 183.321869 60.842438 188.960144 119.753723 190.408325 127.035309 C 191.006927 162.182617 191.528259 199.719513 191.721344 199.907684 C 188.651184 200.41571 174.323792 203.501434 171.234314 203.614319 C 160.884583 204.103546 107.72641 204.705627 63.353882 209.390686 C 18.788284 213.981659 -3.436584 239.852966 2.201691 271.594666 C 4.808441 286.308411 13.594116 291.369751 21.800522 291.369751 C 31.358566 291.369751 40.086319 284.520935 37.344406 278.085999 C 32.111618 266.100555 8.863358 254.115082 33.443954 233.8508 C 50.86084 219.438141 89.4599 217.330811 122.942047 217.330811 C 136.72879 217.330811 149.646637 217.688324 159.861206 217.688324 C 195.003906 217.688324 195.621826 214.583771 195.621826 214.583771 C 195.718353 216.390045 207.516266 221.169189 214.77652 222.072327 C 214.77652 222.072327 272.298584 224.160828 332.504639 224.160828 C 393.058228 224.160828 456.334473 222.053497 466.491089 213.586548 C 486.997437 196.727875 469.677124 164.967316 472.032837 123.648529 C 464.560181 121.353027 457.068176 118.7565 449.59552 116.64917 C 450.21344 97.796051 451.333374 36.194153 436.484619 25.205902 C 430.344299 20.671356 425.671448 18.959167 422.446838 18.959167 C 416.460999 18.959167 415.476196 24.82959 419.473206 29.307678 C 425.613525 36.194153 432.700012 36.194153 434.534363 49.666016 C 436.079102 60.259155 439.960266 98.793274 440.674683 114.767609 C 435.24884 115.256805 429.919495 116.065887 426.134888 116.065887 C 424.397034 116.084686 422.620605 116.103516 420.863464 116.103516 C 417.310608 116.103516 413.738403 116.065887 410.262756 116.065887 C 407.076721 91.097717 397.34491 21.423981 387.207581 14.725647 C 384.311157 12.750031 381.781677 11.865723 379.754211 11.865723 C 373.111877 11.865723 371.586426 21.329895 379.117004 33.992737 C 389.157776 50.663239 390.89563 63.137909 394.274719 83.816132 C 396.10907 96.196716 397.132507 108.163361 397.653809 115.764832 C 378.6922 115.256805 359.749878 114.259583 340.788269 114.165497 C 330.88269 114.052612 321.015656 114.033813 311.129364 114.033813 C 291.395386 114.033813 271.680695 114.165497 251.869476 114.165497 L 243.663055 114.165497 C 245.825684 86.299774 251.155029 8.930481 241.828705 3.756226 C 238.372345 1.780579 235.051178 0.877441 232.251343 0.877441 Z"/>
    <path id="Path-copy-29" fill="#c29d76" fill-rule="evenodd" stroke="none" d="M 262.991577 149.482178 C 262.798462 149.482178 262.624695 149.482178 262.412292 149.501007 C 259.651062 149.595062 257.102264 150.197174 254.630676 151.288452 C 254.012787 155.183258 251.039185 158.588867 245.922241 158.682953 C 208.94516 158.777039 239.781921 211.19696 259.342133 218.083435 C 261.408203 218.81723 264.864563 219.569855 268.18573 219.569855 C 272.144135 219.569855 275.909424 218.497375 276.971405 215.091766 C 279.520233 207.001129 275.948029 197.725098 273.47644 190.029541 C 270.522156 180.640625 267.954041 171.759705 268.456055 161.975647 C 268.861572 156.820221 270.039429 149.482178 262.991577 149.482178 Z"/>
    <path id="Path-copy-28" fill="#c29d76" fill-rule="evenodd" stroke="none" d="M 94.094116 206.700073 C 83.860229 207.39624 73.394653 208.205322 63.566284 209.202515 C 19.000687 213.887573 -3.12764 239.645996 2.510635 271.50061 C 5.117386 286.214294 13.883759 291.275696 22.070847 291.275696 C 31.590271 291.275696 40.298721 284.426819 37.537506 277.973145 C 32.208176 266.00647 9.056458 254.021027 33.656357 233.662659 C 50.04985 220.171967 85.076721 217.481354 117.149292 217.180298 C 117.149292 216.879242 116.93689 216.484131 116.93689 216.088989 C 115.720398 213.586548 106.587158 210.105682 103.111511 208.995544 C 100.234436 208.092407 97.164276 207.208099 94.094116 206.700073 Z"/>
    <path id="Path-copy-27" fill="#c29d76" fill-rule="evenodd" stroke="none" d="M 422.446838 18.959167 C 416.460999 18.959167 415.476196 24.82959 419.473206 29.307678 C 425.613525 36.288208 432.700012 36.288208 434.534363 49.477875 C 438.434814 45.77121 441.196045 40.992096 443.242798 36.288208 C 441.505005 31.095154 439.342346 27.313232 436.484619 25.205902 C 430.344299 20.671356 425.671448 18.959167 422.446838 18.959167 Z"/>
    <path id="Path-copy-26" fill="#c29d76" fill-rule="evenodd" stroke="none" d="M 400.627441 54.463989 C 395.085693 58.24588 390.992188 63.137909 393.560303 70.626465 C 394.989136 74.728241 399.700623 85.11441 405.126465 85.603607 C 405.55127 85.603607 405.744385 85.716492 406.149902 85.716492 C 404.624451 75.631409 402.674194 64.737244 400.627441 54.463989 Z"/>
    <path id="Path-copy-25" fill="#c29d76" fill-rule="evenodd" stroke="none" d="M 379.792847 11.71521 C 373.131165 11.71521 371.567139 21.198212 379.117004 33.898651 C 381.472717 37.492401 383.210571 40.992096 384.639465 44.378876 C 387.825439 41.293121 391.822449 38.696594 396.41803 36.288208 C 393.444458 25.017731 390.374268 16.720123 387.207581 14.537537 C 384.330505 12.599518 381.820313 11.71521 379.792847 11.71521 Z"/>
    <path id="Path-copy-24" fill="#c29d76" fill-rule="evenodd" stroke="none" d="M 181.892975 71.228577 C 184.055603 81.708801 185.889984 93.299133 187.318878 103.384247 C 190.408325 100.674805 192.648193 97.382111 193.98053 93.487305 C 196.548645 86.111633 195.525269 79.62027 192.957153 73.223022 L 192.455109 73.223022 C 189.578033 72.827881 185.793427 72.2258 181.892975 71.228577 Z"/>
    <path id="Path-copy-23" fill="#c29d76" fill-rule="evenodd" stroke="none" d="M 232.907867 35.19693 L 232.907867 35.19693 C 233.023712 37.285431 233.023712 39.787903 233.023712 42.779572 C 233.023712 49.270905 232.714752 59.751129 232.50235 70.927521 C 233.429199 70.73938 234.143646 70.325439 235.070496 70.137268 C 243.257568 66.844574 241.307343 57.154602 239.878479 50.268127 C 238.661987 44.378876 235.784912 39.787903 232.907867 35.19693 Z"/>
    <path id="Path-copy-22" fill="#28272b" fill-rule="evenodd" stroke="none" d="M 10.388794 234.546997 C 2.703735 244.933136 -0.05748 257.614777 2.414093 271.50061 C 5.001526 286.214294 13.787201 291.275696 21.974304 291.275696 C 31.493729 291.275696 40.202179 284.426819 37.440964 277.973145 C 32.32402 266.401611 10.813599 254.924164 31.088242 235.95816 C 29.041458 235.356049 26.685745 235.054993 23.92453 235.054993 C 19.406174 234.960938 14.907135 234.960938 10.388794 234.546997 Z"/>
    <path id="Path-copy-21" fill="#28272b" fill-rule="evenodd" stroke="none" d="M 192.107544 201.638702 C 192.088226 201.770416 192.107544 201.958557 192.146149 202.203156 C 192.146149 202.033813 192.126862 201.826843 192.107544 201.638702 Z M 203.828217 184.272003 C 199.618805 184.272003 195.467346 184.704773 191.528259 185.739624 C 191.624817 194.432373 191.721344 199.719513 191.933746 199.907684 L 191.624817 199.907684 C 191.856537 200.434509 192.030304 201.05542 192.107544 201.638702 L 192.107544 201.638702 C 192.126862 201.46936 192.184784 201.394104 192.281311 201.394104 C 192.802673 201.394104 194.405334 203.821289 195.119781 204.498657 C 196.336243 205.796936 197.668579 207.302155 198.904388 208.807404 C 201.877991 212.495239 204.948151 216.484131 208.6362 219.287628 C 209.447205 219.776825 210.065094 220.472992 210.682983 221.169189 C 212.227722 221.58313 213.656586 221.771271 215.08548 222.072327 C 215.08548 222.072327 230.050079 222.580353 252.68045 223.182434 C 254.630676 216.691101 256.98642 208.393463 253.105255 202.410126 C 248.992401 196.012878 241.210815 192.419128 234.143646 190.029541 C 225.087646 186.962616 214.274475 184.272003 203.828217 184.272003 Z"/>
    <path id="Path-copy-20" fill="#28272b" fill-rule="evenodd" stroke="none" d="M 362.182861 119.734894 C 357.181763 119.734894 352.045532 120.863831 347.353394 123.253387 C 333.006653 130.440918 331.770874 143.611755 324.81958 156.387451 C 318.563416 168.071869 305.240051 176.162537 310.569397 190.725708 C 314.160919 200.41571 323.796204 208.205322 334.551392 208.807404 C 335.169312 208.845032 335.825806 208.863861 336.520935 208.863861 C 345.866577 208.863861 359.788513 204.969055 361.700134 195.015656 C 362.820068 188.524323 363.534485 180.75351 369.269348 176.162537 C 374.289734 172.154846 379.61908 171.759705 384.851868 168.768036 C 392.421021 164.478119 394.892639 159.774261 395.607056 153.583954 C 392.227966 152.699615 389.350891 149.990204 389.466736 145.305145 C 390.374268 129.255524 376.761292 119.734894 362.182861 119.734894 Z"/>
    <path id="Path-copy-19" fill="#c29d76" fill-rule="evenodd" stroke="none" d="M 364.596497 153.264099 C 360.5802 153.264099 356.544556 154.487091 353.493713 156.989563 C 349.187744 160.583313 343.356384 169.069092 347.353394 174.958344 C 349.709106 178.345123 352.991699 182.239929 352.373779 186.943817 C 351.852417 190.932678 349.496704 193.416351 348.473328 197.010101 C 346.947937 202.203156 347.971313 205.49588 350.423584 208.600433 C 351.234558 208.167664 352.122742 207.923065 353.010986 207.923065 C 354.401245 207.923065 355.791504 208.506348 356.988708 209.898712 C 360.232605 213.605347 364.345459 215.204681 368.477661 215.204681 C 376.027527 215.204681 383.67395 209.823425 386.377258 202.015015 C 389.756348 192.532013 384.330505 185.946594 381.781677 177.046875 C 379.522522 168.975006 381.974792 159.58609 372.86084 155.089203 C 370.350647 153.88501 367.473572 153.264099 364.596497 153.264099 Z"/>
    <path id="Path-copy-18" fill="#e4caaa" fill-rule="evenodd" stroke="none" d="M 436.793579 138.512756 L 418.449829 215.185852 L 445.289612 213.887573 L 436.793579 138.512756 Z"/>
    <path id="Path-copy-17" fill="#c29d76" fill-rule="evenodd" stroke="none" d="M 490.588928 106.394714 C 487.769775 106.394714 484.912048 106.601685 481.977051 107.072083 C 399.913025 119.753723 392.324463 178.759033 411.884644 223.06955 C 431.464172 267.398834 442.122803 277.879028 442.122803 277.879028 L 453.187012 249.524109 L 551.74115 190.631653 L 581.033203 204.103546 C 581.033203 204.103546 549.752319 106.394714 490.588928 106.394714 Z"/>
    <path id="Path-copy-16" fill="#dedbcc" fill-rule="evenodd" stroke="none" d="M 438.589294 250.671844 C 434.341309 250.671844 430.093262 251.217499 426.03833 252.327637 C 436.581177 272.290833 442.219421 277.879028 442.219421 277.879028 L 452.163635 252.515778 C 447.722534 251.292755 443.146301 250.671844 438.589294 250.671844 Z"/>
    <path id="Path-copy-15" fill="#dedbcc" fill-rule="evenodd" stroke="none" d="M 490.395874 106.225372 C 487.653931 106.225372 484.834778 106.432343 481.977051 106.865112 C 434.843323 114.259583 412.309509 136.725281 405.338867 162.97287 C 405.647827 163.085785 405.840942 163.17984 406.053345 163.273926 C 418.140869 170.668427 428.394043 179.154205 443.4552 179.643402 C 455.233826 180.151428 466.491089 180.640625 476.338745 187.5271 C 488.619385 196.012878 492.307434 210.105682 495.802429 223.671631 L 515.883972 211.686188 C 503.989502 199.512543 504.703979 181.637848 509.84021 165.0802 C 513.219299 154.788147 517.409424 144.703033 520.904358 134.316895 C 522.545654 129.33078 524.592407 123.83667 525.403381 118.248474 C 515.072998 110.910431 503.429565 106.225372 490.395874 106.225372 Z"/>
    <path id="Path-copy-14" fill="none" stroke="#fdfdfd" stroke-width="2" stroke-linejoin="round" d="M 490.395874 106.225372 C 487.653931 106.225372 484.834778 106.432343 481.977051 106.865112 C 434.843323 114.259583 412.309509 136.725281 405.338867 162.97287 C 405.647827 163.085785 405.840942 163.17984 406.053345 163.273926 C 418.140869 170.668427 428.394043 179.154205 443.4552 179.643402 C 455.233826 180.151428 466.491089 180.640625 476.338745 187.5271 C 488.619385 196.012878 492.307434 210.105682 495.802429 223.671631 L 515.883972 211.686188 C 503.989502 199.512543 504.703979 181.637848 509.84021 165.0802 C 513.219299 154.788147 517.409424 144.703033 520.904358 134.316895 C 522.545654 129.33078 524.592407 123.83667 525.403381 118.248474 C 515.072998 110.910431 503.429565 106.225372 490.395874 106.225372 Z"/>
    <path id="Path-copy-13" fill="#dedbcc" fill-rule="evenodd" stroke="none" d="M 567.613281 172.267731 C 560.33374 176.745819 555.429199 182.747955 552.667969 190.932678 L 581.033203 204.103546 C 581.033203 204.103546 576.418274 189.935486 567.613281 172.267731 Z"/>
    <path id="Path-copy-12" fill="#c29d76" fill-rule="evenodd" stroke="none" d="M 459.539795 168.46701 L 407.076721 220.472992 L 460.447327 170.066315 L 459.539795 168.46701 Z"/>
    <path id="Path-copy-11" fill="#c29d76" fill-rule="evenodd" stroke="none" d="M 454.307007 162.784729 L 394.892639 196.219849 L 455.542786 164.271149 L 454.307007 162.784729 Z"/>
    <path id="Path-copy-10" fill="#c29d76" fill-rule="evenodd" stroke="none" d="M 448.881104 154.487091 L 387.400635 168.561066 L 449.90448 155.99234 L 448.881104 154.487091 Z"/>
    <path id="Path-copy-9" fill="#c29d76" fill-rule="evenodd" stroke="none" d="M 565.566528 133.526642 L 492.828796 150.592285 L 493.755676 152.19162 L 565.566528 133.526642 Z"/>
    <path id="Path-copy-8" fill="#c29d76" fill-rule="evenodd" stroke="none" d="M 550.505371 110.872803 L 490.569641 143.310699 L 491.1875 145.21106 L 550.505371 110.872803 Z"/>
    <path id="Path-copy-7" fill="#c29d76" fill-rule="evenodd" stroke="none" d="M 530.018311 90.40155 L 485.97406 134.61795 L 486.688477 136.217255 L 530.018311 90.40155 Z"/>
    <path id="Path-copy-6" fill="#c29d76" fill-rule="evenodd" stroke="none" d="M 482.479065 121.654083 L 482.479065 121.654083 C 482.479065 121.654083 461.895508 122.049194 463.112 133.225586 C 463.227844 134.034668 463.420898 134.730835 463.633301 135.521088 C 463.227844 135.125977 462.706482 134.61795 462.397522 134.316895 C 460.891418 133.225586 459.327393 132.755219 457.763306 132.755219 C 449.865845 132.755219 442.219421 144.608978 442.219421 144.608978 C 442.219421 144.608978 450.734802 135.295288 457.396423 135.295288 C 457.647461 135.295288 457.879211 135.295288 458.091614 135.332947 C 464.965637 136.123169 472.129333 154.186035 472.129333 154.186035 L 474.38855 154.694061 C 474.38855 154.694061 474.291992 153.997894 473.867188 152.793701 L 473.867188 152.793701 L 474.890564 153.790924 L 475.720886 151.589508 C 475.720886 151.589508 463.536804 136.330139 466.297974 130.233948 C 469.155762 124.137726 482.479065 121.654083 482.479065 121.654083 Z"/>
    <path id="Path-copy-5" fill="#6b4c2e" fill-rule="evenodd" stroke="none" d="M 478.90686 147.600616 C 476.724976 147.600616 474.214783 148.240356 471.820435 149.595062 C 466.703491 152.492645 464.038818 157.290619 465.776611 160.489227 C 466.761414 162.12619 468.827515 162.954071 471.318359 162.954071 C 473.53894 162.954071 476.06842 162.295532 478.482056 160.978424 C 483.598999 158.080841 486.263672 153.188843 484.525879 150.103088 C 483.483154 148.447327 481.397766 147.600616 478.90686 147.600616 Z"/>
    <path id="Path-copy-4" fill="#312a24" fill-rule="evenodd" stroke="none" d="M 521.42572 151.98465 C 519.996826 151.98465 518.548645 152.342133 517.216309 153.094757 C 513.122742 155.296173 511.674561 160.282257 513.933777 164.271149 C 515.536438 166.99939 518.471436 168.504639 521.42572 168.504639 C 522.835266 168.504639 524.225525 168.165955 525.519287 167.469788 C 529.612793 165.174286 531.041687 160.188202 528.685974 156.180481 C 527.160522 153.508698 524.341431 151.98465 521.42572 151.98465 Z"/>
    <path id="Path-copy-3" fill="#ffffff" fill-rule="evenodd" stroke="none" d="M 525.422729 156.105225 C 524.940002 156.105225 524.437927 156.236938 523.974548 156.481537 C 522.545654 157.177704 522.024292 158.984009 522.854614 160.282257 C 523.337341 161.298309 524.341431 161.806335 525.364807 161.806335 C 525.847534 161.806335 526.310913 161.69342 526.735718 161.48645 C 528.164612 160.677399 528.685974 158.984009 527.971558 157.591644 C 527.41156 156.63205 526.446106 156.105225 525.422729 156.105225 Z"/>
    <path id="Path-copy-2" fill="#312a24" fill-rule="evenodd" stroke="none" d="M 457.087524 188.430237 C 455.65863 188.430237 454.210449 188.78772 452.878113 189.540344 C 448.784546 191.722931 447.336365 196.727875 449.692078 200.716736 C 451.236816 203.38855 454.133179 204.931427 457.126099 204.931427 C 458.49707 204.931427 459.887329 204.592743 461.18103 203.915375 C 465.274597 201.619873 466.703491 196.61496 464.347778 192.626099 C 462.822327 189.935486 460.003174 188.430237 457.087524 188.430237 Z"/>
    <path id="Path-copy" fill="#ffffff" fill-rule="evenodd" stroke="none" d="M 460.987976 192.550812 C 460.485901 192.550812 460.003174 192.663727 459.539795 192.927124 C 458.091614 193.623322 457.589539 195.429596 458.400513 196.727875 C 458.902588 197.687439 459.945251 198.233093 461.02655 198.233093 C 461.48999 198.233093 461.972717 198.120209 462.397522 197.913239 C 463.729858 197.122986 464.251221 195.429596 463.536804 194.018433 C 462.976807 193.077667 461.992065 192.550812 460.987976 192.550812 Z"/>
</svg>
