<?xml version="1.0" encoding="UTF-8"?>
<!-- Generated by Pixelmator Pro 3.4.1 -->
<svg width="138" height="151" viewBox="0 0 138 151" xmlns="http://www.w3.org/2000/svg">
    <path id="Path-copy-52" fill="#ecc0cf" fill-rule="evenodd" stroke="none" d="M 0 133.04068 L 0 133.04068 C 0 123.351776 30.550385 115.497375 68.236206 115.497375 L 68.236206 115.497375 C 105.922058 115.497375 136.472443 123.351776 136.472443 133.04068 L 136.472443 133.04068 C 136.472443 142.729584 105.922058 150.583984 68.236206 150.583984 L 68.236206 150.583984 C 30.550385 150.583984 0 142.729584 0 133.04068 Z"/>
    <path id="Path-copy-51" fill="#a59d94" fill-rule="evenodd" stroke="none" d="M 81.974396 24.694458 C 82.454498 24.694458 82.813477 25.02652 83.069244 25.508881 C 83.39682 26.247009 83.520203 27.025543 83.39682 27.761414 C 83.318268 28.598267 82.927887 29.320709 81.963165 29.320709 C 81.936249 29.320709 81.909332 29.318481 81.882385 29.318481 C 80.899719 29.278076 80.612549 28.580322 80.531769 27.721039 L 80.531769 26.53418 C 80.531769 26.536438 80.531769 26.536438 80.531769 26.536438 C 80.531769 26.536438 80.527283 26.271698 80.489136 26.040588 C 80.489136 25.304718 80.899719 24.894165 81.55484 24.77301 C 81.702911 24.719147 81.84201 24.694458 81.974396 24.694458 Z M 54.113739 28.171997 C 55.13681 28.171997 55.506989 29.071655 55.711151 29.933197 C 55.751556 30.13739 55.711151 30.341553 55.711151 30.547943 C 55.711151 32.143127 55.05603 33.168427 54.113739 33.208801 C 53.171448 33.208801 52.556702 32.143127 52.556702 30.547943 C 52.556702 30.341553 52.556702 30.13739 52.599335 29.933197 C 52.680084 28.990906 53.048035 28.171997 54.113739 28.171997 Z M 69.760376 32.470703 C 71.889526 32.470703 72.66806 33.455627 72.257477 35.337952 C 72.093689 36.239868 71.929932 37.141785 71.478973 37.91806 C 71.054932 38.613586 70.482819 38.977051 69.890503 38.977051 C 69.39917 38.977051 68.894379 38.725769 68.447906 38.205261 C 67.792786 37.386353 67.17804 36.567444 66.605927 35.748535 C 65.950806 34.765869 66.195374 33.863953 67.17804 33.249207 C 68.039581 32.717468 69.022247 32.513306 69.760376 32.470703 Z M 79.629852 48.649048 C 80.448761 48.649048 80.940094 49.019257 81.023102 49.87854 C 81.023102 50.901611 80.204193 51.435577 79.466064 51.843903 C 77.173157 53.237183 74.593048 53.76889 72.012939 54.056061 C 71.189545 54.127869 70.368408 54.168243 69.551727 54.168243 C 67.157837 54.168243 64.790894 53.836182 62.468781 53.073364 L 62.017822 52.909607 C 61.445709 52.662811 60.463043 52.703186 60.747986 51.763123 C 60.839966 51.437805 61.048615 51.343567 61.302124 51.343567 C 61.620728 51.343567 62.00885 51.493896 62.305023 51.516357 C 63.453705 51.574677 64.597931 51.615051 65.739899 51.615051 C 69.401428 51.615051 73.009094 51.204468 76.475403 49.674377 C 77.500702 49.263794 78.483398 48.691711 79.629852 48.649048 Z M 101.165863 72.554291 C 101.230927 72.554291 101.300507 72.570007 101.37677 72.608154 C 101.910736 72.814545 101.500183 73.2229 101.37677 73.550446 C 99.943146 77.196228 98.469116 80.799408 97.650208 84.649384 C 97.48642 85.387512 97.322632 86.125641 97.241882 86.901917 C 97.118469 87.559265 96.790924 87.723083 96.216553 87.723083 C 95.438049 87.68042 94.906311 87.352875 95.070099 86.533997 C 95.765594 82.767029 96.586761 79.040466 98.715912 75.762604 C 99.287994 74.860687 99.90274 74.001404 100.517487 73.14209 C 100.683502 72.875122 100.878693 72.554291 101.165863 72.554291 Z M 38.657776 85.638794 C 38.893372 85.638794 39.005554 85.932678 39.164825 86.125641 C 41.540771 89.156708 42.646851 92.5961 42.44043 96.48645 C 42.400055 97.347961 42.112885 98.003113 41.213226 98.003113 C 41.170593 98.005341 41.130188 98.007568 41.092072 98.007568 C 40.306824 98.007568 40.270905 97.231323 40.270905 96.526855 L 40.270905 95.423004 C 40.147522 92.349304 39.739197 89.320496 38.509705 86.493591 C 38.426697 86.246796 38.099152 85.91925 38.426697 85.715088 C 38.516449 85.661224 38.592712 85.638794 38.657776 85.638794 Z M 90.852173 1.469055 C 90.354126 1.469055 89.797699 1.668701 89.214386 2.081543 C 86.798065 3.761963 84.339111 5.440155 81.922791 7.24176 C 81.541382 7.553589 81.213806 7.697205 80.868317 7.697205 C 80.623749 7.697205 80.370239 7.625397 80.080811 7.488525 C 76.796234 6.095276 73.522858 5.408752 70.253967 5.408752 C 66.794403 5.408752 63.341553 6.176025 59.888672 7.692688 C 59.635162 7.820587 59.397339 7.874451 59.164001 7.874451 C 58.872345 7.874451 58.587402 7.789185 58.29126 7.652313 C 55.874939 6.465454 53.37561 5.563538 50.755127 5.11261 C 49.828522 4.944336 48.922119 4.753601 48.026947 4.753601 C 47.18335 4.753601 46.348755 4.924133 45.51413 5.440155 C 46.741364 6.054871 48.094238 6.422852 49.076935 6.997192 C 52.639709 9.373138 53.048035 13.059326 50.099976 16.211548 C 48.789734 17.564392 47.315735 18.587463 45.88208 19.733948 C 44.652618 21.741943 43.83371 23.871094 43.218964 26.123627 C 42.032104 30.424561 43.014801 34.642456 43.629547 38.860352 C 44.20166 42.710327 45.718292 46.151978 48.258026 49.100037 C 48.706726 49.714752 48.706726 50.123108 48.175018 50.697449 C 47.479492 51.516357 46.824371 52.37561 46.209656 53.317932 C 42.727631 58.314362 40.762268 64.04892 39.288239 69.947266 C 38.46933 73.346252 37.854584 76.7453 37.199463 80.391083 C 35.274475 78.79364 33.309113 77.974762 31.05658 77.564178 C 30.515869 77.474426 29.995361 77.431824 29.497284 77.431824 C 26.125214 77.431824 23.711121 79.444275 23.069458 83.011566 C 22.454712 86.166016 22.741913 89.320496 23.109863 92.432312 C 24.175537 101.278717 26.672638 109.716797 30.769409 117.70166 C 31.7117 119.626648 31.7117 119.626648 29.539917 119.913818 C 26.385468 120.364746 23.724579 122.985229 23.520416 125.812134 C 24.03421 125.524963 24.559204 125.363434 25.07074 125.363434 C 25.658539 125.363434 26.230652 125.576569 26.755646 126.056702 C 27.98288 127.203156 27.410767 128.473022 26.959808 129.742889 C 27.585785 129.579102 28.128723 129.496094 28.602112 129.496094 C 29.894409 129.496094 30.668427 130.11084 31.177734 131.340302 C 31.588287 132.322998 31.177734 133.061127 30.890533 133.880035 C 31.669067 134.003418 32.366821 134.043793 33.145325 134.167206 C 32.815521 132.937714 33.18573 131.79126 34.128021 131.299927 C 34.471283 131.093506 34.805573 130.988068 35.144348 130.988068 C 35.810699 130.988068 36.492737 131.398651 37.280243 132.242218 C 37.731201 129.866272 37.854584 127.409576 38.058746 124.993225 C 38.345917 121.87915 38.633118 118.807739 39.081818 115.655518 C 40.31131 121.100647 40.926025 126.631042 40.762268 132.201843 C 42.44043 133.675873 44.365417 134.698914 46.413818 135.641235 C 46.126617 133.020752 45.841705 130.357635 45.718292 127.737122 C 45.635284 125.157043 45.51413 122.493896 45.841705 119.833038 C 45.88208 119.46283 45.922455 119.09491 45.922455 118.726959 C 45.799072 114.630188 46.045868 110.493042 46.250031 106.39856 C 46.413818 102.752747 46.945526 99.189941 47.93045 95.707947 C 47.970856 95.707947 47.970856 95.667542 47.970856 95.586792 C 48.318604 95.005676 48.446472 94.061157 49.184601 94.061157 C 49.229492 94.061157 49.274353 94.063416 49.321472 94.070129 C 50.304169 94.153137 49.936218 95.176208 49.895813 95.790955 C 49.364105 105.2117 49.321472 114.630188 49.48526 124.050964 C 49.527893 129.457947 49.936218 134.822327 50.183014 140.186707 C 52.843872 140.310089 54.237122 142.030914 53.582001 144.528015 C 53.837769 144.676086 54.127197 144.821899 54.418854 144.821899 C 54.454773 144.821899 54.488403 144.819672 54.524323 144.815186 C 54.113739 143.832489 54.441284 143.053986 55.13681 142.398865 C 55.515961 142.046631 55.940002 141.880585 56.399933 141.880585 C 56.689362 141.880585 56.992249 141.945648 57.308594 142.071289 C 58.374268 142.481873 58.57843 143.381531 58.538055 144.323853 C 58.986755 144.283447 59.437714 144.200439 59.765289 143.832489 C 59.397339 143.587952 59.520752 143.177368 59.520752 142.809418 C 59.437714 140.22934 59.601501 137.689606 59.314331 135.109497 C 58.414673 128.515656 58.742218 121.87915 58.822998 115.204559 C 58.906006 110.944031 58.946381 106.726105 59.029388 102.465576 C 59.110168 101.031921 59.356964 99.600525 59.765289 98.16687 C 59.848297 97.796692 59.97171 97.51178 60.380035 97.51178 C 60.790588 97.51178 60.871368 97.839325 60.954376 98.16687 C 61.198944 99.394104 61.445709 100.623596 61.445709 101.893433 C 61.445709 105.169067 61.609497 108.446899 61.403107 111.722534 C 61.239319 114.221863 61.158539 116.801971 61.239319 119.299072 C 61.486115 124.993225 61.609497 130.685181 62.632568 136.296356 C 62.796356 137.238647 62.672943 138.097931 62.715576 138.999847 C 64.313019 138.959473 65.950806 138.876465 67.548218 138.753052 C 66.769714 134.739319 67.09726 130.685181 67.548218 126.631042 L 67.548218 126.384277 C 67.628998 122.289734 67.628998 118.112213 67.835419 114.015442 C 68.039581 110.084717 68.120331 106.151733 68.775452 102.261414 C 68.85849 101.729675 68.85849 101.238342 69.553986 101.238342 C 70.25174 101.238342 70.25174 101.729675 70.292114 102.261414 C 70.660065 105.2117 70.61969 108.200134 70.372894 111.148193 C 70.372894 111.477966 70.292114 111.722534 70.292114 112.05011 C 70.372894 117.086914 69.677368 122.125977 69.800781 127.203156 C 69.800781 127.941284 69.553986 128.63678 69.553986 129.374939 C 69.553986 132.856964 69.430573 136.419739 70.579285 139.778381 C 72.625427 140.105927 73.11676 140.801422 72.953003 142.973206 C 73.731506 143.300781 74.51004 143.217773 75.288544 143.381531 C 74.87796 141.947906 75.369324 140.841827 76.762573 140.393097 C 77.000397 140.310089 77.231476 140.269714 77.453583 140.269714 C 78.346527 140.269714 79.113831 140.924835 79.670227 142.235077 C 80.284973 142.154297 80.735931 141.743744 81.227264 141.416168 C 80.284973 140.146301 80.448761 138.876465 81.678223 137.853394 C 80.859314 135.845398 80.612549 133.716248 80.244598 131.587097 C 79.589478 128.064697 79.629852 124.45929 79.876648 120.896484 C 80.080811 118.071838 80.284973 115.204559 80.489136 112.377655 C 80.859314 107.421631 81.308044 102.465576 81.227264 97.51178 C 81.227264 96.897034 81.350677 96.158875 82.129181 96.1185 C 82.183044 96.109528 82.232391 96.1073 82.281738 96.1073 C 83.004181 96.1073 83.111877 96.926208 83.111877 97.388367 C 83.152252 101.729675 83.807373 106.111359 83.192627 110.452667 L 83.192627 110.820618 C 83.152252 113.607117 83.152252 116.431763 82.988464 119.258667 C 82.701294 124.786835 82.988464 130.276855 84.502899 135.641235 C 87.616974 134.698914 90.565002 133.47171 93.021729 131.176514 C 93.021729 129.785522 92.48999 128.515656 92.285828 127.162781 C 91.711487 123.025635 92.40921 119.054504 93.513062 115.121521 C 93.719482 114.426025 93.840637 113.811279 94.047028 113.196564 C 94.165955 112.882446 94.206329 112.375427 94.722351 112.375427 C 94.742523 112.375427 94.762726 112.375427 94.782928 112.377655 C 95.274261 112.460663 95.233887 112.952026 95.274261 113.360352 C 95.397675 114.17926 95.070099 114.957764 95.070099 115.776672 C 95.070099 119.011902 94.989319 122.206726 95.153107 125.444214 C 95.233887 127.654114 95.848602 129.785522 97.035461 131.71048 C 97.555969 131.405365 98.054047 131.205688 98.54538 131.205688 C 98.985138 131.205688 99.418121 131.36499 99.862366 131.750885 C 100.721649 132.569794 100.92807 133.47171 100.477112 134.618164 C 100.699219 134.840271 100.99762 134.86496 101.291504 134.86496 C 101.374542 134.86496 101.459778 134.862701 101.540558 134.862701 C 101.686371 133.19574 102.408813 132.363373 103.67868 132.363373 C 103.844696 132.363373 104.019684 132.376831 104.203674 132.406006 C 105.309753 132.569794 105.841461 133.348297 105.881866 134.822327 C 106.907166 134.575531 107.889862 134.207581 108.585358 133.388672 C 106.947571 132.118835 106.496613 131.012756 107.030579 129.702515 C 107.488251 128.585205 108.529266 127.806702 109.702667 127.806702 C 110.205231 127.806702 110.732452 127.950256 111.248474 128.26886 L 111.248474 127.532959 C 110.429565 124.66568 108.585358 122.90448 105.637299 122.413147 C 105.105591 122.330139 104.571625 122.330139 104.039886 122.289734 C 103.344391 122.206726 103.016815 121.962189 103.261383 121.14328 C 105.309753 114.221863 107.111328 107.257813 108.381195 100.213013 C 108.504608 99.557892 108.791779 99.189941 109.487274 98.862396 C 114.032745 96.937408 117.882721 94.029724 120.873383 90.056396 C 124.723358 85.019562 126.812134 79.285004 127.754425 73.059082 C 128.122375 70.683167 128.777496 68.309448 128.941254 65.850525 C 129.351837 59.667236 128.409546 53.605103 126.729095 47.666382 C 124.763733 41.032135 122.264404 34.642456 120.054504 28.088989 C 119.316345 25.755676 119.112183 23.46051 119.152588 21.044189 C 119.152588 19.282959 119.931091 17.891968 121.445496 16.909302 C 122.064728 16.530121 122.58075 16.332703 123.05191 16.332703 C 123.704773 16.332703 124.267914 16.714111 124.887146 17.52179 C 125.050934 17.685547 125.091309 17.891968 125.255096 18.055725 C 125.836182 18.802856 126.616943 19.182007 127.406677 19.182007 C 128.173981 19.182007 128.950256 18.823059 129.556 18.09613 C 131.440613 15.803223 131.113037 13.140076 128.737091 11.091705 C 126.572052 9.204865 124.184906 8.3927 121.891968 8.3927 C 118.116058 8.3927 114.598114 10.600372 112.762878 13.835571 C 111.208099 16.458313 111.044312 19.406372 110.757141 22.354431 C 110.223175 27.310486 111.371887 32.062347 113.009674 36.731201 C 116.081116 45.290436 119.316345 53.809265 119.931091 63.025848 C 120.135254 66.46524 120.339417 69.864258 119.152588 73.14209 C 117.965729 76.417725 116.161896 79.325378 113.992371 81.988525 C 113.009674 83.175354 111.984375 84.281433 110.469971 85.100342 C 110.389191 83.7901 110.593353 82.603241 110.633728 81.373779 C 110.633728 80.144287 110.552979 78.917053 110.429565 77.687561 C 110.306183 75.639221 110.019012 73.550446 109.283112 71.585083 C 108.192749 68.749207 106.106232 67.241516 103.528351 67.241516 C 102.718414 67.241516 101.859131 67.391846 100.968445 67.694702 C 100.690247 67.786713 100.477112 67.856262 100.308838 67.856262 C 100.032867 67.856262 99.882568 67.667786 99.779358 67.079987 C 98.511749 59.626831 96.503754 52.335266 93.185486 45.496826 C 92.857941 44.882111 93.021729 44.390747 93.308899 43.856812 C 94.742523 40.70459 95.480682 37.426727 95.765594 34.02771 C 96.095398 29.154663 95.397675 24.402802 93.308899 19.93811 C 91.958282 19.365997 91.343536 18.136536 90.484253 17.113464 C 89.622711 16.130768 88.723053 15.105469 87.738098 14.28656 C 84.79007 11.910614 85.691986 8.675385 87.616974 6.586609 C 89.050598 4.989197 90.811798 4.006531 92.857941 3.474792 C 92.512421 2.166809 91.783264 1.469025 90.852173 1.469025 Z"/>
    <path id="Path-copy-50" fill="#fd9098" fill-rule="evenodd" stroke="none" d="M 92.817566 3.515167 C 90.769165 4.006531 89.007965 5.03183 87.574341 6.629242 C 85.649353 8.718018 84.79007 11.953247 87.697723 14.369568 C 88.723053 15.188477 89.541931 16.211548 90.44162 17.194214 C 91.303131 18.136536 91.915649 19.446777 93.228119 19.980713 C 94.210815 16.662476 94.455353 13.303864 94.127808 9.904846 C 93.923645 7.775696 93.759857 5.563538 92.817566 3.515167 Z"/>
    <path id="Path-copy-49" fill="none" stroke="#fd9098" stroke-linejoin="round" d="M 92.817566 3.515167 C 90.769165 4.006531 89.007965 5.03183 87.574341 6.629242 C 85.649353 8.718018 84.79007 11.953247 87.697723 14.369568 C 88.723053 15.188477 89.541931 16.211548 90.44162 17.194214 C 91.303131 18.136536 91.915649 19.446777 93.228119 19.980713 C 94.210815 16.662476 94.455353 13.303864 94.127808 9.904846 C 93.923645 7.775696 93.759857 5.563538 92.817566 3.515167 Z"/>
    <path id="Path-copy-48" fill="#fd9098" fill-rule="evenodd" stroke="none" d="M 45.51413 5.440155 C 43.997467 6.014526 43.669922 7.365143 43.669922 8.718018 C 43.793304 12.567993 44.692993 16.294556 46.086243 19.93811 C 47.519897 18.751251 48.993896 17.72818 50.304169 16.417938 C 53.254456 13.303864 52.843872 9.617676 49.281097 7.201355 C 48.094238 6.422852 46.741364 6.054871 45.51413 5.440155 Z"/>
    <path id="Path-copy-47" fill="none" stroke="#fd9098" stroke-linejoin="round" d="M 45.51413 5.440155 C 43.997467 6.014526 43.669922 7.365143 43.669922 8.718018 C 43.793304 12.567993 44.692993 16.294556 46.086243 19.93811 C 47.519897 18.751251 48.993896 17.72818 50.304169 16.417938 C 53.254456 13.303864 52.843872 9.617676 49.281097 7.201355 C 48.094238 6.422852 46.741364 6.054871 45.51413 5.440155 Z"/>
    <path id="Path-copy-46" fill="#fd9098" fill-rule="evenodd" stroke="none" d="M 25.317535 125.567596 C 24.803741 125.567596 24.281006 125.729126 23.764984 126.016296 C 23.764984 126.180115 23.724579 126.343872 23.684204 126.467285 C 23.764984 128.064697 23.928741 129.538696 25.198608 130.685181 C 25.77298 130.440643 26.385468 130.276855 26.959808 130.234222 L 27.206604 129.94928 C 27.614929 128.679443 28.229675 127.409576 27.000214 126.263123 C 26.475189 125.780731 25.903107 125.567596 25.317535 125.567596 Z"/>
    <path id="Path-copy-45" fill="none" stroke="#fd9098" stroke-linejoin="round" d="M 25.317535 125.567596 C 24.803741 125.567596 24.281006 125.729126 23.764984 126.016296 C 23.764984 126.180115 23.724579 126.343872 23.684204 126.467285 C 23.764984 128.064697 23.928741 129.538696 25.198608 130.685181 C 25.77298 130.440643 26.385468 130.276855 26.959808 130.234222 L 27.206604 129.94928 C 27.614929 128.679443 28.229675 127.409576 27.000214 126.263123 C 26.475189 125.780731 25.903107 125.567596 25.317535 125.567596 Z"/>
    <path id="Path-copy-44" fill="#8a837b" fill-rule="evenodd" stroke="none" d="M 49.355133 94.258606 C 48.612518 94.258606 48.51828 95.259216 48.175018 95.831329 C 48.134613 95.831329 48.134613 95.871704 48.134613 95.914337 C 47.151947 99.394104 46.577576 102.956909 46.454193 106.602722 C 46.250031 110.699463 45.96286 114.793976 46.126617 118.971497 C 46.126617 119.299072 46.086243 119.66925 46.045868 120.037201 C 45.718292 122.657684 45.841705 125.320801 45.922455 127.981689 C 46.045868 130.561798 46.413818 133.224915 46.617981 135.845398 C 46.864777 137.812988 47.068939 139.778381 48.542938 141.33316 C 49.076935 140.88446 49.732056 140.59726 50.387177 140.393097 C 50.140381 135.026489 49.732056 129.662109 49.649048 124.295502 C 49.527893 114.876984 49.527893 105.456238 50.059601 96.035492 C 50.059601 95.423004 50.467926 94.397705 49.527893 94.274292 C 49.465057 94.263062 49.408966 94.258606 49.355133 94.258606 Z"/>
    <path id="Path-copy-43" fill="none" stroke="#8a837b" stroke-linejoin="round" d="M 49.355133 94.258606 C 48.612518 94.258606 48.51828 95.259216 48.175018 95.831329 C 48.134613 95.831329 48.134613 95.871704 48.134613 95.914337 C 47.151947 99.394104 46.577576 102.956909 46.454193 106.602722 C 46.250031 110.699463 45.96286 114.793976 46.126617 118.971497 C 46.126617 119.299072 46.086243 119.66925 46.045868 120.037201 C 45.718292 122.657684 45.841705 125.320801 45.922455 127.981689 C 46.045868 130.561798 46.413818 133.224915 46.617981 135.845398 C 46.864777 137.812988 47.068939 139.778381 48.542938 141.33316 C 49.076935 140.88446 49.732056 140.59726 50.387177 140.393097 C 50.140381 135.026489 49.732056 129.662109 49.649048 124.295502 C 49.527893 114.876984 49.527893 105.456238 50.059601 96.035492 C 50.059601 95.423004 50.467926 94.397705 49.527893 94.274292 C 49.465057 94.263062 49.408966 94.258606 49.355133 94.258606 Z"/>
    <path id="Path-copy-42" fill="#8a837b" fill-rule="evenodd" stroke="none" d="M 60.463043 97.675537 C 60.05246 97.675537 59.97171 97.96048 59.848297 98.330658 C 59.397339 99.72168 59.193176 101.197937 59.150543 102.629333 C 59.029388 106.889893 58.986755 111.107788 58.946381 115.368347 C 58.822998 121.962189 58.538055 128.679443 59.397339 135.273285 C 59.724915 137.853394 59.561127 140.393097 59.601501 142.973206 C 59.601501 143.341156 59.520752 143.75174 59.848297 143.996277 C 61.569122 142.766815 62.509186 141.128998 62.879364 139.12326 C 62.879364 138.221344 62.919739 137.279022 62.715576 136.460144 C 61.690277 130.848969 61.609497 125.157043 61.362701 119.46283 C 61.239319 116.965759 61.362701 114.385651 61.486115 111.886292 C 61.690277 108.610718 61.569122 105.332825 61.569122 102.057251 C 61.569122 100.787354 61.281952 99.557892 61.035156 98.330658 C 60.994751 98.003113 60.871368 97.675537 60.463043 97.675537 Z"/>
    <path id="Path-copy-41" fill="none" stroke="#8a837b" stroke-linejoin="round" d="M 60.463043 97.675537 C 60.05246 97.675537 59.97171 97.96048 59.848297 98.330658 C 59.397339 99.72168 59.193176 101.197937 59.150543 102.629333 C 59.029388 106.889893 58.986755 111.107788 58.946381 115.368347 C 58.822998 121.962189 58.538055 128.679443 59.397339 135.273285 C 59.724915 137.853394 59.561127 140.393097 59.601501 142.973206 C 59.601501 143.341156 59.520752 143.75174 59.848297 143.996277 C 61.569122 142.766815 62.509186 141.128998 62.879364 139.12326 C 62.879364 138.221344 62.919739 137.279022 62.715576 136.460144 C 61.690277 130.848969 61.609497 125.157043 61.362701 119.46283 C 61.239319 116.965759 61.362701 114.385651 61.486115 111.886292 C 61.690277 108.610718 61.569122 105.332825 61.569122 102.057251 C 61.569122 100.787354 61.281952 99.557892 61.035156 98.330658 C 60.994751 98.003113 60.871368 97.675537 60.463043 97.675537 Z"/>
    <path id="Path-copy-40" fill="#8a837b" fill-rule="evenodd" stroke="none" d="M 82.230164 96.116272 C 82.209961 96.116272 82.189758 96.116272 82.169586 96.1185 C 81.350677 96.158875 81.26767 96.897034 81.26767 97.51178 C 81.350677 102.508179 80.899719 107.421631 80.531769 112.41803 C 80.325348 115.204559 80.121185 118.071838 79.917023 120.896484 C 79.670227 124.501892 79.629852 128.064697 80.284973 131.587097 C 80.652924 133.716248 80.859314 135.845398 81.718628 137.853394 C 82.10675 137.689606 82.476929 137.606598 82.840393 137.606598 C 83.203857 137.606598 83.560577 137.689606 83.930786 137.853394 C 84.381744 137.198273 84.381744 136.419739 84.502899 135.641235 C 82.988464 130.276855 82.701294 124.786835 83.02887 119.258667 C 83.192627 116.431763 83.192627 113.647522 83.233032 110.820618 L 83.233032 110.452667 C 83.847778 106.111359 83.152252 101.77005 83.152252 97.388367 C 83.152252 96.908264 83.035583 96.116272 82.230164 96.116272 Z"/>
    <path id="Path-copy-39" fill="none" stroke="#8a837b" stroke-linejoin="round" d="M 82.230164 96.116272 C 82.209961 96.116272 82.189758 96.116272 82.169586 96.1185 C 81.350677 96.158875 81.26767 96.897034 81.26767 97.51178 C 81.350677 102.508179 80.899719 107.421631 80.531769 112.41803 C 80.325348 115.204559 80.121185 118.071838 79.917023 120.896484 C 79.670227 124.501892 79.629852 128.064697 80.284973 131.587097 C 80.652924 133.716248 80.859314 135.845398 81.718628 137.853394 C 82.10675 137.689606 82.476929 137.606598 82.840393 137.606598 C 83.203857 137.606598 83.560577 137.689606 83.930786 137.853394 C 84.381744 137.198273 84.381744 136.419739 84.502899 135.641235 C 82.988464 130.276855 82.701294 124.786835 83.02887 119.258667 C 83.192627 116.431763 83.192627 113.647522 83.233032 110.820618 L 83.233032 110.452667 C 83.847778 106.111359 83.152252 101.77005 83.152252 97.388367 C 83.152252 96.908264 83.035583 96.116272 82.230164 96.116272 Z"/>
    <path id="Path-copy-38" fill="#8a837b" fill-rule="evenodd" stroke="none" d="M 69.760376 101.278717 C 69.062653 101.278717 69.062653 101.810425 68.981873 102.301788 C 68.284119 106.194397 68.243744 110.165497 68.039581 114.09845 C 67.792786 118.192993 67.835419 122.330139 67.752411 126.42688 L 67.752411 126.671448 C 67.341827 130.725555 66.973877 134.781952 67.752411 138.83606 C 68.039581 139.654968 68.530914 140.310089 69.186035 140.801422 C 69.473206 140.186707 70.045319 139.942139 70.783447 139.859131 C 69.59436 136.460144 69.760376 132.978119 69.760376 129.457947 C 69.760376 128.679443 70.004944 127.981689 70.004944 127.245789 C 69.881531 122.166351 70.579285 117.169922 70.496277 112.090485 C 70.496277 111.805542 70.579285 111.518372 70.579285 111.231201 C 70.823853 108.240509 70.864227 105.29248 70.496277 102.301788 C 70.415527 101.853088 70.415527 101.278717 69.760376 101.278717 Z"/>
    <path id="Path-copy-37" fill="none" stroke="#8a837b" stroke-linejoin="round" d="M 69.760376 101.278717 C 69.062653 101.278717 69.062653 101.810425 68.981873 102.301788 C 68.284119 106.194397 68.243744 110.165497 68.039581 114.09845 C 67.792786 118.192993 67.835419 122.330139 67.752411 126.42688 L 67.752411 126.671448 C 67.341827 130.725555 66.973877 134.781952 67.752411 138.83606 C 68.039581 139.654968 68.530914 140.310089 69.186035 140.801422 C 69.473206 140.186707 70.045319 139.942139 70.783447 139.859131 C 69.59436 136.460144 69.760376 132.978119 69.760376 129.457947 C 69.760376 128.679443 70.004944 127.981689 70.004944 127.245789 C 69.881531 122.166351 70.579285 117.169922 70.496277 112.090485 C 70.496277 111.805542 70.579285 111.518372 70.579285 111.231201 C 70.823853 108.240509 70.864227 105.29248 70.496277 102.301788 C 70.415527 101.853088 70.415527 101.278717 69.760376 101.278717 Z"/>
    <path id="Path-copy-36" fill="#8a837b" fill-rule="evenodd" stroke="none" d="M 79.791382 48.720856 C 79.715118 48.720856 79.632111 48.723083 79.546844 48.732056 C 78.442993 48.772461 77.458069 49.263794 76.434998 49.755127 C 72.85202 51.274048 69.089569 51.671143 65.309143 51.671143 C 64.295044 51.671143 63.278717 51.641968 62.264618 51.599365 C 61.932587 51.599365 61.519745 51.419861 61.189941 51.419861 C 60.94989 51.419861 60.752472 51.516357 60.667206 51.843903 C 60.42041 52.745819 61.403107 52.703186 61.937073 52.949982 L 62.428406 53.11377 C 64.74826 53.876587 67.092773 54.208618 69.477692 54.208618 C 70.289886 54.208618 71.106537 54.170471 71.929932 54.096436 C 74.550415 53.76889 77.090118 53.237183 79.42569 51.884277 C 80.161591 51.435577 80.940094 50.901611 81.023102 49.87854 C 80.946838 49.09552 80.567657 48.720856 79.791382 48.720856 Z"/>
    <path id="Path-copy-35" fill="none" stroke="#8a837b" stroke-linejoin="round" d="M 79.791382 48.720856 C 79.715118 48.720856 79.632111 48.723083 79.546844 48.732056 C 78.442993 48.772461 77.458069 49.263794 76.434998 49.755127 C 72.85202 51.274048 69.089569 51.671143 65.309143 51.671143 C 64.295044 51.671143 63.278717 51.641968 62.264618 51.599365 C 61.932587 51.599365 61.519745 51.419861 61.189941 51.419861 C 60.94989 51.419861 60.752472 51.516357 60.667206 51.843903 C 60.42041 52.745819 61.403107 52.703186 61.937073 52.949982 L 62.428406 53.11377 C 64.74826 53.876587 67.092773 54.208618 69.477692 54.208618 C 70.289886 54.208618 71.106537 54.170471 71.929932 54.096436 C 74.550415 53.76889 77.090118 53.237183 79.42569 51.884277 C 80.161591 51.435577 80.940094 50.901611 81.023102 49.87854 C 80.946838 49.09552 80.567657 48.720856 79.791382 48.720856 Z"/>
    <path id="Path-copy-34" fill="#8a837b" fill-rule="evenodd" stroke="none" d="M 94.634857 112.402344 C 94.201843 112.402344 94.156952 112.904907 94.047028 113.239197 C 93.840637 113.851685 93.636444 114.506805 93.472687 115.121521 C 92.40921 119.054504 91.711487 122.985229 92.285828 127.162781 C 92.40921 128.515656 93.021729 129.825897 93.021729 131.176514 C 94.455353 132.07843 95.848602 133.141876 97.48642 133.635468 C 97.282257 133.020752 97.118469 132.365601 97.035461 131.71048 C 95.848602 129.785522 95.233887 127.654114 95.153107 125.444214 C 94.906311 122.249359 95.029724 119.011902 95.070099 115.776672 C 95.070099 114.998138 95.397675 114.17926 95.274261 113.360352 C 95.233887 112.952026 95.274261 112.460663 94.782928 112.41803 C 94.729065 112.406799 94.679718 112.402344 94.634857 112.402344 Z"/>
    <path id="Path-copy-33" fill="none" stroke="#8a837b" stroke-linejoin="round" d="M 94.634857 112.402344 C 94.201843 112.402344 94.156952 112.904907 94.047028 113.239197 C 93.840637 113.851685 93.636444 114.506805 93.472687 115.121521 C 92.40921 119.054504 91.711487 122.985229 92.285828 127.162781 C 92.40921 128.515656 93.021729 129.825897 93.021729 131.176514 C 94.455353 132.07843 95.848602 133.141876 97.48642 133.635468 C 97.282257 133.020752 97.118469 132.365601 97.035461 131.71048 C 95.848602 129.785522 95.233887 127.654114 95.153107 125.444214 C 94.906311 122.249359 95.029724 119.011902 95.070099 115.776672 C 95.070099 114.998138 95.397675 114.17926 95.274261 113.360352 C 95.233887 112.952026 95.274261 112.460663 94.782928 112.41803 C 94.729065 112.406799 94.679718 112.402344 94.634857 112.402344 Z"/>
    <path id="Path-copy-32" fill="#8a837b" fill-rule="evenodd" stroke="none" d="M 39.288239 115.900055 C 38.83728 119.011902 38.509705 122.085571 38.262909 125.197388 C 38.058746 127.613739 37.935364 130.070435 37.486633 132.486755 L 37.486633 133.756622 C 38.713867 133.55246 39.860352 132.937714 40.966431 132.406006 C 41.130188 126.835205 40.515472 121.307068 39.288239 115.900055 Z"/>
    <path id="Path-copy-31" fill="none" stroke="#8a837b" stroke-linejoin="round" d="M 39.288239 115.900055 C 38.83728 119.011902 38.509705 122.085571 38.262909 125.197388 C 38.058746 127.613739 37.935364 130.070435 37.486633 132.486755 L 37.486633 133.756622 C 38.713867 133.55246 39.860352 132.937714 40.966431 132.406006 C 41.130188 126.835205 40.515472 121.307068 39.288239 115.900055 Z"/>
    <path id="Path-copy-30" fill="#8a837b" fill-rule="evenodd" stroke="none" d="M 101.165863 72.513916 C 100.878693 72.513916 100.683502 72.834747 100.517487 73.101746 C 99.90274 73.960999 99.287994 74.820313 98.715912 75.681824 C 96.544128 78.957458 95.765594 82.724396 95.070099 86.493591 C 94.906311 87.352875 95.438049 87.68042 96.216553 87.723083 C 96.263672 87.725311 96.308563 87.727539 96.351166 87.727539 C 96.842529 87.727539 97.127441 87.503204 97.241882 86.861542 C 97.322632 86.125641 97.48642 85.387512 97.650208 84.609009 C 98.469116 80.759033 99.985748 77.115479 101.37677 73.510071 C 101.500183 73.182495 101.910736 72.814545 101.37677 72.567749 C 101.300507 72.529602 101.230927 72.513916 101.165863 72.513916 Z"/>
    <path id="Path-copy-29" fill="none" stroke="#8a837b" stroke-linejoin="round" d="M 101.165863 72.513916 C 100.878693 72.513916 100.683502 72.834747 100.517487 73.101746 C 99.90274 73.960999 99.287994 74.820313 98.715912 75.681824 C 96.544128 78.957458 95.765594 82.724396 95.070099 86.493591 C 94.906311 87.352875 95.438049 87.68042 96.216553 87.723083 C 96.263672 87.725311 96.308563 87.727539 96.351166 87.727539 C 96.842529 87.727539 97.127441 87.503204 97.241882 86.861542 C 97.322632 86.125641 97.48642 85.387512 97.650208 84.609009 C 98.469116 80.759033 99.985748 77.115479 101.37677 73.510071 C 101.500183 73.182495 101.910736 72.814545 101.37677 72.567749 C 101.300507 72.529602 101.230927 72.513916 101.165863 72.513916 Z"/>
    <path id="Path-copy-28" fill="#fd9098" fill-rule="evenodd" stroke="none" d="M 69.760376 32.470703 C 68.981873 32.553711 68.039581 32.717468 67.17804 33.208801 C 66.195374 33.823547 65.950806 34.725464 66.605927 35.70813 C 67.17804 36.567444 67.792786 37.386353 68.447906 38.164856 C 68.89212 38.680878 69.392456 38.932159 69.879303 38.932159 C 70.476074 38.932159 71.052673 38.557495 71.478973 37.83728 C 71.929932 37.058777 72.053314 36.15686 72.257477 35.297577 C 72.66806 33.455627 71.889526 32.470703 69.760376 32.470703 Z"/>
    <path id="Path-copy-27" fill="none" stroke="#fd9098" stroke-linejoin="round" d="M 69.760376 32.470703 C 68.981873 32.553711 68.039581 32.717468 67.17804 33.208801 C 66.195374 33.823547 65.950806 34.725464 66.605927 35.70813 C 67.17804 36.567444 67.792786 37.386353 68.447906 38.164856 C 68.89212 38.680878 69.392456 38.932159 69.879303 38.932159 C 70.476074 38.932159 71.052673 38.557495 71.478973 37.83728 C 71.929932 37.058777 72.053314 36.15686 72.257477 35.297577 C 72.66806 33.455627 71.889526 32.470703 69.760376 32.470703 Z"/>
    <path id="Path-copy-26" fill="#8a837b" fill-rule="evenodd" stroke="none" d="M 38.624146 85.638794 C 38.563568 85.638794 38.498505 85.661224 38.426697 85.715088 C 38.141754 85.91925 38.426697 86.246796 38.509705 86.493591 C 39.739197 89.320496 40.147522 92.349304 40.270905 95.423004 L 40.270905 96.526855 C 40.192383 97.231323 40.300079 98.007568 41.092072 98.007568 C 41.130188 98.007568 41.170593 98.005341 41.213226 98.003113 C 42.112885 97.96048 42.400055 97.347961 42.44043 96.48645 C 42.646851 92.636475 41.540771 89.156708 39.164825 86.125641 C 39.005554 85.932678 38.843994 85.638794 38.624146 85.638794 Z"/>
    <path id="Path-copy-25" fill="none" stroke="#8a837b" stroke-linejoin="round" d="M 38.624146 85.638794 C 38.563568 85.638794 38.498505 85.661224 38.426697 85.715088 C 38.141754 85.91925 38.426697 86.246796 38.509705 86.493591 C 39.739197 89.320496 40.147522 92.349304 40.270905 95.423004 L 40.270905 96.526855 C 40.192383 97.231323 40.300079 98.007568 41.092072 98.007568 C 41.130188 98.007568 41.170593 98.005341 41.213226 98.003113 C 42.112885 97.96048 42.400055 97.347961 42.44043 96.48645 C 42.646851 92.636475 41.540771 89.156708 39.164825 86.125641 C 39.005554 85.932678 38.843994 85.638794 38.624146 85.638794 Z"/>
    <path id="Path-copy-24" fill="#fd9098" fill-rule="evenodd" stroke="none" d="M 109.579254 127.799957 C 108.401398 127.799957 107.376068 128.573975 106.947571 129.742889 C 106.415833 131.095764 106.866791 132.118835 108.544983 133.429077 C 110.389191 132.201843 111.125092 130.440643 111.165466 128.26886 C 110.633728 127.945801 110.09079 127.799957 109.579254 127.799957 Z"/>
    <path id="Path-copy-23" fill="none" stroke="#fd9098" stroke-linejoin="round" d="M 109.579254 127.799957 C 108.401398 127.799957 107.376068 128.573975 106.947571 129.742889 C 106.415833 131.095764 106.866791 132.118835 108.544983 133.429077 C 110.389191 132.201843 111.125092 130.440643 111.165466 128.26886 C 110.633728 127.945801 110.09079 127.799957 109.579254 127.799957 Z"/>
    <path id="Path-copy-22" fill="#fd9098" fill-rule="evenodd" stroke="none" d="M 28.985748 129.69577 C 28.498901 129.69577 27.938019 129.781006 27.287384 129.94928 L 27.042816 130.234222 C 26.755646 130.685181 26.345062 131.095764 26.22168 131.71048 C 27.574554 133.141876 29.252747 133.799255 31.137329 134.126831 C 31.464905 133.305664 31.875488 132.529388 31.547913 131.546722 C 31.040863 130.297058 30.275818 129.69577 28.985748 129.69577 Z"/>
    <path id="Path-copy-21" fill="none" stroke="#fd9098" stroke-linejoin="round" d="M 28.985748 129.69577 C 28.498901 129.69577 27.938019 129.781006 27.287384 129.94928 L 27.042816 130.234222 C 26.755646 130.685181 26.345062 131.095764 26.22168 131.71048 C 27.574554 133.141876 29.252747 133.799255 31.137329 134.126831 C 31.464905 133.305664 31.875488 132.529388 31.547913 131.546722 C 31.040863 130.297058 30.275818 129.69577 28.985748 129.69577 Z"/>
    <path id="Path-copy-20" fill="#fd9098" fill-rule="evenodd" stroke="none" d="M 50.346771 140.310089 C 49.732056 140.59726 49.076935 140.801422 48.542938 141.33316 C 49.895813 143.177368 51.616638 144.200439 53.705414 144.651398 C 54.400909 142.154297 53.00766 140.393097 50.346771 140.310089 Z"/>
    <path id="Path-copy-19" fill="none" stroke="#fd9098" stroke-linejoin="round" d="M 50.346771 140.310089 C 49.732056 140.59726 49.076935 140.801422 48.542938 141.33316 C 49.895813 143.177368 51.616638 144.200439 53.705414 144.651398 C 54.400909 142.154297 53.00766 140.393097 50.346771 140.310089 Z"/>
    <path id="Path-copy-18" fill="#2f3c32" fill-rule="evenodd" stroke="none" d="M 54.113739 28.171997 C 53.090668 28.171997 52.763123 28.990906 52.599335 29.933197 C 52.556702 30.13739 52.556702 30.341553 52.556702 30.547943 C 52.556702 32.18573 53.171448 33.208801 54.113739 33.208801 C 55.096405 33.208801 55.711151 32.143127 55.711151 30.547943 C 55.711151 30.341553 55.751556 30.13739 55.711151 29.933197 C 55.506989 29.071655 55.13681 28.171997 54.113739 28.171997 Z"/>
    <path id="Path-copy-17" fill="#2f3c32" fill-rule="evenodd" stroke="none" d="M 81.922791 24.725891 C 81.80835 24.725891 81.684967 24.741577 81.55484 24.77301 C 80.899719 24.894165 80.489136 25.304718 80.489136 26.040588 C 80.489136 26.271698 80.525024 26.536438 80.52951 26.536438 C 80.531769 26.536438 80.531769 26.536438 80.531769 26.53418 L 80.531769 27.721039 C 80.572144 28.580322 80.899719 29.278076 81.882385 29.318481 C 81.909332 29.318481 81.936249 29.320709 81.963165 29.320709 C 82.927887 29.320709 83.318268 28.598267 83.39682 27.761414 C 83.520203 27.025543 83.39682 26.247009 83.069244 25.508881 C 82.804504 25.008575 82.427582 24.725891 81.922791 24.725891 Z"/>
    <path id="Path-copy-16" fill="#fd9098" fill-rule="evenodd" stroke="none" d="M 35.341797 131.183258 C 35.011993 131.183258 34.691162 131.277496 34.372559 131.463715 C 33.430267 131.955048 33.102722 133.101501 33.389893 134.330994 C 33.612 134.351166 33.831879 134.360138 34.053986 134.360138 C 35.22287 134.360138 36.382813 134.102142 37.486633 133.756622 L 37.486633 132.486755 C 36.737305 131.600555 36.026093 131.183258 35.341797 131.183258 Z"/>
    <path id="Path-copy-15" fill="none" stroke="#fd9098" stroke-linejoin="round" d="M 35.341797 131.183258 C 35.011993 131.183258 34.691162 131.277496 34.372559 131.463715 C 33.430267 131.955048 33.102722 133.101501 33.389893 134.330994 C 33.612 134.351166 33.831879 134.360138 34.053986 134.360138 C 35.22287 134.360138 36.382813 134.102142 37.486633 133.756622 L 37.486633 132.486755 C 36.737305 131.600555 36.026093 131.183258 35.341797 131.183258 Z"/>
    <path id="Path-copy-14" fill="#fd9098" fill-rule="evenodd" stroke="none" d="M 56.595123 142.019684 C 56.137451 142.019684 55.717896 142.172272 55.343201 142.522247 C 54.645477 143.177368 54.317902 143.955902 54.728485 144.898193 C 55.273651 145.057495 55.798645 145.142731 56.314667 145.142731 C 57.120117 145.142731 57.903137 144.93634 58.701843 144.48761 C 58.701843 143.545319 58.538055 142.64566 57.512756 142.194702 C 57.194153 142.08252 56.88678 142.019684 56.595123 142.019684 Z"/>
    <path id="Path-copy-13" fill="none" stroke="#fd9098" stroke-linejoin="round" d="M 56.595123 142.019684 C 56.137451 142.019684 55.717896 142.172272 55.343201 142.522247 C 54.645477 143.177368 54.317902 143.955902 54.728485 144.898193 C 55.273651 145.057495 55.798645 145.142731 56.314667 145.142731 C 57.120117 145.142731 57.903137 144.93634 58.701843 144.48761 C 58.701843 143.545319 58.538055 142.64566 57.512756 142.194702 C 57.194153 142.08252 56.88678 142.019684 56.595123 142.019684 Z"/>
    <path id="Path-copy-12" fill="#fd9098" fill-rule="evenodd" stroke="none" d="M 77.536591 140.276428 C 77.336914 140.276428 77.13501 140.314575 76.926361 140.393097 C 75.533081 140.88446 75.001373 141.947906 75.411957 143.381531 C 76.966736 143.341156 78.442993 143.258148 79.79364 142.318085 C 79.16095 140.98764 78.393646 140.276428 77.536591 140.276428 Z"/>
    <path id="Path-copy-11" fill="none" stroke="#fd9098" stroke-linejoin="round" d="M 77.536591 140.276428 C 77.336914 140.276428 77.13501 140.314575 76.926361 140.393097 C 75.533081 140.88446 75.001373 141.947906 75.411957 143.381531 C 76.966736 143.341156 78.442993 143.258148 79.79364 142.318085 C 79.16095 140.98764 78.393646 140.276428 77.536591 140.276428 Z"/>
    <path id="Path-copy-10" fill="#fd9098" fill-rule="evenodd" stroke="none" d="M 103.593414 132.365601 C 102.363953 132.365601 101.601135 133.227142 101.419403 134.862701 C 102.117157 135.042206 102.832855 135.134186 103.550781 135.134186 C 104.309113 135.134186 105.065216 135.033234 105.801086 134.822327 C 105.718079 133.388672 105.226746 132.610168 104.080261 132.406006 C 103.912018 132.379089 103.74823 132.365601 103.593414 132.365601 Z"/>
    <path id="Path-copy-9" fill="none" stroke="#fd9098" stroke-linejoin="round" d="M 103.593414 132.365601 C 102.363953 132.365601 101.601135 133.227142 101.419403 134.862701 C 102.117157 135.042206 102.832855 135.134186 103.550781 135.134186 C 104.309113 135.134186 105.065216 135.033234 105.801086 134.822327 C 105.718079 133.388672 105.226746 132.610168 104.080261 132.406006 C 103.912018 132.379089 103.74823 132.365601 103.593414 132.365601 Z"/>
    <path id="Path-copy-8" fill="#fd9098" fill-rule="evenodd" stroke="none" d="M 98.408539 131.165314 C 97.910461 131.165314 97.412384 131.36499 96.914307 131.667877 C 97.118469 132.322998 97.282257 132.978119 97.48642 133.635468 C 98.388336 134.144775 99.216217 134.580017 100.219086 134.580017 C 100.263977 134.580017 100.308838 134.577789 100.353699 134.575531 C 100.804657 133.429077 100.600494 132.529388 99.738953 131.71048 C 99.294739 131.324585 98.852753 131.165314 98.408539 131.165314 Z"/>
    <path id="Path-copy-7" fill="none" stroke="#fd9098" stroke-linejoin="round" d="M 98.408539 131.165314 C 97.910461 131.165314 97.412384 131.36499 96.914307 131.667877 C 97.118469 132.322998 97.282257 132.978119 97.48642 133.635468 C 98.388336 134.144775 99.216217 134.580017 100.219086 134.580017 C 100.263977 134.580017 100.308838 134.577789 100.353699 134.575531 C 100.804657 133.429077 100.600494 132.529388 99.738953 131.71048 C 99.294739 131.324585 98.852753 131.165314 98.408539 131.165314 Z"/>
    <path id="Path-copy-6" fill="#fd9098" fill-rule="evenodd" stroke="none" d="M 70.700439 139.859131 C 70.045319 139.942139 69.473206 140.186707 69.186035 140.801422 C 70.25174 141.99054 71.519348 142.766815 73.11676 143.013611 C 73.240173 140.801422 72.708435 140.146301 70.700439 139.859131 Z"/>
    <path id="Path-copy-5" fill="none" stroke="#fd9098" stroke-linejoin="round" d="M 70.700439 139.859131 C 70.045319 139.942139 69.473206 140.186707 69.186035 140.801422 C 70.25174 141.99054 71.519348 142.766815 73.11676 143.013611 C 73.240173 140.801422 72.708435 140.146301 70.700439 139.859131 Z"/>
    <path id="Path-copy-4" fill="#fd9098" fill-rule="evenodd" stroke="none" d="M 82.849365 137.606598 C 82.485931 137.606598 82.129181 137.689606 81.759003 137.853394 C 80.531769 138.876465 80.408386 140.146301 81.308044 141.416168 C 82.577911 140.514252 83.560577 139.367798 83.971161 137.853394 C 83.583008 137.689606 83.21283 137.606598 82.849365 137.606598 Z"/>
    <path id="Path-copy-3" fill="none" stroke="#fd9098" stroke-linejoin="round" d="M 82.849365 137.606598 C 82.485931 137.606598 82.129181 137.689606 81.759003 137.853394 C 80.531769 138.876465 80.408386 140.146301 81.308044 141.416168 C 82.577911 140.514252 83.560577 139.367798 83.971161 137.853394 C 83.583008 137.689606 83.21283 137.606598 82.849365 137.606598 Z"/>
    <path id="Path-copy-2" fill="#a59d94" fill-rule="evenodd" stroke="none" d="M 27.000214 130.234222 L 27.000214 130.234222 C 26.385468 130.276855 25.77298 130.440643 25.198608 130.685181 C 25.526184 131.053131 25.853729 131.340302 26.181305 131.71048 C 26.264313 131.136139 26.672638 130.725555 27.000214 130.234222 Z"/>
    <path id="Path-copy" fill="#a59d94" fill-rule="evenodd" stroke="none" d="M 27.246979 129.94928 L 27.175201 130.032318 L 27.175201 130.032318 C 27.19989 130.007629 27.224548 129.980713 27.246979 129.94928 Z M 27.175201 130.032318 L 27.175201 130.032318 C 27.105652 130.099609 27.031616 130.14447 27.000214 130.234222 L 27.175201 130.032318 Z"/>
</svg>
