<?xml version="1.0" encoding="UTF-8"?>
<!-- Generated by Pixelmator Pro 3.4.1 -->
<svg width="139" height="148" viewBox="0 0 139 148" xmlns="http://www.w3.org/2000/svg">
    <path id="Path-copy-21" fill="#dfd0c0" fill-rule="evenodd" stroke="none" d="M 0.816284 130.04068 L 0.816284 130.04068 C 0.816284 120.351776 31.366699 112.497375 69.05249 112.497375 L 69.05249 112.497375 C 106.738342 112.497375 137.288696 120.351776 137.288696 130.04068 L 137.288696 130.04068 C 137.288696 139.729584 106.738342 147.583984 69.05249 147.583984 L 69.05249 147.583984 C 31.366699 147.583984 0.816284 139.729584 0.816284 130.04068 Z"/>
    <path id="Path-copy-20" fill="#e8e8d7" fill-rule="evenodd" stroke="none" d="M 52.03363 10.764923 C 53.411194 10.764923 54.784241 11.361694 55.784912 12.557526 C 56.727173 13.663605 57.505737 14.729309 58.160828 15.999146 C 59.717896 19.234375 62.297974 21.527344 65.12262 23.575684 C 66.556274 24.598755 67.866516 25.747498 68.93219 27.178894 C 70.446594 29.103851 71.184753 31.275635 71.101746 33.404785 C 71.265503 37.869476 69.096008 40.940918 65.984131 43.397644 C 60.913696 47.494385 55.042297 49.542786 48.484314 49.542786 C 48.41925 49.542786 48.354187 49.542786 48.289124 49.542786 C 45.709045 49.542786 43.128906 49.008789 40.75293 47.862335 C 34.897217 44.914307 33.667725 39.466919 36.698853 34.019531 C 38.33667 31.152222 40.38501 28.531738 42.229248 25.787842 C 44.071228 23.001343 45.38147 20.012909 46.200378 16.777679 C 46.610962 15.016479 47.266052 13.459442 48.616699 12.1492 C 49.597107 11.227112 50.817627 10.764923 52.03363 10.764923 Z M 68.999451 49.264587 C 69.499756 49.264587 69.923828 49.565216 70.282776 50.157532 C 70.897522 51.140198 70.202026 51.795319 69.546875 52.203644 C 68.11322 53.065186 66.639221 53.841461 65.041809 54.415802 C 61.272583 55.766418 57.382263 56.70874 53.285522 56.791748 C 52.630371 56.791748 52.033569 57.022827 51.371704 57.022827 C 51.248352 57.022827 51.122681 57.016113 50.992554 56.995911 C 48.412476 56.70874 45.791992 56.751343 43.335266 55.481506 C 42.884277 55.234711 42.06543 55.030548 42.146179 54.456177 C 42.276306 53.935669 42.68689 53.812286 43.126587 53.812286 C 43.380127 53.812286 43.642639 53.852661 43.867004 53.884094 C 46.168884 54.180237 48.416931 54.368713 50.698669 54.368713 C 51.257324 54.368713 51.820435 54.357483 52.385803 54.335022 C 56.767517 54.252014 60.864258 53.065186 64.754639 51.220947 C 65.860718 50.729614 66.924133 50.197876 68.030212 49.58316 C 68.382446 49.370026 68.703308 49.264587 68.999451 49.264587 Z M 93.566589 88.886017 C 93.737122 88.886017 93.912109 88.955566 94.080383 89.105896 C 94.488708 89.516449 94.201538 89.801392 93.914368 90.17157 C 90.966309 94.757446 89.328491 99.753845 88.67334 105.120483 C 88.262756 108.559875 88.181946 112.04187 87.239685 115.360138 C 87.04895 116.194733 86.719177 116.888 85.857605 116.888 C 85.790344 116.888 85.718506 116.883514 85.642273 116.874542 C 84.659546 116.710754 84.085205 115.972626 84.085205 114.949554 L 84.085205 112.780029 C 84.576538 105.243896 86.216614 98.075684 90.638733 91.849762 C 91.376892 90.950073 92.155396 90.128967 92.891296 89.269653 C 93.084229 89.027344 93.319824 88.886017 93.566589 88.886017 Z M 51.342651 2.106995 C 48.56958 2.106995 45.740417 2.690308 43.128906 3.957947 C 41.778259 4.693817 40.180847 5.144775 39.157776 6.49765 C 40.835999 9.977417 39.649109 12.968109 37.517761 15.794983 C 35.348206 18.579285 33.176453 21.323151 30.596313 23.739502 C 29.573242 24.722168 28.590576 25.787842 27.116577 26.075043 C 26.952759 26.155823 26.829407 26.238831 26.665588 26.359985 C 26.418823 28.859314 26.091248 31.31601 26.131653 33.855743 C 26.214661 39.958252 28.343811 45.241852 32.276794 49.787323 C 32.68512 50.321289 32.808472 50.648865 32.480957 51.34436 C 31.415222 53.513916 30.351807 55.766418 29.326477 58.02124 C 26.665588 64.081116 25.436096 70.43042 25.191559 76.983887 C 25.068146 79.931946 25.436096 82.879974 26.010498 85.747253 C 26.501831 88.41037 27.237732 91.113892 28.384155 93.610962 C 28.384155 93.182434 28.384155 92.789825 28.882263 92.789825 C 28.906921 92.789825 28.93158 92.789825 28.958557 92.792053 C 29.032593 92.771881 29.097656 92.760651 29.153748 92.760651 C 29.544128 92.760651 29.593445 93.202637 29.737061 93.487579 C 31.13031 96.765442 33.504028 99.181763 36.371277 101.1875 C 41.818665 104.916321 47.553223 108.2323 53.164429 111.67395 C 53.983276 112.122681 54.678833 112.820404 55.58075 113.107605 C 55.825256 111.222992 56.031677 109.338379 56.359253 107.413391 C 56.727173 105.284241 56.52301 103.072083 56.971741 100.983337 C 57.341919 99.549683 57.873657 98.279846 59.266907 97.543945 C 59.83905 97.29715 59.798645 96.765442 59.922058 96.314453 C 60.381958 95.008728 61.290588 94.310974 62.315918 94.310974 C 62.932922 94.310974 63.592529 94.562256 64.222961 95.084991 C 64.958862 95.659363 65.860779 95.9039 66.843445 95.9039 C 68.64502 95.946533 69.710754 96.846191 69.834106 98.607391 C 69.874512 99.385925 70.078674 99.549683 70.77417 99.63269 C 72.207825 99.796509 72.986328 101.147125 72.905579 102.58075 C 72.371582 108.355713 71.308167 113.966858 69.874512 119.618408 C 69.751099 120.028992 69.834106 120.477722 69.834106 120.92865 C 72.414246 122.772888 75.279236 123.795959 78.433655 124.410706 C 82.243225 123.181213 86.216614 122.568726 90.187744 122.485718 C 90.349243 122.481201 90.513062 122.478973 90.674561 122.478973 C 97.230286 122.478973 104.562256 125.729919 106.119324 134.322784 L 106.119324 134.65033 C 109.233398 133.584656 111.93689 131.783051 114.476624 129.694305 C 116.605774 127.8927 118.283936 125.803955 119.881348 123.591797 C 120.08551 123.304626 120.249329 122.977051 120.45575 122.68988 C 123.567566 117.612671 125.205383 112.122681 125.247986 106.143555 C 124.182312 104.34198 123.60791 102.416992 123.895142 100.328217 C 123.978149 99.098755 123.731323 97.952271 123.199585 96.888824 C 122.708252 95.863525 122.257324 94.840454 121.682983 93.815125 C 120.291931 91.235046 119.71759 88.533752 119.43042 85.706879 C 119.390015 85.25592 119.266602 84.764587 119.185852 84.273254 C 117.669189 81.937683 116.114441 79.563965 114.106445 77.596375 C 111.813477 75.222656 109.150391 73.297668 106.406494 71.372711 C 101.246277 67.807678 96.537048 63.672791 92.48291 58.840149 C 88.917847 54.539185 85.723022 49.870331 81.505127 46.143768 C 80.973389 45.733215 80.932983 45.282227 81.217957 44.66748 C 82.530396 41.842834 83.02179 38.892548 83.142944 35.821106 C 83.225952 32.913452 83.266296 29.965393 82.65155 27.057739 C 81.91571 23.207764 80.605469 19.521576 78.269897 16.326721 C 75.238831 15.794983 72.782104 14.154968 70.529541 12.1492 C 70.078613 11.738647 69.670288 11.330292 69.219299 10.919739 C 69.095947 10.838959 69.012939 10.796326 68.891785 10.675171 C 66.679626 9.526489 65.162964 7.848267 64.427063 5.512726 C 63.525146 5.144775 62.582825 4.776825 61.723572 4.366272 C 58.611755 2.851868 55.293457 2.196716 51.89447 2.113708 C 51.71051 2.109222 51.52655 2.106995 51.34259 2.106995 Z"/>
    <path id="Path-copy-19" fill="#b4b4af" fill-rule="evenodd" stroke="none" d="M 114.016724 8.249878 C 112.636963 8.249878 111.245911 8.575195 109.848206 9.362671 C 109.193054 9.692505 108.618713 10.224213 107.963562 10.511414 C 104.52417 12.108826 102.639587 14.893066 101.820679 18.455872 C 101.614258 19.315186 101.901489 20.012909 102.639587 20.257446 C 103.622253 20.544617 103.458496 21.076355 103.254333 21.774109 C 102.639587 23.986267 102.229004 26.238831 102.312012 28.531738 C 102.392822 29.47406 102.679993 30.252563 103.498901 30.537476 C 104.645325 30.907684 104.564575 31.562805 104.481567 32.585876 C 104.237 34.75766 103.745667 37.214355 105.179321 38.892548 C 106.489563 40.326172 106.734131 41.842834 107.021301 43.561401 C 107.104309 44.095398 107.308472 44.586731 107.512634 45.078064 C 108.822876 48.681244 110.994629 51.795319 113.327942 54.703003 C 118.039429 60.558716 120.24939 67.19519 120.045227 74.688721 C 119.921814 77.883545 119.677246 81.038025 119.266663 84.192444 C 119.309326 84.641174 119.473083 85.17514 119.513489 85.62384 C 119.800659 88.49115 120.413147 91.194641 121.766052 93.734375 C 122.338135 94.757446 122.789124 95.782745 123.323059 96.805817 C 123.895203 97.871521 124.141968 98.9776 123.97821 100.204834 C 123.731384 102.333984 124.222717 104.258972 125.369202 106.062775 C 125.328796 105.692596 125.532959 105.407654 125.943542 104.99707 C 127.908936 102.253204 129.465942 99.34552 130.695435 96.274109 C 133.192505 89.924805 134.543152 83.330933 135.404663 76.573303 C 136.223572 70.470795 136.797913 64.327881 137.04248 58.184998 C 137.289307 51.548523 137.082886 44.914307 136.183228 38.36084 C 135.240906 32.013763 133.724243 25.95166 130.489014 20.30011 C 127.828125 15.631226 124.222717 11.86203 119.266663 9.569092 C 117.541382 8.786072 115.789185 8.249878 114.016724 8.249878 Z"/>
    <path id="Path-copy-18" fill="#b4b4af" fill-rule="evenodd" stroke="none" d="M 30.515564 100.983337 L 30.515564 100.983337 C 30.719727 103.031738 31.334473 105.037476 31.334473 107.126221 C 31.334473 109.953125 31.21106 112.697021 30.760132 115.440918 C 30.228394 118.554993 29.532898 121.626404 28.343811 124.574463 C 28.384155 125.025452 28.179993 125.393372 28.016235 125.761322 C 27.116577 127.809692 26.501831 130.021851 26.993164 132.274414 C 28.031921 136.651611 31.549866 138.971466 35.229309 138.971466 C 36.920959 138.971466 38.64624 138.482361 40.180847 137.475006 C 43.128906 135.550018 44.726318 132.518951 46.079224 129.407135 C 47.42981 126.088867 48.412537 122.649475 49.231445 119.16748 C 49.27179 117.570068 49.395203 116.055634 49.47821 114.498596 C 46.406799 112.533234 43.456482 110.404083 40.097839 108.806671 C 37.109436 107.373047 34.36554 105.528809 32.193787 103.031738 C 31.579041 102.376587 31.334473 101.434296 30.515564 100.983337 Z"/>
    <path id="Path-copy-17" fill="#e4d7b8" fill-rule="evenodd" stroke="none" d="M 29.106628 92.688843 C 29.050537 92.688843 28.987671 92.695587 28.918152 92.711304 C 28.384155 92.792053 28.343811 93.202637 28.343811 93.610962 C 28.794739 96.110291 29.409485 98.567017 30.515564 100.942932 C 31.334473 101.393921 31.579041 102.333984 32.193787 102.991333 C 34.446289 105.488434 37.109436 107.332642 40.140503 108.766296 C 43.456482 110.36145 46.406799 112.492859 49.47821 114.458221 C 50.911865 114.949554 52.098694 115.932251 53.451599 116.587372 C 53.900269 116.793762 54.310852 117.161713 54.882996 117.202087 C 55.540344 115.891846 55.621094 114.458221 55.540344 113.024597 C 54.598022 112.780029 53.900269 112.04187 53.121765 111.590942 C 47.512878 108.15155 41.778259 104.873688 36.330872 101.10675 C 33.463623 99.098755 31.13031 96.682434 29.696655 93.406799 C 29.550842 93.079224 29.535156 92.688843 29.106628 92.688843 Z"/>
    <path id="Path-copy-16" fill="#b4b4af" fill-rule="evenodd" stroke="none" d="M 30.822937 5.804382 C 29.855957 5.804382 28.891235 5.891907 27.935486 6.170105 C 27.033569 6.414642 26.29541 6.618805 26.214661 7.644104 C 28.711731 8.216248 30.760132 9.649872 32.440552 11.49408 C 34.037964 13.295654 33.874207 15.424805 32.68512 17.4328 C 31.170715 20.093689 29.081909 22.469604 27.565247 25.173126 C 27.444092 25.460297 27.280334 25.747498 27.116577 26.03241 C 28.590576 25.747498 29.573242 24.641418 30.596313 23.699097 C 33.176453 21.282776 35.348206 18.496277 37.517761 15.75238 C 39.649109 12.927734 40.835999 9.896667 39.157776 6.414642 C 38.668701 6.136414 38.150452 5.94574 37.605225 5.94574 C 37.508789 5.94574 37.412292 5.952454 37.313599 5.963684 C 36.797546 6.033234 36.279297 6.06015 35.756531 6.06015 C 34.127686 6.06015 32.471985 5.804382 30.822937 5.804382 Z"/>
    <path id="Path-copy-15" fill="#fd9098" fill-rule="evenodd" stroke="none" d="M 26.214661 7.644104 C 25.436127 11.698242 25.640289 15.75238 25.84671 19.808746 C 26.010498 21.978271 26.542175 24.107422 26.665588 26.279205 C 26.829407 26.238831 26.952759 26.155823 27.116577 26.03241 C 27.280334 25.747498 27.444092 25.460297 27.565247 25.173126 C 29.081909 22.469604 31.13031 20.093689 32.68512 17.4328 C 33.874207 15.424805 34.037964 13.295654 32.440552 11.49408 C 30.760132 9.649872 28.711731 8.216248 26.214661 7.644104 Z"/>
    <path id="Path-copy-14" fill="none" stroke="#fd9098" stroke-linejoin="round" d="M 26.214661 7.644104 C 25.436127 11.698242 25.640289 15.75238 25.84671 19.808746 C 26.010498 21.978271 26.542175 24.107422 26.665588 26.279205 C 26.829407 26.238831 26.952759 26.155823 27.116577 26.03241 C 27.280334 25.747498 27.444092 25.460297 27.565247 25.173126 C 29.081909 22.469604 31.13031 20.093689 32.68512 17.4328 C 33.874207 15.424805 34.037964 13.295654 32.440552 11.49408 C 30.760132 9.649872 28.711731 8.216248 26.214661 7.644104 Z"/>
    <path id="Path-copy-13" fill="#fd9098" fill-rule="evenodd" stroke="none" d="M 76.221558 3.506958 C 73.641479 3.753784 71.388916 4.776825 69.504333 6.49765 C 68.194092 7.603729 68.317444 9.158508 68.849182 10.632568 C 68.93219 10.715576 69.055603 10.796326 69.136353 10.879333 C 69.627686 11.287659 70.038269 11.698242 70.489258 12.108826 C 72.74176 14.114563 75.198486 15.711975 78.229553 16.243713 C 78.146545 14.318726 78.025391 12.353363 77.81897 10.46875 C 77.531799 8.052429 76.672546 5.882935 76.221558 3.506958 Z"/>
    <path id="Path-copy-12" fill="none" stroke="#fd9098" stroke-linejoin="round" d="M 76.221558 3.506958 C 73.641479 3.753784 71.388916 4.776825 69.504333 6.49765 C 68.194092 7.603729 68.317444 9.158508 68.849182 10.632568 C 68.93219 10.715576 69.055603 10.796326 69.136353 10.879333 C 69.627686 11.287659 70.038269 11.698242 70.489258 12.108826 C 72.74176 14.114563 75.198486 15.711975 78.229553 16.243713 C 78.146545 14.318726 78.025391 12.353363 77.81897 10.46875 C 77.531799 8.052429 76.672546 5.882935 76.221558 3.506958 Z"/>
    <path id="Path-copy-11" fill="#b4b4af" fill-rule="evenodd" stroke="none" d="M 74.038574 0.873016 C 73.61676 0.873016 73.141174 0.971741 72.618408 1.171417 C 71.922913 1.418213 71.184753 1.786133 70.529602 2.113708 C 68.481262 3.219788 66.432861 4.325867 64.386719 5.391571 C 65.163025 7.767517 66.639282 9.486084 68.849182 10.592163 C 68.400452 9.077759 68.236694 7.603729 69.504333 6.414642 C 71.388916 4.73645 73.641479 3.711121 76.221558 3.466583 C 76.129578 1.797363 75.337585 0.873016 74.038574 0.873016 Z"/>
    <path id="Path-copy-10" fill="#b4b4af" fill-rule="evenodd" stroke="none" d="M 61.245728 22.996857 C 62.028748 22.996857 62.746704 23.945892 62.746704 24.968964 C 62.746704 26.075043 62.134216 26.851318 61.272644 26.851318 C 60.413391 26.810913 59.798645 26.075043 59.798645 24.968964 C 59.83905 24.026672 59.922058 23.124756 61.149292 23.001343 C 61.182922 22.999084 61.214355 22.996857 61.245728 22.996857 Z M 42.336914 29.014099 C 43.072815 29.014099 43.743652 30.1875 43.743652 31.399048 C 43.620239 32.134918 43.456482 32.953827 42.393005 32.953827 C 41.491089 32.953827 40.959412 32.177551 41.040161 30.988464 C 41.163574 30.169556 41.040161 29.146484 42.229248 29.023071 C 42.265137 29.016357 42.301025 29.014099 42.336914 29.014099 Z M 56.971741 35.412781 C 58.405396 35.453156 58.775574 35.984863 58.36499 37.010193 C 57.956665 38.116272 57.505737 39.179749 57.135498 40.326172 C 56.758606 41.297668 56.435547 41.735168 55.849976 41.735168 C 55.5448 41.735168 55.170166 41.616241 54.678833 41.391907 C 53.285583 40.736755 52.262512 39.754089 51.811523 38.237427 C 51.526611 37.418518 51.690369 36.559235 52.630432 36.312439 C 54.147095 35.904114 55.744507 35.657318 56.971741 35.412781 Z M 52.074036 10.829987 C 50.867004 10.829987 49.651001 11.294403 48.659302 12.22998 C 47.34906 13.499817 46.734314 15.137634 46.283386 16.818054 C 45.464478 20.053284 44.111572 23.084351 42.269653 25.828247 C 40.425415 28.612518 38.33667 31.192627 36.739258 34.059906 C 33.710388 39.466919 34.937622 44.995056 40.795593 47.904968 C 43.128906 49.091797 45.751648 49.58316 48.372131 49.58316 C 48.439453 49.58316 48.504517 49.58316 48.571838 49.58316 C 55.046753 49.58316 60.956299 47.61554 66.024536 43.440247 C 69.096008 40.940918 71.184753 37.869476 71.101746 33.404785 C 71.265503 31.275635 70.446594 29.103851 69.013 27.221497 C 67.909119 25.787842 66.59668 24.641418 65.163025 23.616089 C 62.297974 21.567688 59.717896 19.27478 58.201233 16.039551 C 57.586487 14.810059 56.767578 13.706238 55.825256 12.640564 C 54.820129 11.437988 53.453796 10.829987 52.074036 10.829987 Z"/>
    <path id="Path-copy-9" fill="#b4b4af" fill-rule="evenodd" stroke="none" d="M 62.311462 94.165131 C 61.288391 94.165131 60.381958 94.847168 59.922058 96.150696 C 59.798645 96.561279 59.83905 97.133362 59.266907 97.380188 C 57.873657 98.116058 57.258911 99.385925 56.971741 100.81958 C 56.480408 102.991333 56.727173 105.120483 56.359253 107.290009 C 56.031677 109.174622 55.825256 111.059204 55.58075 112.984192 C 55.704102 114.458221 55.58075 115.851471 54.925598 117.161713 C 54.802185 117.733826 54.761841 118.225159 54.310852 118.595337 C 54.147095 119.986389 53.572754 121.215851 53.245178 122.485718 C 52.509277 125.106201 50.911865 127.358734 50.092957 129.898468 C 48.944275 133.380493 49.969543 136.247772 52.673035 138.25351 C 54.068542 139.290039 55.495483 139.736511 56.877502 139.736511 C 59.264648 139.736511 61.510498 138.399353 63.197632 136.451935 C 64.795044 134.607727 65.860779 132.355164 66.720032 130.062256 C 67.909119 127.031189 68.849182 123.919373 69.791504 120.807526 C 69.791504 120.356567 69.751099 119.865234 69.874512 119.454651 C 71.308167 113.88385 72.414246 108.191925 72.862915 102.416992 C 73.026733 100.983337 72.207825 99.63269 70.77417 99.509308 C 70.078674 99.385925 69.874512 99.181763 69.791504 98.486267 C 69.670349 96.725037 68.64502 95.82312 66.843445 95.782745 C 65.901123 95.782745 64.999207 95.576355 64.222961 94.921204 C 63.590271 94.414185 62.930664 94.165131 62.311462 94.165131 Z"/>
    <path id="Path-copy-8" fill="#b4b4af" fill-rule="evenodd" stroke="none" d="M 90.840637 122.398193 C 90.67688 122.398193 90.51532 122.400452 90.351563 122.40271 C 86.33783 122.485718 82.407104 123.100464 78.557129 124.327698 C 78.474121 124.738251 78.10614 124.985046 77.861633 125.312622 C 75.606812 127.97348 75.485657 131.946838 77.73822 134.690735 C 79.082092 136.247772 80.760315 136.642639 82.671814 136.642639 C 82.972473 136.642639 83.282104 136.631409 83.593933 136.615723 C 84.827881 136.550659 86.064087 136.530457 87.300293 136.530457 C 88.917908 136.530457 90.537781 136.561859 92.155396 136.561859 C 93.905396 136.561859 95.653137 136.52597 97.396362 136.368927 C 100.387024 136.124359 103.418091 135.756409 106.202393 134.607727 C 106.202393 134.486572 106.202393 134.363159 106.2854 134.199371 C 104.726135 125.608765 97.360474 122.398193 90.840637 122.398193 Z"/>
    <path id="Path-copy-7" fill="#e4d7b8" fill-rule="evenodd" stroke="none" d="M 93.721436 88.899475 C 93.476868 88.899475 93.236816 89.047546 93.014709 89.269653 C 92.236145 90.128967 91.417236 90.950073 90.762146 91.890137 C 86.216675 98.116058 84.576599 105.243896 84.085266 112.780029 C 84.085266 113.475525 84.085266 114.254059 84.208679 114.949554 C 84.208679 115.972626 84.700012 116.710754 85.723083 116.874542 C 85.792603 116.883514 85.859924 116.888 85.922729 116.888 C 86.791016 116.888 87.091675 116.122925 87.320496 115.360138 C 88.30542 112.04187 88.345825 108.559875 88.75415 105.120483 C 89.409241 99.753845 91.049316 94.757446 94.037781 90.17157 C 94.244141 89.843994 94.571716 89.516449 94.201538 89.105896 C 94.039978 88.960052 93.878479 88.899475 93.721436 88.899475 Z"/>
    <path id="Path-copy-6" fill="#e4d7b8" fill-rule="evenodd" stroke="none" d="M 69.089233 49.221924 C 68.78186 49.221924 68.440857 49.327393 68.072937 49.542786 C 67.007202 50.157532 65.941528 50.648865 64.795044 51.180603 C 60.904724 53.022552 56.807983 54.171265 52.466675 54.292419 C 51.901245 54.317078 51.335876 54.328308 50.770508 54.328308 C 48.470825 54.328308 46.175659 54.137604 43.90741 53.841461 C 43.696533 53.828003 43.451965 53.801086 43.216431 53.801086 C 42.760986 53.801086 42.336914 53.904297 42.229248 54.415802 C 42.065491 54.94754 42.924744 55.153931 43.416077 55.438873 C 45.751648 56.751343 48.412537 56.70874 50.992615 56.995911 C 51.120483 57.016113 51.246155 57.022827 51.371765 57.022827 C 52.044861 57.022827 52.670837 56.785034 53.328186 56.751343 C 57.382324 56.627991 61.313049 55.726074 65.12262 54.335022 C 66.679688 53.801086 68.194092 53.022552 69.627686 52.122864 C 70.282837 51.752686 70.897583 51.05719 70.325439 50.074524 C 70.018066 49.511353 69.598572 49.221924 69.089233 49.221924 Z"/>
    <path id="Path-copy-5" fill="#b4b4af" fill-rule="evenodd" stroke="none" d="M 68.891846 10.592163 L 68.891846 10.592163 C 68.93219 10.675171 69.055603 10.796326 69.21936 10.838959 C 69.096008 10.715576 69.013 10.675171 68.891846 10.592163 Z"/>
    <path id="Path-copy-4" fill="#fd9098" fill-rule="evenodd" stroke="none" d="M 56.971741 35.412781 C 55.704102 35.657318 54.147095 35.904114 52.673035 36.312439 C 51.730774 36.559235 51.607361 37.418518 51.854126 38.237427 C 52.262512 39.754089 53.328186 40.777161 54.719177 41.391907 C 55.197083 41.616241 55.567261 41.735168 55.872375 41.735168 C 56.457947 41.735168 56.801208 41.297668 57.178162 40.326172 C 57.586487 39.179749 57.99707 38.116272 58.405396 37.010193 C 58.775574 35.984863 58.405396 35.453156 56.971741 35.412781 Z"/>
    <path id="Path-copy-3" fill="none" stroke="#fd9098" stroke-linejoin="round" d="M 56.971741 35.412781 C 55.704102 35.657318 54.147095 35.904114 52.673035 36.312439 C 51.730774 36.559235 51.607361 37.418518 51.854126 38.237427 C 52.262512 39.754089 53.328186 40.777161 54.719177 41.391907 C 55.197083 41.616241 55.567261 41.735168 55.872375 41.735168 C 56.457947 41.735168 56.801208 41.297668 57.178162 40.326172 C 57.586487 39.179749 57.99707 38.116272 58.405396 37.010193 C 58.775574 35.984863 58.405396 35.453156 56.971741 35.412781 Z"/>
    <path id="Path-copy-2" fill="#2f3c32" fill-rule="evenodd" stroke="none" d="M 61.205383 22.996857 C 61.17395 22.996857 61.142517 22.999084 61.108887 23.001343 C 59.922058 23.124756 59.83905 24.026672 59.798645 24.968964 C 59.798645 26.075043 60.330383 26.851318 61.2323 26.851318 C 62.091553 26.851318 62.706299 26.03241 62.706299 24.968964 C 62.706299 23.945892 61.988342 22.996857 61.205383 22.996857 Z"/>
    <path id="Path-copy" fill="#2f3c32" fill-rule="evenodd" stroke="none" d="M 42.325745 29.014099 C 42.294312 29.014099 42.260681 29.016357 42.229248 29.023071 C 41.040161 29.146484 41.080505 30.169556 41.040161 30.988464 C 40.959412 32.177551 41.491089 32.953827 42.393005 32.953827 C 43.499084 32.953827 43.662903 32.134918 43.743652 31.399048 C 43.743652 30.1875 42.998779 29.014099 42.325745 29.014099 Z"/>
</svg>
