<?xml version="1.0" encoding="UTF-8"?>
<!-- Generated by Pixelmator Pro 3.4.1 -->
<svg width="140" height="153" viewBox="0 0 140 153" xmlns="http://www.w3.org/2000/svg">
    <path id="Path-copy-35" fill="#d1bcdb" fill-rule="evenodd" stroke="none" d="M 1.711273 135.455383 L 1.711273 135.455383 C 1.711273 125.766479 32.261688 117.912079 69.94751 117.912079 L 69.94751 117.912079 C 107.633331 117.912079 138.183716 125.766479 138.183716 135.455383 L 138.183716 135.455383 C 138.183716 145.144287 107.633331 152.998688 69.94751 152.998688 L 69.94751 152.998688 C 32.261688 152.998688 1.711273 145.144287 1.711273 135.455383 Z"/>
    <path id="Path-copy-34" fill="#dad1c2" fill-rule="evenodd" stroke="none" d="M 122.894867 48.470032 C 122.910583 48.470032 122.9263 48.470032 122.941986 48.47229 C 123.843903 48.55307 124.418274 49.291199 124.418274 50.518433 C 124.418274 51.806244 123.588135 52.896606 122.627899 52.896606 C 122.609955 52.896606 122.59201 52.896606 122.574036 52.894379 C 121.714752 52.894379 121.100037 52.035065 121.100037 50.848236 C 121.100037 49.638947 121.97052 48.470032 122.894867 48.470032 Z M 106.438293 55.220947 C 106.503357 55.220947 106.570679 55.223175 106.642456 55.229919 C 107.871948 55.353302 109.18219 55.51709 110.409424 55.761658 C 111.31134 55.96582 111.638885 57.235657 111.024139 58.097198 C 110.041473 59.530853 108.444061 59.898773 106.929626 60.307129 C 106.851105 60.334045 106.770355 60.347504 106.689575 60.347504 C 106.276764 60.347504 105.879639 60.004242 105.74054 59.48822 C 105.536377 58.628937 105.372589 57.686615 105.168427 56.786957 C 105.168427 55.754913 105.525177 55.220947 106.438293 55.220947 Z M 89.461212 66.575653 C 89.844849 66.575653 90.206085 67.075958 90.464081 67.271149 C 93.33136 69.359924 96.402802 70.997742 99.844452 71.980408 C 101.76944 72.554779 103.734802 72.963104 105.700165 73.414063 C 106.602081 73.660858 107.42099 74.069183 108.280273 74.479736 C 108.975769 74.807312 109.222565 75.298645 109.18219 75.913391 C 109.222565 76.813049 108.89502 77.183258 107.993103 77.347015 C 107.311035 77.481628 106.642456 77.542206 105.980621 77.542206 C 103.862671 77.542206 101.841217 76.92749 99.844452 76.240936 C 96.730377 75.094482 93.741943 73.781982 91.446777 71.325287 C 90.504456 70.34259 89.891968 69.276917 89.358002 68.130432 C 89.153839 67.722107 88.662506 67.107391 89.153839 66.696808 C 89.25705 66.611542 89.36026 66.575653 89.461212 66.575653 Z M 113.15329 23.570923 C 114.095612 30.943268 113.400085 38.149628 110.409424 44.990265 C 107.198883 52.241486 101.71109 55.985992 94.664032 55.985992 C 92.992584 55.985992 91.23587 55.775116 89.400635 55.353302 C 85.263489 54.368378 81.536926 52.690186 78.095276 50.23349 C 77.891113 50.027069 77.644318 49.905914 77.359406 49.782532 C 76.948822 50.027069 77.03183 50.478027 77.152985 50.848236 C 77.440155 51.543732 77.276367 52.279633 77.316772 52.977386 C 77.352661 53.661652 77.103638 53.933136 76.542725 53.933136 C 76.464203 53.933136 76.383453 53.92865 76.293701 53.919678 L 76.293701 53.919678 C 76.868042 56.048828 77.440155 58.260986 77.48056 60.513519 C 77.563568 69.440704 71.788605 77.304413 63.105988 80.171692 C 60.817566 80.916534 58.470795 81.273285 56.141968 81.273285 C 47.466064 81.273285 39.043701 76.323975 34.846008 68.090057 C 33.656891 65.754517 32.838013 63.297791 32.102112 60.758087 C 32.061737 60.80069 31.998901 60.80069 31.938324 60.80069 C 31.875519 60.80069 31.814941 60.80069 31.774536 60.841095 C 30.816528 61.191071 29.946045 61.348145 29.158539 61.348145 C 26.446075 61.348145 24.70282 59.481476 23.623657 57.195282 C 22.149628 53.960052 21.207336 50.60144 20.839386 46.99826 C 20.428802 43.148285 20.632996 39.379089 21.043549 35.529144 C 21.247711 33.850952 21.862457 32.210907 21.575287 30.451935 L 21.575287 30.451935 C 20.141632 31.842957 18.54422 33.032043 16.455444 33.316986 C 16.10321 33.375305 15.75769 33.402222 15.418915 33.402222 C 13.570221 33.402222 11.952606 32.601288 10.395569 31.598389 C 9.57666 33.195831 9.57666 34.874023 9.37027 36.554443 C 9.594604 36.451233 9.778595 36.406372 9.928925 36.406372 C 10.435944 36.406372 10.559357 36.92688 10.559357 37.494507 C 10.599731 39.174927 10.516724 40.895752 10.599731 42.614319 C 10.967682 49.004028 12.401337 55.189545 14.777252 61.16864 C 15.596161 63.217041 17.029816 64.895203 18.340057 66.696808 C 19.282349 67.966675 19.977844 69.31955 20.22464 70.916962 C 20.511841 72.348358 20.141632 73.454437 18.954803 74.273346 C 20.348053 77.427795 20.920166 80.746033 21.166962 84.104675 C 22.35379 84.185425 23.008911 85.087341 23.787445 85.742462 C 24.11499 86.070038 24.482941 86.478363 24.689362 86.888916 C 26.941895 91.149475 29.806946 95.0802 30.628082 99.953247 C 31.036407 102.412201 31.200195 104.868896 30.749237 107.368225 C 35.050171 109.824951 36.320007 113.879059 36.566803 118.42453 C 36.811371 123.176422 35.254333 127.436951 32.674225 131.367706 C 33.125183 132.554535 33.820679 133.579865 35.090546 134.030823 C 35.296967 133.416077 35.541504 132.841736 35.952087 132.350372 C 36.279633 131.998138 36.607208 131.832123 36.970642 131.832123 C 37.199493 131.832123 37.444061 131.897186 37.713287 132.022827 C 38.368408 132.350372 38.572571 132.841736 38.328003 133.620239 C 38.121613 134.27536 37.957825 135.013489 37.753662 135.709015 C 38.078979 135.935608 38.428986 136.009644 38.785706 136.009644 C 38.877686 136.009644 38.971924 136.005157 39.063904 135.996185 L 39.063904 133.784027 C 39.146912 133.333069 39.391479 132.965118 39.882813 132.841736 C 39.952362 132.830505 40.015167 132.826019 40.075745 132.826019 C 40.479584 132.826019 40.688263 133.059357 40.865479 133.416077 C 41.193054 134.151978 41.480225 134.807098 41.8078 135.504852 C 42.954254 135.258057 43.773163 134.479523 44.511292 133.579865 C 43.28183 133.252289 42.545929 132.309998 41.848175 131.367706 C 41.43985 130.916748 41.399475 130.261627 41.890808 129.729889 C 42.155548 129.483093 42.422516 129.382141 42.689514 129.382141 C 42.954254 129.382141 43.221252 129.483093 43.48822 129.646881 C 44.307129 130.097839 45.166412 130.589172 45.985321 131.120911 C 46.80423 129.074768 46.763824 126.86261 46.967987 124.733459 C 46.763824 120.883484 46.600067 117.033539 46.355499 113.264343 C 46.355499 112.732605 46.436279 112.364655 46.763824 112.037109 C 46.909668 111.853119 47.0914 111.70282 47.302307 111.70282 C 47.326965 111.70282 47.351654 111.705048 47.378571 111.709534 C 47.665741 111.749939 47.582733 112.077484 47.665741 112.281647 C 48.074066 113.264343 47.582733 114.410797 48.197479 115.353088 C 49.099396 112.241272 52.949371 109.578156 56.675934 109.414368 C 56.828491 109.409882 56.978821 109.405396 57.126892 109.405396 C 60.151215 109.405396 62.589966 110.592255 64.580017 112.896393 C 65.154388 113.551514 65.645721 114.206635 66.177429 114.90213 C 66.664307 114.527466 67.290253 114.325531 67.927429 114.325531 C 67.985748 114.325531 68.044098 114.325531 68.102417 114.330017 C 68.647614 114.356964 69.190552 114.368164 69.731262 114.368164 C 72.567139 114.368164 75.358124 114.051819 78.178284 113.879059 C 78.272522 113.872345 78.364502 113.867859 78.454254 113.867859 C 79.894623 113.867859 80.495911 114.794434 80.224426 116.335785 C 79.896881 118.507568 79.569305 120.719727 79.284363 122.929626 C 79.077972 125.675751 78.750397 128.500427 78.710022 131.286926 C 78.669647 134.890106 79.16098 138.452881 82.232422 140.95224 C 82.436584 141.156403 82.640747 141.360565 82.970551 141.360565 C 82.970551 140.788452 83.051331 140.214081 83.255493 139.682373 C 83.486572 139.184296 83.643646 138.65033 84.300995 138.65033 C 84.345856 138.65033 84.392975 138.652557 84.44458 138.657043 C 85.223114 138.699677 85.263489 139.27179 85.344269 139.763123 C 85.508026 140.745819 85.631439 141.771118 85.714447 142.794189 C 86.398743 142.966949 87.10321 143.038757 87.814423 143.038757 C 88.124054 143.038757 88.433655 143.025269 88.743256 142.998352 C 88.622101 142.139069 88.539093 141.196777 88.41571 140.337494 C 88.375305 139.763123 88.498718 139.312164 89.113464 139.067627 C 89.272736 138.982361 89.409607 138.946472 89.53299 138.946472 C 89.880768 138.946472 90.109589 139.233643 90.383301 139.47821 C 91.078827 140.090698 91.406372 140.992615 91.85733 141.811523 C 92.635864 141.403168 93.33136 140.992615 93.61853 140.090698 C 93.044189 139.312164 92.472076 138.535889 91.897736 137.71701 C 91.610535 137.223419 91.446777 136.651306 92.021118 136.200348 C 92.245483 135.975983 92.476563 135.879517 92.7099 135.879517 C 92.988098 135.879517 93.268555 136.018616 93.535522 136.240723 C 93.946106 136.527893 94.437439 136.855469 94.845764 137.142639 C 95.503143 136.03656 95.543518 134.807098 95.543518 133.620239 C 95.583923 130.46579 95.543518 127.273193 95.543518 124.118713 C 95.052185 123.136047 95.256348 122.110718 95.339355 121.128052 C 95.707306 117.401489 96.158264 113.674896 96.566589 109.905701 C 96.690002 109.006042 97.591888 108.635864 98.040619 107.940338 C 97.980042 107.929138 97.914978 107.924652 97.849915 107.924652 C 97.639008 107.924652 97.414673 107.969513 97.217224 107.969513 C 97.033264 107.969513 96.873962 107.931366 96.770752 107.77655 C 96.526215 107.325592 97.100555 106.917267 97.345123 106.547089 C 97.713043 106.01535 98.123627 105.564392 98.574585 105.156067 C 101.686432 102.412201 104.143127 99.134338 105.987335 95.367371 C 106.328369 94.685333 106.761383 94.169312 107.394073 94.169312 C 107.600464 94.169312 107.824829 94.223145 108.076111 94.342072 C 109.058777 94.876038 109.058777 95.775696 108.607819 96.718018 C 106.642456 100.608368 104.26651 104.090363 100.620728 106.589722 C 100.252777 106.834259 99.884827 107.161835 99.557281 107.40863 C 100.088989 109.16983 99.844452 110.888397 99.761444 112.649597 C 99.474274 115.559509 99.433868 118.507568 99.761444 121.49823 C 99.844452 122.521301 99.801819 123.587006 99.801819 124.650452 C 99.844452 124.937622 99.844452 125.141785 99.884827 125.348206 C 100.447968 125.238251 101.026794 125.184418 101.60788 125.184418 C 105.379333 125.184418 109.379608 127.410034 111.721893 130.957123 C 112.334412 131.942047 112.908752 132.965118 113.276703 134.030823 C 114.750732 134.030823 115.652649 135.053894 116.554565 136.03656 C 117.701019 133.867035 117.98819 131.571869 117.496857 129.155548 C 117.454224 128.664185 117.454224 128.092072 117.373444 127.600739 C 116.67572 124.118713 115.939819 120.677094 115.571869 117.156921 C 115.120911 112.77298 115.325073 108.472076 115.325073 104.130768 C 115.325073 103.067322 115.529236 101.920837 115.652649 100.855164 C 116.063202 97.579529 116.962891 94.342072 116.882111 91.066467 C 116.882111 85.659454 118.192352 80.295074 117.781799 74.847687 C 116.799103 72.144196 116.471527 69.359924 117.086273 66.573395 C 118.232758 61.536591 121.304199 58.382141 126.219849 56.991119 C 128.432007 56.376373 130.724945 56.048828 132.977478 55.802032 C 133.468811 54.20462 133.632599 52.526428 133.673004 50.888611 C 133.879395 47.038635 133.222046 43.352448 131.911774 39.789673 C 130.273987 39.29834 129.044495 38.109253 127.489716 37.086182 C 123.312195 33.850952 119.953552 29.917969 117.98819 24.881165 C 117.905182 24.717377 117.864807 24.513214 117.824402 24.306793 C 117.609039 24.34494 117.395905 24.360657 117.187225 24.360657 C 115.805206 24.360657 114.542084 23.640472 113.15329 23.570923 Z"/>
    <path id="Path-copy-33" fill="#ffc19d" fill-rule="evenodd" stroke="none" d="M 93.658936 44.088348 C 94.560852 44.088348 95.175568 44.909485 95.175568 46.177124 C 95.175568 47.368439 94.367889 48.557556 93.499634 48.557556 C 93.470459 48.557556 93.441315 48.555298 93.414368 48.55307 C 92.635864 48.47229 91.980743 47.570374 91.980743 46.42392 C 91.980743 45.317841 92.799652 44.130981 93.658936 44.088348 Z M 103.36911 22.220276 C 101.172638 22.220276 98.994141 22.482788 96.813385 23.079559 C 96.770752 24.470581 96.158264 25.700043 95.296722 26.723114 C 91.774323 30.736877 87.720184 33.891327 82.232422 34.710236 C 81.864471 34.75061 81.536926 34.75061 81.166718 34.75061 C 79.528931 37.373352 78.546234 40.281006 77.971893 43.352448 C 77.563568 45.481598 77.152985 47.610748 77.563568 49.782532 C 77.850739 49.905914 78.095276 50.069702 78.299438 50.23349 C 81.741089 52.690186 85.508026 54.368378 89.604797 55.353302 C 91.440033 55.775116 93.199005 55.985992 94.868225 55.985992 C 101.915253 55.985992 107.403046 52.241486 110.615814 44.990265 C 113.604248 38.149628 114.302002 30.943268 113.359711 23.570923 C 111.843048 22.873169 110.205261 22.996552 108.567444 22.669006 C 106.82196 22.381805 105.089905 22.220276 103.36911 22.220276 Z"/>
    <path id="Path-copy-32" fill="#ffc19d" fill-rule="evenodd" stroke="none" d="M 70.108185 52.526428 C 70.642151 54.778961 71.378052 56.991119 70.969696 59.284058 C 70.559143 61.740753 69.208496 62.806458 66.751801 62.806458 C 65.856598 62.806458 64.952454 62.784027 64.048309 62.784027 C 62.843506 62.784027 61.636444 62.824402 60.442871 63.01062 C 56.592957 63.708374 53.644897 65.673737 51.515717 68.908966 C 50.941376 69.851257 50.32663 70.793549 49.631104 71.612457 C 49.101624 72.191315 48.540741 72.476227 47.941711 72.476227 C 47.564789 72.476227 47.174408 72.366302 46.763824 72.144196 C 43.077637 70.219208 40.784729 67.230774 39.555237 63.380798 C 38.940521 61.372803 38.532166 59.324432 38.449158 57.235657 C 36.320007 58.260986 34.107849 59.243652 32.306274 60.88147 C 33.00177 63.380798 33.863312 65.837524 35.050171 68.170837 C 39.243378 76.39801 47.656769 81.371979 56.32373 81.371979 C 58.659271 81.371979 61.015015 81.010773 63.310181 80.2547 C 72.033173 77.387421 77.850739 69.483307 77.686981 60.634674 C 77.644348 58.382141 77.03186 56.212616 76.497894 54.000458 C 74.492157 52.977386 72.279968 52.730591 70.108215 52.526428 Z"/>
    <path id="Path-copy-31" fill="#2f3c32" fill-rule="evenodd" stroke="none" d="M 63.882263 52.239227 C 63.227142 52.239227 62.572021 52.250458 61.916901 52.279633 C 58.724304 52.36264 55.569855 52.526428 52.458008 53.100769 C 47.623108 53.919678 42.873474 54.983124 38.449158 57.235657 C 38.532166 59.324432 38.859741 61.372803 39.555237 63.380798 C 40.825104 67.230774 43.118042 70.219208 46.763824 72.144196 C 47.190125 72.366302 47.591705 72.476227 47.970886 72.476227 C 48.57663 72.476227 49.126312 72.191315 49.631104 71.612457 C 50.32663 70.753174 50.90097 69.851257 51.515717 68.908966 C 53.604492 65.633362 56.592926 63.708374 60.442871 63.01062 C 61.636444 62.824402 62.843506 62.784027 64.057281 62.784027 C 64.965912 62.784027 65.879059 62.806458 66.792175 62.806458 C 69.248901 62.806458 70.559143 61.740753 70.969696 59.284058 C 71.378052 56.950745 70.682526 54.738586 70.108185 52.526428 C 68.050812 52.371613 65.968781 52.239227 63.882263 52.239227 Z"/>
    <path id="Path-copy-30" fill="#2f3c32" fill-rule="evenodd" stroke="none" d="M 9.296234 1.072388 C 7.310669 1.072388 5.376709 1.689362 3.637939 2.927826 C 2.61264 3.70636 1.712952 4.484863 1.997894 5.958893 C 2.368073 7.432922 3.391144 8.251831 4.824799 8.539001 C 9.57666 9.685455 12.441711 13.331268 12.484344 18.16391 C 12.565094 20.907806 11.869598 23.487885 11.41864 26.151001 C 11.13147 27.992981 10.395569 29.794586 10.559357 31.679169 C 12.125366 32.688782 13.722778 33.521149 15.600647 33.521149 C 15.93045 33.521149 16.271484 33.49646 16.619232 33.440369 C 18.667603 33.112823 20.22464 31.966339 21.739075 30.57309 C 21.822083 30.205139 22.026245 29.917969 22.190033 29.550018 C 22.845154 25.49588 23.500275 21.439514 23.255707 17.345001 C 22.845154 11.610443 20.756378 6.818176 15.964111 3.378784 C 13.803558 1.844177 11.515106 1.072388 9.296234 1.072388 Z"/>
    <path id="Path-copy-29" fill="#ffc19d" fill-rule="evenodd" stroke="none" d="M 24.525574 106.098358 L 24.525574 106.098358 C 25.221069 109.210205 25.835815 112.322021 26.531311 115.395721 C 27.597015 119.900818 29.194427 124.159119 30.87262 128.419647 C 31.610779 129.361938 31.774536 130.67218 32.797607 131.408081 C 35.337341 127.477356 36.934753 123.216797 36.687958 118.467163 C 36.403046 113.919464 35.133179 109.865326 30.832245 107.40863 C 28.7435 106.834259 26.571716 106.793884 24.525574 106.098358 Z"/>
    <path id="Path-copy-28" fill="#2f3c32" fill-rule="evenodd" stroke="none" d="M 132.977478 55.802032 L 132.977478 55.802032 C 130.68454 56.048828 128.432007 56.376373 126.219849 56.991119 C 121.263794 58.382141 118.192352 61.496216 117.086273 66.573395 C 116.471527 69.359924 116.799103 72.144196 117.781799 74.847687 C 117.911926 74.921722 118.030823 74.953125 118.145233 74.953125 C 118.466064 74.953125 118.739777 74.713074 119.011261 74.560516 C 122.123108 72.718536 124.826599 70.382996 127.119537 67.598724 C 129.986816 64.116699 132.118195 60.266724 132.977478 55.802032 Z"/>
    <path id="Path-copy-27" fill="#2f3c32" fill-rule="evenodd" stroke="none" d="M 21.247711 84.185425 L 21.247711 84.185425 C 21.945465 91.598175 22.477203 98.970551 24.525574 106.138763 C 26.571716 106.874634 28.7435 106.874634 30.832245 107.449005 C 31.283203 104.949677 31.159821 102.49295 30.749237 99.99585 C 29.930328 95.120575 27.063049 91.18985 24.810516 86.929321 C 24.606354 86.520996 24.238403 86.110413 23.870453 85.823242 C 23.091919 85.127716 22.436798 84.2258 21.247711 84.185425 Z"/>
    <path id="Path-copy-26" fill="#fd9098" fill-rule="evenodd" stroke="none" d="M 136.950836 24.306793 C 133.222046 24.840759 129.659241 26.027618 126.056061 26.96991 C 125.48172 27.133698 124.866974 27.33786 124.375641 27.625031 C 122.901611 28.484314 122.574036 29.754181 123.63974 30.983673 C 126.219849 33.850952 128.676575 36.922394 131.748016 39.255707 C 134.164337 36.307648 136.212708 33.032043 137.482574 29.38623 C 138.137695 27.665436 138.17807 25.904236 136.950836 24.306793 Z"/>
    <path id="Path-copy-25" fill="none" stroke="#fd9098" stroke-linejoin="round" d="M 136.950836 24.306793 C 133.222046 24.840759 129.659241 26.027618 126.056061 26.96991 C 125.48172 27.133698 124.866974 27.33786 124.375641 27.625031 C 122.901611 28.484314 122.574036 29.754181 123.63974 30.983673 C 126.219849 33.850952 128.676575 36.922394 131.748016 39.255707 C 134.164337 36.307648 136.212708 33.032043 137.482574 29.38623 C 138.137695 27.665436 138.17807 25.904236 136.950836 24.306793 Z"/>
    <path id="Path-copy-24" fill="#2f3c32" fill-rule="evenodd" stroke="none" d="M 84.323425 14.450806 C 83.470886 14.450806 82.708069 14.903992 81.945251 15.828339 C 83.542664 17.098206 85.303864 18.24469 86.737518 19.761322 C 87.433014 20.580231 88.130768 21.399139 88.622101 22.341431 C 89.645172 24.226044 89.645172 26.108398 88.458344 27.912231 C 86.697144 30.615723 84.321198 32.62146 81.453918 34.055115 C 81.413513 34.299652 81.290131 34.506073 81.209351 34.75061 C 81.577301 34.75061 81.945251 34.75061 82.272797 34.710236 C 87.76059 33.891327 91.816956 30.736877 95.339355 26.723114 C 96.279419 25.740448 96.813385 24.513214 96.894165 23.079559 L 96.894165 23.079559 C 96.831329 23.093018 96.77301 23.099762 96.716919 23.099762 C 96.443207 23.099762 96.239044 22.933746 96.034882 22.628601 C 94.724609 21.645935 93.33136 20.703613 92.021118 19.678314 C 90.136536 18.24469 88.41571 16.606873 86.490723 15.256256 C 85.689758 14.720032 84.978546 14.450806 84.323425 14.450806 Z"/>
    <path id="Path-copy-23" fill="#d4b98f" fill-rule="evenodd" stroke="none" d="M 10.050049 36.446747 C 9.901978 36.446747 9.718018 36.491638 9.493652 36.594818 C 9.166107 38.149628 9.125702 39.66629 8.961945 41.140289 C 8.306824 47.610748 9.083099 53.83667 11.214478 59.939178 C 13.056458 65.182404 16.455444 69.564087 19.035553 74.315979 C 20.22464 73.49707 20.59259 72.390991 20.348053 70.957336 C 20.060883 69.359924 19.363129 68.049683 18.46344 66.739441 C 17.110565 64.978241 15.679169 63.257416 14.858032 61.209045 C 12.524719 55.310699 11.05069 49.087036 10.723145 42.656952 C 10.599731 40.976532 10.723145 39.215332 10.680511 37.53714 C 10.680511 36.967255 10.559357 36.446747 10.050049 36.446747 Z"/>
    <path id="Path-copy-22" fill="#fd9098" fill-rule="evenodd" stroke="none" d="M 81.821838 15.992126 C 81.617676 16.238922 81.413513 16.606873 81.373138 17.057831 C 81.453918 19.637939 81.00296 22.258423 80.839172 24.921539 C 80.63501 28.033356 81.085968 31.107056 81.373138 34.178497 C 84.280792 32.744873 86.614105 30.77951 88.375305 28.033356 C 89.564423 26.231781 89.564423 24.389801 88.539093 22.464844 C 88.007385 21.522522 87.352264 20.703613 86.614105 19.92511 C 85.223114 18.368073 83.461914 17.261993 81.821838 15.992126 Z"/>
    <path id="Path-copy-21" fill="none" stroke="#fd9098" stroke-linejoin="round" d="M 81.821838 15.992126 C 81.617676 16.238922 81.413513 16.606873 81.373138 17.057831 C 81.453918 19.637939 81.00296 22.258423 80.839172 24.921539 C 80.63501 28.033356 81.085968 31.107056 81.373138 34.178497 C 84.280792 32.744873 86.614105 30.77951 88.375305 28.033356 C 89.564423 26.231781 89.564423 24.389801 88.539093 22.464844 C 88.007385 21.522522 87.352264 20.703613 86.614105 19.92511 C 85.223114 18.368073 83.461914 17.261993 81.821838 15.992126 Z"/>
    <path id="Path-copy-20" fill="#ffc19d" fill-rule="evenodd" stroke="none" d="M 134.056641 22.148499 C 133.634857 22.148499 133.168182 22.22702 132.649933 22.381805 C 132.198975 22.464844 131.790649 22.628601 131.339691 22.669006 L 118.109344 24.389801 C 118.192352 24.513214 118.232758 24.717377 118.273132 24.921539 C 120.281128 29.958344 123.599365 33.850952 127.817261 37.126556 C 129.087128 38.149628 130.314362 39.338715 131.954407 39.830048 C 131.911774 39.66629 131.831024 39.462128 131.790649 39.338715 C 128.676575 36.962769 126.260223 33.891327 123.72052 31.024048 C 122.614441 29.794586 122.941986 28.484314 124.418274 27.705811 C 124.949982 27.378235 125.564728 27.174072 126.096466 27.05069 C 129.701874 26.027618 133.222046 24.881165 136.950836 24.306793 C 136.185791 22.839508 135.306305 22.148499 134.056641 22.148499 Z"/>
    <path id="Path-copy-19" fill="#2f3c32" fill-rule="evenodd" stroke="none" d="M 57.364075 109.183716 C 57.177856 109.183716 56.98941 109.188263 56.798706 109.199646 C 53.069885 109.322571 49.21991 112.024292 48.279877 115.224487 C 48.196838 118.340485 49.056152 121.331268 49.383698 124.406281 C 49.670868 125.735535 49.875031 127.108032 50.245239 128.394012 C 50.90036 130.67923 51.555481 133.00766 53.152893 134.960571 C 53.561218 134.503082 53.971802 133.963623 54.42276 133.588074 C 54.736847 133.365021 55.057678 133.258057 55.371796 133.258057 C 55.75769 133.258057 56.132355 133.417358 56.47113 133.713257 C 57.083618 134.211731 57.166656 134.917328 56.675293 135.584229 C 56.347748 136.164612 55.977539 136.788269 55.609619 137.327698 C 56.18396 138.035583 56.879456 138.242706 57.65799 138.449829 C 57.821777 137.703278 57.862152 136.954437 58.02594 136.24884 C 58.108948 135.625183 58.517273 135.333862 59.132019 135.333862 C 59.210541 135.324738 59.284576 135.32019 59.354126 135.32019 C 59.923981 135.32019 60.296417 135.616089 60.442261 136.205597 C 60.565643 137.036377 60.689056 137.826172 60.769806 138.656952 C 62.039673 138.367889 63.186127 137.951355 64.088043 137.036377 C 63.720123 136.415009 63.30954 135.791351 62.941589 135.249634 C 62.573639 134.75116 62.367249 134.211731 62.818207 133.713257 C 63.035828 133.428741 63.307281 133.328613 63.59671 133.328613 C 63.854736 133.328613 64.123962 133.408264 64.375244 133.506134 C 64.98996 133.754242 65.562073 134.129791 66.176819 134.418854 C 66.463989 133.506134 66.791565 132.550171 66.914948 131.553253 C 67.406281 128.726318 67.242523 125.819733 67.19989 122.910889 C 66.872314 120.209167 66.587402 117.425476 66.257599 114.723755 C 65.766235 114.059143 65.234528 113.394501 64.662415 112.729889 C 62.697052 110.424194 60.332306 109.183716 57.364075 109.183716 Z"/>
    <path id="Path-copy-18" fill="#ffc19d" fill-rule="evenodd" stroke="none" d="M 101.675201 125.224792 C 101.098602 125.224792 100.526489 125.278656 99.965607 125.38858 C 99.844452 128.132477 100.00824 130.916748 100.663361 133.579865 C 101.031311 135.013489 101.441864 136.40451 102.545715 137.470215 L 102.545715 137.346802 C 103.028076 136.660278 103.510437 135.769592 104.331573 135.769592 C 104.488647 135.769592 104.656891 135.800995 104.840881 135.872772 C 105.987335 136.283356 105.249207 137.42981 105.168427 138.248718 C 105.128052 138.740051 104.881256 139.19101 104.717468 139.722748 C 105.576782 140.337494 106.559448 140.788452 107.625153 140.909607 C 107.665527 139.886536 107.665527 138.780457 107.625153 137.757385 C 107.625153 136.938477 108.199493 136.487518 108.89502 136.364136 C 108.960083 136.357391 109.025146 136.355164 109.085724 136.355164 C 109.765503 136.355164 110.261353 136.76123 110.409424 137.51059 C 110.532806 138.576294 111.064545 139.55896 111.107178 140.705444 C 112.294006 140.582031 113.195923 139.969543 114.095612 139.27179 C 114.095612 138.125336 113.319336 137.346802 112.78537 136.527893 C 112.130249 135.464447 112.334412 134.766693 113.319336 134.071198 C 112.949127 132.965118 112.377014 131.982422 111.762299 130.999756 C 109.420013 127.452667 105.419708 125.224792 101.675201 125.224792 Z"/>
    <path id="Path-copy-17" fill="#d4b98f" fill-rule="evenodd" stroke="none" d="M 89.541962 66.595856 C 89.42981 66.595856 89.315369 66.63623 89.194214 66.739441 C 88.743256 67.107391 89.194214 67.762512 89.400635 68.170837 C 90.013123 69.31955 90.627869 70.42337 91.48938 71.365662 C 93.863098 73.824615 96.770752 75.215637 99.884827 76.281342 C 101.881622 76.967865 103.903076 77.582611 106.020996 77.582611 C 106.682861 77.582611 107.353668 77.524261 108.035706 77.387421 C 108.89502 77.183258 109.222565 76.813049 109.18219 75.913391 C 109.222565 75.25827 108.975769 74.807312 108.363281 74.520142 C 107.461365 74.109558 106.642456 73.660858 105.74054 73.454437 C 103.775177 73.005707 101.850189 72.554779 99.884827 72.020782 C 96.485809 71.121124 93.33136 69.483307 90.547089 67.311554 C 90.259918 67.089417 89.925629 66.595856 89.541962 66.595856 Z"/>
    <path id="Path-copy-16" fill="#d4b98f" fill-rule="evenodd" stroke="none" d="M 107.49054 94.268036 C 106.871307 94.268036 106.445038 94.788544 106.110748 95.490784 C 104.18576 99.176971 101.809814 102.49295 98.655365 105.27948 C 98.204407 105.687805 97.796082 106.138763 97.428131 106.630096 C 97.140961 106.998047 96.566589 107.368225 96.894165 107.859589 C 96.999603 108.034576 97.167877 108.081696 97.358582 108.081696 C 97.580688 108.081696 97.834198 108.01886 98.067535 108.01886 C 98.101196 108.01886 98.132599 108.01886 98.164001 108.023346 C 98.61496 107.816956 99.146698 107.653168 99.597656 107.449005 C 99.965607 107.204437 100.252777 106.957672 100.703735 106.710876 C 104.389923 104.173401 106.765869 100.691376 108.690857 96.801025 C 109.18219 95.899109 109.18219 94.956818 108.199493 94.465454 C 107.937012 94.330841 107.701416 94.268036 107.49054 94.268036 Z"/>
    <path id="Path-copy-15" fill="#fd9098" fill-rule="evenodd" stroke="none" d="M 106.46521 55.223175 C 105.565552 55.223175 105.168427 55.822235 105.168427 56.786957 C 105.332214 57.686615 105.536377 58.588531 105.74054 59.48822 C 105.879639 59.975067 106.256561 60.345245 106.691833 60.345245 C 106.768097 60.345245 106.848877 60.331787 106.929626 60.307129 C 108.444061 59.898773 110.041473 59.530853 111.024139 58.097198 C 111.558136 57.195282 111.31134 55.96582 110.409424 55.761658 C 109.18219 55.51709 107.871948 55.353302 106.642456 55.229919 C 106.581879 55.225433 106.521301 55.223175 106.46521 55.223175 Z"/>
    <path id="Path-copy-14" fill="#8e7f67" fill-rule="evenodd" stroke="none" d="M 113.319336 134.071198 C 112.334412 134.766693 112.130249 135.464447 112.78537 136.527893 C 113.319336 137.42981 114.095612 138.125336 114.095612 139.27179 C 115.161285 138.372131 116.184357 137.42981 116.59494 136.076935 C 115.735657 135.053894 114.793365 134.071198 113.319336 134.071198 Z"/>
    <path id="Path-copy-13" fill="#2f3c32" fill-rule="evenodd" stroke="none" d="M 122.935272 48.470032 C 121.972778 48.470032 121.140411 49.638947 121.140411 50.848236 C 121.140411 51.952057 121.755157 52.853973 122.614441 52.894379 C 122.632385 52.896606 122.65033 52.896606 122.666046 52.896606 C 123.588135 52.896606 124.418274 51.806244 124.418274 50.518433 C 124.458649 49.371948 123.92691 48.512665 122.984619 48.47229 C 122.966675 48.470032 122.950958 48.470032 122.935272 48.470032 Z"/>
    <path id="Path-copy-12" fill="#8e7f67" fill-rule="evenodd" stroke="none" d="M 42.736633 129.467407 C 42.478607 129.467407 42.231812 129.552643 42.011963 129.770264 C 41.43985 130.302002 41.520599 130.916748 41.931183 131.408081 C 42.669312 132.350372 43.364838 133.333069 44.594299 133.620239 C 45.413208 133.005493 45.740753 132.105835 46.025696 131.163544 C 45.206787 130.67218 44.387909 130.138214 43.569 129.689514 C 43.295288 129.561615 43.010345 129.467407 42.736633 129.467407 Z"/>
    <path id="Path-copy-11" fill="#8e7f67" fill-rule="evenodd" stroke="none" d="M 89.575623 139.11026 C 89.461212 139.11026 89.335571 139.134949 89.194214 139.19101 C 88.579498 139.435577 88.458344 139.92691 88.539093 140.460876 C 88.622101 141.360565 88.743256 142.262482 88.826263 143.121765 C 89.972748 142.957977 91.078827 142.794189 91.980743 141.975281 C 91.57016 141.115997 91.242615 140.214081 90.464081 139.599365 C 90.212799 139.379486 89.95929 139.11026 89.575623 139.11026 Z"/>
    <path id="Path-copy-10" fill="#8e7f67" fill-rule="evenodd" stroke="none" d="M 37.060394 131.87027 C 36.717133 131.87027 36.403046 132.031799 36.115845 132.390778 C 35.705292 132.841736 35.460724 133.456451 35.254333 134.071198 C 35.7883 135.177277 36.770966 135.585602 37.91745 135.792023 C 38.121613 135.053894 38.244995 134.358368 38.449158 133.660614 C 38.736359 132.965118 38.532166 132.43338 37.834442 132.105835 C 37.562958 131.951019 37.304932 131.87027 37.060394 131.87027 Z"/>
    <path id="Path-copy-9" fill="#8e7f67" fill-rule="evenodd" stroke="none" d="M 92.781677 136.067963 C 92.55957 136.067963 92.335205 136.144257 92.101898 136.32373 C 91.57016 136.815094 91.653168 137.346802 92.021118 137.880768 C 92.593231 138.657043 93.127197 139.47821 93.69931 140.214081 C 94.518219 139.395203 94.969177 138.452881 94.928772 137.306427 C 94.518219 137.019257 94.069489 136.691681 93.658936 136.40451 C 93.358276 136.19809 93.071106 136.067963 92.781677 136.067963 Z"/>
    <path id="Path-copy-8" fill="#8e7f67" fill-rule="evenodd" stroke="none" d="M 84.51413 138.737823 C 83.776001 138.737823 83.616699 139.21347 83.419281 139.763123 C 83.215118 140.337494 83.091705 140.909607 83.091705 141.443573 C 83.789459 142.385864 84.852905 142.590027 85.835602 142.877197 C 85.714447 141.934906 85.671814 140.909607 85.508026 139.886536 C 85.427277 139.354797 85.303864 138.780457 84.608368 138.740051 C 84.574707 138.737823 84.545532 138.737823 84.51413 138.737823 Z"/>
    <path id="Path-copy-7" fill="#8e7f67" fill-rule="evenodd" stroke="none" d="M 40.273193 132.893311 C 40.201385 132.893311 40.125122 132.902283 40.0466 132.924744 C 39.555237 133.005493 39.227692 133.333069 39.227692 133.824402 C 39.187286 134.562531 39.227692 135.298431 39.227692 136.03656 C 39.449799 136.03656 39.669678 136.041046 39.88504 136.041046 C 40.589539 136.041046 41.264832 135.993927 41.890808 135.585602 C 41.603638 134.849731 41.276062 134.151978 41.029266 133.456451 C 40.860992 133.117676 40.609711 132.893311 40.273193 132.893311 Z"/>
    <path id="Path-copy-6" fill="#8e7f67" fill-rule="evenodd" stroke="none" d="M 109.15976 136.384308 C 109.074493 136.384308 108.987 136.391052 108.89502 136.40451 C 108.15686 136.487518 107.625153 136.938477 107.625153 137.757385 L 107.625153 140.909607 C 108.125458 141.127228 108.619049 141.221466 109.099182 141.221466 C 109.801422 141.221466 110.474487 141.02179 111.107178 140.705444 C 111.064545 139.55896 110.573212 138.576294 110.369019 137.51059 C 110.261353 136.788147 109.801422 136.384308 109.15976 136.384308 Z"/>
    <path id="Path-copy-5" fill="#8e7f67" fill-rule="evenodd" stroke="none" d="M 55.374664 133.191711 C 55.058319 133.191711 54.737488 133.299408 54.42337 133.539459 C 53.932037 133.867035 53.561859 134.398773 53.153534 134.849731 C 53.685242 135.996185 54.382996 136.895844 55.610229 137.223419 C 55.97818 136.651306 56.348358 136.03656 56.675934 135.464447 C 57.167267 134.807098 57.084259 134.151978 56.471771 133.620239 C 56.132996 133.351013 55.758301 133.191711 55.374664 133.191711 Z"/>
    <path id="Path-copy-4" fill="#8e7f67" fill-rule="evenodd" stroke="none" d="M 59.132629 135.298431 C 58.517883 135.298431 58.109558 135.66861 58.02655 136.240723 C 57.862762 136.938477 57.782013 137.674377 57.6586 138.372131 C 58.163422 138.666016 58.688416 138.76474 59.226868 138.76474 C 59.733917 138.76474 60.252167 138.674988 60.770447 138.576294 C 60.689667 137.757385 60.566284 137.019257 60.442871 136.200348 C 60.279083 135.504852 59.828156 135.298431 59.132629 135.298431 Z"/>
    <path id="Path-copy-3" fill="#8e7f67" fill-rule="evenodd" stroke="none" d="M 63.657928 133.279205 C 63.359528 133.279205 63.070099 133.386902 62.818817 133.660614 C 62.410492 134.19458 62.614655 134.685944 62.94223 135.217651 C 63.350555 135.832397 63.678101 136.447144 64.088684 137.059631 C 65.235138 136.527893 65.686096 135.421814 66.137054 134.398773 C 65.562714 134.071198 64.990601 133.743622 64.375854 133.456451 C 64.140289 133.346527 63.895721 133.279205 63.657928 133.279205 Z"/>
    <path id="Path-copy-2" fill="#8e7f67" fill-rule="evenodd" stroke="none" d="M 104.356262 135.769592 C 103.510437 135.769592 103.028076 136.660278 102.545715 137.346802 L 102.545715 137.470215 C 102.915894 138.576294 103.734802 139.27179 104.717468 139.722748 C 104.881256 139.19101 105.128052 138.740051 105.168427 138.248718 C 105.29184 137.42981 105.987335 136.32373 104.881256 135.872772 C 104.690552 135.800995 104.517792 135.769592 104.356262 135.769592 Z"/>
    <path id="Path-copy" fill="#2f3c32" fill-rule="evenodd" stroke="none" d="M 93.777832 44.124237 C 93.737457 44.124237 93.69931 44.126495 93.658936 44.130981 C 92.840027 44.130981 91.980743 45.317841 91.980743 46.504669 C 91.980743 47.610748 92.593231 48.55307 93.414368 48.595673 C 93.427826 48.595673 93.441315 48.595673 93.457001 48.595673 C 94.302826 48.595673 95.175568 47.426788 95.175568 46.177124 C 95.251862 44.963348 94.619171 44.124237 93.777832 44.124237 Z"/>
</svg>
