<?xml version="1.0" encoding="UTF-8"?>
<!-- Generated by Pixelmator Pro 3.4.1 -->
<svg width="138" height="152" viewBox="0 0 138 152" xmlns="http://www.w3.org/2000/svg">
    <path id="Path-copy-16" fill="#b5c7eb" fill-rule="evenodd" stroke="none" d="M 0.527557 134.455383 L 0.527557 134.455383 C 0.527557 124.766479 31.077942 116.912079 68.763794 116.912079 L 68.763794 116.912079 C 106.449585 116.912079 137 124.766479 137 134.455383 L 137 134.455383 C 137 144.144287 106.449585 151.998688 68.763794 151.998688 L 68.763794 151.998688 C 31.077942 151.998688 0.527557 144.144287 0.527557 134.455383 Z"/>
    <path id="Path-copy-15" fill="#f3e2c6" fill-rule="evenodd" stroke="none" d="M 70.841431 24.412872 C 71.877991 24.412872 72.378296 25.034363 72.418701 26.463501 C 72.418701 27.65036 71.844299 28.305481 70.861633 28.388489 C 69.919312 28.388489 69.264221 27.609955 69.223816 26.586914 C 69.223816 25.357422 69.838562 24.498138 70.73822 24.415131 C 70.77417 24.415131 70.8078 24.412872 70.841431 24.412872 Z M 50.523682 24.065125 C 50.622375 24.065125 50.725586 24.071869 50.833313 24.087555 C 51.694824 24.210968 52.430725 25.234039 52.430725 26.259338 C 52.349976 27.158997 52.062744 27.85675 51.324646 28.428864 C 51.030701 28.69809 50.694214 28.850647 50.328491 28.850647 C 50.083923 28.850647 49.828186 28.783356 49.565674 28.635284 C 48.86792 28.305481 48.663757 27.773743 48.78717 27.078247 C 48.86792 26.423126 48.991333 25.768005 49.15509 25.153259 C 49.370483 24.437561 49.8349 24.065125 50.523682 24.065125 Z M 62.800476 33.409607 C 63.655273 33.409607 64.514587 33.510559 65.37384 33.631714 C 66.439575 33.795502 67.052063 34.778168 67.21582 36.005402 C 67.175476 36.211823 67.052063 36.496735 66.888306 36.783936 C 66.479919 37.562439 66.028992 38.300568 65.537659 38.955688 C 64.687317 40.043823 63.895386 40.58902 63.058533 40.58902 C 62.320374 40.58902 61.546326 40.167236 60.664612 39.323639 C 60.090271 38.751526 59.51593 38.13681 59.0672 37.481659 C 58.084534 36.169189 58.616211 34.40799 60.130676 33.835876 C 61.01239 33.521759 61.903076 33.409607 62.800476 33.409607 Z M 71.803955 54.312927 C 72.418701 54.312927 72.827026 54.640503 72.990784 55.214844 C 73.197205 55.82959 72.827026 56.157135 72.335693 56.484711 C 70.821228 57.343994 69.223816 57.794952 67.585999 57.999115 C 66.657166 58.1315 65.757507 58.371552 65.012634 58.371552 C 64.837646 58.371552 64.669373 58.358093 64.514587 58.326691 C 61.483521 58.205536 58.860779 57.794952 56.323303 56.935669 C 56.076538 56.895294 55.91272 56.771881 55.748962 56.688873 C 55.461792 56.525085 55.134216 56.444336 55.297974 56.074127 C 55.363037 55.813873 55.533569 55.786957 55.746704 55.786957 C 55.800537 55.786957 55.854431 55.789215 55.91272 55.789215 C 56.056335 55.780212 56.197693 55.775726 56.341248 55.775726 C 57.617859 55.775726 58.840576 56.074127 60.130676 56.074127 C 60.204712 56.076385 60.276489 56.076385 60.348267 56.076385 C 63.709167 56.076385 66.917419 55.158752 70.125732 54.476715 C 70.697876 54.312927 71.229614 54.395935 71.803955 54.312927 Z M 44.257385 81.204346 C 44.291016 81.204346 44.324707 81.208832 44.362854 81.22229 C 44.609619 81.262695 44.69043 81.469086 44.69043 81.673248 C 44.69043 82.451782 44.730774 83.147278 44.937195 83.885437 C 45.089783 84.497925 45.40387 84.812012 45.892944 84.812012 C 46.05896 84.812012 46.245178 84.776123 46.451599 84.704315 C 46.73877 84.580933 47.02594 84.497925 47.270508 84.417145 C 47.465698 84.367798 47.642944 84.343109 47.804504 84.343109 C 48.448364 84.343109 48.802856 84.742462 48.86792 85.563599 C 48.991333 86.669678 49.072083 87.775757 49.278503 88.839233 C 49.399658 89.536987 49.646423 90.315491 50.505737 90.479279 C 50.633606 90.501709 50.757019 90.515167 50.875916 90.515167 C 51.575928 90.515167 52.170471 90.118073 52.554138 89.453949 C 52.717896 89.209412 52.922058 89.002991 53.128479 88.798828 C 53.826233 88.040527 54.407288 87.661346 54.963684 87.661346 C 55.547058 87.661346 56.101196 88.08313 56.731628 88.922241 C 57.222961 89.617737 57.797363 90.068695 58.492859 90.436646 C 58.934814 90.645294 59.34314 90.746246 59.72229 90.746246 C 60.532227 90.746246 61.19635 90.279602 61.728088 89.413574 C 62.31366 88.381531 62.63446 88.01358 63.320984 88.01358 C 63.644104 88.01358 64.045654 88.09436 64.595337 88.226715 C 65.17865 88.368073 65.701416 88.43988 66.170349 88.43988 C 67.875427 88.43988 68.876099 87.479614 69.551392 85.359436 C 69.632141 85.11264 69.674805 84.785095 69.755554 84.540558 C 69.946289 83.856262 70.311951 83.385101 70.985046 83.385101 C 71.036621 83.385101 71.092712 83.38736 71.148804 83.394073 C 72.008118 83.515228 72.418701 84.129974 72.418701 84.948883 C 72.48822 87.957489 69.782471 90.411957 66.865845 90.411957 C 66.329651 90.411957 65.786682 90.328949 65.250488 90.151703 C 64.53479 89.918396 64.090576 89.772552 63.763 89.772552 C 63.224548 89.772552 62.993469 90.158447 62.383179 91.174774 C 61.701172 92.341431 60.736389 92.94046 59.697632 92.94046 C 58.800232 92.94046 57.848938 92.493988 56.978455 91.585358 C 56.072021 90.658752 55.600891 90.187622 55.131958 90.187622 C 54.6698 90.187622 54.207642 90.647552 53.332642 91.585358 C 52.419495 92.590485 51.483948 93.308411 50.337463 93.308411 C 49.991943 93.308411 49.626282 93.243347 49.235901 93.099762 C 47.557678 92.485016 47.310913 90.847229 46.942932 89.290192 C 46.902588 89.086029 46.902588 88.881866 46.902588 88.675446 C 46.837524 87.908142 46.649048 87.463928 46.020813 87.463928 C 45.845825 87.463928 45.637207 87.499817 45.385925 87.571594 C 45.139099 87.636658 44.905762 87.668091 44.69043 87.668091 C 43.555176 87.668091 42.895569 86.779633 42.929199 85.195679 C 43.092957 84.129974 43.460938 82.860107 43.954529 81.549866 C 43.988159 81.377106 44.080139 81.204346 44.257385 81.204346 Z M 83.869873 0.918213 C 83.201294 0.918213 82.490051 1.203156 81.756409 1.766296 C 81.265076 2.053467 80.897156 2.421417 80.526917 2.791595 C 78.644592 4.67395 76.677002 6.518158 74.915771 8.606934 C 74.646545 8.903076 74.41095 9.075836 74.105835 9.075836 C 73.948792 9.075836 73.773804 9.030975 73.565125 8.934509 C 71.557129 7.951813 69.510986 7.213684 67.298828 6.886108 C 65.492798 6.601196 63.697937 6.432922 61.916504 6.432922 C 59.098633 6.432922 56.314331 6.854706 53.577209 7.90918 C 53.292236 8.014618 53.056702 8.070709 52.848022 8.070709 C 52.489075 8.070709 52.210876 7.904694 51.898987 7.541229 C 50.014404 5.452484 47.844849 3.650879 45.305115 2.381042 C 44.113831 1.766296 42.873108 1.380402 41.706482 1.380402 C 40.306458 1.380402 39.016418 1.936798 38.056152 3.323334 C 40.472473 3.93808 42.765442 4.716583 44.730774 6.311768 C 45.551941 6.926514 46.207031 7.705017 46.655762 8.606934 C 47.640686 10.408508 47.270508 11.922943 45.428528 13.971313 C 43.380127 16.223846 41.414795 18.436005 39.366394 20.688568 C 39.243042 21.507446 39.243042 22.326355 39.038879 23.104889 C 38.026978 27.268951 36.496887 29.842316 31.919983 29.842316 C 31.679932 29.842316 31.430908 29.835602 31.17511 29.822113 C 31.044983 29.808655 30.914856 29.804169 30.786987 29.804169 C 30.107178 29.804169 29.447571 29.96347 28.758789 30.066681 C 28.307861 30.109314 27.93988 30.353851 27.899536 30.845184 C 27.776123 31.336548 28.144104 31.583344 28.554626 31.747101 C 29.333191 31.991669 30.069031 32.361847 30.970947 32.56601 C 32.689575 32.93396 34.450745 33.22113 36.335327 33.344543 C 36.17157 33.589081 36.09082 33.752869 35.967407 33.835876 C 34.042419 35.801239 31.502686 36.662781 28.922607 37.234894 C 28.184448 37.398651 27.693115 37.522064 27.57196 38.421722 C 27.488953 39.283264 27.93988 39.570435 28.595032 39.855377 C 29.889587 40.299591 31.215515 40.476837 32.608765 40.476837 C 32.756836 40.476837 32.907166 40.474609 33.059753 40.470093 C 33.174133 40.470093 33.326721 40.434204 33.468079 40.434204 C 33.62738 40.434204 33.773193 40.481323 33.838257 40.676514 C 33.919006 40.961456 33.631836 41.167847 33.427673 41.331635 C 32.198181 42.354706 30.970947 43.460785 29.537354 44.239319 C 27.776123 45.18161 27.735718 45.713318 29.046021 47.146973 C 30.683777 48.908173 32.404602 50.54599 34.493347 51.732819 C 35.269653 52.143402 35.312256 52.551727 34.861328 53.249481 C 33.468079 55.502014 32.117432 57.794952 31.092102 60.251648 C 29.945679 63.078552 28.635437 65.782074 26.506287 67.994232 C 25.646973 68.936523 25.319397 70.040344 26.095703 71.229462 C 26.382874 71.680389 26.382874 72.088745 26.178711 72.620453 C 25.440552 74.709229 24.704712 76.840607 24.089966 79.010132 C 23.84314 79.992828 23.598633 81.141541 24.334473 81.837036 C 25.276794 82.532562 25.032227 83.311066 24.908875 84.0896 C 24.704712 85.523224 24.334473 86.956879 24.089966 88.390503 C 23.394409 92.076691 22.900879 95.762878 22.779724 99.489441 C 22.656311 101.822754 22.696716 104.158325 22.779724 106.491638 C 22.860474 110.424622 23.721985 114.234192 25.032227 117.960754 C 25.768127 120.213287 26.99762 122.261688 28.144104 124.431213 C 28.962952 125.045959 29.209778 126.111633 30.069031 126.683746 C 29.945679 123.899475 30.479614 121.276764 31.994019 118.943451 C 32.272217 118.456573 32.550476 117.675812 33.104614 117.675812 C 33.203308 117.675812 33.311035 117.7005 33.427673 117.756592 C 34.123169 118.084167 33.6745 118.943451 33.468079 119.598572 C 32.895935 121.155609 32.64917 122.793396 32.732178 124.431213 C 32.786011 124.787933 32.842102 125.034729 33.044006 125.034729 C 33.14502 125.034729 33.279602 124.97641 33.468079 124.841797 C 33.631836 124.678009 33.755249 124.635376 33.959412 124.514221 C 34.141113 124.435699 34.316162 124.399811 34.484375 124.399811 C 34.847839 124.399811 35.168701 124.572571 35.393066 124.882172 C 35.80365 125.456512 35.476074 125.864838 35.105896 126.275421 C 33.059753 128.404572 33.223511 129.591431 35.599487 131.395264 C 35.927002 130.780518 36.211975 130.206146 36.53949 129.634064 C 36.676392 129.39624 36.869324 129.100067 37.140808 129.100067 C 37.196899 129.100067 37.255188 129.113556 37.318054 129.140472 C 37.728577 129.22348 37.728577 129.674438 37.645569 130.042389 C 37.645569 130.165771 37.605225 130.206146 37.605225 130.289185 C 36.999451 132.559662 37.827332 133.710602 40.026001 133.710602 C 40.207764 133.710602 40.396179 133.703888 40.595886 133.688171 C 41.208374 133.647797 41.4552 133.484009 41.251038 132.869263 C 41.127625 132.541718 41.087219 132.131134 41.127625 131.803589 C 41.127625 131.476013 41.291382 131.108063 41.659363 131.025055 C 41.742371 131.000397 41.818604 130.989166 41.8927 130.989166 C 42.184326 130.989166 42.413208 131.173126 42.642029 131.435638 C 42.725037 131.599426 42.84845 131.803589 42.929199 131.926971 C 43.485596 132.792999 43.788513 133.178894 44.210266 133.178894 C 44.564758 133.178894 45.006714 132.905182 45.756104 132.418304 C 47.02594 131.599426 47.434265 130.452942 47.434265 129.019318 C 47.434265 121.974518 48.049011 114.889313 49.606079 107.925262 C 49.89325 106.615021 50.014404 105.264404 50.137817 103.954163 C 50.220825 103.543579 50.220825 103.175629 50.54834 102.848083 C 51.367249 103.543579 51.243896 104.48587 51.284241 105.304779 C 51.735229 109.809875 51.775574 114.314941 51.448059 118.903046 C 51.160828 122.219055 50.712158 125.496918 49.933594 128.772522 C 49.072083 132.541718 46.779175 135.079193 43.052612 136.185272 C 49.031738 138.888763 55.380981 140.07785 61.934448 140.322418 C 60.173279 139.626923 58.412048 139.012177 56.895447 137.66153 C 54.191895 135.202576 53.085815 132.131134 53.372986 128.568359 C 53.700562 125.250122 53.906982 121.851105 54.602478 118.532867 C 54.725891 117.877747 54.930054 117.182251 55.053467 116.52713 C 55.174622 116.15918 55.257629 115.871979 55.668213 115.871979 C 56.159546 115.871979 56.280701 116.239929 56.280701 116.650513 C 56.280701 117.796967 56.608215 118.983826 56.567871 120.172913 C 56.444458 123.408142 56.608215 126.560364 56.404053 129.755188 C 56.240295 132.214142 57.182617 134.302917 59.51593 135.530151 C 59.785156 135.691681 60.016235 135.799377 60.206909 135.799377 C 60.451477 135.799377 60.630981 135.622131 60.745361 135.162201 C 60.785767 134.998413 60.868774 134.875031 60.949524 134.711243 C 61.252441 134.184021 61.44989 133.551331 62.1521 133.551331 C 62.212708 133.551331 62.275513 133.555817 62.342834 133.564789 C 63.202087 133.768951 63.121338 134.50708 63.161682 135.162201 C 63.231262 136.86731 64.068115 137.744568 65.499512 137.744568 C 65.753052 137.744568 66.024475 137.715393 66.316162 137.66153 C 66.930908 137.578522 67.011658 137.210571 66.807495 136.719238 C 66.603333 136.185272 66.316162 135.572784 66.930908 135.162201 C 67.135071 135.041046 67.316772 134.991699 67.485046 134.991699 C 67.893372 134.991699 68.220947 135.281128 68.568726 135.572784 C 69.060059 135.98111 69.183472 136.63623 69.795959 136.923401 C 69.804932 136.925659 69.811646 136.925659 69.820618 136.925659 C 70.085388 136.925659 71.263245 136.369232 72.214539 135.776947 C 70.944641 134.711243 69.468384 133.932739 68.158142 132.909668 C 62.793762 128.649109 59.43512 123.28476 58.329041 116.52713 C 57.714294 112.63678 58.04187 108.703796 59.762695 105.057983 C 60.705017 103.141968 61.950195 102.27597 63.769714 102.27597 C 64.166809 102.27597 64.590881 102.316345 65.046326 102.397125 C 65.35144 102.453217 65.634094 102.482361 65.894348 102.482361 C 66.785095 102.482361 67.442444 102.127899 68.077393 101.210266 C 69.145325 99.682404 70.439819 98.657074 72.115784 98.657074 C 72.690125 98.657074 73.307129 98.778229 73.975708 99.038483 C 74.081177 99.081116 74.16864 99.09906 74.240479 99.09906 C 74.659973 99.09906 74.525391 98.464142 74.630859 98.219574 C 75.530518 94.656799 76.964172 91.338562 79.093323 88.307495 C 80.977905 85.604004 83.477234 83.679016 86.508301 82.3284 C 86.824646 82.2005 87.163391 82.029999 87.484253 82.029999 C 87.787109 82.029999 88.072083 82.180298 88.309875 82.655945 C 88.718201 83.474854 88.103455 83.802399 87.531372 84.170349 C 83.06665 87.201416 80.446167 91.461945 79.380493 96.662537 C 79.012512 98.300354 78.601929 99.980804 78.153259 101.618591 C 78.070251 102.15033 78.070251 102.520508 78.521179 102.765045 C 78.662537 102.841339 78.781433 102.875 78.893616 102.875 C 79.135925 102.875 79.333374 102.715698 79.584656 102.520508 C 80.075989 102.067322 80.632385 101.842957 81.195496 101.842957 C 81.808044 101.842957 82.429504 102.109924 82.985901 102.641663 C 84.172729 103.790375 85.442627 104.690033 86.876221 105.428192 C 87.057983 105.526886 87.219482 105.591949 87.36084 105.591949 C 87.571716 105.591949 87.737793 105.450623 87.858948 105.057983 C 88.132629 104.205444 88.718201 103.779144 89.593201 103.779144 C 89.768188 103.779144 89.954407 103.797089 90.151855 103.83075 C 91.399292 104.030426 92.646729 104.1987 93.903076 104.1987 C 94.710754 104.1987 95.520691 104.12915 96.337402 103.954163 C 98.34314 103.462799 99.817139 102.520508 100.555298 100.552887 C 100.665222 100.153534 100.80658 99.626312 101.264221 99.626312 C 101.322571 99.626312 101.387634 99.635284 101.457214 99.653229 C 102.112305 99.776611 102.112305 100.512512 102.029297 101.086884 C 101.620972 104.034912 99.572571 106.123688 96.294739 106.819183 C 95.031616 107.050293 93.768494 107.315033 92.47168 107.315033 C 92.3797 107.315033 92.289978 107.315033 92.200256 107.312775 C 92.159851 107.308289 92.119446 107.308289 92.081299 107.308289 C 91.513672 107.308289 91.291565 107.595459 91.177185 108.172058 C 90.79126 109.657318 90.360474 110.258575 89.373352 110.258575 C 88.998657 110.258575 88.545471 110.17334 87.9823 110.014038 C 86.057312 109.522705 84.213135 108.744171 82.494568 107.64035 C 82.032349 107.350922 81.612854 107.164703 81.119263 107.164703 C 80.910583 107.164703 80.688477 107.198364 80.446167 107.270142 C 79.930176 107.415985 79.445557 107.483276 78.987854 107.483276 C 76.87439 107.483276 75.35553 106.054138 73.975708 104.402863 C 73.284668 103.583954 72.786621 103.16217 72.279602 103.16217 C 71.824158 103.16217 71.359741 103.500946 70.73822 104.1987 C 69.573853 105.479767 68.306213 106.098999 66.859131 106.098999 C 66.271301 106.098999 65.656555 105.998047 65.00592 105.796112 C 64.714233 105.699646 64.449524 105.652527 64.209473 105.652527 C 63.439941 105.652527 62.921631 106.130402 62.546997 106.942596 C 60.458191 111.407288 60.541199 115.912384 62.179016 120.41748 C 65.250488 128.732147 71.640137 133.113831 79.91217 135.325989 C 83.06665 136.185272 86.30188 136.719238 89.537109 137.046814 C 90.234863 137.167969 90.890015 137.455139 91.421692 138.02948 C 96.337402 136.719238 101.497559 136.144897 106.247192 134.179535 C 109.605835 132.869263 112.309326 130.69751 114.438477 127.830231 C 114.725647 127.545288 114.932068 127.17511 115.259644 126.970947 C 116.610291 124.431213 118.043884 121.891479 119.273376 119.311371 C 120.377197 116.89505 121.155762 114.478729 120.296448 111.775238 C 119.885864 110.588379 120.13269 109.358917 120.870789 108.252838 C 121.52594 107.189392 121.689697 106.083313 121.52594 104.853821 C 121.362122 103.299042 120.377197 102.029175 120.256042 100.552887 C 119.885864 97.277283 118.616028 94.246216 117.633362 91.134399 C 117.305786 90.151703 116.857056 89.332794 116.24231 88.554291 C 115.667969 87.89917 115.544556 87.365204 115.995544 86.50592 C 116.693298 85.155273 116.363464 83.515228 115.21698 82.368774 C 114.19397 81.305328 113.128235 80.239624 111.901001 79.337708 C 111.286255 78.886749 111.162903 78.601807 111.490417 77.863678 C 112.145569 76.266266 111.69458 74.792236 110.260986 73.849945 C 109.278259 73.154419 108.255188 72.539703 107.189514 72.04834 C 106.453613 71.680389 106.126038 71.269836 106.166443 70.450928 C 106.247192 68.976898 105.551697 67.951599 104.201111 67.339111 C 103.175781 66.888153 102.233459 66.233032 101.210388 65.741669 C 100.67865 65.494873 100.514893 65.126923 100.514893 64.552582 C 100.431885 62.012848 99.900146 61.440765 97.360413 60.743011 C 94.656921 59.966736 92.610779 58.326691 91.094177 55.910339 C 90.643188 55.214844 90.479431 54.723511 91.625854 54.476715 C 92.814941 54.272552 93.878418 53.821594 94.984497 53.413269 C 96.78833 52.798523 98.549561 52.060394 99.817139 50.586365 C 100.514893 49.767456 100.719055 48.908173 100.268127 47.882874 C 99.612976 46.285431 98.179321 45.589935 96.828735 44.690277 C 95.190918 43.664948 93.510498 42.641876 92.283264 41.004089 C 92.556946 40.974915 92.808228 40.961456 93.043823 40.961456 C 93.472351 40.961456 93.851501 41.006317 94.248596 41.084839 C 94.715271 41.147675 95.181946 41.174591 95.648621 41.174591 C 97.349243 41.174591 99.047607 40.806641 100.719055 40.389343 C 101.129639 40.306335 101.457214 39.97876 101.497559 39.527802 C 101.620972 39.079102 101.293396 38.751526 100.923218 38.545135 C 100.638306 38.340973 100.308472 38.21756 99.980957 38.053772 C 97.647644 37.071106 95.395081 36.252197 93.059509 35.473663 C 92.691589 35.392914 92.283264 35.309906 92.036438 34.858948 C 95.354675 34.40799 98.015564 32.812805 100.595642 30.968597 C 101.087036 30.641022 101.457214 30.149689 101.210388 29.534943 C 100.965881 29.012207 100.633789 28.639771 100.088623 28.639771 C 99.992126 28.639771 99.886719 28.65097 99.776794 28.675659 C 98.107544 29.036865 96.436096 29.115417 94.739929 29.115417 C 93.941223 29.115417 93.135803 29.097443 92.323608 29.083984 C 90.439026 29.04361 89.579712 28.388489 89.209534 26.463501 C 88.801208 24.04718 89.169189 21.671234 89.088379 19.254913 L 89.088379 19.254913 C 88.585815 19.382813 88.065308 19.441132 87.538086 19.441132 C 83.802551 19.441132 79.68335 16.423523 78.929504 12.620667 C 78.601929 10.899872 79.216675 9.425842 80.446167 8.319763 C 82.41156 6.518158 84.54071 4.961121 86.752869 3.487122 C 86.58905 3.240326 86.508301 2.872375 86.344543 2.627808 C 85.651245 1.479126 84.803162 0.918213 83.869873 0.918213 Z"/>
    <path id="Path-copy-14" fill="#fd9098" fill-rule="evenodd" stroke="none" d="M 86.876221 3.731659 C 84.664063 5.248322 82.494568 6.762726 80.56958 8.566559 C 79.340088 9.67038 78.725342 11.104034 79.012512 12.865234 C 79.69458 16.452698 83.798035 19.443359 87.531372 19.443359 C 88.060852 19.443359 88.583618 19.382813 89.088379 19.254913 C 89.537109 17.125763 89.373352 14.87323 89.209534 12.701447 C 89.045776 9.58963 88.554443 6.518158 86.876221 3.731659 Z"/>
    <path id="Path-copy-13" fill="none" stroke="#fd9098" stroke-linejoin="round" d="M 86.876221 3.731659 C 84.664063 5.248322 82.494568 6.762726 80.56958 8.566559 C 79.340088 9.67038 78.725342 11.104034 79.012512 12.865234 C 79.69458 16.452698 83.798035 19.443359 87.531372 19.443359 C 88.060852 19.443359 88.583618 19.382813 89.088379 19.254913 C 89.537109 17.125763 89.373352 14.87323 89.209534 12.701447 C 89.045776 9.58963 88.554443 6.518158 86.876221 3.731659 Z"/>
    <path id="Path-copy-12" fill="#fd9098" fill-rule="evenodd" stroke="none" d="M 38.219971 3.527496 C 37.809387 3.93808 37.688232 4.510162 37.524414 5.044159 C 37.073486 6.926514 37.318054 8.770721 37.605225 10.612671 C 38.179565 14.054321 39.61322 17.329926 39.530212 20.892731 C 41.578552 18.640167 43.543945 16.430267 45.592346 14.175476 C 47.393921 12.210114 47.804504 10.612671 46.819519 8.811096 C 46.37085 7.951813 45.715698 7.173279 44.894592 6.518158 C 42.929199 4.880371 40.636292 4.101837 38.219971 3.527496 Z"/>
    <path id="Path-copy-11" fill="none" stroke="#fd9098" stroke-linejoin="round" d="M 38.219971 3.527496 C 37.809387 3.93808 37.688232 4.510162 37.524414 5.044159 C 37.073486 6.926514 37.318054 8.770721 37.605225 10.612671 C 38.179565 14.054321 39.61322 17.329926 39.530212 20.892731 C 41.578552 18.640167 43.543945 16.430267 45.592346 14.175476 C 47.393921 12.210114 47.804504 10.612671 46.819519 8.811096 C 46.37085 7.951813 45.715698 7.173279 44.894592 6.518158 C 42.929199 4.880371 40.636292 4.101837 38.219971 3.527496 Z"/>
    <path id="Path-copy-10" fill="#d4b98f" fill-rule="evenodd" stroke="none" d="M 87.582947 82.236389 C 87.255432 82.236389 86.905396 82.406921 86.58905 82.532562 C 83.598389 83.885437 81.060913 85.810394 79.176331 88.511658 C 77.087524 91.542725 75.653931 94.860962 74.711609 98.423767 C 74.642029 98.668304 74.781128 99.303223 74.336914 99.303223 C 74.262878 99.303223 74.16864 99.285278 74.056458 99.242645 C 73.405823 98.989136 72.802307 98.874725 72.239197 98.874725 C 70.53186 98.874725 69.205872 99.935913 68.158142 101.414429 C 67.516479 102.311859 66.850159 102.682037 65.959412 102.682037 C 65.714905 102.682037 65.452393 102.655121 65.169678 102.601288 C 64.667114 102.498077 64.204956 102.446472 63.778687 102.446472 C 61.999512 102.446472 60.810425 103.348389 59.886108 105.264404 C 58.124878 108.907959 57.837708 112.800537 58.452454 116.731293 C 59.475525 123.488922 62.917175 128.895905 68.281555 133.113831 C 69.551392 134.096497 71.025391 134.915405 72.335693 135.98111 C 71.451721 136.557709 70.27832 137.134308 69.968689 137.134308 C 69.948486 137.134308 69.9328 137.13205 69.919312 137.127563 C 69.304626 136.840393 69.140808 136.185272 68.692078 135.776947 C 68.315186 135.487518 67.958435 135.19809 67.565857 135.19809 C 67.402039 135.19809 67.233765 135.247467 67.052063 135.366364 C 66.439575 135.776947 66.684143 136.34906 66.888306 136.923401 C 67.094666 137.414734 67.052063 137.782684 66.439575 137.865692 C 66.141174 137.921783 65.865234 137.94873 65.609436 137.94873 C 64.162354 137.94873 63.3479 137.071472 63.244751 135.366364 C 63.202087 134.711243 63.3255 133.932739 62.425842 133.768951 C 62.360779 133.759979 62.300171 133.755493 62.241821 133.755493 C 61.566528 133.755493 61.337708 134.388184 61.072937 134.915405 C 60.992188 135.079193 60.90918 135.202576 60.868774 135.366364 C 60.756592 135.815094 60.581604 135.969879 60.348267 135.969879 C 60.153076 135.969879 59.91748 135.864441 59.639282 135.736572 C 57.263367 134.50708 56.363708 132.335297 56.487061 129.961609 C 56.691284 126.724152 56.567871 123.531525 56.650879 120.377075 C 56.691284 119.187988 56.404053 118.001129 56.404053 116.854675 C 56.404053 116.444092 56.240295 116.076172 55.789368 116.076172 C 55.380981 116.076172 55.257629 116.363342 55.174622 116.731293 L 54.725891 118.739288 C 53.947388 122.014893 53.783569 125.373505 53.496399 128.772522 C 53.168823 132.335297 54.315308 135.406769 57.018799 137.865692 C 58.452454 139.216339 60.254028 139.831085 62.015259 140.526581 C 63.691162 141.024658 65.355896 141.280426 67.011658 141.280426 C 68.631531 141.280426 70.244629 141.03363 71.844299 140.526581 C 73.197205 139.831085 74.588196 139.175964 75.570923 137.989105 C 75.73468 137.769226 75.91864 137.66153 76.143005 137.66153 C 76.255188 137.66153 76.376343 137.688477 76.513184 137.74231 C 78.274414 138.39743 79.954834 138.971771 81.716003 139.586517 C 84.132324 139.994843 86.629456 140.445801 89.088379 140.526581 C 89.263428 140.537811 89.424927 140.544525 89.577515 140.544525 C 91.13678 140.544525 91.538391 139.943237 91.462097 138.152893 C 90.995422 137.607697 90.418823 137.248718 89.730042 137.248718 C 89.694153 137.248718 89.658264 137.248718 89.620117 137.250977 C 86.344543 136.923401 83.190063 136.391693 79.995239 135.530151 C 71.76355 133.317993 65.37384 128.93631 62.302429 120.621643 C 60.664612 116.116547 60.581604 111.61145 62.630005 107.146759 C 63.036072 106.336823 63.536377 105.856689 64.296936 105.856689 C 64.532532 105.856689 64.795044 105.903809 65.08667 106.000275 C 65.748535 106.202209 66.369995 106.303162 66.960083 106.303162 C 68.407166 106.303162 69.65686 105.686188 70.821228 104.402863 C 71.465149 103.720825 71.940796 103.38205 72.400757 103.38205 C 72.905518 103.38205 73.390137 103.792603 74.056458 104.609283 C 75.472168 106.258301 76.995544 107.687439 79.111267 107.687439 C 79.566711 107.687439 80.051331 107.620148 80.56958 107.476563 C 80.841064 107.393555 81.092346 107.353149 81.327881 107.353149 C 81.796814 107.353149 82.207397 107.516937 82.615723 107.844513 C 84.296143 108.990967 86.138123 109.729095 88.103455 110.220428 C 88.67334 110.364044 89.131042 110.444794 89.503479 110.444794 C 90.499634 110.444794 90.901184 109.865967 91.257935 108.376221 C 91.421692 107.761475 91.625854 107.516937 92.283264 107.516937 C 92.372986 107.519196 92.462708 107.521423 92.55249 107.521423 C 93.855957 107.521423 95.152771 107.254456 96.377747 107.025604 C 99.653381 106.32785 101.701721 104.239075 102.112305 101.291046 C 102.233459 100.716675 102.276123 99.980804 101.578369 99.857391 C 101.508789 99.839447 101.445984 99.830475 101.387634 99.830475 C 100.927734 99.830475 100.78186 100.359955 100.638306 100.759308 C 99.940552 102.765045 98.385742 103.666962 96.460754 104.158325 C 95.63739 104.34903 94.825195 104.420807 94.022034 104.420807 C 92.747681 104.420807 91.491272 104.236847 90.234863 104.034912 C 90.032959 103.999023 89.844482 103.981079 89.664978 103.981079 C 88.828125 103.981079 88.244812 104.384918 87.939697 105.264404 C 87.820801 105.650299 87.670471 105.780426 87.468567 105.780426 C 87.327209 105.780426 87.158936 105.71759 86.957031 105.632355 C 85.523376 104.894196 84.255737 103.994537 83.06665 102.848083 C 82.532715 102.314117 81.922424 102.047119 81.314453 102.047119 C 80.755798 102.047119 80.199402 102.273712 79.708008 102.72467 C 79.454529 102.922119 79.221191 103.079163 78.978882 103.079163 C 78.871155 103.079163 78.759033 103.04776 78.644592 102.969238 C 78.110596 102.72467 78.110596 102.35672 78.274414 101.822754 C 78.725342 100.184967 79.135925 98.54715 79.503845 96.86673 C 80.56958 91.666107 83.190063 87.407837 87.612122 84.37677 C 88.146118 84.006561 88.760864 83.679016 88.390625 82.860107 C 88.173035 82.38446 87.888062 82.236389 87.582947 82.236389 Z"/>
    <path id="Path-copy-9" fill="none" stroke="#d4b98f" stroke-linejoin="round" d="M 87.582947 82.236389 C 87.255432 82.236389 86.905396 82.406921 86.58905 82.532562 C 83.598389 83.885437 81.060913 85.810394 79.176331 88.511658 C 77.087524 91.542725 75.653931 94.860962 74.711609 98.423767 C 74.642029 98.668304 74.781128 99.303223 74.336914 99.303223 C 74.262878 99.303223 74.16864 99.285278 74.056458 99.242645 C 73.405823 98.989136 72.802307 98.874725 72.239197 98.874725 C 70.53186 98.874725 69.205872 99.935913 68.158142 101.414429 C 67.516479 102.311859 66.850159 102.682037 65.959412 102.682037 C 65.714905 102.682037 65.452393 102.655121 65.169678 102.601288 C 64.667114 102.498077 64.204956 102.446472 63.778687 102.446472 C 61.999512 102.446472 60.810425 103.348389 59.886108 105.264404 C 58.124878 108.907959 57.837708 112.800537 58.452454 116.731293 C 59.475525 123.488922 62.917175 128.895905 68.281555 133.113831 C 69.551392 134.096497 71.025391 134.915405 72.335693 135.98111 C 71.451721 136.557709 70.27832 137.134308 69.968689 137.134308 C 69.948486 137.134308 69.9328 137.13205 69.919312 137.127563 C 69.304626 136.840393 69.140808 136.185272 68.692078 135.776947 C 68.315186 135.487518 67.958435 135.19809 67.565857 135.19809 C 67.402039 135.19809 67.233765 135.247467 67.052063 135.366364 C 66.439575 135.776947 66.684143 136.34906 66.888306 136.923401 C 67.094666 137.414734 67.052063 137.782684 66.439575 137.865692 C 66.141174 137.921783 65.865234 137.94873 65.609436 137.94873 C 64.162354 137.94873 63.3479 137.071472 63.244751 135.366364 C 63.202087 134.711243 63.3255 133.932739 62.425842 133.768951 C 62.360779 133.759979 62.300171 133.755493 62.241821 133.755493 C 61.566528 133.755493 61.337708 134.388184 61.072937 134.915405 C 60.992188 135.079193 60.90918 135.202576 60.868774 135.366364 C 60.756592 135.815094 60.581604 135.969879 60.348267 135.969879 C 60.153076 135.969879 59.91748 135.864441 59.639282 135.736572 C 57.263367 134.50708 56.363708 132.335297 56.487061 129.961609 C 56.691284 126.724152 56.567871 123.531525 56.650879 120.377075 C 56.691284 119.187988 56.404053 118.001129 56.404053 116.854675 C 56.404053 116.444092 56.240295 116.076172 55.789368 116.076172 C 55.380981 116.076172 55.257629 116.363342 55.174622 116.731293 L 54.725891 118.739288 C 53.947388 122.014893 53.783569 125.373505 53.496399 128.772522 C 53.168823 132.335297 54.315308 135.406769 57.018799 137.865692 C 58.452454 139.216339 60.254028 139.831085 62.015259 140.526581 C 63.691162 141.024658 65.355896 141.280426 67.011658 141.280426 C 68.631531 141.280426 70.244629 141.03363 71.844299 140.526581 C 73.197205 139.831085 74.588196 139.175964 75.570923 137.989105 C 75.73468 137.769226 75.91864 137.66153 76.143005 137.66153 C 76.255188 137.66153 76.376343 137.688477 76.513184 137.74231 C 78.274414 138.39743 79.954834 138.971771 81.716003 139.586517 C 84.132324 139.994843 86.629456 140.445801 89.088379 140.526581 C 89.263428 140.537811 89.424927 140.544525 89.577515 140.544525 C 91.13678 140.544525 91.538391 139.943237 91.462097 138.152893 C 90.995422 137.607697 90.418823 137.248718 89.730042 137.248718 C 89.694153 137.248718 89.658264 137.248718 89.620117 137.250977 C 86.344543 136.923401 83.190063 136.391693 79.995239 135.530151 C 71.76355 133.317993 65.37384 128.93631 62.302429 120.621643 C 60.664612 116.116547 60.581604 111.61145 62.630005 107.146759 C 63.036072 106.336823 63.536377 105.856689 64.296936 105.856689 C 64.532532 105.856689 64.795044 105.903809 65.08667 106.000275 C 65.748535 106.202209 66.369995 106.303162 66.960083 106.303162 C 68.407166 106.303162 69.65686 105.686188 70.821228 104.402863 C 71.465149 103.720825 71.940796 103.38205 72.400757 103.38205 C 72.905518 103.38205 73.390137 103.792603 74.056458 104.609283 C 75.472168 106.258301 76.995544 107.687439 79.111267 107.687439 C 79.566711 107.687439 80.051331 107.620148 80.56958 107.476563 C 80.841064 107.393555 81.092346 107.353149 81.327881 107.353149 C 81.796814 107.353149 82.207397 107.516937 82.615723 107.844513 C 84.296143 108.990967 86.138123 109.729095 88.103455 110.220428 C 88.67334 110.364044 89.131042 110.444794 89.503479 110.444794 C 90.499634 110.444794 90.901184 109.865967 91.257935 108.376221 C 91.421692 107.761475 91.625854 107.516937 92.283264 107.516937 C 92.372986 107.519196 92.462708 107.521423 92.55249 107.521423 C 93.855957 107.521423 95.152771 107.254456 96.377747 107.025604 C 99.653381 106.32785 101.701721 104.239075 102.112305 101.291046 C 102.233459 100.716675 102.276123 99.980804 101.578369 99.857391 C 101.508789 99.839447 101.445984 99.830475 101.387634 99.830475 C 100.927734 99.830475 100.78186 100.359955 100.638306 100.759308 C 99.940552 102.765045 98.385742 103.666962 96.460754 104.158325 C 95.63739 104.34903 94.825195 104.420807 94.022034 104.420807 C 92.747681 104.420807 91.491272 104.236847 90.234863 104.034912 C 90.032959 103.999023 89.844482 103.981079 89.664978 103.981079 C 88.828125 103.981079 88.244812 104.384918 87.939697 105.264404 C 87.820801 105.650299 87.670471 105.780426 87.468567 105.780426 C 87.327209 105.780426 87.158936 105.71759 86.957031 105.632355 C 85.523376 104.894196 84.255737 103.994537 83.06665 102.848083 C 82.532715 102.314117 81.922424 102.047119 81.314453 102.047119 C 80.755798 102.047119 80.199402 102.273712 79.708008 102.72467 C 79.454529 102.922119 79.221191 103.079163 78.978882 103.079163 C 78.871155 103.079163 78.759033 103.04776 78.644592 102.969238 C 78.110596 102.72467 78.110596 102.35672 78.274414 101.822754 C 78.725342 100.184967 79.135925 98.54715 79.503845 96.86673 C 80.56958 91.666107 83.190063 87.407837 87.612122 84.37677 C 88.146118 84.006561 88.760864 83.679016 88.390625 82.860107 C 88.173035 82.38446 87.888062 82.236389 87.582947 82.236389 Z"/>
    <path id="Path-copy-8" fill="#d4b98f" fill-rule="evenodd" stroke="none" d="M 50.588745 103.052246 C 50.261169 103.420197 50.220825 103.790375 50.178162 104.11792 C 50.014404 105.468567 49.89325 106.778809 49.606079 108.131683 C 48.049011 115.053101 47.434265 122.0979 47.434265 129.22348 C 47.434265 130.61673 47.10675 131.722809 45.756104 132.582092 C 44.98877 133.062225 44.544556 133.342682 44.18335 133.342682 C 43.775024 133.342682 43.474365 132.981445 42.929199 132.131134 C 42.84845 131.967346 42.725037 131.763184 42.642029 131.639801 C 42.451294 131.352631 42.211243 131.191101 41.919617 131.191101 C 41.836609 131.191101 41.751343 131.202301 41.659363 131.229218 C 41.291382 131.312225 41.208374 131.680176 41.167969 131.967346 C 41.167969 132.335297 41.167969 132.705505 41.251038 133.073456 C 41.414795 133.688171 41.167969 133.851959 40.595886 133.892334 C 40.396179 133.908051 40.207764 133.914795 40.026001 133.914795 C 37.827332 133.914795 36.999451 132.763824 37.605225 130.493347 C 37.605225 130.410339 37.688232 130.369934 37.688232 130.246552 C 37.728577 129.878601 37.728577 129.470276 37.318054 129.346863 C 37.261963 129.328918 37.210327 129.322205 37.161011 129.322205 C 36.853638 129.322205 36.680847 129.625061 36.53949 129.838226 C 36.254578 130.410339 35.927002 131.025055 35.639832 131.599426 C 33.180908 129.797821 33.059753 128.568359 35.105896 126.479584 C 35.516418 126.111633 35.843994 125.660675 35.435669 125.086334 C 35.188904 124.758759 34.8703 124.612946 34.527039 124.612946 C 34.356506 124.612946 34.17926 124.648834 34.002014 124.718384 C 33.838257 124.799164 33.631836 124.922546 33.468079 125.005554 C 33.27063 125.16037 33.131531 125.227692 33.032837 125.227692 C 32.84436 125.227692 32.7995 124.985382 32.772583 124.635376 C 32.689575 122.997559 32.895935 121.359772 33.468079 119.802734 C 33.6745 119.187988 34.123169 118.328705 33.427673 117.960754 C 33.315491 117.904663 33.214539 117.879974 33.1203 117.879974 C 32.59082 117.879974 32.308167 118.660736 31.994019 119.147614 C 30.52002 121.483154 29.945679 124.103638 30.109436 126.847534 C 30.192444 127.215485 30.315857 127.585663 30.356262 127.953613 C 31.316467 133.107086 35.760986 136.687836 40.800049 136.687836 C 41.567322 136.687836 42.350342 136.604828 43.133362 136.432068 C 46.902588 135.285614 49.195496 132.74588 49.973999 128.976685 C 50.712158 125.741455 51.203491 122.425446 51.448059 119.066833 C 51.735229 114.561737 51.694824 110.014038 51.284241 105.508942 C 51.203491 104.730438 51.324646 103.707367 50.588745 103.052246 Z"/>
    <path id="Path-copy-7" fill="none" stroke="#d4b98f" stroke-linejoin="round" d="M 50.588745 103.052246 C 50.261169 103.420197 50.220825 103.790375 50.178162 104.11792 C 50.014404 105.468567 49.89325 106.778809 49.606079 108.131683 C 48.049011 115.053101 47.434265 122.0979 47.434265 129.22348 C 47.434265 130.61673 47.10675 131.722809 45.756104 132.582092 C 44.98877 133.062225 44.544556 133.342682 44.18335 133.342682 C 43.775024 133.342682 43.474365 132.981445 42.929199 132.131134 C 42.84845 131.967346 42.725037 131.763184 42.642029 131.639801 C 42.451294 131.352631 42.211243 131.191101 41.919617 131.191101 C 41.836609 131.191101 41.751343 131.202301 41.659363 131.229218 C 41.291382 131.312225 41.208374 131.680176 41.167969 131.967346 C 41.167969 132.335297 41.167969 132.705505 41.251038 133.073456 C 41.414795 133.688171 41.167969 133.851959 40.595886 133.892334 C 40.396179 133.908051 40.207764 133.914795 40.026001 133.914795 C 37.827332 133.914795 36.999451 132.763824 37.605225 130.493347 C 37.605225 130.410339 37.688232 130.369934 37.688232 130.246552 C 37.728577 129.878601 37.728577 129.470276 37.318054 129.346863 C 37.261963 129.328918 37.210327 129.322205 37.161011 129.322205 C 36.853638 129.322205 36.680847 129.625061 36.53949 129.838226 C 36.254578 130.410339 35.927002 131.025055 35.639832 131.599426 C 33.180908 129.797821 33.059753 128.568359 35.105896 126.479584 C 35.516418 126.111633 35.843994 125.660675 35.435669 125.086334 C 35.188904 124.758759 34.8703 124.612946 34.527039 124.612946 C 34.356506 124.612946 34.17926 124.648834 34.002014 124.718384 C 33.838257 124.799164 33.631836 124.922546 33.468079 125.005554 C 33.27063 125.16037 33.131531 125.227692 33.032837 125.227692 C 32.84436 125.227692 32.7995 124.985382 32.772583 124.635376 C 32.689575 122.997559 32.895935 121.359772 33.468079 119.802734 C 33.6745 119.187988 34.123169 118.328705 33.427673 117.960754 C 33.315491 117.904663 33.214539 117.879974 33.1203 117.879974 C 32.59082 117.879974 32.308167 118.660736 31.994019 119.147614 C 30.52002 121.483154 29.945679 124.103638 30.109436 126.847534 C 30.192444 127.215485 30.315857 127.585663 30.356262 127.953613 C 31.316467 133.107086 35.760986 136.687836 40.800049 136.687836 C 41.567322 136.687836 42.350342 136.604828 43.133362 136.432068 C 46.902588 135.285614 49.195496 132.74588 49.973999 128.976685 C 50.712158 125.741455 51.203491 122.425446 51.448059 119.066833 C 51.735229 114.561737 51.694824 110.014038 51.284241 105.508942 C 51.203491 104.730438 51.324646 103.707367 50.588745 103.052246 Z"/>
    <path id="Path-copy-6" fill="#d4b98f" fill-rule="evenodd" stroke="none" d="M 44.230469 81.204346 C 44.068909 81.204346 43.947754 81.377106 43.911865 81.549866 C 43.460938 82.860107 43.092957 84.129974 42.929199 85.195679 C 42.895569 86.808807 43.526001 87.650146 44.589417 87.650146 C 44.822754 87.650146 45.074036 87.609741 45.34552 87.528992 C 45.574341 87.4729 45.77179 87.443726 45.940063 87.443726 C 46.610901 87.443726 46.819519 87.890198 46.819519 88.675446 C 46.902588 88.881866 46.819519 89.086029 46.902588 89.290192 C 47.189758 90.806824 47.517273 92.444641 49.195496 93.059387 C 49.57019 93.187256 49.92688 93.245605 50.263428 93.245605 C 51.436829 93.245605 52.40155 92.538879 53.292236 91.585358 C 54.147034 90.647552 54.606995 90.187622 55.075867 90.187622 C 55.549255 90.187622 56.031616 90.658752 56.935791 91.585358 C 57.813049 92.500732 58.771057 92.953918 59.672974 92.953918 C 60.705017 92.953918 61.665222 92.357147 62.342834 91.174774 C 62.953064 90.158447 63.184143 89.772552 63.722595 89.772552 C 64.050171 89.772552 64.494385 89.918396 65.210083 90.151703 C 65.739563 90.328949 66.278015 90.411957 66.809753 90.411957 C 69.701721 90.411957 72.411926 87.957489 72.378296 84.948883 C 72.378296 84.129974 71.967712 83.515228 71.108459 83.394073 C 71.056824 83.38736 71.009705 83.385101 70.962585 83.385101 C 70.27832 83.385101 69.905884 83.925812 69.715149 84.540558 C 69.674805 84.785095 69.632141 85.11264 69.510986 85.359436 C 68.867126 87.479614 67.848511 88.43988 66.13446 88.43988 C 65.661072 88.43988 65.138306 88.368073 64.554993 88.226715 C 64.018738 88.09436 63.621643 88.01358 63.298584 88.01358 C 62.612061 88.01358 62.273254 88.381531 61.687683 89.413574 C 61.155945 90.279602 60.491882 90.746246 59.679688 90.746246 C 59.302795 90.746246 58.89447 90.645294 58.452454 90.436646 C 57.756958 90.068695 57.142212 89.577362 56.650879 88.922241 C 56.020447 88.08313 55.47522 87.661346 54.903137 87.661346 C 54.357971 87.661346 53.785828 88.040527 53.085815 88.798828 C 52.881653 89.002991 52.67749 89.209412 52.513733 89.453949 C 52.118835 90.133759 51.569214 90.501709 50.808594 90.501709 C 50.698669 90.501709 50.584229 90.494965 50.465332 90.479279 C 49.606079 90.315491 49.399658 89.536987 49.235901 88.839233 C 49.031738 87.735382 48.950928 86.629303 48.827515 85.563599 C 48.760254 84.767151 48.399048 84.347595 47.741638 84.347595 C 47.586853 84.347595 47.416321 84.370026 47.230103 84.417145 C 46.942932 84.45752 46.698425 84.580933 46.411194 84.661682 C 46.182373 84.753693 45.980469 84.800812 45.805481 84.800812 C 45.354492 84.800812 45.071838 84.49118 44.894592 83.842804 C 44.69043 83.147278 44.650024 82.368774 44.650024 81.673248 C 44.650024 81.469086 44.567017 81.262695 44.322449 81.22229 C 44.291016 81.208832 44.259644 81.204346 44.230469 81.204346 Z"/>
    <path id="Path-copy-5" fill="#fd9098" fill-rule="evenodd" stroke="none" d="M 62.896973 33.461182 C 61.956909 33.461182 61.025818 33.589081 60.130676 33.916626 C 58.616211 34.450623 58.084534 36.211823 59.0672 37.522064 C 59.51593 38.21756 60.090271 38.832306 60.664612 39.364014 C 61.555298 40.218842 62.338318 40.649597 63.083191 40.649597 C 63.911072 40.649597 64.696289 40.115631 65.537659 39.036469 C 66.069397 38.300568 66.56073 37.602814 66.888306 36.826538 C 67.052063 36.496735 67.175476 36.211823 67.21582 36.005402 C 67.052063 34.778168 66.439575 33.795502 65.37384 33.712463 C 64.550476 33.559906 63.720337 33.461182 62.896973 33.461182 Z"/>
    <path id="Path-copy-4" fill="#d4b98f" fill-rule="evenodd" stroke="none" d="M 71.929565 54.384735 C 71.875732 54.384735 71.819641 54.389221 71.76355 54.395935 C 71.189209 54.43634 70.657471 54.395935 70.08313 54.519348 C 66.879333 55.239532 63.675476 56.11676 60.316833 56.11676 C 60.242798 56.11676 60.166565 56.11676 60.090271 56.11676 C 58.914612 56.083099 57.768188 55.82959 56.601501 55.82959 C 56.345764 55.82959 56.089966 55.84079 55.83197 55.869965 C 55.76239 55.869965 55.686157 55.860992 55.607605 55.860992 C 55.45282 55.860992 55.297974 55.896881 55.217224 56.11676 C 55.134216 56.484711 55.421387 56.565491 55.668213 56.731506 C 55.91272 56.852661 56.036133 56.935669 56.240295 56.976044 C 58.820374 57.794952 61.483521 58.205536 64.514587 58.326691 C 64.680603 58.360321 64.857849 58.373779 65.044067 58.373779 C 65.802368 58.373779 66.679626 58.147186 67.502991 58.082123 C 69.183472 57.87796 70.780884 57.386627 72.254883 56.525085 C 72.746216 56.237915 73.154541 55.869965 72.950378 55.255219 C 72.802307 54.736969 72.452332 54.384735 71.929565 54.384735 Z"/>
    <path id="Path-copy-3" fill="#2f3c32" fill-rule="evenodd" stroke="none" d="M 50.604431 24.03595 C 49.859558 24.03595 49.303162 24.408386 49.15509 25.153259 C 48.950928 25.80838 48.827515 26.423126 48.78717 27.078247 C 48.744507 27.692993 48.950928 28.305481 49.565674 28.635284 C 49.8125 28.783356 50.059265 28.850647 50.299316 28.850647 C 50.660522 28.850647 51.008301 28.69809 51.324646 28.428864 C 52.0224 27.85675 52.30957 27.158997 52.430725 26.259338 C 52.473328 25.234039 51.694824 24.210968 50.833313 24.04718 C 50.757019 24.040436 50.678467 24.03595 50.604431 24.03595 Z"/>
    <path id="Path-copy-2" fill="#2f3c32" fill-rule="evenodd" stroke="none" d="M 70.877319 24.412872 C 70.845947 24.412872 70.812256 24.415131 70.780884 24.415131 C 69.795959 24.498138 69.183472 25.357422 69.264221 26.586914 C 69.304626 27.65036 69.961975 28.388489 70.902039 28.388489 C 71.927307 28.388489 72.499451 27.65036 72.418701 26.463501 C 72.378296 25.034363 71.877991 24.412872 70.877319 24.412872 Z"/>
    <path id="Path-copy" fill="#f3e2c6" fill-rule="evenodd" stroke="none" d="M 76.212524 137.66153 C 75.97699 137.66153 75.777283 137.769226 75.613525 137.989105 C 74.630859 139.135559 73.23761 139.831085 71.927307 140.526581 C 74.384033 140.405426 76.883362 140.282043 79.380493 139.994843 C 80.158997 139.87146 81.01825 140.07785 81.756409 139.586517 C 79.995239 138.971771 78.274414 138.357056 76.596191 137.74231 C 76.459351 137.688477 76.331482 137.66153 76.212524 137.66153 Z"/>
</svg>
