<?xml version="1.0" encoding="UTF-8"?>
<!-- Generated by Pixelmator Pro 3.4.1 -->
<svg width="960" height="540" viewBox="0 0 960 540" xmlns="http://www.w3.org/2000/svg">
    <g id="Group">
        <path id="Path" fill="#ede0d3" fill-rule="evenodd" stroke="none" d="M 692 0 L 964 0 L 964 450.992126 L 692 450.992126 Z"/>
        <path id="path1" fill="#b5c7eb" fill-rule="evenodd" stroke="none" d="M 537.293945 417.503937 L 537.293945 417.503937 C 537.293945 290.200134 640.49408 187 767.797913 187 L 767.797913 187 C 828.931335 187 887.560913 211.285156 930.788818 254.513062 C 974.016663 297.740906 998.301819 356.370483 998.301819 417.503937 L 998.301819 417.503937 C 998.301819 544.807739 895.101685 648.007874 767.797913 648.007874 L 767.797913 648.007874 C 640.49408 648.007874 537.293945 544.807739 537.293945 417.503937 Z"/>
        <path id="path2" fill="#ecc0cf" fill-rule="evenodd" stroke="none" d="M 548.632568 171.685059 L 548.632568 171.685059 C 548.632568 76.866028 625.498535 0 720.317566 0 L 720.317566 0 C 765.851318 0 809.520081 18.088196 841.717224 50.2854 C 873.914429 82.482574 892.002625 126.151337 892.002625 171.685059 L 892.002625 171.685059 C 892.002625 266.504059 815.136597 343.370087 720.317566 343.370087 L 720.317566 343.370087 C 625.498535 343.370087 548.632568 266.504059 548.632568 171.685059 Z"/>
        <path id="path3" fill="#332f2d" fill-rule="evenodd" stroke="none" d="M 600.735046 7.927246 C 600.456604 7.868774 600.173523 7.832275 599.884338 7.825134 C 594.550293 7.722473 590.496399 16.059753 588.458252 19.717285 C 580.000366 33.250397 577.92334 50.426453 576.939209 66.041748 C 576.689941 72.110107 575.325378 81.012207 578.753601 86.582825 C 580.073975 88.856995 581.899719 90.036133 583.980774 90.473175 C 589.886902 91.713531 597.868164 86.970642 602.239441 84.11676 C 610.57312 78.460938 620.025879 73.560364 628.161255 67.610413 C 632.06012 64.856262 636.545715 61.712738 638.063171 56.928284 C 639.323547 53.367554 638.855652 50.713898 635.792175 48.287903 C 636.218262 45.056885 631.697144 41.047058 629.909729 38.628906 C 623.91626 30.736908 616.333252 24.293701 610.230896 16.883789 C 608.102234 14.524048 604.882507 8.798279 600.735046 7.927246 Z"/>
        <path id="path4" fill="#ff8a8a" fill-rule="evenodd" stroke="none" d="M 631.821533 79.185547 C 632.834351 75.220978 630.980896 70.955017 629.753845 67.47287 C 627.213257 62.803894 625.676819 57.023132 622.283508 52.699646 C 616.036255 44.267273 608.56189 32.352722 598.83374 27.604065 C 592.723633 33.665375 594.413574 40.601105 593.783447 47.444519 C 593.156921 53.333191 592.763184 59.991028 593.294434 65.922943 C 593.833313 68.041443 593.596558 70.131012 594.517517 72.263794 C 597.150024 70.835449 603.710754 72.035248 606.19043 72.316528 C 610.898315 72.114929 613.908936 73.55954 618.390625 74.487305 C 623.404663 75.635101 627.190918 77.108673 631.821533 79.185547 Z"/>
        <path id="path5" fill="#332f2d" fill-rule="evenodd" stroke="none" d="M 780.964355 45.777832 C 777.022034 44.94989 771.770996 48.896667 768.86554 50.199219 C 760.297852 54.528229 750.528992 57.327271 742.101563 62.190704 C 739.492371 63.685516 733.740112 65.537811 732.588623 68.616455 C 729.291626 69.706696 727.561279 71.898682 727.03363 75.613281 C 726.739929 80.654724 729.58197 85.337158 731.801697 89.376282 C 737.105286 98.148621 743.53894 106.385559 749.142456 114.968384 C 751.996277 119.3396 757.256104 126.863312 763.191467 128.109833 C 765.287231 128.549957 767.462341 128.21109 769.651978 126.674072 C 774.78241 122.900879 777.363403 114.254242 779.569153 108.596771 C 784.708069 93.854034 789.965332 77.345856 787.417053 61.501312 C 787.0224 57.332886 786.665039 48.069122 781.740356 46.017303 C 781.487305 45.910614 781.228149 45.833252 780.964355 45.777832 Z"/>
        <path id="path6" fill="#ff8a8a" fill-rule="evenodd" stroke="none" d="M 775.392578 59.228363 C 772.754517 63.264862 770.08667 66.277527 766.575684 69.625732 C 763.409546 72.533752 761.570251 75.207825 758.074402 77.281525 C 755.999634 78.636078 751.309387 82.754181 748.766113 82.732697 C 749.279053 85.135681 749.945862 86.805878 750.025879 88.865479 C 751.930542 94.368591 754.326111 99.974792 756.875549 104.848267 C 759.762085 110.557617 760.873718 117.432007 767.754944 119.894714 C 773.911804 111.233978 775.562805 97.28891 777.235168 86.921265 C 778.364746 81.542755 777.779602 75.804138 777.882263 70.470093 C 777.619019 66.841858 777.811157 62.284058 775.392578 59.228363 Z"/>
        <path id="path7" fill="#332f2d" fill-rule="evenodd" stroke="none" d="M 671.550598 202.646851 C 668.714783 202.051331 665.945007 201.61499 663.666138 201.136383 C 655.356567 199.391266 647.712219 199.323669 639.147156 198.794952 C 635.108398 198.535858 631.126892 198.732544 628.686768 198.220093 C 627.932007 198.061584 627.329163 197.83551 626.916748 197.504089 C 624.717407 201.892822 621.3974 205.53363 619.205322 209.923889 C 613.070374 220.884521 608.254395 232.887207 603.290833 244.353943 C 601.239014 249.278625 600.402039 254.466125 599.324829 259.59549 C 598.555359 263.259338 597.197632 267.319885 597.996826 270.800537 C 599.270203 275.666138 602.07666 279.315887 605.769775 282.386749 C 615.107605 289.909973 627.661377 293.158508 639.678711 295.682312 C 643.108093 296.402527 646.495361 297.067993 649.756165 297.752808 C 659.531311 299.805725 668.296204 300.621246 678.291199 300.425079 C 682.703003 300.073914 692.506897 299.585144 696.208984 296.529541 C 697.740479 295.321014 698.056091 292.579437 698.716125 290.675262 C 701.398743 281.544983 702.874268 270.875885 702.325867 261.31955 C 701.792603 250.488708 701.068359 239.365295 697.588867 229.193359 C 695.062439 221.769348 690.277527 215.408875 685.436035 209.281311 C 682.55011 205.500122 676.936462 203.777954 671.550598 202.646851 Z"/>
        <path id="path8" fill="#454b4c" fill-rule="evenodd" stroke="none" d="M 720.531616 58.67807 C 717.065613 57.950165 713.95105 57.479706 711.297729 56.998962 C 706.210449 56.121857 701.234619 55.115112 696.332397 54.085571 C 693.188843 53.425385 690.077637 52.756683 686.985352 52.107269 C 669.398987 48.413879 652.393982 45.339935 634.03418 48.170959 C 594.791748 53.968872 560.093567 106.144257 571.35791 147.299805 C 575.525635 162.71936 586.046509 173.352478 598.05542 183.020416 C 616.416382 198.872986 648.657043 208.199371 671.878418 213.076172 C 696.081726 218.15918 724.646118 217.012207 748.097351 208.663025 C 766.527649 202.327393 773.433655 181.574951 776.104736 164.011017 C 779.089966 143.71283 776.88092 119.003357 769.468079 99.581787 C 766.596741 92.597961 763.697205 78.462311 750.433655 72.363953 C 739.417847 63.723206 728.936462 60.443207 720.531616 58.678101 Z"/>
        <path id="path9" fill="#75e0b7" fill-rule="evenodd" stroke="none" d="M 636.045837 109.080627 C 628.21991 107.437073 620.774414 112.506714 619.132385 120.325317 C 617.488831 128.151276 622.31665 135.546021 630.142578 137.189575 C 637.961243 138.831573 645.597778 134.054535 647.241333 126.228577 C 648.883362 118.409973 643.864502 110.722656 636.045837 109.080627 Z"/>
        <path id="path10" fill="#353127" fill-rule="evenodd" stroke="none" d="M 634.711548 115.433655 C 630.798584 114.611877 626.950439 117.124207 626.130249 121.029846 C 625.25769 125.184631 627.820801 128.790894 631.733765 129.612671 C 635.88855 130.485229 639.538269 127.678772 640.309265 124.007629 C 641.129517 120.10199 638.866333 116.306213 634.711548 115.433655 Z"/>
        <path id="path11" fill="#ffffff" fill-rule="evenodd" stroke="none" d="M 629.019043 110.917694 C 626.578918 110.405243 623.962402 111.898529 623.448425 114.345947 C 622.883667 117.035217 624.679932 119.447571 627.120056 119.960052 C 629.567505 120.47403 632.17511 118.986542 632.739929 116.297302 C 633.253906 113.849854 631.466492 111.431702 629.019043 110.917694 Z"/>
        <path id="path12" fill="#ffffff" fill-rule="evenodd" stroke="none" d="M 634.187866 133.700897 C 633.455078 133.546997 632.862549 133.927521 632.708679 134.660278 C 632.605591 135.151245 632.942627 135.987122 633.675415 136.140991 C 634.166382 136.24411 635.05304 135.665222 635.156128 135.174286 C 635.309998 134.441528 634.628052 134.045807 634.187866 133.700897 Z"/>
        <path id="path13" fill="#ffffff" fill-rule="evenodd" stroke="none" d="M 638.357788 133.29895 C 638.115967 133.248169 637.81604 133.437653 637.763733 133.686768 C 637.662109 134.17041 637.858948 134.471863 638.100769 134.522644 C 638.34259 134.573425 638.885864 134.427429 638.987427 133.943787 C 639.039734 133.694641 638.599609 133.349731 638.357788 133.29895 Z"/>
        <path id="path14" fill="#75e0b7" fill-rule="evenodd" stroke="none" d="M 719.880554 126.687042 C 712.061951 125.045013 704.367249 130.062317 702.725281 137.880981 C 701.081726 145.706909 706.158691 153.153961 713.977295 154.795959 C 721.795898 156.437988 729.190674 151.610168 730.834229 143.78421 C 732.476196 135.965576 727.699158 128.329041 719.880554 126.687042 Z"/>
        <path id="path15" fill="#353127" fill-rule="evenodd" stroke="none" d="M 718.304443 132.989258 C 714.149658 132.116699 710.543335 134.67981 709.723083 138.585449 C 708.850525 142.740234 711.655457 146.397339 715.326599 147.168335 C 719.2323 147.988556 722.889343 145.183655 723.660339 141.512451 C 724.480591 137.606812 722.159302 134.051331 718.304443 132.989258 Z"/>
        <path id="path16" fill="#ffffff" fill-rule="evenodd" stroke="none" d="M 712.370117 128.422546 C 709.922668 127.908569 707.562622 129.455688 707.048645 131.903137 C 706.483887 134.592377 708.023682 136.950897 710.47113 137.464905 C 712.918579 137.978882 715.526184 136.491394 716.091003 133.802124 C 716.554199 131.596497 715.24884 129.287231 712.370117 128.422546 Z"/>
        <path id="path17" fill="#ffffff" fill-rule="evenodd" stroke="none" d="M 717.53894 151.20575 C 717.047974 151.102631 716.213623 151.432373 716.059753 152.165131 C 715.956665 152.656067 716.535522 153.542725 717.026489 153.645874 C 717.759216 153.799744 718.404114 153.170105 718.507202 152.679138 C 718.661072 151.94635 718.462708 151.652222 717.53894 151.20575 Z"/>
        <path id="path18" fill="#ffffff" fill-rule="evenodd" stroke="none" d="M 721.708862 150.803772 C 721.459717 150.751465 721.167114 150.942505 721.114807 151.19165 C 721.013184 151.675262 721.202698 151.975189 721.451843 152.027527 C 721.693665 152.078308 722.236938 151.932251 722.338501 151.448639 C 722.390808 151.199493 722.192444 150.905365 721.708862 150.803772 Z"/>
        <path id="path19" fill="#ff8a8a" fill-rule="evenodd" stroke="none" d="M 668.204712 141.525818 C 666.5047 141.168793 664.883484 141.019592 663.703247 141.429688 C 663.043213 143.333862 666.391418 146.844879 668.004517 147.688599 C 668.294983 147.872009 668.650635 148.000275 669.046326 148.083374 C 672.006714 148.705078 677.309631 146.697205 677.2453 143.761108 L 674.55603 143.19632 C 672.885376 142.845459 670.476318 142.002869 668.204712 141.525818 Z"/>
        <path id="path20" fill="none" stroke="none" d="M 657.788696 154.984222 C 657.714844 157.776581 661.949707 160.70874 664.506592 159.463074 C 666.279907 158.305298 668.171509 155.38208 668.443665 152.883881 C 669.740112 155.198914 667.694641 158.854919 670.617859 160.746521 C 672.808289 162.484253 676.436523 162.221008 677.484924 159.633301"/>
        <path id="path21" fill="none" stroke="#ce9f9f" stroke-width="2" stroke-linecap="round" stroke-linejoin="round" d="M 657.788696 154.984222 C 657.714844 157.776581 661.949707 160.70874 664.506592 159.463074 C 666.279907 158.305298 668.171509 155.38208 668.443665 152.883881 C 669.740112 155.198914 667.694641 158.854919 670.617859 160.746521 C 672.808289 162.484253 676.436523 162.221008 677.484924 159.633301"/>
        <path id="path22" fill="none" stroke="none" d="M 584.022827 129.546417 C 581.064026 126.622131 575.927307 125.543335 572.46814 123.799316 C 561.983337 119.041962 551.600037 113.800995 540.813782 109.240479"/>
        <path id="path23" fill="none" stroke="#9c9494" stroke-width="3" stroke-linecap="round" stroke-linejoin="round" d="M 584.022827 129.546417 C 581.064026 126.622131 575.927307 125.543335 572.46814 123.799316 C 561.983337 119.041962 551.600037 113.800995 540.813782 109.240479"/>
        <path id="path24" fill="none" stroke="none" d="M 582.607483 138.690186 C 579.200623 136.697021 573.866577 136.59436 570.143127 136.07251 C 558.800903 134.195435 547.223206 130.998871 535.82135 129.369415"/>
        <path id="path25" fill="none" stroke="#9c9494" stroke-width="3" stroke-linecap="round" stroke-linejoin="round" d="M 582.607483 138.690186 C 579.200623 136.697021 573.866577 136.59436 570.143127 136.07251 C 558.800903 134.195435 547.223206 130.998871 535.82135 129.369415"/>
        <path id="path26" fill="none" stroke="none" d="M 586.731689 148.23233 C 582.818726 147.410553 577.61554 149.125671 573.936523 149.630737 C 562.548767 151.577179 550.883606 152.440155 539.400024 154.879089"/>
        <path id="path27" fill="none" stroke="#9c9494" stroke-width="3" stroke-linecap="round" stroke-linejoin="round" d="M 586.731689 148.23233 C 582.818726 147.410553 577.61554 149.125671 573.936523 149.630737 C 562.548767 151.577179 550.883606 152.440155 539.400024 154.879089"/>
        <path id="path28" fill="none" stroke="none" d="M 755.334961 163.221375 C 758.976807 161.690979 764.355347 162.820496 768.173035 162.857208 C 779.685852 162.719666 791.351074 161.856689 803.06073 162.02063"/>
        <path id="path29" fill="none" stroke="#9c9494" stroke-width="3" stroke-linecap="round" stroke-linejoin="round" d="M 755.334961 163.221375 C 758.976807 161.690979 764.355347 162.820496 768.173035 162.857208 C 779.685852 162.719666 791.351074 161.856689 803.06073 162.02063"/>
        <path id="path30" fill="none" stroke="none" d="M 752.650879 172.358826 C 756.579041 171.906097 761.554504 173.716095 765.122559 174.978027 C 776.55426 177.631348 788.197937 179.311584 799.291992 182.406555"/>
        <path id="path31" fill="none" stroke="#9c9494" stroke-width="3" stroke-linecap="round" stroke-linejoin="round" d="M 752.650879 172.358826 C 756.579041 171.906097 761.554504 173.716095 765.122559 174.978027 C 776.55426 177.631348 788.197937 179.311584 799.291992 182.406555"/>
        <path id="path32" fill="none" stroke="none" d="M 745.094482 179.195404 C 749.249268 180.067963 753.030334 183.922363 756.195374 185.864777 C 766.132141 192.029541 776.412292 197.761475 785.753479 204.321411"/>
        <path id="path33" fill="none" stroke="#9c9494" stroke-width="3" stroke-linecap="round" stroke-linejoin="round" d="M 745.094482 179.195404 C 749.249268 180.067963 753.030334 183.922363 756.195374 185.864777 C 766.132141 192.029541 776.412292 197.761475 785.753479 204.321411"/>
        <path id="path34" fill="#6d6760" fill-rule="evenodd" stroke="none" d="M 590.396973 237.899719 C 590.124146 237.978027 589.857178 238.076569 589.593018 238.185181 C 582.906128 241.559662 583.348694 254.568085 583.316223 260.778778 C 581.707458 283.13681 590.307312 305.473236 599.433167 325.832153 C 602.76709 333.63562 607.261414 345.480835 614.829468 350.242188 C 618.051941 352.1716 621.132202 352.424713 624.021973 351.595093 C 632.206116 349.245392 638.802368 338.164429 642.353455 331.752899 C 649.328979 319.174011 657.839722 306.876221 663.933838 293.817596 C 667.062866 288.183472 670.467163 280.993805 669.20929 274.059875 C 668.531555 269.14679 666.211609 266.170776 660.718567 264.827606 C 659.224792 260.881622 650.882996 258.529816 647.173035 257.035675 C 634.448242 250.84552 620.913513 248.158081 608.478821 242.978394 C 604.109924 241.09375 596.216797 236.228821 590.396973 237.899719 Z"/>
        <path id="path35" fill="#ff9494" fill-rule="evenodd" stroke="none" d="M 599.924805 256.382477 C 597.182678 260.811798 597.483582 266.926758 597.484375 272.03418 C 598.174011 279.503113 598.034668 287.931915 600.065247 295.004944 C 603.894531 309.600372 607.625916 328.959656 616.79541 340.556335 C 626.177185 336.397247 627.036865 326.667908 630.497498 318.379303 C 633.472656 310.951904 636.589783 302.761932 638.363037 294.957733 C 638.598938 291.969788 639.706116 289.464508 639.59845 286.575195 C 635.943726 286.530731 628.946838 281.244476 626.345886 279.803772 C 620.90625 277.351563 617.959961 273.450745 613.23053 269.700897 C 607.976257 265.379913 604.267334 261.337097 599.924805 256.382477 Z"/>
        <path id="path36" fill="#6d6760" fill-rule="evenodd" stroke="none" d="M 833.971069 163.5401 C 828.252197 165.181946 824.326721 173.527496 821.576172 177.051453 C 813.795776 188.045837 803.833496 197.840149 796.234497 209.504333 C 793.977844 213.072449 788.06543 219.144775 788.980835 223.628662 C 784.938232 227.337646 784.563293 231.098297 786.690674 235.956116 C 789.292358 242.504211 795.903503 246.446594 801.633179 249.909241 C 813.640564 257.410034 827.375732 263.310089 839.62085 270.381683 C 846.032166 273.932983 857.680786 279.764954 865.834656 277.423981 C 868.704163 276.600128 871.140625 274.763153 872.757935 271.444244 C 876.981201 263.297607 874.174255 250.967957 873.197388 242.498718 C 870.239746 220.729858 865.582825 196.889526 852.361938 178.800018 C 849.125549 173.888763 842.610474 162.623718 835.141785 163.313354 C 834.74762 163.349945 834.35498 163.429871 833.971069 163.5401 Z"/>
        <path id="path37" fill="#ff9494" fill-rule="evenodd" stroke="none" d="M 835.937988 183.876404 C 834.990845 190.710632 833.981201 196.108124 831.822144 202.56842 C 829.812195 208.253113 829.285156 212.779297 825.964661 217.746521 C 824.622681 220.691101 821.505554 228.881104 818.325195 230.526978 C 819.872437 233.363892 822.139954 234.90033 823.924866 237.308105 C 829.567871 242.983093 836.554688 248.272217 842.91803 252.646667 C 850.248352 257.837219 856.13092 265.641785 866.297302 264.177643 C 867.908752 249.485779 860.812744 231.092468 856.40509 217.034973 C 854.275879 209.618408 849.448914 202.976349 846.407959 196.19342 C 843.709473 191.860504 840.612122 186.176514 835.937988 183.876404 Z"/>
        <path id="path38" fill="#f4dfc9" fill-rule="evenodd" stroke="none" d="M 801.050598 430.092682 C 797.130249 431.218201 793.376221 432.503784 790.11261 433.440765 C 778.998291 436.631683 769.467346 441.566376 758.491028 446.533264 C 753.308777 448.86322 748.486755 451.724152 744.980713 452.730743 C 743.889465 453.044037 742.932312 453.176636 742.12207 453.059265 C 742.273865 459.949829 740.554016 466.644958 740.705811 473.535553 C 740.287964 491.165863 742.191101 509.223541 743.569397 526.710083 C 744.246033 534.171814 746.956482 541.060608 748.987061 548.133606 C 750.4375 553.185791 751.074768 559.215088 754.685059 562.914368 C 759.126221 568.212524 765.005066 570.899597 771.947815 572.187439 C 788.21228 575.469238 806.065613 571.218506 822.706787 566.440857 C 827.465759 565.074524 832.126465 563.670837 836.622742 562.379944 C 850.101379 558.510254 861.514038 553.768066 873.445496 547.061462 C 879.033508 543.630615 890.535767 536.686218 893.457458 530.36792 C 894.564697 527.86261 893.166626 524.250061 892.725525 521.456482 C 889.727173 508.459961 884.887451 494.154633 877.943237 482.651886 C 870.171021 469.560333 861.626099 456.329712 850.973755 445.891571 C 842.621033 438.435272 832.840759 433.587189 822.819824 429.158173 C 816.533691 426.424011 808.497192 427.954742 801.050598 430.092682 Z"/>
        <path id="path39" fill="#f6e9d9" fill-rule="evenodd" stroke="none" d="M 767.307434 219.26416 C 762.518188 220.63916 758.303772 222.111633 754.594299 223.28598 C 747.7052 225.537262 740.879333 227.551636 734.109741 229.495209 C 729.785217 230.736755 725.485291 231.949402 721.211304 233.176453 C 696.961853 240.138489 673.850769 247.484589 652.914612 263.054413 C 608.021118 296.01297 599.557434 383.44635 640.211609 427.225891 C 655.506653 443.62616 675.553894 449.912415 696.793884 454.029724 C 729.997131 461.646515 776.46405 451.958893 808.483398 442.766144 C 841.846558 433.187592 876.552063 413.008362 900.163757 387.25351 C 918.542908 367.386719 913.489319 337.098022 905.273376 313.546692 C 895.985657 286.30011 877.0224 257.084656 855.082947 237.845215 C 846.601318 231.158752 834.056335 215.423523 813.249146 216.661499 C 793.905884 213.169922 778.91687 215.931091 767.307434 219.26416 Z"/>
        <path id="path40" fill="#6d6760" fill-rule="evenodd" stroke="none" d="M 764.062744 252.723022 C 760.506165 253.74408 757.429077 254.835327 754.777649 255.695007 C 750.757874 256.969391 746.75238 258.141235 742.771484 259.284149 C 739.083496 260.342957 735.409973 261.375763 731.772583 262.420044 C 713.454163 267.67926 695.865356 273.308655 680.304138 284.743256 C 647.435974 308.769836 641.066589 372.983948 670.778259 405.314911 C 682.152771 417.011292 696.512573 421.277405 712.226257 425.154785 C 736.74707 430.528534 770.452698 423.399994 793.711975 416.72229 C 817.971497 409.757355 843.68103 395.081116 860.897705 376.269897 C 874.506714 361.425629 870.773438 339.507568 864.730103 322.266663 C 857.571594 302.436646 843.725403 280.873657 827.568054 266.536499 C 822.45282 261.44278 813.293396 249.843201 798.171814 250.542542 C 783.843445 248.214233 772.600586 250.27179 764.062744 252.722992 Z"/>
        <path id="path41" fill="#99e2ff" fill-rule="evenodd" stroke="none" d="M 695.733887 337.230713 C 684.953003 340.325897 678.697815 351.604248 681.79303 362.385559 C 684.891113 373.176971 696.080627 379.086029 706.861511 375.990845 C 717.652527 372.892761 723.64978 362.049347 720.551697 351.257965 C 717.456482 340.476654 706.524902 334.132599 695.733887 337.230713 Z"/>
        <path id="path42" fill="#353127" fill-rule="evenodd" stroke="none" d="M 697.915588 346.086914 C 692.186646 347.731689 689.393921 353.280182 690.940063 358.665802 C 692.584839 364.394928 698.466614 367.092072 703.528687 365.638763 C 708.914063 364.092621 711.611084 358.210663 710.157776 353.148407 C 708.611633 347.762787 703.396729 344.874207 697.915588 346.086914 Z"/>
        <path id="path43" fill="#ffffff" fill-rule="evenodd" stroke="none" d="M 687.886353 344.219543 C 684.521729 345.185516 682.598511 348.657898 683.567383 352.032745 C 684.632019 355.741028 688.101379 357.654236 691.466003 356.688263 C 695.174133 355.623657 697.100281 352.161377 696.035645 348.453094 C 695.066772 345.078278 691.594482 343.154938 687.886353 344.219543 Z"/>
        <path id="path44" fill="#ffffff" fill-rule="evenodd" stroke="none" d="M 709.258545 369.101532 C 708.591675 369.292999 707.772705 370.249969 708.062805 371.260406 C 708.257141 371.937378 709.557617 372.657745 710.224487 372.466278 C 711.234863 372.176208 711.621765 370.971405 711.427429 370.294434 C 711.137329 369.283997 710.364624 369.144897 709.258545 369.101532 Z"/>
        <path id="path45" fill="#ffffff" fill-rule="evenodd" stroke="none" d="M 714.503052 365.769318 C 713.836182 365.960785 713.588379 366.392853 713.687012 366.736389 C 713.878479 367.40329 714.320618 367.648193 714.987488 367.456757 C 715.330994 367.358124 715.565796 366.918854 715.37439 366.251953 C 715.275757 365.908417 714.846558 365.670685 714.503052 365.769318 Z"/>
        <path id="path46" fill="#99e2ff" fill-rule="evenodd" stroke="none" d="M 810.666931 304.233459 C 799.875916 307.331573 793.630859 318.607025 796.726013 329.388336 C 799.824097 340.179749 811.00354 346.091705 821.794495 342.993622 C 832.575439 339.898438 838.582825 329.052124 835.484741 318.260712 C 832.389526 307.479431 821.447815 301.138275 810.666931 304.233459 Z"/>
        <path id="path47" fill="#353127" fill-rule="evenodd" stroke="none" d="M 813.182007 312.993958 C 807.786499 314.542999 804.670471 320.184326 806.216614 325.569916 C 807.861389 331.299072 813.743164 333.996216 818.795166 332.545807 C 824.190613 330.996735 827.210938 325.021973 825.757629 319.959717 C 824.211487 314.574097 818.673279 311.778351 813.182007 312.993958 Z"/>
        <path id="path48" fill="#ffffff" fill-rule="evenodd" stroke="none" d="M 803.162903 311.123688 C 799.788208 312.09256 797.531555 315.660675 798.500427 319.035492 C 799.565002 322.743774 803.367798 324.561279 806.742554 323.592407 C 810.107178 322.626434 812.366699 319.06842 811.302124 315.360138 C 810.428955 312.318756 806.969666 310.402618 803.162903 311.123688 Z"/>
        <path id="path49" fill="#ffffff" fill-rule="evenodd" stroke="none" d="M 824.535095 336.005676 C 823.514587 336.298676 823.039185 337.157013 823.329224 338.16745 C 823.523621 338.844421 824.48053 339.663391 825.501038 339.370422 C 826.167908 339.178955 826.888245 337.878448 826.693848 337.201447 C 826.403748 336.19104 825.641174 336.049042 824.535095 336.005676 Z"/>
        <path id="path50" fill="#ffffff" fill-rule="evenodd" stroke="none" d="M 829.436035 332.772095 C 829.102661 332.867828 828.521423 333.39563 828.620056 333.739166 C 828.811462 334.406067 829.587097 334.555237 829.920532 334.459503 C 830.264038 334.360901 830.49884 333.9216 830.307373 333.25473 C 830.20874 332.911194 829.779602 332.673462 829.436035 332.772095 Z"/>
        <path id="path51" fill="#ff8a8a" fill-rule="evenodd" stroke="none" d="M 756.853882 356.410339 C 754.550232 357.071716 752.490784 357.936401 751.29541 359.220215 C 751.736511 362.013794 757.853088 364.271637 760.408875 364.259735 C 760.889709 364.296661 761.415222 364.222351 761.970947 364.062805 C 766.052979 362.890869 771.346008 356.908875 769.641785 353.220184 L 765.933655 354.28479 C 763.427856 355.004181 759.915405 355.531372 756.853882 356.410339 Z"/>
        <path id="path52" fill="none" stroke="none" d="M 752.53064 380.018127 C 754.605652 383.43631 761.786072 384.295044 763.797791 381.169098 C 765.58197 378.469452 766.010376 373.599731 764.364502 370.41925 C 767.836792 372.34259 767.698486 378.222717 772.224487 378.749817 C 776.083618 379.468353 780.413452 376.759674 780.359253 372.761322"/>
        <path id="path53" fill="none" stroke="#c9adad" stroke-width="2" stroke-linecap="round" stroke-linejoin="round" d="M 752.53064 380.018127 C 754.605652 383.43631 761.786072 384.295044 763.797791 381.169098 C 765.58197 378.469452 766.010376 373.599731 764.364502 370.41925 C 767.836792 372.34259 767.698486 378.222717 772.224487 378.749817 C 776.083618 379.468353 780.413452 376.759674 780.359253 372.761322"/>
        <path id="path54" fill="none" stroke="none" d="M 644.273621 396.880219 C 639.01532 395.097778 631.59906 397.22699 626.161255 397.333557 C 610.026367 398.312866 593.700073 398.625305 577.330383 400.043884"/>
        <path id="path55" fill="none" stroke="#9c9494" stroke-width="4" stroke-linecap="round" stroke-linejoin="round" d="M 644.273621 396.880219 C 639.01532 395.097778 631.59906 397.22699 626.161255 397.333557 C 610.026367 398.312866 593.700073 398.625305 577.330383 400.043884"/>
        <path id="path56" fill="none" stroke="none" d="M 648.863647 409.059021 C 643.327271 408.822021 636.630249 412.199402 631.67688 413.993347 C 616.025391 419.20874 599.892334 422.746826 584.682983 428.207153"/>
        <path id="path57" fill="none" stroke="#9c9494" stroke-width="4" stroke-linecap="round" stroke-linejoin="round" d="M 648.863647 409.059021 C 643.327271 408.822021 636.630249 412.199402 631.67688 413.993347 C 616.025391 419.20874 599.892334 422.746826 584.682983 428.207153"/>
        <path id="path58" fill="none" stroke="none" d="M 660.246582 418.193817 C 654.517639 419.838593 649.509766 425.290283 645.275696 428.332397 C 632.087891 438.319977 618.177979 447.049286 605.86145 457.519501"/>
        <path id="path59" fill="none" stroke="#9c9494" stroke-width="4" stroke-linecap="round" stroke-linejoin="round" d="M 660.246582 418.193817 C 654.517639 419.838593 649.509766 425.290283 645.275696 428.332397 C 632.087891 438.319977 618.177979 447.049286 605.86145 457.519501"/>
        <path id="path60" fill="none" stroke="none" d="M 878.99585 326.199432 C 882.844177 321.813446 889.916931 319.782867 894.678772 317.322021 C 908.885986 309.590118 922.795959 300.860809 937.425171 293.379608"/>
        <path id="path61" fill="none" stroke="#9c9494" stroke-width="4" stroke-linecap="round" stroke-linejoin="round" d="M 878.99585 326.199432 C 882.844177 321.813446 889.916931 319.782867 894.678772 317.322021 C 908.885986 309.590118 922.795959 300.860809 937.425171 293.379608"/>
        <path id="path62" fill="none" stroke="none" d="M 881.997192 339.206238 C 886.564758 336.06839 893.937683 335.045349 899.184021 334.271912 C 914.789246 330.152588 930.675598 324.497894 946.465088 321.058441"/>
        <path id="path63" fill="none" stroke="#9c9494" stroke-width="4" stroke-linecap="round" stroke-linejoin="round" d="M 881.997192 339.206238 C 886.564758 336.06839 893.937683 335.045349 899.184021 334.271912 C 914.789246 330.152588 930.675598 324.497894 946.465088 321.058441"/>
        <path id="path64" fill="none" stroke="none" d="M 877.097717 352.654755 C 882.493225 351.105713 890.059448 353.308319 895.262451 353.641022 C 911.297607 354.866821 927.818359 355.231384 944.060852 357.141388"/>
        <path id="path65" fill="none" stroke="#9c9494" stroke-width="4" stroke-linecap="round" stroke-linejoin="round" d="M 877.097717 352.654755 C 882.493225 351.105713 890.059448 353.308319 895.262451 353.641022 C 911.297607 354.866821 927.818359 355.231384 944.060852 357.141388"/>
    </g>
</svg>
