<?xml version="1.0" encoding="UTF-8"?>
<!-- Generated by Pixelmator Pro 3.4.1 -->
<svg width="142" height="140" viewBox="0 0 142 140" xmlns="http://www.w3.org/2000/svg">
    <path id="Path-copy-31" fill="#332f2d" fill-rule="evenodd" stroke="none" d="M 21.404602 1.347168 C 21.260284 1.347168 21.115967 1.358582 20.971649 1.385162 C 18.31311 1.890259 17.169952 6.451538 16.53949 8.479645 C 13.751831 16.079224 14.511414 24.821991 15.650787 32.676056 C 16.159729 35.714386 16.41037 40.275665 18.692902 42.683533 C 19.585419 43.674774 20.614655 44.069763 21.693268 44.069763 C 24.754364 44.069763 28.221832 40.883301 30.094208 39.010956 C 33.641449 35.334595 37.822937 31.916473 41.241058 28.114777 C 42.889343 26.341156 44.7883 24.31308 45.042755 21.779877 C 45.297211 19.88092 44.7883 18.612427 43.014679 17.727509 C 42.889343 16.079224 40.22702 14.560059 39.087646 13.546021 C 35.289734 10.253265 30.85379 7.845367 27.052094 4.803253 C 25.74942 3.85379 23.55423 1.347168 21.404602 1.347168 Z"/>
    <path id="Path-copy-30" fill="#ff8a8a" fill-rule="evenodd" stroke="none" d="M 22.745209 8.604919 C 21.351379 9.869598 20.846252 12.15213 20.337341 13.925751 C 19.95755 16.58429 18.943512 19.371948 18.943512 22.159607 C 18.818176 27.480469 18.183929 34.574951 20.212006 39.516022 C 23.884583 39.010895 25.153076 35.714325 27.181152 33.181122 C 28.954773 31.02771 30.853729 28.494507 32.247559 25.961304 C 32.62735 24.947266 33.261597 24.187683 33.516052 23.048309 C 32.247559 22.793854 30.348602 20.260651 29.585236 19.371948 C 27.940735 17.978119 27.306488 16.458954 26.037994 14.685333 C 24.647949 12.657257 23.759247 10.883636 22.745209 8.604919 Z"/>
    <path id="Path-copy-29" fill="#332f2d" fill-rule="evenodd" stroke="none" d="M 114.816711 1.347168 C 112.773438 1.347168 110.578247 3.85379 109.271729 4.803253 C 105.470032 7.845367 100.912567 10.253265 97.236206 13.546021 C 96.096832 14.560059 93.434509 16.079224 93.183838 17.727509 C 91.660889 18.612427 91.030457 19.88092 91.155762 21.779877 C 91.535553 24.31308 93.434509 26.341156 94.957458 28.114777 C 98.5047 31.916473 102.557068 35.334595 106.233459 39.010956 C 108.105774 40.883301 111.501099 44.069763 114.577454 44.069763 C 115.663635 44.069763 116.708069 43.674774 117.634705 42.683533 C 119.788147 40.275665 120.167908 35.714386 120.673035 32.676056 C 121.687073 24.821991 122.575806 16.079224 119.658997 8.479645 C 119.028564 6.451538 117.885376 1.890259 115.226868 1.385162 C 115.090149 1.358582 114.95343 1.347168 114.816711 1.347168 Z"/>
    <path id="Path-copy-28" fill="#ff8a8a" fill-rule="evenodd" stroke="none" d="M 113.453064 8.604919 C 112.564392 10.883636 111.554138 12.657257 110.160278 14.685333 C 108.891785 16.458954 108.257568 17.978119 106.738403 19.371948 C 105.84967 20.260651 103.950745 22.793854 102.686035 23.048309 C 103.191162 24.187683 103.696289 24.947266 103.950745 25.961304 C 105.46991 28.494507 107.24353 31.02771 109.017151 33.181122 C 111.045227 35.714325 112.313721 39.010895 115.986267 39.516022 C 118.139709 34.574951 117.505432 27.480469 117.254761 22.159607 C 117.254761 19.371948 116.366089 16.58429 115.860962 13.925751 C 115.352051 12.15213 114.972229 9.869598 113.453064 8.604919 Z"/>
    <path id="Path-copy-27" fill="#332f2d" fill-rule="evenodd" stroke="none" d="M 76.8573 90.623718 C 75.387512 90.623718 73.967102 90.695892 72.78595 90.695892 C 68.479126 90.695892 64.677429 91.459259 60.370605 92.089722 C 58.338745 92.382141 56.382813 92.894867 55.118103 92.894867 C 54.726929 92.894867 54.404114 92.84549 54.164856 92.723969 C 53.530609 95.131836 52.262085 97.285248 51.631653 99.693115 C 49.728882 105.77356 48.589539 112.233765 47.321014 118.443359 C 46.815918 121.101868 46.941223 123.764191 46.941223 126.422729 C 46.941223 128.321686 46.690582 130.478882 47.450165 132.123383 C 48.589539 134.405914 50.363159 135.925079 52.516541 137.064453 C 57.936157 139.825531 64.506531 140.129364 70.735077 140.129364 C 72.512512 140.129364 74.263336 140.106567 75.9534 140.106567 C 81.019806 140.106567 85.45575 139.597656 90.39682 138.458282 C 92.550232 137.824036 97.365967 136.559326 98.885132 134.656586 C 99.519379 133.897003 99.390228 132.503174 99.519379 131.489136 C 99.89917 126.677185 99.519379 121.227203 98.250885 116.540588 C 96.857056 111.219727 95.337891 105.77356 92.550232 101.086945 C 90.522156 97.665039 87.483826 95.0065 84.441711 92.469513 C 82.614929 90.893372 79.648743 90.623718 76.8573 90.623718 Z"/>
    <path id="Path-copy-26" fill="#454b4c" fill-rule="evenodd" stroke="none" d="M 86.162659 14.051056 C 84.366241 14.051056 82.771118 14.142212 81.40387 14.180176 C 78.787109 14.275116 76.212158 14.294128 73.671356 14.294128 C 72.042053 14.294128 70.427948 14.28653 68.825226 14.28653 C 59.710266 14.28653 50.948517 14.533386 42.129791 17.852753 C 23.254211 24.821899 11.46933 54.339172 21.351471 73.594543 C 25.027832 80.814331 31.358948 84.995819 38.328094 88.54306 C 49.095123 94.498169 66.071747 95.766663 78.1073 95.766663 C 90.651764 95.766663 104.711609 92.219421 115.482422 85.630066 C 123.970764 80.56369 125.235413 69.542175 124.730347 60.544952 C 124.096069 50.157684 120.423523 38.122131 114.719055 29.254059 C 112.565674 26.086609 109.652649 19.371918 102.432861 17.727417 C 96.063782 14.586548 90.518829 14.051056 86.162659 14.051056 Z"/>
    <path id="Path-copy-25" fill="#75e0b7" fill-rule="evenodd" stroke="none" d="M 49.478302 47.878693 C 45.42215 47.878693 42.2547 51.171478 42.2547 55.223816 C 42.2547 59.279999 45.42215 62.447449 49.478302 62.447449 C 53.53067 62.447449 56.823425 59.279999 56.823425 55.223816 C 56.823425 51.171478 53.53067 47.878693 49.478302 47.878693 Z"/>
    <path id="Path-copy-24" fill="#353127" fill-rule="evenodd" stroke="none" d="M 49.478241 51.171448 C 47.450165 51.171448 45.80188 52.819733 45.80188 54.844025 C 45.80188 56.997437 47.450165 58.520386 49.478241 58.520386 C 51.631653 58.520386 53.150818 56.746765 53.150818 54.844025 C 53.150818 52.819733 51.631653 51.171448 49.478241 51.171448 Z"/>
    <path id="Path-copy-23" fill="#ffffff" fill-rule="evenodd" stroke="none" d="M 46.181702 49.523163 C 44.916992 49.523163 43.773834 50.537201 43.773834 51.805695 C 43.773834 53.199524 44.916992 54.209778 46.181702 54.209778 C 47.450195 54.209778 48.589569 53.199524 48.589569 51.805695 C 48.589569 50.537201 47.450195 49.523163 46.181702 49.523163 Z"/>
    <path id="Path-copy-22" fill="#ffffff" fill-rule="evenodd" stroke="none" d="M 51.122681 60.293915 C 50.742889 60.293915 50.488434 60.544586 50.488434 60.924377 C 50.488434 61.178833 50.742889 61.558624 51.122681 61.558624 C 51.377136 61.558624 51.756927 61.178833 51.756927 60.924377 C 51.756927 60.544586 51.377136 60.41925 51.122681 60.293915 Z"/>
    <path id="Path-copy-21" fill="#ffffff" fill-rule="evenodd" stroke="none" d="M 53.150726 59.659698 C 53.025391 59.659698 52.896271 59.785004 52.896271 59.914154 C 52.896271 60.164795 53.025391 60.293945 53.150726 60.293945 C 53.276062 60.293945 53.530518 60.164795 53.530518 59.914154 C 53.530518 59.785004 53.276062 59.659698 53.150726 59.659698 Z"/>
    <path id="Path-copy-20" fill="#75e0b7" fill-rule="evenodd" stroke="none" d="M 92.929474 47.878693 C 88.877106 47.878693 85.580536 51.171478 85.580536 55.223816 C 85.580536 59.279999 88.877106 62.447449 92.929474 62.447449 C 96.981842 62.447449 100.149292 59.279999 100.149292 55.223816 C 100.149292 51.171478 96.981842 47.878693 92.929474 47.878693 Z"/>
    <path id="Path-copy-19" fill="#353127" fill-rule="evenodd" stroke="none" d="M 92.804077 51.171448 C 90.650665 51.171448 89.127716 52.819733 89.127716 54.844025 C 89.127716 56.997437 90.901337 58.520386 92.804077 58.520386 C 94.828369 58.520386 96.351318 56.746765 96.351318 54.844025 C 96.351318 52.819733 94.828369 51.296783 92.804077 51.171448 Z"/>
    <path id="Path-copy-18" fill="#ffffff" fill-rule="evenodd" stroke="none" d="M 89.382202 49.523163 C 88.113708 49.523163 87.103455 50.537201 87.103455 51.805695 C 87.103455 53.199524 88.113708 54.209778 89.382202 54.209778 C 90.650696 54.209778 91.79007 53.199524 91.79007 51.805695 C 91.79007 50.662537 90.901367 49.652283 89.382202 49.523163 Z"/>
    <path id="Path-copy-17" fill="#ffffff" fill-rule="evenodd" stroke="none" d="M 94.323181 60.293915 C 94.068726 60.293915 93.688934 60.544586 93.688934 60.924377 C 93.688934 61.178833 94.068726 61.558624 94.323181 61.558624 C 94.702972 61.558624 94.957428 61.178833 94.957428 60.924377 C 94.957428 60.544586 94.828308 60.41925 94.323181 60.293915 Z"/>
    <path id="Path-copy-16" fill="#ffffff" fill-rule="evenodd" stroke="none" d="M 96.351227 59.659698 C 96.222107 59.659698 96.096771 59.785004 96.096771 59.914154 C 96.096771 60.164795 96.222107 60.293945 96.351227 60.293945 C 96.476563 60.293945 96.731018 60.164795 96.731018 59.914154 C 96.731018 59.785004 96.601898 59.659698 96.351227 59.659698 Z"/>
    <path id="Path-copy-15" fill="#ff8a8a" fill-rule="evenodd" stroke="none" d="M 68.824463 60.631927 C 67.943359 60.631927 67.123016 60.726898 66.579895 61.053497 C 66.450775 62.067535 68.478851 63.461365 69.367554 63.712036 C 69.530884 63.772797 69.720764 63.799377 69.925842 63.799377 C 71.460205 63.799377 73.88327 62.249847 73.545258 60.799042 L 72.151428 60.799042 C 71.285492 60.799042 70.001801 60.631927 68.824463 60.631927 Z"/>
    <path id="Path-copy-14" fill="none" stroke="none" d="M 65.056976 68.39859 C 65.311432 69.792419 67.719299 70.806458 68.858673 69.92157 C 69.618256 69.161987 70.252502 67.513702 70.127167 66.245178 C 71.012085 67.259247 70.377838 69.287323 72.026123 69.92157 C 73.294617 70.555817 75.068237 70.046906 75.318878 68.653076"/>
    <path id="Path-copy-13" fill="none" stroke="#ce9f9f" stroke-width="0.524934" stroke-linecap="round" stroke-linejoin="round" d="M 65.056976 68.39859 C 65.311432 69.792419 67.719299 70.806458 68.858673 69.92157 C 69.618256 69.161987 70.252502 67.513702 70.127167 66.245178 C 71.012085 67.259247 70.377838 69.287323 72.026123 69.92157 C 73.294617 70.555817 75.068237 70.046906 75.318878 68.653076"/>
    <path id="Path-copy-12" fill="none" stroke="none" d="M 25.787567 63.461395 C 24.013947 62.318237 21.351593 62.318237 19.452667 61.81311 C 13.752014 60.544617 8.051361 59.025452 2.221588 57.886078"/>
    <path id="Path-copy-11" fill="none" stroke="#bcb7b7" stroke-width="0.524934" stroke-linecap="round" stroke-linejoin="round" d="M 25.787567 63.461395 C 24.013947 62.318237 21.351593 62.318237 19.452667 61.81311 C 13.752014 60.544617 8.051361 59.025452 2.221588 57.886078"/>
    <path id="Path-copy-10" fill="none" stroke="none" d="M 26.038208 68.147919 C 24.139282 67.513672 21.480743 68.018799 19.578003 68.147919 C 13.752014 68.39859 7.67157 68.018799 1.841797 68.39859"/>
    <path id="Path-copy-9" fill="none" stroke="#bcb7b7" stroke-width="0.524934" stroke-linecap="round" stroke-linejoin="round" d="M 26.038208 68.147919 C 24.139282 67.513672 21.480743 68.018799 19.578003 68.147919 C 13.752014 68.39859 7.67157 68.018799 1.841797 68.39859"/>
    <path id="Path-copy-8" fill="none" stroke="none" d="M 29.080261 72.454712 C 27.052185 72.454712 24.648132 73.848541 22.874512 74.482788 C 17.42453 76.6362 11.723877 78.280701 6.277679 80.688568"/>
    <path id="Path-copy-7" fill="none" stroke="#bcb7b7" stroke-width="0.524934" stroke-linecap="round" stroke-linejoin="round" d="M 29.080261 72.454712 C 27.052185 72.454712 24.648132 73.848541 22.874512 74.482788 C 17.42453 76.6362 11.723877 78.280701 6.277679 80.688568"/>
    <path id="Path-copy-6" fill="none" stroke="none" d="M 114.33783 62.318237 C 115.986145 61.178864 118.773804 61.178864 120.672729 60.799072 C 126.373352 59.530579 132.074036 57.886078 137.903809 56.746704"/>
    <path id="Path-copy-5" fill="none" stroke="#bcb7b7" stroke-width="0.524934" stroke-linecap="round" stroke-linejoin="round" d="M 114.33783 62.318237 C 115.986145 61.178864 118.773804 61.178864 120.672729 60.799072 C 126.373352 59.530579 132.074036 57.886078 137.903809 56.746704"/>
    <path id="Path-copy-4" fill="none" stroke="none" d="M 113.958069 67.133911 C 115.860779 66.499664 118.519348 66.879456 120.422058 67.133911 C 126.373413 67.259216 132.328491 66.879456 138.158264 67.259216"/>
    <path id="Path-copy-3" fill="none" stroke="#bcb7b7" stroke-width="0.524934" stroke-linecap="round" stroke-linejoin="round" d="M 113.958069 67.133911 C 115.860779 66.499664 118.519348 66.879456 120.422058 67.133911 C 126.373413 67.259216 132.328491 66.879456 138.158264 67.259216"/>
    <path id="Path-copy-2" fill="none" stroke="none" d="M 110.919739 71.315338 C 113.073181 71.315338 115.351929 72.834503 117.125549 73.46875 C 122.700867 75.493042 128.401489 77.266663 133.722351 79.549194"/>
    <path id="Path-copy" fill="none" stroke="#bcb7b7" stroke-width="0.524934" stroke-linecap="round" stroke-linejoin="round" d="M 110.919739 71.315338 C 113.073181 71.315338 115.351929 72.834503 117.125549 73.46875 C 122.700867 75.493042 128.401489 77.266663 133.722351 79.549194"/>
</svg>
