<?xml version="1.0" encoding="UTF-8"?>
<!-- Generated by Pixelmator Pro 3.4.1 -->
<svg width="142" height="140" viewBox="0 0 142 140" xmlns="http://www.w3.org/2000/svg">
    <path id="Path-copy-32" fill="#6d6760" fill-rule="evenodd" stroke="none" d="M 23.505066 2.884705 C 23.402527 2.884705 23.299988 2.892273 23.197449 2.903687 C 20.53894 3.408813 19.395752 7.970093 18.76532 10.123505 C 15.977661 17.726898 16.737244 26.340515 17.876587 34.319916 C 18.256348 37.36203 18.636169 41.923309 20.789551 44.331177 C 21.716248 45.322418 22.760681 45.717407 23.846863 45.717407 C 26.923157 45.717407 30.318481 42.527161 32.190857 40.654816 C 35.867249 36.982239 40.048706 33.560333 43.466858 29.633301 C 45.115112 27.9888 47.014099 25.831604 47.268555 23.298401 C 47.52301 21.52478 47.014099 20.260071 45.240479 19.246033 C 45.115112 17.726898 42.45282 16.078583 41.313416 15.18988 C 37.511719 11.77179 33.07959 9.489227 29.277893 6.450928 C 27.948608 5.360931 25.692688 2.884705 23.505066 2.884705 Z"/>
    <path id="Path-copy-31" fill="#ffbbbb" fill-rule="evenodd" stroke="none" d="M 24.971069 10.252655 C 23.577271 11.517365 23.072144 13.670776 22.563232 15.444397 C 22.058105 18.10672 21.169373 21.019714 21.169373 23.678253 C 21.044067 29.128235 20.40979 36.222717 22.437866 41.163788 C 26.110474 40.654846 27.378967 37.362091 29.407043 34.828888 C 31.180664 32.546356 33.07959 30.013153 34.47345 27.47995 C 34.85321 26.465912 35.487488 25.706329 35.738159 24.692291 C 34.47345 24.3125 32.570679 21.779297 31.811096 21.019714 C 30.166626 19.625885 29.532349 17.9776 28.263855 16.203979 C 26.870056 14.179688 25.985107 12.406067 24.971069 10.252655 Z"/>
    <path id="Path-copy-30" fill="#6d6760" fill-rule="evenodd" stroke="none" d="M 115.502136 1.346527 C 113.352478 1.346527 111.157288 3.853149 109.85083 4.802612 C 106.052917 7.844727 101.617004 10.252594 97.815308 13.54538 C 96.675903 14.559418 94.017395 16.078583 93.888245 17.726868 C 92.114624 18.611786 91.609497 19.88028 91.864014 21.779236 C 92.114624 24.312439 94.017395 26.340515 95.661865 28.114136 C 99.083801 31.915833 103.265259 35.333954 106.8125 39.010315 C 108.684875 40.88266 112.14856 44.069122 115.213501 44.069122 C 116.292053 44.069122 117.321289 43.674133 118.213806 42.682892 C 120.492554 40.275024 120.747009 35.713745 121.252136 32.675415 C 122.395325 24.82135 123.154907 16.078583 120.367249 8.479004 C 119.732971 6.450897 118.593628 1.889618 115.931274 1.384521 C 115.790771 1.357941 115.646423 1.346527 115.502136 1.346527 Z"/>
    <path id="Path-copy-29" fill="#ffbbbb" fill-rule="evenodd" stroke="none" d="M 114.157715 8.60437 C 113.147522 10.883118 112.258789 12.656738 110.864929 14.684814 C 109.600281 16.458435 108.966003 17.9776 107.317688 19.371429 C 106.558167 20.260132 104.65918 22.793335 103.390686 23.047791 C 103.645142 24.187164 104.279419 24.946747 104.65918 25.960785 C 106.05304 28.493958 107.951965 31.027161 109.725586 33.180573 C 111.753662 35.713776 113.018372 39.010345 116.694763 39.515472 C 118.718994 34.574402 118.088562 27.479919 117.959412 22.159088 C 117.959412 19.371429 116.945374 16.583771 116.565613 13.925232 C 116.060486 12.151611 115.551575 9.86908 114.157715 8.60437 Z"/>
    <path id="Path-copy-28" fill="#f4dfc9" fill-rule="evenodd" stroke="none" d="M 77.496216 90.624359 C 76.022644 90.624359 74.59082 90.696533 73.364136 90.696533 C 69.186401 90.696533 65.384705 91.4599 61.077881 92.090363 C 59.046021 92.382782 57.086304 92.895508 55.768433 92.895508 C 55.358276 92.895508 55.012634 92.84613 54.742981 92.724609 C 54.108765 95.132477 52.844055 97.285889 52.209839 99.693756 C 50.307068 105.7742 49.167664 112.234436 47.903015 118.444 C 47.394104 121.102509 47.64856 123.764832 47.64856 126.42337 C 47.64856 128.322327 47.268738 130.479523 48.153625 132.124023 C 49.167664 134.406555 50.941284 135.92572 53.223877 137.065094 C 58.544739 139.826172 65.168274 140.130005 71.423401 140.130005 C 73.212219 140.130005 74.970642 140.107208 76.660706 140.107208 C 81.727112 140.107208 86.163025 139.598297 90.974976 138.458923 C 93.257507 137.824677 97.944153 136.559967 99.588623 134.657227 C 100.222839 133.897644 100.097534 132.503815 100.222839 131.489777 C 100.477356 126.677826 100.222839 121.227844 98.958191 116.541229 C 97.564331 111.220367 95.916077 105.7742 93.257507 101.087585 C 91.100281 97.66568 88.187317 95.007141 85.148987 92.470154 C 83.238647 90.894012 80.295288 90.624359 77.496216 90.624359 Z"/>
    <path id="Path-copy-27" fill="#ffe8cc" fill-rule="evenodd" stroke="none" d="M 86.797058 14.050598 C 84.996826 14.050598 83.386536 14.141754 81.981323 14.179718 C 79.364563 14.274658 76.793396 14.293671 74.248779 14.293671 C 72.623291 14.293671 71.009155 14.286072 69.402649 14.286072 C 60.28772 14.286072 51.529724 14.532928 42.707214 17.852295 C 23.831665 24.821442 12.175903 54.338715 21.928894 73.594086 C 25.605286 80.813873 31.940186 84.995361 38.905518 88.542603 C 49.676392 94.497711 66.77832 95.766205 78.813843 95.766205 C 91.354553 95.766205 105.418152 92.218964 116.185181 85.629608 C 124.548157 80.563232 125.812866 69.541718 125.307739 60.544495 C 124.798828 50.157227 121.126282 38.121674 115.425598 29.253601 C 113.146912 26.086151 110.359253 19.37146 103.010315 17.726959 C 96.641235 14.58609 91.160828 14.050598 86.797058 14.050598 Z"/>
    <path id="Path-copy-26" fill="#6d6760" fill-rule="evenodd" stroke="none" d="M 82.334595 25.345612 C 80.997742 25.345612 79.820435 25.417786 78.813965 25.451965 C 77.291016 25.493744 75.783264 25.501343 74.286865 25.501343 C 72.900635 25.501343 71.521973 25.493744 70.154785 25.493744 C 63.269165 25.493744 56.600037 25.695038 50.056274 28.114288 C 36.247131 33.180695 27.633484 54.843903 34.727966 69.032867 C 37.51178 74.228394 42.073059 77.141388 47.143311 80.054382 C 55.122681 84.36499 67.538025 85.249908 76.280762 85.249908 C 85.399536 85.249908 95.790588 82.716705 103.644653 77.90097 C 109.850403 74.103058 110.739136 66.119873 110.359314 59.530518 C 109.850403 51.930939 107.191895 43.062836 103.010376 36.47348 C 101.741882 34.194733 99.71759 29.253662 94.396729 27.988953 C 89.653198 25.752014 85.543823 25.345612 82.334595 25.345612 Z"/>
    <path id="Path-copy-25" fill="#99e2ff" fill-rule="evenodd" stroke="none" d="M 50.181702 47.878723 C 46.129333 47.878723 42.832764 51.171509 42.832764 55.223846 C 42.832764 59.279999 46.129333 62.447449 50.181702 62.447449 C 54.237854 62.447449 57.401489 59.279999 57.401489 55.223846 C 57.401489 51.171509 54.237854 47.878723 50.181702 47.878723 Z"/>
    <path id="Path-copy-24" fill="#353127" fill-rule="evenodd" stroke="none" d="M 50.056396 51.171509 C 47.903015 51.171509 46.380005 52.819794 46.380005 54.844086 C 46.380005 56.997498 48.153625 58.520447 50.056396 58.520447 C 52.080688 58.520447 53.603638 56.746826 53.603638 54.844086 C 53.603638 52.819794 52.080688 51.296844 50.056396 51.171509 Z"/>
    <path id="Path-copy-23" fill="#ffffff" fill-rule="evenodd" stroke="none" d="M 46.759827 49.523224 C 45.495117 49.523224 44.481079 50.537262 44.481079 51.805756 C 44.481079 53.199585 45.495117 54.209839 46.759827 54.209839 C 48.153625 54.209839 49.167664 53.199585 49.167664 51.805756 C 49.167664 50.537262 48.153625 49.523224 46.759827 49.523224 Z"/>
    <path id="Path-copy-22" fill="#ffffff" fill-rule="evenodd" stroke="none" d="M 51.700928 60.294128 C 51.450256 60.294128 51.070496 60.5448 51.070496 60.924591 C 51.070496 61.179047 51.450256 61.558838 51.700928 61.558838 C 52.080688 61.558838 52.335144 61.179047 52.335144 60.924591 C 52.335144 60.5448 52.080688 60.419464 51.700928 60.294128 Z"/>
    <path id="Path-copy-21" fill="#ffffff" fill-rule="evenodd" stroke="none" d="M 53.85437 59.659882 C 53.603699 59.659882 53.474548 59.785217 53.474548 59.914337 C 53.474548 60.165009 53.603699 60.294128 53.85437 60.294128 C 53.983459 60.294128 54.108826 60.165009 54.108826 59.914337 C 54.108826 59.785217 53.983459 59.659882 53.85437 59.659882 Z"/>
    <path id="Path-copy-20" fill="#99e2ff" fill-rule="evenodd" stroke="none" d="M 93.383118 47.878723 C 89.326965 47.878723 86.03418 51.171509 86.03418 55.223846 C 86.03418 59.279999 89.326965 62.447449 93.383118 62.447449 C 97.435486 62.447449 100.602905 59.279999 100.602905 55.223846 C 100.602905 51.171509 97.435486 47.878723 93.383118 47.878723 Z"/>
    <path id="Path-copy-19" fill="#353127" fill-rule="evenodd" stroke="none" d="M 93.383118 51.171509 C 91.355042 51.171509 89.710571 52.819794 89.710571 54.844086 C 89.710571 56.997498 91.484192 58.520447 93.383118 58.520447 C 95.411194 58.520447 97.055725 56.746826 97.055725 54.844086 C 97.055725 52.819794 95.411194 51.296844 93.383118 51.171509 Z"/>
    <path id="Path-copy-18" fill="#ffffff" fill-rule="evenodd" stroke="none" d="M 90.090332 49.523224 C 88.821838 49.523224 87.682495 50.537262 87.682495 51.805756 C 87.682495 53.199585 88.821838 54.209839 90.090332 54.209839 C 91.355042 54.209839 92.494385 53.199585 92.494385 51.805756 C 92.494385 50.662598 91.484192 49.652344 90.090332 49.523224 Z"/>
    <path id="Path-copy-17" fill="#ffffff" fill-rule="evenodd" stroke="none" d="M 95.031433 60.294128 C 94.647888 60.294128 94.397217 60.5448 94.397217 60.924591 C 94.397217 61.179047 94.647888 61.558838 95.031433 61.558838 C 95.282104 61.558838 95.661926 61.179047 95.661926 60.924591 C 95.661926 60.5448 95.411255 60.419464 95.031433 60.294128 Z"/>
    <path id="Path-copy-16" fill="#ffffff" fill-rule="evenodd" stroke="none" d="M 97.055725 59.659882 C 96.93042 59.659882 96.675964 59.785217 96.675964 59.914337 C 96.675964 60.165009 96.93042 60.294128 97.055725 60.294128 C 97.184875 60.294128 97.310181 60.165009 97.310181 59.914337 C 97.310181 59.785217 97.184875 59.659882 97.055725 59.659882 Z"/>
    <path id="Path-copy-15" fill="#ff8a8a" fill-rule="evenodd" stroke="none" d="M 69.494202 60.632141 C 68.628296 60.632141 67.826904 60.727112 67.283813 61.053711 C 67.158508 62.067749 69.057434 63.461578 69.946167 63.71225 C 70.109436 63.77301 70.299316 63.799591 70.50824 63.799591 C 72.042603 63.799591 74.477051 62.250061 74.25293 60.799255 L 72.859131 60.799255 C 71.917236 60.799255 70.644958 60.632141 69.494202 60.632141 Z"/>
    <path id="Path-copy-14" fill="none" stroke="none" d="M 65.639282 68.398895 C 66.019104 69.792725 68.426941 70.806763 69.437195 69.921844 C 70.325928 69.162262 70.960144 67.513977 70.705688 66.245483 C 71.719727 67.259521 71.08551 69.287598 72.604675 69.921844 C 73.873169 70.556091 75.64679 70.04718 76.02655 68.653351"/>
    <path id="Path-copy-13" fill="none" stroke="#c9adad" stroke-width="0.524934" stroke-linecap="round" stroke-linejoin="round" d="M 65.639282 68.398895 C 66.019104 69.792725 68.426941 70.806763 69.437195 69.921844 C 70.325928 69.162262 70.960144 67.513977 70.705688 66.245483 C 71.719727 67.259521 71.08551 69.287598 72.604675 69.921844 C 73.873169 70.556091 75.64679 70.04718 76.02655 68.653351"/>
    <path id="Path-copy-12" fill="none" stroke="none" d="M 26.364807 63.461578 C 24.716492 62.31839 21.928833 62.31839 20.029907 61.813293 C 14.329285 60.544769 8.628601 59.025635 2.802612 57.886261"/>
    <path id="Path-copy-11" fill="none" stroke="#bcb7b7" stroke-width="0.524934" stroke-linecap="round" stroke-linejoin="round" d="M 26.364807 63.461578 C 24.716492 62.31839 21.928833 62.31839 20.029907 61.813293 C 14.329285 60.544769 8.628601 59.025635 2.802612 57.886261"/>
    <path id="Path-copy-10" fill="none" stroke="none" d="M 26.744568 68.148254 C 24.845642 67.513977 22.183289 68.019104 20.284363 68.148254 C 14.329285 68.398895 8.374146 68.019104 2.548157 68.398895"/>
    <path id="Path-copy-9" fill="none" stroke="#bcb7b7" stroke-width="0.524934" stroke-linecap="round" stroke-linejoin="round" d="M 26.744568 68.148254 C 24.845642 67.513977 22.183289 68.019104 20.284363 68.148254 C 14.329285 68.398895 8.374146 68.019104 2.548157 68.398895"/>
    <path id="Path-copy-8" fill="none" stroke="none" d="M 29.786743 72.455078 C 27.633301 72.455078 25.350769 73.848907 23.577148 74.483185 C 18.001831 76.636566 12.301208 78.281067 6.980347 80.688934"/>
    <path id="Path-copy-7" fill="none" stroke="#bcb7b7" stroke-width="0.524934" stroke-linecap="round" stroke-linejoin="round" d="M 29.786743 72.455078 C 27.633301 72.455078 25.350769 73.848907 23.577148 74.483185 C 18.001831 76.636566 12.301208 78.281067 6.980347 80.688934"/>
    <path id="Path-copy-6" fill="none" stroke="none" d="M 114.921204 62.31839 C 116.694824 61.179016 119.353333 61.179016 121.252319 60.799225 C 126.956726 59.530731 132.65741 57.88623 138.483337 56.746887"/>
    <path id="Path-copy-5" fill="none" stroke="#bcb7b7" stroke-width="0.524934" stroke-linecap="round" stroke-linejoin="round" d="M 114.921204 62.31839 C 116.694824 61.179016 119.353333 61.179016 121.252319 60.799225 C 126.956726 59.530731 132.65741 57.88623 138.483337 56.746887"/>
    <path id="Path-copy-4" fill="none" stroke="none" d="M 114.666748 67.134186 C 116.565674 66.499939 119.228027 66.87973 121.126953 67.134186 C 126.956726 67.259521 133.03717 66.87973 138.863159 67.259521"/>
    <path id="Path-copy-3" fill="none" stroke="#bcb7b7" stroke-width="0.524934" stroke-linecap="round" stroke-linejoin="round" d="M 114.666748 67.134186 C 116.565674 66.499939 119.228027 66.87973 121.126953 67.134186 C 126.956726 67.259521 133.03717 66.87973 138.863159 67.259521"/>
    <path id="Path-copy-2" fill="none" stroke="none" d="M 111.624573 71.315704 C 113.652649 71.315704 116.060547 72.834869 117.834167 73.469116 C 123.280334 75.493408 128.981018 77.267029 134.430969 79.549561"/>
    <path id="Path-copy" fill="none" stroke="#bcb7b7" stroke-width="0.524934" stroke-linecap="round" stroke-linejoin="round" d="M 111.624573 71.315704 C 113.652649 71.315704 116.060547 72.834869 117.834167 73.469116 C 123.280334 75.493408 128.981018 77.267029 134.430969 79.549561"/>
</svg>
