<?xml version="1.0" encoding="UTF-8"?>
<!-- Generated by Pixelmator Pro 3.4.1 -->
<svg width="101" height="98" viewBox="0 0 101 98" xmlns="http://www.w3.org/2000/svg">
    <path id="Path-copy-32" fill="#ede2dd" fill-rule="evenodd" stroke="none" d="M 16.43219 1.392395 C 16.327209 1.392395 16.224854 1.400269 16.119873 1.41864 C 14.282593 1.681091 13.492554 4.919952 13.056885 6.321533 C 11.130371 11.573486 11.655273 17.615479 12.442688 23.043304 C 12.794373 25.145691 12.967651 28.297913 14.545044 29.95932 C 15.161865 30.644348 15.873169 30.919952 16.61853 30.919952 C 18.734009 30.919952 21.130371 28.71521 22.424316 27.421265 C 24.875793 24.883209 27.765503 22.518372 30.127747 19.891083 C 31.266846 18.665344 32.579163 17.263794 32.755005 15.513123 C 32.930908 14.200806 32.579163 13.324158 31.353455 12.625977 C 31.266846 11.573486 29.426941 10.437012 28.639526 9.822815 C 26.014893 7.458008 22.94928 5.883209 20.32196 3.780823 C 19.424316 3.045929 17.912537 1.392395 16.43219 1.392395 Z"/>
    <path id="Path-copy-31" fill="#ff8a8a" fill-rule="evenodd" stroke="none" d="M 17.345581 6.408142 C 16.382324 7.28479 16.033264 8.683716 15.681519 9.998688 C 15.419067 11.835938 14.718262 13.851685 14.718262 15.688965 C 14.631653 19.452759 14.193359 24.355652 15.59491 27.770325 C 18.132996 27.421265 19.009644 25.145691 20.411194 23.39502 C 21.636902 21.817566 22.94928 20.066925 23.912537 18.316284 C 24.174988 17.702087 24.613281 17.001312 24.789124 16.389771 C 23.912537 16.127319 22.600159 14.376648 22.072632 13.851685 C 20.936157 12.888458 20.497803 11.749329 19.621155 10.523621 C 18.660522 9.12204 18.046387 7.985565 17.345581 6.408142 Z"/>
    <path id="Path-copy-30" fill="#ede2dd" fill-rule="evenodd" stroke="none" d="M 80.962402 1.392395 C 79.555542 1.392395 78.043762 3.045929 77.143494 3.780823 C 74.516174 5.883209 71.366577 7.458008 68.825867 9.822815 C 68.038513 10.437012 66.198608 11.573486 66.025391 12.625977 C 64.9729 13.324158 64.53717 14.200806 64.623779 15.513123 C 64.886292 17.263794 66.198608 18.665344 67.251099 19.891083 C 69.702515 22.518372 72.503052 24.883209 75.043762 27.421265 C 76.337708 28.71521 78.684143 30.919952 80.81012 30.919952 C 81.560791 30.919952 82.282593 30.644348 82.923035 29.95932 C 84.411194 28.297913 84.673645 25.145691 85.022766 23.043304 C 85.723511 17.615479 86.337708 11.573486 84.32196 6.321533 C 83.886292 4.919952 83.096252 1.681091 81.258972 1.41864 C 81.161865 1.400269 81.062134 1.392395 80.962402 1.392395 Z"/>
    <path id="Path-copy-29" fill="#ff8a8a" fill-rule="evenodd" stroke="none" d="M 80.033264 6.408142 C 79.419067 7.985565 78.720886 9.12204 77.757629 10.523621 C 76.881042 11.749329 76.442688 12.888458 75.392822 13.851685 C 74.778625 14.376648 73.466309 16.127319 72.592285 16.389771 C 72.941406 17.001312 73.290466 17.702087 73.466309 18.316284 C 74.516174 20.066925 75.741882 21.817566 76.967651 23.39502 C 78.369202 25.145691 79.24585 27.421265 81.783875 27.770325 C 83.272095 24.355652 82.833801 19.452759 82.660522 15.688965 C 82.660522 13.851685 82.046387 11.835938 81.697266 9.998688 C 81.345581 8.683716 81.08313 7.28479 80.033264 6.408142 Z"/>
    <path id="Path-copy-28" fill="#ede2dd" fill-rule="evenodd" stroke="none" d="M 54.850403 63.086639 C 53.797913 63.086639 52.774292 63.144379 51.929138 63.144379 C 48.952759 63.144379 46.325439 63.669342 43.34906 64.107635 C 41.908142 64.244141 40.519714 64.65094 39.65094 64.65094 C 39.409424 64.65094 39.209961 64.619446 39.060364 64.543335 C 38.62207 66.207397 37.745422 67.695587 37.309692 69.359619 C 35.994751 73.475098 35.207336 77.939667 34.330688 82.231018 C 33.981628 84.154907 34.068237 85.994781 34.068237 87.832062 C 34.068237 89.147003 33.89502 90.545959 34.419922 91.771698 C 35.207336 93.349121 36.433044 94.398987 37.921265 95.186401 C 41.860901 97.120758 46.67981 97.296631 51.178467 97.296631 C 52.178467 97.296631 53.16272 97.288757 54.118103 97.288757 C 57.619446 97.288757 60.685059 96.939667 64.099731 96.149628 C 65.587952 95.713959 68.916016 94.837311 69.965881 93.524963 C 70.404175 92.997406 70.314941 92.036774 70.404175 91.335999 C 70.666687 87.921295 70.404175 84.244141 69.527588 80.916046 C 68.564331 77.328125 67.514465 73.475098 65.587952 70.322876 C 64.18634 67.958038 62.086609 66.031525 59.984253 64.280884 C 58.745422 63.267761 56.748047 63.086639 54.850403 63.086639 Z"/>
    <path id="Path-copy-27" fill="#ffffff" fill-rule="evenodd" stroke="none" d="M 61.521423 9.98819 C 60.138245 9.98819 58.915161 10.090546 57.883667 10.174561 C 56.503052 10.211304 55.138245 10.221802 53.789124 10.221802 C 52.114624 10.221802 50.458435 10.206055 48.820618 10.206055 C 42.655273 10.206055 36.718262 10.434387 30.741882 12.625977 C 17.697266 17.439636 9.552917 37.927826 16.382324 51.148285 C 18.923035 56.224396 23.29834 59.027557 28.114624 61.565613 C 35.555542 65.594482 47.287842 66.468506 55.605408 66.468506 C 64.274719 66.468506 73.991272 64.106293 81.434814 59.465881 C 87.300964 55.961945 88.174988 48.434387 87.825867 42.216522 C 87.387573 34.951447 84.849548 26.63385 80.907288 20.505249 C 79.419067 18.316284 77.405945 13.762451 72.416443 12.536743 C 68.182861 10.450134 64.479431 9.98819 61.521423 9.98819 Z"/>
    <path id="Path-copy-26" fill="#efc822" fill-rule="evenodd" stroke="none" d="M 35.820618 33.549866 C 33.017517 33.549866 30.828491 35.82547 30.828491 38.628601 C 30.828491 41.342529 33.017517 43.618103 35.820618 43.618103 C 38.621155 43.618103 40.89679 41.342529 40.89679 38.628601 C 40.89679 35.82547 38.621155 33.549866 35.820618 33.549866 Z"/>
    <path id="Path-copy-25" fill="#353127" fill-rule="evenodd" stroke="none" d="M 35.820618 35.738831 C 34.419067 35.738831 33.279968 36.87796 33.279968 38.276917 C 33.279968 39.678467 34.419067 40.817596 35.820618 40.817596 C 37.308838 40.817596 38.358704 39.591858 38.358704 38.276917 C 38.358704 36.964569 37.308838 35.738831 35.820618 35.738831 Z"/>
    <path id="Path-copy-24" fill="#ffffff" fill-rule="evenodd" stroke="none" d="M 33.542419 34.599731 C 32.668396 34.599731 31.878418 35.387146 31.878418 36.263794 C 31.878418 37.22702 32.668396 37.927826 33.542419 37.927826 C 34.419067 37.927826 35.206482 37.22702 35.206482 36.263794 C 35.206482 35.387146 34.419067 34.599731 33.542419 34.599731 Z"/>
    <path id="Path-copy-23" fill="#ffffff" fill-rule="evenodd" stroke="none" d="M 36.957153 42.129913 C 36.694641 42.129913 36.518799 42.305786 36.518799 42.568237 C 36.518799 42.741455 36.694641 43.006561 36.957153 43.006561 C 37.132996 43.006561 37.395447 42.741455 37.395447 42.568237 C 37.395447 42.305786 37.132996 42.129913 36.957153 42.129913 Z"/>
    <path id="Path-copy-22" fill="#ffffff" fill-rule="evenodd" stroke="none" d="M 38.450562 41.620728 C 38.416443 41.620728 38.384949 41.641724 38.358704 41.691589 C 38.272095 41.691589 38.182861 41.780853 38.182861 41.867462 C 38.182861 41.954071 38.272095 42.129913 38.358704 42.129913 C 38.445313 42.129913 38.621155 41.954071 38.621155 41.867462 C 38.621155 41.74408 38.534546 41.620728 38.450562 41.620728 Z"/>
    <path id="Path-copy-21" fill="#6aeae1" fill-rule="evenodd" stroke="none" d="M 65.849548 33.549866 C 63.049011 33.549866 60.770752 35.82547 60.770752 38.628601 C 60.770752 41.342529 63.049011 43.618103 65.849548 43.618103 C 68.650024 43.618103 70.83905 41.342529 70.83905 38.628601 C 70.83905 35.82547 68.650024 33.549866 65.849548 33.549866 Z"/>
    <path id="Path-copy-20" fill="#353127" fill-rule="evenodd" stroke="none" d="M 65.762878 35.738831 C 64.274719 35.738831 63.222229 36.87796 63.222229 38.276917 C 63.222229 39.678467 64.447937 40.817596 65.762878 40.817596 C 67.161865 40.817596 68.214355 39.591858 68.214355 38.276917 C 68.214355 36.964569 67.161865 35.82547 65.762878 35.738831 Z"/>
    <path id="Path-copy-19" fill="#ffffff" fill-rule="evenodd" stroke="none" d="M 63.398071 34.688965 C 62.521423 34.688965 61.823242 35.387146 61.823242 36.263794 C 61.823242 37.140411 62.521423 37.927826 63.398071 37.927826 C 64.274719 37.927826 65.062134 37.140411 65.062134 36.263794 C 65.062134 35.387146 64.447937 34.688965 63.398071 34.688965 Z"/>
    <path id="Path-copy-18" fill="#ffffff" fill-rule="evenodd" stroke="none" d="M 66.812744 42.129913 C 66.636902 42.129913 66.374451 42.305786 66.374451 42.568237 C 66.374451 42.741455 66.636902 43.006561 66.812744 43.006561 C 67.075256 43.006561 67.251099 42.741455 67.251099 42.568237 C 67.251099 42.305786 67.161865 42.129913 66.812744 42.129913 Z"/>
    <path id="Path-copy-17" fill="#ffffff" fill-rule="evenodd" stroke="none" d="M 68.345581 41.620728 C 68.308838 41.620728 68.264221 41.641724 68.214355 41.691589 C 68.125122 41.691589 68.038513 41.780853 68.038513 41.867462 C 68.038513 41.954071 68.125122 42.129913 68.214355 42.129913 C 68.300964 42.129913 68.476807 41.954071 68.476807 41.867462 C 68.476807 41.74408 68.43219 41.620728 68.345581 41.620728 Z"/>
    <path id="Path-copy-16" fill="#ff8a8a" fill-rule="evenodd" stroke="none" d="M 49.356079 42.206024 C 48.684143 42.206024 48.046387 42.282166 47.639526 42.568237 C 47.550293 43.179779 48.951904 44.318909 49.56604 44.405518 C 49.678894 44.44751 49.81012 44.465881 49.951904 44.465881 C 51.009644 44.465881 52.686768 43.387146 52.453186 42.305786 L 51.489929 42.305786 C 50.930908 42.305786 50.122498 42.206024 49.356079 42.206024 Z"/>
    <path id="Path-copy-15" fill="none" stroke="none" d="M 46.587036 47.644348 C 46.762878 48.696838 48.426941 49.397644 49.214355 48.783478 C 49.739258 48.258545 50.177612 47.119415 50.091003 46.245392 C 50.702515 46.946198 50.264221 48.345154 51.40332 48.783478 C 52.279968 49.221771 53.505676 48.870087 53.678894 47.909454"/>
    <path id="Path-copy-14" fill="none" stroke="#ce9f9f" stroke-width="0.524934" stroke-linecap="round" stroke-linejoin="round" d="M 46.587036 47.644348 C 46.762878 48.696838 48.426941 49.397644 49.214355 48.783478 C 49.739258 48.258545 50.177612 47.119415 50.091003 46.245392 C 50.702515 46.946198 50.264221 48.345154 51.40332 48.783478 C 52.279968 49.221771 53.505676 48.870087 53.678894 47.909454"/>
    <path id="Path-copy-13" fill="none" stroke="none" d="M 19.447937 44.318909 C 18.222229 43.531494 16.382324 43.531494 15.070007 43.179779 C 11.130371 42.305786 7.190735 41.253296 3.161865 40.465881"/>
    <path id="Path-copy-12" fill="none" stroke="#bcb7b7" stroke-width="0.524934" stroke-linecap="round" stroke-linejoin="round" d="M 19.447937 44.318909 C 18.222229 43.531494 16.382324 43.531494 15.070007 43.179779 C 11.130371 42.305786 7.190735 41.253296 3.161865 40.465881"/>
    <path id="Path-copy-11" fill="none" stroke="none" d="M 19.621155 47.557739 C 18.308838 47.119415 16.471558 47.47113 15.156616 47.557739 C 11.130371 47.644348 6.928284 47.47113 2.899414 47.644348"/>
    <path id="Path-copy-10" fill="none" stroke="#bcb7b7" stroke-width="0.524934" stroke-linecap="round" stroke-linejoin="round" d="M 19.621155 47.557739 C 18.308838 47.119415 16.471558 47.47113 15.156616 47.557739 C 11.130371 47.644348 6.928284 47.47113 2.899414 47.644348"/>
    <path id="Path-copy-9" fill="none" stroke="none" d="M 21.723511 50.44751 C 20.32196 50.44751 18.660522 51.410767 17.434814 51.849091 C 13.668396 53.248016 9.72876 54.473755 5.965027 56.137787"/>
    <path id="Path-copy-8" fill="none" stroke="#bcb7b7" stroke-width="0.524934" stroke-linecap="round" stroke-linejoin="round" d="M 21.723511 50.44751 C 20.32196 50.44751 18.660522 51.410767 17.434814 51.849091 C 13.668396 53.248016 9.72876 54.473755 5.965027 56.137787"/>
    <path id="Path-copy-7" fill="none" stroke="none" d="M 80.644775 43.442261 C 81.783875 42.654846 83.710388 42.654846 85.022766 42.305786 C 88.962402 41.429138 92.902039 40.379272 96.930908 39.591858"/>
    <path id="Path-copy-6" fill="none" stroke="#bcb7b7" stroke-width="0.524934" stroke-linecap="round" stroke-linejoin="round" d="M 80.644775 43.442261 C 81.783875 42.654846 83.710388 42.654846 85.022766 42.305786 C 88.962402 41.429138 92.902039 40.379272 96.930908 39.591858"/>
    <path id="Path-copy-5" fill="none" stroke="none" d="M 80.382324 46.770355 C 81.697266 46.332031 83.534546 46.683716 84.849548 46.770355 C 88.962402 46.946198 93.077881 46.683716 97.10675 46.946198"/>
    <path id="Path-copy-4" fill="none" stroke="#bcb7b7" stroke-width="0.524934" stroke-linecap="round" stroke-linejoin="round" d="M 80.382324 46.770355 C 81.697266 46.332031 83.534546 46.683716 84.849548 46.770355 C 88.962402 46.946198 93.077881 46.683716 97.10675 46.946198"/>
    <path id="Path-copy-3" fill="none" stroke="none" d="M 78.282593 49.660095 C 79.770752 49.660095 81.345581 50.623352 82.571289 51.059052 C 86.424316 52.460632 90.363953 53.68634 94.041138 55.350403"/>
    <path id="Path-copy-2" fill="none" stroke="#bcb7b7" stroke-width="0.524934" stroke-linecap="round" stroke-linejoin="round" d="M 78.282593 49.660095 C 79.770752 49.660095 81.345581 50.623352 82.571289 51.059052 C 86.424316 52.460632 90.363953 53.68634 94.041138 55.350403"/>
    <path id="Path-copy" fill="#ffda7d" fill-rule="evenodd" stroke="none" d="M 46.461914 13.598419 L 46.461914 15.435699 L 46.461914 13.598419 L 46.461914 11.758545 Z"/>
</svg>
