<?xml version="1.0" encoding="UTF-8"?>
<!-- Generated by Pixelmator Pro 3.4.1 -->
<svg width="101" height="98" viewBox="0 0 101 98" xmlns="http://www.w3.org/2000/svg">
    <path id="Path-copy-38" fill="#d68c34" fill-rule="evenodd" stroke="none" d="M 17.769043 2.458008 C 17.698181 2.458008 17.627319 2.460632 17.556458 2.468506 C 15.719177 2.82019 14.929138 5.969818 14.493408 7.371399 C 12.566956 12.625977 13.091858 18.665344 13.879272 24.182434 C 14.141724 26.195557 14.404175 29.434387 15.892395 31.01181 C 16.543335 31.707336 17.278198 31.985565 18.041992 31.985565 C 20.157471 31.985565 22.485535 29.846436 23.771667 28.560364 C 26.312317 26.019684 29.202087 23.568237 31.564331 20.943573 C 32.70343 19.804443 34.015747 18.316284 34.191589 16.565613 C 34.367432 15.250671 34.015747 14.376648 32.790039 13.762451 C 32.70343 12.625977 30.863525 11.573486 30.076111 10.872681 C 27.448792 8.597107 24.385803 6.933075 21.758545 4.919952 C 20.839905 4.166687 19.280823 2.458008 17.769043 2.458008 Z"/>
    <path id="Path-copy-37" fill="#ffbbbb" fill-rule="evenodd" stroke="none" d="M 18.782166 7.458008 C 17.818909 8.334656 17.469788 9.822815 17.118103 11.135193 C 16.769043 12.975067 16.154846 14.901581 16.154846 16.828064 C 16.068237 20.505249 15.629944 25.408142 17.031494 28.822815 C 19.56958 28.47113 20.446167 26.195557 21.847778 24.444885 C 23.073486 22.956696 24.385803 21.206055 25.34906 19.452759 C 25.611572 18.754578 26.049866 18.140442 26.223083 17.439636 C 25.34906 17.263794 24.034119 15.513123 23.509216 14.901581 C 22.372681 13.938324 21.934387 12.888458 21.057739 11.66272 C 20.094482 10.261169 19.48291 9.035431 18.782166 7.458008 Z"/>
    <path id="Path-copy-36" fill="#d68c34" fill-rule="evenodd" stroke="none" d="M 81.333313 1.392395 C 79.853027 1.392395 78.341187 3.045929 77.440918 3.780823 C 74.816284 5.883209 71.750671 7.458008 69.123352 9.822815 C 68.335938 10.437012 66.498657 11.573486 66.409424 12.625977 C 65.183716 13.324158 64.834656 14.200806 65.010498 15.513123 C 65.183716 17.263794 66.498657 18.665344 67.635193 19.891083 C 70 22.518372 72.889771 24.883209 75.341187 27.421265 C 76.635193 28.71521 79.02887 30.919952 81.146973 30.919952 C 81.892395 30.919952 82.603699 30.644348 83.220459 29.95932 C 84.795288 28.297913 84.97113 25.145691 85.32019 23.043304 C 86.110229 17.615479 86.635193 11.573486 84.708679 6.321533 C 84.270325 4.919952 83.48291 1.681091 81.643066 1.41864 C 81.54071 1.400269 81.435669 1.392395 81.333313 1.392395 Z"/>
    <path id="Path-copy-35" fill="#ffbbbb" fill-rule="evenodd" stroke="none" d="M 80.417297 6.408142 C 79.719177 7.985565 79.10498 9.12204 78.141724 10.523621 C 77.2677 11.749329 76.829407 12.888458 75.690308 13.851685 C 75.165344 14.376648 73.853027 16.127319 72.976379 16.389771 C 73.152222 17.001312 73.590576 17.702087 73.853027 18.316284 C 74.816284 20.066925 76.128601 21.817566 77.354309 23.39502 C 78.75592 25.145691 79.629944 27.421265 82.170593 27.770325 C 83.56958 24.355652 83.13385 19.452759 83.044617 15.688965 C 83.044617 13.851685 82.343811 11.835938 82.08136 9.998688 C 81.7323 8.683716 81.380554 7.28479 80.417297 6.408142 Z"/>
    <path id="Path-copy-34" fill="#f7a746" fill-rule="evenodd" stroke="none" d="M 55.191589 63.086609 C 54.13385 63.086609 53.102356 63.144379 52.225708 63.144379 C 49.338562 63.144379 46.711304 63.669312 43.734924 64.107605 C 42.291321 64.24411 40.902893 64.65094 39.992126 64.65094 C 39.742798 64.65094 39.527588 64.619415 39.356934 64.543304 C 38.91864 66.207367 38.044617 67.695557 37.606323 69.359589 C 36.291321 73.475067 35.503967 77.939636 34.629944 82.230988 C 34.278198 84.154877 34.454041 85.994751 34.454041 87.832031 C 34.454041 89.147003 34.191589 90.545929 34.803162 91.771667 C 35.503967 93.349091 36.729675 94.398956 38.307068 95.186371 C 42.173218 97.120728 47.039368 97.2966 51.556458 97.2966 C 52.561707 97.2966 53.548584 97.288727 54.503967 97.288727 C 58.005249 97.288727 61.070862 96.939636 64.396301 96.149628 C 65.973755 95.713928 69.212585 94.83728 70.34906 93.524933 C 70.787415 92.997375 70.700806 92.036743 70.787415 91.335968 C 70.963257 87.921265 70.787415 84.24411 69.913391 80.916016 C 68.950134 77.328094 67.811035 73.475067 65.973755 70.322845 C 64.48291 67.958008 62.469788 66.031494 60.370056 64.280853 C 59.073486 63.267731 57.091858 63.086609 55.191589 63.086609 Z"/>
    <path id="Path-copy-33" fill="#ffb655" fill-rule="evenodd" stroke="none" d="M 61.858276 9.98819 C 60.472412 9.98819 59.241455 10.090546 58.181091 10.174561 C 56.800537 10.211304 55.435669 10.221802 54.086609 10.221802 C 52.412048 10.221802 50.758545 10.206055 49.118103 10.206055 C 42.952759 10.206055 37.015747 10.434387 31.039368 12.625977 C 17.994751 17.439636 9.939636 37.927826 16.67981 51.148285 C 19.220459 56.224396 23.59845 59.027557 28.412048 61.565613 C 35.855652 65.594482 47.674561 66.468506 55.992126 66.468506 C 64.658813 66.468506 74.37793 64.106293 81.818909 59.465881 C 87.59845 55.961945 88.472412 48.434387 88.123352 42.216522 C 87.771667 34.951447 85.233582 26.63385 81.293945 20.505249 C 79.719177 18.316284 77.792664 13.762451 72.713928 12.536743 C 68.480286 10.450134 64.816284 9.98819 61.858276 9.98819 Z"/>
    <path id="Path-copy-32" fill="#ffdfb8" fill-rule="evenodd" stroke="none" d="M 52.217834 74.473572 C 51.91864 74.473572 51.603699 74.537994 51.265076 74.674377 C 48.461914 75.814697 46.624695 82.25885 46.362183 85.922272 C 46.272949 88.703003 45.923889 94.897125 47.236206 97.295227 C 49.687683 96.791351 53.188965 96.916382 56.43042 96.412506 C 56.677185 92.006531 57.078735 74.473572 52.217834 74.473572 Z"/>
    <path id="Path-copy-31" fill="#6f8e39" fill-rule="evenodd" stroke="none" d="M 36.204712 33.549866 C 33.404175 33.549866 31.125977 35.82547 31.125977 38.628601 C 31.125977 41.342529 33.404175 43.618103 36.204712 43.618103 C 39.007874 43.618103 41.194214 41.342529 41.194214 38.628601 C 41.194214 35.82547 39.007874 33.549866 36.204712 33.549866 Z"/>
    <path id="Path-copy-30" fill="#353127" fill-rule="evenodd" stroke="none" d="M 36.118103 35.738831 C 34.629944 35.738831 33.577454 36.87796 33.577454 38.276917 C 33.577454 39.678467 34.803162 40.817596 36.118103 40.817596 C 37.51709 40.817596 38.56958 39.591858 38.56958 38.276917 C 38.56958 36.964569 37.51709 35.82547 36.118103 35.738831 Z"/>
    <path id="Path-copy-29" fill="#ffffff" fill-rule="evenodd" stroke="none" d="M 33.839905 34.599731 C 32.965881 34.599731 32.265076 35.387146 32.265076 36.263794 C 32.265076 37.22702 32.965881 37.927826 33.839905 37.927826 C 34.803162 37.927826 35.503967 37.22702 35.503967 36.263794 C 35.503967 35.387146 34.803162 34.599731 33.839905 34.599731 Z"/>
    <path id="Path-copy-28" fill="#ffffff" fill-rule="evenodd" stroke="none" d="M 37.254578 42.129913 C 37.08136 42.129913 36.818909 42.305786 36.818909 42.568237 C 36.818909 42.741455 37.08136 43.006561 37.254578 43.006561 C 37.51709 43.006561 37.692932 42.741455 37.692932 42.568237 C 37.692932 42.305786 37.51709 42.129913 37.254578 42.129913 Z"/>
    <path id="Path-copy-27" fill="#ffffff" fill-rule="evenodd" stroke="none" d="M 38.818909 41.620728 C 38.795288 41.620728 38.769043 41.641724 38.742798 41.691589 C 38.56958 41.691589 38.480286 41.780853 38.480286 41.867462 C 38.480286 41.954071 38.56958 42.129913 38.742798 42.129913 C 38.832031 42.129913 38.91864 41.954071 38.91864 41.867462 C 38.91864 41.74408 38.876648 41.620728 38.818909 41.620728 Z"/>
    <path id="Path-copy-26" fill="#6f8e39" fill-rule="evenodd" stroke="none" d="M 66.060364 33.549866 C 63.257202 33.549866 60.981628 35.82547 60.981628 38.628601 C 60.981628 41.342529 63.257202 43.618103 66.060364 43.618103 C 68.860901 43.618103 71.049866 41.342529 71.049866 38.628601 C 71.049866 35.82547 68.860901 33.549866 66.060364 33.549866 Z"/>
    <path id="Path-copy-25" fill="#353127" fill-rule="evenodd" stroke="none" d="M 66.060364 35.738831 C 64.658813 35.738831 63.522339 36.87796 63.522339 38.276917 C 63.522339 39.678467 64.748047 40.817596 66.060364 40.817596 C 67.461914 40.817596 68.59845 39.591858 68.59845 38.276917 C 68.59845 36.964569 67.461914 35.82547 66.060364 35.738831 Z"/>
    <path id="Path-copy-24" fill="#ffffff" fill-rule="evenodd" stroke="none" d="M 63.78479 34.688965 C 62.908142 34.688965 62.120728 35.387146 62.120728 36.263794 C 62.120728 37.140411 62.908142 37.927826 63.78479 37.927826 C 64.658813 37.927826 65.446167 37.140411 65.446167 36.263794 C 65.446167 35.387146 64.748047 34.688965 63.78479 34.688965 Z"/>
    <path id="Path-copy-23" fill="#ffffff" fill-rule="evenodd" stroke="none" d="M 67.199463 42.129913 C 66.934387 42.129913 66.761169 42.305786 66.761169 42.568237 C 66.761169 42.741455 66.934387 43.006561 67.199463 43.006561 C 67.372681 43.006561 67.635193 42.741455 67.635193 42.568237 C 67.635193 42.305786 67.461914 42.129913 67.199463 42.129913 Z"/>
    <path id="Path-copy-22" fill="#ffffff" fill-rule="evenodd" stroke="none" d="M 68.674561 41.620728 C 68.65094 41.620728 68.624695 41.641724 68.59845 41.691589 C 68.511841 41.691589 68.335938 41.780853 68.335938 41.867462 C 68.335938 41.954071 68.511841 42.129913 68.59845 42.129913 C 68.687683 42.129913 68.774292 41.954071 68.774292 41.867462 C 68.774292 41.74408 68.729675 41.620728 68.674561 41.620728 Z"/>
    <path id="Path-copy-21" fill="#d68c34" fill-rule="evenodd" stroke="none" d="M 37.625977 10.773132 C 36.583984 10.773132 35.534119 10.924622 34.980286 11.403931 L 37.169312 11.252441 L 37.169312 11.252441 C 36.644348 12.382904 36.817566 13.664825 36.644348 14.797546 C 36.292664 17.060669 35.7677 19.172363 35.7677 21.510132 C 35.7677 23.018127 36.030212 26.03418 38.043335 26.863922 C 38.368774 27.015381 38.644348 27.080963 38.880554 27.080963 C 40.297913 27.080963 40.2323 24.677643 40.2323 23.770996 C 40.2323 21.584717 39.969788 19.321594 40.321533 17.135315 C 40.583984 15.627289 41.108948 14.193878 41.458008 12.685852 C 41.720459 11.177856 41.458008 11.100983 39.707336 10.951752 C 39.15094 10.854553 38.389771 10.773132 37.625977 10.773132 Z"/>
    <path id="Path-copy-20" fill="#d68c34" fill-rule="evenodd" stroke="none" d="M 45.505249 9.613831 C 44.465881 9.613831 43.416016 9.765289 42.859558 10.244598 L 45.048584 10.167725 L 45.048584 10.167725 C 44.523621 11.300415 44.699463 12.507751 44.523621 13.638184 C 44.171936 15.901367 43.646973 18.087646 43.646973 20.350769 C 43.646973 21.858826 43.909424 24.874817 45.925171 25.70459 C 46.253296 25.858337 46.534119 25.926147 46.772949 25.926147 C 48.177185 25.926147 48.114197 23.579346 48.114197 22.611694 C 48.114197 20.425415 47.84906 18.162231 48.200806 15.975952 C 48.463257 14.467957 48.988159 13.034546 49.339905 11.601135 C 49.602356 10.09314 49.339905 9.94165 47.586609 9.792419 C 47.030212 9.69519 46.271667 9.613831 45.505249 9.613831 Z"/>
    <path id="Path-copy-19" fill="#d68c34" fill-rule="evenodd" stroke="none" d="M 53.385803 9.658997 C 52.343811 9.658997 51.293945 9.810455 50.737549 10.289764 L 52.926514 10.138306 L 52.926514 10.138306 C 52.40155 11.268738 52.577454 12.550659 52.40155 13.68335 C 52.05249 15.946533 51.527588 18.058197 51.527588 20.395935 C 51.527588 21.903992 51.876648 24.919983 53.803162 25.749756 C 54.125977 25.901245 54.404175 25.966797 54.637817 25.966797 C 56.055115 25.966797 55.992126 23.563477 55.992126 22.65686 C 55.992126 20.470581 55.816284 18.207397 56.078735 16.021118 C 56.341187 14.513123 56.86615 13.079712 57.217834 11.571716 C 57.566956 10.06366 57.217834 9.986816 55.467163 9.837585 C 54.910767 9.740356 54.149597 9.658997 53.385803 9.658997 Z"/>
    <path id="Path-copy-18" fill="#d68c34" fill-rule="evenodd" stroke="none" d="M 60.522339 9.613831 C 59.480286 9.613831 58.43042 9.765289 57.876648 10.244598 L 60.065613 10.167725 L 60.065613 10.167725 C 59.54071 11.300415 59.713928 12.507751 59.54071 13.638184 C 59.188965 15.901367 58.664063 18.087646 58.664063 20.350769 C 58.664063 21.858826 59.013123 24.874817 60.939636 25.70459 C 61.270325 25.858337 61.551208 25.926147 61.790039 25.926147 C 63.194214 25.926147 63.128601 23.579346 63.128601 22.611694 C 63.128601 20.425415 62.952759 18.162231 63.217834 15.975952 C 63.480286 14.467957 64.005249 13.034546 64.354309 11.601135 C 64.706055 10.09314 64.354309 9.94165 62.603699 9.792419 C 62.047241 9.69519 61.286072 9.613831 60.522339 9.613831 Z"/>
    <path id="Path-copy-17" fill="#ffdfb8" fill-rule="evenodd" stroke="none" d="M 51.763794 38.448914 C 47.65094 38.448914 43.51709 42.973724 41.808411 47.743622 C 39.795288 53.501984 39.619446 60.468842 40.496033 66.505676 C 42.118103 69.735718 45.742798 70.501434 49.202087 70.501434 C 51.711304 70.501434 54.131226 70.097687 55.640442 69.941772 C 60.370056 69.476746 61.506592 66.227203 60.89502 60.374176 C 60.370056 53.688538 60.456665 45.421326 56.341187 40.684875 C 54.910767 39.11441 53.338562 38.448914 51.763794 38.448914 Z"/>
    <path id="Path-copy-16" fill="#ff8a8a" fill-rule="evenodd" stroke="none" d="M 49.711304 42.206024 C 49.05249 42.206024 48.433044 42.282166 48.023621 42.568237 C 47.937012 43.179779 49.249329 44.318909 49.863525 44.405518 C 49.976379 44.44751 50.107605 44.465881 50.249329 44.465881 C 51.309692 44.465881 52.994751 43.387146 52.839905 42.305786 L 51.876648 42.305786 C 51.270325 42.305786 50.464539 42.206024 49.711304 42.206024 Z"/>
    <path id="Path-copy-15" fill="none" stroke="none" d="M 46.887146 47.644348 C 47.149597 48.696838 48.81366 49.397644 49.511841 48.783478 C 50.125977 48.258545 50.564331 47.119415 50.388428 46.245392 C 51.089233 46.946198 50.65094 48.345154 51.700806 48.783478 C 52.577454 49.221771 53.803162 48.870087 54.065613 47.909454"/>
    <path id="Path-copy-14" fill="none" stroke="#726767" stroke-width="0.524934" stroke-linecap="round" stroke-linejoin="round" d="M 46.887146 47.644348 C 47.149597 48.696838 48.81366 49.397644 49.511841 48.783478 C 50.125977 48.258545 50.564331 47.119415 50.388428 46.245392 C 51.089233 46.946198 50.65094 48.345154 51.700806 48.783478 C 52.577454 49.221771 53.803162 48.870087 54.065613 47.909454"/>
    <path id="Path-copy-13" fill="none" stroke="none" d="M 19.745422 44.318909 C 18.606323 43.531494 16.67981 43.531494 15.367432 43.179779 C 11.427795 42.305786 7.488159 41.253296 3.461914 40.465881"/>
    <path id="Path-copy-12" fill="none" stroke="#bcb7b7" stroke-width="0.524934" stroke-linecap="round" stroke-linejoin="round" d="M 19.745422 44.318909 C 18.606323 43.531494 16.67981 43.531494 15.367432 43.179779 C 11.427795 42.305786 7.488159 41.253296 3.461914 40.465881"/>
    <path id="Path-copy-11" fill="none" stroke="none" d="M 20.007874 47.557739 C 18.695557 47.119415 16.855652 47.47113 15.543335 47.557739 C 11.427795 47.644348 7.312317 47.47113 3.286072 47.644348"/>
    <path id="Path-copy-10" fill="none" stroke="#bcb7b7" stroke-width="0.524934" stroke-linecap="round" stroke-linejoin="round" d="M 20.007874 47.557739 C 18.695557 47.119415 16.855652 47.47113 15.543335 47.557739 C 11.427795 47.644348 7.312317 47.47113 3.286072 47.644348"/>
    <path id="Path-copy-9" fill="none" stroke="none" d="M 22.110229 50.44751 C 20.62207 50.44751 19.044617 51.410767 17.818909 51.849091 C 13.965881 53.248016 10.026245 54.473755 6.34906 56.137787"/>
    <path id="Path-copy-8" fill="none" stroke="#bcb7b7" stroke-width="0.524934" stroke-linecap="round" stroke-linejoin="round" d="M 22.110229 50.44751 C 20.62207 50.44751 19.044617 51.410767 17.818909 51.849091 C 13.965881 53.248016 10.026245 54.473755 6.34906 56.137787"/>
    <path id="Path-copy-7" fill="none" stroke="none" d="M 80.944885 43.442261 C 82.170593 42.654846 84.007874 42.654846 85.32019 42.305786 C 89.262451 41.429138 93.202087 40.379272 97.228333 39.591858"/>
    <path id="Path-copy-6" fill="none" stroke="#bcb7b7" stroke-width="0.524934" stroke-linecap="round" stroke-linejoin="round" d="M 80.944885 43.442261 C 82.170593 42.654846 84.007874 42.654846 85.32019 42.305786 C 89.262451 41.429138 93.202087 40.379272 97.228333 39.591858"/>
    <path id="Path-copy-5" fill="none" stroke="none" d="M 80.769043 46.770355 C 82.08136 46.332031 83.921265 46.683716 85.233582 46.770355 C 89.262451 46.946198 93.464539 46.683716 97.490784 46.946198"/>
    <path id="Path-copy-4" fill="none" stroke="#bcb7b7" stroke-width="0.524934" stroke-linecap="round" stroke-linejoin="round" d="M 80.769043 46.770355 C 82.08136 46.332031 83.921265 46.683716 85.233582 46.770355 C 89.262451 46.946198 93.464539 46.683716 97.490784 46.946198"/>
    <path id="Path-copy-3" fill="none" stroke="none" d="M 78.666687 49.660095 C 80.068237 49.660095 81.7323 50.623352 82.958008 51.059052 C 86.721802 52.460632 90.661438 53.68634 94.427795 55.350403"/>
    <path id="Path-copy-2" fill="none" stroke="#bcb7b7" stroke-width="0.524934" stroke-linecap="round" stroke-linejoin="round" d="M 78.666687 49.660095 C 80.068237 49.660095 81.7323 50.623352 82.958008 51.059052 C 86.721802 52.460632 90.661438 53.68634 94.427795 55.350403"/>
    <path id="Path-copy" fill="#95aa5b" fill-rule="evenodd" stroke="none" d="M 81.889771 18.204712 L 81.889771 20.041992 L 81.889771 18.204712 L 81.889771 16.364807 Z"/>
</svg>
