<?xml version="1.0" encoding="UTF-8"?>
<!-- Generated by Pixelmator Pro 3.4.1 -->
<svg width="99" height="93" viewBox="0 0 99 93" xmlns="http://www.w3.org/2000/svg">
    <path id="Path-copy-32" fill="#5c787a" fill-rule="evenodd" stroke="none" d="M 21.937897 3.106293 C 19.630798 3.106293 17.313202 3.290039 15.063873 3.290039 C 14.751526 3.290039 14.436584 3.28479 14.126862 3.276917 C 13.426086 3.276917 12.483826 3.145691 11.575684 3.145691 C 10.667542 3.145691 9.793518 3.276917 9.223969 3.801819 C 7.908997 5.116791 9.223969 8.17981 9.748901 9.58136 C 11.237091 15.009186 15.263336 19.562988 19.116364 23.413391 C 20.693787 24.904205 22.706909 27.355652 24.895874 27.704712 C 25.097992 27.738831 25.292206 27.757202 25.478577 27.757202 C 28.507446 27.757202 29.386688 23.266418 29.798767 20.875336 C 30.410309 17.374023 31.197723 13.783447 31.549438 10.195557 C 31.725281 8.531494 31.898499 6.515747 31.024506 5.116791 C 30.46283 4.2323 29.75415 3.791321 28.559937 3.791321 C 28.452332 3.791321 28.339447 3.79657 28.221344 3.801819 C 27.743652 3.271667 26.777771 3.190308 25.880127 3.190308 C 25.499573 3.190308 25.129486 3.206055 24.814514 3.206055 C 24.64917 3.206055 24.499573 3.200806 24.370941 3.190308 C 23.562561 3.127319 22.751526 3.106293 21.937897 3.106293 Z"/>
    <path id="Path-copy-31" fill="#ff8a8a" fill-rule="evenodd" stroke="none" d="M 13.250214 7.216553 L 13.250214 7.216553 C 12.901123 8.531494 13.512695 9.93045 14.126862 10.982941 C 14.827637 12.82019 15.528442 14.660095 16.578308 16.148315 C 18.767273 19.211304 21.305328 23.413391 24.457581 25.253296 C 26.384064 23.502625 25.683289 21.227051 25.769897 18.948822 C 25.769897 16.935699 25.769897 14.746704 25.59668 12.733582 C 25.507446 12.208679 25.334198 11.507874 25.158356 10.807068 C 24.969391 10.891083 24.70166 10.925201 24.397186 10.925201 C 23.431335 10.925201 22.058624 10.589233 21.391937 10.458008 C 19.993011 10.282166 18.940521 9.757202 17.628174 9.2323 C 15.964142 8.704712 14.738403 8.17981 13.250214 7.216553 Z"/>
    <path id="Path-copy-30" fill="#5c787a" fill-rule="evenodd" stroke="none" d="M 73.063873 2.856934 C 72.244965 2.856934 71.423462 2.967194 71.035004 3.452759 C 70.914246 3.444885 70.796143 3.442261 70.685913 3.442261 C 69.431335 3.442261 68.788269 3.904205 68.145233 5.027557 C 67.27121 6.429138 67.533691 8.442261 67.6203 10.019684 C 67.882751 13.696838 68.670166 17.28479 69.195099 20.788696 C 69.685913 23.161438 70.483826 27.597107 73.444458 27.597107 C 73.651794 27.597107 73.869629 27.576111 74.097992 27.52887 C 76.37619 27.090546 78.475952 24.814941 79.964142 23.326782 C 83.817139 19.473755 87.846008 15.009186 89.507446 9.58136 C 89.94577 8.17981 91.258087 5.116791 89.94577 3.801819 C 89.326324 3.229675 88.339447 3.098419 87.357819 3.098419 C 86.541565 3.098419 85.727905 3.190308 85.129486 3.190308 C 84.86438 3.198181 84.59668 3.200806 84.331573 3.200806 C 81.667542 3.200806 78.956268 2.891083 76.286957 2.891083 C 75.788269 2.891083 75.292206 2.901581 74.798767 2.927826 C 74.370941 2.927826 73.717407 2.856934 73.063873 2.856934 Z"/>
    <path id="Path-copy-29" fill="#ff8a8a" fill-rule="evenodd" stroke="none" d="M 85.919525 7.043304 L 85.919525 7.043304 C 84.342072 7.917328 83.116364 8.531494 81.541565 9.056427 C 80.226593 9.494751 79.090118 9.93045 77.688538 10.106293 C 77.035004 10.237549 75.70166 10.610229 74.738403 10.610229 C 74.410309 10.610229 74.124237 10.568237 73.924774 10.458008 C 73.748901 11.156189 73.662292 11.946198 73.48645 12.646973 C 73.223969 14.660095 73.223969 16.84906 73.223969 18.775574 C 73.223969 20.961945 72.609802 23.413391 74.363068 25.166687 C 77.512695 23.15094 80.139984 19.038055 82.328949 16.059052 C 83.468079 14.570862 84.07962 12.646973 85.042877 10.893707 C 85.56781 9.843811 86.181976 8.355652 85.919525 7.043304 Z"/>
    <path id="Path-copy-28" fill="#5c787a" fill-rule="evenodd" stroke="none" d="M 53.380585 54.790192 C 52.32547 54.790192 51.304474 54.855194 50.45932 54.855194 C 47.482941 54.855194 44.855652 55.446045 41.879272 55.939423 C 40.438324 56.093048 39.049866 56.550964 38.136475 56.550964 C 37.887146 56.550964 37.671906 56.515533 37.501312 56.42984 C 37.062988 58.302887 36.188965 59.977997 35.750671 61.851044 C 34.438324 66.483429 33.648285 71.508759 32.774292 76.339081 C 32.51181 78.504608 32.598419 80.575592 32.598419 82.643616 C 32.598419 84.123749 32.335968 85.698395 32.950134 87.078064 C 33.648285 88.853607 34.874023 90.035339 36.451447 90.921661 C 40.391083 93.098999 45.209961 93.296936 49.708649 93.296936 C 50.708649 93.296936 51.692902 93.288086 52.648285 93.288086 C 56.149597 93.288086 59.21521 92.895142 62.54068 92.00589 C 64.118103 91.515472 67.356964 90.528717 68.496063 89.051575 C 68.931763 88.457733 68.845154 87.376465 68.931763 86.587646 C 69.107605 82.74408 68.931763 78.605042 68.057739 74.858948 C 67.094482 70.820374 65.955383 66.483429 64.118103 62.935272 C 62.716522 60.273438 60.614166 58.10495 58.514435 56.134399 C 57.275604 54.994049 55.278229 54.790192 53.380585 54.790192 Z"/>
    <path id="Path-copy-27" fill="#332f2d" fill-rule="evenodd" stroke="none" d="M 59.040253 56.334656 Z"/>
    <path id="Path-copy-26" fill="#6e8a8e" fill-rule="evenodd" stroke="none" d="M 60.006134 1.691589 C 58.617676 1.691589 57.386688 1.793945 56.326324 1.87796 C 54.94577 1.914703 53.583557 1.925201 52.231842 1.925201 C 50.557312 1.925201 48.903748 1.909454 47.265961 1.909454 C 41.097992 1.909454 35.16098 2.137817 29.184601 4.329407 C 16.139984 9.143066 8.084869 29.631226 14.827637 42.851715 C 17.365692 47.927826 21.743652 50.730957 26.559937 53.269043 C 34.000885 57.297913 45.819763 58.171906 54.13736 58.171906 C 62.804016 58.171906 72.523193 55.809723 79.964142 51.169281 C 85.743652 47.665344 86.6203 40.137787 86.355194 33.919952 C 85.919525 26.654846 83.378815 18.33728 79.439209 12.208679 C 77.86438 10.019684 75.937897 5.465881 70.859131 4.240173 C 66.628174 2.153564 62.961517 1.691589 60.006134 1.691589 Z"/>
    <path id="Path-copy-25" fill="#ffd93b" fill-rule="evenodd" stroke="none" d="M 34.349945 25.253296 C 31.636047 25.253296 29.273834 27.442261 29.273834 30.332031 C 29.273834 33.045929 31.46283 35.321533 34.349945 35.321533 C 37.063873 35.321533 39.342072 33.132538 39.342072 30.332031 C 39.342072 27.442261 37.153107 25.253296 34.349945 25.253296 Z"/>
    <path id="Path-copy-24" fill="#000000" fill-rule="evenodd" stroke="none" d="M 34.349945 27.442261 C 32.951019 27.442261 31.81189 28.58136 31.81189 29.980316 C 31.81189 31.381897 33.037628 32.520996 34.349945 32.520996 C 35.751526 32.520996 36.890625 31.295288 36.890625 29.980316 C 36.890625 28.667969 35.664917 27.52887 34.349945 27.442261 Z"/>
    <path id="Path-copy-23" fill="#ffffff" fill-rule="evenodd" stroke="none" d="M 32.074371 26.392395 C 31.197723 26.392395 30.410309 27.090546 30.410309 27.967194 C 30.410309 28.843811 31.197723 29.631226 32.074371 29.631226 C 32.951019 29.631226 33.64917 28.843811 33.64917 27.967194 C 33.64917 27.090546 32.951019 26.392395 32.074371 26.392395 Z"/>
    <path id="Path-copy-22" fill="#ffffff" fill-rule="evenodd" stroke="none" d="M 35.402435 33.833344 C 35.226593 33.833344 34.964142 34.009186 34.964142 34.271667 C 34.964142 34.444885 35.226593 34.709961 35.402435 34.709961 C 35.664917 34.709961 35.838135 34.444885 35.838135 34.271667 C 35.838135 34.009186 35.664917 33.833344 35.402435 33.833344 Z"/>
    <path id="Path-copy-21" fill="#ffffff" fill-rule="evenodd" stroke="none" d="M 36.964142 33.324158 C 36.940521 33.324158 36.914246 33.345154 36.890625 33.39502 C 36.714783 33.39502 36.628174 33.484253 36.628174 33.570862 C 36.628174 33.657471 36.714783 33.833344 36.890625 33.833344 C 36.977264 33.833344 37.063873 33.657471 37.063873 33.570862 C 37.063873 33.44751 37.021881 33.324158 36.964142 33.324158 Z"/>
    <path id="Path-copy-20" fill="#ffd93b" fill-rule="evenodd" stroke="none" d="M 64.292206 25.253296 C 61.491699 25.253296 59.302704 27.52887 59.302704 30.332031 C 59.302704 33.045929 61.491699 35.321533 64.292206 35.321533 C 67.095367 35.321533 69.370941 33.045929 69.370941 30.332031 C 69.370941 27.52887 67.095367 25.253296 64.292206 25.253296 Z"/>
    <path id="Path-copy-19" fill="#000000" fill-rule="evenodd" stroke="none" d="M 64.205597 27.442261 C 62.804016 27.442261 61.667542 28.58136 61.667542 29.980316 C 61.667542 31.381897 62.89325 32.520996 64.205597 32.520996 C 65.607178 32.520996 66.743652 31.295288 66.743652 29.980316 C 66.743652 28.667969 65.607178 27.52887 64.205597 27.442261 Z"/>
    <path id="Path-copy-18" fill="#ffffff" fill-rule="evenodd" stroke="none" d="M 61.930023 26.303162 C 60.966766 26.303162 60.265961 27.090546 60.265961 27.967194 C 60.265961 28.93045 60.966766 29.631226 61.930023 29.631226 C 62.804016 29.631226 63.594055 28.93045 63.594055 27.967194 C 63.594055 27.090546 62.804016 26.303162 61.930023 26.303162 Z"/>
    <path id="Path-copy-17" fill="#ffffff" fill-rule="evenodd" stroke="none" d="M 65.344696 33.833344 C 65.082245 33.833344 64.819763 34.009186 64.819763 34.271667 C 64.819763 34.444885 65.082245 34.709961 65.344696 34.709961 C 65.517944 34.709961 65.78302 34.444885 65.78302 34.271667 C 65.78302 34.009186 65.607178 33.833344 65.344696 33.833344 Z"/>
    <path id="Path-copy-16" fill="#ffffff" fill-rule="evenodd" stroke="none" d="M 66.819763 33.324158 C 66.796143 33.324158 66.769897 33.345154 66.743652 33.39502 C 66.570435 33.39502 66.481201 33.484253 66.481201 33.570862 C 66.481201 33.657471 66.657043 33.833344 66.743652 33.833344 C 66.832886 33.833344 66.919525 33.657471 66.919525 33.570862 C 66.919525 33.44751 66.874878 33.324158 66.819763 33.324158 Z"/>
    <path id="Path-copy-15" fill="#000000" fill-rule="evenodd" stroke="none" d="M 47.856506 33.909454 C 47.197723 33.909454 46.578308 33.985565 46.171478 34.271667 C 46.082245 34.883209 47.483826 36.022308 48.008759 36.108917 C 48.121613 36.150909 48.252838 36.169281 48.394562 36.169281 C 49.454956 36.169281 51.139984 35.090546 50.985138 34.009186 L 50.021881 34.009186 C 49.415558 34.009186 48.609802 33.909454 47.856506 33.909454 Z"/>
    <path id="Path-copy-14" fill="none" stroke="none" d="M 45.032379 39.347778 C 45.29483 40.400269 46.958893 41.101044 47.659668 40.486877 C 48.27121 39.961945 48.709534 38.822845 48.533691 37.948822 C 49.234467 38.649597 48.796143 40.048553 49.848633 40.486877 C 50.722656 40.925201 51.948395 40.573486 52.210846 39.612854"/>
    <path id="Path-copy-13" fill="none" stroke="#000000" stroke-width="0.524934" stroke-linecap="round" stroke-linejoin="round" d="M 45.032379 39.347778 C 45.29483 40.400269 46.958893 41.101044 47.659668 40.486877 C 48.27121 39.961945 48.709534 38.822845 48.533691 37.948822 C 49.234467 38.649597 48.796143 40.048553 49.848633 40.486877 C 50.722656 40.925201 51.948395 40.573486 52.210846 39.612854"/>
    <path id="Path-copy-12" fill="none" stroke="none" d="M 18.066498 36.022308 C 16.840759 35.234894 15.000885 35.234894 13.688538 34.883209 C 9.748901 34.009186 5.809265 32.956696 1.693787 32.169281"/>
    <path id="Path-copy-11" fill="none" stroke="#bcb7b7" stroke-width="0.524934" stroke-linecap="round" stroke-linejoin="round" d="M 18.066498 36.022308 C 16.840759 35.234894 15.000885 35.234894 13.688538 34.883209 C 9.748901 34.009186 5.809265 32.956696 1.693787 32.169281"/>
    <path id="Path-copy-10" fill="none" stroke="none" d="M 18.24234 39.261169 C 16.927399 38.822845 15.090118 39.17453 13.775146 39.261169 C 9.748901 39.347778 5.546814 39.17453 1.517944 39.347778"/>
    <path id="Path-copy-9" fill="none" stroke="#bcb7b7" stroke-width="0.524934" stroke-linecap="round" stroke-linejoin="round" d="M 18.24234 39.261169 C 16.927399 38.822845 15.090118 39.17453 13.775146 39.261169 C 9.748901 39.347778 5.546814 39.17453 1.517944 39.347778"/>
    <path id="Path-copy-8" fill="none" stroke="none" d="M 20.342072 42.150909 C 18.940521 42.150909 17.279083 43.114166 16.053375 43.55249 C 12.200348 44.951447 8.260712 46.177155 4.583557 47.841217"/>
    <path id="Path-copy-7" fill="none" stroke="#bcb7b7" stroke-width="0.524934" stroke-linecap="round" stroke-linejoin="round" d="M 20.342072 42.150909 C 18.940521 42.150909 17.279083 43.114166 16.053375 43.55249 C 12.200348 44.951447 8.260712 46.177155 4.583557 47.841217"/>
    <path id="Path-copy-6" fill="none" stroke="none" d="M 79.090118 35.14566 C 80.315826 34.358276 82.153107 34.358276 83.468079 34.009186 C 87.407684 33.132538 91.347321 32.082672 95.373566 31.295288"/>
    <path id="Path-copy-5" fill="none" stroke="#bcb7b7" stroke-width="0.524934" stroke-linecap="round" stroke-linejoin="round" d="M 79.090118 35.14566 C 80.315826 34.358276 82.153107 34.358276 83.468079 34.009186 C 87.407684 33.132538 91.347321 32.082672 95.373566 31.295288"/>
    <path id="Path-copy-4" fill="none" stroke="none" d="M 78.914246 38.473755 C 80.139984 38.035431 82.066498 38.387146 83.378815 38.473755 C 87.407684 38.649597 91.609802 38.387146 95.636047 38.649597"/>
    <path id="Path-copy-3" fill="none" stroke="#bcb7b7" stroke-width="0.524934" stroke-linecap="round" stroke-linejoin="round" d="M 78.914246 38.473755 C 80.139984 38.035431 82.066498 38.387146 83.378815 38.473755 C 87.407684 38.649597 91.609802 38.387146 95.636047 38.649597"/>
    <path id="Path-copy-2" fill="none" stroke="none" d="M 76.814514 41.363525 C 78.21347 41.363525 79.877502 42.326782 81.103241 42.762482 C 84.867004 44.164032 88.806641 45.389771 92.573059 47.053802"/>
    <path id="Path-copy" fill="none" stroke="#bcb7b7" stroke-width="0.524934" stroke-linecap="round" stroke-linejoin="round" d="M 76.814514 41.363525 C 78.21347 41.363525 79.877502 42.326782 81.103241 42.762482 C 84.867004 44.164032 88.806641 45.389771 92.573059 47.053802"/>
</svg>
