<?xml version="1.0" encoding="UTF-8"?>
<!-- Generated by Pixelmator Pro 3.4.1 -->
<svg width="140" height="145" viewBox="0 0 140 145" xmlns="http://www.w3.org/2000/svg">
    <path id="Path-copy-33" fill="#b45f06" fill-rule="evenodd" stroke="none" d="M 21.740372 0.630524 C 21.606812 0.630524 21.473251 0.641632 21.339691 0.667603 C 18.738998 1.161041 17.626007 5.61673 17.006439 7.597839 C 14.160889 15.021515 15.02903 23.561859 16.019592 31.2341 C 16.513016 34.202057 16.88401 38.657745 18.987572 41.009857 C 19.892799 41.97818 20.913048 42.364014 21.974091 42.364014 C 24.979172 42.364014 28.295898 39.251343 30.124908 37.422333 C 33.716171 33.831055 37.674713 30.492096 41.139816 26.778412 C 42.62381 25.045837 44.482513 23.064728 44.8535 20.590179 C 44.975937 18.735199 44.482513 17.496063 42.872375 16.631622 C 42.62381 15.021515 40.026825 13.537506 38.913834 12.546936 C 35.20015 9.330414 30.866898 6.978271 27.156937 4.006592 C 25.880707 3.079102 23.736328 0.630524 21.740372 0.630524 Z"/>
    <path id="Path-copy-32" fill="#ff8a8a" fill-rule="evenodd" stroke="none" d="M 23.072205 7.720184 C 21.588226 8.955597 21.217224 11.185303 20.720078 12.917847 C 20.226654 15.514832 19.358521 18.237946 19.358521 20.96106 C 19.113663 26.158752 18.494095 33.088989 20.597649 37.915649 C 24.062775 37.422211 25.298187 34.201965 27.401749 31.727417 C 29.011871 29.623871 30.866867 27.149292 32.354568 24.674744 C 32.725555 23.684204 33.218994 22.9422 33.589981 21.829193 C 32.354568 21.580627 30.495865 19.106079 29.631439 18.237946 C 28.147446 16.876404 27.527893 15.392395 26.288757 13.659851 C 24.804764 11.678711 23.93663 9.946167 23.072205 7.720184 Z"/>
    <path id="Path-copy-31" fill="#999999" fill-rule="evenodd" stroke="none" d="M 112.990173 0.630524 C 110.89032 0.630524 108.745956 3.079102 107.473434 4.006592 C 103.75975 6.978271 99.426498 9.330414 95.716537 12.546936 C 94.599823 13.537506 92.002853 15.021515 91.880417 16.631622 C 90.270294 17.496063 89.650726 18.735199 89.899292 20.590179 C 90.147858 23.064728 92.002853 25.045837 93.612976 26.778412 C 96.95195 30.492096 101.036636 33.831055 104.501755 37.422333 C 106.330765 39.251343 109.717972 42.364014 112.708206 42.364014 C 113.761841 42.364014 114.767242 41.97818 115.639084 41.009857 C 117.86879 38.657745 118.113647 34.202057 118.610779 31.2341 C 119.72377 23.561859 120.465775 15.021515 117.742645 7.597839 C 117.123077 5.61673 116.010086 1.161041 113.413101 0.667603 C 113.272125 0.641632 113.131149 0.630524 112.990173 0.630524 Z"/>
    <path id="Path-copy-30" fill="#ff8a8a" fill-rule="evenodd" stroke="none" d="M 111.680435 7.720184 C 110.68988 9.946167 109.821747 11.678711 108.46019 13.659851 C 107.224762 15.392395 106.605194 16.876404 104.995071 18.237946 C 104.253067 19.106079 102.398087 21.580627 101.158951 21.829193 C 101.656097 22.9422 102.027084 23.684204 102.398087 24.674744 C 103.759644 27.149292 105.614639 29.623871 107.347198 31.727417 C 109.328323 34.201965 110.563736 37.422211 114.154999 37.915649 C 116.136124 33.088989 115.516556 26.158752 115.390411 20.96106 C 115.390411 18.237946 114.403564 15.514832 114.028854 12.917847 C 113.535431 11.185303 113.042007 8.955597 111.680435 7.720184 Z"/>
    <path id="Path-copy-29" fill="#d9d9d9" fill-rule="evenodd" stroke="none" d="M 75.927521 95.340393 C 74.495468 95.340393 73.107941 95.412537 71.954132 95.412537 C 67.747025 95.412537 64.03334 96.175934 59.826233 96.806366 C 57.8414 97.098816 55.930756 97.611542 54.639694 97.611542 C 54.242722 97.611542 53.901413 97.562164 53.638 97.440613 C 53.018433 99.84848 51.783005 102.001892 51.163452 104.40976 C 49.308456 110.490204 48.191757 116.950439 46.956329 123.160004 C 46.585342 125.818542 46.707764 128.480865 46.707764 131.139404 C 46.707764 133.03833 46.336777 135.195557 47.20491 136.840057 C 48.191757 139.122589 49.924316 140.641754 52.154007 141.781097 C 57.448135 144.542175 63.862686 144.846008 69.947037 144.846008 C 71.687027 144.846008 73.397324 144.823242 75.048264 144.823242 C 79.99736 144.823242 84.330612 144.314301 89.031143 143.174927 C 91.260849 142.54068 95.838943 141.276001 97.449081 139.37323 C 98.064941 138.613647 97.942505 137.219818 98.064941 136.20578 C 98.313507 131.39386 98.064941 125.943878 96.829514 121.257263 C 95.467957 115.936401 93.857819 110.490204 91.260849 105.803589 C 89.279724 102.381683 86.308029 99.723175 83.340042 97.186157 C 81.555557 95.610046 78.658066 95.340393 75.927521 95.340393 Z"/>
    <path id="Path-copy-28" fill="#b45f06" fill-rule="evenodd" stroke="none" d="M 55.619553 95.907257 C 54.257996 95.907257 52.896439 96.029694 51.412445 96.155823 C 50.173325 96.155823 49.43132 96.278259 48.689331 97.391235 C 47.57634 98.752808 46.956772 100.485352 46.708206 102.09549 C 46.088638 104.570038 46.088638 107.167023 45.717636 109.767731 C 45.346649 113.603821 45.472778 117.562378 45.472778 121.398499 C 45.472778 122.8862 44.85321 127.835297 46.834335 128.454865 C 47.153397 128.580994 47.46875 128.64035 47.776672 128.64035 C 49.865387 128.64035 51.694412 126.017395 52.774002 124.618744 C 55.370987 121.276062 58.094116 118.181946 59.207108 113.852417 C 60.446228 108.528595 59.084671 102.95993 59.084671 97.513672 L 57.600677 96.029694 C 57.500519 96.055664 57.385513 96.06308 57.263077 96.06308 C 56.765945 96.06308 56.112991 95.907257 55.619553 95.907257 Z"/>
    <path id="Path-copy-27" fill="#999999" fill-rule="evenodd" stroke="none" d="M 87.547241 95.907257 C 87.053802 95.907257 86.47876 96.06308 85.95195 96.06308 C 85.81839 96.06308 85.692245 96.055664 85.566116 96.029694 L 84.082123 97.513672 C 84.082123 102.95993 82.720566 108.528595 83.959686 113.852417 C 85.072678 118.181946 87.795807 121.276062 90.518921 124.618744 C 91.594818 126.017395 93.331085 128.64035 95.393829 128.64035 C 95.701752 128.64035 96.013397 128.580994 96.332458 128.454865 C 98.313583 127.835297 97.694016 122.8862 97.694016 121.398499 C 97.694016 117.562378 97.942581 113.603821 97.449158 109.767731 C 97.078156 107.167023 97.078156 104.570038 96.458588 102.09549 C 96.210022 100.485352 95.590454 98.752808 94.477463 97.391235 C 93.735474 96.278259 92.993484 96.155823 91.754349 96.155823 C 90.270355 96.029694 88.908798 95.907257 87.547241 95.907257 Z"/>
    <path id="Path-copy-26" fill="#efefef" fill-rule="evenodd" stroke="none" d="M 84.952118 13.041473 C 83.193588 13.041473 81.62056 13.138702 80.247879 13.179199 C 77.691696 13.280457 75.180054 13.30072 72.694366 13.30072 C 71.106491 13.30072 69.529755 13.292633 67.964157 13.292633 C 59.056503 13.292633 50.501297 13.555939 41.883041 17.096436 C 23.444458 24.529877 12.058556 56.013611 21.589478 76.551758 C 25.177017 84.252563 31.365265 88.712616 38.173065 92.496185 C 48.690842 98.848022 65.396851 100.201019 77.153748 100.201019 C 89.404083 100.201019 103.14212 96.41748 113.659897 89.38913 C 121.829254 83.985199 123.06839 72.229431 122.69368 62.632813 C 122.07782 51.553558 118.486572 38.716187 112.917908 29.257294 C 110.69191 25.878815 107.968796 18.716797 100.789993 16.962769 C 94.568375 13.61264 89.214874 13.041473 84.952118 13.041473 Z"/>
    <path id="Path-copy-25" fill="#6d561d" fill-rule="evenodd" stroke="none" d="M 49.182785 46.084473 C 45.346664 46.084473 42.00769 49.178589 42.00769 53.259552 C 42.00769 57.095673 45.101807 60.315918 49.182785 60.315918 C 53.01889 60.315918 56.239151 57.221802 56.239151 53.259552 C 56.239151 49.423462 53.145035 46.084473 49.182785 46.084473 Z"/>
    <path id="Path-copy-24" fill="#353127" fill-rule="evenodd" stroke="none" d="M 49.182755 49.300964 C 47.205338 49.300964 45.5952 50.911102 45.5952 52.888519 C 45.5952 54.992065 47.327759 56.479767 49.182755 56.479767 C 51.163879 56.479767 52.774002 54.747223 52.774002 52.888519 C 52.774002 50.911102 51.041443 49.423401 49.182755 49.300964 Z"/>
    <path id="Path-copy-23" fill="#ffffff" fill-rule="evenodd" stroke="none" d="M 45.966217 47.690857 C 44.727081 47.690857 43.61409 48.681427 43.61409 49.920563 C 43.61409 51.282135 44.727081 52.268982 45.966217 52.268982 C 47.205353 52.268982 48.1922 51.282135 48.1922 49.920563 C 48.1922 48.803864 47.205353 47.817017 45.966217 47.690857 Z"/>
    <path id="Path-copy-22" fill="#ffffff" fill-rule="evenodd" stroke="none" d="M 50.67041 58.212219 C 50.421829 58.212219 50.050842 58.457062 50.050842 58.828064 C 50.050842 59.07663 50.421829 59.447632 50.67041 59.447632 C 51.041397 59.447632 51.286255 59.07663 51.286255 58.828064 C 51.286255 58.457062 51.041397 58.334625 50.67041 58.212219 Z"/>
    <path id="Path-copy-21" fill="#ffffff" fill-rule="evenodd" stroke="none" d="M 52.773941 57.592651 C 52.525375 57.592651 52.402939 57.715088 52.402939 57.841217 C 52.402939 58.08609 52.525375 58.212219 52.773941 58.212219 C 52.896362 58.212219 53.018799 58.08609 53.018799 57.841217 C 53.018799 57.715088 52.896362 57.592651 52.773941 57.592651 Z"/>
    <path id="Path-copy-20" fill="#6d561d" fill-rule="evenodd" stroke="none" d="M 91.505768 46.084473 C 87.547226 46.084473 84.453094 49.301025 84.453094 53.259552 C 84.453094 57.221802 87.547226 60.315918 91.505768 60.315918 C 95.468018 60.315918 98.684555 57.221802 98.684555 53.259552 C 98.684555 49.301025 95.468018 46.084473 91.505768 46.084473 Z"/>
    <path id="Path-copy-19" fill="#353127" fill-rule="evenodd" stroke="none" d="M 91.383301 49.300964 C 89.402176 49.300964 87.795761 50.911102 87.795761 52.888519 C 87.795761 54.992065 89.52832 56.479767 91.383301 56.479767 C 93.364426 56.479767 94.97084 54.747223 94.97084 52.888519 C 94.97084 50.911102 93.364426 49.423401 91.383301 49.300964 Z"/>
    <path id="Path-copy-18" fill="#ffffff" fill-rule="evenodd" stroke="none" d="M 88.166779 47.690857 C 86.805206 47.690857 85.814651 48.681427 85.814651 49.920563 C 85.814651 51.282135 86.805206 52.268982 88.166779 52.268982 C 89.402191 52.268982 90.51889 51.282135 90.51889 49.920563 C 90.51889 48.681427 89.402191 47.690857 88.166779 47.690857 Z"/>
    <path id="Path-copy-17" fill="#ffffff" fill-rule="evenodd" stroke="none" d="M 92.993393 58.212219 C 92.622391 58.212219 92.251389 58.457062 92.251389 58.828064 C 92.251389 59.07663 92.622391 59.447632 92.993393 59.447632 C 93.238251 59.447632 93.612946 59.07663 93.612946 58.828064 C 93.612946 58.457062 93.36438 58.334625 92.993393 58.212219 Z"/>
    <path id="Path-copy-16" fill="#ffffff" fill-rule="evenodd" stroke="none" d="M 94.970779 57.592651 C 94.725922 57.592651 94.599777 57.715088 94.599777 57.841217 C 94.599777 58.08609 94.848358 58.212219 94.970779 58.212219 C 95.096924 58.212219 95.219345 58.08609 95.219345 57.841217 C 95.219345 57.715088 95.096924 57.592651 94.970779 57.592651 Z"/>
    <path id="Path-copy-15" fill="#826a5e" fill-rule="evenodd" stroke="none" d="M 68.047775 58.542389 C 67.201904 58.542389 66.419098 58.635132 65.892273 58.954193 C 65.766144 59.944763 67.747269 61.306335 68.489258 61.551178 C 68.652496 61.610535 68.837997 61.636505 69.03833 61.636505 C 70.53717 61.636505 72.915253 60.122833 72.696365 58.705627 L 71.334808 58.705627 C 70.414734 58.705627 69.175613 58.542389 68.047775 58.542389 Z"/>
    <path id="Path-copy-14" fill="none" stroke="none" d="M 64.282166 66.129211 C 64.653168 67.490784 67.00528 68.481323 67.99585 67.616913 C 68.860275 66.874908 69.479843 65.264771 69.231262 64.025665 C 70.221832 65.016205 69.602264 66.997345 71.089966 67.616913 C 72.325394 68.236481 74.057938 67.739349 74.42894 66.377777"/>
    <path id="Path-copy-13" fill="none" stroke="#ce9f9f" stroke-width="0.524934" stroke-linecap="round" stroke-linejoin="round" d="M 64.282166 66.129211 C 64.653168 67.490784 67.00528 68.481323 67.99585 67.616913 C 68.860275 66.874908 69.479843 65.264771 69.231262 64.025665 C 70.221832 65.016205 69.602264 66.997345 71.089966 67.616913 C 72.325394 68.236481 74.057938 67.739349 74.42894 66.377777"/>
    <path id="Path-copy-12" fill="none" stroke="none" d="M 26.166473 61.306366 C 24.433914 60.189667 21.833221 60.189667 19.978233 59.696228 C 14.409569 58.457092 8.840897 56.973114 3.023659 55.860107"/>
    <path id="Path-copy-11" fill="none" stroke="#666666" stroke-width="0.524934" stroke-linecap="round" stroke-linejoin="round" d="M 26.166473 61.306366 C 24.433914 60.189667 21.833221 60.189667 19.978233 59.696228 C 14.409569 58.457092 8.840897 56.973114 3.023659 55.860107"/>
    <path id="Path-copy-10" fill="none" stroke="none" d="M 26.415039 65.884338 C 24.556351 65.264771 21.959366 65.758209 20.10067 65.884338 C 14.409569 66.129181 8.469902 65.758209 2.775093 66.129181"/>
    <path id="Path-copy-9" fill="none" stroke="#666666" stroke-width="0.524934" stroke-linecap="round" stroke-linejoin="round" d="M 26.415039 65.884338 C 24.556351 65.264771 21.959366 65.758209 20.10067 65.884338 C 14.409569 66.129181 8.469902 65.758209 2.775093 66.129181"/>
    <path id="Path-copy-8" fill="none" stroke="none" d="M 29.38298 70.09137 C 27.401855 70.09137 25.053436 71.452942 23.320877 72.07251 C 17.874641 74.176056 12.305969 75.782471 7.108299 78.134613"/>
    <path id="Path-copy-7" fill="none" stroke="#666666" stroke-width="0.524934" stroke-linecap="round" stroke-linejoin="round" d="M 29.38298 70.09137 C 27.401855 70.09137 25.053436 71.452942 23.320877 72.07251 C 17.874641 74.176056 12.305969 75.782471 7.108299 78.134613"/>
    <path id="Path-copy-6" fill="none" stroke="none" d="M 112.422333 60.189667 C 114.154892 59.076691 116.751862 59.076691 118.610565 58.705688 C 124.17923 57.466553 129.74791 55.860138 135.439011 54.747131"/>
    <path id="Path-copy-5" fill="none" stroke="#666666" stroke-width="0.524934" stroke-linecap="round" stroke-linejoin="round" d="M 112.422333 60.189667 C 114.154892 59.076691 116.751862 59.076691 118.610565 58.705688 C 124.17923 57.466553 129.74791 55.860138 135.439011 54.747131"/>
    <path id="Path-copy-4" fill="none" stroke="none" d="M 112.173767 64.893799 C 113.906326 64.274231 116.62944 64.645203 118.484421 64.893799 C 124.179245 65.016205 130.118912 64.645203 135.810013 65.016205"/>
    <path id="Path-copy-3" fill="none" stroke="#666666" stroke-width="0.524934" stroke-linecap="round" stroke-linejoin="round" d="M 112.173767 64.893799 C 113.906326 64.274231 116.62944 64.645203 118.484421 64.893799 C 124.179245 65.016205 130.118912 64.645203 135.810013 65.016205"/>
    <path id="Path-copy-2" fill="none" stroke="none" d="M 109.205811 68.978394 C 111.183228 68.978394 113.535355 70.462402 115.267914 71.08194 C 120.588013 73.059357 126.156677 74.791931 131.480499 77.021637"/>
    <path id="Path-copy" fill="none" stroke="#666666" stroke-width="0.524934" stroke-linecap="round" stroke-linejoin="round" d="M 109.205811 68.978394 C 111.183228 68.978394 113.535355 70.462402 115.267914 71.08194 C 120.588013 73.059357 126.156677 74.791931 131.480499 77.021637"/>
</svg>
