<?xml version="1.0" encoding="UTF-8"?>
<!-- Generated by Pixelmator Pro 3.4.1 -->
<svg width="101" height="93" viewBox="0 0 101 93" xmlns="http://www.w3.org/2000/svg">
    <path id="Path-copy-33" fill="#bead94" fill-rule="evenodd" stroke="none" d="M 54.795273 54.790222 C 53.740158 54.790222 52.719162 54.855194 51.874008 54.855194 C 48.897644 54.855194 46.27034 55.446075 43.293961 55.939453 C 41.853012 56.093079 40.464569 56.550995 39.551178 56.550995 C 39.301834 56.550995 39.086609 56.515533 38.916016 56.429871 C 38.477692 58.302917 37.603668 59.978027 37.165359 61.851044 C 35.853012 66.483459 35.062988 71.508759 34.18898 76.339111 C 33.926514 78.504608 34.013123 80.575592 34.013123 82.643646 C 34.013123 84.123749 33.750656 85.698425 34.364822 87.078094 C 35.062988 88.853638 36.288712 90.03537 37.866135 90.921661 C 41.805771 93.09903 46.624664 93.296967 51.123352 93.296967 C 52.123352 93.296967 53.107605 93.288086 54.062988 93.288086 C 57.564301 93.288086 60.629929 92.895172 63.955383 92.00592 C 65.532806 91.515503 68.771652 90.528748 69.910767 89.051575 C 70.346451 88.457764 70.259842 87.376465 70.346451 86.587677 C 70.522308 82.74408 70.346451 78.605072 69.472443 74.858978 C 68.509186 70.820404 67.370071 66.483459 65.532806 62.935303 C 64.131241 60.273438 62.02887 58.10498 59.929138 56.13443 C 58.690292 54.994049 56.692917 54.790222 54.795273 54.790222 Z"/>
    <path id="Path-copy-32" fill="#bead94" fill-rule="evenodd" stroke="none" d="M 23.351707 3.106293 C 21.044617 3.106293 18.727036 3.290039 16.477692 3.290039 C 16.165352 3.290039 15.850395 3.28479 15.54068 3.276917 C 14.839897 3.276917 13.897636 3.145691 12.989502 3.145691 C 12.081367 3.145691 11.207352 3.276917 10.637794 3.801819 C 9.322838 5.116791 10.637794 8.17981 11.162727 9.58136 C 12.650917 15.009186 16.677162 19.562988 20.530182 23.413391 C 22.107613 24.904205 24.120735 27.355652 26.309708 27.704712 C 26.51181 27.738831 26.706039 27.757202 26.892387 27.757202 C 29.921257 27.757202 30.800522 23.266418 31.212601 20.875336 C 31.824142 17.374023 32.611542 13.783447 32.963257 10.195557 C 33.139114 8.531494 33.312332 6.515747 32.438324 5.116791 C 31.876648 4.2323 31.167984 3.791321 29.973755 3.791321 C 29.866142 3.791321 29.753281 3.79657 29.63517 3.801819 C 29.157478 3.271667 28.191605 3.190308 27.293961 3.190308 C 26.913383 3.190308 26.543304 3.206055 26.228348 3.206055 C 26.062996 3.206055 25.913383 3.200806 25.784775 3.190308 C 24.976379 3.127319 24.165352 3.106293 23.351707 3.106293 Z"/>
    <path id="Path-copy-31" fill="#ff8a8a" fill-rule="evenodd" stroke="none" d="M 14.66404 7.216553 L 14.66404 7.216553 C 14.314964 8.531494 14.926506 9.93045 15.54068 10.982941 C 16.24147 12.82019 16.942261 14.660095 17.992126 16.148315 C 20.181099 19.211304 22.719162 23.413391 25.871391 25.253296 C 27.797897 23.502625 27.097115 21.227051 27.183723 18.948822 C 27.183723 16.935699 27.183723 14.746704 27.010498 12.733582 C 26.921257 12.208679 26.748032 11.507874 26.572182 10.807068 C 26.383202 10.891083 26.115486 10.925201 25.81102 10.925201 C 24.845146 10.925201 23.472443 10.589233 22.805771 10.458008 C 21.406822 10.282166 20.354332 9.757202 19.041992 9.2323 C 17.377953 8.704712 16.152229 8.17981 14.66404 7.216553 Z"/>
    <path id="Path-copy-30" fill="#bead94" fill-rule="evenodd" stroke="none" d="M 74.477692 2.856934 C 73.658798 2.856934 72.837265 2.967194 72.448822 3.452759 C 72.328079 3.444885 72.209976 3.442261 72.099731 3.442261 C 70.845139 3.442261 70.202103 3.904205 69.559052 5.027557 C 68.685043 6.429138 68.94751 8.442261 69.034119 10.019684 C 69.296585 13.696838 70.083984 17.28479 70.608917 20.788696 C 71.099731 23.161438 71.897644 27.597107 74.858261 27.597107 C 75.065613 27.597107 75.283463 27.576111 75.51181 27.52887 C 77.790024 27.090546 79.889771 24.814941 81.37796 23.326782 C 85.230972 19.473755 89.259842 15.009186 90.921265 9.58136 C 91.359573 8.17981 92.671921 5.116791 91.359573 3.801819 C 90.740158 3.229675 89.753281 3.098419 88.771652 3.098419 C 87.955383 3.098419 87.141739 3.190308 86.543304 3.190308 C 86.278214 3.198181 86.010498 3.200806 85.745407 3.200806 C 83.08136 3.200806 80.370071 2.891083 77.70079 2.891083 C 77.202103 2.891083 76.706039 2.901581 76.212601 2.927826 C 75.784775 2.927826 75.131241 2.856934 74.477692 2.856934 Z"/>
    <path id="Path-copy-29" fill="#ff8a8a" fill-rule="evenodd" stroke="none" d="M 87.333328 7.043304 L 87.333328 7.043304 C 85.755905 7.917328 84.530182 8.531494 82.955383 9.056427 C 81.640427 9.494751 80.503937 9.93045 79.102356 10.106293 C 78.448822 10.237549 77.115479 10.610229 76.152237 10.610229 C 75.824142 10.610229 75.538055 10.568237 75.338577 10.458008 C 75.162735 11.156189 75.076111 11.946198 74.900269 12.646973 C 74.637802 14.660095 74.637802 16.84906 74.637802 18.775574 C 74.637802 20.961945 74.023621 23.413391 75.776901 25.166687 C 78.926514 23.15094 81.553802 19.038055 83.742783 16.059052 C 84.881897 14.570862 85.493439 12.646973 86.456696 10.893707 C 86.981628 9.843811 87.595795 8.355652 87.333328 7.043304 Z"/>
    <path id="Path-copy-28" fill="#f3e2c6" fill-rule="evenodd" stroke="none" d="M 61.419952 1.691589 C 60.031494 1.691589 58.800522 1.793945 57.740158 1.87796 C 56.359573 1.914703 54.997375 1.925201 53.645676 1.925201 C 51.97113 1.925201 50.317581 1.909454 48.679794 1.909454 C 42.51181 1.909454 36.574799 2.137817 30.598427 4.329407 C 17.553802 9.143066 9.498688 29.631226 16.24147 42.851715 C 18.779526 47.927826 23.157478 50.730957 27.973755 53.269043 C 35.414703 57.297913 47.233597 58.171906 55.551178 58.171906 C 64.21785 58.171906 73.937012 55.809723 81.37796 51.169281 C 87.157486 47.665344 88.034119 40.137787 87.769028 33.919952 C 87.333328 26.654846 84.792648 18.33728 80.853012 12.208679 C 79.278214 10.019684 77.3517 5.465881 72.272964 4.240173 C 68.041992 2.153564 64.375336 1.691589 61.419952 1.691589 Z"/>
    <path id="Path-copy-27" fill="#bead94" fill-rule="evenodd" stroke="none" d="M 46.757874 29.603271 C 45.153763 33.269958 40.224182 43.210907 40.791992 47.582306 C 41.359787 51.953674 47.04483 56.052551 50.164688 55.831635 C 53.284546 55.610718 58.976151 50.727509 59.511154 46.256836 C 60.046143 41.786133 54.890411 32.453247 53.374664 29.007507 C 51.858917 25.561737 51.519455 25.482971 50.416656 25.582275 C 49.313858 25.68158 48.361984 25.936615 46.757874 29.603271 Z"/>
    <path id="Path-copy-26" fill="#332f2d" fill-rule="evenodd" stroke="none" d="M 60.454071 56.334656 Z"/>
    <path id="Path-copy-25" fill="#7f6000" fill-rule="evenodd" stroke="none" d="M 35.763779 25.253296 C 33.049866 25.253296 30.687668 27.442261 30.687668 30.332031 C 30.687668 33.045929 32.876648 35.321533 35.763779 35.321533 C 38.477692 35.321533 40.755905 33.132538 40.755905 30.332031 C 40.755905 27.442261 38.566925 25.253296 35.763779 25.253296 Z"/>
    <path id="Path-copy-24" fill="#000000" fill-rule="evenodd" stroke="none" d="M 35.763779 27.442261 C 34.364822 27.442261 33.225723 28.58136 33.225723 29.980316 C 33.225723 31.381897 34.451447 32.520996 35.763779 32.520996 C 37.165359 32.520996 38.304459 31.295288 38.304459 29.980316 C 38.304459 28.667969 37.078735 27.52887 35.763779 27.442261 Z"/>
    <path id="Path-copy-23" fill="#ffffff" fill-rule="evenodd" stroke="none" d="M 33.48819 26.392395 C 32.611542 26.392395 31.824142 27.090546 31.824142 27.967194 C 31.824142 28.843811 32.611542 29.631226 33.48819 29.631226 C 34.364822 29.631226 35.062988 28.843811 35.062988 27.967194 C 35.062988 27.090546 34.364822 26.392395 33.48819 26.392395 Z"/>
    <path id="Path-copy-22" fill="#ffffff" fill-rule="evenodd" stroke="none" d="M 36.816269 33.833344 C 36.640427 33.833344 36.37796 34.009186 36.37796 34.271667 C 36.37796 34.444885 36.640427 34.709961 36.816269 34.709961 C 37.078735 34.709961 37.251968 34.444885 37.251968 34.271667 C 37.251968 34.009186 37.078735 33.833344 36.816269 33.833344 Z"/>
    <path id="Path-copy-21" fill="#ffffff" fill-rule="evenodd" stroke="none" d="M 38.37796 33.324158 C 38.354324 33.324158 38.328079 33.345154 38.304459 33.39502 C 38.128616 33.39502 38.041992 33.484253 38.041992 33.570862 C 38.041992 33.657471 38.128616 33.833344 38.304459 33.833344 C 38.391083 33.833344 38.477692 33.657471 38.477692 33.570862 C 38.477692 33.44751 38.435699 33.324158 38.37796 33.324158 Z"/>
    <path id="Path-copy-20" fill="#7f6000" fill-rule="evenodd" stroke="none" d="M 65.706039 25.253296 C 62.905518 25.253296 60.716537 27.52887 60.716537 30.332031 C 60.716537 33.045929 62.905518 35.321533 65.706039 35.321533 C 68.509186 35.321533 70.784775 33.045929 70.784775 30.332031 C 70.784775 27.52887 68.509186 25.253296 65.706039 25.253296 Z"/>
    <path id="Path-copy-19" fill="#000000" fill-rule="evenodd" stroke="none" d="M 65.619415 27.442261 C 64.21785 27.442261 63.08136 28.58136 63.08136 29.980316 C 63.08136 31.381897 64.307083 32.520996 65.619415 32.520996 C 67.020996 32.520996 68.157486 31.295288 68.157486 29.980316 C 68.157486 28.667969 67.020996 27.52887 65.619415 27.442261 Z"/>
    <path id="Path-copy-18" fill="#ffffff" fill-rule="evenodd" stroke="none" d="M 63.343826 26.303162 C 62.380585 26.303162 61.679794 27.090546 61.679794 27.967194 C 61.679794 28.93045 62.380585 29.631226 63.343826 29.631226 C 64.21785 29.631226 65.007874 28.93045 65.007874 27.967194 C 65.007874 27.090546 64.21785 26.303162 63.343826 26.303162 Z"/>
    <path id="Path-copy-17" fill="#ffffff" fill-rule="evenodd" stroke="none" d="M 66.75853 33.833344 C 66.496063 33.833344 66.233597 34.009186 66.233597 34.271667 C 66.233597 34.444885 66.496063 34.709961 66.75853 34.709961 C 66.931763 34.709961 67.196854 34.444885 67.196854 34.271667 C 67.196854 34.009186 67.020996 33.833344 66.75853 33.833344 Z"/>
    <path id="Path-copy-16" fill="#ffffff" fill-rule="evenodd" stroke="none" d="M 68.233597 33.324158 C 68.209976 33.324158 68.183731 33.345154 68.157486 33.39502 C 67.984253 33.39502 67.89502 33.484253 67.89502 33.570862 C 67.89502 33.657471 68.070862 33.833344 68.157486 33.833344 C 68.246719 33.833344 68.333328 33.657471 68.333328 33.570862 C 68.333328 33.44751 68.288712 33.324158 68.233597 33.324158 Z"/>
    <path id="Path-copy-15" fill="#826a5e" fill-rule="evenodd" stroke="none" d="M 49.27034 33.909454 C 48.611542 33.909454 47.992126 33.985565 47.585297 34.271667 C 47.496063 34.883209 48.897644 36.022308 49.422577 36.108917 C 49.535431 36.150909 49.666672 36.169281 49.808395 36.169281 C 50.868759 36.169281 52.553802 35.090546 52.398956 34.009186 L 51.435699 34.009186 C 50.829391 34.009186 50.023621 33.909454 49.27034 33.909454 Z"/>
    <path id="Path-copy-14" fill="none" stroke="none" d="M 46.446198 39.347778 C 46.708664 40.400269 48.372696 41.101044 49.073486 40.486877 C 49.685043 39.961945 50.123352 38.822845 49.94751 37.948822 C 50.6483 38.649597 50.209976 40.048553 51.262466 40.486877 C 52.13649 40.925201 53.362198 40.573486 53.624664 39.612854"/>
    <path id="Path-copy-13" fill="none" stroke="#726767" stroke-width="0.524934" stroke-linecap="round" stroke-linejoin="round" d="M 46.446198 39.347778 C 46.708664 40.400269 48.372696 41.101044 49.073486 40.486877 C 49.685043 39.961945 50.123352 38.822845 49.94751 37.948822 C 50.6483 38.649597 50.209976 40.048553 51.262466 40.486877 C 52.13649 40.925201 53.362198 40.573486 53.624664 39.612854"/>
    <path id="Path-copy-12" fill="none" stroke="none" d="M 19.480316 36.022308 C 18.254593 35.234894 16.414696 35.234894 15.102364 34.883209 C 11.162727 34.009186 7.223099 32.956696 3.107613 32.169281"/>
    <path id="Path-copy-11" fill="none" stroke="#bcb7b7" stroke-width="0.524934" stroke-linecap="round" stroke-linejoin="round" d="M 19.480316 36.022308 C 18.254593 35.234894 16.414696 35.234894 15.102364 34.883209 C 11.162727 34.009186 7.223099 32.956696 3.107613 32.169281"/>
    <path id="Path-copy-10" fill="none" stroke="none" d="M 19.656166 39.261169 C 18.341209 38.822845 16.503937 39.17453 15.18898 39.261169 C 11.162727 39.347778 6.960632 39.17453 2.931755 39.347778"/>
    <path id="Path-copy-9" fill="none" stroke="#bcb7b7" stroke-width="0.524934" stroke-linecap="round" stroke-linejoin="round" d="M 19.656166 39.261169 C 18.341209 38.822845 16.503937 39.17453 15.18898 39.261169 C 11.162727 39.347778 6.960632 39.17453 2.931755 39.347778"/>
    <path id="Path-copy-8" fill="none" stroke="none" d="M 21.755905 42.150909 C 20.354332 42.150909 18.692917 43.114166 17.467194 43.55249 C 13.614174 44.951447 9.674538 46.177155 5.997375 47.841217"/>
    <path id="Path-copy-7" fill="none" stroke="#bcb7b7" stroke-width="0.524934" stroke-linecap="round" stroke-linejoin="round" d="M 21.755905 42.150909 C 20.354332 42.150909 18.692917 43.114166 17.467194 43.55249 C 13.614174 44.951447 9.674538 46.177155 5.997375 47.841217"/>
    <path id="Path-copy-6" fill="none" stroke="none" d="M 80.503937 35.14566 C 81.72966 34.358276 83.566925 34.358276 84.881897 34.009186 C 88.821518 33.132538 92.761154 32.082672 96.787399 31.295288"/>
    <path id="Path-copy-5" fill="none" stroke="#bcb7b7" stroke-width="0.524934" stroke-linecap="round" stroke-linejoin="round" d="M 80.503937 35.14566 C 81.72966 34.358276 83.566925 34.358276 84.881897 34.009186 C 88.821518 33.132538 92.761154 32.082672 96.787399 31.295288"/>
    <path id="Path-copy-4" fill="none" stroke="none" d="M 80.328079 38.473755 C 81.553802 38.035431 83.480316 38.387146 84.792648 38.473755 C 88.821518 38.649597 93.023621 38.387146 97.049866 38.649597"/>
    <path id="Path-copy-3" fill="none" stroke="#bcb7b7" stroke-width="0.524934" stroke-linecap="round" stroke-linejoin="round" d="M 80.328079 38.473755 C 81.553802 38.035431 83.480316 38.387146 84.792648 38.473755 C 88.821518 38.649597 93.023621 38.387146 97.049866 38.649597"/>
    <path id="Path-copy-2" fill="none" stroke="none" d="M 78.228348 41.363525 C 79.627304 41.363525 81.291336 42.326782 82.517059 42.762482 C 86.280838 44.164032 90.220474 45.389771 93.986877 47.053802"/>
    <path id="Path-copy" fill="none" stroke="#bcb7b7" stroke-width="0.524934" stroke-linecap="round" stroke-linejoin="round" d="M 78.228348 41.363525 C 79.627304 41.363525 81.291336 42.326782 82.517059 42.762482 C 86.280838 44.164032 90.220474 45.389771 93.986877 47.053802"/>
</svg>
